<svg id="Layer_1" data-name="Layer 1" xmlns="http://www.w3.org/2000/svg" viewBox="0 0 1414.95 952.16"><defs><style>.cls-1,.cls-8{fill:#2f2e41;}.cls-2{fill:#ffc500;}.cls-2,.cls-5,.cls-8{stroke:#000;}.cls-2,.cls-4,.cls-5,.cls-8{stroke-miterlimit:10;}.cls-3{fill:#3f3d56;}.cls-4{fill:#38baec;stroke:#3f3d56;}.cls-5{fill:#ff7d70;stroke-width:0.75px;}.cls-6{fill:#ffb8b8;}.cls-7{fill:#575a88;}</style></defs><path class="cls-1" d="M62.88,899.61c18.58,34.45,58,49.24,58,49.24s9.31-41.07-9.27-75.52-58-49.25-58-49.25S44.31,865.15,62.88,899.61Z"/><path class="cls-2" d="M75.65,888.27c33.54,20.18,46.46,60.26,46.46,60.26s-41.46,7.36-75-12.81S.65,875.46.65,875.46,42.11,868.09,75.65,888.27Z"/><rect class="cls-3" x="40.9" y="949.17" width="1358.73" height="2.99"/><rect class="cls-4" x="686.63" y="261.58" width="112.11" height="22.42"/><rect class="cls-4" x="593.95" y="352.76" width="112.11" height="22.42"/><rect class="cls-5" x="803.22" y="518.68" width="56.8" height="22.42"/><rect class="cls-5" x="999.03" y="518.68" width="56.8" height="22.42"/><rect class="cls-5" x="1100.68" y="518.68" width="56.8" height="22.42"/><rect class="cls-5" x="1049.86" y="686.09" width="56.8" height="22.42"/><rect class="cls-5" x="1254.64" y="686.09" width="56.8" height="22.42"/><rect class="cls-5" x="1203.81" y="518.68" width="56.8" height="22.42"/><rect class="cls-5" x="1306.95" y="518.68" width="56.8" height="22.42"/><polygon class="cls-5" points="1414.58 399.1 740.44 399.1 740.44 303.44 741.94 303.44 741.94 397.61 1414.58 397.61 1414.58 399.1"/><polygon class="cls-5" points="1360.76 569.5 925.79 569.5 925.79 399.1 925.79 399.1 925.79 568.01 1360.76 568.01 1360.76 569.5"/><rect class="cls-5" x="831.62" y="397.6" width="1.49" height="95.66"/><rect class="cls-5" x="1025.94" y="397.6" width="1.49" height="95.66"/><rect class="cls-5" x="1129.08" y="397.6" width="1.49" height="95.66"/><rect class="cls-5" x="1233.71" y="397.6" width="1.49" height="95.66"/><rect class="cls-5" x="1333.86" y="397.6" width="1.49" height="95.66"/><rect class="cls-5" x="1076.76" y="568.01" width="1.49" height="95.66"/><rect class="cls-5" x="1283.04" y="568.01" width="1.49" height="95.66"/><rect class="cls-4" x="686.63" y="448.43" width="112.11" height="22.42"/><rect class="cls-5" x="803.22" y="189.83" width="56.8" height="22.42"/><rect class="cls-5" x="999.03" y="189.83" width="56.8" height="22.42"/><rect class="cls-5" x="1100.68" y="189.83" width="56.8" height="22.42"/><rect class="cls-5" x="1049.86" y="22.42" width="56.8" height="22.42"/><rect class="cls-5" x="1254.64" y="22.42" width="56.8" height="22.42"/><rect class="cls-5" x="1203.81" y="189.83" width="56.8" height="22.42"/><rect class="cls-5" x="1306.95" y="189.83" width="56.8" height="22.42"/><polygon class="cls-5" points="1414.58 331.84 740.44 331.84 740.44 427.5 741.94 427.5 741.94 333.33 1414.58 333.33 1414.58 331.84"/><polygon class="cls-5" points="1360.76 162.93 925.79 162.93 925.79 333.33 925.79 333.33 925.79 164.42 1360.76 164.42 1360.76 162.93"/><rect class="cls-5" x="831.62" y="237.67" width="1.49" height="95.66"/><rect class="cls-5" x="1025.94" y="237.67" width="1.49" height="95.66"/><rect class="cls-5" x="1129.08" y="237.67" width="1.49" height="95.66"/><rect class="cls-5" x="1233.71" y="237.67" width="1.49" height="95.66"/><rect class="cls-5" x="1333.86" y="237.67" width="1.49" height="95.66"/><rect class="cls-5" x="1076.76" y="67.26" width="1.49" height="95.66"/><rect class="cls-5" x="1283.04" y="67.26" width="1.49" height="95.66"/><path class="cls-1" d="M447.78,31.57C430,1.51,394.79.11,394.79.11s-34.3-4.38-56.3,41.4c-20.51,42.67-48.81,83.87-4.56,93.86l8-24.88,4.95,26.74a173.27,173.27,0,0,0,18.93.32C413.2,136,458.34,138,456.88,121,455,98.38,464.9,60.5,447.78,31.57Z"/><path class="cls-6" d="M382.1,134c.09,3.39.06,7-1.62,9.89-3.33,5.83-11.47,6.7-16.36,11.29-5.15,4.82-5.73,12.66-6,19.71-.25,7.37-.47,15,2.22,21.86a53.09,53.09,0,0,0,6.21,10.66q4.47,6.47,9,12.87a56.22,56.22,0,0,0,5.42,6.79c5.45,5.56,12.93,8.63,20.39,10.82,4.83,1.42,10,2.52,14.82,1a28.3,28.3,0,0,0,8.62-5.3,46,46,0,0,0,9.75-9.45c4-5.83,5.13-13.12,6-20.15a436,436,0,0,0,2.87-62.67,15.32,15.32,0,0,0-1.2-6.65c-2.48-4.84-9.11-5.88-12.61-10-3-3.56-3.11-8.64-3.09-13.29l.07-11.83A5,5,0,0,0,426,96.6,4.89,4.89,0,0,0,422.64,95a114.52,114.52,0,0,0-22.27-1.49c-6,.19-17.63-.32-22.85,3-4.75,3.05,1.19,11.49,2.29,16.23A105.58,105.58,0,0,1,382.1,134Z"/><path class="cls-1" d="M283.89,926.34c-1.53,5.23-2.24,11.32.94,15.73a15.93,15.93,0,0,0,6.73,4.93c6.66,2.9,14.11,3.47,21.36,3.13a10.08,10.08,0,0,0,7.56-2.9,93.14,93.14,0,0,0,32.21-54.94,5.19,5.19,0,0,0-.17-3.37,5.39,5.39,0,0,0-2.25-1.9,50.27,50.27,0,0,0-12-5.5C315.08,875.54,289.63,906.82,283.89,926.34Z"/><path class="cls-1" d="M526.82,853.13a34.15,34.15,0,0,0,11.26,8.57,15.78,15.78,0,0,0,13.76-.23c6.37-3.63,8.18-12.06,7.67-19.37-.94-13.53-7.4-25.73-14.83-36.78-2.35-3.49-7.55-13.9-12.12-14-2.17-.06-10.28,7.8-12.48,9.3-8.05,5.47-13.63,9.38-12,19.87C510,832.17,518.94,844.7,526.82,853.13Z"/><circle class="cls-6" cx="396.01" cy="65.84" r="47.83"/><path class="cls-2" d="M376.32,184.32a70.2,70.2,0,0,1-7.46-14.49,23.52,23.52,0,0,1-.13-16c-5.17-3-12.19-.57-16,4.07s-4.92,10.86-5.25,16.83,0,12-1.28,17.85c-2.87,12.91-13.53,23.52-14.32,36.72-.78,13,8.12,24.29,12.5,36.54a61,61,0,0,1,3.26,23.78c-.14,2.61-.3,5.57,1.54,7.42a8.34,8.34,0,0,0,3.31,1.79c21.13,7.43,44,8.08,66.36,8.64l37,.94a11.8,11.8,0,0,0,6.54-1.09c3.31-2,3.76-6.6,3.81-10.49.49-33.53-.94-67-2.36-100.55-.52-12.14-1-24.36-3.62-36.23-.65-3-1.73-6.39-4.52-7.73-2.36-1.13-5.17-.39-7.63.51a60.82,60.82,0,0,0-28.43,21.89c-7.59,10.8-11.32,23.76-18.75,34.65-5.39,7.9-8.51,1-12.1-4.8Z"/><path class="cls-7" d="M364.06,140.85c-2.85,1.4-6.06,2-8.77,3.66-3.24,2-5.45,5.24-7.55,8.4L336.4,170a52.65,52.65,0,0,0-6.49,11.87C328.14,187,328,192.57,327.85,198q-.69,22.8-2.83,45.52a165.59,165.59,0,0,1-3.15,21.73c-1.35,5.81-3.26,11.48-5.17,17.13l-21,62.27a23.59,23.59,0,0,0-1.81,9.81c.35,3.34,2.56,6.72,5.85,7.32a11.5,11.5,0,0,0,6.31-1.28c8-3.35,16-7.31,22.16-13.43,10.15-10.05,14.23-24.54,17.92-38.34,2-7.32,3.94-14.75,3.93-22.33,0-17.2-10.18-33.14-10.45-50.34a88,88,0,0,1,1.26-13.94c1.81-12.53,3.69-25.16,8-37s11.37-23.14,21.7-30.45c5-3.51,18.26-10.52,13.07-18.58S369.13,138.36,364.06,140.85Z"/><path class="cls-8" d="M456.22,295q-51.41-4-102.92-6.63c-2.89-.15-6.17-.14-8.15,2a10.26,10.26,0,0,0-1.87,3.51L336,313.65c-3.25,8.76-4.73,17-11.22,23.76s-14.2,12.18-20.61,19a70.12,70.12,0,0,0-18.05,36.83c-1.78,11.32-.77,23.06-3.69,34.14-3.61,13.67,2.18,27.89,2.09,42-.14,21.05-3,42-5.91,62.81-8.35,60.44-16.7,120.88-25.78,181.22-7.45,49.53-14.79,103,8.48,147.37,5.56,10.6,13.13,20.67,23.77,26.17a71.9,71.9,0,0,0,18.54,5.82,424.41,424.41,0,0,0,49.91,7.39c6.8.6,14.72.59,19.09-4.66,2.92-3.52,3.33-8.43,3.61-13L378,852.65c2.38-38.64,1.51-78.69-7.11-116.42-2.91-12.73-6.56-25.28-9-38.1a204.48,204.48,0,0,1-3.57-36.94,117.62,117.62,0,0,1,2.44-26.47c6.3-28.06,27.19-53.36,24.16-82,19.25,28.23,25.63,60.56,31.65,94.2,4.4,24.54,9.15,49.13,17.47,72.62,9,25.55,22.47,50.91,20.56,77.94a102.51,102.51,0,0,1-2.79,16.7c-5.47,22.69,17.64,42.1,38.95,32.58l.44-.2c19.69-9.07,29.64-33,49.73-41.12,9.33-3.79,20.95-4.33,24.73-15.78a20,20,0,0,0,.82-8.2c-.88-9.26-6.16-16.76-10.27-24.72-9-17.37-12.36-37-15.58-56.27s-6.35-38.32-9.43-57.49c-2-12.53-4-25.15-8.15-37.15-1.8-5.26-4-10.39-5.45-15.75-5.4-20,.18-41.41-2.07-62.06-2.54-23.21-7.21-46.27-12.31-69.06-6.62-29.53-8-59.94-9-90.18-.43-12-.87-24.32-5.39-35.45C482.42,317.67,469.83,305.13,456.22,295Z"/><polygon class="cls-1" points="439.8 28.68 405.02 10.46 357 17.91 347.07 61.8 371.8 60.84 378.71 44.72 378.71 60.58 390.12 60.14 396.75 34.47 400.88 61.8 441.45 60.97 439.8 28.68"/><path class="cls-7" d="M421.62,162.76a19.4,19.4,0,0,1,10.19-5,5.24,5.24,0,0,0,3.59-1.45,4.46,4.46,0,0,0,.61-2.67,129.19,129.19,0,0,0-2.09-25.14,25.34,25.34,0,0,1,10.25-1.4l32.2.09c6.47,0,13.17.09,19.07,2.77A30.33,30.33,0,0,1,509.21,144a81.82,81.82,0,0,1,6.23,19c3.83,16.53-9.91,33.16-11.14,50.08-.35,4.87.06,9.79-.39,14.66-.48,5.13-1.9,10.16-2,15.31-.14,6.37,1.71,12.6,3.85,18.6,6.53,18.33,15.84,35.53,23.39,53.47A44.64,44.64,0,0,1,533,328.11a16.73,16.73,0,0,1-3.55,12.68c-3.15,3.53-7.94,5-12.36,6.66a81,81,0,0,0-15.82,8.12,33.33,33.33,0,0,1-6.44,3.73,41.08,41.08,0,0,1-6.85,1.52c-6,1.13-11.6,3.54-17.36,5.45-1.9.63-4.1,1.18-5.81.15a6.85,6.85,0,0,1-2.25-2.67c-11.05-19.13-14.95-41.49-17.48-63.44s-3.93-44.25-10.65-65.29c-2-6.4-4.58-12.69-5.74-19.3-1.68-9.57-.42-19.47-2.15-29C425,178.22,421,171.35,421.62,162.76Z"/><path class="cls-6" d="M495,344.59c-9.59,4.59-17.17,11.88-23.59,20.35-1.36,1.79.46,5.14,4.53,5.08,3.79,0,6-4.91,9.84-5a165.31,165.31,0,0,0,6.26,29.86c7.56-6.64,12.09-16,16.42-25.06l8.55-17.94c3.14-6.59,6.29-13.18,9.12-19.9a14.26,14.26,0,0,0,1.4-5c.38-11.58-11-11.65-16-4.4C506.23,330.52,504.55,340,495,344.59Z"/><path class="cls-7" d="M497,145.58c7.32,7.61,14.69,15.27,20.37,24.17S527,189,526.73,199.5a28.67,28.67,0,0,0,.29,8,22.72,22.72,0,0,0,3.65,6.74,128.63,128.63,0,0,1,16.51,34.22,30,30,0,0,0,2.7,6.89c1.08,1.77,2.55,3.26,3.74,5a19,19,0,0,1,.33,20.83,6.87,6.87,0,0,0-1.29,2.54c-.49,2.9,3.16,4.65,4.5,7.28s.06,6.06-2.2,8a20.45,20.45,0,0,1-8.11,3.63c3.77,5.4-.81,13-2.35,19.4-1.07,4.48-1.06,9.15-1.76,13.71s-2.29,9.24-5.8,12.23a3.6,3.6,0,0,1-1.59.9c-2,.38-3.28-1.88-4-3.74-2.12-5.8-4.26-11.71-8-16.63s-9.42-8.76-15.59-8.74a8.32,8.32,0,0,1,.6-7.59c1.24-2.34,3.05-4.31,4.42-6.58a30.21,30.21,0,0,0,3.47-9.93,65.19,65.19,0,0,0-8.6-46.48,44.7,44.7,0,0,0-7.18-9c-3-2.83-6.55-5.1-9.33-8.16a31.86,31.86,0,0,1-7.42-18,94.62,94.62,0,0,1,.52-19.76c1.25-13,2.86-26,4.72-38.94a14.46,14.46,0,0,1,1.29-4.87C491.75,147.74,494.21,146.9,497,145.58Z"/></svg>