<?xml version="1.0"?>
<svg xmlns="http://www.w3.org/2000/svg" viewBox="0 0 512 512" width="512" height="512"><g id="Out_line" data-name="Out line"><path d="M488,64H384V80h96V479.94824H256v16H488a8.00039,8.00039,0,0,0,8-8V72A8.00039,8.00039,0,0,0,488,64Z"/><circle cx="344" cy="48" r="8"/><path d="M232,96a8.00039,8.00039,0,0,0-8,8V288h16V112h24.022A39.79015,39.79015,0,0,0,256,136a8.00039,8.00039,0,0,0,8,8H424a8.00039,8.00039,0,0,0,8-8,39.79015,39.79015,0,0,0-8.022-24H448V447.9502H256v16H456a8.0004,8.0004,0,0,0,8-8V104a8.00039,8.00039,0,0,0-8-8H376.4375a12.28484,12.28484,0,0,1-8.74609-3.62305,12.41779,12.41779,0,0,1-2.49024-13.9209L373.0498,61.4082a31.98148,31.98148,0,1,0-58.0996,0l7.84863,17.04785a12.41779,12.41779,0,0,1-2.49024,13.9209A12.28484,12.28484,0,0,1,311.5625,96H232Zm79.55957,16h.00293a28.187,28.187,0,0,0,20.06055-8.30859,28.48243,28.48243,0,0,0,5.709-31.92676L329.4834,54.7168A15.95741,15.95741,0,0,1,329.5,41.31348a15.9817,15.9817,0,0,1,29-.001,15.95964,15.95964,0,0,1,.0166,13.4043L350.668,71.76465a28.48243,28.48243,0,0,0,5.709,31.92676A28.187,28.187,0,0,0,376.4375,112H392a24.04166,24.04166,0,0,1,22.62891,16H273.37109A24.04166,24.04166,0,0,1,296,112Z"/><path d="M264,240.05176h48a8.00039,8.00039,0,0,0,8-8V187.417l13.65723-13.65722-11.31446-11.31446-13.65722,13.65723H264a8.00039,8.00039,0,0,0-8,8v47.94922A8.00039,8.00039,0,0,0,264,240.05176Zm8-47.94922h20.68555l-10.34278,10.34277,11.31446,11.31446L304,203.417v20.63477H272Z"/><path d="M272,415.94824v16h40a8.00039,8.00039,0,0,0,8-8V376a8.00039,8.00039,0,0,0-8-8H288v16h16v31.94824Z"/><rect x="336" y="208.05176" width="96" height="16"/><rect x="336" y="304.05176" width="96" height="16"/><rect x="335.99999" y="399.97412" width="88.00002" height="16"/><path d="M293.65723,309.709,304,299.36621V320H288v16h24a8.00039,8.00039,0,0,0,8-8V283.36621L333.65723,269.709l-11.31446-11.31445-13.65722,13.65723H264a8.00039,8.00039,0,0,0-8,8V288h8v.05176h28.68555l-10.34278,10.34277Z"/><path d="M264,408a8.00039,8.00039,0,0,0,8-8V312a8.00039,8.00039,0,0,0-8-8H99.31445l26.34278-26.34277a8.03215,8.03215,0,0,0,1.498-2.07911L192,145.88867V288h16V113.88867l15.15527-30.31055A7.95235,7.95235,0,0,0,223.99341,80H304V64H201.88867l-14.31055-7.15527a8.00075,8.00075,0,0,0-10.73339,3.57715l-12.42237,24.845-7.77-3.885A26.00052,26.00052,0,0,0,121.127,94.39551l-16.48047,38.45312,14.707,6.30274L135.834,100.69824a9.99908,9.99908,0,0,1,13.66211-5.00586l7.77076,3.88526L80.84473,252.42188a8.01634,8.01634,0,0,0-.76465,2.44628L73.06128,304H56a8.00039,8.00039,0,0,0-8,8v80H24a8.00039,8.00039,0,0,0-8,8v88a8.00039,8.00039,0,0,0,8,8H232a8.00039,8.00039,0,0,0,8-8V408ZM187.57812,74.7334l17.68848,8.84472-8.84424,17.68873-17.68872-8.84449ZM95.73633,258.416,171.57812,106.7334l17.68848,8.84424-75.8418,151.6831L91.31348,289.37305ZM256,392H192V320h64Zm-80-72v72H144V320ZM64,320h64v72H64ZM32,408H96v72H32Zm80,72V408h32v72Zm112,0H160V408h64Z"/></g></svg>
