<svg id="Capa_1" enable-background="new 0 0 512 512" height="512" viewBox="0 0 512 512" width="512" xmlns="http://www.w3.org/2000/svg"><g><path d="m180 110c0-27.57-22.43-50-50-50s-50 22.43-50 50 22.43 50 50 50 50-22.43 50-50zm-50 30c-16.542 0-30-13.458-30-30s13.458-30 30-30 30 13.458 30 30-13.458 30-30 30z"/><path d="m130 260c72.557 0 130-59.151 130-130 0-71.682-58.317-130-130-130s-130 58.318-130 130c0 70.844 57.433 130 130 130zm-49.95-31.988c1.049-26.651 23.046-48.012 49.95-48.012s48.901 21.361 49.95 48.012c-15.38 7.85-32.527 11.988-49.95 11.988s-34.57-4.138-49.95-11.988zm49.95-208.012c60.654 0 110 49.346 110 110 0 33.607-15.545 65.262-41.414 85.97-6.515-31.897-34.792-55.97-68.586-55.97s-62.071 24.073-68.586 55.97c-25.868-20.707-41.414-52.362-41.414-85.97 0-60.654 49.346-110 110-110z"/><path d="m432 362c0-27.57-22.43-50-50-50s-50 22.43-50 50 22.43 50 50 50 50-22.43 50-50zm-50 30c-16.542 0-30-13.458-30-30s13.458-30 30-30 30 13.458 30 30-13.458 30-30 30z"/><path d="m382 252c-71.683 0-130 58.318-130 130 0 70.85 57.432 130 130 130 72.556 0 130-59.151 130-130 0-71.682-58.317-130-130-130zm-49.95 228.012c1.049-26.651 23.046-48.012 49.95-48.012s48.901 21.361 49.95 48.012c-15.38 7.85-32.527 11.988-49.95 11.988s-34.57-4.138-49.95-11.988zm118.536-12.042c-6.515-31.897-34.792-55.97-68.586-55.97s-62.071 24.073-68.586 55.97c-25.868-20.707-41.414-52.362-41.414-85.97 0-60.654 49.346-110 110-110s110 49.346 110 110c0 33.607-15.545 65.262-41.414 85.97z"/><path d="m236 466c-38.599 0-70-31.402-70-70v-10h10c3.788 0 7.25-2.14 8.944-5.528s1.328-7.442-.944-10.472l-60-80c-1.889-2.518-4.853-4-8-4s-6.111 1.482-8 4l-60 80c-2.272 3.03-2.639 7.084-.944 10.472s5.156 5.528 8.944 5.528h10v10c0 49.626 40.374 90 90 90h80c5.522 0 10-4.477 10-10s-4.478-10-10-10zm-80 0c-38.599 0-70-31.402-70-70v-20c0-5.523-4.478-10-10-10l40-53.333 40 53.333c-5.522 0-10 4.477-10 10v20c0 28.242 13.075 53.487 33.491 70z"/><path d="m276 46c38.599 0 70 31.402 70 70v10h-10c-3.788 0-7.25 2.14-8.944 5.528s-1.328 7.442.944 10.472l60 80c1.889 2.518 4.853 4 8 4s6.111-1.482 8-4l60-80c2.272-3.03 2.639-7.084.944-10.472s-5.156-5.528-8.944-5.528h-10v-10c0-2.696-.121-5.419-.36-8.094-.491-5.501-5.348-9.561-10.85-9.071-5.501.491-9.562 5.349-9.07 10.85.186 2.085.28 4.21.28 6.314v20c0 5.523 4.478 10 10 10l-40 53.333-40-53.332c5.522 0 10-4.477 10-10v-20c0-28.242-13.075-53.487-33.491-70h23.491c7.997 0 15.835 1.335 23.295 3.968 5.212 1.835 10.92-.895 12.758-6.103s-.894-10.92-6.102-12.758c-9.604-3.389-19.68-5.107-29.951-5.107h-80c-5.522 0-10 4.477-10 10s4.478 10 10 10z"/><circle cx="419" cy="67" r="10"/></g></svg>