<svg id="Layer_1" data-name="Layer 1" xmlns="http://www.w3.org/2000/svg" viewBox="0 0 1600.71 1111.5"><defs><style>.cls-1{fill:#6c63ff;}.cls-1,.cls-15{opacity:0.1;isolation:isolate;}.cls-2{fill:#50c7e2;}.cls-2,.cls-3{stroke:#3f3d56;}.cls-10,.cls-11,.cls-12,.cls-14,.cls-16,.cls-17,.cls-18,.cls-2,.cls-3,.cls-6,.cls-7,.cls-8{stroke-miterlimit:10;}.cls-3{fill:#38baec;}.cls-12,.cls-4,.cls-6{fill:#3f3d56;}.cls-14,.cls-5{fill:#fff;}.cls-10,.cls-11,.cls-12,.cls-14,.cls-16,.cls-17,.cls-18,.cls-6,.cls-7,.cls-8{stroke:#000;}.cls-13,.cls-17,.cls-7{fill:#192534;}.cls-16,.cls-8{fill:#fbbebe;}.cls-11,.cls-9{fill:#f2f2f2;}.cls-10{fill:#ffc500;}.cls-12,.cls-16,.cls-17,.cls-18{stroke-width:0.75px;}.cls-18{fill:#ff7d70;}</style></defs><rect class="cls-1" x="426.8" y="503.02" width="191.56" height="58.49" rx="10.86"/><rect class="cls-1" x="426.8" y="415.28" width="191.56" height="58.49" rx="10.86"/><rect class="cls-1" x="426.8" y="299.76" width="191.56" height="58.49" rx="10.86"/><rect class="cls-1" x="426.8" y="213.49" width="191.56" height="58.49" rx="10.86"/><rect class="cls-2" x="1049.72" y="503.02" width="191.56" height="58.49" rx="10.86"/><rect class="cls-2" x="1250.05" y="560.05" width="191.56" height="58.49" rx="10.86"/><rect class="cls-2" x="1049.72" y="415.28" width="191.56" height="58.49" rx="10.86"/><rect class="cls-2" x="1250.05" y="473.77" width="191.56" height="58.49" rx="10.86"/><rect class="cls-2" x="1049.72" y="299.76" width="191.56" height="58.49" rx="10.86"/><rect class="cls-2" x="1250.05" y="358.25" width="191.56" height="58.49" rx="10.86"/><rect class="cls-2" x="226.47" y="444.53" width="191.56" height="58.49" rx="10.86"/><rect class="cls-2" x="627.13" y="560.05" width="191.56" height="58.49" rx="10.86"/><rect class="cls-2" x="226.47" y="358.25" width="191.56" height="58.49" rx="10.86"/><rect class="cls-2" x="627.13" y="473.77" width="191.56" height="58.49" rx="10.86"/><rect class="cls-2" x="849.39" y="444.53" width="191.56" height="58.49" rx="10.86"/><rect class="cls-2" x="849.39" y="358.25" width="191.56" height="58.49" rx="10.86"/><rect class="cls-2" x="226.47" y="242.73" width="191.56" height="58.49" rx="10.86"/><rect class="cls-2" x="627.13" y="358.25" width="191.56" height="58.49" rx="10.86"/><rect class="cls-2" x="226.47" y="155" width="191.56" height="58.49" rx="10.86"/><rect class="cls-2" x="627.13" y="270.52" width="191.56" height="58.49" rx="10.86"/><rect class="cls-2" x="849.39" y="242.73" width="191.56" height="58.49" rx="10.86"/><rect class="cls-2" x="849.39" y="155" width="191.56" height="58.49" rx="10.86"/><rect class="cls-2" x="1049.72" y="213.49" width="191.56" height="58.49" rx="10.86"/><rect class="cls-2" x="1250.05" y="270.52" width="191.56" height="58.49" rx="10.86"/><ellipse class="cls-3" cx="800.36" cy="965.51" rx="799.86" ry="145.49"/><polygon class="cls-4" points="351.44 469.07 284.18 881.42 588.33 849.26 575.17 814.16 337.55 833.9 393.12 468.34 351.44 469.07"/><polygon class="cls-4" points="272.48 1.46 681.91 0 800.36 896.37 389.46 951.93 272.48 1.46"/><polygon class="cls-5" points="317.08 35.09 647.55 35.09 763.07 868.58 422.36 915.37 317.08 35.09"/><path class="cls-6" d="M628.74,831.5c2.08,4,3.63,8.28,6.34,11.86,7.89,10.56,22.88,12.21,34.13,19.1a3.18,3.18,0,0,1,1.33,1.29c.51,1.21-.63,2.48-1.73,3.24-8.52,6-19.71,6.12-30.14,6a40.11,40.11,0,0,1-10.42-1c-5.52-1.46-10.24-5.31-15.68-6.88A41.74,41.74,0,0,0,604,864l-11.42-.77a27.14,27.14,0,0,1-8.91-1.66,9,9,0,0,1-5.61-6.65c-.32-2.43.72-4.78,1.33-7.15,1.46-5.61,1-12.4,5.38-16.23a16.61,16.61,0,0,1,6.07-2.93,195.72,195.72,0,0,1,24.29-6.46C621.86,820.77,625.75,825.74,628.74,831.5Z"/><path class="cls-6" d="M499.57,863.13c.29,3.12.38,6.69-1.87,8.86a10,10,0,0,1-4.9,2.2c-10.81,2.51-22.86,2.69-32.26-3.19a8.86,8.86,0,0,1-2.54-2.18,7.91,7.91,0,0,1-1.29-4c-.34-4.14.94-8.22,2.09-12.21A215.51,215.51,0,0,0,465,823.71c.11-.8,27.59,4.39,29.42,7.11,2.29,3.36,2.31,11.43,2.92,15.44Q498.76,854.65,499.57,863.13Z"/><path class="cls-7" d="M601.84,482.62l7.31,68c1.46,13.9,3,27.86,2,41.8-1.17,16.08-5.67,32.16-3.77,48.1.74,6.2,2.44,12.29,2.69,18.53a103.29,103.29,0,0,1-.63,12.43c-3.31,41.25,7.15,82.18,13,123.14a53.18,53.18,0,0,1,.61,15.32c-.76,5.19-2.28,12,2.34,14.46L582,840.12c-5.54-7-1.87-17.76-2.92-26.57-1-7.94-5.33-15-7.65-22.67-2.11-6.87-2.54-14.11-3.23-21.24-3.79-38.86-15.41-76.7-18.13-115.64a52.54,52.54,0,0,0-1.47-11.16c-1.46-4.84-4.38-9.06-6.52-13.61-3.27-6.83-4.88-14.32-6.46-21.71L526.31,564c-9.38,14-9,32.17-10.86,48.93-2.6,23.4-8.42,46.4-13.16,69.5a137,137,0,0,0-2.47,15.06c-1.23,13.56,1.21,27.24-.09,40.78-1.46,15.69-8.06,31-6.46,46.69.87,8.69,4.21,16.91,6.46,25.33s3.36,17.67-.07,25.69a79,79,0,0,0-37.6-4.15c-13.93-14.26-16.4-34.14-17.35-54.1s1.34-40-1.15-59.72c-.73-5.85-1.87-11.55-2.06-17.39-.61-18.7,8.38-36.2,12.86-54.38a115.12,115.12,0,0,0,1.12-49.94c-2.19-10.92-6-21.52-7.31-32.59-1.83-15.51,1.27-31.15,4.39-46.47,2.09-10.34,4.16-20.68,6.53-31,2.55-11,5.57-22.31,12.37-31.35,10.88-14.46,30.2-20.88,48.26-19.47s34.92,9.62,49.83,19.85A188.13,188.13,0,0,1,601.84,482.62Z"/><path class="cls-8" d="M553.32,222.31a12.65,12.65,0,0,0-1.68,4.3c-.37,3,1.46,5.75,2.92,8.37a45.06,45.06,0,0,1,4.29,10.67,17.68,17.68,0,0,1,.63,7.12,17.27,17.27,0,0,1-1.9,5.12c-2.83,5.44-7,10.47-12.7,12.74a22.37,22.37,0,0,1-13.73.55,41.7,41.7,0,0,1-12.56-6,38.25,38.25,0,0,1-8.6-7.45,52,52,0,0,1-5.93-10.24c-3-6.36-6.13-13.16-5.57-20.13a6.51,6.51,0,0,1,.35-1.86,10.1,10.1,0,0,1,2-2.93,38.18,38.18,0,0,0,8.95-26.54l21.3,4.84c4.7,1.07,9.39,2.14,14,3.47,3.81,1.1,9.66,2.62,12.13,6S555,219.21,553.32,222.31Z"/><circle class="cls-8" cx="541.92" cy="179.97" r="38.72"/><path class="cls-9" d="M535.69,258.08c1.63-3.58,5.17-5.85,8.4-8.1s6.51-5.13,7.14-9a6.57,6.57,0,0,1,.64-2.54c1.25-1.87,4.2-.94,6,.44,4.3,3.34,7.22,8.1,10.07,12.73a109.34,109.34,0,0,1,9.44,17.83c4.11,10.83,4.6,22.66,5.06,34.23.41,10.53.8,21.22-1.76,31.42-1.61,6.47-4.39,12.74-4.55,19.39-.48,24.17-8.87,47.28-9.46,71.45a185,185,0,0,0,1.06,20.92l1.37,15.69q-31.89-1.83-63.61-5.6c-.61-7.22-2.67-14.23-4.56-21.21a460.17,460.17,0,0,1-14.78-87.36c-1.13-15.68-2.28-31.29-4-46.91-1.56-14.2-4.63-28.48-2.79-42.65a59,59,0,0,1,6-18.46,12.18,12.18,0,0,1,4.68-5.6,13.14,13.14,0,0,1,3.3-1.07,61.92,61.92,0,0,1,10.06-1.18,7,7,0,0,1,2.46.23,7.78,7.78,0,0,1,3.35,3.25A60.61,60.61,0,0,0,535.69,258.08Z"/><path class="cls-10" d="M517.73,255c2.72,3.89,8.48,4.81,11,8.77a23.18,23.18,0,0,1,1.91,5.22c1.54,4.9,4.64,9.16,6.52,13.94,2.72,6.87,2.8,14.47,2.83,21.86a72.82,72.82,0,0,1-1.35,17.55c-.88,3.61-2.31,7-3.36,10.61a51.94,51.94,0,0,0-2,18.72,7.62,7.62,0,0,0,1,3.87,8.39,8.39,0,0,0,3.74,2.55c4.29,1.88,8.78,3.81,13.46,3.38a4.83,4.83,0,0,0,2.67-.9,5.94,5.94,0,0,0,1.32-1.74l2.92-4.94c2.65-4.52,5.41-9.58,4.39-14.74a29.14,29.14,0,0,0-3.32-7.56,89.31,89.31,0,0,1-4.77-11.8c-4.66-13.41-9.38-27-10.44-41.16a36.1,36.1,0,0,1,1.76-16,45.11,45.11,0,0,1,5.15-8.9,3.8,3.8,0,0,0-4.11-1.39,23.64,23.64,0,0,0-4.26,1.77c-4.3,1.81-9.07,1.15-13.41-.09-1.69-.5-4.38-2.19-6.14-2.08C522.73,252,517.83,255.15,517.73,255Z"/><path class="cls-11" d="M552,254.82c-.88-.7-2.24-1.35-3-.53a3.51,3.51,0,0,0-.56,1.19c-.76,2-3,3-5,3.84s-4.22,1.23-5.45-.28a3.29,3.29,0,0,1,.19-3.9,12.07,12.07,0,0,1,3.2-2.71,31.2,31.2,0,0,0,12.75-20.06,9.53,9.53,0,0,1,3.5,6c.48,2.33.54,4.72,1,7.05.72,3.33,2.31,6.45,2.68,9.83a51.38,51.38,0,0,1,0,5.41,32.74,32.74,0,0,0,.61,5.23C558.44,262.31,556,258.05,552,254.82Z"/><path class="cls-11" d="M522.37,244.89c-1.47-1.39-2.93-2.71-4.39-4.12a56.94,56.94,0,0,1-14.14-22.45c-1.87,1.46-3.93,3.39-4,5.85a9,9,0,0,0,1.93,4.75,74.17,74.17,0,0,1,10.72,28.68,8.57,8.57,0,0,1,7.38-3.94c2.31,0,12.68,6.14,13.43,4.59C534.41,255.83,524.12,246.54,522.37,244.89Z"/><path class="cls-12" d="M555,233.25A121.35,121.35,0,0,0,604.12,263a11,11,0,0,1,5,2.51,10.22,10.22,0,0,1,2.06,4.54c3.57,14,4.77,28.38,6,42.72a23.74,23.74,0,0,1-.15,7.14c-.86,3.83-3.58,6.93-6.25,9.81-8.4,9-18,18.4-19.39,30.62a48.73,48.73,0,0,1-.84,7c-.73,2.72-2.35,5.12-3.35,7.76-4.88,13,6.16,28.81-.57,40.95a73.64,73.64,0,0,1,7.4,22.31,29,29,0,0,0,2,8.6c2,4.18,6.12,6.84,9.37,10.23,9.9,10.15,11.11,25.68,11.7,39.85.36,8,.25,17.15-5.85,22.39-3.53,3.05-8.34,4.05-12.94,4.81-6.13,1-12.8,1.75-18.22-1.27-3.89-2.17-6.54-6-9.07-9.61-4.79-7-9.61-13.94-14.15-21.09-7.2-11.27-14-24.15-11.91-37.37-.58,13.53-3.43,27.15-10.07,38.94s-17.33,21.63-30.3,25.52-28.13,1.14-37.8-8.34a51.63,51.63,0,0,1-8.06-10.86,106.3,106.3,0,0,1-11.9-30.29c-.63-2.76-1.09-5.85.29-8.32.66-1.17,1.67-2.09,2.36-3.24,2.31-3.94.09-8.89-2.15-12.9-3.41.32-5.85-3.69-5.54-7.11s2.35-6.39,3.8-9.5c4.24-9.19,3.3-19.87,1.26-29.77s-5.11-19.74-4.87-29.85c.25-10.69-7.45-20.31-13.31-29.24-3.27-5-7.09-9.71-9.94-15a48.34,48.34,0,0,1-3.83-36.21,94.78,94.78,0,0,1,8-17.87l4.82-9.05a15,15,0,0,1,10.24-8.77l33.38-13.16a50.16,50.16,0,0,0,12.05-6c4.08-3.07,7.12-7.31,11-10.58a6.15,6.15,0,0,1,4.39-1.92c3.13.28,4.24,4.23,4.56,7.31.73,6.9,5.85,12.75,7.59,19.47,9.42,37.06,29.35,71.25,34.82,109.09,6.14-14.75,12.28-29.53,20.15-43.42A36.25,36.25,0,0,0,569,307.5a26.72,26.72,0,0,0,1-9.78c-.39-9.52-2.92-18.82-5.42-28C561.32,257.19,558.4,245.65,555,233.25Z"/><path class="cls-6" d="M618.64,346.52c.64,6.23,1.27,12.47,2.43,18.63,1.34,7.12,3.39,14.08,5.42,21a55.55,55.55,0,0,0,4.24,11.3,14.42,14.42,0,0,1,1.57,3.35c.71,2.92-.92,5.85-1.62,8.77-2.11,8.78,4.21,18.53.23,26.62-1.2,2.45-3.29,4.49-4.08,7.12-.92,3,0,6.26.48,9.39,1.24,8.77-1.75,17.69-4.71,26.13l-5,14.24c-4.59-8.54-9.22-17.17-15.57-24.49-2.27-2.64-4.74-5.08-6.83-7.86a54.85,54.85,0,0,1-7.31-14.24,123.79,123.79,0,0,1-7.56-37.61,25.81,25.81,0,0,1,1.24-10.82,57.61,57.61,0,0,1,3.25-5.85c3.92-7.06,4.72-15.43,4.65-23.5s-.94-16.17,0-24.2a55.37,55.37,0,0,1,5.85-19.2,27.23,27.23,0,0,1,7.94-9.9,14.34,14.34,0,0,1,8.77-2.85c4.78.28,3.69,4.39,4.1,8.35Z"/><path class="cls-4" d="M403.56,326.62q-4.49,13.15-8.07,26.55-3.51,13.15-6.28,26.47a57.53,57.53,0,0,0-1.58,11.9A53.17,53.17,0,0,0,390,405.3c9.41,33.94,26.58,65.25,45.91,94.68a85.31,85.31,0,0,1,19.45-17.75,4.25,4.25,0,0,0,1.46-1.46,4,4,0,0,0-.47-3.43c-5.33-10.93-13.79-20.57-16.45-32.46-1.11-4.94-1.15-10.09-2.41-15-1.62-6.36-5.25-12.18-6.08-18.7-.89-7.11,1.46-14.86-1.87-21.16,6.8-2.65,10.73-9.65,13.61-16.36a89.58,89.58,0,0,0,6.55-21.51A64.76,64.76,0,0,0,441.81,311a66,66,0,0,0-13.23-16.61c-1.74-1.56-5.85-6.05-8.38-6-3.38.08-4.46,5.54-5.43,8C410.87,306.39,407,316.44,403.56,326.62Z"/><path class="cls-8" d="M464.12,490.29c.44.32.94.76.82,1.28s-.54.66-.92.88a11.32,11.32,0,0,0-4.21,5.7,160.45,160.45,0,0,0-6.35,16.8A73.91,73.91,0,0,0,442,501.57c-3.33-3.07-7.06-6-8.85-10.13,0-.12,7.67-5.77,8.37-6.39,2.15-1.91,4.85-7.22,7.07-8.39,2.52-1.32,4.92,3.84,6.83,5.92A59,59,0,0,0,464.12,490.29Z"/><path class="cls-13" d="M583,173.91c-.1-1.91-.35-4-1.81-5.28a6.91,6.91,0,0,0-4.39-1.21c-8.52-.28-17.34,1.15-25.38-1.71-5.29-1.89-9.81-5.51-15-7.77s-11.77-2.85-15.94.94c-3.16,2.92-4,7.41-5.12,11.55a67.71,67.71,0,0,1-12.62,25c-4-1.23-6.8-4.77-8.63-8.49-6.21-12.66-3.16-27.78,1.26-41.2,1.46-4.51,3.09-9,4.71-13.41l3.57-9.83a19.17,19.17,0,0,0,12.22-6.08l1.54,3.73a19.42,19.42,0,0,0,11-3.88c1.23,2.31,4.39,2.93,7,2.18s4.77-2.18,7.31-2.92c6.8-2.2,14,1.18,21.19,1.56a85.41,85.41,0,0,1,9,.27c8.42,1.36,14.37,9.28,17,17.41,1.71,5.41,3.13,12.06,8.46,14,.12,2.05-3.5,2.44-3.81,4.39A3.24,3.24,0,0,0,595,155l4.9,10.52a12.21,12.21,0,0,1-7.08-.35C590.58,170.39,583.25,177.87,583,173.91Z"/><path class="cls-8" d="M831.27,196.8a193.39,193.39,0,0,1,5.85,24.46c1,6.2,1.66,13.09-1.89,18.26,13.54-20.37,27.68-41.35,48.26-54.5A44,44,0,0,1,872,151c.11-1.23-16.89,5.19-18.19,5.92-6,3.32-11.44,7.45-17.26,11-3,1.83-15.56,6.16-15.67,8.77,0,1.69,5,6.83,5.92,8.6A67.43,67.43,0,0,1,831.27,196.8Z"/><path class="cls-14" d="M894.19,964.43A22.67,22.67,0,0,0,871,962.68c-6.63,3.42-11.09,9.9-17.11,14.28-10.35,7.52-24,8.12-36.15,12.18-3.22,1.09-6.64,2.7-8,5.85a10.42,10.42,0,0,0,.6,8.15,21.1,21.1,0,0,0,10,10.34c5.44,2.6,11.7,2.72,17.73,2.79l52.34.61c16.09.19,32.28.38,48.26,2.39,3.73.47,7.76,1,11-.85,5.36-2.93,6-10.32,5.56-16.42a150.68,150.68,0,0,0-10.24-45c-.62-1.59-1.46-3.41-3.23-3.7a5.28,5.28,0,0,0-3.48,1.11c-14.77,8.78-33.47,13.73-49.17,6.71"/><path class="cls-4" d="M920.14,631.06c-5.85,34-2,68.87,4.54,102.69a179.27,179.27,0,0,0,4.79,20c2.35,7.45,5.52,14.62,7.73,22.12,5.62,19,4.83,39.34,4,59.18l-3.83,90.29c-.32,7.58-.61,15.33,1.67,22.55.92,2.93,2.05,6.58-.28,8.56a6.51,6.51,0,0,1-3.08,1.18A47.69,47.69,0,0,1,905,953l-1-91.21c-.32-28.12-.66-56.36-5-84.13-3.43-22.08-9.4-43.86-9.79-66.21-.41-23.39,5.32-46.48,11.17-69.16,1.26-4.86,5.85-8.41,9.62-11.7a11.88,11.88,0,0,1,4.68-2.84C916.36,627.24,919.05,629.58,920.14,631.06Z"/><path class="cls-15" d="M920.14,631.06c-5.85,34-2,68.87,4.54,102.69a179.27,179.27,0,0,0,4.79,20c2.35,7.45,5.52,14.62,7.73,22.12,5.62,19,4.83,39.34,4,59.18l-3.83,90.29c-.32,7.58-.61,15.33,1.67,22.55.92,2.93,2.05,6.58-.28,8.56a6.51,6.51,0,0,1-3.08,1.18A47.69,47.69,0,0,1,905,953l-1-91.21c-.32-28.12-.66-56.36-5-84.13-3.43-22.08-9.4-43.86-9.79-66.21-.41-23.39,5.32-46.48,11.17-69.16,1.26-4.86,5.85-8.41,9.62-11.7a11.88,11.88,0,0,1,4.68-2.84C916.36,627.24,919.05,629.58,920.14,631.06Z"/><path class="cls-6" d="M810.59,524.9c-2.16,8.9,2.43,18.13,1.92,27.28-.3,5.55-2.47,11.07-1.47,16.51s4.9,9.54,7,14.52a39.73,39.73,0,0,1,2.37,13c.6,10.93.12,21.93-.29,32.82-.69,18.28-1.2,36.66,1.21,54.78A171.26,171.26,0,0,0,834,729.35a79.27,79.27,0,0,1,4.72,12.27,86.59,86.59,0,0,1,1.61,11.9,120.87,120.87,0,0,0,10.34,37.6c3.73,8.14,10.23,14.62,12.29,23.26,2,8.28.65,17,2.07,25.39,1,6.21,3.56,12.09,5,18.23,1.83,7.94,1.78,16.17,2.7,24.27,2.64,23.4,13.27,46.8,6.92,69.49-1.27,4.56-3.25,9.2-2.35,13.85.43,2.28,1.55,4.53,1,6.8-.41,1.93-1.9,3.42-2.66,5.25-1.47,3.42.08,7.48,2.69,10.13a28.83,28.83,0,0,0,9.5,5.62c10.78,4.6,21.94,9.28,33.63,9.18a9.19,9.19,0,0,0,4.14-.76c2.11-1.1,3.15-3.48,4-5.68l6-14.82c.73-1.8,1.47-3.91.46-5.57a10.37,10.37,0,0,0-2.52-2.34c-4.84-4.08-3.74-11.7-2.45-17.83a260.55,260.55,0,0,0,5.43-47.81c.65-32.06-4.63-63.92-9.89-95.55-1.83-11-3.67-22-7.32-32.56s-9-20.66-8.13-31.6c.94-11.82-2.13-24.2,0-35.86s5.52-23.06,7.7-34.7c2.82-15.1,3.52-30.5,4.38-45.82.37-6.26.84-12.73,3.76-18.28,1.71-3.25,4.2-6,6.11-9.17,4.94-8.17,5.73-18.31,10.46-26.61,2.23-3.94,5.32-7.4,7-11.61a32.45,32.45,0,0,0,1.78-10.33,122.11,122.11,0,0,0-1.46-26.39,171.73,171.73,0,0,0-80.42-18.66c-10.69.18-21.5,1.26-31.53,5C829.4,519.15,820.68,524.14,810.59,524.9Z"/><path class="cls-14" d="M870.54,988.52c-4.3,5.35-4,13-6.75,19.3-3.34,7.65-10.76,12.54-17.81,17l-43.87,27.79c-2.4,1.46-5,3.26-5.85,6a9.57,9.57,0,0,0,.22,5.25,22.79,22.79,0,0,0,15.33,15.56,45.42,45.42,0,0,0,11.85,1.21l19.73.26a115.14,115.14,0,0,0,18-.7c5.47-.79,10.79-2.35,16.23-3.35,9.9-1.8,20.08-1.64,30-3.38a158.78,158.78,0,0,0,18-4.63c7.16-2.15,14.46-4.39,20.6-8.64a10.71,10.71,0,0,0,4-4.27c1-2.42.47-5.18-.11-7.74l-9.42-41.38a24.78,24.78,0,0,0-3.68-9.67c-2.1-2.77-5.85-4.62-9.11-3.43A19.17,19.17,0,0,0,924,996c-4.83,3.17-11,3.7-16.71,2.7-3.69-.65-8.56-1.66-11.53-4.1-2.25-1.86-2.92-4.74-4.84-6.85a13.73,13.73,0,0,0-19.41-.26A12.54,12.54,0,0,0,870.54,988.52Z"/><circle class="cls-16" cx="842.1" cy="138.26" r="52.83"/><path class="cls-17" d="M801.35,141.36c5.06-2.84,5.06-11,10.24-13.73s11,2,14.37,6.77a62.19,62.19,0,0,1,9.87,23.21c.47,2.37.91,4.95,2.69,6.61s4.12,1.85,6.41,2.09q10,1,20.06,1.81c7.45.6,15.32,1.08,22.09-2.12a16,16,0,0,0,6.64-5.5,24.64,24.64,0,0,0,2.84-7.43c3.49-13.29,7-26.74,7.31-40.49.12-5.67-.38-11.55-3.12-16.52-1.59-2.92-3.93-5.47-4.59-8.69s1.46-7.31,4.8-7a19.57,19.57,0,0,1-8.77-1.66c-2.65-1.46-4.61-4.61-3.67-7.47-7.43,1-12.84-6.39-18.63-11.15a5.07,5.07,0,0,0-3.54-1.46,12.42,12.42,0,0,0-2.93,1.13c-2.92,1-6-.92-9-1.77-8-2.25-18.26,3.19-24.23-2.66.58,3.72-4,6.23-7.77,6.15s-7.67-1.46-11.23-.2a7.32,7.32,0,0,1-2.91,9.92,7.6,7.6,0,0,1-1.28.55l1.77,3.86a10,10,0,0,0-7.67,7.19c-2,7.68-1.47,18.59-1,26.48C800.36,112.79,803.73,140.06,801.35,141.36Z"/><path class="cls-10" d="M846.43,206.36c-26.54,29.84-33.29,71.85-38.95,111.41l-8.34,58.4c-2.16,15.15-4.38,30.3-6.27,45.49-1.32,10.4-2.55,21-1.11,31.34,1.12,8.19,3.86,16.08,6.14,24a226.14,226.14,0,0,1,8.77,63.6c1.77-5.21,7.9-7.31,13.28-8.48a214.65,214.65,0,0,1,134.32,14.34c7.39-20.69,6-43.32,8.06-65.2,2.92-31.19,13-61.42,16-92.55,1.1-11.59,1.23-23.25,1.35-34.9.09-8.55.17-17.2-1.61-25.58-2-9.27-6.19-17.91-10.53-26.32A683.93,683.93,0,0,0,927.57,234q-11-16.5-23-32.33-6.06-8-12.38-15.88c-4.08-5.08-5.85-9.48-12.33-6.44C867.62,185.08,855.34,196.34,846.43,206.36Z"/><path class="cls-8" d="M861.64,454.77a142.94,142.94,0,0,1-19.41-.62c-4.78-.46-9.66-1.17-14.33,0a15,15,0,0,0-5.57,2.74,4.2,4.2,0,0,0,2.39,7.31l5,.44c3.17.28,6.48.6,8.95,2.92a5.61,5.61,0,0,1,1.81,3.53c.31,3.4-2.65,5.26-5.29,6.68a41.89,41.89,0,0,0-10.33,6.87,14.29,14.29,0,0,0-4.28,8.77,1.69,1.69,0,0,0,1.63,1.76,1.56,1.56,0,0,0,.85-.19c5.85-2.92,9.67-11.6,16.09-10.15A26.09,26.09,0,0,0,825,495.7,6.55,6.55,0,0,0,833.8,505a26.25,26.25,0,0,0,2.75-1.83,67.42,67.42,0,0,0,11.59-12c-4.68,9.87-9.41,21.42-4,31.23A3.09,3.09,0,0,0,847,524c1.7-.17,2.19-1.76,2.47-3.17.88-4.52,1.1-9.28,3.32-13.31,5.15-9.32,17.84-10.23,27.51-14.78,11.59-5.38,19.53-17,22.73-29.33a22.39,22.39,0,0,0,.57-11.14c-2.14-8.32-12.41-10.24-19-6.22C876.54,451.21,871.85,454.45,861.64,454.77Z"/><path class="cls-15" d="M851.37,291.1c10.24,15.8,28,24.71,43.24,35.81a36.31,36.31,0,0,1,9.57,9.09c3.84,5.94,4.38,13.48,3.59,20.47-1,9.23-4,18.11-6.9,26.91l-6.39,19.08c-4.05,12.11-8.23,24.47-15.94,34.64-2,2.59-4.27,5.36-4.18,8.6a11.09,11.09,0,0,0,1.87,5.24,35.2,35.2,0,0,0,22.36,16,16.87,16.87,0,0,0,8.41,0c4-1.17,6.91-4.38,9.66-7.42C929.82,445,943,430.23,952.49,413.2c9.28-16.63,14.84-35.1,20-53.39a112.25,112.25,0,0,0,4.39-20.66c1.08-13.16-2.37-26.32-8-38.21s-13.41-22.65-21.4-33.11a230.32,230.32,0,0,0-25.08-28.77c-15.91-14.88-35.37-23.62-56.67-15.18-15,6-20.66,18.41-22,34.35A52.3,52.3,0,0,0,851.37,291.1Z"/><path class="cls-10" d="M856.7,287.09c10.23,15.81,28,24.71,43.24,35.81a36.47,36.47,0,0,1,9.51,9.15c3.85,5.94,4.39,13.47,3.6,20.48-1,9.22-4,18.1-6.91,26.9l-6.39,19c-4.06,12.11-8.24,24.45-15.94,34.64-2,2.59-4.26,5.34-4.17,8.6a10.91,10.91,0,0,0,1.87,5.22,35.22,35.22,0,0,0,22.34,16,17.18,17.18,0,0,0,8.43,0c4-1.15,6.9-4.38,9.66-7.41,13.16-14.54,26.32-29.25,35.83-46.28,9.28-16.63,14.84-35.1,20-53.4a111.13,111.13,0,0,0,4.38-20.65c1.09-13.16-2.36-26.32-8-38.22s-13.41-22.65-21.41-33.11a231,231,0,0,0-25.14-28.62c-15.89-14.85-35.36-23.61-56.65-15.16-15,6-20.66,18.4-22,34.35A52.32,52.32,0,0,0,856.7,287.09Z"/><path class="cls-10" d="M1180,810.94a54.13,54.13,0,0,1-1.17,11.35c-.14.7-.31,1.46-.47,2.06-4.15,16.65-15.86,28.83-29.84,29.61h-1.46c-14.79,0-27.29-12.75-31.41-30.31-.12-.47-.22-.94-.32-1.47a53.38,53.38,0,0,1-1.17-11.34c0-23.79,14.72-43.07,32.9-43.07S1180,787.19,1180,810.94Z"/><path class="cls-15" d="M1180.7,811a55.65,55.65,0,0,1-1.19,11.58c-.15.72-.31,1.49-.48,2.1h-1.49a67.58,67.58,0,0,1-11-1.49,67,67,0,0,1-9.79,2.24,70.31,70.31,0,0,1-7.67.72h-2.6a69,69,0,0,1-9.19-.62,66.68,66.68,0,0,1-14.43-3.58,67.25,67.25,0,0,1-7.79,2.09c-.12-.48-.22-1-.32-1.49a55,55,0,0,1-1.2-11.58c0-24.28,15-43.94,33.58-43.94S1180.7,786.8,1180.7,811Z"/><path class="cls-18" d="M1250.22,731.37a66.57,66.57,0,0,0-7.17-30.14l-38.69,12,34-20a66.84,66.84,0,0,0-50.24-28.63,66.08,66.08,0,0,0-5.22-6.9l-55.57,17.3,45.58-26.81a66.87,66.87,0,0,0-105.28,35.67l47.59,54.79-51.63-37.35a66.89,66.89,0,0,0,59.85,118,67.15,67.15,0,0,0,42.82,1.18,67,67,0,0,0,81.33-65.3,42.83,42.83,0,0,0-.15-4.39A66.64,66.64,0,0,0,1250.22,731.37Z"/><path class="cls-18" d="M1249.06,743.77a178.32,178.32,0,0,0-61.91-.79c-23.23,3.84-47,12.3-69.7,6.13-13.34-3.63-24.86-12-37.89-16.69a72,72,0,0,0-39.12-2.34,66.92,66.92,0,0,0,82.9,89.29,67.12,67.12,0,0,0,42.81,1.18,67,67,0,0,0,81.34-65.3,42.83,42.83,0,0,0-.15-4.39A66.55,66.55,0,0,0,1249.06,743.77Z"/></svg>