<svg id="Capa_1" enable-background="new 0 0 512.239 512.239" height="512" viewBox="0 0 512.239 512.239" width="512" xmlns="http://www.w3.org/2000/svg"><g><path d="m372.33 159.144v-31.063c0-4.143-3.358-7.5-7.5-7.5h-248.716c-4.142 0-7.5 3.357-7.5 7.5v31.063c0 4.143 3.358 7.5 7.5 7.5h248.716c4.142 0 7.5-3.358 7.5-7.5zm-15-7.5h-233.716v-16.063h233.716z"/><path d="m356.581 190.206c0-4.143-3.358-7.5-7.5-7.5h-217.218c-4.142 0-7.5 3.357-7.5 7.5s3.358 7.5 7.5 7.5h217.218c4.142 0 7.5-3.357 7.5-7.5z"/><path d="m341.05 221.263c0-4.143-3.358-7.5-7.5-7.5h-186.156c-4.142 0-7.5 3.357-7.5 7.5s3.358 7.5 7.5 7.5h186.156c4.142 0 7.5-3.358 7.5-7.5z"/><path d="m178.457 275.877c-4.142 0-7.5 3.357-7.5 7.5s3.358 7.5 7.5 7.5h124.031c4.142 0 7.5-3.357 7.5-7.5s-3.358-7.5-7.5-7.5z"/><path d="m512.239 337.488c0-26.542-12.208-50.282-31.299-65.915v-236.541c0-4.143-3.358-7.5-7.5-7.5h-465.94c-4.142 0-7.5 3.357-7.5 7.5v341.69c0 4.143 3.358 7.5 7.5 7.5h92.27c4.142 0 7.5-3.357 7.5-7.5s-3.358-7.5-7.5-7.5h-84.77v-326.69h450.94v219.209c-5.08-2.618-10.453-4.739-16.06-6.3v-158.279c0-4.143-3.368-7.5-7.51-7.5-12.991 0-23.56-10.568-23.56-23.56 0-4.143-3.358-7.5-7.5-7.5h-30.14c-4.142 0-7.5 3.357-7.5 7.5s3.358 7.5 7.5 7.5h23.372c3.021 15.259 15.073 27.31 30.338 30.328v148.755c-48.436-4.43-93.359 36.598-92.975 85.476h-265.499c-3.98-16.245-14.092-26.36-30.335-30.345v-203.88c16.239-3.984 26.351-14.096 30.334-30.335h272.085c4.142 0 7.5-3.357 7.5-7.5s-3.358-7.5-7.5-7.5h-278.86c-4.142 0-7.5 3.357-7.5 7.5-1.351 14.355-9.204 22.209-23.56 23.56-4.142 0-7.5 3.357-7.5 7.5v217.431c.429 4.571 2.929 7.071 7.5 7.5 14.36 1.351 22.213 9.208 23.56 23.569 0 4.143 3.358 7.5 7.5 7.5h273.728c1.039 5.562 2.619 10.933 4.686 16.061h-215.584c-4.142 0-7.5 3.357-7.5 7.5s3.358 7.5 7.5 7.5h223.445c8.126 12.331 19.366 22.425 32.595 29.173v63.876c1.906 7.472 6.174 9.24 12.804 5.303l25.757-25.766 25.766 25.767c4.29 4.29 12.803 1.89 12.803-5.304v-63.878c27.631-14.095 46.609-42.816 46.609-75.905zm-61.609 121.678-18.267-18.268c-3.536-2.929-7.072-2.928-10.607.001l-18.256 18.263v-39.839c15.71 4.455 31.42 4.455 47.13-.001zm-23.567-51.502c-36.193 0-66.068-27.542-69.782-62.768-4.309-40.219 29.123-77.584 69.782-77.584 38.695 0 70.176 31.48 70.176 70.176s-31.481 70.176-70.176 70.176z"/><path d="m472.91 347.54c-3.845-1.54-8.211.327-9.751 4.172-5.941 14.829-20.111 24.41-36.098 24.41-21.433 0-38.87-17.438-38.87-38.87 0-21.438 17.437-38.88 38.87-38.88 16.457 0 31.192 10.423 36.668 25.937 1.379 3.906 5.665 5.955 9.568 4.576 3.906-1.379 5.955-5.662 4.576-9.568-7.588-21.499-28.008-35.944-50.813-35.944-29.704 0-53.87 24.171-53.87 53.88 0 29.704 24.166 53.87 53.87 53.87 22.152 0 41.787-13.279 50.022-33.83 1.541-3.846-.327-8.212-4.172-9.753z"/></g></svg>