<svg id="Capa_1" enable-background="new 0 0 512 512" height="512" viewBox="0 0 512 512" width="512" xmlns="http://www.w3.org/2000/svg"><g><path d="m492.833 24.922h-102.007v-17.422c0-4.142-3.357-7.5-7.5-7.5h-258.221c-4.143 0-7.5 3.358-7.5 7.5v17.422h-98.436c-4.09 0-7.502 3.42-7.502 7.501l.002 196.802c0 4.142 3.357 7.5 7.5 7.5h98.437v54.758c0 4.142 3.357 7.5 7.5 7.5h22.889c-1.469 2.833-2.457 5.968-2.841 9.307l-9.861 85.382c-.277 2.414-.408 4.864-.389 7.221 0 19.251 9.791 35.107 23.953 47.3 8.323 7.165 16.646 14.331 24.969 21.496v34.811c0 4.142 3.357 7.5 7.5 7.5h23.076c4.143 0 7.5-3.358 7.5-7.5s-3.357-7.5-7.5-7.5h-15.576v-30.751c0-2.184-.952-4.259-2.606-5.684-8.21-7.068-16.42-14.137-24.63-21.205-12.033-10.359-21.376-21.695-21.686-38.585-.013-1.788.086-3.6.291-5.384l9.861-85.383c.691-6.013 5.786-10.548 11.85-10.548 3.977 0 7.3 2.183 8.938 4.052 2.692 3.074 2.983 6.525 2.983 7.866v63.228c0 4.142 3.357 7.5 7.5 7.5s7.5-3.358 7.5-7.5v-203.225c0-6.573 5.348-11.92 11.92-11.92 6.553 0 11.885 5.316 11.918 11.861 0 .019-.003.037-.003.056 0 .039.005.077.006.116v94.815c0 11.456 15.077 11.427 15.06.093-.002-1.629-.009-6.422.028-7.666 1.338-15.257 26.914-14.894 26.914.782v11.362c0 9.673 15 9.673 15 0 .001-6.582 5.355-11.937 11.938-11.937 7.455 0 15.006 3.231 15.006 11.938v7.389c0 9.575 14.829 9.736 14.999.132.027-1.564.109-1.913.382-3.066 3.008-11.738 20.394-11.794 23.443-.058l9.254 35.644c6.69 25.789 6.421 52.977-.781 78.625l-20.968 74.675c-.186.66-.279 1.342-.279 2.027v30.751h-82.355c-4.143 0-7.5 3.358-7.5 7.5s3.357 7.5 7.5 7.5h89.855c4.143 0 7.5-3.358 7.5-7.5v-37.218l20.688-73.681c7.918-28.199 8.216-58.092.859-86.448l-2.121-8.171h16.239c4.143 0 7.5-3.358 7.5-7.5v-221.142h94.507v151.385h-66.747c-4.143 0-7.5 3.358-7.5 7.5s3.357 7.5 7.5 7.5h74.247c4.143 0 7.5-3.358 7.5-7.5v-196.802-.001c-.003-4.142-3.36-7.5-7.503-7.5zm-466.164 15.001h90.937v15.417h-90.937zm105.941-24.92h243.213v40.337h-243.213zm-105.941 206.722v-151.385h90.937v151.385zm336.524 62.258-3.239-12.477c-4.736-18.223-27.276-26.118-42.418-14.89-8.206-13.096-27.451-16.696-40.363-8.472-6.691-14.389-25.59-19.72-39.507-12.721v-56.546h68.226c4.004 0 7.261 3.262 7.261 7.271v14.407c0 4.003-3.257 7.26-7.261 7.26h-41.051c-4.143 0-7.5 3.358-7.5 7.5s3.357 7.5 7.5 7.5h41.051c12.274 0 22.261-9.986 22.261-22.26v-14.407c0-12.28-9.986-22.271-22.261-22.271h-69.298c-3.258-11.203-13.609-19.417-25.849-19.417-14.844 0-26.92 12.077-26.92 26.92v112.602h-51.22v-213.642h243.221v213.643zm27.633-228.643v-15.417h94.507v15.417z"/><path d="m297.701 28.036h-86.969c-4.143 0-7.5 3.358-7.5 7.5s3.357 7.5 7.5 7.5h86.969c4.143 0 7.5-3.358 7.5-7.5s-3.357-7.5-7.5-7.5z"/><path d="m223.323 84.734h-59.22c-4.143 0-7.5 3.358-7.5 7.5v34.254c0 4.142 3.357 7.5 7.5 7.5h59.22c4.143 0 7.5-3.358 7.5-7.5v-34.254c0-4.142-3.357-7.5-7.5-7.5zm-7.5 34.254h-44.22v-19.254h44.22z"/><path d="m413.357 124.727h44.553c4.143 0 7.5-3.358 7.5-7.5s-3.357-7.5-7.5-7.5h-44.553c-4.143 0-7.5 3.358-7.5 7.5s3.358 7.5 7.5 7.5z"/><path d="m457.91 156.991c4.143 0 7.5-3.358 7.5-7.5s-3.357-7.5-7.5-7.5h-44.553c-4.143 0-7.5 3.358-7.5 7.5s3.357 7.5 7.5 7.5z"/><path d="m49.439 124.727h44.552c4.143 0 7.5-3.358 7.5-7.5s-3.357-7.5-7.5-7.5h-44.552c-4.143 0-7.5 3.358-7.5 7.5s3.358 7.5 7.5 7.5z"/><path d="m93.991 141.991h-44.552c-4.143 0-7.5 3.358-7.5 7.5s3.357 7.5 7.5 7.5h44.552c4.143 0 7.5-3.358 7.5-7.5s-3.357-7.5-7.5-7.5z"/><path d="m340.159 101.861h-79.564c-4.143 0-7.5 3.358-7.5 7.5s3.357 7.5 7.5 7.5h79.564c4.143 0 7.5-3.358 7.5-7.5s-3.357-7.5-7.5-7.5z"/></g></svg>