<svg id="Layer_1" data-name="Layer 1" xmlns="http://www.w3.org/2000/svg" viewBox="0 0 1429.34 797"><defs><style>.cls-1{fill:#38baec;stroke:#3f3d56;}.cls-1,.cls-10,.cls-14,.cls-16,.cls-19,.cls-6,.cls-8,.cls-9{stroke-miterlimit:10;}.cls-2,.cls-3,.cls-4,.cls-5,.cls-6{fill:#faee41;}.cls-2{opacity:0.2;}.cls-16,.cls-17,.cls-2,.cls-4,.cls-5,.cls-6{isolation:isolate;}.cls-4{opacity:0.7;}.cls-5{opacity:0.4;}.cls-6{stroke:#fff;}.cls-17,.cls-6{opacity:0.1;}.cls-7{fill:#767d9f;}.cls-15,.cls-8{fill:#ae6e79;}.cls-10,.cls-14,.cls-16,.cls-19,.cls-8,.cls-9{stroke:#000;}.cls-9{fill:#ff7d70;stroke-width:0.75px;}.cls-10{fill:#ffc500;}.cls-11{fill:#4c4981;}.cls-12{fill:#504f60;}.cls-13,.cls-14{fill:#9c9ca1;}.cls-16{opacity:0.05;}.cls-18{fill:#fff;}.cls-19{fill:#444053;}</style></defs><path class="cls-1" d="M1428.84,495.16a227.09,227.09,0,0,1-8.55,61.93,224.66,224.66,0,0,1-24.06,55.29c0,62.55-42.22,116.61-103.52,142.33a208.86,208.86,0,0,1-80.82,16H271.65c-50.26,0-96.83-13.56-135-36.65a231.45,231.45,0,0,1-31-22.34c-42.45-36.48-68.77-86.9-68.77-142.58A225.35,225.35,0,0,1,.5,445.86c0-91.6,54.18-170.35,131.79-205.13a217.52,217.52,0,0,1,31.85-11.38q5.78-1.57,11.68-2.82a217.79,217.79,0,0,1,31.85-4.37c3.87-.25,7.76-.38,11.68-.42h2.14c4.32,0,8.61.15,12.86.4l1.4-2.37q2.58-4.29,5.27-8.5,4.88-7.67,10.21-15.11,5.6-7.86,11.68-15.46l1-1.25q3.45-4.29,7.05-8.49,11.24-13.1,23.72-25.4C384.74,57.31,525.79.5,684.36.5c123.38,0,236.16,34.4,322.55,91.23a217.36,217.36,0,0,1,107.3-28.2c122,0,221,100.34,221,224.12A229.49,229.49,0,0,1,1334,311.1,224.72,224.72,0,0,1,1428.84,495.16Z"/><path class="cls-2" d="M295.37,174.52v25.39H271.66Q282.8,186.83,295.37,174.52Z"/><rect class="cls-2" x="306.59" y="168.72" width="32.44" height="32.44"/><rect class="cls-2" x="350.26" y="168.72" width="32.44" height="32.44"/><rect class="cls-2" x="393.93" y="168.72" width="32.44" height="32.44"/><rect class="cls-2" x="436.35" y="168.72" width="32.44" height="32.44"/><rect class="cls-2" x="480.01" y="168.72" width="32.44" height="32.44"/><rect class="cls-3" x="523.68" y="168.72" width="32.44" height="32.44"/><rect class="cls-2" x="567.35" y="168.72" width="32.44" height="32.44"/><rect class="cls-2" x="611.01" y="168.72" width="32.44" height="32.44"/><rect class="cls-2" x="654.68" y="168.72" width="32.44" height="32.44"/><rect class="cls-3" x="698.35" y="168.72" width="32.44" height="32.44"/><rect class="cls-2" x="742.01" y="168.72" width="32.44" height="32.44"/><rect class="cls-2" x="784.43" y="168.72" width="32.44" height="32.44"/><rect class="cls-2" x="828.1" y="168.72" width="32.44" height="32.44"/><rect class="cls-2" x="871.76" y="168.72" width="32.44" height="32.44"/><rect class="cls-2" x="915.43" y="168.72" width="32.44" height="32.44"/><rect class="cls-2" x="959.1" y="168.72" width="32.44" height="32.44"/><rect class="cls-3" x="1002.76" y="168.72" width="32.44" height="32.44"/><rect class="cls-3" x="1046.43" y="168.72" width="32.44" height="32.44"/><rect class="cls-2" x="1088.85" y="168.72" width="32.44" height="32.44"/><rect class="cls-2" x="1132.52" y="168.72" width="32.44" height="32.44"/><rect class="cls-3" x="1176.18" y="168.72" width="32.44" height="32.44"/><rect class="cls-3" x="1219.85" y="168.72" width="32.44" height="32.44"/><path class="cls-3" d="M251.7,226v15.09H241.49Q246.37,233.37,251.7,226Z"/><rect class="cls-2" x="262.93" y="208.64" width="32.44" height="32.44"/><rect class="cls-3" x="306.59" y="208.64" width="32.44" height="32.44"/><rect class="cls-2" x="350.26" y="208.64" width="32.44" height="32.44"/><rect class="cls-4" x="393.93" y="208.64" width="32.44" height="32.44"/><rect class="cls-2" x="436.35" y="208.64" width="32.44" height="32.44"/><rect class="cls-5" x="480.01" y="208.64" width="32.44" height="32.44"/><rect class="cls-3" x="523.68" y="208.64" width="32.44" height="32.44"/><rect class="cls-5" x="567.35" y="208.64" width="32.44" height="32.44"/><rect class="cls-2" x="611.01" y="208.64" width="32.44" height="32.44"/><rect class="cls-5" x="654.68" y="208.64" width="32.44" height="32.44"/><rect class="cls-3" x="698.35" y="208.64" width="32.44" height="32.44"/><rect class="cls-5" x="742.01" y="208.64" width="32.44" height="32.44"/><rect class="cls-5" x="784.43" y="208.64" width="32.44" height="32.44"/><rect class="cls-2" x="828.1" y="208.64" width="32.44" height="32.44"/><rect class="cls-5" x="871.76" y="208.64" width="32.44" height="32.44"/><rect class="cls-5" x="915.43" y="208.64" width="32.44" height="32.44"/><rect class="cls-2" x="959.1" y="208.64" width="32.44" height="32.44"/><rect class="cls-2" x="1002.76" y="208.64" width="32.44" height="32.44"/><rect class="cls-5" x="1046.43" y="208.64" width="32.44" height="32.44"/><rect class="cls-2" x="1088.85" y="208.64" width="32.44" height="32.44"/><rect class="cls-3" x="1132.52" y="208.64" width="32.44" height="32.44"/><rect class="cls-3" x="1176.18" y="208.64" width="32.44" height="32.44"/><rect class="cls-3" x="1219.85" y="208.64" width="32.44" height="32.44"/><path class="cls-2" d="M164.37,258.76V281H131.93V270.14A224.31,224.31,0,0,1,164.37,258.76Z"/><polygon class="cls-2" points="208.03 251.57 208.03 281 175.59 281 175.59 255.94 208.03 251.57"/><rect class="cls-3" x="219.26" y="248.57" width="32.44" height="32.44"/><rect class="cls-4" x="262.93" y="248.57" width="32.44" height="32.44"/><rect class="cls-3" x="306.59" y="248.57" width="32.44" height="32.44"/><rect class="cls-4" x="350.26" y="248.57" width="32.44" height="32.44"/><rect class="cls-4" x="393.93" y="248.57" width="32.44" height="32.44"/><rect class="cls-2" x="436.35" y="248.57" width="32.44" height="32.44"/><rect class="cls-5" x="480.01" y="248.57" width="32.44" height="32.44"/><rect class="cls-5" x="523.68" y="248.57" width="32.44" height="32.44"/><rect class="cls-3" x="567.35" y="248.57" width="32.44" height="32.44"/><rect class="cls-2" x="611.01" y="248.57" width="32.44" height="32.44"/><rect class="cls-5" x="654.68" y="248.57" width="32.44" height="32.44"/><rect class="cls-3" x="698.35" y="248.57" width="32.44" height="32.44"/><rect class="cls-2" x="742.01" y="248.57" width="32.44" height="32.44"/><rect class="cls-5" x="784.43" y="248.57" width="32.44" height="32.44"/><rect class="cls-2" x="828.1" y="248.57" width="32.44" height="32.44"/><rect class="cls-3" x="871.76" y="248.57" width="32.44" height="32.44"/><rect class="cls-2" x="915.43" y="248.57" width="32.44" height="32.44"/><rect class="cls-4" x="959.1" y="248.57" width="32.44" height="32.44"/><rect class="cls-4" x="1002.76" y="248.57" width="32.44" height="32.44"/><rect class="cls-5" x="1046.43" y="248.57" width="32.44" height="32.44"/><rect class="cls-2" x="1088.85" y="248.57" width="32.44" height="32.44"/><rect class="cls-3" x="1132.52" y="248.57" width="32.44" height="32.44"/><rect class="cls-3" x="1176.18" y="248.57" width="32.44" height="32.44"/><rect class="cls-3" x="1219.85" y="248.57" width="32.44" height="32.44"/><rect class="cls-2" x="131.93" y="289.74" width="32.44" height="32.44"/><rect class="cls-2" x="175.6" y="289.74" width="32.44" height="32.44"/><rect class="cls-2" x="219.26" y="289.74" width="32.44" height="32.44"/><rect class="cls-2" x="262.93" y="289.74" width="32.44" height="32.44"/><rect class="cls-3" x="306.59" y="289.74" width="32.44" height="32.44"/><rect class="cls-4" x="350.26" y="289.74" width="32.44" height="32.44"/><rect class="cls-4" x="393.93" y="289.74" width="32.44" height="32.44"/><rect class="cls-2" x="436.35" y="289.74" width="32.44" height="32.44"/><rect class="cls-2" x="480.01" y="289.74" width="32.44" height="32.44"/><rect class="cls-5" x="523.68" y="289.74" width="32.44" height="32.44"/><rect class="cls-5" x="567.35" y="289.74" width="32.44" height="32.44"/><rect class="cls-3" x="611.01" y="289.74" width="32.44" height="32.44"/><rect class="cls-2" x="654.68" y="289.74" width="32.44" height="32.44"/><rect class="cls-5" x="698.35" y="289.74" width="32.44" height="32.44"/><rect class="cls-5" x="742.01" y="289.74" width="32.44" height="32.44"/><rect class="cls-5" x="784.43" y="289.74" width="32.44" height="32.44"/><rect class="cls-5" x="828.1" y="289.74" width="32.44" height="32.44"/><rect class="cls-2" x="871.76" y="289.74" width="32.44" height="32.44"/><rect class="cls-2" x="915.43" y="289.74" width="32.44" height="32.44"/><rect class="cls-2" x="959.1" y="289.74" width="32.44" height="32.44"/><rect class="cls-2" x="1002.76" y="289.74" width="32.44" height="32.44"/><rect class="cls-4" x="1046.43" y="289.74" width="32.44" height="32.44"/><rect class="cls-4" x="1088.85" y="289.74" width="32.44" height="32.44"/><rect class="cls-5" x="1132.52" y="289.74" width="32.44" height="32.44"/><rect class="cls-2" x="1176.18" y="289.74" width="32.44" height="32.44"/><rect class="cls-3" x="1219.85" y="289.74" width="32.44" height="32.44"/><rect class="cls-2" x="131.93" y="329.66" width="32.44" height="32.44"/><rect class="cls-2" x="175.6" y="329.66" width="32.44" height="32.44"/><rect class="cls-5" x="219.26" y="329.66" width="32.44" height="32.44"/><rect class="cls-2" x="262.93" y="329.66" width="32.44" height="32.44"/><rect class="cls-2" x="306.59" y="329.66" width="32.44" height="32.44"/><rect class="cls-4" x="350.26" y="329.66" width="32.44" height="32.44"/><rect class="cls-4" x="393.93" y="329.66" width="32.44" height="32.44"/><rect class="cls-2" x="436.35" y="329.66" width="32.44" height="32.44"/><rect class="cls-2" x="480.01" y="329.66" width="32.44" height="32.44"/><rect class="cls-5" x="523.68" y="329.66" width="32.44" height="32.44"/><rect class="cls-3" x="567.35" y="329.66" width="32.44" height="32.44"/><rect class="cls-2" x="611.01" y="329.66" width="32.44" height="32.44"/><rect class="cls-3" x="654.68" y="329.66" width="32.44" height="32.44"/><rect class="cls-3" x="698.35" y="329.66" width="32.44" height="32.44"/><rect class="cls-3" x="742.01" y="329.66" width="32.44" height="32.44"/><rect class="cls-2" x="784.43" y="329.66" width="32.44" height="32.44"/><rect class="cls-3" x="828.1" y="329.66" width="32.44" height="32.44"/><rect class="cls-2" x="871.76" y="329.66" width="32.44" height="32.44"/><rect class="cls-2" x="915.43" y="329.66" width="32.44" height="32.44"/><rect class="cls-2" x="959.1" y="329.66" width="32.44" height="32.44"/><rect class="cls-2" x="1002.76" y="329.66" width="32.44" height="32.44"/><rect class="cls-2" x="1046.43" y="329.66" width="32.44" height="32.44"/><rect class="cls-4" x="1088.85" y="329.66" width="32.44" height="32.44"/><rect class="cls-2" x="1132.52" y="329.66" width="32.44" height="32.44"/><rect class="cls-2" x="1176.18" y="329.66" width="32.44" height="32.44"/><rect class="cls-3" x="1219.85" y="329.66" width="32.44" height="32.44"/><rect class="cls-2" x="131.93" y="369.59" width="32.44" height="32.44"/><rect class="cls-2" x="175.6" y="369.59" width="32.44" height="32.44"/><rect class="cls-2" x="219.26" y="369.59" width="32.44" height="32.44"/><rect class="cls-5" x="262.93" y="369.59" width="32.44" height="32.44"/><rect class="cls-2" x="306.59" y="369.59" width="32.44" height="32.44"/><rect class="cls-2" x="350.26" y="369.59" width="32.44" height="32.44"/><rect class="cls-4" x="393.93" y="369.59" width="32.44" height="32.44"/><rect class="cls-2" x="436.35" y="369.59" width="32.44" height="32.44"/><rect class="cls-2" x="480.01" y="369.59" width="32.44" height="32.44"/><rect class="cls-2" x="523.68" y="369.59" width="32.44" height="32.44"/><rect class="cls-3" x="567.35" y="369.59" width="32.44" height="32.44"/><rect class="cls-2" x="611.01" y="369.59" width="32.44" height="32.44"/><rect class="cls-3" x="654.68" y="369.59" width="32.44" height="32.44"/><rect class="cls-3" x="698.35" y="369.59" width="32.44" height="32.44"/><rect class="cls-2" x="742.01" y="369.59" width="32.44" height="32.44"/><rect class="cls-2" x="784.43" y="369.59" width="32.44" height="32.44"/><rect class="cls-2" x="828.1" y="369.59" width="32.44" height="32.44"/><rect class="cls-2" x="871.76" y="369.59" width="32.44" height="32.44"/><rect class="cls-2" x="915.43" y="369.59" width="32.44" height="32.44"/><rect class="cls-2" x="959.1" y="369.59" width="32.44" height="32.44"/><rect class="cls-2" x="1002.76" y="369.59" width="32.44" height="32.44"/><rect class="cls-2" x="1046.43" y="369.59" width="32.44" height="32.44"/><rect class="cls-2" x="1088.85" y="369.59" width="32.44" height="32.44"/><rect class="cls-2" x="1132.52" y="369.59" width="32.44" height="32.44"/><rect class="cls-5" x="1176.18" y="369.59" width="32.44" height="32.44"/><rect class="cls-3" x="1219.85" y="369.59" width="32.44" height="32.44"/><rect class="cls-4" x="131.93" y="409.51" width="32.44" height="32.44"/><rect class="cls-4" x="175.6" y="409.51" width="32.44" height="32.44"/><rect class="cls-4" x="219.26" y="409.51" width="32.44" height="32.44"/><rect class="cls-4" x="262.93" y="409.51" width="32.44" height="32.44"/><rect class="cls-4" x="306.59" y="409.51" width="32.44" height="32.44"/><rect class="cls-2" x="350.26" y="409.51" width="32.44" height="32.44"/><rect class="cls-2" x="393.93" y="409.51" width="32.44" height="32.44"/><rect class="cls-2" x="436.35" y="409.51" width="32.44" height="32.44"/><rect class="cls-2" x="480.01" y="409.51" width="32.44" height="32.44"/><rect class="cls-2" x="523.68" y="409.51" width="32.44" height="32.44"/><rect class="cls-2" x="567.35" y="409.51" width="32.44" height="32.44"/><rect class="cls-3" x="611.01" y="409.51" width="32.44" height="32.44"/><rect class="cls-2" x="654.68" y="409.51" width="32.44" height="32.44"/><rect class="cls-2" x="698.35" y="409.51" width="32.44" height="32.44"/><rect class="cls-2" x="742.01" y="409.51" width="32.44" height="32.44"/><rect class="cls-3" x="784.43" y="409.51" width="32.44" height="32.44"/><rect class="cls-2" x="828.1" y="409.51" width="32.44" height="32.44"/><rect class="cls-2" x="871.76" y="409.51" width="32.44" height="32.44"/><rect class="cls-2" x="915.43" y="409.51" width="32.44" height="32.44"/><rect class="cls-2" x="959.1" y="409.51" width="32.44" height="32.44"/><rect class="cls-2" x="1002.76" y="409.51" width="32.44" height="32.44"/><rect class="cls-2" x="1046.43" y="409.51" width="32.44" height="32.44"/><rect class="cls-2" x="1088.85" y="409.51" width="32.44" height="32.44"/><rect class="cls-2" x="1132.52" y="409.51" width="32.44" height="32.44"/><rect class="cls-2" x="1176.18" y="409.51" width="32.44" height="32.44"/><rect class="cls-3" x="1219.85" y="409.51" width="32.44" height="32.44"/><path class="cls-6" d="M1002.14,412.91v5.14l-7.34-.71L981,403S1002.35,407.79,1002.14,412.91Z"/><circle class="cls-7" cx="848.82" cy="480.23" r="43.5"/><path class="cls-8" d="M846.56,424.89q6.51,28.41,11.05,57.26c.91,5.71,1.72,11.74-.35,17.14-1.73,4.51-5.26,8-8,12s-4.87,9-3.18,13.51,6.6,7,11.29,8.26c13.42,3.62,27.73,1,41.09-2.93A66.47,66.47,0,0,0,915.66,523c5.67-3.59,10.31-8.58,14.57-13.72,19.48-23.62,32.23-52,44.23-80.14a48.81,48.81,0,0,1-41.31-16.64c-4.91-5.78-8.52-13.82-5.75-20.89-8.12,4.46-17.76,4.76-26.51,7.8A94.34,94.34,0,0,0,885.3,407q-9,5.19-17.82,10.56C860.73,421.67,854.4,425.28,846.56,424.89Z"/><path class="cls-9" d="M937.55,457.55c-7.63,14.83-17.55,29.09-31.71,37.93S872.62,506.7,858.43,498c-7-4.27-12.27-10.75-18.37-16.22s-13.73-10.14-21.92-9.43c-9,.79-16.11,7.83-22.16,14.58-9.18,10.26-18.05,21-24.55,33.09C759,543.32,756,570.59,756.54,597s4.38,52.77,4.47,79.21c.12,32.54-5.39,64.82-11,96.87,51.28-6.31,102.62,7.49,154,12.71,32.88,3.38,66,3.31,99.08,3.22,5.82,0,12-.15,16.85-3.37a22.78,22.78,0,0,0,7-8.28c4.57-8.42,6.4-18,7.67-27.52,3.23-24,3.33-48.26,3.42-72.46.23-58.64.44-117.49-7-175.67-1.83-14.31-4.18-28.69-9.67-42.08s-14.45-25.7-27-32.88c-8-4.61-26.7-12.65-36.18-8C947.56,424,942.65,447.62,937.55,457.55Z"/><path class="cls-10" d="M941.34,623.13c-1.94-36.18-9.81-74.79,6.95-106.91,4.11-7.88-10.66-17.73-6.09-25.36A114.83,114.83,0,0,0,954.75,461c1-3.6,1.71-7.42.81-11-1.66-6.6-8.18-10.53-13.72-14.54-6.12-4.45-9.26-18-11.23-25.31s15.68,1.5,22.78-1.11c9.86-3.6,22.38-1.33,32.21,2.32,5.49,2,11.46,2.2,17.31,2.35,11.36.3,22.77.59,34.05-.81,5.06-.64,10.14-1.6,15.23-1.31,13,.73,24.28,9.62,32,20.12s12.58,22.75,18.88,34.12c5.25,9.49,11.51,18.44,16,28.31,4,8.74,6.48,18.12,9,27.45l6.4,23.94a31.93,31.93,0,0,1,1.57,10.62c-.32,3.83-2,7.4-3.74,10.8a205,205,0,0,1-23.29,35.55c-13.46,16.5-29.81,31.39-37.8,51.15-3.12,7.7-4.86,15.88-6.44,24a882.82,882.82,0,0,0-13.6,98.75,217.27,217.27,0,0,0-45.56-15.23,221,221,0,0,0-23.71-3.75c-7-.72-16,.65-22.61-1.24-11.1-3.16-12.32-21.94-14-31.77-2.69-15.65-3.23-31.59-3.33-47.41C941.74,659,942.3,641.06,941.34,623.13Z"/><path class="cls-11" d="M697.49,555.47c5.25,29.95,11,60,22.46,88.11-.29.27-.57.52-.86.77-1,.86-2.06,1.68-3.16,2.5-2.56,1.8-5.36,3.32-7.48,5.66a10.07,10.07,0,0,0-1.88,3.06,6.87,6.87,0,0,0,0,5.58c-6,2.63-12.86,1.82-19.53,1.57-5.75-.21-11.33,0-15.95,3.15-6.41,4.42-8.34,12.9-9.38,20.62q-.57,4.21-1,8.44-.4,3.93-.65,7.89a233.67,233.67,0,0,0-.24,26.2c.07,1.59.15,3.19.26,4.79-20.38-.49-39-11.12-56.54-21.45-4-2.36-8.16-4.84-10.77-8.73a19.73,19.73,0,0,1-2.88-12.84,13.77,13.77,0,0,1,.2-1.9A52.09,52.09,0,0,1,593,678.06a133.64,133.64,0,0,1,23.94-40.73c4.47-5.22,9.49-10.32,11.58-16.87.91-2.86,1.24-5.89,2.17-8.73,4.14-12.33,19.09-18.15,24.2-30.12,1.25-2.86,1.82-6,3.37-8.73a22.07,22.07,0,0,1,5.3-5.93c.91-.76,1.86-1.5,2.8-2.23q13.14-10.31,25.34-21.77c1.51-1.43,3-2.86,4.49-4.32A74.28,74.28,0,0,0,697.49,555.47Z"/><path class="cls-10" d="M699.35,527A75.89,75.89,0,0,1,757.66,533c9,5,17.05,12,22,20.94,7.42,13.47,7.1,29.71,6.57,45.1-.26,7.7-.6,15.67-4,22.58-3.93,8-11.34,13.49-18.9,18A53,53,0,0,1,748,646.29c-8.39,1.82-17.09.27-25.54-1.25-9.18-1.7-35.17,30.81-41.54,24-3.74-4-9.21-21.16-11.23-26.2-2.9-7.27,1.67-15.19-1.25-22.45-5-12.62-11.66-41.36-5-53.65,3-5.6,21.21-17.47,26.7-20.09C691.6,543.75,697,527.7,699.35,527Z"/><path class="cls-10" d="M823.72,466.92c-1.8,1.89-3.74,3.68-5.65,5.45l-.51.46-2,1.87a48.94,48.94,0,0,0-9.42,11l-.21.35c-6.36,11.39-4,25.41-2.23,38.35a325.84,325.84,0,0,1,3,48.66c-.33,22.45-3,44.76-3,67.19q0,7.63.33,15.26c.37,8.27,1,16.53,1.74,24.79.81,9.06,1.78,18.1,2.69,27.15.73,7,1.41,14,2,21,.28,3.62.56,7.23.78,10.84.26,4.25.48,8.5.6,12.74h0c.09,2.7.14,5.38.14,8.07v4.58q0,4.38-.24,8.74c-.16,3.73-.42,7.47-.76,11.23-.41,4.32-1.15,9.06-4.48,11.89h0l-4-.5a414.92,414.92,0,0,0-84-1.5c.61-4.22,1.18-8.42,1.72-12.65q.38-3,.74-6c.28-2.3.54-4.59.79-6.89.28-2.5.55-5,.8-7.49q1-9.65,1.7-19.3,1.1-14.08,1.65-28.22.27-6.75.43-13.51.21-8.38.19-16.78,0-8.16-.13-16.34c0-1.8-.08-3.6-.23-5.38a33.51,33.51,0,0,0-.66-4.78,62.15,62.15,0,0,0-3.74-10.58c-.28-.65-.54-1.25-.8-1.93-.15-.34-.29-.69-.42-1,7.18-6.4,12.3-15,17.21-23.4,8-13.59,16.14-27.77,17.47-43.47s-6.46-33.32-21.46-38.11c-4.08-1.25-8.4-1.6-12.6-2.34-4-.69-12.24-2.28-16.83-5.12q-3.75,3.84-7.49,7.55a27.88,27.88,0,0,1,2.71-10.87l1.77.09a3.56,3.56,0,0,1-.2-1.25c0-1.34.93-2.85,2.9-4.52,5.87-5,15.12-6.1,18.82-12.85,1.55-2.81,1.81-6.15,3.06-9.09,3.58-8.4,13.86-11.49,20.05-18.21s7.74-16.22,12.74-23.7a35.71,35.71,0,0,1,15-12.48c.5-.23,1-.47,1.52-.68,10.36-4.43,22.66-5.44,33.39-5.42,4.17,0,15,.13,20.26,2.24a6.61,6.61,0,0,1,2.31,1.4C836.66,449.51,827.89,462.48,823.72,466.92Z"/><path class="cls-12" d="M1223.59,742.81v37.43a208.11,208.11,0,0,1-80.76,16H806.35a6.52,6.52,0,0,1-.55.5l-4-.5H203.22c-50.22,0-96.75-13.6-134.92-36.76V702.35L356.16,669h.22L524,683.26,567.4,687l22.53,1.91,46.64,4,24,2,34.94,3,4.91.42,25.18,2.14,34.16,2.81,48,4.09,80.07,6.82L944.19,719l92.5,7.88,17.59,1.49,1.9.16,1.65.14,23.23,2,25.5,2.18,3,.25Z"/><polygon class="cls-13" points="885.6 741.27 524.86 679.7 510.87 750.42 676.23 770.23 727.15 776.6 867.21 749.02 885.6 741.27"/><path class="cls-14" d="M698.86,773.06l180.73-34a6.24,6.24,0,0,1,7.3,5,5.31,5.31,0,0,1,.11,1.2h0a6.23,6.23,0,0,1-5.1,6.15L705.4,784.44Z"/><path class="cls-15" d="M777.26,666.22c5.63-.52,11.33-1.41,16.4-3.9,6.24-3.11,11.09-8.46,16.87-12.4,12.7-8.74,29.69-9.91,44.25-4.89s26.71,15.75,35.22,28.58c5.65,8.55,9.89,19.45,5.9,28.88a38.28,38.28,0,0,1-5.14,8l-10.4,13.6a36.38,36.38,0,0,1-7.07,7.59c-3.89,2.84-8.73,4-13.5,4.69-12.66,1.85-25.55.8-38.31,1.65-21.92,1.46-43.33,8.52-65.3,8.29-12.63-.14-25.09-2.69-37.43-5.23l-54.61-11.23c-9.5-1.95-20.25-4.79-24.72-13.41-2-3.88-2.39-8.37-2.62-12.74-.65-12,0-25.4,8.33-34.07C653,661.53,665.35,659,674.71,653c11.45-7.37,15.23-5,27.31.55A149.7,149.7,0,0,0,777.26,666.22Z"/><path class="cls-16" d="M777.26,666.22c5.63-.52,11.33-1.41,16.4-3.9,6.24-3.11,11.09-8.46,16.87-12.4,12.7-8.74,29.69-9.91,44.25-4.89s26.71,15.75,35.22,28.58c5.65,8.55,9.89,19.45,5.9,28.88a38.28,38.28,0,0,1-5.14,8l-10.4,13.6a36.38,36.38,0,0,1-7.07,7.59c-3.89,2.84-8.73,4-13.5,4.69-12.66,1.85-25.55.8-38.31,1.65-21.92,1.46-43.33,8.52-65.3,8.29-12.63-.14-25.09-2.69-37.43-5.23l-54.61-11.23c-9.5-1.95-20.25-4.79-24.72-13.41-2-3.88-2.39-8.37-2.62-12.74-.65-12,0-25.4,8.33-34.07C653,661.53,665.35,659,674.71,653c11.45-7.37,15.23-5,27.31.55A149.7,149.7,0,0,0,777.26,666.22Z"/><path class="cls-8" d="M996.56,649.12c-15.32,5.93-30.73,11.88-46.78,15.41-26.89,5.92-55,5-81.73,11.76-14.09,3.6-28.11,9.38-42.59,8.21-6.48-.52-12.73-2.49-19-4-35.39-8.73-75.63-5.9-104.37,16.55-9.83,7.68-17.88,17.25-25.18,27.45a18.32,18.32,0,0,0,7.38,27.3,107.78,107.78,0,0,0,35.4,9.44c16.38,1.45,32.84-.87,49.13-3.19,24.18-3.43,48.37-6.87,72.49-10.73,8.66-1.38,17.32-2.82,26-3.92,62.66-7.92,126.47,1.71,189.3-4.9,6.35-.67,12.81-1.55,18.59-4.25,14.62-6.87,21.85-25,18.83-40.85s-14.67-29.11-28.69-37.22c-11.75-6.82-24.43-9.58-37.52-12.47C1015.67,640.88,1008.26,644.63,996.56,649.12Z"/><path class="cls-17" d="M1131,554.1c6.92,9.06,8.39,21.21,7.64,32.55s-3.44,22.56-3.84,34c-.55,15.62,3.22,31.19,2.58,46.76-.45,10.89-3,21.57-6.09,32-3.61,12.33-8.82,25.6-20.21,31.52-15.12,7.88-46.84,3.45-62.74,9.61,1.44-9,15.32-22.08,16.76-31.1,1-6.24,2-12.65.94-18.9-1.37-8-6-15-11.6-20.94-8.84-9.37-20.36-16.42-33-18.71s-43.66-.42-53.79,7.58c-1.25-8.26,21.95-16.22,30.11-18,4.07-.91,8.74-.4,12-3,6.24-4.89,1.71-14.64,2-22.46.24-6.24,3.88-12,4.62-18.19,1.25-10-5.27-20.15-2.71-29.94.95-3.62,3.06-6.8,4.52-10.25,4.44-10.54,2.49-22.57.12-33.77-1.47-7-2.91-15,1-21,3.63-5.6,13.94,14.35,20.54,13.42,21.79-3,41.52-19.21,59.12-6,9,6.74,10.15,13.73,13.73,23.35C1116.12,541.82,1125.14,546.52,1131,554.1Z"/><path class="cls-10" d="M1134.71,554.1c6.91,9.06,8.38,21.21,7.63,32.55s-3.44,22.56-3.84,34c-.55,15.62,3.22,31.19,2.58,46.76-.45,10.89-3,21.57-6.09,32-3.6,12.33-8.82,25.6-20.21,31.52-15.12,7.88-46.83,3.45-62.74,9.61,1.45-9,15.32-22.08,16.77-31.1,1-6.24,2-12.65.93-18.9-1.37-8-6-15-11.6-20.94-8.83-9.37-20.36-16.42-33-18.71s-43.67-.42-53.8,7.58c-1.25-8.26,22-16.22,30.12-18,4.06-.91,8.73-.4,12-3,6.23-4.89,1.71-14.64,2-22.46.24-6.24,3.88-12,4.62-18.19,1.25-10-5.26-20.15-2.71-29.94.95-3.62,3.06-6.8,4.52-10.25,4.44-10.54,2.49-22.57.12-33.77-1.47-7-2.9-15,1-21,3.64-5.6,10.73-7.72,17.33-8.66a85.41,85.41,0,0,1,62.39,16.09c9,6.74,10.14,13.73,13.72,23.35C1119.86,541.82,1128.88,546.52,1134.71,554.1Z"/><path class="cls-14" d="M309.2,495,377,745.68a15.67,15.67,0,0,0,13.61,11.5L696,786.51a15.65,15.65,0,0,0,16.69-19.32L638.37,464.8A15.65,15.65,0,0,0,622,452.93L323.08,475.29A15.64,15.64,0,0,0,308.7,492.1,14.94,14.94,0,0,0,309.2,495Z"/><ellipse class="cls-18" cx="914.43" cy="509.91" rx="33.56" ry="34"/><path class="cls-18" d="M942,447.89s7.07,21-13.8,29.88l-2.67,4.67,13.07,12.9s16.12-29.41,14.38-39.85C953,455.49,950.47,444.88,942,447.89Z"/><circle class="cls-10" cx="918.28" cy="511.54" r="32.36"/><path class="cls-10" d="M952.78,460.27l-5.14-8.49-7.48-1.06c1.6-27.93-5.65-36.25-5.65-36.25l-1.69-.16-7.33-.72-13.8-14.32V395.2c19.39,2.31,30.1,11.52,35.89,22.31C957.81,436.45,952.78,460.27,952.78,460.27Z"/><path class="cls-10" d="M953.63,460.27l-5.14-8.49V417.56C958.66,436.45,953.63,460.27,953.63,460.27Z"/><ellipse class="cls-18" cx="842.06" cy="496.41" rx="18" ry="32.84" transform="translate(-135.39 487.54) rotate(-30)"/><path class="cls-10" d="M846.92,493.67c9.07,15.7,20.2,26.2,11.59,31.19s-33.69,2.49-42.76-13.23-.83-37.43,7.78-42.42S837.84,477.92,846.92,493.67Z"/><path class="cls-17" d="M927.68,380.51c0,50.19-34.35,98.56-84.54,98.56a90.89,90.89,0,1,1,0-181.78C893.33,297.34,927.68,330.3,927.68,380.51Z"/><circle class="cls-8" cx="843.14" cy="385.74" r="90.89"/><path class="cls-19" d="M835.15,345.46c10.82,4,17.22,15.16,26.93,21.39,13.72,8.73,31.59,6.47,47.26,2.15,8.73-2.38,17.86-5.29,26.46-2.64a7.43,7.43,0,0,0,4,.57c1.87-.53,2.79-2.6,3.4-4.45,10.63-31.69,5.86-67.58-10.19-96.9-4.14-7.56-9.11-14.87-15.94-20.13-5.39-4.13-11.73-6.83-18.12-9.14a180.94,180.94,0,0,0-36-8.9,22.61,22.61,0,0,0-6.57-.21c-3,.49-5.71,2.11-8.39,3.56a85.8,85.8,0,0,1-37.25,10.11c-17.47.67-37.43-3.45-50.89,7.75-16.22,13.44-12.18,39.65-22.7,57.89-7,12.07-20.38,20.82-22.59,34.56a31.67,31.67,0,0,0,.79,12.56c5.14,21.14,25.6,37.51,47.41,37.89a18,18,0,0,0,9.68-2,22,22,0,0,0,5.1-4.85C791.82,367.77,808.17,335.53,835.15,345.46Z"/><path class="cls-17" d="M943.23,353.28c-.61,1.85-1.53,3.92-3.4,4.46a7.53,7.53,0,0,1-4-.58c-8.6-2.64-17.78.27-26.45,2.65-15.68,4.32-33.59,6.62-47.26-2.16-9.72-6.24-16.11-17.47-26.94-21.38-27-10-43.33,22.3-57.65,39.22a22.21,22.21,0,0,1-5.1,4.86,18.05,18.05,0,0,1-9.68,2c-21.74-.39-42.21-16.76-47.41-37.89-.29-1.25-.54-2.5-.73-3.74a.61.61,0,0,1-.06.32,31.86,31.86,0,0,0,.79,12.56c5.14,21.14,25.61,37.51,47.41,37.89a18,18,0,0,0,9.68-2,22,22,0,0,0,5.1-4.85c14.32-16.92,30.67-49.16,57.65-39.23,10.83,4,17.22,15.16,26.94,21.39,13.72,8.73,31.58,6.47,47.26,2.15,8.73-2.38,17.85-5.28,26.45-2.64a7.43,7.43,0,0,0,4,.57c1.87-.53,2.79-2.6,3.4-4.45a112.42,112.42,0,0,0,5.59-40.25A110.46,110.46,0,0,1,943.23,353.28Z"/></svg>