<svg id="Layer_1" data-name="Layer 1" xmlns="http://www.w3.org/2000/svg" viewBox="0 0 803.5 530.06"><defs><style>.cls-1{fill:#38baec;stroke:#3f3d56;}.cls-1,.cls-10,.cls-11,.cls-12,.cls-14,.cls-4,.cls-6,.cls-8{stroke-miterlimit:10;}.cls-2{fill:#ccc;}.cls-3,.cls-6{fill:#ffb8b8;}.cls-4{fill:#ffc500;}.cls-10,.cls-11,.cls-12,.cls-14,.cls-4,.cls-6,.cls-8{stroke:#000;}.cls-5{fill:#2f2e41;}.cls-7,.cls-8{fill:#a0616a;}.cls-9{fill:#e6e6e6;}.cls-10,.cls-11,.cls-16{fill:#fff;}.cls-11{stroke-width:0.25px;}.cls-12{fill:#ff7d70;stroke-width:0.75px;}.cls-13,.cls-14{fill:#3f3d56;}.cls-15{fill:#fec111;}</style></defs><path class="cls-1" d="M794.16,232.32q1.44,5.58,2.68,11.22H513.62V232.32Z"/><path class="cls-1" d="M783.32,203.42a339.19,339.19,0,0,0-16.06-37.31q-2.81-5.6-5.84-11.09c-.33-.63-.69-1.26-1-1.89v82.56h24.67V208.33Z"/><path class="cls-1" d="M767.2,166.15h-6.82V154.93h1Q764.43,160.48,767.2,166.15Z"/><polygon class="cls-1" points="783.32 203.16 760.38 203.16 760.38 214.38 785.05 214.38 785.05 208.13 783.32 203.16"/><rect class="cls-1" x="722.24" y="140.35" width="24.68" height="95.34"/><rect class="cls-1" x="722.24" y="154.93" width="24.68" height="11.22"/><rect class="cls-1" x="722.24" y="203.16" width="24.68" height="11.22"/><path class="cls-1" d="M636.46,139.23H550.05a5,5,0,0,0-5,5v86.41a5.54,5.54,0,0,0,.21,1.46,5.05,5.05,0,0,0,4.82,3.57h86.41a5,5,0,0,0,4.81-3.57,5.15,5.15,0,0,0,.21-1.46V144.25A5,5,0,0,0,636.46,139.23Z"/><path class="cls-1" d="M629.73,146H555.65a5,5,0,0,0-5,5v74.08a5,5,0,0,0,5,5h74.08a5,5,0,0,0,5-5V151A5,5,0,0,0,629.73,146Z"/><path class="cls-1" d="M617.39,158.29H569.11a5,5,0,0,0-5,5V211.6a5,5,0,0,0,5,5h48.28a5.06,5.06,0,0,0,5-5V163.32A5.05,5.05,0,0,0,617.39,158.29Z"/><path class="cls-1" d="M614.46,203.34l-10.24-17.75a2.25,2.25,0,0,0-3.07-.82,2.3,2.3,0,0,0-.82.82l-7.48,13-9.81-17a2.25,2.25,0,0,0-3.89,0L568.91,199.3,556.72,220h23.51l-2.33,4.49h48.75Z"/><circle class="cls-1" cx="610.84" cy="168.99" r="7.06"/><path class="cls-1" d="M802.22,310.89q-.12-6.52-.52-13c-.11-2.06-.41-6.13-.41-6.13h-47.1a5,5,0,0,0-5,5v86.42a4.64,4.64,0,0,0,.15,1.17,5,5,0,0,0,4.88,3.85h43.4s.43-2.17.62-3.46c.13-.76.25-1.54.36-2.3.27-1.83.53-3.66.76-5.48.34-2.49.64-5,.91-7.51a252.15,252.15,0,0,0,1.64-27.31h0c.37-3.47.42-7,1.12-10.44V318.26A30,30,0,0,1,802.22,310.89Z"/><path class="cls-1" d="M802.22,310.89c-.08-4.35-.52-12.39-.52-12.39H759.79a5,5,0,0,0-5,5V377.6a5,5,0,0,0,5,5h38.78s.53-3.81.76-5.63c.34-2.49.64-5,.91-7.51a252.15,252.15,0,0,0,1.64-27.31h0c.37-3.47.42-7,1.12-10.44V318.26A30,30,0,0,1,802.22,310.89Z"/><path class="cls-1" d="M802.22,310.84h-29a5,5,0,0,0-5,5v48.28a5,5,0,0,0,5,5h27s1.63-17.79,1.64-27h0c.37-3.47.42-7,1.12-10.44V318.26A40.64,40.64,0,0,1,802.22,310.84Z"/><path class="cls-1" d="M802.15,342.17q-.42,13.8-1.91,27.31-.4,3.76-.91,7.53H782l2.33-4.48H760.86l7.18-12,5-8.67,10.26-17.74a2.22,2.22,0,0,1,3-.84,2.26,2.26,0,0,1,.84.84l9.81,17Z"/><path class="cls-1" d="M719,91H513.62V79.78H708.81Q714,85.27,719,91Z"/><path class="cls-1" d="M621.29,14.29Q634,21.12,646,28.92V83.14H621.29Z"/><rect class="cls-1" x="623.5" y="43.7" width="22" height="10"/><path class="cls-1" d="M684.11,57.41V83.14H659.43V38q8.63,6.18,16.87,12.85Q680.24,54.09,684.11,57.41Z"/><path class="cls-1" d="M680.5,50.59V54.7h-22v-10h15Q677.05,47.58,680.5,50.59Z"/><path class="cls-1" d="M597.23,2.08q9.6,4.33,18.88,9.22l-5,10.05L594.59,54.79l-4.92,9.94L582,80.28l-1.69,3.43-6.9-3.43L558.59,73,568,54h0L572.9,44l16.55-33.43L594.32.78l.06-.11Z"/><rect class="cls-1" x="584.38" y="28.75" width="9.89" height="21.58" transform="translate(292.42 550.14) rotate(-63.66)"/><path class="cls-1" d="M800.94,384.87c-.19,1.3-.4,2.62-.63,3.91q-.6,3.68-1.29,7.3H513.62V384.87Z"/><rect class="cls-1" x="621.29" y="291.77" width="24.68" height="95.34"/><rect class="cls-1" x="621.29" y="307.47" width="24.68" height="11.22"/><rect class="cls-2" x="621.29" y="355.7" width="24.68" height="11.22"/><rect class="cls-1" x="659.43" y="291.77" width="24.68" height="95.34"/><rect class="cls-1" x="659.43" y="307.47" width="24.68" height="11.22"/><rect class="cls-1" x="659.43" y="355.7" width="24.68" height="11.22"/><rect class="cls-1" x="542.78" y="327.8" width="95.79" height="24.2" transform="translate(23.99 718.44) rotate(-63.66)"/><rect class="cls-2" x="597.21" y="303.4" width="11.09" height="24.2" transform="translate(52.57 715.69) rotate(-63.66)"/><rect class="cls-2" x="575.74" y="346.78" width="11.09" height="24.2" transform="translate(1.75 720.58) rotate(-63.66)"/><path class="cls-3" d="M328.42,427.52a22.55,22.55,0,0,1,2.88,2l99.86-31.07,5.63-24.78,38.5,3.61-5.71,44.83a16.89,16.89,0,0,1-14.1,14.54L338,455.22a22.14,22.14,0,1,1-12-28.9A21.61,21.61,0,0,1,328.42,427.52Z"/><path class="cls-4" d="M493,391.69l-.67-11.31h0l-.17-3.1-2-33.29a26.32,26.32,0,0,0-23.92-28.43,25.53,25.53,0,0,0-6,.16,26.4,26.4,0,0,0-22.6,23.75l-4.05,16.85-7.08,29.46a9.51,9.51,0,0,0,8.38,11.67l11.8,1.05,11.36,1,13.11,1.17.95.08,2.42.22,8.11.72h0a9.51,9.51,0,0,0,9.21-5,9.3,9.3,0,0,0,1.08-5Z"/><path class="cls-5" d="M602.66,255c0,38.39-35.5,32.58-79.28,32.58s-79.29,5.81-79.29-32.58,17.34-106.43,79.29-106.43C587.46,148.59,602.66,216.63,602.66,255Z"/><circle class="cls-6" cx="523.11" cy="234.19" r="53.35" transform="translate(-12.38 438.49) rotate(-45)"/><path class="cls-4" d="M598.21,310.06A31.9,31.9,0,0,0,595,307.3a34.68,34.68,0,0,0-25.38-6.71L471.25,313a34.89,34.89,0,0,0-30.45,37.88c.28,3.14.6,6.45.94,9.9.45,4.32,1,8.85,1.54,13.54,1,7.88,2.14,16.2,3.54,24.67,1.23,7.29,2.62,14.68,4.21,22,.46,2.1.94,4.21,1.44,6.3a0,0,0,0,0,0,0c0,.26.11.52.18.77a0,0,0,0,0,0,.05q1,4.38,2.19,8.65c.29,1.05.57,2.1.86,3.13.78,2.8,1.61,5.55,2.47,8.25,6.4,20.12,14.87,37.24,26.05,46.35a5.19,5.19,0,0,0,.45.37l.45.35.65-.2,2.76-.82,2.36-.72,30.68-9.23,7.64-2.3,24.54-7.39h0l22.45-6.75L579,467l19.28-5.8.61-7.2.83-9.56.5-5.74,3.9-45.3L606.37,367l2.47-28.69A34.89,34.89,0,0,0,598.21,310.06Z"/><path class="cls-5" d="M653.51,529.56H482.27l.12-2.24,1.85-32.43,0-.33.06-.95.41-.15.21-.07,2.49-.86.2-.07,2.8-1,.06,0,25.84-8.94.41-.14h0l3-1.06h-.68l1-.34h0l13.53-4.68h0l1.7-.59h-.75l.35-.12,15.71-5.43,0,0L551,470h0l20.1-6.95h0l.16-.06h0l2.58-.89.06,0,2.63-.91.06,0,21.86-7.57.38.21,0,0h0c25.08,13.9,42.12,39.41,53.68,73.13l.12.36.65,1.89C653.44,529.33,653.48,529.44,653.51,529.56Z"/><path class="cls-5" d="M461.9,229h21l9.24-25.89L494,229h10l5.4-15.1,1.08,15.1h74.41a56.08,56.08,0,0,0-56.08-56.08H518A56.08,56.08,0,0,0,461.9,229Z"/><path class="cls-7" d="M331.68,511.61A25.55,25.55,0,0,1,298.22,498a24.94,24.94,0,0,1-1.38-4.29l-90.25-10.22,30.25-36.23,81.07,15.26a25.7,25.7,0,0,1,13.77,49.14Z"/><path class="cls-2" d="M283,444.55l-38.15-6.82-2.77-.49A15.93,15.93,0,0,1,229.64,417l18.73-62.24.56-1.85a36.2,36.2,0,1,0-69.82-19l-23.89,97.5-.89,3.61a48.71,48.71,0,0,0,42.82,60.12l.22,0,14.3,1.27L230.22,498l23.33,2.08L275.33,502a11.43,11.43,0,0,0,12.27-9.4c0-.16,0-.32.07-.47l4.63-34.51,0-.31A11.42,11.42,0,0,0,283,444.55Z"/><path class="cls-5" d="M224.25,183.13C209,213.07,197,244,163.43,244a60.82,60.82,0,0,1-60.82-60.82c0-33.59,27.23-60.4,60.82-60.82C197.56,121.89,252.59,127.41,224.25,183.13Z"/><circle class="cls-8" cx="166.42" cy="191.79" r="53.35"/><path class="cls-4" d="M80.18,484.89l2.87-35.64L70.45,364.6a91.29,91.29,0,0,1,10.45-58h0A92.32,92.32,0,0,1,93.6,289a90.82,90.82,0,0,1,72.84-29.46l2.67.18a90.4,90.4,0,0,1,36.61,11A91.77,91.77,0,0,1,251,370.09a287.23,287.23,0,0,0-6.09,67.64c.11,3.71.28,7.4.53,11.09h0a289,289,0,0,0,5.46,39.62h0q1.21,5.82,2.69,11.62,1,4.1,2.2,8.17l0,.13c.86,3.06,1.79,6.11,2.77,9.15l3,9.35.14.44.36,1.12,0,.13.18.56.14.43H76.59l0-.43.14-1.81,0-.44Z"/><path class="cls-5" d="M223,161.64a72.56,72.56,0,0,1-41.46,12.81,44.25,44.25,0,0,0,17.62,7.25,146.19,146.19,0,0,1-59.76.34,38.69,38.69,0,0,1-12.52-4.3c-3.78-2.3-7-6-7.72-10.33-1.31-7.49,4.53-14.29,10.59-18.88a78.15,78.15,0,0,1,65.66-13.12c7.33,1.9,14.68,5.1,19.44,11s6.17,15,1.64,21Z"/><path class="cls-8" d="M225.76,500.52A25.57,25.57,0,0,1,192,487.58a26.47,26.47,0,0,1-1.47-4.26l-90.45-8.27,29.46-36.87,81.38,13.5a25.7,25.7,0,0,1,14.83,48.84Z"/><path class="cls-4" d="M175.67,434.53l-20.45-3.2-20.63-3.23a16,16,0,0,1-13.29-18.21,18,18,0,0,1,.39-1.8l17.91-64.5a36.42,36.42,0,0,0-18-41.69,36.19,36.19,0,0,0-52.22,24.16L46.8,427.7a48.75,48.75,0,0,0,37,58.15,49.49,49.49,0,0,0,7.28,1l78.1,5.23a11.42,11.42,0,0,0,12.07-9.65c0-.16,0-.32.06-.47l3.87-34.6,0-.31A11.42,11.42,0,0,0,175.67,434.53Z"/><path class="cls-9" d="M521.67,380.91,517,383.47l-57.67,31.46-4.68,2.55a9.77,9.77,0,0,0-3.89,13.25l42.94,78.7a9.77,9.77,0,0,0,13.25,3.9h0l67-36.56h0a9.78,9.78,0,0,0,3.9-13.25l-42.94-78.7A9.79,9.79,0,0,0,521.67,380.91Z"/><path class="cls-10" d="M523,383.38l-5.55,3-55.94,30.53L456,420a7,7,0,0,0-2.78,9.43l43,78.71a7,7,0,0,0,9.43,2.77h0l67-36.56h0a7,7,0,0,0,2.77-9.43l-42.94-78.71A7,7,0,0,0,523,383.38Z"/><path class="cls-9" d="M524.59,405.6a1.63,1.63,0,0,0-2.21-.65l-2.23,1.22-22.76,12.42a1.63,1.63,0,0,0,1.56,2.86l25-13.64A1.65,1.65,0,0,0,524.59,405.6Z"/><path class="cls-9" d="M533.1,407.39a1.61,1.61,0,0,0-2.19-.64h0L500,423.6a1.62,1.62,0,1,0,1.56,2.85h0l1.44-.79,9-4.9h0l20.44-11.16a1.62,1.62,0,0,0,.67-2.19Z"/><path class="cls-9" d="M499.54,434.06l-9.8-18a.79.79,0,0,0-1.07-.31l-4.75,2.59-2.47,1.35-13.25,7.22-2.56,1.41a.78.78,0,0,0-.31,1.06l.63,1.16,9.17,16.82a.78.78,0,0,0,1.06.3L492,439.06l2.47-1.35,4.76-2.59a.79.79,0,0,0,.32-1.06Z"/><path class="cls-9" d="M537,428.41a1.64,1.64,0,0,0-2.2-.65l-33.89,18.5a1.62,1.62,0,0,0-.82,1.72,1.25,1.25,0,0,0,.17.49,1.57,1.57,0,0,0,.32.41h0a1.64,1.64,0,0,0,1.88.23l33.89-18.5a1.62,1.62,0,0,0,.65-2.2Z"/><path class="cls-9" d="M545.21,430a1.62,1.62,0,0,0-2.21-.64h0l-39.78,21.7a1.58,1.58,0,0,0-.82,1.7h0a1.25,1.25,0,0,0,.17.49,1.54,1.54,0,0,0,.33.43,1.62,1.62,0,0,0,1.88.22l39.78-21.7A1.63,1.63,0,0,0,545.21,430Z"/><circle class="cls-9" cx="489.53" cy="457.36" r="6.9"/><path class="cls-2" d="M541.86,350.63l-4.68,2.55-57.67,31.46-4.68,2.56a9.77,9.77,0,0,0-3.89,13.25l42.94,78.7A9.77,9.77,0,0,0,527.13,483h0l67-36.56h0a9.76,9.76,0,0,0,3.9-13.24l-42.94-78.71A9.77,9.77,0,0,0,541.86,350.63Z"/><path class="cls-11" d="M543.2,353.09l-5.54,3-55.94,30.52-5.54,3a7,7,0,0,0-2.78,9.43l43,78.7a7,7,0,0,0,9.43,2.78h0l67-36.56h0a7,7,0,0,0,2.77-9.44l-42.94-78.7A7,7,0,0,0,543.2,353.09Z"/><path class="cls-2" d="M544.78,375.31a1.65,1.65,0,0,0-2.21-.65L531.06,381l-3.21,1.75-10.27,5.6a1.64,1.64,0,0,0-.64,2.22,1.62,1.62,0,0,0,2.2.64l12.11-6.6,2.54-1.39,10.34-5.65A1.64,1.64,0,0,0,544.78,375.31Z"/><path class="cls-2" d="M553.29,376.92a1.61,1.61,0,0,0-2.18-.65h0L535,385l-2.47,1.35-12.36,6.74a1.62,1.62,0,0,0,1.56,2.85h0l12.36-6.75,2.47-1.34,16-8.76a1.63,1.63,0,0,0,.67-2.19Z"/><path class="cls-12" d="M520,403.77l-7.82-14.33L510.88,387l-.64-1.18a.79.79,0,0,0-1.07-.3l-15.87,8.66-7.16,3.9a.79.79,0,0,0-.31,1.07l.64,1.16.7,1.29.65,1.18h0l7.82,14.34a.77.77,0,0,0,1.05.3l23-12.56a.79.79,0,0,0,.32-1.06Z"/><path class="cls-2" d="M557.17,398.13a1.62,1.62,0,0,0-2.2-.65L544.84,403l-2.46,1.34-9.78,5.33L521.08,416a1.63,1.63,0,0,0,1.56,2.86l21.3-11.62,2.46-1.34,10.13-5.53a1.62,1.62,0,0,0,.65-2.2Z"/><path class="cls-2" d="M565.7,399.73a1.64,1.64,0,0,0-2.21-.64h0l-16,8.74L545,409.18,523.7,420.8a1.63,1.63,0,1,0,1.55,2.86h0L546.56,412l2.47-1.35,16-8.74A1.65,1.65,0,0,0,565.7,399.73Z"/><circle class="cls-2" cx="509.72" cy="427.08" r="6.9"/><path class="cls-6" d="M514.36,465.86a22.35,22.35,0,0,1,3.44.62L596,397.08l-5-24.9,36.57-12.55,13.24,43.21a16.85,16.85,0,0,1-6.87,19l-99.46,65.3a22.14,22.14,0,1,1-22.85-21.4,22.91,22.91,0,0,1,2.75.08Z"/><path class="cls-4" d="M649.89,365.85l-22.17-42.33A26.32,26.32,0,0,0,595,307.21c-.25.07-.48.14-.73.23A26.4,26.4,0,0,0,578,341l8.9,46.78a9.46,9.46,0,0,0,4.57,6.44,9.32,9.32,0,0,0,4.24,1.25,9.09,9.09,0,0,0,3.62-.5l4.76-1.66,30.53-10.63,10-3.48a9.5,9.5,0,0,0,5.84-12.11,11.72,11.72,0,0,0-.55-1.26Z"/><path class="cls-13" d="M734.68,528.44a1.12,1.12,0,0,1-1.12,1.12H1.12a1.12,1.12,0,1,1,0-2.24H733.56A1.12,1.12,0,0,1,734.68,528.44Z"/><path class="cls-13" d="M127.77,508.25v.56a19.63,19.63,0,0,0,11.7,17.94,19.35,19.35,0,0,0,7.93,1.69H328.54V508.25Z"/><path class="cls-14" d="M455,375.19a36.44,36.44,0,0,0-32.82-20.61H248.35A36.51,36.51,0,0,0,211.89,391V492a35.22,35.22,0,0,0,.25,4.24,36.52,36.52,0,0,0,1.28,6.22,35.87,35.87,0,0,0,2.31,5.81,36.43,36.43,0,0,0,32.62,20.19H422.2A36.45,36.45,0,0,0,458.66,492V391A36.23,36.23,0,0,0,455,375.19Z"/><path class="cls-15" d="M314.65,443.73l.17-.13,7.5-6.22L332.69,450l5.22-4.33L327.64,433l5.24-4.3,6.32,7.72,5.25-4.33-10.66-13L310,438.67a8.2,8.2,0,0,0,4.63,5.06Z"/><path class="cls-15" d="M335.67,469s-3.07,5.6-6.57,5.6-6.57-5.6-6.57-5.6c-.85-1.37.27-1.36.27-1.36h12.6S336.52,467.64,335.67,469Z"/><g id="Layer_11" data-name="Layer 11"><path class="cls-16" d="M349,447.21a26.46,26.46,0,0,0,7.62-18.85c0-15-12.82-27.13-27.13-27.13a27.13,27.13,0,0,0-27.13,27.13,30.2,30.2,0,0,0,7.61,18.85l4.71-3.48a21.27,21.27,0,0,1,14.74-36.59,21.61,21.61,0,0,1,21.27,21.27,21.15,21.15,0,0,1-6.52,15.32l4.81,3.51Z"/></g><g id="stand_1_Image" data-name="stand 1 Image"><g id="stand_1_Image-2" data-name="stand 1 Image-2"><path class="cls-16" d="M342.13,461.31a1.91,1.91,0,0,0-.23-.45,1.38,1.38,0,0,0-.41-.39c-.13-.08-.28-.12-.42-.2h-.22v-.13h-.14v.13h-23v.14h-.14v-.14h-.11a5.36,5.36,0,0,0-.54.26,1.48,1.48,0,0,0-.46.44,1.51,1.51,0,0,0-.25.89v.89a1.64,1.64,0,0,0,.09.44,1.53,1.53,0,0,0,.25.45,1.49,1.49,0,0,0,.44.39c.15.08.31.13.47.2h.11v.14H341v-.14h.08a1.75,1.75,0,0,0,.91-.7,1.6,1.6,0,0,0,.23-.89v-.88A1.38,1.38,0,0,0,342.13,461.31Z"/></g></g><g id="stand_2_Image" data-name="stand 2 Image"><g id="stand_2_Image-2" data-name="stand 2 Image-2"><path class="cls-16" d="M342.24,454.08a1.55,1.55,0,0,0-.73-.84,3.26,3.26,0,0,0-.48-.2h-.18v.14H317.66V453h-.08a3.43,3.43,0,0,0-.52.23,1.69,1.69,0,0,0-.49.47,1.16,1.16,0,0,0-.14.24l-.05.12s0,.07,0,.11a3.41,3.41,0,0,0,0,.46v.93a2.42,2.42,0,0,0,0,.25.36.36,0,0,0,0,.1s0,.07,0,.1.05.09.07.14,0,.08,0,.11l.17.24a1.8,1.8,0,0,0,.9.6H341.1a1.81,1.81,0,0,0,1-.73c.05-.08.08-.16.12-.24a.37.37,0,0,0,.05-.11l.05-.12a3.42,3.42,0,0,0,0-.46v-.93A1.53,1.53,0,0,0,342.24,454.08Z"/></g></g></svg>