<svg id="Layer_1" data-name="Layer 1" xmlns="http://www.w3.org/2000/svg" viewBox="0 0 1042.62 554.07"><defs><style>.cls-1{fill:#f2f2f2;}.cls-2{fill:#38baec;stroke:#3f3d56;}.cls-10,.cls-12,.cls-2,.cls-6,.cls-7,.cls-8{stroke-miterlimit:10;}.cls-12,.cls-3{fill:#3f3d56;}.cls-4{fill:#2f2e41;}.cls-5{fill:#504f60;}.cls-11,.cls-6{fill:#ffc500;}.cls-10,.cls-12,.cls-6,.cls-7,.cls-8{stroke:#000;}.cls-7{fill:none;}.cls-8,.cls-9{fill:#fbbebe;}.cls-10,.cls-11{opacity:0.1;isolation:isolate;}.cls-13{fill:#6c63ff;}</style></defs><path class="cls-1" d="M359.07,339.2c1.07-2.16,2.85-3.86,4.33-5.75-.22.17-.44.34-.67.5a10.79,10.79,0,0,0-3,1.89,6.09,6.09,0,0,0-1.08,2.55l-2.55,9.9c.5-.63,1-1.25,1.51-1.87A17.37,17.37,0,0,1,359.07,339.2Z"/><path class="cls-1" d="M599.8,345.89a11.43,11.43,0,0,1-1,3.23,45.59,45.59,0,0,1-1.66,12.4,36.42,36.42,0,0,0-1,5.19c-2.36,16.14-4.64,33-.61,48.64a5.79,5.79,0,0,1,1.53-2.5c2.66-3.27,3.71-7.54,4.5-11.68,4.15-21.8,3-44.06,2-66.33a7.48,7.48,0,0,0-2.18-1.65,21.91,21.91,0,0,1-.07,2.92A98.15,98.15,0,0,1,599.8,345.89Z"/><path class="cls-1" d="M459.58,339.22a10.43,10.43,0,0,0-.78-3.7,11.68,11.68,0,0,0-1.94-2.68l-2.16-2.46c-1.1,26.12-3.44,52.31,1.42,77.88.79,4.14,1.84,8.41,4.5,11.68a5.89,5.89,0,0,1,1.53,2.5c4-15.61,1.75-32.5-.61-48.64a37.86,37.86,0,0,0-1.05-5.19,49.48,49.48,0,0,1-1.19-20.15A47.59,47.59,0,0,0,459.58,339.22Z"/><path class="cls-1" d="M472,284.1c2.89,4.75,4.69,10.4,6.31,15.78l.69,2.34c-.33-7.91-.49-15.81-.55-23.72-1.56,1.39-3.13,2.75-4.71,4.11Z"/><path class="cls-1" d="M495.21,550.79a53.68,53.68,0,0,0-1.27-16.52c-.88-3.42-2.24-6.77-2.36-10.31a31.11,31.11,0,0,1,.86-7c4.11-20.9,5.88-42.89-.34-63.26-1.67-5.46-3.88-10.74-5.58-16.19a40.51,40.51,0,0,1-2.82,5.91,6.12,6.12,0,0,0-3.41-4,21.91,21.91,0,0,1-.07,2.92c-.3,3.27-.77,6.52-1.39,9.74a10,10,0,0,1-1.23,3.57,8.4,8.4,0,0,1-3.22,2.66c.58,1.31,1.16,2.63,1.73,3.94l-4.17,1.28c2.74,6,.46,12.84-1,19.22-5.23,22.19-.52,45.89-3,68.32Z"/><path class="cls-1" d="M480.07,233.2c1.07-2.16,2.85-3.86,4.33-5.75-.22.17-.44.34-.67.5a10.79,10.79,0,0,0-3,1.89,6.09,6.09,0,0,0-1.08,2.55l-2.55,9.9c.5-.63,1-1.25,1.51-1.87A17.37,17.37,0,0,1,480.07,233.2Z"/><path class="cls-1" d="M580.58,233.22a10.43,10.43,0,0,0-.78-3.7,11.68,11.68,0,0,0-1.94-2.68l-2.16-2.46c-1.08,25.72-3.36,51.52,1.22,76.72.81-2.72,1.63-5.44,2.44-8.17a82,82,0,0,1,4.81-13.08c-.47-4-1-8.07-1.63-12a37.86,37.86,0,0,0-1-5.19,49.48,49.48,0,0,1-1.19-20.15A47.32,47.32,0,0,0,580.58,233.22Z"/><path class="cls-1" d="M537,429.62l-3.42,120.45,9-.1a378.58,378.58,0,0,1-2.16-44.15c0-4.29.15-8.62-.74-12.82-.63-2.93-1.73-5.74-2.33-8.67a52.06,52.06,0,0,1-.67-10.65Z"/><path class="cls-1" d="M459.63,429.86c.14-.33.28-.66.41-1,.47-1.22.89-2.45,1.28-3.69a.64.64,0,0,0-.08.14c-.79,1.3-1.65,2.55-2.54,3.77C459,429.34,459.33,429.59,459.63,429.86Z"/><path class="cls-1" d="M187.58,295.22a10.43,10.43,0,0,0-.78-3.7,11.68,11.68,0,0,0-1.94-2.68l-2.16-2.46c-1.1,26.12-3.44,52.31,1.42,77.88.79,4.14,1.84,8.41,4.5,11.68a5.89,5.89,0,0,1,1.53,2.5c4-15.61,1.75-32.5-.61-48.64a37.74,37.74,0,0,0-1-5.19,49.48,49.48,0,0,1-1.19-20.15A47.57,47.57,0,0,0,187.58,295.22Z"/><path class="cls-1" d="M187.63,385.86c.14-.33.28-.66.41-1,.47-1.22.89-2.45,1.28-3.69a.64.64,0,0,0-.08.14c-.79,1.3-1.65,2.55-2.54,3.77C187,385.34,187.33,385.59,187.63,385.86Z"/><path class="cls-1" d="M144,491.38q-.89,31.35-1.78,62.69l4.29-.05c-.64-2.66-1.59-5.24-2.14-7.93a52.06,52.06,0,0,1-.67-10.65Z"/><path class="cls-1" d="M208.22,552.25a8.31,8.31,0,0,1-3.22-2.68,9.75,9.75,0,0,1-1.23-3.65,94,94,0,0,1-1.39-9.74,19,19,0,0,1-.07-2.92,6.09,6.09,0,0,0-3.41,4,46.66,46.66,0,0,1-5.62-16.69c-.3,1-.61,2.1-1,3.14-2.08,6.19-5.1,12.18-5.7,18.69a37,37,0,0,0,1,11.67l19.86-.22A9.4,9.4,0,0,0,208.22,552.25Z"/><path class="cls-1" d="M221.28,519.18c.39,1.24.81,2.47,1.28,3.69.13.33.27.66.41,1,.3-.27.61-.52.93-.77-.89-1.22-1.75-2.47-2.54-3.77A1,1,0,0,0,221.28,519.18Z"/><path class="cls-1" d="M364.55,540a123.21,123.21,0,0,1-2.87-18.11q-2.39-22-4.76-44c-.05-.38-.09-.77-.13-1.15-.06.19-.11.38-.17.57-1.21,3.55-3.61,6.54-6,9.46s-5.38,5.94-8.89,5.08a9.54,9.54,0,0,1-3.81-2.35l-8-6.91c-1.58-1.36-3.15-2.72-4.71-4.11-.07,9.65-.29,19.29-.79,28.93-.16,3.05-.41,6.23-1.85,8.89a102.23,102.23,0,0,1,4.86,28.34c.07,2.61,0,5.22-.08,7.45l23.44,1h17.77C367.09,548.06,365.61,544.08,364.55,540Z"/><path class="cls-1" d="M325,440.42l1.51,1.87-2.55-9.9a6.36,6.36,0,0,0-1.08-2.55,11.09,11.09,0,0,0-3-1.89c-.23-.16-.46-.33-.67-.5,1.48,1.89,3.26,3.59,4.33,5.75A17.53,17.53,0,0,1,325,440.42Z"/><path class="cls-1" d="M353.94,396.52c.63,7,1,13.92,1.35,20.89s.71,13.76,1.06,20.64a100.33,100.33,0,0,1,3.7-15.7c-1.44-2.66-1.69-5.84-1.85-8.89-.5-9.64-.72-19.28-.79-28.93-1.53,1.37-3.08,2.71-4.64,4A56.58,56.58,0,0,1,353.94,396.52Z"/><path class="cls-1" d="M221.09,467.75c-2.36,16.14-4.64,33-.61,48.64a5.79,5.79,0,0,1,1.53-2.5c2.66-3.27,3.71-7.54,4.5-11.68,4.86-25.57,2.52-51.76,1.42-77.88l-2.13,2.46a11.42,11.42,0,0,0-2,2.73,10.06,10.06,0,0,0-.81,3.75,46.32,46.32,0,0,0,.31,9.19,49.74,49.74,0,0,1-1.16,20.06A35.61,35.61,0,0,0,221.09,467.75Z"/><path class="cls-1" d="M582.7,550.07l7.84-.08c-4.18-24.08,1.85-49.93-3.83-74a75.09,75.09,0,0,1-2.28-11.49c-2,5.31-4.29,10.55-4.81,16.18-.91,9.73,3.67,19.05,5.37,28.68,2.37,13.44-.91,27.14-2.3,40.71Z"/><path class="cls-1" d="M852.28,537.63c-9.08-27.06,0-57.22-6.57-85-1.51-6.38-3.79-13.27-1-19.22l-4.17-1.28c.57-1.31,1.15-2.63,1.73-3.94a10.14,10.14,0,0,1-2.24-1.54L837,454.86A124.56,124.56,0,0,1,834.1,473c-1.73,6.65-4.54,13-6.55,19.55-5.37,17.56-4.78,36.32-1.89,54.55l30-.32C854.56,543.7,853.31,540.69,852.28,537.63Z"/><path class="cls-1" d="M838.25,270.16l.08-.28.36-1.17a12.33,12.33,0,0,0-2.82-1.76c-.23-.16-.46-.33-.67-.5C836.19,267.71,837.3,268.88,838.25,270.16Z"/><path class="cls-1" d="M737.28,358.18c.39,1.24.81,2.47,1.28,3.69.13.33.27.66.41,1,.3-.27.61-.52.93-.77-.89-1.22-1.75-2.47-2.54-3.77A1,1,0,0,0,737.28,358.18Z"/><path class="cls-1" d="M860.51,378.21c3.07-16.12,3.27-32.48,2.72-48.91a6.43,6.43,0,0,1-5.47,1.57l-.17-.05a43.28,43.28,0,0,1-1.45,7.74,36.42,36.42,0,0,0-1,5.19c-2.36,16.14-4.64,33-.61,48.64a5.79,5.79,0,0,1,1.53-2.5C858.67,386.62,859.72,382.35,860.51,378.21Z"/><path class="cls-1" d="M415.87,551.07q0-7.86.1-15.73-.24,7.86-.44,15.73Z"/><path class="cls-2" d="M1038.7,117.66q-1-5.66-2.37-11.11c-9.71-39.24-32.42-70.54-74-87.49q-5.34-2.18-11.12-4a188.88,188.88,0,0,0-26.77-6.4C837.15-5.94,763.77,1,697.62,14.17c-3.74.73-7.44,1.5-11.13,2.28-92.73,19.6-171.69,50-255.94,47.3-3.69-.11-7.41-.29-11.12-.53-36.73-2.44-74.62-11.43-115.2-30.56-48-22.59-96.74-15-140.74,11.91-24.84,15.16-48.16,36.49-68.95,62l-.07.08q-4.41,5.4-8.65,11C18.15,207.58-19.42,342,11.4,446.2q1.66,5.63,3.6,11.12c8.91,25.4,22.15,48.75,40.31,68.89A86.46,86.46,0,0,0,94.42,551c2.58.8,5.21,1.45,7.87,2,.75-12.65-.12-25.3-3.81-37.37-2-6.58-4.82-12.91-6.55-19.56a123.23,123.23,0,0,1-2.88-18.11q-2.37-22-4.76-44c-1-9-2-18.14-1.73-27.25a102.23,102.23,0,0,1,4.86-28.35c-1.44-2.66-1.69-5.84-1.85-8.9-.5-9.64-.72-19.28-.79-28.93-1.56,1.39-3.13,2.75-4.71,4.11l-8,7a9.61,9.61,0,0,1-3.81,2.35c-3.51.86-6.62-2.26-8.89-5.08s-4.77-5.91-6-9.46a30.09,30.09,0,0,1-1.09-10.17c.08-4.39.3-8.77.53-13.15l1.89-36.65c.36-7,.72-13.95,1.36-20.9.45-5,1.09-10.08,3.66-14.35,4.83-8,15.19-10.8,24.6-10.12a3.57,3.57,0,0,1-.09-3,5.43,5.43,0,0,1,2.42-2l13.92-7.51a7.73,7.73,0,0,1,3.26-1.15,3.93,3.93,0,0,1,1.78.37l2.69-1.88a7,7,0,0,1,2-1.09,4.71,4.71,0,0,1,2.73.13,10.94,10.94,0,0,0,1.15-4.34,15.5,15.5,0,0,0-1.18-5.46,26.37,26.37,0,0,1-10.45-20.73c-3-1.68-6.86-2.62-8.08-6.16-.83-2.41.16-5.07-.18-7.58a6.14,6.14,0,0,1-1.48-2.34c-.86-2.49.26-5.28-.2-7.88-.26-1.43-1-2.83-.71-4.25a6.12,6.12,0,0,1,1.58-2.67l9.83-11.64c2.17-2.56,4.41-5.19,7.39-6.72,7.14-3.68,15.7,0,23.72,0,2.69,0,5.47-.42,8,.45a16.21,16.21,0,0,1,4.94,3.14l11,9c3.7,3,7.69,6.57,8.05,11.33a10.76,10.76,0,0,1-.62,4.25A11.08,11.08,0,0,1,168,172c.25,3.3-1.35,6.46-3.19,9.21a48.66,48.66,0,0,1-10,10.84,26.35,26.35,0,0,1-6.33,12.75,84.42,84.42,0,0,0,2.9,10.46h0a4.94,4.94,0,0,1,2.6.91,13.67,13.67,0,0,1,2.16,2,3.14,3.14,0,0,1,1.47-1.22c1.48-.59,3.14.08,4.59.74,4.41,2,8.9,4.09,12.49,7.34a16.08,16.08,0,0,1,3.26,4.13,20.62,20.62,0,0,1,14.36,3.32c7.56,5.19,10.67,14.65,13.3,23.43q2.94,9.87,5.89,19.71c2.58,8.62,5.18,17.34,5.78,26.32.55,8.18-.57,16.36-1.69,24.47-1.55,11.24,2.1,23.55,2.15,34.88,0,2.91,0,5.86-.07,8.8a20.72,20.72,0,0,1,13.66-2.89A16.08,16.08,0,0,1,234.6,363c3.59-3.25,8.08-5.32,12.49-7.34,1.45-.66,3.11-1.33,4.59-.74a3.16,3.16,0,0,1,1.46,1.22,14.6,14.6,0,0,1,2.16-2,5,5,0,0,1,2.61-.91h0a84.42,84.42,0,0,0,2.9-10.46A26.45,26.45,0,0,1,254.48,330a48.61,48.61,0,0,1-10-10.84c-1.84-2.75-3.44-5.91-3.19-9.21a11,11,0,0,1,2.27-5.66,10.81,10.81,0,0,1-.62-4.26c.36-4.76,4.35-8.32,8.05-11.33l11-9a16.41,16.41,0,0,1,4.94-3.14c2.54-.87,5.32-.45,8-.45,8,0,16.58-3.65,23.72,0,3,1.53,5.22,4.16,7.39,6.72l10,11.65a6.17,6.17,0,0,1,1.58,2.67c.28,1.42-.45,2.82-.71,4.25-.46,2.61.66,5.39-.2,7.88a6.14,6.14,0,0,1-1.48,2.34c-.34,2.51.65,5.17-.18,7.58-1.22,3.54-5.06,4.48-8.08,6.16a26.37,26.37,0,0,1-10.45,20.73,15.07,15.07,0,0,0-1.18,5.46,10.94,10.94,0,0,0,1.15,4.34,4.7,4.7,0,0,1,2.73-.13,7,7,0,0,1,2,1.09l2.69,1.88a3.87,3.87,0,0,1,1.78-.37,7.78,7.78,0,0,1,3.26,1.15L322.8,367a8.82,8.82,0,0,1,1.7,1.13c.11-2.69.23-5.39.37-8.08l1.9-36.65c.36-7,.72-13.94,1.35-20.9.45-5,1.09-10.08,3.66-14.35,4.83-8,15.19-10.79,24.6-10.11a3.58,3.58,0,0,1-.09-3,5.34,5.34,0,0,1,2.43-2l13.87-7.51a7.73,7.73,0,0,1,3.26-1.15,3.9,3.9,0,0,1,1.78.37l2.69-1.88a7,7,0,0,1,2-1.09,4.79,4.79,0,0,1,2.73.13,10.94,10.94,0,0,0,1.15-4.34,15.5,15.5,0,0,0-1.18-5.46,26.36,26.36,0,0,1-10.45-20.73c-3-1.68-6.86-2.62-8.08-6.16-.83-2.41.16-5.07-.18-7.58a6.14,6.14,0,0,1-1.48-2.34c-.86-2.49.26-5.27-.2-7.87a24,24,0,0,1-.76-3.44,28.86,28.86,0,0,0-2.5,6.49c-1.41,5.67-1.16,11.61-2,17.38-.3,2-.88,4.14-2.57,5.2-1.31.81-3,.75-4.41,1.34-2.36,1-3.67,3.6-4,6.14s.07,5.1.07,7.66c0,6.69-3.21,13.61-9,16.87-7.69,4.29-17.25,1.45-25.56-1.47a22.42,22.42,0,0,0,9.54-6.62l-9.15-1.82a58.74,58.74,0,0,0,14.61-9.63,12.4,12.4,0,0,0,3.72-4.88c1-2.8.07-6,1-8.82,1.55-4.8,7.44-6.63,10.44-10.68,2.63-3.54,2.72-8.29,2.71-12.7l-.05-16.9c0-4.85.31-10.44,4.18-13.38,4.31-3.3,10.42-1.42,15.84-1.46,5.72,0,11.17-2.37,16.85-3,5.37-.62,14.32,3.14,14.17,7.39a60.91,60.91,0,0,0,9,1c2.7,0,5.5-.42,8,.45a16.73,16.73,0,0,1,5,3.15l11.05,9c3.72,3,7.73,6.6,8,11.38a10.89,10.89,0,0,1-.62,4.27A11,11,0,0,1,440.5,216c.25,3.31-1.36,6.49-3.21,9.25a48.79,48.79,0,0,1-10,10.89,26.56,26.56,0,0,1-6.36,12.8,83.49,83.49,0,0,0,2.91,10.51h0a5,5,0,0,1,2.61.91,14.25,14.25,0,0,1,2.17,2,3.16,3.16,0,0,1,1.47-1.23c1.49-.59,3.15.09,4.61.75a54.54,54.54,0,0,1,11.05,6.14v-1c.08-4.38.3-8.76.53-13.13l1.89-36.59c.36-7,.72-13.91,1.35-20.85.45-5,1.08-10.07,3.65-14.33,4.82-8,15.17-10.78,24.56-10.1a3.55,3.55,0,0,1-.09-3,5.38,5.38,0,0,1,2.42-2L494,159.53a7.74,7.74,0,0,1,3.25-1.15,3.87,3.87,0,0,1,1.78.37l2.69-1.87a6.66,6.66,0,0,1,2-1.09,4.71,4.71,0,0,1,2.73.13,10.94,10.94,0,0,0,1.15-4.34,15.49,15.49,0,0,0-1.18-5.45A26.31,26.31,0,0,1,496,125.44c-3-1.67-6.85-2.61-8.07-6.15-.83-2.4.16-5.06-.18-7.57a6,6,0,0,1-1.48-2.33c-.86-2.49.26-5.26-.2-7.86-.26-1.43-1-2.83-.71-4.24a6.21,6.21,0,0,1,1.58-2.67L496.7,83c2.17-2.56,4.41-5.18,7.38-6.71,7.13-3.67,15.67,0,23.68,0,2.68,0,5.46-.42,8,.45a16.5,16.5,0,0,1,4.94,3.13l11,9c3.7,3,7.68,6.56,8,11.31a10.79,10.79,0,0,1-.62,4.25,11,11,0,0,1,2.27,5.65c.25,3.29-1.35,6.45-3.19,9.19a48.47,48.47,0,0,1-10,10.83,26.41,26.41,0,0,1-6.32,12.72,81.92,81.92,0,0,0,2.89,10.44h0a5.09,5.09,0,0,1,2.6.91,14,14,0,0,1,2.15,2,3.11,3.11,0,0,1,1.46-1.22c1.48-.59,3.14.08,4.59.74,4.4,2,8.88,4.08,12.47,7.33a16,16,0,0,1,3.25,4.12,20.53,20.53,0,0,1,14.33,3.32c7.55,5.17,10.65,14.61,13.28,23.38l5.88,19.67c2.58,8.61,5.17,17.31,5.77,26.28.51,7.63-.44,15.26-1.48,22.84.25-.26.5-.51.78-.76,3.59-3.25,8.07-5.32,12.47-7.33,1.45-.66,3.11-1.33,4.59-.74A3,3,0,0,1,628.3,255a14.12,14.12,0,0,1,2.16-2,5,5,0,0,1,2.6-.91h0A81.92,81.92,0,0,0,636,241.66a26.41,26.41,0,0,1-6.32-12.72,48.47,48.47,0,0,1-10-10.83c-1.84-2.74-3.44-5.9-3.19-9.19a11,11,0,0,1,2.27-5.65,10.79,10.79,0,0,1-.62-4.25c.36-4.75,4.34-8.31,8-11.31l11-9a16.58,16.58,0,0,1,4.93-3.13c2.54-.87,5.32-.45,8-.45a61.59,61.59,0,0,0,9-.94c-.15-4.22,8.75-8,14.08-7.35,5.64.65,11.06,3,16.74,3,5.39,0,11.46-1.83,15.75,1.44,3.84,2.93,4.16,8.48,4.15,13.3l-.05,16.83c0,4.41.08,9.17,2.71,12.71,2.86,3.86,8.34,5.7,10.19,10,2.26-5.81,5.32-11.2,10.39-14.68a20.6,20.6,0,0,1,14.36-3.32,15.91,15.91,0,0,1,3.26-4.13c3.59-3.25,8.08-5.32,12.5-7.34,1.45-.67,3.11-1.34,4.59-.75a3.18,3.18,0,0,1,1.46,1.23,13.7,13.7,0,0,1,2.16-2,5.09,5.09,0,0,1,2.6-.91h0a81.22,81.22,0,0,0,2.9-10.47A26.53,26.53,0,0,1,770.47,169a48.92,48.92,0,0,1-10-10.85c-1.84-2.75-3.44-5.91-3.19-9.21a11.08,11.08,0,0,1,2.27-5.67,10.79,10.79,0,0,1-.62-4.25c.36-4.76,4.36-8.33,8-11.34l11-9a16.61,16.61,0,0,1,5-3.15c2.54-.87,5.32-.45,8-.45a60.64,60.64,0,0,0,9-.94c-.15-4.23,8.76-8,14.11-7.36,5.65.65,11.09,3,16.78,3,5.4,0,11.49-1.83,15.78,1.45,3.85,2.93,4.17,8.5,4.16,13.33l-.05,16.77c0,4.41.08,9.16,2.71,12.7,3,4.05,8.89,5.88,10.45,10.68.9,2.83,0,6,1,8.82a12.35,12.35,0,0,0,4,5A57.2,57.2,0,0,0,876,184a11.9,11.9,0,0,1,1.89-3.68,10.61,10.61,0,0,1-.62-4.25c.36-4.76,4.35-8.33,8-11.34l11-9a16.58,16.58,0,0,1,4.95-3.14c2.54-.87,5.32-.45,8-.45,8,0,16.57-3.65,23.72,0,3,1.53,5.22,4.16,7.39,6.72l9.83,11.65a6.21,6.21,0,0,1,1.58,2.67c.28,1.42-.45,2.82-.71,4.25-.46,2.6.66,5.38-.2,7.87a6.26,6.26,0,0,1-1.48,2.34c-.34,2.51.65,5.17-.18,7.58-1.22,3.54-5.06,4.48-8.08,6.16a26.34,26.34,0,0,1-10.46,20.73,15.54,15.54,0,0,0-1.18,5.46,11.28,11.28,0,0,0,1.15,4.34,4.82,4.82,0,0,1,2.74-.13,7,7,0,0,1,2,1.09l2.69,1.88a3.87,3.87,0,0,1,1.78-.37,7.92,7.92,0,0,1,3.26,1.15L956.91,243a5.31,5.31,0,0,1,2.42,2,3.5,3.5,0,0,1-.09,3c9.42-.68,19.78,2.11,24.61,10.11,2.57,4.27,3.21,9.39,3.66,14.36.63,6.95,1,13.92,1.35,20.89L990.75,330c.23,4.38.45,8.77.53,13.16a29.57,29.57,0,0,1-1.09,10.16c-1.21,3.55-3.61,6.54-6,9.46s-5.38,5.94-8.89,5.08a9.43,9.43,0,0,1-3.81-2.35l-8.06-6.91c-1.58-1.36-3.15-2.72-4.71-4.11-.07,9.65-.29,19.3-.79,28.94-.16,3.05-.41,6.23-1.85,8.89a101.93,101.93,0,0,1,4.86,28.35,177.61,177.61,0,0,1-1.32,23.51c.84-1.79,1.68-3.58,2.53-5.41C1005.64,345.88,1055.76,212,1038.7,117.66Z"/><path class="cls-1" d="M86.69,294.39l-2.55,9.9c.5-.63,1-1.25,1.51-1.87a17.4,17.4,0,0,1,1.42-7.22c1.07-2.16,2.85-3.86,4.33-5.75-.22.17-.44.34-.67.5a10.79,10.79,0,0,0-3,1.89A6.08,6.08,0,0,0,86.69,294.39Z"/><path class="cls-1" d="M700,339.42l1.51,1.87-2.55-9.9a6.36,6.36,0,0,0-1.08-2.55,11.09,11.09,0,0,0-3-1.89c-.23-.16-.46-.33-.67-.5,1.48,1.89,3.26,3.59,4.33,5.75A17.53,17.53,0,0,1,700,339.42Z"/><path class="cls-1" d="M857,399.86c.3-.27.61-.52.93-.77-.89-1.22-1.75-2.47-2.54-3.77,0-.05-.05-.1-.08-.14.39,1.24.81,2.47,1.28,3.69C856.69,399.2,856.8,399.52,857,399.86Z"/><path class="cls-1" d="M596.28,418.18c.39,1.24.81,2.47,1.28,3.69.13.33.27.66.41,1,.3-.27.61-.52.93-.77-.89-1.22-1.75-2.47-2.54-3.77A1,1,0,0,0,596.28,418.18Z"/><path class="cls-1" d="M682.5,224.4a26.38,26.38,0,0,1-10.45,20.72,15.5,15.5,0,0,0-1.18,5.46,11,11,0,0,0,1.15,4.34,4.62,4.62,0,0,1,2.73-.13,6.5,6.5,0,0,1,2,1.09l2.69,1.88a3.75,3.75,0,0,1,1.78-.37,7.64,7.64,0,0,1,3.26,1.15L698.36,266a5.31,5.31,0,0,1,2.42,2,3.58,3.58,0,0,1-.09,3,36,36,0,0,1,8.91.43,146.35,146.35,0,0,1,4.15-16.53,20.61,20.61,0,0,1-5.1-13.72c0-2.56.41-5.13.07-7.66s-1.65-5.16-4-6.13c-1.43-.59-3.1-.53-4.41-1.34-1.69-1.06-2.26-3.22-2.56-5.2-.87-5.77-.62-11.71-2-17.38a28.86,28.86,0,0,0-2.5-6.49,27.08,27.08,0,0,1-.76,3.44c-.46,2.6.66,5.38-.2,7.87a6.26,6.26,0,0,1-1.48,2.34c-.34,2.51.65,5.17-.18,7.58C689.36,221.78,685.52,222.72,682.5,224.4Z"/><path class="cls-1" d="M737.09,306.75c-2.36,16.14-4.64,33-.61,48.64a5.79,5.79,0,0,1,1.53-2.5c2.66-3.27,3.71-7.54,4.5-11.68,4.86-25.57,2.52-51.76,1.42-77.88l-2.13,2.46a11.42,11.42,0,0,0-2,2.73,10.06,10.06,0,0,0-.81,3.75,46.32,46.32,0,0,0,.31,9.19,49.74,49.74,0,0,1-1.16,20.06A35.61,35.61,0,0,0,737.09,306.75Z"/><path class="cls-1" d="M721.87,389.52a6.17,6.17,0,0,1-5.11,1.31,9.54,9.54,0,0,1-3.81-2.35l-8-6.91c-1.58-1.36-3.15-2.72-4.71-4.11-.07,9.65-.29,19.29-.79,28.93-.16,3.05-.41,6.23-1.85,8.89a102.23,102.23,0,0,1,4.86,28.34c.24,9.11-.74,18.2-1.73,27.25q-2.37,22-4.76,44A124.56,124.56,0,0,1,693.1,533c-1.38,5.31-5.25,15.09-5.25,15.09l10.21,1,13-1h23.6V548c1.7-9.63,6.28-19,5.37-28.68-.6-6.51-3.62-12.5-5.7-18.69-9.08-27.06,0-57.22-6.57-85-1.51-6.38-3.79-13.27-1-19.22l-4.17-1.28c.57-1.31,1.15-2.63,1.73-3.94A10.38,10.38,0,0,1,721.87,389.52Z"/><path class="cls-1" d="M641.63,528.79q.06,10.14.13,20.28h.44Z"/><path class="cls-1" d="M900.63,505.8q.09,15.3.2,30.6l.66-.38Q901,520.92,900.63,505.8Z"/><path class="cls-1" d="M876.39,189.65l-1.69.34a21.76,21.76,0,0,0,3.14,3A16.47,16.47,0,0,1,876.39,189.65Z"/><path class="cls-1" d="M782.72,468.8v44.06a40.44,40.44,0,0,1-.46,10.65c-.6,2.93-1.7,5.74-2.33,8.67a37.77,37.77,0,0,0-.21,12.82v3.07h5.14C784.12,521.29,783.37,495,782.72,468.8Z"/><path class="cls-1" d="M959,316.42l1.51,1.87-2.55-9.9a6.36,6.36,0,0,0-1.08-2.55,11.09,11.09,0,0,0-3-1.89c-.23-.16-.46-.33-.67-.5,1.48,1.89,3.26,3.59,4.33,5.75A17.53,17.53,0,0,1,959,316.42Z"/><path class="cls-1" d="M823.5,164.4a26.38,26.38,0,0,1-10.45,20.72,15.5,15.5,0,0,0-1.18,5.46,11,11,0,0,0,1.15,4.34,4.62,4.62,0,0,1,2.73-.13,6.5,6.5,0,0,1,2,1.09l2.69,1.88a3.75,3.75,0,0,1,1.78-.37,7.64,7.64,0,0,1,3.26,1.15L839.36,206a5.31,5.31,0,0,1,2.42,2,3.58,3.58,0,0,1-.09,3c9.41-.68,19.77,2.11,24.6,10.11,2.57,4.27,3.21,9.39,3.66,14.35.08.92.15,1.83.22,2.74,3.43-2.8,7.53-4.71,11.57-6.56,1.45-.66,3.11-1.33,4.59-.74a3.11,3.11,0,0,1,1.46,1.22,13.67,13.67,0,0,1,2.16-2,4.94,4.94,0,0,1,2.6-.91.75.75,0,0,1,.07-.18,85.68,85.68,0,0,0,2.84-10.29A26.36,26.36,0,0,1,889.13,206a48.86,48.86,0,0,1-8.14-8.31c-7.47,2.42-15.59,4.1-22.29.36-5.84-3.26-9-10.18-9-16.87,0-2.56.41-5.13.07-7.66s-1.65-5.16-4-6.13c-1.43-.59-3.1-.53-4.41-1.34-1.69-1.06-2.26-3.22-2.56-5.2-.87-5.77-.62-11.71-2-17.38a28.86,28.86,0,0,0-2.5-6.49,27.08,27.08,0,0,1-.76,3.44c-.46,2.6.66,5.38-.2,7.87a6.26,6.26,0,0,1-1.48,2.34c-.34,2.51.65,5.17-.18,7.58C830.36,161.78,826.52,162.72,823.5,164.4Z"/><path class="cls-3" d="M254.6,347.07H805.85a18.85,18.85,0,0,1,18.87,18.83h0v66.17h-589V365.92a18.85,18.85,0,0,1,18.86-18.85Z"/><path class="cls-4" d="M254.6,347.07H805.85a18.85,18.85,0,0,1,18.87,18.83h0v66.17h-589V365.92a18.85,18.85,0,0,1,18.86-18.85Z"/><polygon class="cls-3" points="704.72 424.07 704.72 548.07 681.15 548.07 679.47 547.07 658.34 548.07 657.69 548.07 642.88 549.07 615.94 548.07 527.46 549.07 515.05 549.07 490.68 550.07 489.56 549.07 468.76 550.07 411.2 550.07 397.67 551.07 355.72 551.53 355.72 424.07 704.72 424.07"/><polygon class="cls-5" points="704.72 424.07 704.72 548.07 681.15 548.07 679.47 547.07 658.34 548.07 657.69 548.07 642.88 549.07 615.94 548.07 527.46 549.07 515.05 549.07 490.68 550.07 489.56 549.07 468.76 550.07 411.2 550.07 397.67 551.07 355.72 551.53 355.72 424.07 704.72 424.07"/><path class="cls-5" d="M235.72,423.07h589v14.51a19.51,19.51,0,0,1-19.52,19.49H256.45a20.71,20.71,0,0,1-20.73-20.68h0V423.07Z"/><ellipse class="cls-6" cx="413.97" cy="431.17" rx="42" ry="9.13"/><path class="cls-7" d="M410.53,432.07l-.83-43.44c-.18-9.71.17-20.72,7.4-27.23,4.57-4.1,11.43-5.87,14.3-11.3,1.56-3,1.59-6.46,1.58-9.8q0-29.58-.11-59.13"/><rect class="cls-6" x="421.72" y="262.07" width="19" height="38" rx="8"/><path class="cls-8" d="M586.51,363.18c-6.4-7.47-13.23-14.55-20.06-21.63L552.6,327.18,540,314.13l-60.53-62.78c-7.36-7.64-15.08-15.52-25-19.26s-22.76-2.07-28.77,6.68a12.58,12.58,0,0,0-2.31,9.61c.7,3.25,3,5.9,5.49,8.15,11.8,10.78,27.72,15.55,41.81,23.1a49.45,49.45,0,0,1,12.82,9.18,64,64,0,0,1,8,11.37l35.39,59.05a81.93,81.93,0,0,0,7.48,11c2.26,2.66,4.85,5,7.24,7.57,5.65,6,10.09,13.11,15.52,19.35,7.55,8.7,16.88,15.64,26.13,22.51,1.91,1.42,4,2.89,6.35,3,3.11.16,5.8-2,8.13-4.07,3.79-3.35,11.49-8.16,13.57-12.82,1.83-4.13-1.4-8.3-3.35-11.94A175.07,175.07,0,0,0,586.51,363.18Z"/><path class="cls-3" d="M615.94,549.07l-88.48,1h-58.7a108,108,0,0,1,7-17.42,67,67,0,0,1,6.39-10c4.46.4,8.91.76,13.37,1.12q15.49,1.2,31,2.21c26.16,1.72,52.27,3.2,78.52,5.54,1.77.16,3.66.37,5,1.52a8.11,8.11,0,0,1,1.83,2.78C613.74,539.88,615.94,549.07,615.94,549.07Z"/><path class="cls-9" d="M554.48,306.46c22.8-7.26,33.72-11.35,54-24.12-4.43.74,2-4.62-2.43-5.23s-8.89-2.8-11.15-6.68c-1.47-2.52-1.9-5.49-2.29-8.38l-2.16-15.83c.26,1.88-41.29,2.12-41.59,13.83-.16,6.12,4.19,13.11,5.32,19.17A79.36,79.36,0,0,1,554.48,306.46Z"/><path class="cls-10" d="M554.48,306.46c22.8-7.26,33.72-11.35,54-24.12-4.43.74,2-4.62-2.43-5.23s-8.89-2.8-11.15-6.68c-1.47-2.52-1.9-5.49-2.29-8.38l-2.16-15.83c.26,1.88-41.29,2.12-41.59,13.83-.16,6.12,4.19,13.11,5.32,19.17A79.36,79.36,0,0,1,554.48,306.46Z"/><path class="cls-6" d="M647.87,449.44c0,2.64,0,5.27-.13,7.9-.5,11.3-2.3,22.56-3.41,33.83-1.88,19-1.8,38-1.45,56.9l-26.94,1-88.48,1H490.68a10.67,10.67,0,0,0-.75-1.74v-.07c-3.22-6.25-9.07-10.6-14.09-15.58a35.84,35.84,0,0,1-6.23-7.71c11-18.94,21.11-38.66,28.35-59.35,1-2.75,1.86-5.53,3-8.25a41.21,41.21,0,0,1,2.55-5.42c1.77-3.06,4-5.88,5.3-9.19a30.57,30.57,0,0,0,1.54-9.09q.06-.93.09-1.86c.12-2.67.28-7.91.28-7.91v-.61s-.25-6.33-.47-9.48c-.49-7.09-1.43-14.21-.56-21.26,1.64-13.28,9.48-24.77,15.08-37,.54-1.16,1.06-2.31,1.54-3.48.75-1.8,1.44-3.64,2.1-5.49,3.77-10.66,6.56-21.92,13.46-30.59.58-.74,1.22-1.47,1.87-2.18,2.9-3.1,6.44-5.81,8.15-9.69s2.21-8.81-1.91-9.8c1.92-1.38,3.76-2.66,5.5-3.86,13.47-9.26,22.1-13.57,40-17.51.39-.09.78-.16,1.17-.23a8,8,0,0,1,3.45,0,10,10,0,0,1,3.26,1.74c10.83,7.6,21,13.46,25.5,25.9,1.57,4.33,6.55,11.29,7.3,15.83,1.78,10.73,6.41,20.41,9.55,30.43A58,58,0,0,1,648.8,365c-.24,17.55-3.65,35-3.15,52.53.06,1.9.16,3.8.07,5.69v.61c.4,2.64.65,5.28.89,7.91C647.18,437.66,647.8,443.52,647.87,449.44Z"/><path class="cls-8" d="M565.72,405.63V406c0,3.69-.2,7.39-.53,11.09,0,.64-.11,1.29-.17,1.95-.14,1.4-.28,2.81-.45,4.21a1.85,1.85,0,0,1-.07.61c-.32,2.65-.71,5.29-1.21,7.91s-1.12,5.38-1.87,8c-1.71,5.93-4.08,11.66-6,17.53-.64,2-1.24,4-1.74,6-.84,3.4-1.4,6.85-2.39,10.2a81.79,81.79,0,0,1-5.18,12.29l-19.52,40.11L516,547.7a11.6,11.6,0,0,0-.89,2.37H489.59c.13-.8.25-1.32.37-1.85q2.82-12.27,5.65-24.53t5.54-24.17q2-8.85,4.07-17.67,2.22-9.72,4.47-19.46c.39-1.69.78-3.37,1.16-5.06,1.84-7.89,3.74-15.77,6-23.54.19-.67.4-1.35.59-2,.82-2.66,1.67-5.3,2.59-7.91.06-.21.13-.42.2-.61a161.87,161.87,0,0,1,7.82-18.82c.06-.15.13-.27.2-.42h0c.83-1.68,1.71-3.34,2.61-5,2-3.61,3.7-8.6,8.17-9.32,4-.64,9.89,1.6,14.62,3.24h0c1.29.45,2.47.84,3.52,1.13,3,.83,6.28,1.9,7.84,4.59C566.24,400.71,566.12,403.26,565.72,405.63Z"/><path class="cls-11" d="M543,322.61c-5,5.09-7.89,11.92-10.07,18.74A135.16,135.16,0,0,0,528,402.52c.34,2.21.87,4.65,2.72,5.92,2.08,1.43,5.09.67,7-1.05s2.83-4.17,3.76-6.52c1.63,3.87,3.35,7.86,6.4,10.75,6.33,6,16.48,5.68,23.79,10.45a595.75,595.75,0,0,0,26.62-63.67,35.72,35.72,0,0,0,2.45-10.33,24.34,24.34,0,0,0-1.79-9.32c-4-10.41-13.32-18.41-24-21.5C564.7,314.28,550.87,314.65,543,322.61Z"/><path class="cls-6" d="M541.8,320.17c-5,5.09-7.89,11.93-10.08,18.74a135.14,135.14,0,0,0-4.91,61.2c.33,2.21.87,4.65,2.71,5.91,2.08,1.44,5.09.67,7-1s2.84-4.16,3.76-6.52c1.64,3.87,3.35,7.86,6.4,10.76,6.33,6,16.48,5.68,23.8,10.44A595.69,595.69,0,0,0,597,356a35,35,0,0,0,2.45-10.32,24.06,24.06,0,0,0-1.79-9.33c-4-10.41-13.32-18.4-24-21.5C563.48,311.85,549.65,312.21,541.8,320.17Z"/><circle class="cls-8" cx="561.87" cy="229.71" r="42.6"/><path class="cls-12" d="M519.33,210.52a17.86,17.86,0,0,1,10.47-5.84c-.36,4.33,3.31,8,7.26,9.84s8.39,2.41,12.28,4.33c6.94,3.42,12.21,11,19.94,11.23,2.68.09,6-.5,7.52,1.68a6.45,6.45,0,0,1,.88,3.21l.74,8.08c2.14,1.25,4.75-.21,7.16-.77a9.71,9.71,0,0,1,11.65,7.27,9.81,9.81,0,0,1-.65,6.27,19.71,19.71,0,0,0,22.06-23.51,17.33,17.33,0,0,1-.77-5c.31-3.86,4-6.41,6.12-9.65,2.93-4.5,2.71-10.48.75-15.48s-5.42-9.23-8.83-13.37L603.8,174.09c-5.59-6.78-12.24-14.12-21-14.57-6.21-.31-12,3-18.24,3.58-9,.85-18.45-4-26.81-.61-6,2.43-9.56,8.4-12.74,14-2.66,4.67-5.35,9.43-6.46,14.68-1.81,8.54.75,17.45-.23,26.12Z"/><path class="cls-13" d="M43.28,507.25a13.57,13.57,0,0,1-.84,1.42l-.9-1.26Z"/></svg>