<svg id="Layer_1" data-name="Layer 1" xmlns="http://www.w3.org/2000/svg" viewBox="0 0 1042.99 792.74"><defs><style>.cls-1{fill:#f2f2f2;}.cls-2{fill:#ccc;}.cls-3{fill:#a0616a;}.cls-4{fill:#6c63ff;}.cls-5{fill:#2f2e41;}.cls-6{fill:#ffc500;}.cls-6,.cls-7{stroke:#000;}.cls-11,.cls-6,.cls-7{stroke-miterlimit:10;}.cls-7{fill:#ff7d70;stroke-width:0.75px;}.cls-8{fill:#fff;}.cls-9{fill:#3f3d56;}.cls-10{fill:#e6e6e6;}.cls-11{fill:#38baec;stroke:#3f3d56;}.cls-12{fill:#ffb8b8;}</style></defs><circle class="cls-1" cx="293.04" cy="87.48" r="11.1"/><circle class="cls-1" cx="248.81" cy="87.48" r="11.1"/><circle class="cls-1" cx="204.59" cy="87.48" r="11.1"/><circle class="cls-1" cx="160.36" cy="87.48" r="11.1"/><circle class="cls-1" cx="293.04" cy="133.8" r="11.1"/><circle class="cls-1" cx="248.81" cy="133.8" r="11.1"/><circle class="cls-1" cx="204.59" cy="133.8" r="11.1"/><circle class="cls-1" cx="160.36" cy="133.8" r="11.1"/><circle class="cls-1" cx="293.04" cy="180.13" r="11.1"/><circle class="cls-1" cx="248.81" cy="180.13" r="11.1"/><circle class="cls-1" cx="204.59" cy="180.13" r="11.1"/><circle class="cls-1" cx="160.36" cy="180.13" r="11.1"/><circle class="cls-1" cx="293.04" cy="226.46" r="11.1"/><circle class="cls-1" cx="248.81" cy="226.46" r="11.1"/><circle class="cls-1" cx="204.59" cy="226.46" r="11.1"/><circle class="cls-1" cx="160.36" cy="226.46" r="11.1"/><circle class="cls-1" cx="293.04" cy="272.79" r="11.1"/><circle class="cls-1" cx="248.81" cy="272.79" r="11.1"/><circle class="cls-1" cx="204.59" cy="272.79" r="11.1"/><circle class="cls-1" cx="160.36" cy="272.79" r="11.1"/><circle class="cls-1" cx="293.04" cy="319.12" r="11.1"/><circle class="cls-1" cx="248.81" cy="319.12" r="11.1"/><circle class="cls-1" cx="204.59" cy="319.12" r="11.1"/><circle class="cls-1" cx="160.36" cy="319.12" r="11.1"/><path class="cls-2" d="M195.61,622v3.43a21.47,21.47,0,0,0,21.45,21.45H371.49a21.47,21.47,0,0,0,21.45-21.45V622a21.29,21.29,0,0,0-5-13.73,21.77,21.77,0,0,0-3.62-3.43s-84.9-1.92-84.9-4.29H217.06A21.48,21.48,0,0,0,195.61,622Z"/><rect class="cls-2" x="284.84" y="645.17" width="22.31" height="144.13"/><path class="cls-2" d="M370.08,789.21c0,2.41-33.8.94-75.5.94s-75.5,1.47-75.5-.94,33.8-21.52,75.5-21.52S370.08,786.8,370.08,789.21Z"/><path class="cls-3" d="M339.41,618.92a18.42,18.42,0,0,0-3.77-25.79,18.66,18.66,0,0,0-2.76-1.71L285.6,430.33,249.6,448l57.79,152.81a18.53,18.53,0,0,0,32,18.15Z"/><path class="cls-4" d="M296.31,457.23,256,468.14a8.26,8.26,0,0,1-10.14-5.82,8.06,8.06,0,0,1-.23-1.19l-4.87-41.33a23,23,0,0,1,44.35-11.87l16.6,38a8.24,8.24,0,0,1-5.42,11.28Z"/><polygon class="cls-3" points="350.04 772.15 371.21 772.14 381.29 717.24 350.04 717.24 350.04 772.15"/><path class="cls-5" d="M344.89,765.28h42.24a26.4,26.4,0,0,1,26.4,26.4v1.06H344.89Z"/><path class="cls-5" d="M374.36,743.06c-.25,0-.49,0-.74,0l-29.11-2.12A7.72,7.72,0,0,1,338,730.56l39-87.53a6,6,0,0,0-.33-4.8,5.89,5.89,0,0,0-3.8-3c-18.32-4.79-65.33-17.55-106-32.47-17.43-6.39-28.41-15.63-32.63-27.45-5.57-15.6,2.67-29.81,3-30.41l.28-.47,38.29,3.48,41.5,3.53,91,48.78a34.46,34.46,0,0,1,15.13,44.24l-41.94,94A7.71,7.71,0,0,1,374.36,743.06Z"/><circle class="cls-3" cx="282.39" cy="332.57" r="42.14"/><polygon class="cls-3" points="338.03 770.43 359.2 770.43 369.28 715.52 338.03 715.52 338.03 770.43"/><path class="cls-5" d="M332.88,763.57h42.24a26.4,26.4,0,0,1,26.4,26.4v1H332.88Z"/><path class="cls-5" d="M362.35,748.21c-.25,0-.49,0-.74,0l-29.11-2.12A7.72,7.72,0,0,1,326,735.71l39-87.53a6,6,0,0,0-.34-4.81,5.9,5.9,0,0,0-3.79-3c-18.32-4.79-65.33-17.54-106-32.46-17.43-6.39-28.41-15.63-32.63-27.46-5.57-15.59,2.67-29.81,3-30.4l.28-.47L263.72,553l41.51,3.53,91,48.78a34.47,34.47,0,0,1,15.13,44.24l-41.94,94A7.7,7.7,0,0,1,362.35,748.21Z"/><path class="cls-6" d="M295.39,398.61l-44.61-15.45s-28,21.52-14.55,74.9A132.18,132.18,0,0,1,230.39,541a85.62,85.62,0,0,1-4.49,9.49S275.66,610.52,322,565.9l-18-86.65S332.28,421.77,295.39,398.61Z"/><path class="cls-5" d="M287.63,376.14c-6-9-10.74-21.42-4.13-30s19.37-7.19,29.36-10.92c13.9-5.19,22-21.53,19.45-36.16s-14.26-26.76-28.25-31.72-29.77-3.35-43.47,2.36c-16.86,7-31.33,20.65-37.4,37.88s-2.82,37.94,9.77,51.19c13.49,14.2,34.67,18,54.26,17.76"/><path class="cls-5" d="M248.42,299.56c-7.55,6.15-19.09,3.42-27.2-2s-14.7-13.09-23.47-17.32c-15.48-7.47-34.19-2.51-49.25,5.76s-28.42,19.69-44.33,26.18S68,319,55.91,306.76a44.15,44.15,0,0,0,64.71,52.11c17.43-10.62,27.06-32.88,46.61-38.74,10.82-3.25,22.44-.63,33.38,2.19s22.33,5.89,33.37,3.48,21.36-12.32,20-23.53Z"/><path class="cls-7" d="M385.74,697.34a286.33,286.33,0,0,1,0-87.18A7.36,7.36,0,0,1,393,604h68.19a7.26,7.26,0,0,1,5.74,2.78,7.34,7.34,0,0,1,1.38,6.34,175.11,175.11,0,0,0,0,81.28,7.34,7.34,0,0,1-1.38,6.34,7.26,7.26,0,0,1-5.74,2.78H393A7.36,7.36,0,0,1,385.74,697.34Z"/><path class="cls-8" d="M441,645.17H405a5.09,5.09,0,0,1-5.16-5v-2a5.09,5.09,0,0,1,5.16-5h36a5.09,5.09,0,0,1,5.16,5v2A5.09,5.09,0,0,1,441,645.17Z"/><path class="cls-8" d="M441,665.76H405a5.09,5.09,0,0,1-5.16-5v-2a5.09,5.09,0,0,1,5.16-5h36a5.09,5.09,0,0,1,5.16,5v2A5.09,5.09,0,0,1,441,665.76Z"/><path class="cls-3" d="M403.61,611.2a18.43,18.43,0,0,0-10.09-24,18.94,18.94,0,0,0-3.11-1L304.38,442,273.93,468.1l94.14,133.52a18.53,18.53,0,0,0,35.54,9.58Z"/><path class="cls-6" d="M321.48,465.41,285.19,486a8.27,8.27,0,0,1-11.27-3.11,8.44,8.44,0,0,1-.53-1.09l-15-38.81a23,23,0,0,1,40-22.56l25.57,32.66a8.26,8.26,0,0,1-1.42,11.6,7.65,7.65,0,0,1-1,.68Z"/><path class="cls-9" d="M707.8,516.48H11.58A11.43,11.43,0,0,0,.09,526.24a11.15,11.15,0,0,0,11.06,12.55H30.89V781.16a11.43,11.43,0,0,0,9.75,11.49,11.15,11.15,0,0,0,12.55-11.07V560.22l125,226.63a11.15,11.15,0,0,0,19.32-11.15L66.84,538.79H664.05v.14L533.42,775.7a11.15,11.15,0,0,0,19.32,11.15L664.05,585.1V781.16a11.43,11.43,0,0,0,9.75,11.49,11.15,11.15,0,0,0,12.55-11.07V544.67l3.25-5.88h17.78A11.44,11.44,0,0,0,718.87,529,11.16,11.16,0,0,0,707.8,516.48Z"/><path class="cls-2" d="M283.8,509.62H419.35a6,6,0,0,1,6,6h0a6,6,0,0,1-6,6H283.8a6,6,0,0,1-6-6h0A6,6,0,0,1,283.8,509.62Z"/><path class="cls-2" d="M510.47,521.63H357.76a11.17,11.17,0,0,1-11.15-11.16V426.4a11.17,11.17,0,0,1,11.15-11.16H510.47a11.18,11.18,0,0,1,11.16,11.16v84.07A11.18,11.18,0,0,1,510.47,521.63Z"/><path class="cls-10" d="M546.3,314.8V12.94A13,13,0,0,1,559.22,0h238.4a13,13,0,0,1,12.92,12.94V314.8a12.94,12.94,0,0,1-12.92,12.93H559.22A12.94,12.94,0,0,1,546.3,314.8ZM559.74,3.43a10,10,0,0,0-10,10V314.27a10,10,0,0,0,10,10H797.1a10,10,0,0,0,10-10V13.46a10,10,0,0,0-10-10Z"/><path class="cls-11" d="M692.15,139.33V76.87a6.49,6.49,0,0,1,6.44-6.52h52.32a6.49,6.49,0,0,1,6.44,6.52v62.46a6.49,6.49,0,0,1-6.44,6.52H698.59A6.48,6.48,0,0,1,692.15,139.33Z"/><path class="cls-6" d="M589.91,164.79V102.32a6.48,6.48,0,0,1,6.44-6.51h52.32a6.48,6.48,0,0,1,6.44,6.51v62.47a6.48,6.48,0,0,1-6.44,6.51H596.35A6.48,6.48,0,0,1,589.91,164.79Z"/><path class="cls-7" d="M671.56,254.3V191.83a6.48,6.48,0,0,1,6.44-6.51h52.32a6.48,6.48,0,0,1,6.44,6.51V254.3a6.48,6.48,0,0,1-6.44,6.51H678A6.48,6.48,0,0,1,671.56,254.3Z"/><circle class="cls-1" cx="978.99" cy="20.28" r="11.1"/><circle class="cls-1" cx="978.99" cy="64.51" r="11.1"/><circle class="cls-1" cx="978.99" cy="108.73" r="11.1"/><circle class="cls-1" cx="978.99" cy="152.95" r="11.1"/><circle class="cls-1" cx="932.66" cy="20.28" r="11.1"/><circle class="cls-1" cx="932.66" cy="64.51" r="11.1"/><circle class="cls-1" cx="932.66" cy="108.73" r="11.1"/><circle class="cls-1" cx="932.66" cy="152.95" r="11.1"/><circle class="cls-1" cx="886.33" cy="20.28" r="11.1"/><circle class="cls-1" cx="886.33" cy="64.51" r="11.1"/><circle class="cls-1" cx="886.33" cy="108.73" r="11.1"/><circle class="cls-1" cx="886.33" cy="152.95" r="11.1"/><circle class="cls-1" cx="840" cy="20.28" r="11.1"/><circle class="cls-1" cx="840" cy="64.51" r="11.1"/><circle class="cls-1" cx="840" cy="108.73" r="11.1"/><circle class="cls-1" cx="840" cy="152.95" r="11.1"/><path class="cls-12" d="M884.7,414A18.89,18.89,0,0,1,896,389.76a21,21,0,0,1,2-.62,17.45,17.45,0,0,1,2.49-.4l41.7-73.1-10.53-18.09,26.21-20.22L978,305.18a19.13,19.13,0,0,1-.45,22.84l-57.25,73.29a15.81,15.81,0,0,1,.53,1.78,18.87,18.87,0,0,1-13.95,22.76,16.65,16.65,0,0,1-2.11.38,17.69,17.69,0,0,1-2.31.15A19,19,0,0,1,884.7,414Z"/><polygon class="cls-12" points="803.68 773.86 782.77 773.86 772.82 693.22 803.68 693.22 803.68 773.86"/><path class="cls-5" d="M766.23,767h40.88v25.74H740.49A25.74,25.74,0,0,1,766.23,767Z"/><polygon class="cls-12" points="976.98 773.86 956.07 773.86 946.13 693.22 976.98 693.22 976.98 773.86"/><path class="cls-5" d="M939.54,767h40.88v25.74H913.8A25.73,25.73,0,0,1,939.54,767Z"/><path class="cls-4" d="M963.74,281.28l-47.23,18L905,267.2A19.16,19.16,0,0,1,913.56,244h0A19.16,19.16,0,0,1,938,248.81Z"/><path class="cls-5" d="M805.05,708l-39.61-9a8.56,8.56,0,0,1-6.54-9.64c15.89-100.74,31.18-159.74,70.59-234.65.55-1.4,6.7-29.75,10.72-48.54a8.54,8.54,0,0,1,7.23-8.62L921.3,386.1a9.72,9.72,0,0,1,3.47-.52l.74.14v.73c0,.75-.76.86-1,.91l-1,.15a11.29,11.29,0,0,1,3,2.07C958.89,428.5,975.71,556.09,997.09,697a7.71,7.71,0,0,1-2.24,6.26,8.46,8.46,0,0,1-6.07,2.74l-47.19,1.15A8.55,8.55,0,0,1,933,700L901.17,516.27a6.82,6.82,0,0,0-12.86-2c-25.65,52.22-49.56,97.38-73.11,187.49a8.49,8.49,0,0,1-8.23,6.39A8.32,8.32,0,0,1,805.05,708Z"/><path class="cls-6" d="M843.61,408.19A8.56,8.56,0,0,1,840,402.1c-6-56.47-1.84-100.66,12.87-135.1a42.92,42.92,0,0,1,28.43-24.33l38.18-1.93.2.1a44.63,44.63,0,0,1,24.4,47.34c-12.28,32.36-22.57,66.06-14.72,93.25a8.82,8.82,0,0,1-.83,6.83,8.39,8.39,0,0,1-5.35,4L850.5,409.52A8.52,8.52,0,0,1,843.61,408.19Z"/><path class="cls-12" d="M827.18,327.15,754,269.39a17.38,17.38,0,0,1-1.78.52A18.94,18.94,0,0,1,737,267a18.88,18.88,0,1,1,28.58-21.84,17.91,17.91,0,0,1,.61,2.05,17.43,17.43,0,0,1,.39,2.49l72.9,42,18.14-10.44,20.09,26.3L849.59,327.7A18.79,18.79,0,0,1,827.18,327.15Z"/><path class="cls-6" d="M886.68,315.82l-41.77-28.41,19.63-27.81a19.16,19.16,0,0,1,23.9-6.25h0a19.16,19.16,0,0,1,10.11,22.79Z"/><circle class="cls-12" cx="906.78" cy="184.34" r="42.14"/><path class="cls-5" d="M891.33,178.06c-10.84,7.42-25.06,15-36.12,7.14-7.27-5.18-9.55-14.78-6.61-23.21,5.3-15.14,19.85-21.81,33.77-26.93,18.09-6.64,37.8-11.93,56.47-7.17s35.19,22.84,31.82,41.82C968,185,953.55,197.67,955.59,213s19.45,23.6,34.8,26.37,32.54,3.65,43.57,14.67c14.08,14.07,10.56,39.22-2.68,54.07s-33.23,21.59-52.6,26.16c-25.66,6.07-53.41,9.26-77.79-.81s-43.33-37.15-36.27-62.56c3-10.73,10-19.8,16.79-28.63s13.67-18.06,16.26-28.89c2.16-9,.56-19.51-5.43-26.28a7.63,7.63,0,0,1-1-8.9Z"/></svg>