<svg id="Layer_1" data-name="Layer 1" xmlns="http://www.w3.org/2000/svg" xmlns:xlink="http://www.w3.org/1999/xlink" viewBox="0 0 1422.45 1047.71"><defs><style>.cls-1{fill:url(#linear-gradient);}.cls-2{fill:#ffc500;}.cls-2,.cls-20{stroke:#000;}.cls-12,.cls-13,.cls-2,.cls-20,.cls-24{stroke-miterlimit:10;}.cls-3{fill:url(#linear-gradient-2);}.cls-4{fill:url(#linear-gradient-3);}.cls-5{fill:#f8c198;}.cls-6{fill:#605b38;}.cls-7{fill:url(#linear-gradient-4);}.cls-8{fill:url(#linear-gradient-5);}.cls-9{fill:#53ad9b;}.cls-10{fill:url(#linear-gradient-6);}.cls-11{fill:url(#linear-gradient-7);}.cls-12{fill:#f5f5f5;}.cls-12,.cls-24{stroke:#3f3d56;}.cls-13{fill:none;stroke:#ad7676;stroke-width:2px;}.cls-14,.cls-17{fill:#fff;}.cls-14,.cls-16{opacity:0.2;}.cls-14{isolation:isolate;}.cls-15{fill:#fccc63;}.cls-18{fill:#263238;}.cls-19{fill:url(#linear-gradient-8);}.cls-20{fill:#ff7d70;stroke-width:0.75px;}.cls-21{fill:url(#linear-gradient-9);}.cls-22{fill:#6c63ff;}.cls-23{fill:url(#linear-gradient-10);}.cls-24{fill:#38baec;}.cls-25{fill:url(#linear-gradient-11);}.cls-26{fill:#4d8af0;}.cls-27{fill:url(#linear-gradient-12);}.cls-28{fill:#f2f2f2;}.cls-29{fill:#47e6b1;}.cls-30{fill:url(#linear-gradient-13);}.cls-31{fill:url(#linear-gradient-14);}.cls-32{fill:#e6e6e6;}.cls-33{fill:url(#linear-gradient-15);}.cls-34{fill:#f55f44;}.cls-35{fill:url(#linear-gradient-16);}.cls-36{fill:url(#linear-gradient-17);}.cls-37{fill:url(#linear-gradient-18);}.cls-38{fill:url(#linear-gradient-19);}.cls-39{fill:url(#linear-gradient-20);}.cls-40{fill:url(#linear-gradient-21);}.cls-41{fill:url(#linear-gradient-22);}.cls-42{fill:#ffcc80;}.cls-43{fill:url(#linear-gradient-23);}.cls-44{fill:url(#linear-gradient-24);}.cls-45{fill:url(#linear-gradient-25);}.cls-46{fill:url(#linear-gradient-26);}.cls-47{fill:url(#linear-gradient-27);}.cls-48{fill:url(#linear-gradient-28);}</style><linearGradient id="linear-gradient" x1="335.88" y1="4163.3" x2="335.88" y2="4853.94" gradientTransform="matrix(1, 0, 0, -1, 553.12, 4873.47)" gradientUnits="userSpaceOnUse"><stop offset="0" stop-color="gray" stop-opacity="0.25"/><stop offset="0.54" stop-color="gray" stop-opacity="0.12"/><stop offset="1" stop-color="gray" stop-opacity="0.1"/></linearGradient><linearGradient id="linear-gradient-2" x1="272.06" y1="4021.09" x2="272.06" y2="4078.23" xlink:href="#linear-gradient"/><linearGradient id="linear-gradient-3" x1="221.67" y1="4010.37" x2="221.67" y2="4085.13" xlink:href="#linear-gradient"/><linearGradient id="linear-gradient-4" x1="349.92" y1="4048.78" x2="349.92" y2="4099.15" gradientTransform="matrix(1, 0, 0, -1, 564, 4892.47)" xlink:href="#linear-gradient"/><linearGradient id="linear-gradient-5" x1="319.98" y1="3918.54" x2="319.98" y2="4035.69" xlink:href="#linear-gradient"/><linearGradient id="linear-gradient-6" x1="368.29" y1="4030.57" x2="368.29" y2="4087.06" xlink:href="#linear-gradient"/><linearGradient id="linear-gradient-7" x1="321.61" y1="3844.76" x2="321.61" y2="4021.78" gradientTransform="matrix(1, 0, 0, -1, 564, 4892.47)" xlink:href="#linear-gradient"/><linearGradient id="linear-gradient-8" x1="-168.6" y1="4772.15" x2="-168.6" y2="4845.74" xlink:href="#linear-gradient"/><linearGradient id="linear-gradient-9" x1="-180.13" y1="4755.46" x2="-180.13" y2="4774.99" gradientTransform="matrix(1, 0, 0, -1, 564, 4892.47)" xlink:href="#linear-gradient"/><linearGradient id="linear-gradient-10" x1="-448.12" y1="4215.3" x2="-448.12" y2="4318.21" xlink:href="#linear-gradient"/><linearGradient id="linear-gradient-11" x1="-459.68" y1="4184.14" x2="-459.68" y2="4211" gradientTransform="matrix(1, 0, 0, -1, 564, 4892.47)" xlink:href="#linear-gradient"/><linearGradient id="linear-gradient-12" x1="-75.76" y1="4288.48" x2="-75.76" y2="4405.92" xlink:href="#linear-gradient"/><linearGradient id="linear-gradient-13" x1="-223.06" y1="4711.06" x2="-223.06" y2="4798.2" xlink:href="#linear-gradient"/><linearGradient id="linear-gradient-14" x1="-234.45" y1="4688.32" x2="-234.45" y2="4710.29" gradientTransform="matrix(1, 0, 0, -1, 564, 4892.47)" xlink:href="#linear-gradient"/><linearGradient id="linear-gradient-15" x1="-523.14" y1="4778.25" x2="-523.14" y2="4839.77" xlink:href="#linear-gradient"/><linearGradient id="linear-gradient-16" x1="-534.76" y1="4767.67" x2="-534.76" y2="4783.54" gradientTransform="matrix(1, 0, 0, -1, 564, 4892.47)" xlink:href="#linear-gradient"/><linearGradient id="linear-gradient-17" x1="-14.05" y1="4794.12" x2="-14.05" y2="4855.64" xlink:href="#linear-gradient"/><linearGradient id="linear-gradient-18" x1="-25.7" y1="4783.54" x2="-25.7" y2="4799.41" gradientTransform="matrix(1, 0, 0, -1, 564, 4892.47)" xlink:href="#linear-gradient"/><linearGradient id="linear-gradient-19" x1="-440.88" y1="4545.58" x2="-440.88" y2="4636.91" xlink:href="#linear-gradient"/><linearGradient id="linear-gradient-20" x1="-452.36" y1="4519.85" x2="-452.36" y2="4543.04" gradientTransform="matrix(1, 0, 0, -1, 564, 4892.47)" xlink:href="#linear-gradient"/><linearGradient id="linear-gradient-21" x1="654.15" y1="4787.41" x2="654.15" y2="4873.47" xlink:href="#linear-gradient"/><linearGradient id="linear-gradient-22" x1="643.28" y1="4764" x2="643.28" y2="4785.98" gradientTransform="matrix(1, 0, 0, -1, 564, 4892.47)" xlink:href="#linear-gradient"/><linearGradient id="linear-gradient-23" x1="821.39" y1="4776.3" x2="821.39" y2="4867.64" xlink:href="#linear-gradient"/><linearGradient id="linear-gradient-24" x1="809.92" y1="4750.58" x2="809.92" y2="4773.77" gradientTransform="matrix(1, 0, 0, -1, 564, 4892.47)" xlink:href="#linear-gradient"/><linearGradient id="linear-gradient-25" x1="740.9" y1="4547.97" x2="740.9" y2="4629.32" xlink:href="#linear-gradient"/><linearGradient id="linear-gradient-26" x1="729.35" y1="4527.17" x2="729.35" y2="4547.93" gradientTransform="matrix(1, 0, 0, -1, 564, 4892.47)" xlink:href="#linear-gradient"/><linearGradient id="linear-gradient-27" x1="825.59" y1="4295.32" x2="825.59" y2="4385.17" xlink:href="#linear-gradient"/><linearGradient id="linear-gradient-28" x1="814.8" y1="4270.81" x2="814.8" y2="4294.01" gradientTransform="matrix(1, 0, 0, -1, 564, 4892.47)" xlink:href="#linear-gradient"/></defs><path class="cls-1" d="M1225.24,364.85c0,190.72-159.33,345.32-329,345.32S552.76,555.57,552.76,364.85,726.64,19.53,896.28,19.53,1225.24,174.14,1225.24,364.85Z"/><path class="cls-2" d="M1209.49,364.85c0,181.79-151.86,329.16-313.57,329.16S568.51,546.65,568.51,364.85,734.23,35.7,895.93,35.7,1209.49,183.12,1209.49,364.85Z"/><path class="cls-3" d="M847.16,816c0-11.48-9.84-20.75-22-20.75s-22,9.32-22,20.75c0,9.69,7,17.8,16.48,20.12v16.28h11V836.11C840.15,833.79,847.16,825.69,847.16,816Z"/><path class="cls-4" d="M765.41,818.78,742,795.39l-.46.47v-.11c-2.44-5.18-6.59-8.38-9.18-7.15s-2.69,6.45-.21,11.63a20.16,20.16,0,0,0,1.89,3.16l-2.44,2.44s59.82,59.82,83.19,57.19l4.4-16.31S799.22,847.37,765.41,818.78Z"/><circle class="cls-5" cx="824.43" cy="816.89" r="19.24"/><rect class="cls-5" x="819.69" y="831.63" width="9.77" height="19.53"/><rect class="cls-6" x="805.04" y="843.84" width="39.06" height="86.67" rx="9.77"/><path class="cls-6" d="M816.49,845.1s-18.51.66-49.79-25.81l-21.64-21.64-9.62,9.62s55.33,55.33,76.91,52.92Z"/><ellipse class="cls-5" cx="740.25" cy="800.06" rx="4.81" ry="9.62" transform="translate(-272.74 397.68) rotate(-25.56)"/><circle class="cls-7" cx="913.92" cy="818.51" r="25.18"/><circle class="cls-5" cx="913.92" cy="818.51" r="22.77"/><rect class="cls-5" x="908.8" y="835.3" width="10.99" height="23.19"/><path class="cls-8" d="M929.61,848.72H901.33a9.68,9.68,0,0,0-7.89,4.08c-21.49,2.77-65.71,7.05-70.19-4.08l-2.06,1.53a22.47,22.47,0,0,0-1.5-4.06c-2.84-5.88-7.55-9.51-10.51-8.1s-3.07,7.28-.23,13.18a20.71,20.71,0,0,0,3.67,5.37l-1.22.94s45.22,18.88,80.31,16.52v71.25a9.65,9.65,0,0,0,9.67,9.58h28.28a9.64,9.64,0,0,0,9.66-9.58V858.29A9.65,9.65,0,0,0,929.61,848.72Z"/><rect class="cls-9" x="891.71" y="849.94" width="45.17" height="102.54" rx="9.77"/><path class="cls-9" d="M903.94,852.16s-72.57,11.89-78.26-2.35l-11.39,8.55s54.08,22.77,88.22,14.23S903.94,852.16,903.94,852.16Z"/><ellipse class="cls-5" cx="817.14" cy="849.82" rx="5.69" ry="11.39" transform="translate(-286.69 435.73) rotate(-25.56)"/><path class="cls-10" d="M891.66,793.93a2.89,2.89,0,0,1,2.86,1.67c2.34-5.13,7.88-8.27,13.43-9s11.24.63,16.58,2.45c6.82,2.33,13.5,5.55,18.64,10.6s8.54,12.21,7.94,19.38c-.46,5.28-3,10.13-5.53,14.79-1.55,2.9-3.23,5.9-6,7.65-5.79,3.66-14-.21-17.09-6.3-1-2-1.66-4.21-2.8-6.11-3.43-5.91-10.53-8.32-16.65-11.39C892.35,812.25,891.5,804.78,891.66,793.93Z"/><rect class="cls-11" x="783.07" y="870.7" width="205.09" height="177.01"/><rect class="cls-12" x="787.95" y="869.48" width="195.32" height="168.47"/><line class="cls-13" x1="980.78" y1="869.81" x2="988.91" y2="715.96"/><line class="cls-13" x1="793.17" y1="869.81" x2="782.17" y2="715.96"/><path class="cls-14" d="M894.6,817.37a22.76,22.76,0,0,1,21-22.65c-.58,0-1.15-.08-1.74-.08a22.77,22.77,0,0,0,0,45.53,11.21,11.21,0,0,0,1.74-.09A22.75,22.75,0,0,1,894.6,817.37Z"/><path class="cls-14" d="M808,815.06a22.75,22.75,0,0,1,21.06-22.68c-.58,0-1.15-.09-1.73-.09a22.77,22.77,0,0,0,0,45.54,11.15,11.15,0,0,0,1.73-.09A22.77,22.77,0,0,1,808,815.06Z"/><path class="cls-15" d="M820.64,832.56a23.84,23.84,0,0,1,3.44,2.81c4.09,5.09-3.66,13-.76,18.84,1.29,2.59,4.34,3.91,5.7,6.44,2.6,4.83-1.75,11.88,2,15.87,1,1.07,2.44,1.69,3.23,2.93,1.53,2.45-.61,5.69-.26,8.55.42,3.66,4.43,5.62,7.88,6.91,2.94,1.1,6.8,2,8.8-.45,1-1.22,1.15-2.82,2-4.06,1.69-2.3,5.08-2.31,7.56-3.73,3.85-2.2,4.79-7.33,4.79-11.73s-.44-9.22,2-12.94c2.74-4.23,8.41-5.8,11.15-10,4.14-6.42-.43-15.39,2.53-22.43,1-2.44,2.9-4.51,3.51-7.07,1-4.24-1.69-8.55-4.88-11.39s-7.17-5.08-9.86-8.55c-1.9-2.44-3.13-5.31-5.36-7.39-5.42-5.06-14-3.25-21.28-4.89-6.7-1.45-12.88-6-19.71-5.27-6,.67-10.63,5.26-14.79,9.59a7.74,7.74,0,0,0-2.32,3.57c-1.22,5.9,4.5,12,7,16.28C816.28,820.21,815.29,828.08,820.64,832.56Z"/><g class="cls-16"><path class="cls-17" d="M808.3,799.35c4.16-4.34,8.82-8.93,14.79-9.6,6.81-.77,13,3.82,19.7,5.28,7.24,1.57,15.87-.24,21.28,4.88,2.24,2.09,3.47,5,5.36,7.4,2.7,3.4,6.63,5.59,9.87,8.54a15.82,15.82,0,0,1,4.82,7.18,1.52,1.52,0,0,1,.12-.4c1-4.24-1.7-8.55-4.94-11.39s-7.17-5.08-9.87-8.55c-1.89-2.44-3.12-5.31-5.36-7.4-5.42-5-14-3.24-21.28-4.88-6.7-1.45-12.87-6-19.7-5.27-6,.67-10.63,5.26-14.79,9.59A7.61,7.61,0,0,0,806,798.3a9.23,9.23,0,0,0,.15,4.05A9,9,0,0,1,808.3,799.35Z"/><path class="cls-17" d="M834.42,884.36A11.33,11.33,0,0,0,834,888a5.8,5.8,0,0,0,.33,1.32C834.73,887.61,835.15,885.86,834.42,884.36Z"/><path class="cls-17" d="M829.74,867.47a22.65,22.65,0,0,0-.14,6.1A22.66,22.66,0,0,0,829.74,867.47Z"/><path class="cls-17" d="M879.94,846.43a57.21,57.21,0,0,0-.2-8A57.13,57.13,0,0,0,879.94,846.43Z"/><path class="cls-17" d="M864.86,876.29v-2C864.87,875,864.86,875.65,864.86,876.29Z"/><path class="cls-17" d="M825,841.62c-.88,3.85-3.11,8.07-2,11.66C823.81,849.26,826.16,845,825,841.62Z"/></g><path class="cls-18" d="M893.38,795.11a2.72,2.72,0,0,1,2.69,1.58c2.21-4.89,7.42-7.79,12.69-8.48s10.6.59,15.63,2.31c6.43,2.2,12.72,5.24,17.57,10S950,812,949.44,818.83c-.44,5-2.84,9.55-5.21,13.94-1.47,2.72-3.05,5.56-5.67,7.2-5.45,3.43-13.18-.19-16.12-5.93-1-1.89-1.57-4-2.64-5.8-3.23-5.56-9.94-7.83-15.69-10.73C894,812.4,893.22,805.35,893.38,795.11Z"/><path class="cls-14" d="M892.93,797.43a2.72,2.72,0,0,1,2.69,1.58c2.21-4.89,7.42-7.79,12.7-8.48s10.59.59,15.62,2.31c6.44,2.2,12.72,5.24,17.57,10A24.43,24.43,0,0,1,949,818.29c.4-6.6-2.79-13.11-7.51-17.76s-11.13-7.8-17.57-10c-5-1.72-10.36-3-15.62-2.3s-10.49,3.66-12.7,8.47a2.72,2.72,0,0,0-2.69-1.58V798A5.42,5.42,0,0,1,892.93,797.43Z"/><rect class="cls-2" x="845.32" y="705.89" width="73.25" height="25.64"/><g class="cls-16"><path d="M895.93,34.55c-3.85,0-7.7.11-11.56.28,157.31,6.79,302,151.37,302,328.87s-144.73,322.09-302,328.88c3.86.17,7.72.28,11.56.28,161.7,0,313.57-147.37,313.57-329.16S1057.63,34.55,895.93,34.55Z"/></g><g class="cls-16"><path class="cls-17" d="M587,364.85C587,185.67,748,39.92,907.47,35.79c-2.31,0-4.61-.09-6.92-.09-161.69,0-327.42,147.42-327.42,329.15S738.86,694,900.55,694c2.31,0,4.61,0,6.92-.1C748,689.73,587,544.05,587,364.85Z"/></g><rect class="cls-2" x="780.62" y="647.3" width="208.75" height="68.36"/><path class="cls-14" d="M781,60.11s-248.3,283.81,0,610.38l82-.28S636.64,400.42,852.62,39.62L812.2,48.84Z"/><path class="cls-14" d="M997,55.79s248.3,288.1,0,614.7l-82-.28s226.37-272.08,10.39-632.89l40.39,8.06Z"/><path class="cls-19" d="M421.31,64.54c0,20.33-17.43,36.78-36,36.78s-37.58-16.48-37.58-36.79,19-36.79,37.58-36.79S421.31,44.23,421.31,64.54Z"/><path class="cls-20" d="M419.59,64.54c0,19.38-16.61,35.07-34.3,35.07s-35.83-15.69-35.83-35.07,18.14-35.07,35.83-35.07S419.59,45.17,419.59,64.54Z"/><rect class="cls-21" x="372.89" y="117.48" width="21.97" height="19.53"/><rect class="cls-20" x="374.11" y="118.7" width="20.75" height="18.31"/><line class="cls-13" x1="394.56" y1="118.35" x2="395.46" y2="101.96"/><line class="cls-13" x1="374.04" y1="118.35" x2="372.84" y2="101.96"/><g class="cls-16"><path class="cls-17" d="M378.58,119.9a1.27,1.27,0,0,0,0,.39v.14A.8.8,0,0,0,378.58,119.9Z"/><path class="cls-17" d="M378,118.11a2.36,2.36,0,0,0,0,.65A2.36,2.36,0,0,0,378,118.11Z"/></g><rect class="cls-22" x="378.99" y="100.39" width="8.55" height="2.44"/><g class="cls-16"><path d="M385.41,29.59H384.2c17.08.71,32.8,16,32.8,34.79s-15.75,34.08-32.8,34.79h1.21c17.56,0,34-15.58,34-34.81S403,29.59,385.41,29.59Z"/></g><g class="cls-16"><path class="cls-17" d="M351.62,64.37c0-18.94,17.47-34.35,34.78-34.78h-.75c-17.55,0-35.55,15.57-35.55,34.79s18,34.79,35.55,34.79h.75C369.09,98.72,351.62,83.32,351.62,64.37Z"/></g><rect class="cls-22" x="372.89" y="94.29" width="23.19" height="7.32"/><path class="cls-14" d="M372.71,31.69s-27.17,30.24,0,65h9S356.92,68,380.55,29.59l-4.42,1Z"/><path class="cls-14" d="M396.33,31.22s27.18,30.71,0,65.51h-9s24.77-29,1.14-67.45l4.42.87Z"/><path class="cls-23" d="M156.4,606.72c0,28.42-24.41,51.46-50.32,51.46s-52.49-23-52.49-51.46,26.6-51.45,52.49-51.45S156.4,578.33,156.4,606.72Z"/><path class="cls-24" d="M154,606.72c0,27.09-23.19,49-48,49s-50-22-50-49,25.35-49,50.05-49S154,579.66,154,606.72Z"/><rect class="cls-25" x="88.45" y="681.48" width="31.74" height="26.86"/><rect class="cls-24" x="89.67" y="681.48" width="29.3" height="25.64"/><line class="cls-13" x1="119.01" y1="681.97" x2="120.26" y2="659.06"/><line class="cls-13" x1="90.31" y1="681.97" x2="88.63" y2="659.06"/><g class="cls-16"><path class="cls-17" d="M96.59,684.14a1.72,1.72,0,0,0-.06.55.67.67,0,0,0,0,.2A1.21,1.21,0,0,0,96.59,684.14Z"/><path class="cls-17" d="M95.9,681.63a3.39,3.39,0,0,0,0,.9A3.39,3.39,0,0,0,95.9,681.63Z"/></g><rect class="cls-26" x="98.21" y="657.06" width="10.99" height="3.66"/><g class="cls-16"><path d="M106.11,558.18h-1.76c24,1,46,22.48,46,48.82s-22,47.84-46,48.84h1.76c24.64,0,47.78-21.89,47.78-48.85S130.76,558.18,106.11,558.18Z"/></g><g class="cls-16"><path class="cls-17" d="M58.84,607c0-26.59,24.53-48.21,48.82-48.82H106.6C82,558.18,56.76,580.06,56.76,607S82,655.84,106.6,655.84h1.06C83.4,655.22,58.84,633.6,58.84,607Z"/></g><rect class="cls-26" x="88.45" y="648.52" width="31.74" height="9.77"/><path class="cls-14" d="M88.44,561.23s-38,42.29,0,90.95H101s-34.63-40.2-1.58-94l-6.19,1.38Z"/><path class="cls-14" d="M121.49,560.62s38,42.94,0,91.56H108.94s34.63-40.58,1.59-94.29l6.19,1.22Z"/><path class="cls-27" d="M536.06,526.27c0,32.44-27.82,58.72-57.43,58.72s-60-26.29-60-58.72,30.3-58.72,59.92-58.72S536.06,493.85,536.06,526.27Z"/><path class="cls-20" d="M533.26,526.27c0,30.93-26.49,56-54.74,56s-57.21-25.11-57.21-56,28.93-56,57.17-56S533.26,495.36,533.26,526.27Z"/><rect class="cls-20" x="458.34" y="611.89" width="35.4" height="30.52"/><rect class="cls-28" x="459.56" y="611.89" width="34.18" height="28.08"/><line class="cls-13" x1="493.32" y1="612.15" x2="494.74" y2="585.98"/><line class="cls-13" x1="460.57" y1="612.15" x2="458.66" y2="585.98"/><g class="cls-16"><path class="cls-17" d="M467.77,614.62a2.15,2.15,0,0,0-.07.62.81.81,0,0,0,0,.22A1.16,1.16,0,0,0,467.77,614.62Z"/><path class="cls-17" d="M467,611.75a3.62,3.62,0,0,0,0,1A4.52,4.52,0,0,0,467,611.75Z"/></g><rect class="cls-29" x="470.55" y="583.82" width="12.21" height="4.88"/><g class="cls-16"><path d="M478.41,470.29h-2c27.58,1.16,53,25.85,53,56.15s-25.37,55-53,56.16h2c28.35,0,55-25.17,55-56.21S506.77,470.29,478.41,470.29Z"/></g><g class="cls-16"><path class="cls-17" d="M424.5,526.4c0-30.6,28.15-55.4,56.11-56.11h-1.22c-28.32,0-57.33,25.13-57.33,56.13s29,56.18,57.34,56.18h1.23C452.69,581.82,424.5,557,424.5,526.4Z"/></g><rect class="cls-29" x="458.34" y="575.27" width="36.62" height="10.99"/><path class="cls-14" d="M458.45,474s-43.36,48.27,0,103.76h14.32S433.24,531.84,471,470.48L463.89,472Z"/><path class="cls-14" d="M489.68,473.35s57.93,51.78,0,110.47H470.55s52.81-48.89,2.43-113.74l9.43,1.46Z"/><path class="cls-30" d="M372.48,118.84c0,24.06-20.11,43.57-41.51,43.57s-43.33-19.53-43.33-43.57,22-43.57,43.33-43.57S372.48,94.78,372.48,118.84Z"/><path class="cls-24" d="M370.49,118.84c0,22.94-19.15,41.51-39.56,41.51s-41.31-18.59-41.31-41.51,20.91-41.5,41.31-41.5S370.49,95.9,370.49,118.84Z"/><rect class="cls-31" x="316.73" y="182.18" width="25.64" height="21.97"/><rect class="cls-32" x="317.95" y="182.18" width="24.42" height="20.75"/><line class="cls-13" x1="341.64" y1="182.54" x2="342.67" y2="163.13"/><line class="cls-13" x1="317.97" y1="182.54" x2="316.58" y2="163.13"/><g class="cls-16"><path class="cls-17" d="M323.17,184.34a1.77,1.77,0,0,0,0,.46V185A.86.86,0,0,0,323.17,184.34Z"/><path class="cls-17" d="M322.59,182.25a2.49,2.49,0,0,0,0,.77A3.3,3.3,0,0,0,322.59,182.25Z"/></g><rect class="cls-29" x="324.06" y="161.43" width="9.77" height="3.66"/><g class="cls-16"><path d="M331,77.2h-1.45c19.85.85,38.1,19.1,38.1,41.5s-18.31,40.64-38.1,41.51H331c20.4,0,39.57-18.59,39.57-41.51S351.34,77.2,331,77.2Z"/></g><g class="cls-16"><path class="cls-17" d="M291.91,118.7c0-22.6,20.31-41,40.43-41.5h-.88c-20.4,0-41.31,18.59-41.31,41.5s20.91,41.51,41.31,41.51h.88C312.27,159.7,291.91,141.31,291.91,118.7Z"/></g><rect class="cls-24" x="316.73" y="154.11" width="26.86" height="8.55"/><path class="cls-14" d="M316.44,80.76s-31.33,35.81,0,77h10.34s-28.56-34.05-1.31-79.6l-5.1,1.23Z"/><path class="cls-14" d="M343.68,80.21s31.33,36.36,0,77.56H333.34s28.56-34.33,1.31-79.85l5.1,1Z"/><path class="cls-33" d="M60,64.48c0,17-14.23,30.74-29.29,30.74S0,81.47,0,64.48,15.49,33.71,30.67,33.71,60,47.48,60,64.48Z"/><path class="cls-34" d="M58.52,64.48c0,16.2-13.53,29.3-27.94,29.3S1.37,80.68,1.37,64.48s14.77-29.3,29.17-29.3S58.52,48.28,58.52,64.48Z"/><rect class="cls-35" x="20.08" y="108.94" width="18.31" height="15.87"/><rect class="cls-20" x="21.31" y="110.16" width="17.09" height="14.65"/><line class="cls-13" x1="38.14" y1="109.48" x2="38.87" y2="95.76"/><line class="cls-13" x1="21.42" y1="109.48" x2="20.45" y2="95.76"/><g class="cls-16"><path class="cls-17" d="M25.1,110.77a.92.92,0,0,0,0,.33.24.24,0,0,0,0,.12A.69.69,0,0,0,25.1,110.77Z"/><path class="cls-17" d="M24.68,109.26a2.44,2.44,0,0,0,0,.54A1.63,1.63,0,0,0,24.68,109.26Z"/></g><rect class="cls-22" x="26.19" y="94.29" width="6.1" height="2.44"/><g class="cls-16"><path d="M30.58,34.47h-1c14,.61,26.86,13.49,26.86,29.3s-12.89,28.7-26.86,29.3h1c14.41,0,27.94-13.14,27.94-29.3S45,34.47,30.58,34.47Z"/></g><g class="cls-16"><path class="cls-17" d="M3.05,65c0-16,14.35-29,28.56-29.3H31C16.58,35.69,1.81,48.83,1.81,65S16.58,94.29,31,94.29h.63C17.4,93.93,3.05,81,3.05,65Z"/></g><rect class="cls-22" x="20.08" y="89.41" width="18.31" height="6.1"/><path class="cls-14" d="M20.34,37.45s-22.13,25.29,0,54.4h7.32S7.47,67.77,26.72,35.57l-3.66.82Z"/><path class="cls-14" d="M39.58,37.07s22.13,25.64,0,54.78H32.25s20.17-24.25.93-56.4l3.66.72Z"/><path class="cls-36" d="M569,48.61c0,17-14.23,30.74-29.29,30.74s-30.61-13.78-30.61-30.78,15.43-30.73,30.61-30.73S569,31.61,569,48.61Z"/><path class="cls-34" d="M567.58,48.61c0,16.2-13.53,29.3-27.94,29.3s-29.21-13.1-29.21-29.3,14.77-29.3,29.17-29.3S567.58,32.41,567.58,48.61Z"/><rect class="cls-37" x="529.15" y="93.07" width="18.31" height="15.87"/><rect class="cls-32" x="530.37" y="94.29" width="17.09" height="14.65"/><line class="cls-13" x1="547.2" y1="93.61" x2="547.93" y2="79.89"/><line class="cls-13" x1="530.49" y1="93.61" x2="529.51" y2="79.89"/><g class="cls-16"><path class="cls-17" d="M534.16,94.9a.92.92,0,0,0,0,.33.24.24,0,0,0,0,.12A.69.69,0,0,0,534.16,94.9Z"/><path class="cls-17" d="M533.74,93.39a2.44,2.44,0,0,0,0,.54A1.63,1.63,0,0,0,533.74,93.39Z"/></g><rect class="cls-34" x="535.25" y="78.42" width="6.1" height="2.44"/><g class="cls-16"><path d="M539.64,18.6h-1c14,.61,26.85,13.49,26.85,29.3s-12.89,28.7-26.85,29.3h1c14.41,0,27.94-13.14,27.94-29.3S554.05,18.6,539.64,18.6Z"/></g><g class="cls-16"><path class="cls-17" d="M512.11,49.12c0-16,14.35-29,28.56-29.3H540c-14.4,0-29.17,13.14-29.17,29.3s14.77,29.3,29.17,29.3h.63C526.46,78.06,512.11,65.09,512.11,49.12Z"/></g><rect class="cls-34" x="529.15" y="73.54" width="18.31" height="6.1"/><path class="cls-14" d="M529.4,21.58s-22.13,25.29,0,54.4h7.32s-20.19-24.08-.94-56.28l-3.66.82Z"/><path class="cls-14" d="M548.64,21.2s22.13,25.64,0,54.78h-7.33s20.17-24.25.93-56.4l3.66.72Z"/><path class="cls-38" d="M156.71,282.23c0,25.22-21.07,45.67-43.51,45.67s-45.44-20.45-45.44-45.67,23-45.67,45.44-45.67S156.71,257,156.71,282.23Z"/><path class="cls-34" d="M154.62,282.23c0,24-20.08,43.53-41.5,43.53s-43.3-19.53-43.3-43.53,22-43.53,43.3-43.53S154.62,258.18,154.62,282.23Z"/><rect class="cls-39" x="98.21" y="349.43" width="26.86" height="23.19"/><rect class="cls-32" x="99.43" y="349.43" width="25.64" height="21.97"/><line class="cls-13" x1="124.37" y1="349.02" x2="125.45" y2="328.67"/><line class="cls-13" x1="99.57" y1="349.02" x2="98.11" y2="328.67"/><g class="cls-16"><path class="cls-17" d="M105,350.93a1.34,1.34,0,0,0,0,.49.48.48,0,0,0,0,.17A1.06,1.06,0,0,0,105,350.93Z"/><path class="cls-17" d="M104.4,348.7a2.75,2.75,0,0,0,0,.81A2.75,2.75,0,0,0,104.4,348.7Z"/></g><rect class="cls-34" x="106.76" y="327.46" width="9.77" height="3.66"/><g class="cls-16"><path d="M113.24,238.34h-1.52c20.66.9,39.77,20,39.77,43.31S132.43,324.16,111.72,325h1.52c21.3,0,41.33-19.45,41.33-43.35S134.54,238.34,113.24,238.34Z"/></g><g class="cls-16"><path class="cls-17" d="M72.38,281.66c0-23.58,21.21-42.77,42.2-43.32h-.91c-21.29,0-43.11,19.44-43.11,43.34S92.44,325,113.67,325h.91C93.58,324.44,72.38,305.25,72.38,281.66Z"/></g><rect class="cls-34" x="98.21" y="320.13" width="28.08" height="8.55"/><path class="cls-14" d="M98,241.84s-32.83,37.54,0,80.73h10.84s-29.93-35.71-1.36-83.44l-5.35,1.22Z"/><path class="cls-14" d="M126.52,241.27s32.84,38.11,0,81.3H115.68s29.95-36,1.38-83.71l5.35,1.08Z"/><path class="cls-40" d="M1249.16,43c0,23.77-19.85,43-41,43s-42.8-19.27-42.8-43S1187,0,1208.17,0,1249.16,19.26,1249.16,43Z"/><path class="cls-2" d="M1247.2,43c0,22.65-18.92,41-39.07,41s-40.79-18.31-40.79-41S1188,2,1208.13,2,1247.2,20.37,1247.2,43Z"/><rect class="cls-41" x="1194.46" y="106.5" width="25.64" height="21.97"/><rect class="cls-32" x="1194.46" y="106.5" width="24.42" height="20.75"/><line class="cls-13" x1="1218.71" y1="105.95" x2="1219.72" y2="86.77"/><line class="cls-13" x1="1195.33" y1="105.95" x2="1193.96" y2="86.77"/><g class="cls-16"><path class="cls-17" d="M1200.47,107.76a1.19,1.19,0,0,0,0,.46.43.43,0,0,0,0,.16A.94.94,0,0,0,1200.47,107.76Z"/><path class="cls-17" d="M1199.88,105.66a3.14,3.14,0,0,0,0,.75A2.36,2.36,0,0,0,1199.88,105.66Z"/></g><rect class="cls-42" x="1201.79" y="85.74" width="8.55" height="3.66"/><g class="cls-16"><path d="M1208.18,1.51h-1.44c19.56.84,37.55,18.83,37.55,40.88s-18,40.06-37.55,40.91h1.44c20.09,0,39-18.26,39-40.91S1228.24,1.51,1208.18,1.51Z"/></g><g class="cls-16"><path class="cls-17" d="M1169.7,43.61c0-22.26,20-40.37,39.81-40.88h-.86C1188.57,2.73,1168,21,1168,43.63s20.6,40.89,40.68,40.89h.86C1189.7,84,1169.7,65.88,1169.7,43.61Z"/></g><rect class="cls-42" x="1194.46" y="78.42" width="25.64" height="8.55"/><path class="cls-14" d="M1193.81,4.81s-30.93,35.4,0,76.05H1204s-28.21-33.66-1.3-78.62l-5,1.15Z"/><path class="cls-14" d="M1220.72,4.27s30.93,35.9,0,76.59H1210.5S1238.71,47,1211.8,2l5,1Z"/><path class="cls-43" d="M1419,51.5c0,25.23-21.08,45.67-43.51,45.67S1330,76.73,1330,51.5s23-45.66,45.44-45.66S1419,26.28,1419,51.5Z"/><path class="cls-24" d="M1416.9,51.5c0,24-20.08,43.54-41.51,43.54s-43.3-19.54-43.3-43.54S1354.06,8,1375.39,8,1416.9,27.46,1416.9,51.5Z"/><rect class="cls-44" x="1360.49" y="118.7" width="26.86" height="23.19"/><rect class="cls-24" x="1361.71" y="118.7" width="25.64" height="21.97"/><line class="cls-13" x1="1386.65" y1="118.29" x2="1387.72" y2="97.94"/><line class="cls-13" x1="1361.84" y1="118.29" x2="1360.39" y2="97.94"/><g class="cls-16"><path class="cls-17" d="M1367.29,120.21a1.35,1.35,0,0,0,0,.49.48.48,0,0,0,0,.17A1.06,1.06,0,0,0,1367.29,120.21Z"/><path class="cls-17" d="M1366.68,118a2.68,2.68,0,0,0,0,.8A3.57,3.57,0,0,0,1366.68,118Z"/></g><rect class="cls-22" x="1369.03" y="96.73" width="9.77" height="3.66"/><g class="cls-16"><path d="M1375.51,7.61H1374c20.67.9,39.78,20,39.78,43.32S1394.71,93.44,1374,94.29h1.52c21.3,0,41.33-19.45,41.33-43.35S1396.81,7.61,1375.51,7.61Z"/></g><g class="cls-16"><path class="cls-17" d="M1334.66,50.94c0-23.59,21.21-42.78,42.19-43.33h-.91c-21.29,0-43.1,19.45-43.1,43.34s21.87,43.34,43.1,43.34h.91C1355.85,93.72,1334.66,74.53,1334.66,50.94Z"/></g><rect class="cls-24" x="1360.49" y="89.41" width="28.08" height="8.55"/><path class="cls-14" d="M1360.23,11.12s-32.84,37.54,0,80.73h10.84s-29.93-35.71-1.37-83.44l-5.34,1.22Z"/><path class="cls-14" d="M1388.8,10.54s32.83,38.12,0,81.31H1378s29.94-36,1.37-83.71l5.35,1.07Z"/><path class="cls-45" d="M1334.67,284.83c0,22.46-19.28,40.68-39.79,40.68s-41.5-18.22-41.5-40.68,21-40.68,41.5-40.68S1334.67,262.37,1334.67,284.83Z"/><path class="cls-34" d="M1332.76,284.83c0,21.41-18.31,38.77-37.93,38.77s-39.6-17.36-39.6-38.77,20-38.77,39.6-38.77S1332.76,263.42,1332.76,284.83Z"/><rect class="cls-46" x="1281.14" y="344.55" width="24.42" height="20.75"/><rect class="cls-32" x="1282.36" y="344.55" width="23.19" height="19.53"/><line class="cls-13" x1="1305.1" y1="344.32" x2="1306.08" y2="326.19"/><line class="cls-13" x1="1282.41" y1="344.32" x2="1281.08" y2="326.19"/><g class="cls-16"><path class="cls-17" d="M1287.4,346a1.09,1.09,0,0,0,0,.44.43.43,0,0,0,0,.16A.88.88,0,0,0,1287.4,346Z"/><path class="cls-17" d="M1286.84,344a2.18,2.18,0,0,0,0,.72A2.89,2.89,0,0,0,1286.84,344Z"/></g><rect class="cls-34" x="1288.46" y="325.01" width="8.55" height="2.44"/><g class="cls-16"><path d="M1295,245.66h-1.39c18.89.8,36.25,17.7,36.25,38.46s-17.38,37.65-36.25,38.45H1295c19.39,0,37.64-17.23,37.64-38.48S1314.38,245.66,1295,245.66Z"/></g><g class="cls-16"><path class="cls-17" d="M1257.33,284.72c0-21.27,19.68-38.56,39.05-39.06h-.85c-19.68,0-39.9,17.49-39.9,39.07s20.22,39.06,39.9,39.06h.85C1277,323.29,1257.33,306,1257.33,284.72Z"/></g><rect class="cls-34" x="1281.14" y="317.69" width="25.64" height="8.55"/><path class="cls-14" d="M1280.94,249.45s-30,33.44,0,71.9h9.91s-27.38-31.74-1.22-74.28l-4.88,1.08Z"/><path class="cls-14" d="M1307.05,248.94s30,33.95,0,72.41h-9.91s27.38-32.06,1.22-74.55l4.88.95Z"/><path class="cls-47" d="M1422.45,533.23c0,24.82-20.75,44.93-42.8,44.93S1335,558,1335,533.23s22.62-44.92,44.66-44.92S1422.45,508.43,1422.45,533.23Z"/><path class="cls-24" d="M1420.4,533.23c0,23.65-19.76,42.83-40.8,42.83s-42.6-19.18-42.6-42.83,21.56-42.82,42.6-42.82S1420.4,509.59,1420.4,533.23Z"/><rect class="cls-48" x="1365.37" y="598.47" width="26.86" height="23.19"/><rect class="cls-32" x="1365.37" y="598.47" width="25.64" height="21.97"/><line class="cls-13" x1="1390.65" y1="598.93" x2="1391.7" y2="578.91"/><line class="cls-13" x1="1366.24" y1="598.93" x2="1364.81" y2="578.91"/><g class="cls-16"><path class="cls-17" d="M1371.6,600.83a1.24,1.24,0,0,0,0,.47.48.48,0,0,0,0,.17A1,1,0,0,0,1371.6,600.83Z"/><path class="cls-17" d="M1371,598.63a2.62,2.62,0,0,0,0,.79A3.48,3.48,0,0,0,1371,598.63Z"/></g><rect class="cls-29" x="1372.7" y="577.71" width="9.77" height="3.66"/><g class="cls-16"><path d="M1379.64,489.82h-1.5c20.45.88,39.24,19.67,39.24,42.72s-18.79,41.85-39.24,42.73h1.5c21,0,40.74-19.15,40.74-42.76S1400.64,489.82,1379.64,489.82Z"/></g><g class="cls-16"><path class="cls-17" d="M1339.45,533.75c0-23.26,20.9-42.18,41.61-42.71h-.91c-21,0-42.5,19.13-42.5,42.73s21.51,42.72,42.5,42.72h.91C1360.35,575.94,1339.45,557,1339.45,533.75Z"/></g><rect class="cls-29" x="1365.37" y="570.39" width="26.86" height="8.55"/><path class="cls-14" d="M1364.65,493.42s-32.3,36.93,0,79.41h10.67s-29.46-35.1-1.36-82.05L1368.7,492Z"/><path class="cls-14" d="M1392.75,492.85s32.3,37.49,0,80h-10.67s29.46-35.4,1.36-82.34l5.26,1.05Z"/></svg>