<svg xmlns="http://www.w3.org/2000/svg" xmlns:xlink="http://www.w3.org/1999/xlink" viewBox="0 0 1417.32 1133.86"><defs><style>.cls-1{fill:none;}.cls-2{isolation:isolate;}.cls-11,.cls-3{fill:#647ddd;}.cls-10,.cls-11,.cls-12,.cls-13,.cls-14,.cls-18,.cls-19,.cls-20,.cls-21,.cls-22,.cls-23,.cls-24,.cls-25,.cls-26,.cls-27,.cls-28,.cls-29,.cls-3,.cls-30,.cls-31,.cls-32,.cls-33,.cls-34,.cls-35,.cls-36,.cls-37,.cls-38,.cls-39,.cls-4,.cls-40,.cls-41,.cls-5,.cls-6,.cls-7,.cls-8,.cls-9{stroke:#231f20;stroke-miterlimit:10;}.cls-3{opacity:0.8;}.cls-28,.cls-4{fill:#ff7d70;}.cls-5{fill:#ba574d;}.cls-6{fill:#87ceff;}.cls-7{fill:#381e60;}.cls-8{fill:#fccf4f;}.cls-13,.cls-9{fill:#ffc500;}.cls-11,.cls-28,.cls-9{opacity:0.5;}.cls-28,.cls-9{mix-blend-mode:multiply;}.cls-10{fill:#fff9ff;}.cls-12{fill:#06aae7;}.cls-14,.cls-17{fill:#fff;}.cls-15{clip-path:url(#clip-path);}.cls-16{fill:#fec111;}.cls-18{fill:#ffb29e;}.cls-19{fill:#4e0611;}.cls-20{fill:#ff85ab;}.cls-21{fill:#659cff;}.cls-22{fill:#77baff;}.cls-23{fill:#ff7d75;}.cls-24{fill:#57438e;}.cls-25{fill:#47338e;}.cls-26{fill:#4ca6f1;}.cls-27{fill:#ffac8a;}.cls-29{fill:#ff9779;}.cls-30{fill:#fca580;}.cls-31{fill:#f37a67;}.cls-32{fill:#f09376;}.cls-33{fill:#d3bae7;}.cls-34{fill:#752939;}.cls-35{fill:#bcbace;}.cls-36{fill:#2093b7;}.cls-37{fill:#77bdec;}.cls-38{fill:#1a685a;}.cls-39{fill:#409682;}.cls-40{fill:#fc9740;}.cls-41{fill:#fccfb0;}</style><clipPath id="clip-path"><polygon class="cls-1" points="571.14 593.87 570.38 328.45 697.99 254.78 698.75 520.19 571.14 593.87"/></clipPath></defs><g class="cls-2"><g id="Layer_2" data-name="Layer 2"><path class="cls-3" d="M1387.23,616.4c-2.19,2.05-100.11,63.76-100.11,63.76s-126.2-73.56-121.85-72.25S1387.23,616.4,1387.23,616.4Z"/><polygon class="cls-4" points="1387.23 616.4 1268.8 548.09 1165.27 607.91 1269.33 667.98 1298.42 667.68 1387.23 616.4"/><polygon class="cls-5" points="1283.64 650.88 1298.42 667.68 1269.33 667.98 1283.64 650.88"/><polygon class="cls-6" points="328.37 552.18 364.76 611.1 353.51 622.06 316.83 562.03 328.37 552.18"/><path class="cls-7" d="M365.73,457.76c13.44,51.15-13.8,106.88-60.83,124.47s-96.07-9.61-109.51-60.76S209.19,414.59,256.22,397,352.29,406.61,365.73,457.76Z"/><path class="cls-8" d="M357.49,460.84C369.64,507,345,557.38,302.54,573.28s-86.77-8.69-98.92-54.89,12.47-96.54,55-112.44S345.35,414.63,357.49,460.84Z"/><path class="cls-9" d="M326.1,559.62l-90-140.91c-28.17,22.39-42.32,62.38-32.52,99.68,12.15,46.2,56.43,70.78,98.92,54.89A82.76,82.76,0,0,0,326.1,559.62Z"/><path class="cls-10" d="M242.28,484.82c1.87,7.11-1.92,14.85-8.45,17.3s-13.35-1.34-15.22-8.45,1.91-14.85,8.45-17.29S240.41,477.71,242.28,484.82Z"/><path class="cls-10" d="M241.35,511.38a8.29,8.29,0,0,1-4.78,9.77c-3.7,1.39-7.55-.75-8.6-4.77a8.29,8.29,0,0,1,4.78-9.78C236.44,505.22,240.29,507.36,241.35,511.38Z"/><polygon class="cls-7" points="365.86 604.54 347.79 618.67 391.52 691.43 407.92 669.93 365.86 604.54"/><path class="cls-11" d="M727.55,968.48,217.87,745.84,730.64,463.5S1261,691.06,1221.86,701.61,727.55,968.48,727.55,968.48Z"/><path class="cls-4" d="M372.86,300.58,814.65,47.5c7.93-4.54,18.24-6.71,27.15-4.66,12.52,2.89,24.26,6.83,24.24,17.79l.66,410.64-38.86,23c12.72,6.19,400.52,194.94,401.16,195.41l.93,15.84a19.11,19.11,0,0,1-9.53,16.57c-66,38.23-452.71,261.78-452.71,261.78a41.1,41.1,0,0,1-41.12,0L359,771.39a12.45,12.45,0,0,1-6.21-10.74l-.63-424.51A41.1,41.1,0,0,1,372.86,300.58Z"/><path class="cls-12" d="M365.21,759.26,867.09,472.9l1-409.74a15.38,15.38,0,0,0-23-13.38L382.28,314.9A32.47,32.47,0,0,0,366,343Z"/><polygon class="cls-12" points="847.48 73.56 388 337.3 387.05 723.03 847.48 458.72 847.48 73.56"/><polygon class="cls-13" points="847.88 135.17 387.05 397.81 388 337.3 847.48 73.56 847.88 135.17"/><polygon class="cls-14" points="528.92 299.35 410.29 366.17 410.29 334.44 527.32 269.39 528.92 299.35"/><path class="cls-14" d="M813.1,123.2c-.13,10.08-5,20.77-10.89,23.87s-10.55-2.54-10.42-12.62,5-20.77,10.88-23.88S813.22,113.12,813.1,123.2Z"/><path class="cls-13" d="M365.49,759.23,867.11,469.94l354.75,205a15.38,15.38,0,0,1,0,26.64L760.05,968.48a32.48,32.48,0,0,1-32.5,0Z"/><path class="cls-12" d="M504.33,768.13l-25,14.34L454.1,768.19l25-14.34Z"/><path class="cls-12" d="M541.19,747l-25,14.34L491,747l25-14.35Z"/><path class="cls-12" d="M578.06,725.79l-25,14.34-25.25-14.27,25-14.34Z"/><path class="cls-12" d="M614.93,704.62c-10,5.73-15,8.61-25,14.34L564.7,704.69l25-14.35Z"/><path class="cls-12" d="M651.79,683.45l-25,14.34-25.25-14.27,25-14.35Z"/><path class="cls-12" d="M688.66,662.27l-25,14.35-25.25-14.27,25-14.35Z"/><path class="cls-12" d="M725.53,641.11l-25,14.34L675.3,641.17l25-14.34Z"/><path class="cls-12" d="M762.4,619.93l-25,14.35L712.17,620l25-14.35C747.24,611.37,752.29,614.23,762.4,619.93Z"/><path class="cls-12" d="M799.26,598.76c-10,5.74-15,8.61-25,14.34L749,598.83l25-14.34Z"/><path class="cls-12" d="M836.13,577.6l-25,14.34L785.9,577.66l25-14.34Z"/><path class="cls-12" d="M873,556.43l-25,14.34-25.25-14.28,25-14.34Z"/><path class="cls-12" d="M909.86,535.26l-25,14.34-25.25-14.28,25-14.34Z"/><path class="cls-12" d="M539.77,788.16l-25,14.34-25.25-14.27,25-14.34Z"/><path class="cls-12" d="M576.64,767l-25,14.35-25.25-14.28,25-14.34Z"/><path class="cls-12" d="M613.5,745.82c-10,5.74-15,8.61-25,14.34l-25.25-14.27,25-14.34Z"/><path class="cls-12" d="M650.37,724.65l-25,14.35-25.25-14.28,25-14.34Z"/><path class="cls-12" d="M687.23,703.48c-10,5.74-15,8.61-25,14.34L637,703.55l25-14.34Z"/><path class="cls-12" d="M724.1,682.31c-10,5.74-15,8.61-25,14.34l-25.25-14.27c10-5.74,15-8.6,25-14.35Z"/><path class="cls-12" d="M761,661.14l-25,14.34-25.25-14.27,25-14.34Z"/><path class="cls-12" d="M797.84,640l-25,14.34L747.61,640l25-14.34C782.69,631.4,787.74,634.26,797.84,640Z"/><path class="cls-12" d="M834.71,618.8l-25,14.34-25.25-14.27,25-14.35C819.55,610.24,824.6,613.09,834.71,618.8Z"/><path class="cls-12" d="M871.57,597.63c-10,5.74-15,8.61-25,14.34L821.34,597.7l25-14.35Z"/><path class="cls-12" d="M908.44,576.46l-25,14.34-25.25-14.27,25-14.35C893.28,567.9,898.33,570.75,908.44,576.46Z"/><path class="cls-12" d="M945.3,555.29l-41.87,24.05-25.26-14.28,41.88-24Z"/><path class="cls-12" d="M591.71,798.72l-41.47,23.82L525,808.26c16.6-9.52,24.89-14.29,41.48-23.82Z"/><path class="cls-12" d="M612.08,787l-25,14.34L561.85,787.1l25-14.35Z"/><path class="cls-12" d="M649,765.86,624,780.2c-10.11-5.71-15.16-8.56-25.25-14.28l25-14.34Z"/><path class="cls-12" d="M685.81,744.69c-10,5.74-15,8.61-25,14.34l-25.25-14.27,25-14.35Z"/><path class="cls-12" d="M722.68,723.52c-10,5.73-15,8.6-25,14.34l-25.25-14.27,25-14.35Z"/><path class="cls-12" d="M759.54,702.35l-25,14.34-25.26-14.28c10-5.73,15-8.6,25-14.34Z"/><path class="cls-12" d="M796.41,681.18l-25,14.34-25.25-14.28,25-14.34Z"/><path class="cls-12" d="M833.28,660l-25,14.34-25.25-14.28,25-14.34Z"/><path class="cls-12" d="M870.15,638.84l-25,14.34L819.92,638.9l25-14.34C855,630.27,860.05,633.12,870.15,638.84Z"/><path class="cls-12" d="M907,617.67,882,632l-25.25-14.28,25-14.34Z"/><path class="cls-12" d="M943.88,596.5l-25,14.34-25.25-14.28,25-14.34C928.73,587.93,933.78,590.78,943.88,596.5Z"/><path class="cls-12" d="M980.74,575.33l-25,14.34-25.26-14.28,25-14.34Z"/><path class="cls-12" d="M610.66,828.23l-25,14.35L560.43,828.3l25-14.34Z"/><path class="cls-12" d="M647.52,807.06l-25,14.35c-10.09-5.72-15.15-8.57-25.25-14.28l25-14.34Z"/><path class="cls-12" d="M684.39,785.9l-25,14.33L634.16,786l25-14.34Z"/><path class="cls-12" d="M721.25,764.72l-25,14.35L671,764.79l25-14.34Z"/><path class="cls-12" d="M758.12,743.55c-10,5.74-15,8.61-25,14.34l-25.25-14.27,25-14.34Z"/><path class="cls-12" d="M795,722.38l-25,14.35-25.25-14.28,25-14.35C779.83,713.82,784.89,716.67,795,722.38Z"/><path class="cls-12" d="M831.85,701.21l-25,14.35-25.26-14.28,25-14.34Z"/><path class="cls-12" d="M868.72,680l-25,14.34-25.26-14.27,25-14.34Z"/><path class="cls-12" d="M905.59,658.87l-25,14.34-25.25-14.27,25-14.35Z"/><path class="cls-12" d="M942.46,637.7l-25,14.34-25.25-14.27,25-14.35Z"/><path class="cls-12" d="M995.25,607.39l-40.9,23.49L929.1,616.6,970,593.11Z"/><path class="cls-12" d="M1016.18,595.36l-25,14.34L966,595.43l25-14.34Z"/><path class="cls-12" d="M651,851c-10,5.73-15,8.6-25,14.34L600.77,851.1l25-14.34Z"/><path class="cls-12" d="M687.86,829.87l-25,14.34-25.25-14.27,25-14.34Z"/><path class="cls-12" d="M724.73,808.7c-10,5.73-15,8.6-25,14.34L674.5,808.77l25-14.35Z"/><path class="cls-12" d="M945.93,681.67,736.62,801.87,711.36,787.6,920.68,667.4Z"/><path class="cls-12" d="M982.8,660.51l-25,14.34-25.25-14.28,25-14.34Z"/><path class="cls-12" d="M1019.66,639.33l-25,14.35L969.43,639.4c10-5.73,15-8.6,25-14.34Z"/><path class="cls-12" d="M1056.52,618.17l-25,14.34-25.25-14.28,25-14.33Z"/><polygon class="cls-4" points="774.9 812.15 947.01 712.78 1045.37 773.37 873.32 872.78 774.9 812.15"/><g class="cls-2"><g class="cls-15"><path class="cls-16" d="M599.81,465.49h0m44.76-114.9-54.5,100.65a39.9,39.9,0,0,0,9.74,14.25h0l.38-.72,17.59-32.69L642.3,463.5l12.24-22.75-24.29-31.62,12.28-22.68,14.94,19.33L669.78,383l-25.21-32.42"/><path class="cls-16" d="M648.85,523.78l-29.63,17.11s-2.65,1.49-.63,5.31c0,0,7.27,16.08,15.51,11.32s15.39-29.16,15.39-29.16c2-6.1-.64-4.58-.64-4.58"/><path class="cls-17" d="M634.19,291.61c-35.24,20.35-63.68,80.77-63.53,135,.07,23.36,8.11,47.73,18.11,57.85l11-19a39.9,39.9,0,0,1-9.74-14.25c-9.76-22.92-7.17-60.46,8-93.75,9.39-20.53,22.38-36.56,36-44.41,26.39-15.24,50.11,5.57,50.23,48.06.1,20.91-5.39,44.15-15.18,64.3l11.35,6.17.06-.14c11.28-24.26,17.79-51.71,17.71-78.53-.15-54.22-30.41-80.77-64.08-61.33"/><path class="cls-17" d="M661.31,489.89,607,521.27v.08l-.37.21v.08l-.26.15c-.41.51-.81,1.05-1.19,1.61a11.22,11.22,0,0,0-1,2.21,10.66,10.66,0,0,0-.57,3.58v3.21a6.13,6.13,0,0,0,.22,1.48,3.8,3.8,0,0,0,.58,1.32,1.87,1.87,0,0,0,1,.83,7,7,0,0,0,1,.12l.26-.15v.08l.37-.21V536l54.34-31.38v-.08l.41-.24v-.07l.21-.12a11.24,11.24,0,0,0,2.24-3.83,10.6,10.6,0,0,0,.56-3.58v-3.2a6.24,6.24,0,0,0-.21-1.5,4.12,4.12,0,0,0-.58-1.32,1.81,1.81,0,0,0-1-.83,7,7,0,0,0-1-.13l-.26.15v-.07l-.36.21v-.07"/><path class="cls-17" d="M661.58,463.94,607,495.43v.08l-.36.22a15.29,15.29,0,0,0-1.2,1.49,12.73,12.73,0,0,0-1.14,2.31,7.76,7.76,0,0,0-.32,1.07,3.78,3.78,0,0,0-.1.46c0,.16-.08.31-.11.46-.06.57-.09,1.12-.1,1.66v3.29a6.11,6.11,0,0,0,.06.86,1.75,1.75,0,0,0,.05.33,2.57,2.57,0,0,1,0,.33c0,.11.12.25.16.4s.07.23.11.34a3.77,3.77,0,0,0,.39.59,2.13,2.13,0,0,0,2.09.92l.27-.15v.07l.41-.24V510l54.07-31.22v-.09l.47-.27v-.07l.26-.15a10.6,10.6,0,0,0,2.26-3.88c.11-.35.19-.67.28-1,0-.15.08-.31.11-.46s.07-.31.1-.46a14.15,14.15,0,0,0,.09-1.7v-3.29a5.88,5.88,0,0,0-.27-1.53,3.41,3.41,0,0,0-.63-1.31,2,2,0,0,0-1-.68,3.65,3.65,0,0,0-1.1-.05l-.32.18v-.08"/></g></g><path class="cls-18" d="M927.48,328.31s-7.14,5.06-8.63,18.15,3.87,17.56,5.95,17.26l2.09-.3-.6,11,12.2-.59S941.17,336.35,927.48,328.31Z"/><path class="cls-18" d="M890.58,526.48s3.28,43.15,4.77,55.94,12.49,76.77,12.49,76.77-26.48,9.82-21.13,12.2,27.38,3.57,30.06-.89,1.48-39.58,2.68-58.92-4.77-37.79-4.77-37.79L919.45,542Z"/><path class="cls-18" d="M929.86,539.87S929,567,929,572.31s8.33,52.37,11.3,63.38,7.44,19.93-2.67,23.8-20.24,10.12-11.31,11S951.58,672,954,665.15s-.29-53.86-.29-73.2-3.58-23.51-3.58-23.51l13.4-36.3Z"/><path class="cls-4" d="M934.32,370.56s-38.67-1.19-39.27,14.29,5.35,40.46,6.84,53-1.49,26.48-6.84,44-16.37,47.9-13.1,51.77,19.64,12.5,41.36,12.5,50.89-14,50.89-14,.59-31.84-8-51.18-17-25.29-15.47-34.22,7.14-25,13.09-36.9,6.85-27.37-2.08-33.62S934.32,370.56,934.32,370.56Z"/><path class="cls-18" d="M876.9,395l-.6-4.76s-1.19-7.74-2.38-10.71-3-6.84-3.27-3.87-2.38,4.17-3.27,2.38-6.55-11-6-5.35,1.19,10.41,4.76,16.66,6.85,8.93,6.85,8.93Z"/><path class="cls-19" d="M942.36,320.57c-8.49-1.58-22.91,5.36-19.94,17.26s15.77,16.67,11.9,25.59-20.82,26.78-16.07,41.06,11,25.59,26.19,18.75,22.91-19,21.72-31.84-8.92-19.34-6.25-29.75S968,325.34,942.36,320.57Z"/><path class="cls-20" d="M901,385.14c-2.83-3.45-12.8,15.77-12.8,15.77l-12.49-9.81-3.58,5.35s8.93,16.37,17.56,17S913.2,400,901,385.14Z"/><polygon class="cls-6" points="826.87 358.01 863.37 336.69 874.37 370.54 839.85 393.15 826.87 358.01"/><polygon class="cls-10" points="904.27 378.6 874.37 370.54 839.85 393.15 874.37 405.1 904.27 378.6"/><polygon class="cls-6" points="872.13 390.14 881.64 382.83 890.37 385.71 881.36 392.96 872.13 390.14"/><polygon class="cls-21" points="839.85 395.81 839.85 393.15 874.37 405.1 874.37 407.29 839.85 395.81"/><polygon class="cls-22" points="904.27 381.14 904.27 378.6 874.37 405.1 874.37 407.29 904.27 381.14"/><path class="cls-18" d="M854.58,409.84l-.6-4.76s-1.19-7.74-2.38-10.71-3-6.85-3.27-3.87-2.38,4.17-3.27,2.38-6.55-11-5.95-5.36,1.18,10.42,4.76,16.67,6.84,8.92,6.84,8.92Z"/><path class="cls-23" d="M904.27,378.6s-5.95-9.53-12.5,9.22-14,39.87-14,39.87L856.66,406l-7.14,5.65s22,38.39,30.35,38.39,19-21.13,22.91-32.43S909.92,383.36,904.27,378.6Z"/><path class="cls-7" d="M904.87,666.93c-4.26.53-10.18.82-11.38-1.69-5.16,2.51-9.18,5.08-6.78,6.15,5.36,2.38,27.38,3.57,30.06-.89.8-1.33,1.25-5.4,1.53-11C915.86,661.36,908.77,666.44,904.87,666.93Z"/><path class="cls-7" d="M945,663.06c-5.66,1.19-12.8,4.76-13.39,1.49a3.83,3.83,0,0,0-1-2c-6.87,3.48-11.12,7.26-4.32,7.94,8.92.89,25.29,1.49,27.67-5.35a33.94,33.94,0,0,0,.86-7.78C952.07,659.64,948.22,662.39,945,663.06Z"/><polygon class="cls-24" points="830.87 359.39 862.23 341.04 872.03 369.71 841.37 388.99 830.87 359.39"/><path class="cls-25" d="M1085.45,372.81s-5,16.94-6.16,28.49,2.31,59.1,2.89,74.12,7.7,42.54,7.7,42.54-19.25,18.67-11.17,17.9,26.76-11.74,26.76-11.74-.38-57.37-1-65.84,6.54-64.87,6.54-64.87Z"/><path class="cls-25" d="M1109.51,386.86s-2.69,58.33-2.31,70.46,7.51,49.28,9.24,61.41,4.43,24.83,4.43,24.83-19.44,10-12.13,13.09,20.41-6.35,24.07-8.27l3.65-1.93-.57-77.2s3.27-31,6.93-46.39,3.27-33.3,3.27-33.3Z"/><path class="cls-6" d="M1095.88,297s-19.09,54.49-30.06,43.33-5.78-15.6-.77-27.72,11.74-26.17,11.74-26.17l5.77,4S1075.67,317,1095.88,297Z"/><path class="cls-26" d="M1103.55,273.1s-19.83,4.82-22.53,19.64,3.08,26.36,5,37.72-.39,28.87-2.12,34.65-2.5,9.05-2.5,9.05,4.27,7.48,16,14.79,19.22,12.16,32.69,9.85,16.94-8.66,16.94-8.66-6.35-23.87-6.35-30.61,5.78-15.21,6.54-31.57,3.08-20.22-6.54-31S1109.51,272.72,1103.55,273.1Z"/><path class="cls-27" d="M1077.75,288.5s.77-13.85,4.43-18.47,5-2.51,4.43-.78L1086,271s6.16,2.69,4.62,7.51-9.44,12.12-9.44,12.12Z"/><path class="cls-13" d="M1053.21,369c-.11-1.32-.26-2.62-.42-3.9v0L1124.43,238s19.49,17.4,33.47-4.64,12.49-51.86,12.49-51.86-19.46,41.84-29.91,32.15c-9-8.38-17.15-40.52-17.15-40.52s-1.89-27.94,20.55-55.75c0,0-21.32-8.62-32.65,26.94s-3.08,59.5-3.08,59.5l-72,124.23c-3.71-2.75-7.76-3.81-11.86-2.73-13.52,3.55-22.49,28.85-20,56.51s15.38,47.2,28.9,43.65S1055.66,396.66,1053.21,369Zm-42.72,11.22c-1.82-20.62,4.87-39.49,15-42.14S1045.17,350,1047,370.63s-4.87,39.49-15,42.14S1012.31,400.84,1010.49,380.22Z"/><path class="cls-28" d="M1013.86,396.32a66,66,0,0,1-3.37-16.1c-1.82-20.62,4.87-39.49,15-42.14,5.93-1.55,11.71,2.86,15.83,10.95l89.1-153.69a224.72,224.72,0,0,1-7-22.18s-1.89-27.94,20.55-55.75c0,0-21.32-8.62-32.65,26.94s-3.08,59.5-3.08,59.5l-72,124.23c-3.71-2.75-7.76-3.81-11.86-2.73-13.52,3.55-22.49,28.85-20,56.51a87,87,0,0,0,4.88,22.58Z"/><path class="cls-29" d="M1107.59,275.8s-4,14.63,3.46,14.82,12.32-2.69,12.9-6.93-.38-16.17-.38-16.17Z"/><path class="cls-27" d="M1102,252.31a45.49,45.49,0,0,0-1.54,15.4c.76,7.71,3.08,18.1,12.12,11.94s12.71-15.79,7.32-22.71S1104.32,251.74,1102,252.31Z"/><path class="cls-19" d="M1111.25,244.42c-5.6-.25-15,5.58-13.48,10s4,1.73,12.13,3.08,10.2,3.66,10,7.32,1.15,7.31,3.66,5,6.16-15.2,1.15-20.6S1115.48,244.61,1111.25,244.42Z"/><path class="cls-6" d="M1137.43,312c-5.91-2.2-14.06,8.08-18.87,23.1s-5.77,15.21-5.77,15.21l-34.66-13.67L1076,347.4s34.65,28.49,47.74,24.64,17.9-27,19.83-39.08S1144.16,314.48,1137.43,312Z"/><path class="cls-27" d="M1080.83,339.51l-5.2-4.62s-2.12-12.71-4.43-12.32-1.15,9-1.15,9-7.12-10-9.62-7.31-1.35,11.93,4.81,14.82,8.27,2.89,8.27,2.89l4.24,5.39Z"/><path class="cls-25" d="M283.28,790.55s-7.36,2.9-6,20.06,6.46,41.24,6.46,49.26,2.23,57.29,2.9,74,1.56,30.54,6,30.54,20.73.66,16.27-2.46a96.16,96.16,0,0,0-11.59-6.46l7.58-64,3.34-86.7Z"/><path class="cls-30" d="M345.69,672.41s3.12-1.34,3.12-2.9-.22-8.25,1.34-6.91,1.56,4,1.56,4,5.8-3.34,7.35-1.56-10.69,12-10.69,12Z"/><path class="cls-4" d="M319.39,695.26c.56,1.86.33,4.68,9.69-2.68s22.07-15.38,22.07-15.38l-5.68-6.35S316,684.22,319.39,695.26Z"/><polygon class="cls-10" points="379.7 538.73 429.35 559.52 360.83 834.24 316.18 808.85 379.7 538.73"/><path class="cls-24" d="M301.48,797.81s-4.24,8.28-4.11,23.79c.13,17.11,8,18.88,6.41,52.54-1,21.85.67,54.39,1.12,59.07s3.79,43.47,9.58,43.91,24.08-2,18.95-5.13-14.71-4-14.71-4,15.6-81.8,18.72-99.64,6.69-50.82,5.8-57.73l-.89-6.91Z"/><polygon class="cls-31" points="323.06 687.23 319.72 704.95 313.37 702.95 317.71 686.23 323.06 687.23"/><path class="cls-32" d="M329.08,650.45s6.69,6,6,12.37-4.68,28.42-11.7,28.42-7.69-3.68-7-10S329.08,650.45,329.08,650.45Z"/><path class="cls-4" d="M333.1,707.63c-7.22-4.81-42.8-21.73-51.16-12s-5.35,27.42.67,47.81,10,28.42,5,36.45a119.75,119.75,0,0,1-8.36,12s6.69,8.69,25.75,15,33.77,6.69,37.45.34-10.37-33.44-12-39.12l-1.67-5.69s14.71-6.68,15.71-15.38S337.11,710.3,333.1,707.63Z"/><path class="cls-30" d="M390.06,699s13.06-7.78,7.3-17.22c-2.32-3.81-5.72,7.07-5.72,7.07s.7-6.31-1-4.63-2.39,11.32-2.39,11.32Z"/><path class="cls-4" d="M331.09,711.64c-4.15,2.18-1,20.73,14.38,19.06s23.07-3.68,28.75-9,18.06-24.07,18.06-24.07l-4-5-23.09,19S337.44,708.3,331.09,711.64Z"/><path class="cls-19" d="M325.85,645.44c-7.51-4.54-24.52-5.8-27.19,6.69s-1.34,19.16-4.91,25.85-18.28,44.58-13.37,56.17,19.17,29,34.77,19.17,10.7-15.15,5.8-34.32-7.14-21.85-1.34-30.76S345,657,325.85,645.44Z"/><path class="cls-11" d="M263.34,802.37c0,19.15-37.83,34.67-84.5,34.67s-84.5-15.52-84.5-34.67,37.83-34.67,84.5-34.67S263.34,783.23,263.34,802.37Z"/><path class="cls-10" d="M224.09,689.21l-68.91,23.14v86.72c0,17.55,23.36,31.78,52.17,31.78s52.18-14.23,52.18-31.78V712.35Z"/><ellipse class="cls-33" cx="207.35" cy="712.35" rx="52.18" ry="31.78"/><path class="cls-34" d="M162.94,729c9.19,9.06,25.64,15.1,44.41,15.1s35.23-6,44.42-15.1a17.34,17.34,0,0,0,1-5.71c0-15.27-20.32-27.65-45.39-27.65S162,708.05,162,723.32A17.35,17.35,0,0,0,162.94,729Z"/><path class="cls-35" d="M207.35,684.23c26.3,0,48.52,12.87,48.52,28.12s-22.22,28.13-48.52,28.13-48.52-12.88-48.52-28.13,22.22-28.12,48.52-28.12m0-3.66c-28.81,0-52.17,14.23-52.17,31.78s23.36,31.78,52.17,31.78,52.18-14.22,52.18-31.78-23.36-31.78-52.18-31.78Z"/><path class="cls-12" d="M251.7,565.92c-4.37,9.28-4.43,19.93-4.4,30.18q0,17.29.08,34.58c0,13.12,0,26.44-3.54,39.07s-11.26,24.69-23,30.52c-5.83,2.89-13.15,4-18.65.56a19.61,19.61,0,0,1-5.86-6.26c-13.25-20.76-1-48.66,8.53-68.59A176,176,0,0,1,251.7,565.92Z"/><path class="cls-12" d="M152.65,660.69c-3.27-43.05-1.07-86.91-11.62-128.77a173.45,173.45,0,0,1,38,126.77c9.53-29.76,19.16-60.12,19-91.37-.09-14.93,9.1-50.18,9.1-50.18s5.41,33.72,10.38,50.11c3.39,11.19,4.08,23,4.75,34.66L225.19,653c14.17-42.82,52.1-101.82,52.1-101.82s-14,112.5-21.37,138.24c-8.4,29.19-35.73,49.05-67,42.14C160.41,725.28,154.44,684.34,152.65,660.69Z"/><path class="cls-36" d="M174.87,703.11c-6-16.36-.42-34.35,3.3-51.36,4.43-20.28,6.19-41.5,1.67-61.76a927.42,927.42,0,0,1,39.47,97.23c2.92,8.56,5.73,17.88,2.95,26.49-2.62,8.12-17.29,22.46-27,20.06C187.58,731.88,177.48,710.29,174.87,703.11Z"/><polygon class="cls-29" points="530.65 515.6 517.79 525.36 507.09 515.26 512.08 514.97 513.47 501.96 524.57 501.96 526.97 514.64 530.65 515.6"/><path class="cls-27" d="M565.08,531s-6.16-20.66-10.92-18.83-8,7.83-3,11.5,10.29,8.67,10.29,8.67Z"/><path class="cls-37" d="M532.41,520s7.09-.61,12.33,11.34,12.85,33.33,14.18,30.33-1.18-30.33-1.18-30.33l9-3s17.87,59.07.34,61.23C544.74,592.31,506.08,553.31,532.41,520Z"/><path class="cls-7" d="M539.66,784.31s8.5,2.2,12,6.2,3.75,6.21,3.75,6.21l-30-1.75V784.31Z"/><path class="cls-38" d="M537.08,607.64s11,51.33,10.33,89.33-7.75,87.34-7.75,87.34H525.41s3.67-61-3-88.34-16.67-88.33-16.67-88.33Z"/><path class="cls-7" d="M464.91,784.31s-2,3.66,0,4.91,22.75,13.75,10.25,12.5c-10.52-1.05-25-5-25-5l4.75-15Z"/><path class="cls-39" d="M523.08,600.64s9,45-8.34,86.33-49.33,99.34-49.33,99.34l-12-2.34s29.33-83.33,33.67-102-2.19-73.27-2.19-73.27Z"/><path class="cls-26" d="M507.73,515s5.28,6.56,12.73,4.9,8.28-4.9,8.28-4.9,7.67.67,10.34,15.34,3.88,90.3,3.88,90.3l-62.81-2.27S478.72,520.31,507.73,515Z"/><polygon class="cls-13" points="560.45 554.83 540.93 534.31 547.44 529.3 567.82 546.64 560.45 554.83"/><path class="cls-40" d="M575.24,523.81s6.83,5,2.44-2.94c-3-5.39-18.4-27.67-18.75-20.86s12.54,23,15.64,23.63"/><path class="cls-41" d="M575.19,512.5a7.37,7.37,0,1,1-7.37-7.37A7.37,7.37,0,0,1,575.19,512.5Z"/><path class="cls-13" d="M538.24,535.31s10-11.79,14.31-20.9c2.66-5.61,6.76-15.3,6.76-15.3s6.38,16.7,19,26c0,0-24.29,8.67-33.55,17.5Z"/><path class="cls-27" d="M544.74,557.64s4-18.9,9.42-17.33c10.92,3.16-4.71,21.33-4.71,21.33Z"/><path class="cls-6" d="M507.73,522.31c-6.23-6.5-23.25,7.33-27,33.66-3.22,22.65,6.44,39.53,42.67,28,22-7,30.75-20.5,30.75-20.5l-9.42-10.16s-23,17-32.66,12.66S519.58,534.68,507.73,522.31Z"/><path class="cls-27" d="M505.58,469.77c10.24-4.7,22.43,3.24,24.4,13.72s12.27,20.55-5.19,26.66S489.86,477,505.58,469.77Z"/><path class="cls-19" d="M524.35,459.94s7,15.71-.46,19.64-18.74,6.58-16.57,10c3.37,5.33,3.83,7.17,3.83,7.17l-1.14,1-5.45-2.69,5,9.93s-27.19-11.75-10.07-34.18C507.78,459.94,523.89,469.37,524.35,459.94Z"/></g></g></svg>