<?xml version="1.0" encoding="UTF-8"?>
<svg xmlns="http://www.w3.org/2000/svg" xmlns:xlink="http://www.w3.org/1999/xlink" width="512pt" height="512pt" viewBox="0 0 512 512" version="1.1">
<defs>
<clipPath id="clip1">
  <path d="M 55.597656 56.460938 L 448.234375 56.460938 L 448.234375 449.097656 L 55.597656 449.097656 Z M 55.597656 56.460938 "/>
</clipPath>
</defs>
<g id="surface1">
<g clip-path="url(#clip1)" clip-rule="nonzero">
<path style=" stroke:none;fill-rule:nonzero;fill:rgb(0%,32.156863%,63.921569%);fill-opacity:1;" d="M 345.835938 224.433594 C 346.464844 259.0625 330.601562 282.542969 325.574219 290.710938 C 321.257812 297.777344 310.8125 311.519531 290.789062 332.800781 C 265.5 359.65625 186.582031 443.523438 181.320312 449.097656 L 395.386719 449.097656 L 345.992188 224.351562 Z M 365.546875 339.082031 L 367.351562 347.09375 C 346.148438 370.023438 313.71875 387.140625 275.945312 387.140625 C 267.859375 387.140625 259.375 386.355469 250.03125 384.394531 C 251.917969 382.351562 253.800781 380.386719 255.449219 378.582031 C 261.496094 379.679688 268.40625 380.386719 275.554688 380.386719 C 312.226562 380.464844 344.34375 363.898438 365.546875 339.082031 M 55.597656 56.460938 L 55.597656 449.097656 L 172.761719 449.097656 L 288.667969 325.8125 L 288.511719 325.652344 C 269.898438 338.769531 246.183594 345.914062 220.742188 345.914062 C 173.46875 345.914062 131.847656 317.878906 113.785156 283.011719 L 113.628906 283.171875 L 138.207031 366.175781 L 131.535156 366.175781 C 131.535156 366.175781 119.363281 324.160156 108.917969 287.488281 C 101.066406 259.769531 96.195312 239.195312 96.273438 220.976562 C 96.511719 158.234375 145.824219 100.75 211.394531 96.511719 C 213.203125 96.351562 218.777344 95.804688 227.101562 95.804688 C 277.59375 95.804688 433.316406 96.980469 448.3125 97.058594 L 448.3125 56.460938 Z M 193.492188 348.425781 C 202.914062 356.59375 217.757812 366.800781 236.210938 373.398438 C 234.640625 375.046875 232.992188 376.855469 231.183594 378.738281 C 212.808594 371.4375 194.828125 360.128906 180.769531 344.972656 C 184.777344 346.308594 189.09375 347.484375 193.492188 348.425781 M 256.628906 101.851562 C 275.945312 107.269531 294.164062 117.242188 308.613281 130.671875 C 304.453125 129.570312 300.210938 128.628906 295.890625 128 C 275.632812 111.980469 249.167969 102.398438 221.605469 102.398438 C 156.425781 102.398438 103.027344 155.5625 103.027344 220.898438 C 103.027344 286.234375 156.191406 339.394531 221.527344 339.394531 C 286.863281 339.394531 340.023438 286.234375 340.023438 220.898438 C 340.023438 195.613281 330.523438 170.328125 317.410156 152.5 C 320.550781 153.441406 324.320312 155.011719 328.714844 157.605469 C 337.589844 171.03125 345.757812 192.941406 352.824219 226.550781 C 360.207031 261.8125 398.136719 430.722656 402.296875 449.019531 L 448.234375 449.019531 L 448.234375 102.871094 L 256.628906 101.691406 Z M 124.703125 218.148438 C 124.703125 202.289062 136.714844 191.765625 152.972656 191.765625 C 159.332031 191.765625 166.558594 193.726562 170.640625 195.457031 C 169.777344 197.339844 169.070312 199.773438 168.835938 201.34375 L 168.363281 201.5 C 165.222656 198.046875 160.195312 195.0625 152.734375 195.0625 C 143.3125 195.0625 132.398438 202.757812 132.398438 217.992188 C 132.398438 232.835938 143.46875 240.765625 153.441406 240.765625 C 162.316406 240.765625 166.636719 236.605469 170.484375 233.382812 L 170.796875 233.699219 L 169.699219 239.507812 C 167.96875 240.84375 161.84375 244.613281 152.65625 244.613281 C 136.011719 244.535156 124.703125 234.089844 124.703125 218.148438 M 163.652344 316.859375 C 154.855469 298.953125 150.851562 280.816406 150.378906 263.539062 C 152.578125 263.539062 155.171875 263.617188 157.449219 263.617188 C 158.234375 280.1875 162.003906 300.839844 174.960938 323.296875 C 170.246094 321.570312 166.714844 319.292969 163.652344 316.859375 M 210.847656 243.59375 C 208.175781 243.4375 204.484375 243.355469 201.03125 243.277344 C 198.988281 243.277344 197.105469 243.199219 195.535156 243.199219 L 194.90625 243.199219 C 190.429688 243.199219 183.519531 243.355469 179.042969 243.59375 C 179.355469 237.152344 179.671875 230.792969 179.671875 224.433594 L 179.671875 211.789062 C 179.671875 205.429688 179.355469 199.066406 179.042969 192.785156 C 183.441406 193.019531 190.273438 193.179688 194.75 193.179688 C 199.222656 193.179688 207.390625 193.019531 209.984375 192.785156 C 209.902344 193.492188 209.824219 194.277344 209.824219 195.296875 C 209.824219 196.320312 209.902344 197.339844 209.984375 197.8125 C 205.113281 197.417969 196.476562 196.867188 186.894531 196.867188 C 186.816406 200.011719 186.660156 213.4375 186.660156 215.324219 C 195.375 215.324219 200.953125 214.929688 205.269531 214.617188 C 205.113281 215.324219 205.035156 216.65625 205.035156 217.441406 C 205.035156 218.148438 205.113281 219.25 205.269531 220.035156 C 200.167969 219.484375 188.78125 219.40625 186.660156 219.40625 C 186.503906 221.839844 186.660156 237.78125 186.738281 239.195312 C 192.15625 239.117188 205.898438 238.722656 210.925781 238.253906 C 210.847656 238.800781 210.769531 239.980469 210.769531 241.078125 C 210.769531 242.179688 210.691406 242.808594 210.847656 243.59375 M 254.117188 243.355469 C 253.410156 243.355469 250.894531 243.355469 249.480469 243.59375 C 246.578125 239.195312 237.230469 225.136719 230.871094 218.621094 C 230.714844 218.621094 227.101562 218.621094 227.101562 218.621094 L 227.101562 224.511719 C 227.101562 230.871094 227.414062 237.230469 227.730469 243.59375 C 226.472656 243.355469 224.195312 243.355469 223.726562 243.355469 C 223.253906 243.355469 220.976562 243.355469 219.71875 243.59375 C 220.035156 237.230469 220.347656 230.871094 220.347656 224.511719 L 220.347656 211.867188 C 220.347656 205.507812 220.035156 199.144531 219.71875 192.785156 C 222.546875 193.019531 226.082031 193.179688 228.90625 193.179688 C 231.734375 193.179688 234.484375 192.785156 237.308594 192.785156 C 245.632812 192.785156 253.25 195.21875 253.25 204.484375 C 253.25 214.300781 243.515625 217.835938 237.859375 218.542969 C 241.472656 223.019531 254.429688 238.800781 258.671875 243.59375 C 257.257812 243.355469 254.742188 243.355469 254.117188 243.355469 M 309.871094 244.300781 L 307.4375 244.300781 C 304.453125 240.292969 273.589844 208.019531 270.839844 205.191406 C 270.761719 207.941406 270.761719 213.59375 270.761719 219.09375 C 270.761719 226.394531 271.3125 237.625 271.628906 243.59375 C 270.839844 243.4375 269.742188 243.355469 268.484375 243.355469 C 267.152344 243.355469 266.128906 243.515625 265.265625 243.59375 C 265.894531 235.820312 266.050781 223.175781 266.050781 211.238281 C 266.050781 201.972656 265.894531 196.867188 265.816406 192.15625 L 268.25 192.15625 C 271.390625 195.535156 302.097656 227.414062 304.84375 230.242188 C 304.921875 227.496094 304.921875 222.703125 304.921875 217.207031 C 304.921875 209.902344 304.371094 198.675781 304.058594 192.707031 C 304.84375 192.863281 305.945312 192.941406 307.199219 192.941406 C 308.535156 192.941406 309.554688 192.863281 310.417969 192.707031 C 309.792969 200.480469 309.632812 213.125 309.632812 225.058594 C 309.632812 234.328125 309.792969 239.585938 309.871094 244.300781 M 373.320312 178.964844 C 386.984375 195.769531 398.136719 222.3125 399.707031 244.613281 L 399.941406 244.613281 L 411.328125 126.742188 L 417.765625 126.742188 C 417.765625 126.742188 410.464844 202.914062 406.222656 240.84375 C 400.882812 288.273438 394.128906 307.984375 381.171875 328.636719 L 379.210938 319.605469 C 389.261719 301.859375 392.167969 286.46875 393.5 278.300781 C 397.585938 252.9375 391.773438 218.308594 374.105469 191.292969 C 354.316406 161.058594 318.902344 138.757812 275.476562 138.757812 C 239.824219 138.757812 208.804688 154.464844 187.132812 178.886719 L 181.871094 174.722656 C 204.800781 148.730469 238.097656 132.160156 275.476562 132.160156 C 314.660156 132.242188 349.527344 149.832031 373.320312 178.964844 M 246.183594 205.507812 C 246.183594 198.203125 239.746094 195.847656 234.796875 195.847656 C 231.421875 195.847656 229.222656 196.082031 227.652344 196.242188 C 227.414062 201.660156 227.179688 206.605469 227.179688 211.867188 L 227.179688 215.949219 C 227.886719 216.03125 231.34375 216.03125 232.128906 216.03125 C 238.175781 215.792969 246.183594 213.910156 246.183594 205.507812 "/>
</g>
</g>
</svg>
