<?xml version="1.0" encoding="UTF-8"?>
<svg xmlns="http://www.w3.org/2000/svg" xmlns:xlink="http://www.w3.org/1999/xlink" width="600pt" height="580pt" viewBox="0 0 600 580" version="1.1">
<g id="surface1">
<path style=" stroke:none;fill-rule:evenodd;fill:rgb(5.490196%,53.333333%,82.745098%);fill-opacity:1;" d="M 138.679688 92.0625 L 125.582031 118.679688 L 170.890625 128.765625 L 183.769531 102.363281 Z M 193.644531 104.730469 L 180.757812 131.34375 L 226.070312 141.644531 L 238.722656 115.238281 Z M 340.703125 138.636719 L 328.039062 165.25 L 373.347656 175.769531 L 386.222656 149.15625 Z M 395.882812 151.523438 L 383.003906 178.128906 L 428.515625 188.4375 L 441.179688 162.03125 Z M 395.882812 151.523438 "/>
<path style=" stroke:none;fill-rule:evenodd;fill:rgb(5.490196%,53.333333%,82.745098%);fill-opacity:1;" d="M 345.21875 323.4375 C 342.640625 323.4375 340.28125 324.511719 338.136719 326.449219 C 336.410156 328.164062 335.128906 330.949219 335.128906 333.738281 C 335.128906 336.535156 336.410156 338.894531 338.136719 341.039062 C 340.28125 342.753906 342.640625 344.046875 345.21875 344.046875 C 348.226562 344.046875 351.015625 342.753906 352.730469 341.039062 C 354.875 338.894531 355.738281 336.535156 355.738281 333.738281 C 355.738281 330.949219 354.875 328.164062 352.730469 326.449219 C 351.015625 324.511719 348.226562 323.4375 345.21875 323.4375 Z M 326.535156 349.414062 L 326.535156 361.648438 L 398.890625 361.648438 C 389.011719 363.792969 380.21875 368.515625 373.769531 375.164062 C 370.339844 378.605469 367.117188 383.96875 364.109375 390.839844 C 362.816406 393.839844 361.746094 396.847656 360.460938 400.277344 C 381.5 400.5 394.597656 401.351562 400.394531 403.496094 C 404.253906 405 407.695312 407.144531 411.347656 409.722656 C 415.851562 413.152344 418.214844 416.382812 418.855469 419.601562 L 376.347656 419.601562 L 361.964844 433.984375 L 411.777344 433.984375 C 426.367188 423.03125 433.457031 414.015625 433.457031 406.714844 C 433.457031 403.496094 431.957031 400.5 429.378906 397.921875 C 423.582031 392.125 415.847656 388.472656 406.191406 386.757812 C 401.257812 385.894531 392.453125 385.253906 379.996094 385.253906 C 381.710938 382.898438 383.648438 379.890625 385.152344 377.101562 C 387.730469 373.882812 390.085938 372.378906 392.882812 372.378906 C 399.320312 372.378906 410.273438 376.667969 424.863281 385.042969 L 439.464844 370.230469 C 433.890625 366.800781 428.09375 363.792969 422.71875 361.648438 L 593.195312 361.648438 L 593.195312 349.414062 Z M 336.414062 371.515625 L 336.414062 433.984375 L 354.234375 433.984375 L 354.234375 371.515625 Z M 447.839844 371.515625 L 447.839844 433.984375 L 465.871094 433.984375 L 465.871094 391.480469 C 470.59375 389.542969 475.316406 388.261719 480.261719 388.261719 C 485.195312 388.261719 489.066406 389.769531 492.066406 392.125 C 495.71875 395.984375 497.21875 402.003906 496.578125 410.15625 L 511.820312 395.34375 C 512.25 387.621094 510.316406 381.601562 506.457031 377.742188 C 503.226562 374.734375 499.367188 373.019531 494.433594 373.019531 C 489.710938 373.019531 484.34375 374.523438 478.757812 377.742188 C 473.601562 380.097656 469.3125 383.539062 465.871094 386.96875 L 465.871094 371.515625 Z M 521.046875 371.515625 L 521.046875 418.097656 C 521.046875 418.097656 521.480469 427.113281 527.496094 431.617188 C 531.566406 434.195312 537.363281 433.984375 537.363281 433.984375 L 586.101562 433.984375 L 586.101562 388.261719 C 586.101562 383.75 584.597656 379.886719 582.019531 376.667969 C 579.664062 373.238281 576.445312 371.515625 572.574219 371.515625 Z M 565.023438 387.9375 C 569.683594 387.851562 569.355469 389.085938 569.355469 396.414062 L 569.355469 417.234375 L 541.234375 417.234375 C 541.234375 417.234375 538.4375 417.457031 537.796875 416.59375 C 536.945312 415.519531 537.363281 414.234375 537.363281 408.007812 L 537.363281 388.042969 L 562.707031 388.042969 C 563.59375 387.992188 564.359375 387.949219 565.023438 387.9375 Z M 565.023438 387.9375 "/>
<path style=" stroke:none;fill-rule:evenodd;fill:rgb(95.686275%,44.705882%,8.627451%);fill-opacity:1;" d="M 150.273438 337.386719 L 313.226562 7.0625 L 312.152344 573.707031 L 267.285156 196.808594 L 150.273438 337.386719 "/>
<path style=" stroke:none;fill-rule:evenodd;fill:rgb(95.686275%,44.705882%,8.627451%);fill-opacity:1;" d="M 221.332031 315.277344 C 220.289062 315.316406 219.21875 315.390625 218.117188 315.496094 L 212.109375 329.878906 C 229.050781 326.820312 236.285156 331.542969 242.679688 348.980469 L 4.71875 348.980469 L 4.71875 361.425781 L 62.042969 361.425781 L 62.042969 368.515625 C 62.042969 368.515625 39.277344 359.5 19.960938 376.878906 C 4.71875 394.480469 17.59375 411.660156 17.59375 411.660156 C 17.59375 411.660156 30.050781 404.789062 49.796875 408.007812 C 68.257812 411.226562 67.40625 420.023438 67.40625 420.023438 C 67.40625 420.023438 64.828125 430.972656 50.015625 428.828125 C 35.203125 426.460938 36.277344 411.660156 36.277344 411.660156 L 19.960938 422.601562 C 19.960938 422.601562 26.160156 433.152344 40.121094 436.527344 L 52.59375 455.234375 L 71.058594 455.234375 L 56.816406 436.832031 C 58.429688 436.546875 60.09375 436.179688 61.820312 435.699219 C 97.671875 426.253906 85.007812 399.203125 58.390625 392.125 C 39.917969 387.402344 19.960938 396.414062 19.960938 396.414062 C 19.960938 396.414062 22.53125 373.660156 55.59375 379.035156 C 74.054688 382.242188 80.714844 389.765625 80.714844 389.765625 L 80.714844 361.425781 L 117.722656 361.425781 L 102.1875 368.726562 C 102.1875 368.726562 110.128906 377.53125 112.917969 389.113281 C 115.285156 401.136719 110.128906 403.285156 106.910156 403.496094 C 104.765625 402.003906 94.675781 387.621094 94.675781 387.621094 L 87.585938 393.839844 L 113.136719 433.984375 L 131.167969 433.984375 C 131.167969 433.984375 114.640625 414.019531 112.0625 410.367188 C 116.296875 410.222656 122.128906 408.871094 125.960938 403.691406 C 128.636719 405.085938 131.886719 406.222656 135.679688 406.503906 C 147.050781 407.578125 154.144531 402 154.144531 402 L 154.144531 433.984375 L 172.816406 433.984375 L 172.816406 361.425781 L 213.226562 361.425781 L 197.507812 368.726562 C 197.507812 368.726562 205.878906 377.53125 208.246094 389.113281 C 210.601562 401.136719 205.671875 403.285156 202.230469 403.496094 C 200.515625 402.003906 189.996094 387.621094 189.996094 387.621094 L 182.90625 393.839844 L 208.246094 433.984375 L 226.488281 433.984375 C 226.488281 433.984375 210.394531 414.019531 207.816406 410.367188 C 213.613281 410.15625 223.269531 407.367188 224.984375 393.628906 C 227.488281 375.402344 219.351562 364.578125 216.53125 361.425781 L 238.722656 361.425781 L 238.722656 433.972656 L 257.40625 433.972656 L 257.40625 361.425781 L 267.285156 361.425781 L 267.285156 348.980469 L 253.65625 348.980469 C 245.941406 321.988281 236.519531 314.726562 221.332031 315.277344 Z M 121.019531 361.425781 L 154.144531 361.425781 L 154.144531 382.464844 C 154.144531 382.464844 154.144531 388.265625 142.761719 393.839844 C 137.960938 396.453125 133.035156 397.464844 128.8125 397.746094 C 129.175781 396.492188 129.476562 395.136719 129.664062 393.628906 C 132.167969 375.402344 123.890625 364.578125 121.019531 361.425781 Z M 121.019531 361.425781 "/>
</g>
</svg>
