<svg xmlns="http://www.w3.org/2000/svg" width="2500" height="889" viewBox="76.348 78.461 944.831 336.135"><path fill="#221E1F" stroke="#221E1F" stroke-width=".094" d="M219 81c21.1-3.6 42.9-3.3 64 .9 10.4 1.8 20 6.8 29 12 10.2 6.1 20.6 11.7 31.1 17.1 25.3 16.8 46 40.8 57.8 69 6.7 15.6 10.7 32.3 12.4 49.2 4 22.2 1.8 45.2-5.5 66.5-5.8 21.1-19.1 38.7-29.8 57.398-1.5 2.5-3.6 4.7-5.5 7C358.7 376.7 342.4 391.7 322.2 400c.9-1.2 1.4-2.5 1.6-3.9-2.3.5-4.6 1.102-6.9 1.802 1.3-1.7 3.3-2.602 5.1-3.802 6.6-4.3 12.9-9 18.9-14.1 1-.9 2.4-1.4 2.8-2.8-2.4 1-3.9 3.3-6.1 4.7-31.7 22.9-71.4 35.5-110.6 32.1-40.4-3.3-78.9-22.9-105.9-53.1-18.7-20.7-32.3-46-39.2-73-8.2-31-7.3-64.4 3.1-94.8 6-17.6 14.8-34.3 26.6-48.7 18.5-23.1 42.2-42.5 69.5-54.2 12.6-3.3 25-7.1 37.9-9.2m2 9.5c-28.7 5.1-55.7 18.7-77.6 37.9-23.5 20.5-41.3 47.5-50.7 77.2-3.4 16.9-7 34.1-6.8 51.4 3.6 25.7 11.4 51.3 26 73 10 15 23.3 27.7 38.3 37.5.8.5 1.7.9 2.5 1.2-8.8-6.2-16.3-13.9-24-21.4-25-25.3-39-60.8-38.9-96.3-.2-30.4 9.4-60.7 26.4-85.9 7.3-7.5 12.2-16.9 19.2-24.8 23.1-22.1 52.5-37.2 83.4-45 33.7-5 68.8.7 99.5 15.4 29 13.8 54.2 35.9 70.4 63.7 12.4 21 19.2 45.2 19.8 69.5.4-8.9 1.2-18.1-1.4-26.8-3.2-13.2-6.2-26.7-12.4-38.8-11.1-18.6-22.5-37.6-38.8-52.1-12.4-11-26.9-19.5-42.3-25.6-13.4-3.6-26.9-6.8-40.4-10.2-17.2-3.1-35-2.9-52.2.1m4 23.6c-26.2 6.4-50.3 19.9-70.9 37-5.9 5.6-11.5 11.7-14.7 19.3-.7 1.7-1.1 3.6-2.2 5.2.3 0 .8-.1 1.1-.2 5.7-7.9 11.7-15.6 18.9-22.2 20.3-18.9 47.3-29.9 74.7-32.2 30.9-2.8 62.5 4.9 88.7 21.2 9 5.1 17.4 11.2 24.6 18.7 12.8 13.2 22 29.9 27.3 47.5 5.6 16.2 10.2 33.4 8 50.7-2.9 18.301-3.3 37.4-10.8 54.7-6.4 9.9-12.3 20.102-18.9 29.8-21.5 24.4-49.1 44.4-80.9 52.2-3 .3-5.7 2-8.8 1.7 3.1.7 5.9-1.1 9-1.1 30.8-5.7 59.5-21.602 80.9-44.4 20-21.3 33.5-49 37.1-78.1.1-12 0-23.9 0-35.9.4-6.8-1.5-13.4-3.1-20-8.3-31.5-28.3-59.3-54.2-78.8-7.6-5.6-15.4-11.1-24.2-14.7-25.5-11.1-54.1-13.7-81.6-10.4m-40.6 86.4c-12.3 15.5-18.2 36-15.6 55.6 1.5 11.801 6.1 22.9 12.3 32.9-.8-.6-2.4-1.9-3.2-2.5-1.9-.7-1.9 1.5-1 2.5 4.8 9.4 12.7 16.8 21.1 23.1 7.3 4 14.2 8.802 22 11.9 9.3 3.3 19.1 5.5 29 4.7 11.4-1.102 23-3.102 33.3-8.4 10.7-5.2 19.7-13.5 27.6-22.3 5.6-5.7 6.2-14.1 10.4-20.6 4.7-7.9 5.6-17.4 5.7-26.4.2-9.7-1.8-19.3-4.6-28.5-1.4-6.4-5-12-8.5-17.4-11.3-15.9-27.7-28.6-46.9-33.1-29.7-7.6-62.9 4.4-81.6 28.5zM908.5 145.1c26.8 47.9 53.4 96.1 80.1 144.1 10.802 19.6 21.9 39 32.5 58.7-17.7-.1-35.3.2-52.9-.1-19.7-36-39.9-71.7-59.602-107.7-14.8 25.2-28.898 50.8-43.3 76.1-5.898 10.5-12 20.898-17.7 31.5-17.398.3-34.8.1-52.198.2 10.9-19.6 21.9-39.2 32.8-58.8 26.7-48 53.6-96 80.3-144zM699.5 146.6c15-.3 29.9-.4 44.9 0-.2 41.4-.2 82.7-.2 124.1-.2 10.1 0 20.1-.102 30.2 19.4.1 38.802 0 58.2.1-8.7 15.6-18 31.1-26.7 46.8-25.398.2-50.8.102-76.3 0 .102-31.9.102-63.9.202-95.8-.1-35.2.2-70.3 0-105.4zM499.5 192.4c17.8-28 50.2-46 83.5-46 32.7-.6 65 16.1 83.6 43 12.7 18.1 19.102 40.5 18 62.6-1.3 32.4-19.6 63.4-47.198 80.4C616.2 345.9 589.7 350.8 565 346c-32-5.9-60.2-28.4-73.1-58.2-13.7-30.4-10.8-67.6 7.6-95.4m73 2.2c-14.8 3.2-28.1 13.1-35.4 26.4-6.8 12-8.6 26.7-4.898 40 3.6 13.7 12.898 25.7 25.1 32.7s27.2 8.898 40.7 5.2c13.7-3.7 25.7-13 32.7-25.301 6.898-12.101 8.8-27 5.1-40.5-3.7-13.8-13.2-26-25.8-33C598.7 193.8 585.1 191.9 572.5 194.6z"/><path fill="#D7DF20" stroke="#D7DF20" stroke-width=".094" d="M184.4 200.5c18.7-24.1 51.9-36.1 81.6-28.5 19.2 4.5 35.6 17.2 46.9 33.1 3.5 5.4 7.1 11 8.5 17.4 2.8 9.2 4.8 18.8 4.6 28.5-.1 9-1 18.5-5.7 26.4-4.2 6.5-4.8 14.898-10.4 20.6-7.9 8.8-16.9 17.1-27.6 22.3-10.3 5.3-21.9 7.3-33.3 8.4-9.9.8-19.7-1.4-29-4.7-7.8-3.1-14.7-7.9-22-11.9-8.4-6.3-16.3-13.698-21.1-23.1-.9-1-.9-3.2 1-2.5.8.6 2.4 1.9 3.2 2.5-6.2-10-10.8-21.1-12.3-32.9-2.6-19.6 3.3-40.1 15.6-55.6m36.5-20.4c-1 .4-2.1.9-2.9 1.7 21.9-9.4 48.3-7 68.1 6.2 5.2 4.8 12 7.9 15.7 14.1 7.3 10 13.7 20.9 16.8 32.9 4.9 28.2-7.5 58.5-30.7 75.2-6.2 4.898-13.6 7.898-20.9 10.8-5.4 2-11.4 1.7-16.9 3.4 3.6.1 7.3 1.8 10.9.698 6.4-1.698 13-3.198 19-6.3 10.7-6.5 21.6-13.6 28.6-24.3 1.1-1.899 2.9-3.601 3.1-5.899l.5-.899c.1-.101.3-.4.4-.601 4.2-5.899 4.8-13.301 6.6-20.199 4.2-15 2.4-31.3-3.7-45.5-7.9-18.1-22.9-32.8-40.9-40.8-9.9-4.6-20.9-5.8-31.6-6.3-7.7.4-15 3-22.1 5.8m54.4 16.1c5.8 5.1 11.2 10.5 15.9 16.5 8.9 11.3 15.7 25.5 14 40.2-.9 11-7.1 20.5-12.9 29.5-5.2 7.8-11 15.5-18.5 21.398-3.7 3-8.5 4.2-12.8 6.3-4 1.9-7.7 4.4-12 5.5 6.3 1.302 12.5-1.1 18.3-3.1 15.6-6.1 28.4-18.2 36.3-32.8 6-12.602 7.3-27 5.6-40.7-3.1-12.4-9.6-23.7-17.9-33.4-3.4-3.4-7.2-7-12.2-7.4-1.4-.498-2.5-1.398-3.8-1.998m-97.2 69.7c6.9 27.7 32.9 49.9 61.7 50.6-7.4-2.4-14.5-5.5-21.5-8.8-6.9-4.7-14.7-8.3-20.7-14.4-9.1-8.899-17.3-19.6-20.2-32.2-.4 1.6.2 3.2.7 4.8z"/><path fill="#AEAF85" stroke="#AEAF85" stroke-width=".094" d="M312.2 287.7a3.092 3.092 0 0 1 0 0z"/><path fill="#221E1F" stroke="#221E1F" stroke-width=".094" d="M267 321c18.2-4.8 34.5-16.5 44.7-32.4-.2 2.301-2 4-3.1 5.9-7 10.7-17.9 17.8-28.6 24.3-6 3.102-12.6 4.602-19 6.3-3.6 1.102-7.3-.6-10.9-.698C255.6 322.7 261.6 323 267 321z"/></svg>