<?xml version="1.0" encoding="UTF-8"?>
<svg xmlns="http://www.w3.org/2000/svg" xmlns:xlink="http://www.w3.org/1999/xlink" width="297pt" height="90pt" viewBox="0 0 297 90" version="1.1">
<g id="surface1">
<path style=" stroke:none;fill-rule:nonzero;fill:rgb(0%,0%,0%);fill-opacity:1;" d="M 89.910156 0.0078125 C 91 4.175781 89.589844 7.425781 85.308594 9.265625 C 82.460938 10.488281 79.335938 11.058594 76.328125 11.894531 C 75.695312 12.070312 75.027344 12.128906 74.222656 12.269531 C 74.738281 12.882812 75.160156 13.394531 75.59375 13.894531 C 80.65625 19.707031 80.042969 28.125 74.171875 33.179688 C 69.429688 37.265625 63.921875 38.515625 57.707031 37.542969 C 59.09375 38.523438 60.460938 39.34375 61.660156 40.359375 C 65.910156 43.945312 67.300781 48.535156 66.089844 53.90625 C 64.234375 62.175781 61.296875 69.996094 56.3125 76.941406 C 55.585938 77.96875 54.78125 78.941406 53.898438 79.839844 C 53.152344 80.589844 52.832031 81.445312 53.441406 82.253906 C 53.902344 82.773438 54.5625 83.074219 55.257812 83.082031 C 56.222656 83.0625 56.777344 82.335938 56.792969 81.3125 C 56.792969 81.230469 56.871094 81.152344 57.003906 80.90625 C 57.46875 82.152344 58 83.472656 59.492188 83.074219 C 60.238281 82.867188 60.816406 81.941406 61.46875 81.34375 L 61.199219 80.84375 L 207.738281 80.84375 C 209.816406 80.84375 209.882812 80.914062 209.886719 82.933594 C 209.886719 83.996094 209.886719 85.058594 209.886719 86.125 C 209.886719 86.9375 209.492188 87.390625 208.644531 87.351562 C 208.304688 87.335938 207.964844 87.351562 207.628906 87.351562 L 6.640625 87.351562 C 4.359375 87.351562 4.355469 87.351562 4.355469 85.125 C 4.355469 84.15625 4.375 83.191406 4.355469 82.226562 C 4.335938 81.339844 4.683594 80.851562 5.617188 80.851562 L 31.007812 80.851562 C 31.257812 82.050781 31.664062 83.109375 33.039062 83.128906 C 34.414062 83.148438 34.832031 82.082031 35.214844 80.636719 C 35.40625 81.363281 35.386719 81.9375 35.640625 82.113281 C 36.257812 82.542969 37.050781 83.09375 37.6875 83.003906 C 38.203125 82.933594 38.964844 81.96875 38.933594 81.445312 C 38.902344 80.921875 38.070312 80.378906 37.511719 79.949219 C 36.949219 79.519531 36.210938 79.390625 35.78125 78.910156 C 31.800781 74.492188 29.285156 69.210938 27.285156 63.699219 C 26.035156 60.253906 25.042969 56.722656 24.316406 53.128906 C 23.101562 47.144531 25.558594 42.019531 30.785156 38.839844 L 32.414062 37.839844 C 29.925781 37.699219 27.152344 37.898438 24.542969 37.324219 C 17.3125 35.734375 11.699219 30.453125 11.402344 23.28125 C 11.25 19.59375 12.539062 16.375 14.960938 13.601562 C 15.300781 13.207031 15.660156 12.824219 16.125 12.304688 C 13.886719 11.863281 11.765625 11.578125 9.722656 10.988281 C 7.773438 10.449219 5.886719 9.707031 4.09375 8.773438 C 0.613281 6.886719 -0.632812 3.867188 0.265625 -0.015625 L 1.71875 -0.015625 C 1.828125 0.0742188 1.953125 0.144531 2.082031 0.203125 C 12.402344 2.828125 22.71875 5.476562 33.046875 8.066406 C 37.3125 9.136719 40.925781 11.160156 43.550781 14.761719 C 44.132812 15.558594 44.644531 16.410156 45.257812 17.347656 C 47.761719 12.339844 51.769531 9.484375 57 8.15625 C 63.027344 6.628906 69.035156 5.03125 75.046875 3.449219 C 79.417969 2.304688 83.785156 1.148438 88.152344 -0.015625 Z M 62.390625 31.824219 C 63.425781 31.578125 65.164062 31.328125 66.773438 30.726562 C 73.351562 28.261719 74.945312 21.046875 69.9375 16.667969 C 65.4375 12.734375 57.34375 12.839844 52.972656 16.894531 C 49.421875 20.207031 49.367188 25.054688 52.855469 28.40625 C 55.328125 30.789062 58.359375 31.679688 62.390625 31.824219 Z M 28.621094 31.785156 C 31.574219 31.824219 34.460938 30.886719 36.832031 29.117188 C 40.777344 26.125 41.191406 20.871094 37.824219 17.3125 C 33.40625 12.628906 24.273438 12.601562 19.828125 17.257812 C 16.664062 20.574219 16.753906 25.203125 20.027344 28.378906 C 22.375 30.648438 25.25 31.578125 28.621094 31.785156 Z M 51.34375 35.480469 C 50.984375 34.648438 50.734375 33.929688 50.363281 33.273438 C 50.183594 32.960938 49.878906 32.746094 49.527344 32.675781 C 47.964844 32.632812 47.101562 31.679688 46.402344 30.457031 C 46.050781 29.851562 45.675781 29.261719 45.246094 28.554688 C 43.859375 30.273438 43.355469 32.671875 40.824219 32.8125 C 41.121094 34.863281 38.804688 34.402344 38.296875 35.671875 C 38.59375 35.621094 38.882812 35.550781 39.167969 35.460938 C 40.714844 34.828125 41.902344 35.242188 42.898438 36.574219 C 43.632812 37.554688 44.515625 38.421875 45.445312 39.464844 C 46.386719 38.449219 47.03125 37.71875 47.683594 37.035156 C 48.71875 35.960938 49.5625 34.421875 51.34375 35.480469 Z M 41.457031 83.769531 C 42.304688 82.800781 43.011719 82.273438 43.296875 81.582031 C 43.582031 80.894531 42.300781 79.734375 41.488281 80 C 40.78125 80.230469 39.746094 80.96875 39.746094 81.496094 C 39.742188 82.132812 40.664062 82.78125 41.457031 83.769531 Z M 50.761719 83.851562 C 51.601562 82.769531 52.515625 82.105469 52.5 81.476562 C 52.480469 80.941406 51.382812 80.050781 50.761719 80.050781 C 50.136719 80.050781 49.054688 80.949219 49.035156 81.484375 C 49.015625 82.113281 49.917969 82.773438 50.765625 83.851562 Z M 50.761719 83.851562 "/>
<path style=" stroke:none;fill-rule:nonzero;fill:rgb(100%,100%,100%);fill-opacity:1;" d="M 88.171875 0.0078125 C 83.800781 1.171875 79.433594 2.324219 75.066406 3.472656 C 69.054688 5.050781 63.046875 6.652344 57.019531 8.179688 C 51.796875 9.507812 47.78125 12.363281 45.277344 17.371094 C 44.664062 16.433594 44.152344 15.582031 43.570312 14.78125 C 40.945312 11.183594 37.332031 9.160156 33.066406 8.089844 C 22.738281 5.5 12.414062 2.851562 2.101562 0.222656 C 1.972656 0.167969 1.847656 0.0976562 1.738281 0.0078125 Z M 88.171875 0.0078125 "/>
<path style=" stroke:none;fill-rule:nonzero;fill:rgb(0%,0%,0%);fill-opacity:1;" d="M 297 70.808594 C 295.328125 71.765625 293.703125 72.804688 291.976562 73.660156 C 289.160156 75.039062 287.933594 74.390625 287.25 71.300781 C 287.089844 70.550781 287.023438 69.804688 286.898438 68.933594 C 285.546875 69.980469 284.410156 71.050781 283.101562 71.816406 C 281.574219 72.710938 279.957031 73.5625 278.265625 74.035156 C 272.183594 75.714844 267.648438 70.941406 269.308594 64.726562 C 270.359375 60.824219 273.125 58.472656 276.742188 57.210938 C 279.414062 56.28125 282.25 55.824219 285.015625 55.164062 C 285.578125 55.027344 286.148438 54.929688 287.007812 54.753906 C 286.90625 52.582031 286.984375 50.355469 286.617188 48.203125 C 286.460938 47.261719 285.566406 46.140625 284.699219 45.683594 C 282.300781 44.421875 279.808594 44.667969 277.597656 46.261719 C 276.945312 46.734375 276.238281 47.605469 276.1875 48.339844 C 276.074219 49.835938 275.191406 50.332031 274.035156 50.671875 C 273.210938 50.941406 272.363281 51.148438 271.507812 51.289062 C 271.113281 51.34375 270.457031 51.203125 270.308594 50.933594 C 270.097656 50.546875 270.1875 49.960938 270.25 49.46875 C 270.328125 49.1875 270.472656 48.933594 270.675781 48.722656 C 274.28125 44.164062 278.988281 41.664062 284.804688 41.710938 C 289.480469 41.75 291.863281 44.328125 291.910156 49.039062 C 291.972656 54.503906 291.925781 59.96875 291.929688 65.429688 C 291.929688 66.105469 291.914062 66.785156 291.929688 67.460938 C 292.039062 70.070312 292.703125 70.546875 295.1875 69.679688 C 295.996094 69.394531 296.621094 69.25 296.976562 70.230469 Z M 286.9375 56.984375 C 283.910156 57.890625 281.105469 58.464844 278.527344 59.566406 C 275.507812 60.863281 274.097656 63.660156 274.425781 66.550781 C 274.703125 68.949219 276.289062 70.257812 278.679688 70.042969 C 281.757812 69.773438 284.195312 68.167969 286.488281 66.273438 C 286.734375 66.058594 286.890625 65.753906 286.917969 65.425781 C 286.953125 62.792969 286.9375 60.152344 286.9375 56.984375 Z M 286.9375 56.984375 "/>
<path style=" stroke:none;fill-rule:nonzero;fill:rgb(0%,0%,0%);fill-opacity:1;" d="M 224.207031 71.925781 C 223.570312 71.609375 222.957031 71.253906 222.359375 70.863281 C 220.632812 69.617188 220.410156 67.980469 221.863281 66.425781 C 222.902344 65.304688 224.117188 64.347656 225.277344 63.296875 C 225.1875 63.210938 225.101562 63.070312 224.984375 63.046875 C 218.472656 61.140625 215.882812 53.003906 220.488281 46.933594 C 224.46875 41.671875 231.421875 40.199219 237.207031 43.394531 C 237.703125 43.660156 238.269531 43.75 238.824219 43.660156 C 241.183594 43.175781 243.519531 42.578125 245.867188 42.058594 C 246.28125 41.964844 247.027344 41.902344 247.109375 42.078125 C 247.296875 42.53125 247.320312 43.039062 247.171875 43.507812 C 246.648438 45.226562 245.632812 46.339844 243.636719 46.277344 C 242.695312 46.242188 241.75 46.460938 240.820312 46.5625 C 241.296875 48.027344 241.972656 49.398438 242.167969 50.832031 C 242.894531 56.164062 239.40625 61.085938 233.707031 62.945312 C 232.796875 63.242188 231.824219 63.570312 230.894531 63.535156 C 228.964844 63.464844 227.878906 64.589844 226.882812 65.9375 C 226.019531 67.097656 226.136719 67.789062 227.542969 68.226562 C 229.554688 68.851562 231.65625 69.207031 233.722656 69.652344 C 236.355469 70.222656 239.09375 70.484375 241.605469 71.382812 C 247.242188 73.390625 248.609375 77.988281 245.109375 82.867188 C 241.847656 87.417969 237.078125 89.398438 231.691406 89.902344 C 227.9375 90.253906 224.226562 89.671875 220.867188 87.886719 C 219.425781 87.125 218.148438 86.082031 217.109375 84.824219 C 215.140625 82.386719 215.3125 79.21875 217.605469 77.09375 C 219.617188 75.183594 221.976562 73.640625 224.207031 71.925781 Z M 232.507812 86.515625 C 234.976562 86.515625 237.800781 85.867188 239.972656 83.582031 C 243.433594 79.957031 242.429688 75.871094 237.632812 74.644531 C 234.519531 73.851562 231.285156 73.507812 228.101562 72.984375 C 227.820312 72.9375 227.53125 72.992188 227.285156 73.136719 C 225.507812 74.367188 223.632812 75.496094 222.027344 76.925781 C 220.417969 78.355469 220.285156 80.429688 221.644531 82.144531 C 222.46875 83.15625 223.46875 84.011719 224.59375 84.667969 C 226.832031 85.988281 229.320312 86.492188 232.507812 86.515625 Z M 231.261719 60.171875 C 234.882812 60.269531 237.523438 57.625 237.632812 53.785156 C 237.777344 48.757812 234.226562 45.117188 229.082031 45.019531 C 225.71875 44.953125 222.859375 47.855469 222.765625 51.441406 C 222.632812 56.601562 225.960938 60.023438 231.277344 60.171875 Z M 231.261719 60.171875 "/>
<path style=" stroke:none;fill-rule:nonzero;fill:rgb(0%,0%,0%);fill-opacity:1;" d="M 79.230469 73.6875 L 79.230469 72.125 C 79.335938 72.046875 79.449219 71.984375 79.570312 71.933594 C 83.984375 70.601562 83.984375 70.601562 83.984375 66.039062 L 83.984375 34.082031 L 79.242188 34.707031 C 79.117188 34.0625 78.992188 33.460938 78.832031 32.589844 C 81.667969 32.09375 84.386719 31.511719 87.140625 31.148438 C 91.46875 30.585938 95.808594 30.402344 100.078125 31.625 C 100.261719 31.679688 100.453125 31.726562 100.632812 31.789062 C 104.105469 32.992188 107 34.84375 107.378906 38.882812 C 107.773438 43.171875 106.242188 46.648438 102.417969 48.925781 C 102.140625 49.089844 101.871094 49.269531 101.53125 49.488281 C 106.421875 50.929688 109.617188 53.933594 110.804688 58.835938 C 112.105469 64.210938 109.886719 69.28125 104.976562 71.777344 C 103.160156 72.699219 101.082031 73.535156 99.09375 73.601562 C 92.496094 73.824219 85.882812 73.6875 79.230469 73.6875 Z M 89.300781 52.195312 C 89.300781 58.226562 89.28125 63.917969 89.351562 69.605469 C 89.351562 69.972656 89.992188 70.578125 90.410156 70.65625 C 93.566406 71.238281 96.746094 71.453125 99.847656 70.40625 C 102.703125 69.4375 104.863281 67.664062 105.527344 64.570312 C 106.71875 59.003906 102.871094 53.121094 97.253906 52.261719 C 94.730469 51.878906 92.101562 52.195312 89.300781 52.195312 Z M 89.378906 49.351562 C 92.613281 49.464844 95.695312 49.308594 98.582031 47.828125 C 101.472656 46.34375 102.382812 43.835938 102.316406 40.84375 C 102.25 37.851562 100.800781 35.710938 97.988281 34.59375 C 95.234375 33.503906 92.367188 33.347656 89.386719 33.597656 Z M 89.378906 49.351562 "/>
<path style=" stroke:none;fill-rule:nonzero;fill:rgb(0%,0%,0%);fill-opacity:1;" d="M 164.148438 57.1875 C 164.398438 62.042969 165.46875 66.449219 169.84375 68.871094 C 175.230469 71.851562 179.65625 69.097656 183.835938 65.566406 C 184.261719 66.042969 184.628906 66.457031 185.078125 66.945312 C 182.253906 69.828125 179.742188 73.015625 175.652344 73.996094 C 168.738281 75.660156 162.542969 72.25 160.265625 65.304688 C 158.117188 58.773438 159.074219 52.585938 163.445312 47.152344 C 166.179688 43.765625 169.785156 41.738281 174.199219 41.6875 C 180.019531 41.613281 184.207031 45.800781 185.042969 52.238281 C 185.441406 55.328125 183.796875 57.175781 180.628906 57.183594 C 175.214844 57.195312 169.808594 57.1875 164.148438 57.1875 Z M 164.558594 54.234375 C 169.234375 54.234375 173.90625 54.257812 178.582031 54.191406 C 178.988281 54.191406 179.667969 53.640625 179.75 53.25 C 180.628906 49.011719 176.683594 44.691406 172.382812 45.117188 C 168.164062 45.535156 164.839844 49.367188 164.558594 54.234375 Z M 164.558594 54.234375 "/>
<path style=" stroke:none;fill-rule:nonzero;fill:rgb(0%,0%,0%);fill-opacity:1;" d="M 143.128906 30.808594 C 143.425781 31.707031 143.816406 32.355469 143.828125 33.007812 C 143.898438 36.050781 143.867188 39.097656 143.871094 42.140625 C 143.894531 42.308594 143.925781 42.476562 143.964844 42.640625 L 147.90625 42.640625 C 149.839844 42.640625 151.773438 42.59375 153.699219 42.667969 C 154.332031 42.691406 154.945312 43.035156 156.007812 43.371094 C 154.746094 44.640625 153.898438 45.613281 152.921875 46.425781 C 152.609375 46.675781 151.953125 46.625 151.472656 46.558594 C 149.011719 46.226562 146.558594 45.847656 144.007812 45.46875 C 143.929688 46.179688 143.859375 46.503906 143.859375 46.828125 C 143.859375 52.671875 143.835938 58.519531 143.890625 64.363281 C 143.921875 65.566406 144.089844 66.765625 144.390625 67.929688 C 144.726562 69.316406 145.738281 70.128906 147.164062 69.953125 C 148.917969 69.703125 150.65625 69.347656 152.371094 68.890625 C 153.144531 68.695312 153.863281 68.261719 154.6875 67.890625 C 154.996094 68.4375 155.277344 68.925781 155.605469 69.507812 C 152.539062 71.789062 149.347656 73.664062 145.59375 74.265625 C 142.308594 74.789062 139.988281 73.03125 139.261719 69.578125 C 139.019531 68.347656 138.902344 67.09375 138.914062 65.835938 C 138.878906 59.75 138.898438 53.660156 138.898438 47.574219 L 138.898438 46 C 137.324219 45.214844 135.355469 46.546875 133.9375 44.921875 C 135.300781 43.46875 136.582031 42.128906 138.898438 42.675781 C 138.898438 40.269531 138.949219 38.058594 138.875 35.851562 C 138.839844 34.835938 139.125 34.132812 139.941406 33.519531 C 140.957031 32.796875 141.855469 31.929688 143.128906 30.808594 Z M 143.128906 30.808594 "/>
<path style=" stroke:none;fill-rule:nonzero;fill:rgb(0%,0%,0%);fill-opacity:1;" d="M 210.90625 51.199219 C 210.285156 49.746094 209.953125 48.613281 209.351562 47.652344 C 208.445312 46.210938 206.863281 45.878906 205.445312 46.816406 C 204.554688 47.390625 203.769531 48.121094 203.140625 48.972656 C 200.824219 52.253906 199.121094 55.75 199.324219 59.945312 C 199.464844 62.890625 199.410156 65.84375 199.324219 68.789062 C 199.289062 70.085938 199.800781 70.804688 200.980469 71.113281 C 201.953125 71.394531 202.941406 71.625 203.9375 71.804688 C 204.863281 71.949219 205.210938 72.339844 204.847656 73.328125 L 189.894531 73.328125 C 189.539062 72.410156 189.816406 71.972656 190.71875 71.714844 C 194.382812 70.679688 194.378906 70.65625 194.375 66.9375 C 194.375 61.28125 194.394531 55.628906 194.34375 49.980469 C 194.3125 46.394531 194.09375 46.207031 190.585938 45.65625 C 190.351562 45.621094 190.125 45.566406 189.878906 45.515625 C 189.59375 44.683594 189.789062 44.285156 190.667969 44.03125 C 192.835938 43.402344 194.976562 42.652344 197.121094 41.9375 C 198.003906 41.644531 198.84375 42.347656 198.925781 43.539062 C 199.0625 45.609375 199.171875 47.683594 199.292969 50.070312 C 199.652344 49.511719 199.84375 49.164062 200.078125 48.855469 C 201.414062 47.089844 202.566406 45.15625 204.136719 43.617188 C 206.488281 41.300781 209.800781 40.996094 212.714844 42.566406 C 213.1875 42.8125 213.726562 43.632812 213.648438 44.089844 C 213.289062 46.222656 212.804688 48.332031 212.207031 50.414062 C 212.113281 50.785156 211.335938 50.960938 210.90625 51.199219 Z M 210.90625 51.199219 "/>
<path style=" stroke:none;fill-rule:nonzero;fill:rgb(0%,0%,0%);fill-opacity:1;" d="M 250.804688 86.859375 C 250.804688 85.1875 250.757812 83.644531 250.84375 82.121094 C 250.859375 81.820312 251.339844 81.488281 251.695312 81.292969 C 251.914062 81.167969 252.265625 81.269531 252.554688 81.269531 C 266.117188 81.269531 279.675781 81.285156 293.246094 81.242188 C 294.519531 81.242188 295.152344 81.492188 294.96875 82.902344 C 294.867188 83.71875 294.867188 84.546875 294.96875 85.363281 C 295.128906 86.679688 294.578125 86.980469 293.335938 86.976562 C 283.777344 86.929688 274.21875 86.949219 264.664062 86.949219 C 260.609375 86.949219 256.554688 86.949219 252.5 86.949219 C 251.980469 86.941406 251.464844 86.894531 250.804688 86.859375 Z M 250.804688 86.859375 "/>
<path style=" stroke:none;fill-rule:nonzero;fill:rgb(0%,0%,0%);fill-opacity:1;" d="M 249.984375 45.421875 C 250.421875 44.882812 250.660156 44.292969 251.058594 44.152344 C 253.464844 43.316406 255.902344 42.566406 258.339844 41.820312 C 258.769531 41.683594 259.25 41.691406 259.867188 41.613281 L 259.867188 43.339844 C 259.867188 51.695312 259.867188 60.050781 259.867188 68.402344 C 259.867188 70.464844 260.066406 70.753906 262.027344 71.378906 C 262.800781 71.628906 263.59375 71.816406 264.429688 72.046875 L 264.429688 73.351562 L 250.324219 73.351562 L 250.324219 72.058594 C 250.53125 71.984375 250.742188 71.894531 250.960938 71.832031 C 254.910156 70.726562 254.910156 70.726562 254.910156 66.59375 C 254.910156 61.238281 254.910156 55.871094 254.910156 50.515625 C 254.894531 46.648438 254.683594 46.414062 250.945312 45.667969 C 250.757812 45.644531 250.578125 45.585938 249.984375 45.421875 Z M 249.984375 45.421875 "/>
<path style=" stroke:none;fill-rule:nonzero;fill:rgb(0%,0%,0%);fill-opacity:1;" d="M 126.765625 41.589844 L 126.765625 43.367188 C 126.765625 51.726562 126.816406 60.074219 126.722656 68.4375 C 126.703125 70.132812 127.363281 70.933594 128.835938 71.355469 C 129.339844 71.523438 129.851562 71.65625 130.375 71.746094 C 131.332031 71.863281 131.589844 72.375 131.300781 73.328125 L 117.304688 73.328125 C 116.910156 72.332031 117.304688 71.832031 118.320312 71.707031 C 118.511719 71.683594 118.699219 71.644531 118.886719 71.597656 C 121.664062 70.832031 121.828125 70.632812 121.8125 67.742188 C 121.8125 61.941406 121.8125 56.144531 121.8125 50.34375 C 121.8125 46.664062 121.566406 46.394531 117.972656 45.703125 C 117.742188 45.660156 117.515625 45.59375 116.929688 45.453125 C 117.296875 44.917969 117.488281 44.304688 117.84375 44.183594 C 120.332031 43.320312 122.875 42.554688 125.40625 41.777344 C 125.855469 41.683594 126.308594 41.621094 126.765625 41.589844 Z M 126.765625 41.589844 "/>
<path style=" stroke:none;fill-rule:nonzero;fill:rgb(0%,0%,0%);fill-opacity:1;" d="M 127.746094 31.804688 C 127.660156 34.066406 126.34375 35.796875 124.433594 36.160156 C 122.664062 36.488281 121.390625 35.539062 121.214844 33.746094 C 121.0625 32.128906 121.40625 30.671875 122.628906 29.507812 C 123.660156 28.53125 125.382812 28.078125 126.339844 28.871094 C 127.132812 29.523438 127.53125 30.652344 128.105469 31.570312 Z M 127.746094 31.804688 "/>
<path style=" stroke:none;fill-rule:nonzero;fill:rgb(0%,0%,0%);fill-opacity:1;" d="M 260.808594 31.730469 C 260.777344 33.9375 259.566406 35.652344 257.726562 36.101562 C 255.816406 36.570312 254.480469 35.632812 254.296875 33.675781 C 254.148438 32.058594 254.507812 30.597656 255.761719 29.476562 C 256.824219 28.527344 258.070312 28.25 259.386719 28.816406 C 260.640625 29.355469 260.828125 30.515625 260.808594 31.730469 Z M 260.808594 31.730469 "/>
<path style=" stroke:none;fill-rule:nonzero;fill:rgb(100%,100%,100%);fill-opacity:1;" d="M 62.390625 31.824219 C 58.359375 31.675781 55.328125 30.789062 52.855469 28.40625 C 49.371094 25.054688 49.410156 20.199219 52.972656 16.894531 C 57.34375 12.839844 65.4375 12.734375 69.9375 16.667969 C 74.945312 21.046875 73.351562 28.261719 66.773438 30.726562 C 65.164062 31.328125 63.425781 31.574219 62.390625 31.824219 Z M 61.71875 29.921875 C 65.835938 29.941406 69.363281 26.679688 69.398438 22.8125 C 69.429688 18.941406 65.945312 15.632812 61.820312 15.601562 C 57.695312 15.570312 54.171875 18.84375 54.144531 22.707031 C 54.117188 26.574219 57.613281 29.902344 61.71875 29.933594 Z M 61.71875 29.921875 "/>
<path style=" stroke:none;fill-rule:nonzero;fill:rgb(100%,100%,100%);fill-opacity:1;" d="M 28.621094 31.785156 C 25.25 31.578125 22.375 30.648438 20.03125 28.378906 C 16.753906 25.203125 16.667969 20.574219 19.832031 17.257812 C 24.273438 12.601562 33.40625 12.628906 37.828125 17.3125 C 41.191406 20.871094 40.773438 26.132812 36.832031 29.117188 C 34.460938 30.886719 31.574219 31.824219 28.621094 31.785156 Z M 28.941406 29.921875 C 33.0625 29.941406 36.582031 26.679688 36.613281 22.808594 C 36.640625 18.9375 33.164062 15.628906 29.039062 15.601562 C 24.917969 15.574219 21.394531 18.84375 21.367188 22.710938 C 21.339844 26.578125 24.828125 29.902344 28.941406 29.933594 Z M 28.941406 29.921875 "/>
<path style=" stroke:none;fill-rule:nonzero;fill:rgb(100%,100%,100%);fill-opacity:1;" d="M 41.457031 83.769531 C 40.65625 82.773438 39.734375 82.132812 39.746094 81.5 C 39.746094 80.96875 40.78125 80.230469 41.484375 80.003906 C 42.304688 79.734375 43.574219 80.910156 43.296875 81.585938 C 43.015625 82.261719 42.3125 82.804688 41.457031 83.769531 Z M 41.457031 83.769531 "/>
<path style=" stroke:none;fill-rule:nonzero;fill:rgb(100%,100%,100%);fill-opacity:1;" d="M 286.9375 56.984375 C 286.9375 60.152344 286.953125 62.792969 286.917969 65.4375 C 286.890625 65.765625 286.734375 66.066406 286.488281 66.285156 C 284.195312 68.175781 281.757812 69.773438 278.679688 70.050781 C 276.289062 70.261719 274.699219 68.953125 274.425781 66.5625 C 274.097656 63.664062 275.507812 60.867188 278.527344 59.578125 C 281.105469 58.464844 283.910156 57.890625 286.9375 56.984375 Z M 286.9375 56.984375 "/>
<path style=" stroke:none;fill-rule:nonzero;fill:rgb(100%,100%,100%);fill-opacity:1;" d="M 232.507812 86.515625 C 229.332031 86.492188 226.820312 85.988281 224.582031 84.667969 C 223.464844 84.007812 222.472656 83.152344 221.660156 82.144531 C 220.304688 80.429688 220.414062 78.371094 222.039062 76.925781 C 223.664062 75.480469 225.523438 74.367188 227.296875 73.136719 C 227.542969 72.992188 227.832031 72.9375 228.117188 72.984375 C 231.296875 73.507812 234.53125 73.851562 237.644531 74.644531 C 242.441406 75.871094 243.445312 79.957031 239.984375 83.582031 C 237.800781 85.867188 234.976562 86.523438 232.507812 86.515625 Z M 232.507812 86.515625 "/>
<path style=" stroke:none;fill-rule:nonzero;fill:rgb(100%,100%,100%);fill-opacity:1;" d="M 231.277344 60.171875 C 225.960938 60.023438 222.632812 56.601562 222.777344 51.441406 C 222.878906 47.855469 225.730469 44.957031 229.09375 45.019531 C 234.238281 45.117188 237.800781 48.761719 237.644531 53.789062 C 237.53125 57.613281 234.894531 60.269531 231.277344 60.171875 Z M 231.277344 60.171875 "/>
<path style=" stroke:none;fill-rule:nonzero;fill:rgb(100%,100%,100%);fill-opacity:1;" d="M 89.300781 52.195312 C 92.101562 52.195312 94.730469 51.875 97.265625 52.261719 C 102.878906 53.117188 106.71875 58.996094 105.535156 64.566406 C 104.875 67.65625 102.710938 69.4375 99.859375 70.402344 C 96.757812 71.453125 93.574219 71.238281 90.417969 70.652344 C 90 70.574219 89.363281 69.96875 89.359375 69.601562 C 89.28125 63.917969 89.300781 58.226562 89.300781 52.195312 Z M 89.300781 52.195312 "/>
<path style=" stroke:none;fill-rule:nonzero;fill:rgb(100%,100%,100%);fill-opacity:1;" d="M 89.378906 49.351562 L 89.378906 33.617188 C 92.363281 33.367188 95.222656 33.507812 97.976562 34.613281 C 100.789062 35.730469 102.230469 37.882812 102.304688 40.863281 C 102.382812 43.847656 101.441406 46.371094 98.574219 47.847656 C 95.707031 49.320312 92.605469 49.464844 89.378906 49.351562 Z M 89.378906 49.351562 "/>
<path style=" stroke:none;fill-rule:nonzero;fill:rgb(100%,100%,100%);fill-opacity:1;" d="M 164.558594 54.234375 C 164.839844 49.367188 168.164062 45.535156 172.382812 45.117188 C 176.683594 44.691406 180.628906 49.007812 179.75 53.25 C 179.667969 53.640625 178.988281 54.183594 178.582031 54.191406 C 173.90625 54.257812 169.234375 54.234375 164.558594 54.234375 Z M 164.558594 54.234375 "/>
<path style=" stroke:none;fill-rule:nonzero;fill:rgb(0%,0%,0%);fill-opacity:1;" d="M 61.71875 29.933594 C 57.613281 29.914062 54.117188 26.585938 54.144531 22.722656 C 54.171875 18.859375 57.710938 15.582031 61.820312 15.613281 C 65.929688 15.644531 69.429688 18.960938 69.398438 22.824219 C 69.363281 26.6875 65.84375 29.933594 61.71875 29.933594 Z M 63.171875 21.902344 C 63.195312 19.957031 61.84375 18.410156 60.089844 18.382812 C 58.339844 18.355469 56.953125 19.859375 56.929688 21.816406 C 56.902344 23.777344 58.210938 25.273438 60.007812 25.292969 C 61.808594 25.316406 63.148438 23.878906 63.171875 21.886719 Z M 63.171875 21.902344 "/>
<path style=" stroke:none;fill-rule:nonzero;fill:rgb(0%,0%,0%);fill-opacity:1;" d="M 28.941406 29.933594 C 24.828125 29.914062 21.339844 26.589844 21.367188 22.722656 C 21.394531 18.855469 24.921875 15.585938 29.039062 15.613281 C 33.15625 15.640625 36.640625 18.953125 36.613281 22.820312 C 36.582031 26.6875 33.0625 29.933594 28.941406 29.933594 Z M 30.394531 21.878906 C 30.410156 19.941406 29.042969 18.402344 27.289062 18.386719 C 25.535156 18.371094 24.167969 19.882812 24.148438 21.84375 C 24.128906 23.808594 25.441406 25.289062 27.25 25.300781 C 29.058594 25.3125 30.375 23.863281 30.394531 21.867188 Z M 30.394531 21.878906 "/>
<path style=" stroke:none;fill-rule:nonzero;fill:rgb(100%,100%,100%);fill-opacity:1;" d="M 63.171875 21.886719 C 63.148438 23.882812 61.824219 25.300781 60.007812 25.28125 C 58.191406 25.265625 56.902344 23.785156 56.929688 21.804688 C 56.953125 19.824219 58.339844 18.339844 60.089844 18.371094 C 61.839844 18.398438 63.195312 19.941406 63.171875 21.886719 Z M 63.171875 21.886719 "/>
<path style=" stroke:none;fill-rule:nonzero;fill:rgb(100%,100%,100%);fill-opacity:1;" d="M 30.394531 21.867188 C 30.375 23.859375 29.0625 25.292969 27.25 25.28125 C 25.441406 25.273438 24.125 23.804688 24.148438 21.828125 C 24.171875 19.851562 25.550781 18.347656 27.289062 18.371094 C 29.027344 18.390625 30.410156 19.929688 30.394531 21.867188 Z M 30.394531 21.867188 "/>
<path style=" stroke:none;fill-rule:nonzero;fill:rgb(0%,0%,0%);fill-opacity:1;" d="M 38.160156 28.320312 L 51.832031 28.320312 L 51.832031 40.804688 L 38.160156 40.804688 Z M 38.160156 28.320312 "/>
<path style=" stroke:none;fill-rule:nonzero;fill:rgb(100%,64.705882%,0%);fill-opacity:1;" d="M 44.847656 29.207031 L 44.847656 39.269531 L 44.832031 39.285156 C 43.980469 38.289062 43.171875 37.46875 42.503906 36.542969 C 41.589844 35.273438 40.511719 34.875 39.101562 35.480469 C 38.839844 35.566406 38.574219 35.636719 38.304688 35.683594 C 38.769531 34.476562 40.882812 34.910156 40.617188 32.960938 C 42.933594 32.828125 43.390625 30.539062 44.660156 28.902344 C 44.722656 29 44.785156 29.109375 44.847656 29.207031 Z M 44.847656 29.207031 "/>
<path style=" stroke:none;fill-rule:nonzero;fill:rgb(100%,64.705882%,0%);fill-opacity:1;" d="M 44.542969 28.835938 L 44.695312 39.410156 L 44.710938 39.425781 C 45.625 38.367188 46.496094 37.492188 47.214844 36.5 C 48.191406 35.15625 49.363281 34.722656 50.917969 35.332031 C 51.203125 35.421875 51.496094 35.488281 51.792969 35.535156 C 51.261719 34.273438 48.957031 34.765625 49.226562 32.710938 C 46.6875 32.605469 46.152344 30.21875 44.746094 28.515625 C 44.671875 28.617188 44.609375 28.730469 44.542969 28.835938 Z M 44.542969 28.835938 "/>
<path style=" stroke:none;fill-rule:nonzero;fill:rgb(100%,64.705882%,0%);fill-opacity:1;" d="M 43.632812 81.761719 C 43.632812 82.855469 42.746094 83.742188 41.65625 83.742188 C 40.5625 83.742188 39.679688 82.855469 39.679688 81.761719 C 39.679688 80.667969 40.5625 79.78125 41.65625 79.78125 C 42.746094 79.78125 43.632812 80.667969 43.632812 81.761719 Z M 43.632812 81.761719 "/>
<path style=" stroke:none;fill-rule:nonzero;fill:rgb(100%,64.705882%,0%);fill-opacity:1;" d="M 39.378906 81.761719 C 39.378906 82.855469 38.496094 83.742188 37.402344 83.742188 C 36.3125 83.742188 35.425781 82.855469 35.425781 81.761719 C 35.425781 80.667969 36.3125 79.78125 37.402344 79.78125 C 38.496094 79.78125 39.378906 80.667969 39.378906 81.761719 Z M 39.378906 81.761719 "/>
<path style=" stroke:none;fill-rule:nonzero;fill:rgb(100%,64.705882%,0%);fill-opacity:1;" d="M 35.125 81.457031 C 35.125 82.550781 34.238281 83.4375 33.148438 83.4375 C 32.058594 83.4375 31.171875 82.550781 31.171875 81.457031 C 31.171875 80.363281 32.058594 79.476562 33.148438 79.476562 C 34.238281 79.476562 35.125 80.363281 35.125 81.457031 Z M 35.125 81.457031 "/>
<path style=" stroke:none;fill-rule:nonzero;fill:rgb(100%,64.705882%,0%);fill-opacity:1;" d="M 52.746094 81.761719 C 52.746094 82.855469 51.859375 83.742188 50.769531 83.742188 C 49.679688 83.742188 48.792969 82.855469 48.792969 81.761719 C 48.792969 80.667969 49.679688 79.78125 50.769531 79.78125 C 51.859375 79.78125 52.746094 80.667969 52.746094 81.761719 Z M 52.746094 81.761719 "/>
<path style=" stroke:none;fill-rule:nonzero;fill:rgb(100%,64.705882%,0%);fill-opacity:1;" d="M 56.996094 81.761719 C 56.996094 82.855469 56.113281 83.742188 55.023438 83.742188 C 53.929688 83.742188 53.046875 82.855469 53.046875 81.761719 C 53.046875 80.667969 53.929688 79.78125 55.023438 79.78125 C 56.113281 79.78125 56.996094 80.667969 56.996094 81.761719 Z M 56.996094 81.761719 "/>
<path style=" stroke:none;fill-rule:nonzero;fill:rgb(100%,64.705882%,0%);fill-opacity:1;" d="M 61.554688 81.609375 C 61.554688 82.785156 60.605469 83.742188 59.429688 83.742188 C 58.253906 83.742188 57.300781 82.785156 57.300781 81.609375 C 57.300781 80.429688 58.253906 79.476562 59.429688 79.476562 C 60.605469 79.476562 61.554688 80.429688 61.554688 81.609375 Z M 61.554688 81.609375 "/>
</g>
</svg>
