<svg xmlns="http://www.w3.org/2000/svg" viewBox="0 0 1009 191.63"><defs><style>.cls-1{fill:#fff;}.cls-2{fill:#00539b;}.cls-3{fill:#439539;}.cls-4{fill:#004a97;}</style></defs><g id="Layer_2" data-name="Layer 2"><g id="Layer_1-2" data-name="Layer 1"><path class="cls-1" d="M0,80.17V0H80.17c7.4,7.33,10,16.46,10,26.57,0,16.58.09,33.17,0,49.76-.07,10.78-3.14,13.85-14,13.93-16.92.13-33.83,0-50.74,0C15.55,90.33,6.84,87.63,0,80.17ZM57.25,2.82v32c0,23.76,0,23.76-23.32,23.76H2.83C6,71.32,13,78.72,24.41,79.49c15.87,1.08,31.84.69,47.77.8,5,0,7.68-2.31,7.61-7.79-.21-14.31.4-28.65-.27-42.93C78.83,15,71.31,6.2,57.25,2.82Z"/><path class="cls-2" d="M0,80.17c6.84,7.46,15.55,10.16,25.4,10.14,16.91,0,33.82.08,50.74,0,10.87-.08,13.94-3.15,14-13.93.11-16.59,0-33.18,0-49.76,0-10.11-2.6-19.24-10-26.57h31.29c-7.12,7.08-9.86,15.91-9.92,25.67-.11,16.93-.18,33.87,0,50.81.12,10.89,3.2,13.75,14.13,13.8,15.31.07,30.65.64,45.91-.21,9.69-.53,19.25-3.25,29.06-5v24.69c-10.67-9.3-23.32-8.54-35.9-8.43-13.68.12-27.36.2-41,0-7.76-.13-11.92,3.73-12,11-.27,19.54-.81,39.14.54,58.59.49,7.12,6,13.89,9.22,20.82H80.17c7.35-7.35,10-16.46,10-26.59,0-16.6.08-33.2,0-49.8-.08-10.87-2.94-13.85-14-14-16.92-.18-33.85.1-50.77,0C15.49,101.24,6.85,104,0,111.46Z"/><path class="cls-1" d="M56.71,191.63H0V134.92H56.65a45.18,45.18,0,0,1,.55,5Q57,165.8,56.71,191.63Z"/><path class="cls-3" d="M134.92,0V56.59H189c-1.72,13.22-10.53,22-24.45,22.88-15.24,1-30.59.67-45.86.12-2.38-.09-6.49-4.4-6.58-6.88-.58-15.28-.55-30.6-.1-45.88C112.38,13,122.57,6.29,133,0Z"/><path class="cls-3" d="M56.71,191.63Q57,165.8,57.2,140a45.18,45.18,0,0,0-.55-5H0V133c6-10.08,12.12-20.46,25.58-21,15.53-.67,31.09-.53,46.64-.71,5.19-.06,7.65,2.41,7.56,7.75-.16,8.75-.61,17.55.11,26.25,1.63,19.61-1.89,36.54-21.23,46.41Z"/><path class="cls-2" d="M1009,99.73c-15.15,1.26-30.28,2.92-45.45,3.61-6.95.31-8.8,2.43-8.07,9.34,2.53,24,23.2,35.1,44.36,23.36a10.24,10.24,0,0,1,6.21-1.4c-7.18,10.84-16.48,18.28-30.16,18.41-15.3.14-26-7.29-32.21-21-9.51-21-.78-48,19-59.78,18.17-10.84,36.39-4.52,44.19,15.29.59,1.49,1.42,2.88,2.14,4.33Zm-55.07-2.85c13,0,22.86.23,32.73-.2,1.76-.08,5.11-3.55,4.81-4.34-2.29-6-4.05-13.06-8.41-17.24-5-4.84-12.78-3.5-17.36,2S958.41,89.17,953.93,96.88Z"/><path class="cls-1" d="M58.66,191.63c19.34-9.87,22.86-26.8,21.23-46.41-.72-8.7-.27-17.5-.11-26.25.09-5.34-2.37-7.81-7.56-7.75-15.55.18-31.11,0-46.64.71C12.12,112.51,6,122.89,0,133V111.46c6.85-7.42,15.49-10.22,25.39-10.17,16.92.08,33.85-.2,50.77,0,11,.12,13.91,3.1,14,14,.11,16.6,0,33.2,0,49.8,0,10.13-2.66,19.24-10,26.59Z"/><path class="cls-2" d="M668.27,66c0-8.79,1.27-19.06-.54-28.75-.89-4.79-7.46-8.53-11.7-13l27-6c.19,3.93.49,7.35.49,10.78q.06,46.85,0,93.69c0,15.95,0,15.95,15.77,22.53l-29.61,7.16c-.81-3.44-1.45-6.2-2.45-10.47-3.39,1.79-6.38,3.24-9.25,4.91-19.35,11.26-39.06,4.55-47.6-16.25a45.16,45.16,0,0,1,27.74-60C647.06,67.71,657,67.69,668.27,66Zm.24,44.09c0-5.53-.37-11.1.09-16.59.73-8.73-1.73-15.39-10.32-18.83-9.09-3.63-17.18-2-24.18,4.8C621.22,92,621,122.64,634.05,135a30.1,30.1,0,0,0,11.59,6.77c13.29,4,22.84-3.31,22.87-17C668.52,119.89,668.51,115,668.51,110.13Z"/><path class="cls-2" d="M239.82,27.75c23.12,1.43,44.32-3.28,67.18,0C321.41,29.82,330.47,48,330.23,64.6,330,81,320.08,95.13,303.64,98.88c-10.1,2.3-20.93,1.38-32.14,1.94,0,11.56-1.42,24.66.72,37.15.81,4.7,9.85,8,14.93,11.76H239.72l-.48-1.18a40,40,0,0,1,5.35-2c6.78-1.52,9.9-5.95,9.92-12.58.07-29.32-.09-58.63.11-88,.07-10.58-8-11.95-15.6-14.13C239.28,30.48,239.55,29.12,239.82,27.75ZM271,66.45h-.51c0,6.52.18,13-.06,19.55-.2,5.71,2.33,8,7.91,8.76,10.37,1.41,19.88-.1,26.57-8.5,8.37-10.5,9.11-22.74,4.84-35.14C305.41,38.46,292.34,31,279.45,34.5c-3.33.89-7.53,5.28-8.05,8.57C270.21,50.7,271,58.64,271,66.45Z"/><path class="cls-2" d="M474.45,70.1h42.34c-17,6.84-9.12,16.05-6.16,24.36,4.12,11.55,8.76,22.92,13.18,34.37l2.94.44c5.56-16,11.57-31.89,16.23-48.15.69-2.42-5-6.66-8.54-11.12l56-3.09V84.12q0,22.48,0,45c0,9.12,1.89,17,12.54,20.63H562.91c4.3-3.13,9.28-5.08,11.24-8.67s1.19-8.85,1.22-13.38c.11-13.69.56-27.41-.3-41-.27-4.27-3.32-10.35-6.8-12-5.81-2.76-12.41-.66-15.63,6C548.11,90,543.77,99.45,539.76,109c-5,12-9.52,24.19-14.37,36.26-1,2.6-2.56,5-5,9.62-2.54-4.12-4.45-6.41-5.51-9-6.81-16.88-13.45-33.83-20.1-50.78C488.76,79.64,488.79,79.63,474.45,70.1Z"/><path class="cls-2" d="M810.23,150H771.86c-.79-.82-1.57-1.65-2.35-2.47,16.19.26,15.17-9.75,15-19.48-.2-11.38-.16-22.78,0-34.17.1-8.32-.3-16.1-12.49-16.48.31-.79.62-1.58.92-2.37l25.78-7.52c.47,4.34.88,8.09,1.48,13.63,5.34-3.44,9.73-6.45,14.29-9.17,18.63-11.14,36.77-1.52,37.65,20.24.52,13,.53,26,.07,39-.31,8.74,1.33,15.45,11.08,18.63H826.36c10.62-3.36,11.36-11.29,11-20.25-.37-10.4.08-20.83-.15-31.24-.18-8-1.65-15.77-10-19.62-6.77-3.13-19.81,0-25.12,6.39-1.82,2.18-2.53,5.83-2.59,8.83-.28,12.68,0,25.38-.16,38.07-.12,8.19.68,15.47,12.63,15.38Z"/><path class="cls-3" d="M134.33,189.32c-14-3.66-21.65-11.93-22.25-24.58-.72-15.24-.18-30.53-.35-45.8-.07-5.56,2.69-7.38,7.83-7.32,14.95.18,29.91-.27,44.83.4,12.67.56,21,8.15,25.15,22.12H134.33Z"/><path class="cls-2" d="M396.92,110.64c.43-24.93,18.48-43.81,41.73-43.64s40.45,18.83,40.13,43.57c-.33,25.07-18.32,43.19-42.22,42.53S396.49,135.26,396.92,110.64Zm20-21A59.87,59.87,0,0,0,418,126.05a67.06,67.06,0,0,0,6,13.22c8.3,13.65,26.16,12.67,32.27-1.29,8.28-18.91,7.62-38.4-3.27-56.19-8.87-14.5-27.11-12.92-34.13,2.64A41.69,41.69,0,0,0,416.88,89.63Z"/><path class="cls-2" d="M767.29,132.48c-11,17.21-26.48,23.71-42.24,19.51-13.63-3.63-24.09-17.91-25.14-33.71-1.36-20.33,5.92-36.4,23.63-46.74,18.34-10.71,40.46-.65,43.84,19.33,1.14,6.71-.57,10.47-8.33,10.65-12.33.28-24.63,1.57-37,1.92-6.67.18-8.23,2.81-7.28,9.14,3.79,25.16,25.93,36.79,46.17,22.6C762.13,134.37,763.61,134,767.29,132.48ZM714.51,96.93c12,0,21.67.41,31.26-.32,2.05-.15,5.4-4.41,5.37-6.75-.06-7.61-3.27-15.54-11.39-16.25-8.71-.77-13.49.85-17.54,6.57C719,84.71,717.43,90.38,714.51,96.93Z"/><path class="cls-2" d="M936.87,131.34C930,147,915,154.56,898.91,152.53c-15.28-1.93-27.46-14.07-30.23-30.14-4.72-27.4,19-55.6,46.89-55.12,5.52.1,11.4,2.45,16.25,5.27,1.64.95.6,6.54.78,10-2.76-.15-6.22.72-8.16-.62C916,76.09,907.39,72,897.3,77.2c-10.48,5.44-14.44,15.26-13.53,26.12.74,8.75,2.51,18.27,6.85,25.67,7.75,13.21,23.47,15.85,36.72,8.22C929.79,135.8,932.16,134.25,936.87,131.34Z"/><path class="cls-2" d="M362.14,67.84c.55,6.72,1,11.71,1.48,18.09,5.39-5.79,9.44-10.77,14.14-15s10.93-6,15.73-1c2.25,2.35,2.89,7.87,1.81,11.14-.64,2-6.59,4-9.2,3.13-12-4-22.1,1.61-23,14.72-.83,12.65-1.22,25.55.48,38,.67,4.89,7.55,8.94,11,12.76H335.73c15.07-3.17,12.1-15.06,12.22-25.34s0-20.85,0-31.28c0-7.88-.48-15.46-12.12-15.81.29-.82.57-1.64.86-2.47Z"/><path class="cls-3" d="M57.25,2.82C71.31,6.2,78.83,15,79.52,29.57c.67,14.28.06,28.62.27,42.93.07,5.48-2.58,7.83-7.61,7.79-15.93-.11-31.9.28-47.77-.8C13,78.72,6,71.32,2.83,58.61h31.1c23.32,0,23.32,0,23.32-23.76Z"/><circle class="cls-4" cx="580.28" cy="41.67" r="8.02"/></g></g></svg>