<svg xmlns="http://www.w3.org/2000/svg" viewBox="0 0 1123.37 318"><defs><style>.cls-1{fill:#fff;}.cls-2{fill:#7c1533;}.cls-3{fill:#7e1534;}.cls-4{fill:#cb212b;}.cls-5{fill:#b8212d;}.cls-6{fill:#ce202b;}</style></defs><g id="Layer_2" data-name="Layer 2"><g id="Layer_1-2" data-name="Layer 1"><path class="cls-1" d="M253,0c0,1-.08,2-.08,3V315c0,1,.05,2,.08,3H0V0ZM155.31,177a6.1,6.1,0,0,0,1.06-.38A66.1,66.1,0,0,0,170.32,164a59.51,59.51,0,0,0,13.92-37.41,71.44,71.44,0,0,0-2.6-19.2,66.42,66.42,0,0,0-7.3-18.1C168,78.65,160.07,69.4,149.47,62.67A46.36,46.36,0,0,0,127,55.29c-8.73-.52-17,1.66-24.83,5.34-10.88,5.07-20,12.54-28.55,20.83A11,11,0,0,0,72.56,83c1-.11,1.68-.13,2.32-.26,2.58-.54,5.15-1.44,7.75-1.6,10-.59,19.9-.64,29.56,2.68a76.61,76.61,0,0,1,13.32,5.83,74,74,0,0,1,22.9,20.77c5.92,8,11.54,16.24,13.41,26.42a54.9,54.9,0,0,1,1.06,11.87,53,53,0,0,1-1.21,10.88,74.29,74.29,0,0,1-4.73,13.76C156.43,174.44,156,175.53,155.31,177ZM121.42,252.1a8.62,8.62,0,0,0-.91-.84A69.93,69.93,0,0,1,93.26,231a65.45,65.45,0,0,1-14.08-30.56,86.24,86.24,0,0,1-1.58-15.6c0-3.32.61-6.63.67-10a48.19,48.19,0,0,1,2-12.49,50.08,50.08,0,0,1,9.67-18.26A61,61,0,0,1,110.66,128a7,7,0,0,0,1.3-1.09,11.33,11.33,0,0,0-4.41-.66A96.1,96.1,0,0,0,94,127.88a59.5,59.5,0,0,0-14.06,4.71A58.85,58.85,0,0,0,56,153.84a75.09,75.09,0,0,0-12.24,35.92,77,77,0,0,0,1.6,22.54A63.43,63.43,0,0,0,49.43,225a44.33,44.33,0,0,0,14.88,18.11c8.92,6.27,19,9.18,29.71,9.88,6,.38,12,.17,18,0C115,252.92,117.92,252.44,121.42,252.1Zm-1.91-58.62c.69.64,1.1,1.11,1.59,1.47a66.57,66.57,0,0,0,31.37,11.86,52.37,52.37,0,0,0,16.61-1.07,78.37,78.37,0,0,0,11.28-3.63,63.83,63.83,0,0,0,21.87-13.73c11.85-11.32,20.3-24.7,23.42-41.14A44.6,44.6,0,0,0,224,124.39c-2.63-7.82-7.3-14.44-13.12-20.25-8.42-8.43-18.48-14.46-29-19.75a6.21,6.21,0,0,0-1.52-.21,85.25,85.25,0,0,1,7.6,14.4,57.64,57.64,0,0,1,4.34,16.2c.81,8.75.93,17.53-1.57,26.2a85.56,85.56,0,0,1-6.87,17.12A120.48,120.48,0,0,1,173.73,173c-9.65,12.9-22.81,19.33-38.51,20.92a42.93,42.93,0,0,1-14.42-.57A5.33,5.33,0,0,0,119.51,193.48Zm31.8-58.26c-.48-1.67-.73-2.87-1.15-4A69.42,69.42,0,0,0,139.39,112a58.49,58.49,0,0,0-30.27-19.79,73.14,73.14,0,0,0-15-2.4,71.6,71.6,0,0,0-23.23,2.08,85.81,85.81,0,0,0-18.74,7.2C43.65,103.65,36.26,109.5,31,117.76a40.5,40.5,0,0,0-6.64,19c0,.58-.26,1.15-.28,1.72a80.93,80.93,0,0,0-.17,8.94,79.57,79.57,0,0,0,1.55,9.8,67.34,67.34,0,0,0,2.36,9.35c1.7,4.71,3.72,9.3,5.7,13.9.92,2.13,2.09,4.14,3.14,6.2a2.33,2.33,0,0,0,.64-1.59A59,59,0,0,1,40.63,167,67.29,67.29,0,0,1,52,145.6c9-11.46,20.75-18.93,34.39-23.63,2.81-1,5.63-1.92,8.49-2.66a67.09,67.09,0,0,1,10-2.14,50.68,50.68,0,0,1,20.44,2,56.75,56.75,0,0,1,19.27,10.34C146.66,131.29,148.77,133.09,151.31,135.22Zm-60,30.94-.49.12c-.18.86-.38,1.71-.55,2.57-.57,2.83-1.5,5.65-1.63,8.5-.32,6.63-.74,13.27.75,19.88a66.62,66.62,0,0,0,3.79,12,56.94,56.94,0,0,0,9.5,15A74.38,74.38,0,0,0,127.77,243a58.9,58.9,0,0,0,12.14,4.19c4,.85,8,2.22,12.1,2.52,6.52.49,13.08.82,19.63-.55a50.43,50.43,0,0,0,11.3-3.57,46.67,46.67,0,0,0,19.48-17.49,70.68,70.68,0,0,0,7.7-16.62,106.2,106.2,0,0,0,3.08-11.78c.87-4.23,1.39-8.53,2-12.8a6.68,6.68,0,0,0-.24-1.79c-.51.56-.84.83-1.08,1.16a69.68,69.68,0,0,1-15.38,15.33A66.65,66.65,0,0,1,177.72,212a77.94,77.94,0,0,1-13.2,2.44c-7.9.92-15.63-.09-23.3-1.6a107,107,0,0,1-13.85-4,50.93,50.93,0,0,1-25.92-19.61,58.27,58.27,0,0,1-9.21-21A10.45,10.45,0,0,0,91.27,166.16Z"/><path d="M714.66,154.73V98c0-.67,0-1.34,0-2a1.73,1.73,0,0,1,1.92-1.82c.42,0,.84,0,1.25,0,23.33,0,46.65-.1,70,.08a36.81,36.81,0,0,1,10.93,2.1A58.25,58.25,0,0,1,833.53,129a98.45,98.45,0,0,1,3.62,10.49,45.79,45.79,0,0,1,1.28,8.08,106,106,0,0,1,.64,12.19c-.1,3.45-1,6.88-1.33,10.33a41.29,41.29,0,0,1-2.12,8.12,46.45,46.45,0,0,1-6.48,12.7,60.33,60.33,0,0,1-27.86,21.25c-2.54,1-5.11,1.87-7.7,2.71a7.14,7.14,0,0,1-2.22.21h-74c-2.66,0-2.73-.08-2.73-2.87Q714.65,183.48,714.66,154.73Zm28.8-34.53c-.12,1.38-.28,2.44-.28,3.5,0,6.24,0,12.49,0,18.74q0,22.37,0,44.73c0,1.21-.28,2.51.78,3.7H780.1a39.07,39.07,0,0,0,11.26-1.67,23.6,23.6,0,0,0,14.24-11.42c3.26-5.7,4.19-12,4.65-18.36a49.84,49.84,0,0,0-.66-10.19,39.92,39.92,0,0,0-5.23-15.64c-5.27-8.73-13.07-13.29-23.31-13.37-11.49-.08-23,0-34.49,0Z"/><path d="M569.46,215.07V97.56c0-3.36,0-3.36,3.26-3.37,23.24,0,46.47-.1,69.71.08a35.79,35.79,0,0,1,10.94,2.07,56.71,56.71,0,0,1,21.89,13.52,61,61,0,0,1,14.37,22.46c4.17,11.19,4.79,22.74,3.53,34.34A51.09,51.09,0,0,1,683,192.07c-7.4,9.86-17.25,16.36-28.57,20.81a33.5,33.5,0,0,1-12.6,2.26c-22.9-.15-45.81-.07-68.71-.07Zm28.13-59.69q0,16.37,0,32.73c0,2.37.38,2.74,2.76,2.75,5,0,10,.15,15,0,9-.31,17.95.81,26.9-.7a27,27,0,0,0,8.18-2.65C659,182.92,663,175.13,664.2,166c1.13-8.32,1-16.74-1.72-24.91-1.93-5.74-4.82-10.84-9.44-14.79a25.69,25.69,0,0,0-16.67-6.11c-5.91-.12-11.82,0-17.73,0-6.16,0-12.33,0-18.49,0-2,0-2.49.48-2.56,2.45,0,.41,0,.83,0,1.25Z"/><path d="M387.79,153.5a49.89,49.89,0,0,1,11.61,6.43,23.94,23.94,0,0,1,8.19,11.47,35.72,35.72,0,0,1,.74,20.17,27.12,27.12,0,0,1-15,18.37,50.49,50.49,0,0,1-15.65,4.43c-5.67.79-11.3.65-16.94.67-19.25.08-38.49,0-57.74,0-1.06,0-2.12-.09-3.35-.15-.05-1.09-.12-2-.12-2.88q0-57.37,0-114.74c0-.5,0-1,0-1.5a1.47,1.47,0,0,1,1.57-1.57c.58,0,1.16,0,1.75,0,20.83,0,41.66-.23,62.49.08,13.12.19,24.74,4.64,33.66,14.73,4.59,5.18,6.91,11.32,6.2,18.25-1,10-5.51,18.17-14.05,23.86C390.16,151.77,389.22,152.48,387.79,153.5ZM325.47,194c.74.08,1.22.18,1.71.18,14.23,0,28.46,0,42.69-.15a16,16,0,0,0,5.95-1.5c6.68-2.9,8.31-8.33,8.42-14.68a23.76,23.76,0,0,0-.65-3.67,12.45,12.45,0,0,0-4.75-8.12c-3.62-2.88-8-3.67-12.36-3.72-12.65-.13-25.3,0-38,0a14.55,14.55,0,0,0-1.75.07,1.39,1.39,0,0,0-1.4,1.45q0,.75,0,1.5,0,13.11,0,26.21C325.36,192.22,325.42,193,325.47,194Zm0-49.14c.88.08,1.45.17,2,.17,13.15,0,26.3,0,39.45,0a11.21,11.21,0,0,0,6.26-2,14.78,14.78,0,0,0,6.91-11.74,18.7,18.7,0,0,0-1.57-8,12.37,12.37,0,0,0-11.8-8.18q-19.35,0-38.69,0c-.81,0-1.62.07-2.57.12Z"/><path d="M429.4,94.42c1.17-.09,2.06-.22,2.94-.22q12.38,0,24.75,0c3.2,0,3.24,0,3.24,3.2q0,35.25,0,70.48c0,1.33,0,2.67,0,4,.19,8.6,4.65,14.4,12.12,18.08a21.29,21.29,0,0,0,8.33,2.21c2.06.12,4.15.78,6.17.61,5.92-.52,11.84-1.16,17-4.58a17.84,17.84,0,0,0,7.67-10.49,22.19,22.19,0,0,0,.73-6.14V94.39c1.06-.08,1.86-.19,2.66-.19q12.75,0,25.49,0c2.67,0,2.81.15,2.81,2.84,0,26.08.06,52.15-.08,78.23,0,3.42-1,6.85-1.64,10.27a34.76,34.76,0,0,1-5.56,12.81A41.45,41.45,0,0,1,520.7,212a73.14,73.14,0,0,1-17.38,6.31,78.45,78.45,0,0,1-26.74,1.41c-9.59-1-18.85-3.34-27.17-8.58a40,40,0,0,1-17.18-21.24,48.1,48.1,0,0,1-2.8-15.59c0-7,0-14,0-21l0-55.74Z"/><path d="M1076.37,215c-.79,0-1.53.11-2.27.11h-21.48c-2.39,0-2.37,0-3.26-2.2q-4.54-11.09-9.11-22.16a3.82,3.82,0,0,0-4-2.71c-14.66-.15-29.31-.5-44-.78-.83,0-1.67,0-2.5,0a2.46,2.46,0,0,0-2.2,1.74q-3.6,9.6-7.18,19.21c-.66,1.77-1.3,3.55-2,5.29a2.1,2.1,0,0,1-2,1.58L952.63,215c-.08,0-.15-.09-.41-.25a9.26,9.26,0,0,1,.4-2c2.06-4.94,4.18-9.84,6.26-14.77,2.54-6,5-12,7.6-18,2.15-5.07,4.36-10.12,6.51-15.19s4.27-10.18,6.41-15.26c2.5-5.91,5-11.81,7.51-17.72,2.21-5.23,4.37-10.49,6.58-15.72,2.15-5.07,4.36-10.12,6.52-15.19.52-1.21,1-2.44,1.46-3.68a2.69,2.69,0,0,1,2.79-2c6.42,0,12.83,0,19.24,0a2.93,2.93,0,0,1,3,2.08c3.85,9.08,7.81,18.11,11.71,27.17,2.76,6.43,5.44,12.89,8.2,19.32,3.23,7.55,6.52,15.08,9.75,22.64,2.81,6.58,5.54,13.2,8.36,19.77,3.18,7.4,6.42,14.77,9.62,22.16.76,1.74,1.51,3.47,2.21,5.23A4.54,4.54,0,0,1,1076.37,215Zm-79-49.22h32.09a11.62,11.62,0,0,0-.45-2.07c-1.48-3.58-3-7.12-4.5-10.71-3.44-8.46-6.81-16.95-10.26-25.41-.2-.49-.82-.8-1.35-1.3C1007.72,139.51,1002.64,152.42,997.41,165.73Z"/><path d="M1123,215.06h-26.16c-.08-1.17-.18-2-.18-2.79q0-56.73,0-113.47c0-2.65.06-2.72,2.62-2.72q10.74,0,21.49,0c.74,0,1.47.09,2.14.14C1123.45,98.18,1123.56,212,1123,215.06Z"/><path d="M860.66,94.35h24.43c.61,2,.73,117.66.14,120.55H860.69C860.15,212.86,860.08,97,860.66,94.35Z"/><path d="M936.25,188.22v26.67H908.83c-.08-.89-.2-1.61-.2-2.34q0-10.86,0-21.73c0-2.62.09-2.72,2.63-2.73h23C934.82,188.09,935.39,188.16,936.25,188.22Z"/><path class="cls-2" d="M155.31,177c.64-1.43,1.12-2.52,1.63-3.6a74.29,74.29,0,0,0,4.73-13.76,53,53,0,0,0,1.21-10.88,54.9,54.9,0,0,0-1.06-11.87c-1.87-10.18-7.49-18.39-13.41-26.42a74,74,0,0,0-22.9-20.77,76.61,76.61,0,0,0-13.32-5.83c-9.66-3.32-19.59-3.27-29.56-2.68-2.6.16-5.17,1.06-7.75,1.6-.64.13-1.3.15-2.32.26a11,11,0,0,1,1.07-1.55c8.53-8.29,17.67-15.76,28.55-20.83C110,57,118.28,54.77,127,55.29a46.36,46.36,0,0,1,22.46,7.38c10.6,6.73,18.49,16,24.87,26.65a66.42,66.42,0,0,1,7.3,18.1,71.44,71.44,0,0,1,2.6,19.2A59.51,59.51,0,0,1,170.32,164a66.1,66.1,0,0,1-13.95,12.55A6.1,6.1,0,0,1,155.31,177Z"/><path class="cls-3" d="M121.42,252.1c-3.5.34-6.45.82-9.41.88-6,.13-12,.34-18,0-10.71-.7-20.79-3.61-29.71-9.88A44.33,44.33,0,0,1,49.43,225a63.43,63.43,0,0,1-4.12-12.65,77,77,0,0,1-1.6-22.54A75.09,75.09,0,0,1,56,153.84a58.85,58.85,0,0,1,23.94-21.25A59.5,59.5,0,0,1,94,127.88a96.1,96.1,0,0,1,13.6-1.61,11.33,11.33,0,0,1,4.41.66,7,7,0,0,1-1.3,1.09A61,61,0,0,0,89.94,144.1a50.08,50.08,0,0,0-9.67,18.26,48.19,48.19,0,0,0-2,12.49c-.06,3.33-.66,6.64-.67,10a86.24,86.24,0,0,0,1.58,15.6A65.45,65.45,0,0,0,93.26,231a69.93,69.93,0,0,0,27.25,20.29A8.62,8.62,0,0,1,121.42,252.1Z"/><path class="cls-4" d="M119.51,193.48a5.33,5.33,0,0,1,1.29-.1,42.93,42.93,0,0,0,14.42.57c15.7-1.59,28.86-8,38.51-20.92a120.48,120.48,0,0,0,10.12-14.93A85.56,85.56,0,0,0,190.72,141c2.5-8.67,2.38-17.45,1.57-26.2A57.64,57.64,0,0,0,188,98.58a85.25,85.25,0,0,0-7.6-14.4,6.21,6.21,0,0,1,1.52.21c10.56,5.29,20.62,11.32,29,19.75,5.82,5.81,10.49,12.43,13.12,20.25a44.6,44.6,0,0,1,1.62,22.85c-3.12,16.44-11.57,29.82-23.42,41.14a63.83,63.83,0,0,1-21.87,13.73,78.37,78.37,0,0,1-11.28,3.63,52.37,52.37,0,0,1-16.61,1.07A66.57,66.57,0,0,1,121.1,195C120.61,194.59,120.2,194.12,119.51,193.48Z"/><path class="cls-5" d="M151.31,135.22c-2.54-2.13-4.65-3.93-6.79-5.69a56.75,56.75,0,0,0-19.27-10.34,50.68,50.68,0,0,0-20.44-2,67.09,67.09,0,0,0-10,2.14c-2.86.74-5.68,1.69-8.49,2.66C72.73,126.67,61,134.14,52,145.6A67.29,67.29,0,0,0,40.63,167,59,59,0,0,0,37.32,185a2.33,2.33,0,0,1-.64,1.59c-1-2.06-2.22-4.07-3.14-6.2-2-4.6-4-9.19-5.7-13.9a67.34,67.34,0,0,1-2.36-9.35,79.57,79.57,0,0,1-1.55-9.8,80.93,80.93,0,0,1,.17-8.94c0-.57.24-1.14.28-1.72a40.5,40.5,0,0,1,6.64-19c5.24-8.26,12.63-14.11,21.15-18.64a85.81,85.81,0,0,1,18.74-7.2,71.6,71.6,0,0,1,23.23-2.08,73.14,73.14,0,0,1,15,2.4A58.49,58.49,0,0,1,139.39,112a69.42,69.42,0,0,1,10.77,19.2C150.58,132.35,150.83,133.55,151.31,135.22Z"/><path class="cls-6" d="M91.27,166.16a10.45,10.45,0,0,1,1,2.1,58.27,58.27,0,0,0,9.21,21,50.93,50.93,0,0,0,25.92,19.61,107,107,0,0,0,13.85,4c7.67,1.51,15.4,2.52,23.3,1.6a77.94,77.94,0,0,0,13.2-2.44,66.65,66.65,0,0,0,20.79-10.36,69.68,69.68,0,0,0,15.38-15.33c.24-.33.57-.6,1.08-1.16a6.68,6.68,0,0,1,.24,1.79c-.62,4.27-1.14,8.57-2,12.8a106.2,106.2,0,0,1-3.08,11.78,70.68,70.68,0,0,1-7.7,16.62,46.67,46.67,0,0,1-19.48,17.49,50.43,50.43,0,0,1-11.3,3.57c-6.55,1.37-13.11,1-19.63.55-4.07-.3-8.07-1.67-12.1-2.52A58.9,58.9,0,0,1,127.77,243a74.38,74.38,0,0,1-25.13-18.88,56.94,56.94,0,0,1-9.5-15,66.62,66.62,0,0,1-3.79-12c-1.49-6.61-1.07-13.25-.75-19.88.13-2.85,1.06-5.67,1.63-8.5.17-.86.37-1.71.55-2.57Z"/></g></g></svg>