<svg id="Layer_1" data-name="Layer 1" xmlns="http://www.w3.org/2000/svg" viewBox="0 0 899 179"><defs><style>.cls-1{fill:#ff6b00;}.cls-2{fill:#222;}</style></defs><path class="cls-1" d="M79.66,43.77h24.06v95.87H79.66V129.51a47.12,47.12,0,0,1-14.13,9.64,39.46,39.46,0,0,1-15.35,2.95q-18.57,0-32.13-14.4T4.5,91.88q0-22.2,13.11-36.39T49.47,41.3a40.6,40.6,0,0,1,16.2,3.26,44.25,44.25,0,0,1,14,9.78ZM54.37,63.51a24.34,24.34,0,0,0-18.53,7.88q-7.38,7.89-7.37,20.22T36,112.06a24.32,24.32,0,0,0,18.49,8,24.79,24.79,0,0,0,18.8-7.88q7.45-7.87,7.46-20.66,0-12.51-7.46-20.27T54.37,63.51"/><path class="cls-1" d="M151.92,43.77V54.34A45.2,45.2,0,0,1,166,44.56a40.65,40.65,0,0,1,16.21-3.26q18.78,0,31.9,14.19t13.13,36.39q0,21.41-13.57,35.82t-32.16,14.4a39.92,39.92,0,0,1-15.42-2.95,47.06,47.06,0,0,1-14.18-9.64V174.7H128V43.77ZM177.2,63.51a25.1,25.1,0,0,0-18.85,7.75q-7.5,7.76-7.49,20.27,0,12.78,7.49,20.66a24.89,24.89,0,0,0,18.85,7.88,24.42,24.42,0,0,0,18.55-8q7.55-8,7.53-20.45t-7.4-20.22a24.54,24.54,0,0,0-18.68-7.88"/><path class="cls-1" d="M271.05,43.77V54.34a45.13,45.13,0,0,1,14.1-9.78,40.6,40.6,0,0,1,16.2-3.26q18.78,0,31.9,14.19t13.13,36.39q0,21.41-13.57,35.82t-32.16,14.4a39.92,39.92,0,0,1-15.42-2.95,47.18,47.18,0,0,1-14.18-9.64V174.7H247.16V43.77Zm25.28,19.74a25.09,25.09,0,0,0-18.85,7.75Q270,79,270,91.53q0,12.78,7.49,20.66a24.87,24.87,0,0,0,18.85,7.88,24.42,24.42,0,0,0,18.55-8q7.53-8,7.54-20.45T315,71.39a24.54,24.54,0,0,0-18.68-7.88"/><polygon class="cls-2" points="356.03 43.77 380.54 43.77 404.76 100.34 428.93 43.77 453.31 43.77 412.51 139.64 396.92 139.64 356.03 43.77"/><path class="cls-2" d="M476.75,4.3A14.7,14.7,0,0,1,487.6,8.88,15.18,15.18,0,0,1,492.12,20a15,15,0,0,1-4.48,11,14.51,14.51,0,0,1-10.71,4.53A14.77,14.77,0,0,1,466,30.86a15.49,15.49,0,0,1-4.52-11.24,14.81,14.81,0,0,1,4.48-10.83A14.69,14.69,0,0,1,476.75,4.3m-12,39.47h24.06v95.87H464.72Z"/><path class="cls-2" d="M606.67,98.67H529.4a25.71,25.71,0,0,0,8.94,16.25q7.27,6,18.55,6a32,32,0,0,0,23.17-9.43L600.33,121A48,48,0,0,1,582.18,137q-10.57,5.16-25.11,5.15-22.56,0-36.75-14.22T506.13,92.23q0-21.93,14.15-36.43t35.46-14.5q22.65,0,36.84,14.5t14.18,38.29Zm-24-19a24.08,24.08,0,0,0-9.4-13,27.26,27.26,0,0,0-16.29-5,28.8,28.8,0,0,0-17.65,5.64q-4.75,3.51-8.83,12.42Z"/><polygon class="cls-2" points="615.53 43.77 639.07 43.77 658.35 98.31 679.09 43.77 693.49 43.77 713.86 97.69 733.16 43.77 756.86 43.77 721.88 139.64 706.64 139.64 686.2 85 665.14 139.64 650.07 139.64 615.53 43.77"/><polygon class="cls-2" points="764.71 10.02 792.46 10.02 819.7 51.64 847 10.02 874.73 10.02 833.6 72.86 877.32 139.64 849.56 139.64 819.73 94.07 789.9 139.64 761.97 139.64 805.81 72.81 764.71 10.02"/><path class="cls-2" d="M878.61,19.39a7.79,7.79,0,0,1,1.06-4,7.67,7.67,0,0,1,2.9-2.92,8,8,0,0,1,7.95,0,7.67,7.67,0,0,1,2.91,2.91,7.91,7.91,0,0,1-2.83,10.81,7.69,7.69,0,0,1-4,1.1,7.91,7.91,0,0,1-7.95-7.93m1,0a6.83,6.83,0,0,0,.94,3.48,7,7,0,0,0,2.54,2.54,6.93,6.93,0,0,0,7,0,7,7,0,0,0,2.54-2.54,6.93,6.93,0,0,0,0-6.92,7,7,0,0,0-2.52-2.56,6.72,6.72,0,0,0-3.53-1,6.81,6.81,0,0,0-3.47.93,7,7,0,0,0-3.5,6m9.8-2a2.72,2.72,0,0,1-.41,1.48,2.66,2.66,0,0,1-1.17,1L890.32,24H889l-2.22-3.81h-1.77V24H884v-9.3h2.23a3.74,3.74,0,0,1,2.34.65,2.41,2.41,0,0,1,.84,2m-4.34,2h1.18a2.23,2.23,0,0,0,1.51-.49,1.82,1.82,0,0,0,.55-1.43c0-1.22-.7-1.82-2.08-1.82h-1.16Z"/></svg>