<svg fill="none" height="32" viewBox="0 0 80 32" width="80" xmlns="http://www.w3.org/2000/svg" xmlns:xlink="http://www.w3.org/1999/xlink"><linearGradient id="a" gradientUnits="userSpaceOnUse" x1="8.88727" x2="8.88727" y1="-.222885" y2="30"><stop offset="0" stop-color="#1bebb9"/><stop offset="1" stop-color="#ff9254"/></linearGradient><g fill="#121a24"><path d="m21.5886 27.0149c2.2985 0 4.209-1.3433 5.0149-2.9253v2.597h4.2986v-22.6866h-4.2986v9.403c-.8656-1.5821-2.4179-2.6866-4.9253-2.6866-3.9105 0-6.8657 3.0149-6.8657 8.1493v.2388c0 5.194 2.9851 7.9104 6.7761 7.9104zm1.2836-3.3731c-2.1493 0-3.6418-1.5224-3.6418-4.6269v-.2388c0-3.1045 1.3433-4.7462 3.7612-4.7462 2.3582 0 3.7313 1.582 3.7313 4.6865v.2388c0 3.1642-1.582 4.6866-3.8507 4.6866z"/><path d="m37.9534 27.0149c2.4477 0 3.8209-.9552 4.7164-2.2089v1.8806h4.2089v-10.1791c0-4.2388-2.7164-5.7911-6.5373-5.7911s-6.7463 1.6418-7.0149 5.3433h4.0895c.1791-1.3433.9553-2.209 2.6568-2.209 1.9701 0 2.5373 1.015 2.5373 2.8657v.6269h-1.7612c-4.7761 0-8.1194 1.3731-8.1194 5.0149 0 3.2836 2.388 4.6567 5.2239 4.6567zm1.2835-3.0149c-1.5821 0-2.2686-.7463-2.2686-1.8806 0-1.6716 1.4627-2.209 3.9701-2.209h1.6717v1.3135c0 1.7313-1.4627 2.7761-3.3732 2.7761z"/><path d="m49.647 26.6866h4.2986v-15.612h-4.2986zm2.1195-17.73138c1.4029 0 2.4776-1.01492 2.4776-2.3582 0-1.34329-1.0747-2.35821-2.4776-2.35821-1.3732 0-2.4478 1.01492-2.4478 2.35821 0 1.34328 1.0746 2.3582 2.4478 2.3582z"/><path d="m56.9765 26.6866h4.2985v-22.6866h-4.2985z"/><path d="m70.5634 32 8.4283-20.9254h-4.1206l-3.5212 9.3732-3.791-9.3732h-4.6568l6.2502 14.1207-2.7744 6.8047z"/></g><path d="m0 32h4.1875l12.8891-32h-4.085z" fill="url(#a)"/></svg>