<svg xmlns="http://www.w3.org/2000/svg" xmlns:xlink="http://www.w3.org/1999/xlink" width="122" height="42" viewBox="0 0 122 42">
    <defs>
        <path id="2z7vsxplna" d="M0 0.053L21.565 0.053 21.565 16.833 0 16.833z"/>
    </defs>
    <g fill="none" fill-rule="evenodd">
        <g>
            <g>
                <path fill="#2A7BFF" d="M66.187 20.198c0 .963-.365 1.805-1.088 2.522-.717.726-1.584 1.088-2.592 1.088h-1.472l-1.452-.05h-.52l-1.458.05h-1.47c-1.01 0-1.877-.362-2.595-1.088-.72-.717-1.082-1.56-1.082-2.522V9.026c0-1.004.362-1.868 1.082-2.592.718-.723 1.586-1.079 2.595-1.079h6.372c1.008 0 1.875.356 2.592 1.08.723.723 1.088 1.587 1.088 2.591v11.172zm4.353-14.58c-.457-1.041-1.078-1.952-1.87-2.753-.79-.787-1.722-1.412-2.77-1.869C64.84.54 63.703.308 62.508.308h-6.372c-1.2 0-2.331.231-3.39.688-1.053.457-1.982 1.082-2.769 1.869-.795.801-1.42 1.712-1.877 2.754-.45 1.032-.686 2.152-.686 3.355v11.203c0 1.206.235 2.326.686 3.364.457 1.03 1.082 1.947 1.877 2.742.787.796 1.716 1.418 2.769 1.876.94.407 1.938.638 2.997.685l3.581-.075 3.578.075c1.053-.047 2.057-.278 3-.685 1.047-.458 1.979-1.08 2.768-1.876.793-.795 1.414-1.712 1.871-2.742.458-1.038.686-2.158.686-3.364V8.974c0-1.203-.228-2.323-.686-3.355zM91.035 20.198c0 .963-.361 1.805-1.079 2.522-.726.726-1.594 1.088-2.591 1.088h-1.476l-1.46-.05h-.522l-1.446.05h-1.472c-1.013 0-1.878-.362-2.595-1.088-.723-.717-1.085-1.56-1.085-2.522V9.026c0-1.004.362-1.868 1.085-2.592.717-.723 1.582-1.079 2.595-1.079H87.365c.997 0 1.865.356 2.591 1.08.718.723 1.08 1.587 1.08 2.591v11.172zm4.362-14.58c-.46-1.041-1.084-1.952-1.872-2.753-.795-.787-1.727-1.412-2.774-1.869C89.69.54 88.561.308 87.365.308H80.99c-1.205 0-2.33.231-3.389.688-1.061.457-1.987 1.082-2.78 1.869-.789.801-1.417 1.712-1.87 2.754-.452 1.032-.684 2.152-.684 3.355v11.203c0 1.206.232 2.326.683 3.364.454 1.03 1.082 1.947 1.872 2.742.792.796 1.718 1.418 2.78 1.876.94.407 1.935.638 2.99.685l3.582-.075 3.58.075c1.05-.047 2.049-.278 2.997-.685 1.047-.458 1.98-1.08 2.774-1.876.788-.795 1.412-1.712 1.872-2.742.457-1.038.68-2.158.68-3.364V8.974c0-1.203-.223-2.323-.68-3.355zM97.772 5.786c.46-1.076 1.087-2.004 1.883-2.791.805-.807 1.727-1.435 2.768-1.886 1.045-.466 2.164-.694 3.376-.694h6.735c1.211 0 2.334.228 3.38.694 1.042.451 1.965 1.079 2.766 1.886.798.787 1.426 1.715 1.886 2.791.463 1.06.694 2.196.694 3.408v-.865l-.098 20.598h-5.034l.059-18.246V9.194c0-1.018-.37-1.89-1.09-2.615-.73-.726-1.572-1.088-2.547-1.088h-6.696c-1.013 0-1.889.362-2.612 1.088-.726.726-1.087 1.597-1.087 2.615v19.63h-5.077V9.193c0-1.212.232-2.349.694-3.408M37.59 23.894h-1.478l-1.458-.046h-.52l-1.461.046h-1.475c-1.019 0-1.884-.364-2.607-1.087-.72-.726-1.087-1.565-1.087-2.528V9.058c0-1.013.367-1.875 1.087-2.603.723-.718 1.588-1.082 2.607-1.082H37.59c1.021 0 1.886.364 2.604 1.082.726.728 1.09 1.59 1.09 2.603v11.22c0 .964-.364 1.803-1.09 2.529-.718.723-1.583 1.087-2.604 1.087m6.185 2.485c.801-.792 1.426-1.71 1.889-2.745.45-1.044.682-2.17.682-3.379V9.012c0-1.212-.231-2.335-.682-3.373-.463-1.041-1.088-1.959-1.89-2.757-.797-.795-1.72-1.426-2.782-1.886C39.934.54 38.802.308 37.59.308H31.198c-1.21 0-2.34.231-3.402.688-1.059.46-1.987 1.09-2.786 1.886-.798.798-1.42 1.716-1.886 2.757-.454 1.038-.68 2.16-.68 3.373l-.07 2.42v30.515h4.86V28.002c.186.096.371.188.562.27.94.41 1.944.632 3.008.682l3.587-.084 3.593.084c1.064-.05 2.068-.272 3.008-.683 1.061-.457 1.985-1.085 2.783-1.892" transform="translate(-209 -36) translate(209 36)"/>
                <g transform="translate(-209 -36) translate(209 36) translate(0 .194)">
                    <mask id="n5fagxishb" fill="#fff">
                        <use xlink:href="#2z7vsxplna"/>
                    </mask>
                    <path fill="#2A7BFF" d="M21.027 4.163c-.342-.81-.833-1.527-1.44-2.137-.611-.61-1.32-1.097-2.118-1.444-.802-.35-1.672-.53-2.6-.53h-8.17c-.928 0-1.805.18-2.606.53-.79.347-1.504.833-2.109 1.444-.613.61-1.102 1.328-1.451 2.137C.183 4.98 0 5.864 0 6.778v2.066l5.54 7.99 4.02-1.991-5.137-7.107v-.958c0-.636.223-1.171.683-1.625.46-.463.969-.686 1.576-.686h8.155c.633 0 1.174.223 1.628.686.46.454.686.989.686 1.625v4.34l4.414-2.182V6.778c0-.914-.182-1.799-.538-2.615" mask="url(#n5fagxishb)"/>
                </g>
                <path fill="#2A7BFF" d="M12.057 13.81l5.094 7.154v.955c0 .633-.226 1.174-.686 1.637-.454.457-.975.677-1.58.677H6.733c-.643 0-1.166-.22-1.626-.677-.46-.463-.683-1.004-.683-1.637v-4.336L0 19.76v2.158c0 .925.182 1.801.532 2.615.35.818.839 1.538 1.452 2.137.605.61 1.32 1.097 2.11 1.447.8.35 1.677.535 2.605.535h8.17c.928 0 1.807-.185 2.603-.535.796-.35 1.504-.836 2.114-1.447.608-.599 1.103-1.319 1.44-2.137.357-.814.539-1.69.539-2.615v-2.057l-5.461-8.036-4.047 1.985z" transform="translate(-209 -36) translate(209 36)"/>
            </g>
        </g>
    </g>
</svg>