<?xml version="1.0" encoding="UTF-8"?>
<svg xmlns="http://www.w3.org/2000/svg" xmlns:xlink="http://www.w3.org/1999/xlink" width="600pt" height="608pt" viewBox="0 0 600 608" version="1.1">
<defs>
<clipPath id="clip1">
  <path d="M 4 20 L 600 20 L 600 608 L 4 608 Z M 4 20 "/>
</clipPath>
</defs>
<g id="surface1">
<g clip-path="url(#clip1)" clip-rule="nonzero">
<path style=" stroke:none;fill-rule:nonzero;fill:rgb(100%,100%,100%);fill-opacity:1;" d="M 779.023438 -0.03125 L 57.039062 -0.03125 C 25.578125 -0.03125 0 25.59375 0 57.09375 L 0 779.867188 C 0 811.34375 25.578125 836.96875 57.039062 836.96875 L 779.023438 836.96875 C 810.484375 836.96875 836.0625 811.34375 836.0625 779.867188 L 836.0625 57.09375 C 836.0625 25.59375 810.484375 -0.03125 779.023438 -0.03125 M 816.40625 779.867188 C 816.40625 800.4375 799.578125 817.265625 779.023438 817.265625 L 57.039062 817.265625 C 36.484375 817.265625 19.679688 800.4375 19.679688 779.867188 L 19.679688 57.09375 C 19.679688 36.523438 36.484375 19.671875 57.039062 19.671875 L 779.023438 19.671875 C 799.578125 19.671875 816.40625 36.523438 816.40625 57.09375 L 816.40625 779.867188 "/>
</g>
<path style=" stroke:none;fill-rule:nonzero;fill:rgb(14.509804%,24.705882%,49.411765%);fill-opacity:1;" d="M 585.953125 555.71875 C 585.953125 570.484375 573.875 582.5625 559.125 582.5625 L 40.9375 582.5625 C 26.1875 582.5625 14.125 570.484375 14.125 555.71875 L 14.125 36.96875 C 14.125 22.203125 26.1875 10.109375 40.9375 10.109375 L 559.125 10.109375 C 573.875 10.109375 585.953125 22.203125 585.953125 36.96875 L 585.953125 555.71875 "/>
<path style=" stroke:none;fill-rule:nonzero;fill:rgb(100%,100%,100%);fill-opacity:1;" d="M 369.109375 492.890625 C 382 487.953125 388.515625 478.640625 388.515625 463.828125 C 388.515625 462.984375 388.453125 462.203125 388.390625 461.40625 C 387.21875 442.015625 371.96875 432.5 353.59375 432.5 L 303.75 432.5 L 303.75 531.296875 L 327.171875 531.296875 L 327.171875 495.71875 L 343.953125 495.71875 L 362.0625 531.296875 L 388.515625 531.296875 L 369.109375 492.890625 M 350.046875 478.96875 L 327.171875 478.96875 L 327.171875 449.8125 L 350.046875 449.8125 C 359.015625 449.8125 364.53125 454.015625 364.53125 464.21875 C 364.53125 474.09375 359.453125 478.96875 350.046875 478.96875 "/>
<path style=" stroke:none;fill-rule:nonzero;fill:rgb(100%,100%,100%);fill-opacity:1;" d="M 179.09375 432.46875 L 152.46875 432.46875 L 136.09375 475.71875 L 117.671875 443.5625 C 114.15625 437.46875 105.546875 432.46875 98.53125 432.46875 L 85.203125 432.46875 L 125.609375 503.5625 L 115.046875 531.296875 L 128.90625 531.296875 C 135.921875 531.296875 143.71875 525.921875 146.203125 519.34375 L 179.09375 432.46875 "/>
<path style=" stroke:none;fill-rule:nonzero;fill:rgb(100%,100%,100%);fill-opacity:1;" d="M 249.625 488.265625 L 216.109375 488.265625 L 230.15625 451.171875 C 231.640625 447.21875 234.09375 447.21875 235.578125 451.171875 L 249.625 488.265625 M 255.921875 504.875 L 265.921875 531.3125 L 291 531.3125 L 258.125 444.421875 C 255.625 437.859375 247.84375 432.46875 240.8125 432.46875 L 212.125 432.46875 L 174.71875 531.3125 L 187.265625 531.3125 C 194.171875 531.3125 201.84375 525.921875 204.34375 519.34375 L 209.8125 504.875 L 255.90625 504.875 "/>
<path style=" stroke:none;fill-rule:nonzero;fill:rgb(100%,100%,100%);fill-opacity:1;" d="M 451.65625 451.171875 C 453.15625 447.234375 455.59375 447.234375 457.078125 451.171875 L 471.125 488.265625 L 437.609375 488.265625 L 451.65625 451.171875 M 431.328125 504.875 L 477.40625 504.875 L 482.890625 519.34375 C 485.375 525.921875 493.0625 531.3125 499.953125 531.3125 L 512.515625 531.3125 L 475.109375 432.46875 L 446.421875 432.46875 C 439.390625 432.46875 431.609375 437.859375 429.109375 444.4375 L 396.234375 531.3125 L 421.328125 531.3125 L 431.3125 504.875 "/>
<path style=" stroke:none;fill-rule:evenodd;fill:rgb(100%,100%,100%);fill-opacity:1;" d="M 158.421875 153.390625 C 158.421875 94.53125 197.296875 57.296875 197.296875 57.296875 C 198.234375 56.5 201.421875 56.625 203.9375 56.625 L 247.359375 56.625 C 225.46875 75.78125 211.765625 124.015625 211.765625 153.390625 C 211.765625 182.640625 225.46875 230.890625 247.359375 250.15625 L 203.9375 250.15625 C 201.421875 250.15625 198.234375 250.296875 197.296875 249.5 C 197.296875 249.5 158.421875 212.25 158.421875 153.390625 M 384 249.5 C 385.046875 250.296875 388.109375 250.15625 390.765625 250.15625 L 434.171875 250.15625 C 412.140625 230.890625 398.453125 182.640625 398.453125 153.390625 C 398.453125 124.015625 412.140625 75.78125 434.171875 56.625 L 390.765625 56.625 C 388.109375 56.625 385.046875 56.5 384 57.296875 C 384 57.296875 345.21875 94.515625 345.21875 153.390625 C 345.21875 212.25 384 249.5 384 249.5 M 290.640625 249.5 C 291.71875 250.296875 294.765625 250.15625 297.40625 250.15625 L 340.6875 250.15625 C 318.78125 230.890625 305 182.640625 305 153.390625 C 305 124.015625 318.78125 75.78125 340.6875 56.625 L 297.40625 56.625 C 294.765625 56.625 291.71875 56.5 290.640625 57.296875 C 290.640625 57.296875 251.875 95.203125 251.875 153.390625 C 251.875 211.5625 290.640625 249.5 290.640625 249.5 M 503.03125 326.609375 C 496.390625 313.046875 484.828125 290 482.71875 282.203125 C 482.71875 282.203125 475.75 264.515625 494.453125 261.578125 C 502.359375 260.421875 507.640625 254.671875 508.03125 247.140625 L 507.9375 238.453125 C 507.875 237.1875 506.890625 236.1875 505.640625 236.078125 L 474.78125 236.09375 C 474.25 236.09375 453.09375 238.453125 452.84375 264.25 C 452.203125 308.265625 453.140625 314.171875 441.328125 316.140625 C 440.265625 316.015625 439.4375 315.15625 439.4375 314.0625 C 439.453125 313.625 439.46875 313.171875 439.46875 312.734375 C 439.46875 289.3125 420.5 270.328125 397.109375 270.328125 C 385.203125 270.328125 374.46875 275.28125 366.78125 283.1875 L 366.765625 283.1875 C 366.453125 283.65625 365.6875 284.328125 364.828125 284.328125 C 363.953125 284.328125 363.203125 283.65625 362.890625 283.1875 C 355.1875 275.28125 344.453125 270.328125 332.546875 270.328125 C 320.65625 270.328125 309.921875 275.28125 302.21875 283.1875 C 301.890625 283.65625 301.140625 284.328125 300.265625 284.328125 C 299.40625 284.328125 298.65625 283.65625 298.328125 283.1875 C 290.640625 275.28125 279.90625 270.328125 268 270.328125 C 256.09375 270.328125 245.359375 275.28125 237.671875 283.1875 L 237.65625 283.1875 C 237.34375 283.65625 236.59375 284.328125 235.71875 284.328125 C 234.84375 284.328125 234.109375 283.65625 233.78125 283.1875 C 226.09375 275.28125 215.359375 270.328125 203.453125 270.328125 C 180.046875 270.328125 161.078125 289.3125 161.078125 312.734375 C 161.078125 313.171875 161.109375 313.609375 161.125 314.046875 C 161.125 314.046875 161.125 314.046875 161.125 314.0625 C 161.125 315.234375 160.09375 316.171875 158.921875 316.171875 C 146.953125 314.21875 147.90625 308.46875 147.265625 264.25 C 147.015625 238.453125 125.84375 236.09375 125.328125 236.09375 L 94.453125 236.078125 C 93.203125 236.1875 92.21875 237.1875 92.15625 238.453125 L 92.078125 247.140625 C 92.453125 254.671875 97.75 260.421875 105.640625 261.578125 C 124.34375 264.515625 117.390625 282.203125 117.390625 282.203125 C 115.28125 290 103.703125 313.046875 97.0625 326.609375 C 92.828125 335.390625 84.203125 357.03125 97.734375 377.890625 C 105.578125 389.984375 114.875 401.28125 147.796875 400.78125 L 452.390625 400.78125 C 485.421875 401.28125 494.59375 389.984375 502.421875 377.890625 L 502.390625 377.859375 C 515.890625 357 507.28125 335.390625 503.03125 326.609375 M 203.453125 287.296875 C 189.40625 287.296875 178.03125 298.6875 178.03125 312.734375 C 178.03125 326.796875 189.40625 338.1875 203.453125 338.1875 C 217.484375 338.1875 228.859375 326.796875 228.859375 312.734375 C 228.859375 298.6875 217.484375 287.296875 203.453125 287.296875 M 397.109375 287.296875 C 383.078125 287.296875 371.6875 298.6875 371.6875 312.734375 C 371.6875 326.796875 383.078125 338.1875 397.109375 338.1875 C 411.140625 338.1875 422.515625 326.796875 422.515625 312.734375 C 422.515625 298.6875 411.140625 287.296875 397.109375 287.296875 M 268 287.296875 C 253.96875 287.296875 242.578125 298.6875 242.578125 312.734375 C 242.578125 326.796875 253.96875 338.1875 268 338.1875 C 282.03125 338.1875 293.421875 326.796875 293.421875 312.734375 C 293.421875 298.6875 282.03125 287.296875 268 287.296875 M 332.546875 287.296875 C 318.515625 287.296875 307.140625 298.6875 307.140625 312.734375 C 307.140625 326.796875 318.515625 338.1875 332.546875 338.1875 C 346.59375 338.1875 357.96875 326.796875 357.96875 312.734375 C 357.96875 298.6875 346.59375 287.296875 332.546875 287.296875 "/>
</g>
</svg>
