<svg height="510" viewBox="7.083 7.084 1000.566 192.796" width="2500" xmlns="http://www.w3.org/2000/svg"><path d="m103.479 199.88c-53.225 0-96.396-43.16-96.396-96.4s43.171-96.396 96.397-96.396c53.224 0 96.395 43.155 96.395 96.396 0 52.67-43.171 96.4-96.395 96.4m518.426-85.954c5.538-4.5 8.656-10.99 7.258-18.016-.753-1.979-2.42-3.957-4.3-5.188-6.775-4.704-18.119-4.57-25.054-.339-7.473 4.027-11.774 11.806-11.129 20.134.484 3.683 3.925 6.962 7.366 8.188 8.71 3.548 18.978 1.021 25.86-4.78l14.676 14.592c-8.494 4.655-18.44 7.112-27.902 8.07-13.602.542-26.989-1.366-38.01-7.92-8.494-5.188-13.387-14.059-11.828-24.225 3.226-17.543 21.828-29.209 37.688-32.897 20.59-3.683 44.084-2.043 57.686 15.22 3.925 5.597 4.301 14.129 1.613 20.473-3.71 9.763-10.752 16.617-19.247 21.279zm226.769 22.316 14.892-64.901h25.913l-10.161 45.283c.108.409.376.888.806.952h37.688l-4.301 18.666zm-367.303-44.241 5.591-20.66h80.267l-5.269 20.322h-26.558l-.484.613-12.096 44.063h-25.914l11.667-43.106c.161-.63-.269-1.162-1.022-1.232zm-116.395 44.338h-25.86l9.033-34.107c-.054-.204-.27-.134-.484-.134l-27.526 34.241h-14.247l-8.333-34.924c0-.113-.215-.36-.323-.344-.107.016-.484.172-.699.817-.215.65-9.354 34.451-9.354 34.451h-21.29l17.903-64.998h34.515l6.774 27.956 22.419-27.956h35.214zm448-22.413c5.537-4.5 8.71-10.99 7.257-18.016-.752-1.979-2.365-3.957-4.3-5.188-6.775-4.704-18.065-4.57-25.054-.339-7.419 4.027-11.72 11.806-11.128 20.134.484 3.683 3.978 6.962 7.365 8.188 8.763 3.548 18.978 1.021 25.86-4.78l14.73 14.592c-8.548 4.655-18.44 7.112-27.956 8.07-13.602.542-26.935-1.366-38.01-7.92-8.44-5.188-13.386-14.059-11.827-24.225 3.225-17.543 21.88-29.209 37.687-32.897 20.645-3.683 44.085-2.043 57.687 15.22 3.924 5.597 4.3 14.129 1.612 20.473-3.655 9.763-10.698 16.617-19.193 21.279zm-368.486 0c5.484-4.5 8.656-10.99 7.204-18.016-.752-1.979-2.365-3.957-4.3-5.188-6.774-4.704-18.064-4.57-25.054-.339-7.419 4.027-11.72 11.806-11.128 20.134.484 3.683 3.978 6.962 7.365 8.188 8.763 3.548 18.978 1.021 25.913-4.78l14.677 14.592c-8.494 4.655-18.44 7.112-27.956 8.07-13.548.542-26.935-1.366-38.01-7.92-8.44-5.188-13.386-14.059-11.774-24.225 3.172-17.543 21.828-29.209 37.634-32.897 20.645-3.683 44.085-2.043 57.687 15.22 3.978 5.597 4.3 14.129 1.666 20.473-3.71 9.763-10.752 16.617-19.247 21.279zm259.295-25.769-11.29.043-2.635 11.328h25.699c2.365-.339 4.086-1.124 5.914-2.968 1.505-1.505 2.258-3.752 1.451-5.87-.645-1.366-2.258-2.441-3.28-2.592l-15.86.06-.698-16.817h29.784c5.376 0 10.484 2.252 13.817 5.596 4.086 3.963 4.731 10.785 2.58 15.903-2.688 7.097-10 11.94-16.612 14.398-.269.274-.86.618-.376.957 3.225 1.365 7.096 3.618 7.849 7.37 1.183 5.049-.645 10.134-.968 14.914-.053 2.387 1.828 4.435 3.495 5.86h-29.032c-1.29-.269-2.527-1.237-3.118-2.468-.43-.962-.591-2.059-.537-3.225l.86-8.532c-.054-2.603-1.452-4.947-4.893-5.049h-20.483l-.591.231-4.463 19.043h-24.408c5.108-21.564 10.699-43.569 16.021-64.998h31.075zm264.778 20.038h-9.57l10.968-16.231c.161-.092.43-.049.484.156l3.817 16.075h-5.699l2.742 16.547h6.559c.215-.021.376.189.43.447l2.634 11.15h26.72l-14.892-64.998h-32.311l-41.88 64.998h21.558l7.795-11.597h23.387z" fill="#0f589f"/><path d="m103.479 123.678 28.924-95.998 36.88 123.223h-5.806s-2.097-6.3-3.817-12.048c-8.44-27.542-19.193-38.316-35.107-32.44-3.978 1.462-9.623 6.661-12.849 11.94-2.742 4.468-6.881 12.178-8.225 18.199-1.344-6.021-5.538-13.73-8.226-18.198-3.226-5.28-8.87-10.479-12.85-11.941-15.913-5.876-26.665 4.898-35.106 32.44-1.72 5.747-3.817 12.048-3.817 12.048h-5.752l36.827-123.223z" fill="#fff"/></svg>