<svg id="Layer_1" data-name="Layer 1" xmlns="http://www.w3.org/2000/svg" viewBox="0 0 426.8 573.86"><defs><style>.cls-1{fill:#fec111;}.cls-2{isolation:isolate;}.cls-3{fill:#fff;}</style></defs><path class="cls-1" d="M107.78,332.83l1.22-1,55-45.59,76,92.18,38.29-31.72L203,254.38l38.42-31.51,46.32,56.55,38.49-31.7-78.16-95-174.19,143a60.41,60.41,0,0,0,33.93,37.12Z"/><g class="cls-2"><path class="cls-1" d="M261.82,518s-22.46,41-48.14,41-48.15-41-48.15-41c-6.27-10.08,2-10,2-10h92.33S268.09,508,261.82,518Z"/></g><g id="Layer_11" data-name="Layer 11"><path class="cls-3" d="M359.34,358.32c35.32-35.89,55.82-83.81,55.82-138.15,0-109.83-93.92-198.86-198.86-198.86-109.83,0-198.86,89-198.86,198.86,0,47.33,24.78,106,55.83,138.15l34.51-25.49A155.87,155.87,0,0,1,215.83,64.62c82.26,0,155.87,69.78,155.87,155.87A154.85,154.85,0,0,1,323.91,332.8l35.26,25.73"/></g><g id="stand_1_Image" data-name="stand 1 Image"><g id="stand_1_Image-2" data-name="stand 1 Image" class="cls-2"><path class="cls-3" d="M309,461.93a11.68,11.68,0,0,0-1.79-3.33,9.82,9.82,0,0,0-3.09-2.85c-1-.6-2.18-.93-3.25-1.46h-.81v-.16h-1.14V454H129.57v.17h-1.13v.16h-.82a31.68,31.68,0,0,0-3.73,1.87,11.69,11.69,0,0,0-3.25,3.25,11.51,11.51,0,0,0-1.79,6.58v6.5a11,11,0,0,0,.65,3.25,11.33,11.33,0,0,0,1.79,3.33,9.9,9.9,0,0,0,3.08,2.85c1,.6,2.19.93,3.25,1.46h.82v.16h1.13v.16H298.92v-.16h1.3v-.16h.65a13.71,13.71,0,0,0,7-5.12,11.59,11.59,0,0,0,1.79-6.58v-6.5A11.3,11.3,0,0,0,309,461.93Z"/></g></g><g id="stand_2_Image" data-name="stand 2 Image"><g id="stand_2_Image-2" data-name="stand 2 Image" class="cls-2"><path class="cls-3" d="M309.65,409.39A10.8,10.8,0,0,0,307.7,406a11.47,11.47,0,0,0-3.25-2.6A21.53,21.53,0,0,0,301,402h-1v-.16h-170V402h-1.14a24.84,24.84,0,0,0-3.74,1.62,13.7,13.7,0,0,0-3.57,3.34,9.06,9.06,0,0,0-1,1.78,7.34,7.34,0,0,0-.32.82,6.89,6.89,0,0,0-.33.81,19.78,19.78,0,0,0-.32,3.25v6.66a11.35,11.35,0,0,0,.16,1.79,4.3,4.3,0,0,0,.16.73c.07.23.09.48.16.73s.38.65.49,1a8.09,8.09,0,0,0,.33.81A13.57,13.57,0,0,0,122.1,427c1.5,2.24,4,3.37,6.5,4.3h.82v.16h1.3v.17H299.25v-.17h1.46v-.16h.82c3-1.1,5.48-2.55,7.06-5.2.35-.58.61-1.12.9-1.7a5.15,5.15,0,0,0,.32-.82,6.25,6.25,0,0,0,.33-.81,19.9,19.9,0,0,0,.32-3.33v-6.66A10.55,10.55,0,0,0,309.65,409.39Z"/></g></g></svg>