<svg id="Layer_1" data-name="Layer 1" xmlns="http://www.w3.org/2000/svg" viewBox="0 0 426.47 573.27"><defs><style>.cls-1{fill:#fec111;}.cls-2{isolation:isolate;}</style></defs><path class="cls-1" d="M104.59,328.06l1.21-1,55-45.59,76,92.18,38.29-31.72-75.34-92.31,38.42-31.51,46.32,56.55L323,243l-78.17-95-174.19,143a60.39,60.39,0,0,0,33.94,37.12Z"/><path class="cls-1" d="M258.62,513.26s-22.46,41-48.14,41-48.15-41-48.15-41c-6.27-10.08,2-10,2-10h92.33S264.89,503.18,258.62,513.26Z"/><g id="Layer_11" data-name="Layer 11"><path d="M356.14,353.56C391.47,317.66,412,269.74,412,215.4,412,105.57,318,16.54,213.1,16.54c-109.83,0-198.86,89-198.86,198.86,0,47.34,24.78,106,55.83,138.16l34.52-25.5a155.86,155.86,0,0,1,108-268.21c82.26,0,155.87,69.78,155.87,155.87A154.83,154.83,0,0,1,320.71,328L356,353.76"/></g><g id="stand_1_Image" data-name="stand 1 Image"><g id="stand_1_Image-2" data-name="stand 1 Image" class="cls-2"><path d="M305.8,457.16a11.82,11.82,0,0,0-1.79-3.33,9.82,9.82,0,0,0-3.09-2.85c-1-.6-2.18-.93-3.25-1.46h-.81v-.16h-1.14v-.17H126.38v.17h-1.14v.16h-.81a31.06,31.06,0,0,0-3.74,1.87,11.69,11.69,0,0,0-3.25,3.25,11.51,11.51,0,0,0-1.79,6.58v6.5a11,11,0,0,0,.65,3.25,11.57,11.57,0,0,0,1.79,3.33,9.9,9.9,0,0,0,3.08,2.85c1,.6,2.19.93,3.26,1.46h.81v.16h1.14v.17H295.72v-.17H297v-.16h.65a13.71,13.71,0,0,0,7-5.12,11.51,11.51,0,0,0,1.79-6.58v-6.5A11.37,11.37,0,0,0,305.8,457.16Z"/></g></g><g id="stand_2_Image" data-name="stand 2 Image"><g id="stand_2_Image-2" data-name="stand 2 Image" class="cls-2"><path d="M306.45,404.62a10.8,10.8,0,0,0-1.95-3.41,11.33,11.33,0,0,0-3.25-2.6,21.53,21.53,0,0,0-3.41-1.38h-1v-.16h-170v.16h-1.14a24.84,24.84,0,0,0-3.74,1.62,14,14,0,0,0-3.57,3.34,9.06,9.06,0,0,0-1,1.78,7.34,7.34,0,0,0-.32.82,6.89,6.89,0,0,0-.33.81,19.78,19.78,0,0,0-.32,3.25v6.66a11.35,11.35,0,0,0,.16,1.79,5.55,5.55,0,0,0,.16.73c.07.23.09.48.16.73s.38.65.49,1a8.09,8.09,0,0,0,.33.81,13.57,13.57,0,0,0,1.13,1.63c1.5,2.24,4,3.37,6.5,4.3h.82v.17h1.3v.16H296.05v-.16h1.46v-.17h.82c2.95-1.1,5.48-2.55,7.07-5.2.34-.57.6-1.12.89-1.7a5.15,5.15,0,0,0,.32-.82,6.25,6.25,0,0,0,.33-.81,19.79,19.79,0,0,0,.32-3.33V408A10.55,10.55,0,0,0,306.45,404.62Z"/></g></g></svg>