<svg xmlns="http://www.w3.org/2000/svg" width="2500" height="718" viewBox="0 0 250.609 72"><path fill="#666" d="M114.121 47.992h-4.125c-.37 0-.508-.342-.675-.674l-4.867-8.193h-.747c-.882 0-3.613-.096-4.39-.139v8.332c0 .369-.273.674-.646.674h-3.378a.678.678 0 0 1-.674-.674V25.175c0-.678.4-.914 1.08-1.014 1.76-.271 5.537-.438 8.007-.438 5.202 0 10.008 1.859 10.008 7.636v.305c0 3.578-1.79 5.536-4.56 6.611l5.301 9.043c.07.102.07.197.07.273.001.229-.134.401-.404.401zm-5.069-16.633c0-2.534-1.966-3.614-5.345-3.614-.712 0-3.786.067-4.39.133v7.328c.535.033 3.809.102 4.39.102 3.476 0 5.345-.672 5.345-3.644v-.305zm14.482 9.977c0 2.834.109 2.908 2.664 2.908h8.553a.68.68 0 0 1 .678.676v2.158c0 .477-.17.646-.678.711-1.08.17-3.281.471-7.299.471-5.608 0-8.584.039-8.584-6.924v-10.69c0-6.961 2.976-6.922 8.584-6.922 4.018 0 6.219.305 7.299.472.508.065.678.237.678.711v2.159c0 .369-.305.68-.678.68h-8.553c-2.555 0-2.664.075-2.664 2.9v3.1h10.813a.68.68 0 0 1 .677.672v2.439a.681.681 0 0 1-.677.675h-10.813v3.804zm27.065 6.924c-5.435 0-10.118-2.363-10.118-9.564v-14.06c0-.375.309-.644.68-.644h3.339c.375 0 .677.269.677.644v14.06c0 3.854 1.781 5.682 5.423 5.682 3.652 0 5.432-1.828 5.432-5.682v-14.06c0-.375.302-.644.673-.644h3.344c.375 0 .68.269.68.644v14.06c-.002 7.2-4.687 9.564-10.13 9.564zm32.344-20.351h-6.74v19.409a.685.685 0 0 1-.684.674h-3.344a.68.68 0 0 1-.677-.674V27.909h-6.745c-.367 0-.672-.232-.672-.604v-2.669c0-.375.305-.644.672-.644h18.189c.365 0 .67.269.67.644v2.669c.001.372-.303.604-.669.604zm45.883 20.083h-4.125c-.371 0-.504-.342-.672-.674l-4.869-8.193h-.754c-.873 0-3.607-.096-4.389-.139v8.332c0 .369-.268.674-.637.674h-3.375a.679.679 0 0 1-.678-.674V25.175c0-.678.4-.914 1.078-1.014 1.756-.271 5.539-.438 8-.438 5.207 0 10.01 1.859 10.01 7.636v.305c0 3.578-1.793 5.536-4.562 6.611l5.311 9.043a.448.448 0 0 1 .068.273c0 .229-.138.401-.406.401zm-5.068-16.633c0-2.534-1.967-3.614-5.352-3.614-.705 0-3.779.067-4.389.133v7.328c.547.033 3.824.102 4.389.102 3.486 0 5.352-.672 5.352-3.644v-.305zm17.963 16.916c-2.986 0-6.012-.512-7.637-.885-.334-.068-.641-.303-.641-.674v-2.434c0-.369.307-.643.641-.643h.066c1.355.17 4.518.609 7.641.609 3.004 0 3.924-1.076 3.924-3.033 0-2.535-6.049-3.938-9.002-5.154-2.939-1.216-3.98-3.544-3.98-5.906 0-3.719 2.992-6.422 9.275-6.422 3.221 0 6.17.612 7.318.888.34.068.605.305.605.641v2.5c0 .334-.23.607-.574.607h-.064c-2.232-.201-4.545-.612-7.482-.612-2.504 0-4.377.878-4.377 2.398 0 1.112 1.27 2.133 2.77 2.729 1.5.591 3.467 1.356 5.715 2.26 2.846 1.151 4.691 2.828 4.691 6.071-.001 3.41-2.128 7.06-8.889 7.06zm-49.967-6.939c0 2.834.105 2.908 2.666 2.908h8.559a.68.68 0 0 1 .67.676v2.158c0 .477-.17.646-.67.711-1.088.17-3.285.471-7.303.471-5.619 0-8.588.039-8.588-6.924v-10.69c0-6.961 2.969-6.922 8.588-6.922 4.018 0 6.215.305 7.303.472.5.065.67.237.67.711v2.159c0 .369-.307.68-.67.68h-8.559c-2.561 0-2.666.075-2.666 2.9v3.1h10.814c.375 0 .67.307.67.672v2.439a.673.673 0 0 1-.67.675h-10.814v3.804z"/><linearGradient id="a" gradientUnits="userSpaceOnUse" x1="-29.204" y1="42.44" x2="-49.812" y2="54.337" gradientTransform="rotate(1.621 431.766 2762.79)"><stop offset="0" stop-color="#ff9100"/><stop offset=".05" stop-color="#ff8d00"/><stop offset=".25" stop-color="#ff8300"/><stop offset=".5" stop-color="#ff8000"/><stop offset=".75" stop-color="#ff8300"/><stop offset=".95" stop-color="#ff8d00"/><stop offset="1" stop-color="#ff9100"/></linearGradient><path fill="url(#a)" d="M34.337 25.46c.39.727.125 1.639-.605 2.033a1.508 1.508 0 0 1-2.041-.614c-.4-.726-.124-1.64.604-2.032a1.502 1.502 0 0 1 2.042.613zm-7.429 11.762a.894.894 0 0 0-.354 1.203.87.87 0 0 0 1.196.348.867.867 0 0 0 .36-1.194.891.891 0 0 0-1.202-.357zm-.15-3.616a1.03 1.03 0 0 0-.413 1.389c.277.508.899.691 1.402.423.497-.272.687-.907.418-1.4a1.03 1.03 0 0 0-1.407-.412zm.938-3.48a1.19 1.19 0 0 0-.485 1.597c.315.569 1.03.789 1.6.478a1.18 1.18 0 0 0 .483-1.6 1.188 1.188 0 0 0-1.598-.475zm1.914-3.01a1.324 1.324 0 0 0-.541 1.806c.35.639 1.144.882 1.788.533a1.318 1.318 0 0 0 .547-1.794 1.321 1.321 0 0 0-1.794-.545zm-1.465 13.53a.74.74 0 0 0-.299 1.006.75.75 0 0 0 1.004.3.75.75 0 0 0 .293-1.008.743.743 0 0 0-.998-.298zm17.094-12.314a.905.905 0 0 0 1.207.365.9.9 0 0 0 .359-1.208.88.88 0 0 0-1.198-.357.887.887 0 0 0-.368 1.2zm-3.003-1.911c.271.502.909.685 1.395.412.513-.272.696-.896.422-1.396a1.032 1.032 0 0 0-1.391-.424 1.049 1.049 0 0 0-.426 1.408zm-3.47-.93a1.163 1.163 0 0 0 1.586.473 1.177 1.177 0 0 0 .485-1.597 1.167 1.167 0 0 0-1.595-.471 1.175 1.175 0 0 0-.476 1.595zm-3.623.143a1.33 1.33 0 0 0 1.801.546 1.34 1.34 0 0 0 .534-1.805 1.327 1.327 0 0 0-2.335 1.259zm12.352 5.405c.19.359.64.489.988.297a.724.724 0 0 0 .301-.991.748.748 0 0 0-1.002-.314c-.343.199-.486.657-.287 1.008zm-2.55 14.068a1.497 1.497 0 0 0-2.046-.612 1.49 1.49 0 0 0-.603 2.034c.396.728 1.31.994 2.042.61.727-.402.998-1.319.607-2.032zm-13.556-1.458a.89.89 0 0 0-1.195-.356.88.88 0 0 0-.359 1.194.868.868 0 0 0 1.195.354.879.879 0 0 0 .359-1.192zm3.007 1.912a1.031 1.031 0 0 0-1.395-.413 1.018 1.018 0 0 0-.417 1.396c.26.503.891.695 1.391.425a1.05 1.05 0 0 0 .421-1.408zm3.478.93c-.303-.571-1.026-.774-1.606-.478a1.188 1.188 0 0 0-.476 1.599c.314.577 1.029.79 1.601.482a1.173 1.173 0 0 0 .481-1.603zm3.618-.145a1.334 1.334 0 0 0-1.802-.538c-.648.343-.873 1.146-.521 1.799a1.3 1.3 0 0 0 1.786.531c.65-.34.881-1.151.537-1.792zm8.22-11.574c.435-.25.601-.79.374-1.213a.883.883 0 0 0-1.197-.356.877.877 0 0 0-.362 1.202.886.886 0 0 0 1.185.367zm.166 3.61c.502-.273.682-.9.409-1.398a1.025 1.025 0 0 0-1.392-.418 1.05 1.05 0 0 0-.424 1.406c.266.493.912.675 1.407.41zm-.945 3.477c.586-.315.79-1.023.491-1.602a1.185 1.185 0 0 0-1.601-.479 1.192 1.192 0 0 0-.482 1.606 1.183 1.183 0 0 0 1.592.475zm-1.901 2.997c.644-.334.882-1.153.533-1.792-.354-.642-1.154-.891-1.795-.537a1.326 1.326 0 0 0-.536 1.798 1.314 1.314 0 0 0 1.798.531z"/><linearGradient id="b" gradientUnits="userSpaceOnUse" x1="-91.768" y1="38.415" x2="-123.81" y2="38.415" gradientTransform="rotate(16.367 -26.335 545.172)"><stop offset="0" stop-color="#ff9100"/><stop offset=".05" stop-color="#ff8d00"/><stop offset=".25" stop-color="#ff8300"/><stop offset=".5" stop-color="#ff8000"/><stop offset=".75" stop-color="#ff8300"/><stop offset=".95" stop-color="#ff8d00"/><stop offset="1" stop-color="#ff9100"/></linearGradient><path fill="url(#b)" d="M44.485 21.868a1.925 1.925 0 0 1-2.398 1.299 1.926 1.926 0 0 1-1.311-2.402 1.934 1.934 0 1 1 3.709 1.103zm-18.543 4.567a.97.97 0 0 0-1.188.652.955.955 0 0 0 1.832.536c.158-.503-.142-1.032-.644-1.188zm3.355-3.69a1.174 1.174 0 0 0-1.46.801 1.175 1.175 0 0 0 .798 1.464 1.185 1.185 0 0 0 1.465-.8 1.187 1.187 0 0 0-.803-1.465zm4.299-2.601a1.51 1.51 0 0 0-1.864 1.013 1.504 1.504 0 0 0 1.021 1.859 1.49 1.49 0 0 0 1.858-1.014 1.512 1.512 0 0 0-1.015-1.858zm4.761-1.065a1.68 1.68 0 0 0-2.095 1.14 1.68 1.68 0 0 0 1.139 2.092 1.688 1.688 0 0 0 2.091-1.138 1.677 1.677 0 0 0-1.135-2.094zM23.821 31.003a.706.706 0 0 0-.879.48.716.716 0 0 0 .478.893c.382.11.776-.11.887-.488a.712.712 0 0 0-.486-.885zm28.887 4.294a.95.95 0 0 0 .649 1.185.954.954 0 1 0 .539-1.832.959.959 0 0 0-1.188.647zm-1.104-4.775a1.177 1.177 0 0 0 .8 1.469c.63.186 1.28-.174 1.464-.8s-.171-1.279-.796-1.459a1.178 1.178 0 0 0-1.468.79zm-2.6-4.295a1.496 1.496 0 1 0 2.873.842 1.486 1.486 0 0 0-1.016-1.852 1.504 1.504 0 0 0-1.857 1.01zm-3.659-3.336a1.684 1.684 0 1 0 3.234.943 1.678 1.678 0 0 0-1.137-2.09 1.691 1.691 0 0 0-2.097 1.147zm6.976 17.226a.72.72 0 0 0 .479.885.708.708 0 0 0 .885-.485.709.709 0 0 0-.481-.886.719.719 0 0 0-.883.486zM35.857 51.241a1.937 1.937 0 0 0-1.314-2.41 1.933 1.933 0 0 0-2.401 1.312 1.936 1.936 0 0 0 1.314 2.408c1.026.297 2.109-.293 2.401-1.31zM23.92 36.703a.955.955 0 0 0-.644-1.187.968.968 0 0 0-1.19.65.951.951 0 0 0 .65 1.18.948.948 0 0 0 1.184-.643zm1.106 4.772a1.164 1.164 0 0 0-.796-1.452 1.16 1.16 0 0 0-1.463.793 1.176 1.176 0 1 0 2.259.659zm2.604 4.301a1.515 1.515 0 0 0-1.022-1.868 1.501 1.501 0 0 0-1.856 1.021 1.492 1.492 0 0 0 1.013 1.858 1.497 1.497 0 0 0 1.865-1.011zm3.659 3.341a1.691 1.691 0 0 0-1.149-2.092 1.674 1.674 0 0 0-2.084 1.148 1.678 1.678 0 0 0 1.139 2.085 1.693 1.693 0 0 0 2.094-1.141zm19.394-3.555a.96.96 0 0 0 1.193-.646.965.965 0 0 0-.647-1.189.963.963 0 0 0-1.187.648.958.958 0 0 0 .641 1.187zm-3.349 3.695a1.174 1.174 0 0 0 1.458-.793 1.174 1.174 0 0 0-.791-1.469 1.188 1.188 0 0 0-1.472.798 1.193 1.193 0 0 0 .805 1.464zm-4.299 2.602a1.495 1.495 0 0 0 1.863-1.017 1.494 1.494 0 0 0-1.016-1.854 1.496 1.496 0 1 0-.847 2.871zm-4.757 1.061a1.668 1.668 0 0 0 2.089-1.132 1.685 1.685 0 1 0-3.235-.949 1.684 1.684 0 0 0 1.146 2.081z"/><linearGradient id="c" gradientUnits="userSpaceOnUse" x1="-88.08" y1="56.713" x2="-124.34" y2="34.306" gradientTransform="rotate(13.286 6.894 661.237)"><stop offset="0" stop-color="#ff9100"/><stop offset=".05" stop-color="#ff8d00"/><stop offset=".25" stop-color="#ff8300"/><stop offset=".5" stop-color="#ff8000"/><stop offset=".75" stop-color="#ff8300"/><stop offset=".95" stop-color="#ff8d00"/><stop offset="1" stop-color="#ff9100"/></linearGradient><path fill="url(#c)" d="M54.112 22.852a2.486 2.486 0 0 1-3.512.096 2.475 2.475 0 0 1-.098-3.511 2.479 2.479 0 0 1 3.509-.108 2.495 2.495 0 0 1 .101 3.523zm-24.765-5.648a1.232 1.232 0 0 0-1.734.05 1.228 1.228 0 0 0 .05 1.73 1.23 1.23 0 0 0 1.734-.052 1.226 1.226 0 0 0-.05-1.728zm6.209-2.362a1.517 1.517 0 0 0-2.137.065 1.515 1.515 0 0 0 .065 2.142 1.518 1.518 0 0 0 2.138-.068 1.52 1.52 0 0 0-.066-2.139zm6.66-.487a1.927 1.927 0 0 0-2.716.079 1.924 1.924 0 0 0 2.798 2.639 1.927 1.927 0 0 0-.082-2.718zm6.301 1.613a2.157 2.157 0 0 0-3.056.089 2.161 2.161 0 0 0 .086 3.055 2.168 2.168 0 0 0 3.058-.089 2.165 2.165 0 0 0-.088-3.055zM24.083 21.34a.918.918 0 0 0-1.291.038.91.91 0 0 0 .035 1.29.907.907 0 0 0 1.29-.036.915.915 0 0 0-.034-1.292zm31.798 22.538a1.229 1.229 0 0 0 .05 1.735 1.23 1.23 0 0 0 1.685-1.791 1.231 1.231 0 0 0-1.735.056zm1.57-6.328a1.517 1.517 0 0 0 .069 2.135 1.509 1.509 0 0 0 2.139-.064 1.505 1.505 0 0 0-.067-2.137 1.52 1.52 0 0 0-2.141.066zm-.482-6.664a1.917 1.917 0 0 0 .083 2.715 1.918 1.918 0 0 0 2.715-.083 1.921 1.921 0 0 0-2.798-2.632zm-2.326-6.176a2.162 2.162 0 1 0 3.053-.095c-.862-.818-2.232-.771-3.053.095zm-2.137 24.657a.918.918 0 0 0 .04 1.292.908.908 0 0 0 1.288-.047.895.895 0 0 0-.039-1.282.904.904 0 0 0-1.289.037zM26.13 52.561a2.487 2.487 0 0 0-3.618-3.413 2.488 2.488 0 0 0 3.618 3.413zm-5.38-24.442a1.226 1.226 0 1 0-1.784-1.683c-.47.49-.442 1.263.055 1.731.487.46 1.261.441 1.729-.048zm-1.576 6.331a1.522 1.522 0 0 0-.062-2.141 1.514 1.514 0 0 0-2.079 2.2 1.52 1.52 0 0 0 2.141-.059zm.485 6.661a1.927 1.927 0 0 0-.081-2.723 1.925 1.925 0 0 0-2.719.084 1.926 1.926 0 0 0 .084 2.717c.776.733 1.99.694 2.716-.078zm2.322 6.178a2.165 2.165 0 0 0-.089-3.056 2.153 2.153 0 0 0-3.05.094 2.158 2.158 0 0 0 .082 3.055 2.174 2.174 0 0 0 3.057-.093zm25.3 7.504a1.222 1.222 0 0 0 1.732-.053 1.219 1.219 0 0 0-.053-1.728 1.22 1.22 0 0 0-1.729.05 1.225 1.225 0 0 0 .05 1.731zm-6.209 2.359c.61.575 1.566.537 2.139-.067a1.506 1.506 0 0 0-.062-2.134 1.519 1.519 0 0 0-2.144.066 1.516 1.516 0 0 0 .067 2.135zm-6.664.481c.78.735 1.988.699 2.715-.073a1.917 1.917 0 0 0-.076-2.715 1.931 1.931 0 0 0-2.722.076 1.916 1.916 0 0 0 .083 2.712zm-6.288-1.604a2.154 2.154 0 0 0 3.05-.09 2.159 2.159 0 1 0-3.147-2.959 2.154 2.154 0 0 0 .097 3.049z"/><linearGradient id="d" gradientUnits="userSpaceOnUse" x1="-14.588" y1="59.97" x2="-42.697" y2="11.284" gradientTransform="rotate(6.667 1.604 610.55)"><stop offset="0" stop-color="#ff9100"/><stop offset=".05" stop-color="#ff8d00"/><stop offset=".25" stop-color="#ff8300"/><stop offset=".5" stop-color="#ff8000"/><stop offset=".75" stop-color="#ff8300"/><stop offset=".95" stop-color="#ff8d00"/><stop offset="1" stop-color="#ff9100"/></linearGradient><path fill="url(#d)" d="M64.204 28.113a3.013 3.013 0 0 1-3.957-1.576 3.007 3.007 0 0 1 1.576-3.956 3.012 3.012 0 0 1 2.381 5.532zM43.065 8.952a1.655 1.655 0 0 0-1.953-1.304 1.654 1.654 0 0 0-1.305 1.953 1.662 1.662 0 0 0 3.258-.649zm7.131 1.551a2.007 2.007 0 0 0-2.447-1.451 2.006 2.006 0 0 0-1.453 2.447 2.012 2.012 0 1 0 3.9-.996zm6.575 3.173a2.501 2.501 0 0 0-3.141-1.646 2.505 2.505 0 0 0-1.649 3.142 2.51 2.51 0 0 0 4.79-1.496zm5.244 4.674a2.762 2.762 0 0 0-3.554-1.633 2.759 2.759 0 0 0-1.636 3.554 2.766 2.766 0 1 0 5.19-1.921zm-33.244-7.529a1.208 1.208 0 0 0-1.591-.63 1.207 1.207 0 1 0 .957 2.218c.613-.264.899-.976.634-1.588zm30.162 39.893a1.663 1.663 0 0 0 1.924 2.712 1.66 1.66 0 0 0 .391-2.318 1.66 1.66 0 0 0-2.315-.394zm3.304-6.482a2.013 2.013 0 1 0 2.15 3.403 2.013 2.013 0 0 0-2.15-3.403zm1.563-7.294a2.513 2.513 0 0 0-.959 3.419 2.504 2.504 0 0 0 3.415.953 2.5 2.5 0 0 0 .96-3.413 2.506 2.506 0 0 0-3.416-.959zm-.095-7.314a2.767 2.767 0 0 0-1.25 3.703 2.76 2.76 0 0 0 3.709 1.251 2.757 2.757 0 0 0 1.25-3.704 2.77 2.77 0 0 0-3.709-1.25zM48.486 59.593a1.208 1.208 0 1 0 .957 2.219c.613-.264.899-.975.635-1.59a1.211 1.211 0 0 0-1.592-.629zM14.803 49.418a3.012 3.012 0 0 0 1.567-3.959 3.002 3.002 0 0 0-3.95-1.57 3.006 3.006 0 0 0-1.575 3.956 3.014 3.014 0 0 0 3.958 1.573zm2.886-28.132a1.659 1.659 0 0 0 .396-2.313 1.653 1.653 0 0 0-2.314-.397 1.656 1.656 0 0 0-.396 2.318 1.662 1.662 0 0 0 2.314.392zm-3.301 6.481a2.015 2.015 0 0 0 .625-2.782 2.012 2.012 0 0 0-3.399 2.155 2.011 2.011 0 0 0 2.774.627zm-1.568 7.295a2.509 2.509 0 1 0-2.457-4.373 2.508 2.508 0 0 0 2.457 4.373zm.097 7.316a2.767 2.767 0 0 0 1.25-3.708 2.758 2.758 0 0 0-3.71-1.25 2.764 2.764 0 0 0-1.252 3.705 2.772 2.772 0 0 0 3.712 1.253zm20.64 20.674a1.664 1.664 0 0 0 1.957 1.307 1.667 1.667 0 0 0 1.302-1.961 1.666 1.666 0 0 0-1.956-1.302 1.664 1.664 0 0 0-1.303 1.956zm-7.127-1.555a2.007 2.007 0 0 0 2.446 1.453 2.01 2.01 0 1 0-.996-3.898 2.01 2.01 0 0 0-1.45 2.445zm-6.577-3.174a2.495 2.495 0 0 0 3.139 1.646 2.502 2.502 0 0 0 1.651-3.139 2.513 2.513 0 0 0-3.146-1.647 2.501 2.501 0 0 0-1.644 3.14zm-5.246-4.677a2.757 2.757 0 0 0 3.554 1.634 2.766 2.766 0 0 0-1.917-5.188 2.77 2.77 0 0 0-1.637 3.554zm39.581 2.439a1.298 1.298 0 0 0 1.611 2.034 1.298 1.298 0 1 0-1.611-2.034zm-12.169 5.246a1.302 1.302 0 0 0-1.094 1.475 1.296 1.296 0 0 0 1.472 1.095 1.297 1.297 0 0 0 1.099-1.472 1.3 1.3 0 0 0-1.477-1.098zM35.702 9.195a1.297 1.297 0 0 0-1.477-1.094 1.296 1.296 0 1 0 .378 2.567 1.3 1.3 0 0 0 1.099-1.473zm-13.054 4.897a1.303 1.303 0 0 0-1.826-.213 1.3 1.3 0 1 0 1.826.213z"/><linearGradient id="e" gradientUnits="userSpaceOnUse" x1="38.31" y1="72" x2="38.31"><stop offset="0" stop-color="#ff9100"/><stop offset=".05" stop-color="#ff8d00"/><stop offset=".25" stop-color="#ff8300"/><stop offset=".5" stop-color="#ff8000"/><stop offset=".75" stop-color="#ff8300"/><stop offset=".95" stop-color="#ff8d00"/><stop offset="1" stop-color="#ff9100"/></linearGradient><path fill="url(#e)" d="M72.761 39.855a3.857 3.857 0 0 1-3.852-3.86 3.845 3.845 0 0 1 3.857-3.851 3.847 3.847 0 0 1 3.854 3.855 3.858 3.858 0 0 1-3.859 3.856zM57.623 6.599a2.12 2.12 0 0 0-1.638-2.521 2.12 2.12 0 0 0-2.525 1.633 2.128 2.128 0 0 0 4.163.888zm7.598 5.44a2.573 2.573 0 0 0-2.141-2.948 2.58 2.58 0 0 0-.808 5.095 2.583 2.583 0 0 0 2.949-2.147zm6.122 7.069a3.215 3.215 0 1 0 0 0zm3.796 8.156a3.537 3.537 0 0 0-3.353-3.722 3.535 3.535 0 0 0-3.725 3.351 3.544 3.544 0 1 0 7.078.371zM39.862 1.546C39.862.687 39.167 0 38.311 0a1.548 1.548 0 0 0 0 3.094c.856 0 1.551-.691 1.551-1.548zM55.1 63.762a2.13 2.13 0 1 0 .886 4.167 2.13 2.13 0 0 0-.886-4.167zm7.172-5.946a2.578 2.578 0 1 0 .802 5.093 2.578 2.578 0 0 0-.802-5.093zm5.539-7.786a3.212 3.212 0 1 0 .672 6.39 3.207 3.207 0 0 0 2.86-3.531 3.214 3.214 0 0 0-3.532-2.859zm3.598-8.651a3.546 3.546 0 0 0-3.348 3.724 3.534 3.534 0 0 0 3.725 3.351 3.537 3.537 0 0 0 3.352-3.722 3.55 3.55 0 0 0-3.729-3.353zM38.311 68.905a1.548 1.548 0 0 0 0 3.095 1.547 1.547 0 1 0 0-3.095zM3.859 39.855a3.858 3.858 0 0 0 3.85-3.86 3.845 3.845 0 0 0-3.85-3.851A3.854 3.854 0 0 0 0 36a3.863 3.863 0 0 0 3.859 3.855zm17.663-31.62a2.129 2.129 0 0 0 1.64-2.525 2.122 2.122 0 0 0-2.524-1.635 2.126 2.126 0 1 0 .884 4.16zm-7.17 5.949a2.583 2.583 0 0 0 2.146-2.953 2.576 2.576 0 0 0-2.953-2.141 2.573 2.573 0 0 0-2.14 2.948 2.578 2.578 0 0 0 2.947 2.146zm-5.543 7.784a3.215 3.215 0 0 0-.671-6.393 3.207 3.207 0 0 0-2.859 3.534 3.21 3.21 0 0 0 3.53 2.859zm-3.598 8.65a3.546 3.546 0 0 0 3.353-3.726 3.537 3.537 0 0 0-3.73-3.352 3.54 3.54 0 0 0-3.352 3.723 3.548 3.548 0 0 0 3.729 3.355zM19 65.4a2.128 2.128 0 1 0 4.163.885 2.13 2.13 0 0 0-1.64-2.524A2.132 2.132 0 0 0 19 65.4zm-7.594-5.442a2.57 2.57 0 0 0 2.14 2.949 2.577 2.577 0 1 0-2.14-2.949zm-6.127-7.067a3.204 3.204 0 0 0 2.858 3.53 3.208 3.208 0 0 0 3.532-2.858 3.214 3.214 0 0 0-2.861-3.532 3.208 3.208 0 0 0-3.529 2.86zm-3.797-8.16a3.537 3.537 0 0 0 3.352 3.722 3.534 3.534 0 0 0 3.73-3.351 3.547 3.547 0 0 0-3.353-3.724 3.553 3.553 0 0 0-3.729 3.353zm45.315 22.942a1.666 1.666 0 0 0-1.177 2.037 1.663 1.663 0 0 0 2.037 1.173 1.66 1.66 0 0 0 1.18-2.035 1.665 1.665 0 0 0-2.04-1.175zm-16.974 0a1.662 1.662 0 0 0-.86 3.21 1.662 1.662 0 1 0 .86-3.21zM48.838 3.151a1.662 1.662 0 0 0-1.181-2.035 1.663 1.663 0 0 0-.859 3.21 1.663 1.663 0 0 0 2.04-1.175zm-17.835-.863a1.661 1.661 0 0 0-2.04-1.172 1.659 1.659 0 0 0-1.177 2.032 1.664 1.664 0 0 0 3.217-.86z"/></svg>