<svg xmlns="http://www.w3.org/2000/svg" width="2500" height="2500" viewBox="0 0 192.756 192.756"><g fill-rule="evenodd" clip-rule="evenodd"><path fill="#fff" d="M0 0h192.756v192.756H0V0z"/><path fill="#8b274c" d="M67.229 57.677v-3.121h-3.122v3.121h3.122zM67.229 51.459v-3.121h-3.122v3.121h3.122zM58.084 60.781v-3.056H55.14v3.056h2.944z"/><path d="M17.988 114.824c-2.512-6-5.118-13.525-13.375-22.61-3.598-3.706-.984-6.07 1.175-5.415 4.02 1.303 9.117 4.941 15.676 14.066 1.814-4.534 7.852-15.685 10.25-19.252h2.135v-2.922h1.956v-2.919h2.933V71.21h3.096v-2.607h2.607v-2.119h4.888v-2.915h-2.933v-2.788h2.933v2.77h2.934v-5.866l2.883-.033v-3.096h5.703V51.46h3.259v3.096h-3.096v3.096h-5.866v6.062h2.933v-2.933h3.259v2.933h-3.259v2.847h-2.975v6.115h-2.522l.006 2.444H49.98v3.611l-2.326-.041.003 2.947h-2.891l-.006-2.933h-2.927v2.933h2.933v3.259l-2.933.021v3.402h-2.444v2.933h-2.363l.022 3.259c-4.36 6.278-8.047 13.932-10.586 20.749-1.2 3.219-7.154 2.719-8.474-.436zm23.845-43.021v2.312h2.918V71.21h-2.918v.593zm10.429-2.712v-2.607h-2.934v2.934h2.934v-.327l2.841-2.607v-2.933h-2.841v2.933h2.841l-2.841 2.607z"/><path d="M59.137 108.936c-2.479 3.059-5.434 4.484-9.39 4.484-6.542 0-11.922-4.59-11.922-11.342 0-6.595 5.011-12.557 11.869-12.557 5.17 0 10.076 2.902 10.076 8.6 0 .686-.791.475-1.319.475h-15.14l-.211 2.531c0 5.012 2.638 10.605 8.282 10.605 2.69 0 5.064-1.795 6.647-3.904l1.108 1.108zm-6.858-11.764c.844 0 2.585.264 2.585-1.057 0-3.27-1.794-5.38-5.117-5.38-3.957 0-5.54 3.008-6.172 6.437h8.704zM64.448 100.283c0-1.424.053-5.169-.317-6.382-.475-1.899-1.793-1.688-3.482-1.688v-1.055c2.479-.158 4.801-1.108 7.122-1.636.475 1.53.686 3.429.633 5.329h.105c1.372-3.218 4.009-5.329 7.649-5.329 1.636 0 3.746.792 3.746 2.744 0 1.002-.844 1.899-1.846 1.899-2.216 0-1.741-2.743-3.799-2.743-1.582 0-3.323 1.318-4.114 2.638-1.213 2.162-1.213 4.748-1.213 7.173v5.223c0 3.852-.422 5.117 4.009 5.328v1.057c-2.005-.053-4.062-.158-6.067-.213-2.058.055-4.062.16-6.119.213v-1.057c3.956-.264 3.693-1.529 3.693-5.012v-6.489zM89.659 89.521v16.934c.105 3.482-.475 5.064 3.693 5.328v1.057c-1.794-.053-3.746-.158-5.645-.213-2.057.055-4.115.16-6.172.213v-1.057c3.904-.264 3.587-1.529 3.64-5.012v-7.543c0-1.002 0-5.064-.21-5.856-.369-1.318-2.585-1.213-3.64-1.16v-1.055l8.334-1.636zm-5.698-9.389a2.837 2.837 0 0 1 2.849-2.849c1.583 0 2.796 1.267 2.796 2.849 0 1.53-1.213 2.796-2.69 2.796-1.583 0-2.955-1.161-2.955-2.796z"/><path d="M95.775 102.184h1.213c1.055 5.328 3.905 9.811 9.971 9.811 4.115 0 7.543-2.32 7.543-6.594 0-4.801-4.166-6.699-8.018-8.229-4.801-1.847-9.918-4.379-9.918-10.393 0-6.014 4.696-9.496 10.446-9.496 2.9 0 5.592 1.002 7.965 2.69l1.215-2.057h.58l.264 9.126h-1.215c-1.213-4.379-3.691-8.335-8.809-8.335-3.377 0-6.172 2.163-6.172 5.592 0 4.167 3.744 5.592 7.016 6.964 5.486 2.268 11.605 5.011 11.605 11.922 0 6.91-6.436 10.234-12.607 10.234-3.588 0-6.383-1.057-9.232-3.166l-1.266 2.217h-.58v-10.286h-.001zM128.201 89.521v16.934c.105 3.482-.475 5.064 3.693 5.328v1.057c-1.793-.053-3.746-.158-5.645-.213-2.057.055-4.115.16-6.172.213v-1.057c3.902-.264 3.586-1.529 3.639-5.012v-7.543c0-1.002 0-5.064-.211-5.856-.369-1.318-2.584-1.213-3.639-1.16v-1.055l8.335-1.636zm-5.697-9.389a2.837 2.837 0 0 1 2.85-2.849c1.582 0 2.795 1.267 2.795 2.849 0 1.53-1.213 2.796-2.689 2.796-1.585 0-2.956-1.161-2.956-2.796zM143.84 110.412c5.381.422 11.078.633 11.078 7.703 0 6.699-6.225 8.861-11.975 8.861-4.379 0-11.078-1.529-11.078-7.016 0-2.162 1.635-4.379 3.904-4.379.896 0 1.582.369 2.215.949-1.74.316-2.742 2.111-2.742 3.746 0 4.59 4.693 5.486 8.387 5.486s7.703-1.582 7.703-5.855c0-5.17-5.803-4.906-9.443-5.117-3.482-.105-8.283 0-8.283-4.748 0-2.531 2.375-4.221 4.643-4.537v-.105c-3.059-1.002-5.645-3.904-5.645-7.279 0-5.592 4.748-8.6 9.918-8.6 2.428 0 4.906.739 6.699 2.374 1.426-1.108 3.219-2.215 5.117-2.215 1.373 0 3.113.633 3.113 2.269 0 .95-.738 1.741-1.74 1.741-1.637 0-1.795-1.846-3.43-1.846-.738 0-1.582.527-2.162 1.002 1.266 1.425 1.898 3.27 1.898 5.17 0 6.225-4.695 8.018-10.129 8.283-1.582.051-5.645.051-5.645 2.215 0 1.846 2.9 1.635 4.062 1.74l3.535.158zm3.693-12.396c0-3.376-1.266-7.281-5.275-7.281-4.062 0-5.17 3.957-5.17 7.281 0 3.164 1.266 7.068 5.064 7.068 4.063 0 5.381-3.641 5.381-7.068zM182.75 106.455c0 3.482-.424 5.064 3.691 5.328v1.057c-1.898-.053-3.852-.158-5.75-.213-2.057.055-4.062.16-6.119.213v-1.057c3.957-.264 3.693-1.529 3.693-5.012v-6.752c0-3.64.158-8.81-4.854-8.81-4.115 0-6.754 3.218-6.754 7.069v8.176c0 3.482-.475 5.064 3.693 5.328v1.057c-1.898-.053-3.852-.158-5.75-.213-2.057.055-4.062.16-6.119.213v-1.057c3.955-.264 3.691-1.529 3.691-5.012v-6.488c0-1.477 0-5.169-.262-6.382-.424-1.899-1.848-1.688-3.535-1.688v-1.055c2.742-.316 4.695-1.161 7.279-1.636l.686 4.801h.105c1.846-3.271 4.695-4.801 8.441-4.801 5.012 0 7.861 2.269 7.861 7.281v9.653h.003z" fill="#8b274c"/><path d="M6.946 140.982c.79-.088 1.401-.326 1.729-1.684l1.788-7.455h-.998c-1.163 0-1.908.402-2.429 2.027h-.417l.536-2.654h8.506l-.447 2.76h-.384c-.06-1.537-.269-2.133-1.684-2.133h-.835c-.998 4.74-1.848 7.5-1.848 8.32 0 .67.596.775 1.386.805l-.089.383H6.842l.104-.369zM15.082 141.352l1.803-7.871c.134-.562.357-1.348.357-1.6 0-.34-.164-.475-.879-.475l.06-.32c.611-.059 2.399-.281 2.623-.281.075 0 .119.029.119.104s-.074.311-.149.666c-.134.592-.656 2.768-.954 4.23l.029.029c.597-.852 1.565-1.686 2.653-1.686.835 0 1.491.418 1.491 1.328 0 1.031-1.118 4.125-1.121 4.727 0 .195.119.299.253.299.238 0 .582-.389.939-.885l.298.211c-.507.764-1.267 1.715-2.295 1.715-.521 0-.894-.371-.894-.906 0-.945 1.162-4.32 1.18-4.996 0-.375-.238-.51-.61-.51-.478 0-1.953.793-2.519 3.125l-.746 3.096h-1.638zM27.556 134.719c.387 0 .61.285.61.645 0 1.361-1.891 2.242-2.889 2.572.164-.944 1.057-3.217 2.279-3.217zm.833 4.816c-.714.793-1.488 1.107-2.024 1.107-.849 0-1.266-.523-1.266-1.348 0-.238.029-.521.074-.791 1.4-.33 4.446-1.152 4.446-3.037 0-.896-.711-1.316-1.78-1.316-2.324 0-4.439 2.604-4.439 5.102 0 1.449.834 2.289 2.13 2.289 1.37 0 2.532-.84 3.199-1.631l-.34-.375zM41.862 130.971l-.537 3.039-.417.006c-.179-1.404-.775-2.418-2.321-2.418-.979 0-1.81.492-1.75 1.432 0 1.926 4.027 2.568 4.027 5.523 0 2.014-1.564 3.043-3.434 3.043-1.204 0-2.188-.566-2.605-.574-.343 0-.462.225-.566.561h-.477l.51-3.242.438.004c.046 1.344.959 2.627 2.403 2.627 1.438 0 2.091-.926 2.091-1.762 0-2.418-4.027-2.895-4.027-5.611 0-1.746 1.475-2.627 3.078-2.627 1.47 0 1.992.508 2.454.52.417 0 .521-.238.641-.52h.492v-.001zM42.583 134.521c1.252-.15 2.462-.375 2.656-.375.09 0 .179.029.179.105 0 .105-.06.256-.149.57-.104.404-1.405 4.705-1.405 5.365 0 .256.09.314.254.314.418 0 .822-.764.971-1.002l.284.164c-.254.494-.971 1.879-2.269 1.879-.581 0-.938-.342-.938-.906 0-.854 1.267-4.969 1.267-5.299 0-.389-.283-.463-.924-.479l.074-.336zm2.432-3.548c.523 0 .957.434.957.955 0 .523-.434.957-.957.957s-.957-.434-.957-.957c0-.522.434-.955.957-.955zM48.836 141.604c1.241.225 1.554.447 1.554.951 0 .816-1.179 1.293-2.417 1.293-.835 0-1.665-.416-1.665-1.174 0-.699.502-1.1 1.172-1.322l1.356.252zm3.946-7.209h-1.863c-.342-.146-.745-.248-1.31-.248-1.562 0-3.052.947-3.052 2.641 0 1.135.656 1.764 1.326 1.967-.646.383-1.355.814-1.355 1.527 0 .297.177.551.429.729-.812.207-1.716.758-1.716 1.68 0 1.188 1.286 1.729 2.718 1.729 1.91 0 3.5-.896 3.5-2.531 0-2.229-3.451-1.383-3.451-2.348 0-.225.283-.566.506-.641.12.016.209.016.328.016 1.943 0 3.136-1.096 3.136-2.707 0-.287-.045-.543-.119-.828h.79l.133-.986-3.886 4.025c-.521 0-.699-.408-.699-.877 0-1.602.61-2.902 1.458-2.902.521 0 .684.408.684.877 0 1.604-.594 2.902-1.442 2.902l3.885-4.025zM53.366 134.537c1.833-.225 2.31-.389 2.563-.389.06 0 .164.045.164.119 0 .135-.224 1.209-.283 1.521h.03c.655-.82 1.564-1.641 2.578-1.641.834 0 1.49.418 1.49 1.328 0 1.031-1.118 4.275-1.121 4.727 0 .195.119.299.253.299.238 0 .582-.389.939-.885l.298.211c-.507.764-1.267 1.715-2.295 1.715-.521 0-.894-.371-.894-.906 0-.945 1.163-4.32 1.18-4.996 0-.375-.238-.51-.611-.51-.581 0-1.893.928-2.384 3.197l-.671 3.023h-1.699l1.132-4.93c.119-.523.194-.924.194-1.133 0-.357-.238-.402-.909-.402l.046-.348zM66.441 139.641c0-1.078.667-4.922 2.403-4.922.579 0 1.053.434 1.053 1.361 0 1.078-.608 4.891-2.403 4.891-.652 0-1.053-.36-1.053-1.33zm5.096-2.649c0-2.033-1.371-2.842-2.708-2.842-2.225 0-4.027 2.424-4.027 4.576 0 2.006 1.371 2.814 2.707 2.814 2.225.001 4.028-2.423 4.028-4.548zM77.107 135.324h-1.434l-.896 4.232c-.553 2.592-1.463 4.861-3.42 4.861-.906 0-1.352-.541-1.352-1.047 0-.508.252-.865.758-.865.372 0 .639.225.639.566 0 .387-.178.387-.178.611 0 .104.074.164.268.164.538 0 .852-.463 1.24-2.295l1.299-6.229h-1.434l.179-.684h1.374c.508-1.865 1.314-3.836 3.092-3.836.889 0 1.584.377 1.584 1.119 0 .463-.267.777-.785.777-.414 0-.695-.283-.695-.613 0-.357.192-.387.192-.596 0-.135-.148-.193-.297-.193-.627 0-1.09 1.119-1.449 3.342h1.434l-.119.686zM81.877 140.982c.79-.088 1.401-.326 1.729-1.684l1.788-7.455h-.999c-1.163 0-1.908.402-2.429 2.027h-.417l.536-2.654h8.506l-.447 2.76h-.384c-.059-1.537-.268-2.133-1.684-2.133h-.835c-.999 4.74-1.848 7.5-1.848 8.32 0 .67.596.775 1.386.805l-.089.383h-4.918l.105-.369z"/><path d="M89.354 134.533c1.164-.104 2.267-.387 2.446-.387.104 0 .164.061.164.193 0 .164-.134.58-.373 1.594l.03.029c.492-.82 1.104-1.816 2.043-1.816.671 0 .955.49.955.973 0 .523-.329.971-.91.971-.597 0-.537-.537-.91-.545-1.06 0-1.671 3.053-2.342 5.807h-1.641c.552-2.711 1.387-5.779 1.387-6.049 0-.326-.134-.416-.925-.416l.076-.354zM101.947 134.338c-1.119 4.309-1.477 5.537-1.477 5.895 0 .15.105.27.238.27.283 0 .611-.418.969-.883l.27.223c-.357.492-1.164 1.701-2.25 1.701-.523 0-.865-.225-.865-.881 0-.223.029-.492.074-.701l-.029-.029c-.658.775-1.584 1.611-2.763 1.611-.79 0-1.281-.402-1.281-1.164 0-1.045 1.088-4.18 1.088-5.09 0-.357-.238-.402-.909-.402l.044-.35c1.894-.225 2.372-.391 2.731-.391.059 0 .104.045.104.121 0 .27-1.419 5.303-1.419 5.842 0 .33.194.449.523.449.912 0 2.076-1.449 2.343-2.512l.969-3.709h1.64zM103.125 139.186c.146.963.768 1.865 1.672 1.865.611 0 1.086-.256 1.086-.918 0-1.293-2.465-2.332-2.465-4.107 0-1.174.994-1.879 2.098-1.879.961 0 1.348.377 1.777.414.238 0 .268-.193.312-.414h.402l-.312 2.299-.432-.029c-.164-1.023-.639-1.775-1.564-1.775-.52 0-.857.346-.857.812 0 1.008 2.465 2.256 2.465 3.973 0 1.414-1.039 2.117-2.389 2.117-.848.045-1.396-.348-1.764-.357-.189 0-.35.045-.395.412h-.383l.338-2.408.411-.005zM109.186 134.459c1.326-.27 2.311-1.045 2.758-2.281h.477l-.492 2.16h1.535l-.135.686h-1.549c-.551 2.334-1.223 4.816-1.223 5.221 0 .18.119.314.299.314.297 0 .715-.434 1.207-1.107l.283.225c-.357.539-1.268 1.867-2.445 1.867-.715 0-1.043-.283-1.043-.895 0-.674.73-3.291 1.283-5.625h-1.059l.104-.565zM118.887 139.641c0-1.078.668-4.922 2.402-4.922.58 0 1.053.434 1.053 1.361 0 1.078-.607 4.891-2.402 4.891-.653 0-1.053-.36-1.053-1.33zm5.095-2.649c0-2.033-1.371-2.842-2.707-2.842-2.225 0-4.029 2.424-4.029 4.576 0 2.006 1.373 2.814 2.709 2.814 2.225.001 4.027-2.423 4.027-4.548zM125.275 134.537c1.832-.225 2.309-.389 2.562-.389.061 0 .164.045.164.119 0 .135-.223 1.209-.283 1.521h.029c.656-.82 1.564-1.641 2.578-1.641.836 0 1.49.418 1.49 1.328 0 1.031-1.117 4.275-1.119 4.727 0 .195.117.299.252.299.238 0 .582-.389.939-.885l.297.211c-.506.764-1.266 1.715-2.295 1.715-.52 0-.893-.371-.893-.906 0-.945 1.162-4.32 1.18-4.996 0-.375-.238-.51-.611-.51-.58 0-1.893.928-2.385 3.197l-.67 3.023h-1.699l1.133-4.93c.119-.523.193-.924.193-1.133 0-.357-.238-.402-.908-.402l.046-.348zM137.338 134.459c1.326-.27 2.309-1.045 2.756-2.281h.477l-.492 2.16h1.535l-.133.686h-1.551c-.551 2.334-1.221 4.816-1.221 5.221 0 .18.119.314.297.314.299 0 .715-.434 1.207-1.107l.283.225c-.357.539-1.266 1.867-2.443 1.867-.715 0-1.043-.283-1.043-.895 0-.674.73-3.291 1.281-5.625h-1.057l.104-.565zM141.639 141.352l1.803-7.871c.135-.562.357-1.348.357-1.6 0-.34-.164-.475-.879-.475l.059-.32c.611-.059 2.4-.281 2.623-.281.074 0 .119.029.119.104s-.074.311-.148.666c-.135.592-.656 2.768-.953 4.23l.029.029c.596-.852 1.564-1.686 2.652-1.686.834 0 1.49.418 1.49 1.328 0 1.031-1.117 4.125-1.121 4.727 0 .195.119.299.254.299.238 0 .58-.389.939-.885l.297.211c-.506.764-1.266 1.715-2.295 1.715-.521 0-.895-.371-.895-.906 0-.945 1.164-4.32 1.182-4.996 0-.375-.238-.51-.611-.51-.477 0-1.951.793-2.52 3.125l-.744 3.096h-1.638zM154.113 134.719c.387 0 .609.285.609.645 0 1.361-1.891 2.242-2.889 2.572.165-.944 1.058-3.217 2.28-3.217zm.832 4.816c-.713.793-1.488 1.107-2.023 1.107-.85 0-1.268-.523-1.268-1.348 0-.238.031-.521.076-.791 1.398-.33 4.445-1.152 4.445-3.037 0-.896-.711-1.316-1.781-1.316-2.322 0-4.438 2.604-4.438 5.102 0 1.449.834 2.289 2.131 2.289 1.369 0 2.531-.84 3.199-1.631l-.341-.375zM161.76 131.215h2.623l4.262 7.504c.566-2.449 1.297-5.463 1.297-6.148 0-.703-.387-.896-1.236-.971l.09-.385h3.338l-.119.385c-.76.09-1.043.268-1.326 1.447-.641 2.73-1.416 5.865-2.012 8.551h-.447c-1.342-2.625-3.131-5.432-4.635-8.148l-1.029 4.223c-.254 1.043-.402 1.818-.402 2.416-.045.672.686.836 1.326.881l-.09.383h-3.428l.09-.383c1.043-.15 1.193-.447 1.596-2.312.371-1.746 1.311-5.236 1.311-5.938 0-.836-.58-1.074-1.297-1.119l.088-.386zM176.049 134.719c.389 0 .611.285.611.645 0 1.361-1.893 2.242-2.891 2.572.167-.944 1.059-3.217 2.28-3.217zm.834 4.816c-.715.793-1.488 1.107-2.025 1.107-.848 0-1.266-.523-1.266-1.348 0-.238.029-.521.074-.791 1.4-.33 4.445-1.152 4.445-3.037 0-.896-.711-1.316-1.779-1.316-2.322 0-4.439 2.604-4.439 5.102 0 1.449.836 2.289 2.131 2.289 1.371 0 2.533-.84 3.199-1.631l-.34-.375zM179.139 134.459c1.326-.27 2.311-1.045 2.758-2.281h.477l-.492 2.16h1.535l-.135.686h-1.549c-.551 2.334-1.223 4.816-1.223 5.221 0 .18.119.314.299.314.297 0 .715-.434 1.207-1.107l.283.225c-.357.539-1.268 1.867-2.443 1.867-.717 0-1.043-.283-1.043-.895 0-.674.729-3.291 1.279-5.625h-1.057l.104-.565zM185.486 128.768c-.023-.533-.469-.703-.859-.703-.295 0-.791.082-.791.607 0 .295.207.391.41.439l.99.227c.447.105.783.375.783.924 0 .818-.758 1.043-1.35 1.043-.641 0-.891-.191-1.045-.33-.293-.264-.352-.555-.352-.877h.439c0 .627.51.811.951.811.338 0 .904-.088.904-.584 0-.361-.168-.477-.738-.611l-.709-.164c-.227-.053-.738-.211-.738-.814 0-.539.352-1.066 1.191-1.066 1.211 0 1.332.721 1.35 1.1h-.436v-.002zM189.469 131.215v-2.041c0-.102.01-.539.01-.863h-.01l-.977 2.904h-.463l-.977-2.898h-.012c0 .318.012.756.012.857v2.041h-.452v-3.457h.67l.99 2.924h.01l.986-2.924h.666v3.457h-.453zM183.588 85.932c0-1.625 1.223-2.865 2.789-2.865 1.547 0 2.775 1.24 2.775 2.865 0 1.651-1.229 2.869-2.775 2.869-1.566 0-2.789-1.218-2.789-2.869zm2.789 3.436c1.865 0 3.465-1.448 3.465-3.436 0-1.967-1.6-3.432-3.465-3.432-1.883 0-3.479 1.465-3.479 3.432 0 1.987 1.596 3.436 3.479 3.436zm-.725-3.166h.688l1.039 1.717h.672l-1.123-1.745c.578-.072 1.023-.378 1.023-1.087 0-.781-.463-1.123-1.395-1.123h-1.502v3.954h.598v-3.449h.814c.414 0 .857.091.857.583 0 .61-.451.646-.957.646h-.715v.504h.001z"/></g></svg>