<svg xmlns="http://www.w3.org/2000/svg" xmlns:xlink="http://www.w3.org/1999/xlink" viewBox="0 0 93.64 32.5"><defs><style>.cls-1{fill:url(#linear-gradient)}.cls-2{fill:#1761a9}.cls-3{fill:url(#radial-gradient)}.cls-4{fill:url(#radial-gradient-2)}.cls-5{fill:url(#radial-gradient-3)}.cls-6{fill:url(#radial-gradient-4)}.cls-7{fill:url(#radial-gradient-5)}.cls-8{fill:url(#radial-gradient-6)}.cls-9{fill:url(#linear-gradient-2)}.cls-10{fill:url(#radial-gradient-7)}.cls-11{fill:url(#linear-gradient-3)}.cls-12{fill:#fff}.cls-13{fill:#666364}</style><linearGradient id="linear-gradient" x1="205.84" x2="206.35" y1="476.7" y2="476.7" gradientTransform="matrix(-45.35, 45.35, 45.35, 45.35, -12255.88, -30951.74)" gradientUnits="userSpaceOnUse"><stop offset="0" stop-color="#fff"/><stop offset="1" stop-color="#868484"/></linearGradient><radialGradient id="radial-gradient" cx="189.96" cy="466.4" r=".51" gradientTransform="matrix(26.06, 0, 0, -26.06, -4911.15, 12189.46)" gradientUnits="userSpaceOnUse"><stop offset="0" stop-color="#1761a8"/><stop offset="1" stop-color="#14477b"/></radialGradient><radialGradient id="radial-gradient-2" cx="189.61" cy="467.18" r="0" xlink:href="#radial-gradient"/><radialGradient id="radial-gradient-3" cx="189.61" cy="466.64" r=".32" xlink:href="#radial-gradient"/><radialGradient id="radial-gradient-4" cx="189.61" cy="467.18" r="0" xlink:href="#radial-gradient"/><radialGradient id="radial-gradient-5" cx="189.61" cy="466.5" r=".4" xlink:href="#radial-gradient"/><radialGradient id="radial-gradient-6" cx="189.96" cy="466.4" r=".51" xlink:href="#radial-gradient"/><linearGradient id="linear-gradient-2" x1="205.85" x2="206.33" y1="476.7" y2="476.7" gradientTransform="matrix(-45.35, 45.35, 45.35, 45.35, -12255.88, -30951.74)" gradientUnits="userSpaceOnUse"><stop offset="0" stop-color="#f4f4f4"/><stop offset="1" stop-color="#82807f"/></linearGradient><radialGradient id="radial-gradient-7" cx="189.96" cy="466.4" r=".51" gradientTransform="matrix(26.06, 0, 0, -26.06, -4911.15, 12189.46)" gradientUnits="userSpaceOnUse"><stop offset="0" stop-color="#165da1"/><stop offset="1" stop-color="#164375"/></radialGradient><linearGradient id="linear-gradient-3" x1="205.84" x2="206.35" y1="476.7" y2="476.7" gradientTransform="matrix(-45.35, 45.35, 45.35, 45.35, -12255.88, -30951.74)" gradientUnits="userSpaceOnUse"><stop offset="0" stop-color="#ebebeb"/><stop offset="1" stop-color="#7e7b7c"/></linearGradient></defs><title>verisign</title><g id="Layer_2" data-name="Layer 2"><g id="Layer_1-2" data-name="Layer 1"><g><g id="layer1"><g id="g456"><g id="g458"><g id="g464"><g id="g466"><path id="path474" d="M0,15.63A16.21,16.21,0,0,1,5.4,4.15h0A16.18,16.18,0,0,0,1.25,15h0A16.25,16.25,0,0,0,17.5,31.25h0A16.19,16.19,0,0,0,28.35,27.1h0a16.2,16.2,0,0,1-11.66,5.4h0A16.25,16.25,0,0,0,32.5,16.25h0A16.25,16.25,0,0,0,16.25,0h0A16.25,16.25,0,0,0,0,15.63m3,.62A13.2,13.2,0,0,1,16.12,3h.13a13.2,13.2,0,0,1,13.2,13.2h0v0h0a13.2,13.2,0,0,1-13.2,12.93h0A13.2,13.2,0,0,1,3,16.25m-3-.61H0m0,.05s0,0,0-.05H0s0,0,0,.05m0,0H0m0,0H0m0,0H0m0,0v0H0v0m0,0H0m0,0H0m0,0H0m0,0H0m0,0s0,0,0,0H0s0,0,0,0m0,0H0m0,0H0m0,0H0m0,0s0,0,0,0H0s0,0,0,0m0,0H0m0,0H0m0,0H0m0,0s0,0,0,0H0s0,0,0,0m0,0H0m0,.06H0m0,0v0H0v0m0,0H0m0,0H0m0,0H0m0,0v0H0v0m0,0v0H0v0m0,0H0m0,0H0m0,0v0H0v0m0,0v0H0v0m0,0H0m0,0H0m0,0H0m0,0H0m0,0H0M16.68,32.49h0m-.11,0h0m0,0h0Zm-.1,0h0m0,0h0m-.05,0h0m0,0h0m0,0h0Zm0,0h0m0,0h0Zm0,0h0m0,0h0Zm0,0h0Z" class="cls-1"/></g></g></g></g><g id="g476"><g id="g478"><g id="g484"><path id="path486" d="M29.45,16.25A13.2,13.2,0,1,1,16.25,3a13.2,13.2,0,0,1,13.2,13.2" class="cls-2"/></g></g></g><g id="g488"><g id="g490"><g id="g496"><g id="g498"><path id="path506" d="M16,3h0m0,0h0M16,3h0m0,0h0m-.08,0h0m0,0h0m0,0h0m0,0h0m0,0h0m-.08,0h0m-.59,0,.59,0h0l-.59,0m0,0h0m-.16,0,.16,0h0l-.16,0m0,0h0m-.33,0,.33,0h0l-.33,0m0,0h0m-.07,0h0m0,0h0m0,0h0m-.07,0h0m0,0h0m-.06,0h0m0,0h0m-.06,0h0m0,0h0m-.06,0h0m0,0h0m0,0h0m0,0h0m0,0h0m0,0h0m-.06,0h0m0,0h0m-.07,0h0m0,0h0M3,16.25a13.2,13.2,0,0,0,13.2,13.2h0a13.21,13.21,0,0,0,12.25-8.28h0a13.23,13.23,0,0,1-3.44,4.91h0a13.15,13.15,0,0,0,3.37-8.81h0a13.2,13.2,0,0,0-13.2-13.2h0A13.15,13.15,0,0,0,6.42,7.44h0a13.18,13.18,0,0,1,7.49-4.18h0A13.21,13.21,0,0,0,3,16.25m26.4.44c0-.06,0-.11,0-.17h0c0,.05,0,.11,0,.17m-.73,3.91a13.14,13.14,0,0,0,.73-3.91h0a13.14,13.14,0,0,1-.73,3.91m0,0h0m0,0h0m0,0h0m0,.07,0-.07h0l0,.07m0-.07h0m0,.08h0m0,.07,0-.07h0l0,.07m0,0h0m0,.06,0-.06h0l0,.06m0,0v0h0v0m0,0,0,0h0l0,0m0,0v0h0v0m0,0,0,0h0l0,0m0,.05,0-.05h0l0,.05m0,0h0m0,0h0m0,0,0,0h0l0,0m0,0v0h0v0m0,0v0h0v0m0,0,0,0h0l0,0m0,0h0" class="cls-3"/></g></g></g></g><g id="g508"><g id="g510"><g id="g516"><g id="g518"><path id="path526" d="M29.45,16.52h0" class="cls-4"/></g></g></g></g><g id="g556"><g id="g558"><g id="g564"><g id="g566"><path id="path574" d="M29.45,16.5h0" class="cls-5"/></g></g></g></g><g id="g632"><g id="g634"><g id="g640"><g id="g642"><path id="path650" d="M29.45,16.47h0" class="cls-6"/></g></g></g></g><g id="g708"><g id="g710"><g id="g716"><g id="g718"><path id="path726" d="M29.45,16.43v0h0v0" class="cls-7"/></g></g></g></g><g id="g1064"><g id="g1066"><g id="g1072"><g id="g1074"><path id="path1082" d="M29.45,16.25A13.2,13.2,0,0,0,16.25,3h0a13.2,13.2,0,0,1,13.2,13.2M16.24,3h0Zm0,0h0Zm0,0h0m0,0h0m0,0h0m0,0h0m0,0h0m0,0h0m0,0h0m0,0h0m0,0h0m0,0h0" class="cls-8"/></g></g></g></g><g id="g1084"><g id="g1086"><g id="g1092"><g id="g1094"><path id="path1102" d="M16.12,3ZM29.45,16.26h0Zm0,0h0m0,0h0Zm0,0h0Zm0,0h0Zm0,0h0Zm0,0h0Zm0,0h0Zm0,0h0m0,0h0Zm0,0h0Zm0,0h0Zm0,0h0Zm0,0h0Zm0,0h0Zm0,0h0Zm0,0h0Zm0,0h0Zm0,0h0m0,0h0Z" class="cls-9"/></g></g></g></g><g id="g1384"><g id="g1386"><g id="g1392"><g id="g1394"><path id="path1402" d="M16.24,3h-.11a13.17,13.17,0,0,0-9.7,4.39h0a13.15,13.15,0,0,1,8.81-3.37h0a13.2,13.2,0,0,1,13.2,13.2h0a13.15,13.15,0,0,1-3.37,8.81h0a13.16,13.16,0,0,0,4.39-9.55h0v0h0A13.2,13.2,0,0,0,16.25,3h0Z" class="cls-10"/></g></g></g></g><g id="g1428"><g id="g1430"><g id="g1436"><g id="g1438"><path id="path1446" d="M0,16.08H0v.1A16.25,16.25,0,0,0,16.25,32.5h.16a16.2,16.2,0,0,0,11.94-5.4h0A16.19,16.19,0,0,1,17.5,31.25h0A16.25,16.25,0,0,1,1.25,15h0A16.18,16.18,0,0,1,5.4,4.15h0A16.21,16.21,0,0,0,0,16.08" class="cls-11"/></g></g></g></g><g id="g1450"><g id="g1456"><path id="path1458" d="M22.47,15.58H16.41l2.93-5.08h6.07Z" class="cls-12"/></g><g id="g1460"><path id="path1462" d="M13.35,10.5h-6l8.92,15.45,3-5.22Z" class="cls-12"/></g></g></g><g><g id="g1464"><path id="path1466" d="M41.84,12.17H44l-2.87,8.26H39.07l-2.83-8.26h2.2L40.14,18Z" class="cls-13"/></g><g id="g1468"><path id="path1470" d="M44.73,12.17h6.11v1.6h-4v1.5h3.78v1.57H46.79v2H51.2v1.63H44.73Z" class="cls-13"/></g><g id="g1472"><path id="path1474" d="M54.72,13.71v2.24h1.71a1.1,1.1,0,0,0,1.24-1.14c0-1.05-.76-1.09-1.19-1.1Zm-2.07-1.54h3.72a3.48,3.48,0,0,1,2.7.84,2.79,2.79,0,0,1,.66,1.84A2.22,2.22,0,0,1,58,17.13l1.91,3.3H57.66L56,17.48h-1.3v2.95H52.65Z" class="cls-13"/></g><path id="path1476" d="M63.36,20.43H61.3V12.17h2.06Z" class="cls-13"/><g id="g1478"><path id="path1480" d="M66.23,17.95a2.61,2.61,0,0,0,.8.64,3.42,3.42,0,0,0,1.59.4c.82,0,1.52-.39,1.52-1s-.83-.76-1.44-.84-.91-.12-1.36-.21-2.22-.47-2.22-2.25C65.12,12.6,67,12,68.44,12a5,5,0,0,1,3.65,1.57l-1.52,1.09a3.7,3.7,0,0,0-.82-.67,3,3,0,0,0-1.35-.36c-.82,0-1.23.47-1.23.86,0,.63.7.73,1.05.77a15.94,15.94,0,0,1,2.53.49,2,2,0,0,1,1.43,2,2.74,2.74,0,0,1-.66,1.75,4,4,0,0,1-3.1,1.11,4.4,4.4,0,0,1-3.77-1.67Z" class="cls-13"/></g><path id="path1482" d="M75.82,20.43H73.76V12.17h2.06Z" class="cls-13"/><g id="g1484"><path id="path1486" d="M83.39,19.65a3.29,3.29,0,0,1-2.43,1c-2.3,0-3.72-1.87-3.72-4.3,0-2.66,1.72-4.42,4.07-4.42a4.39,4.39,0,0,1,3.64,1.91l-1.57.95a2.15,2.15,0,0,0-1.92-1.17c-1.57,0-2.16,1.3-2.16,2.68A3.08,3.08,0,0,0,80,18.36a2.2,2.2,0,0,0,2.64.28,1.49,1.49,0,0,0,.67-1.23H81.41V15.84H85v4.59H83.39Z" class="cls-13"/></g><g id="g1488"><path id="path1490" d="M86.7,12.17h2l1.79,3c.65,1.16.85,1.53,1.24,2.26l-.09-5.3h2v8.26h-2l-1.54-2.61a29.1,29.1,0,0,1-1.45-2.59l.06,5.19h-2Z" class="cls-13"/></g></g></g></g></g></svg>