<?xml version="1.0" encoding="UTF-8"?>
<svg xmlns="http://www.w3.org/2000/svg" xmlns:xlink="http://www.w3.org/1999/xlink" width="150pt" height="150pt" viewBox="0 0 100 100" version="1.1">
<g id="surface1">
<path style=" stroke:none;fill-rule:evenodd;fill:rgb(88.627451%,26.27451%,16.078431%);fill-opacity:1;" d="M 50 96.058594 L 68.414062 39.375 L 31.585938 39.375 Z M 50 96.058594 "/>
<path style=" stroke:none;fill-rule:evenodd;fill:rgb(98.823529%,42.745098%,14.901961%);fill-opacity:1;" d="M 50 96.058594 L 31.585938 39.375 L 5.78125 39.375 Z M 50 96.058594 "/>
<path style=" stroke:none;fill-rule:evenodd;fill:rgb(98.823529%,63.921569%,14.901961%);fill-opacity:1;" d="M 5.78125 39.375 L 0.1875 56.609375 C -0.324219 58.179688 0.234375 59.902344 1.570312 60.871094 L 50 96.058594 Z M 5.78125 39.375 "/>
<path style=" stroke:none;fill-rule:evenodd;fill:rgb(88.627451%,26.27451%,16.078431%);fill-opacity:1;" d="M 5.78125 39.375 L 31.585938 39.375 L 20.496094 5.257812 C 19.925781 3.503906 17.441406 3.503906 16.871094 5.257812 Z M 5.78125 39.375 "/>
<path style=" stroke:none;fill-rule:evenodd;fill:rgb(98.823529%,42.745098%,14.901961%);fill-opacity:1;" d="M 50 96.058594 L 68.414062 39.375 L 94.21875 39.375 Z M 50 96.058594 "/>
<path style=" stroke:none;fill-rule:evenodd;fill:rgb(98.823529%,63.921569%,14.901961%);fill-opacity:1;" d="M 94.21875 39.375 L 99.8125 56.59375 C 100.324219 58.164062 99.765625 59.886719 98.429688 60.855469 L 50 96.058594 Z M 94.21875 39.375 "/>
<path style=" stroke:none;fill-rule:evenodd;fill:rgb(88.627451%,26.27451%,16.078431%);fill-opacity:1;" d="M 94.21875 39.375 L 68.414062 39.375 L 79.503906 5.242188 C 80.074219 3.488281 82.558594 3.488281 83.128906 5.242188 Z M 94.21875 39.375 "/>
</g>
</svg>
