<svg height="471" viewBox=".133 .132 43.179 7.917" width="2500" xmlns="http://www.w3.org/2000/svg"><path d="m11.777 2.4c.113 0 .215.093.215.216v4.096c0 .113-.102.204-.215.204h-.556c-.108 0-.21-.084-.21-.197v-.377c-.28.416-.761.701-1.467.701-1.182 0-1.91-.783-1.91-1.94v-2.494c0-.116.108-.208.222-.208h.556c.113 0 .205.092.205.208v2.331c0 .755.398 1.25 1.18 1.25.762 0 1.214-.515 1.214-1.239v-2.341c0-.116.102-.208.21-.208zm-8.204-2.267c-1.903-.001-3.44 1.474-3.44 3.453 0 1.976 1.536 3.457 3.44 3.457.324 0 .642-.045.939-.127l.372.96c.037.11.113.173.253.173h.593c.14 0 .25-.095.179-.275l-.48-1.26c.954-.6 1.585-1.658 1.585-2.928 0-1.98-1.536-3.454-3.44-3.454m1.499 5.455-.437-1.127c-.037-.095-.113-.177-.28-.177h-.566c-.141 0-.254.093-.19.269l.571 1.481a2.34 2.34 0 0 1 -.598.075c-1.397 0-2.384-1.09-2.384-2.523 0-1.428.987-2.522 2.384-2.522 1.398 0 2.384 1.094 2.384 2.522 0 .833-.335 1.549-.884 2m38.19 1.104c.049.113-.01.226-.152.226h-.618c-.111 0-.21-.052-.25-.165l-1.146-3.09-1.171 3.09c-.05.12-.131.165-.244.165h-.554c-.113 0-.201-.045-.25-.165l-1.175-3.109-1.16 3.109a.25.25 0 0 1 -.247.165h-.583a.248.248 0 0 1 -.246-.165l-1.151-3.109-1.185 3.109c-.05.12-.138.165-.251.165h-.553c-.113 0-.2-.045-.244-.165l-1.16-3.109-1.157 3.109c-.039.113-.138.165-.251.165h-.604c-.14 0-.193-.113-.151-.226l1.578-4.113c.045-.12.133-.176.246-.176h.68c.114 0 .195.056.24.176l1.111 3.005 1.124-3.005c.048-.12.136-.176.249-.176h.667c.113 0 .201.056.244.176l1.115 3.005 1.11-3.005c.05-.12.131-.176.244-.176h.674c.109 0 .194.056.243.176l1.132 3.005 1.101-3.005c.05-.12.134-.176.247-.176h.68c.114 0 .195.056.245.176l1.574 4.113m-26.092-4.289h-.561c-.11 0-.22.093-.22.216v.377c-.278-.426-.829-.722-1.474-.722-1.223 0-2.282.97-2.282 2.381 0 1.432 1.059 2.391 2.271 2.391.656 0 1.196-.303 1.486-.73v.4c0 .112.109.203.219.203h.56a.203.203 0 0 0 .205-.204v-4.096c0-.123-.091-.215-.204-.215m-2.153 3.735c-.811 0-1.386-.656-1.386-1.474 0-.828.575-1.47 1.386-1.47.8 0 1.387.642 1.387 1.47 0 .818-.586 1.474-1.387 1.474m8.785.142c.123.152.02.265-.042.31-.39.293-.9.455-1.457.455-1.402 0-2.336-1.03-2.336-2.381 0-1.357.934-2.391 2.336-2.391.557 0 1.068.154 1.457.448.063.045.154.147.042.31l-.264.366c-.104.145-.226.11-.33.04a1.651 1.651 0 0 0 -.873-.272c-.826 0-1.37.66-1.37 1.499 0 .832.544 1.485 1.37 1.485.334 0 .609-.133.857-.275.102-.053.217-.102.33.05zm2.621-4a2.354 2.354 0 0 0 -2.374 2.384 2.35 2.35 0 0 0 2.374 2.381 2.35 2.35 0 0 0 2.377-2.381 2.355 2.355 0 0 0 -2.377-2.384m0 3.849c-.809 0-1.386-.647-1.386-1.465 0-.828.577-1.47 1.386-1.47.815 0 1.387.642 1.387 1.47 0 .818-.572 1.465-1.387 1.465m-7.305-5.87a.21.21 0 0 1 .208.214v6.23a.21.21 0 0 1 -.208.215h-.558a.223.223 0 0 1 -.215-.215v-6.23c0-.113.102-.215.215-.215z" fill="#3051dc" fill-rule="evenodd"/></svg>