<svg height="2500" width="2500" xmlns="http://www.w3.org/2000/svg" viewBox="0.1 0.1 99.80000000000001 99.8"><g fill="#0096d6"><path d="M99.9 50C99.9 22.44 77.56.1 50 .1c-.751 0-1.5.019-2.243.053L37.55 28.207h8.89c5.289 0 8.139 4.072 6.329 9.045l-12.59 34.6-10.572-.002 13.51-37.085H35.17L21.659 71.85H11.082l15.886-43.643h.002l9.556-26.264C15.514 7.82.1 27.11.1 50c0 23.57 16.344 43.321 38.315 48.545l9.26-25.448h.008l16.336-44.89h19.47c5.295 0 8.143 4.072 6.333 9.045L78.76 67.642c-.842 2.315-3.546 4.208-6.01 4.208H58.716L48.518 99.877c.491.014.987.023 1.482.023 27.56 0 49.9-22.342 49.9-49.9"/><path d="M80.194 34.738h-7.945l-11.127 30.53h7.945z"/></g></svg>