<svg xmlns="http://www.w3.org/2000/svg" id="h" viewBox="0 0 720 120"><defs><style>.cls-1,.cls-2,.cls-4{fill:#fff}.cls-1{fill-rule:evenodd}.cls-2{font-size:21px;font-family:Devinyl-Regular,Devinyl;letter-spacing:.05em}.cls-3{letter-spacing:.02em}</style></defs><title>lhd</title><g id="Layer_3" data-name="Layer 3"><path d="M406.63,92.73a4.25,4.25,0,0,0-.82-1.2,3.92,3.92,0,0,0-1.21-.82,4,4,0,0,0-1.48-.33H383.39a.64.64,0,0,0-.48.17.62.62,0,0,0-.16.48v22.19a.54.54,0,0,0,.62.62h4.51a.54.54,0,0,0,.62-.62V95.94h3.67v17.28a.61.61,0,0,0,.62.62h4.13a.54.54,0,0,0,.42-.18.67.67,0,0,0,.17-.44V95.94h3.66v17.28a.66.66,0,0,0,.16.44.55.55,0,0,0,.43.18h4.55a.61.61,0,0,0,.62-.62v-19A3.69,3.69,0,0,0,406.63,92.73Z" class="cls-1"/><path d="M427.2,108.33a.56.56,0,0,0-.44-.18v0h-9.48a.64.64,0,0,1-.47-.16.54.54,0,0,1-.2-.44V91.05a.58.58,0,0,0-.66-.65h-4.77a.58.58,0,0,0-.66.65v22.17a.58.58,0,0,0,.66.64h15.58a.59.59,0,0,0,.44-.18.67.67,0,0,0,.18-.46v-4.43A.63.63,0,0,0,427.2,108.33Z" class="cls-1"/><path d="M451.16,90.58a.63.63,0,0,0-.46-.18h-4.85a.63.63,0,0,0-.46.18.64.64,0,0,0-.2.47v7.52a.62.62,0,0,1-.64.64h-6.8a.56.56,0,0,1-.64-.51V91.05a.58.58,0,0,0-.67-.65h-4.83a.58.58,0,0,0-.66.65v22.23a.58.58,0,0,0,.66.64h4.83c.45,0,.67-.22.67-.64v-7.9a.67.67,0,0,1,.18-.3.71.71,0,0,1,.46-.16h6.8a.59.59,0,0,1,.64.6v7.76a.65.65,0,0,0,.2.46.63.63,0,0,0,.46.18h4.85a.63.63,0,0,0,.46-.18.61.61,0,0,0,.2-.46V91.05A.69.69,0,0,0,451.16,90.58Z" class="cls-1"/><text class="cls-2" transform="translate(268.64 108.37)">Hosted <tspan x="79.26" y="0" class="cls-3">b</tspan><tspan x="90.96" y="0">y</tspan></text><path d="M98.57,6.08a9.32,9.32,0,0,1,3.81.79A10,10,0,0,1,105.49,9a10.13,10.13,0,0,1,2.09,3.1,9.33,9.33,0,0,1,.8,3.81V54.94a9.38,9.38,0,0,1-.8,3.82,10.7,10.7,0,0,1-2.09,3.14,9.38,9.38,0,0,1-3.11,2.1,9.81,9.81,0,0,1-3.81.75H68.9a9.8,9.8,0,0,1-7-2.85,9.87,9.87,0,0,1-2.85-7V15.88a9.64,9.64,0,0,1,.76-3.81A9.17,9.17,0,0,1,61.94,9a10.59,10.59,0,0,1,3.15-2.1,9.32,9.32,0,0,1,3.81-.79Zm-5,14.24H73.84V50.5h19.7Z" class="cls-4"/><path d="M134.41,20.74a1.41,1.41,0,0,0-.47,1.09V49a1.4,1.4,0,0,0,.47,1.09,1.6,1.6,0,0,0,1.13.42h26.9a1.59,1.59,0,0,1,1.6,1.59V63.16a1.53,1.53,0,0,1-.47,1.13,1.51,1.51,0,0,1-1.13.46H129a9.76,9.76,0,0,1-7-2.85,9.87,9.87,0,0,1-2.85-7V15.88a9.64,9.64,0,0,1,.76-3.81A9.17,9.17,0,0,1,122,9a10.54,10.54,0,0,1,3.14-2.1A9.4,9.4,0,0,1,129,6.08h33.44A1.59,1.59,0,0,1,164,7.67V18.73a1.59,1.59,0,0,1-1.6,1.59h-26.9A1.64,1.64,0,0,0,134.41,20.74Z" class="cls-4"/><path d="M214.66,6.08a9.4,9.4,0,0,1,3.82.79,9.85,9.85,0,0,1,5.19,5.2,9.33,9.33,0,0,1,.8,3.81V63.16a1.52,1.52,0,0,1-.46,1.13,1.54,1.54,0,0,1-1.13.46H211.23a1.55,1.55,0,0,1-1.14-.46,1.56,1.56,0,0,1-.46-1.13v-15a1.67,1.67,0,0,0-.41-1.13,1.46,1.46,0,0,0-1.09-.46h-16.6a1.57,1.57,0,0,0-1.59,1.59v15a1.41,1.41,0,0,1-1.6,1.59H176.78a1.41,1.41,0,0,1-1.6-1.59V15.88a9.64,9.64,0,0,1,.76-3.81A9.17,9.17,0,0,1,178,9a10.59,10.59,0,0,1,3.15-2.1A9.32,9.32,0,0,1,185,6.08Zm-5,27.91V19.24H189.94V34Z" class="cls-4"/><path d="M582.39,6.08a9.4,9.4,0,0,1,3.82.79,9.85,9.85,0,0,1,5.19,5.2,9.33,9.33,0,0,1,.8,3.81V54.94a9.38,9.38,0,0,1-.8,3.82,10.7,10.7,0,0,1-2.09,3.14,9.44,9.44,0,0,1-3.1,2.1,9.89,9.89,0,0,1-3.82.75H544.51a1.41,1.41,0,0,1-1.6-1.59V7.67a1.41,1.41,0,0,1,1.6-1.59ZM557.67,50.5h19.69V20.32H557.67Z" class="cls-4"/><path d="M642.66,6.08a9.32,9.32,0,0,1,3.81.79,9.91,9.91,0,0,1,5.2,5.2,9.33,9.33,0,0,1,.8,3.81V63.16a1.56,1.56,0,0,1-.46,1.13,1.55,1.55,0,0,1-1.14.46H639.22a1.57,1.57,0,0,1-1.59-1.59v-15a1.63,1.63,0,0,0-.42-1.13,1.43,1.43,0,0,0-1.09-.46h-16.6a1.57,1.57,0,0,0-1.59,1.59v15a1.41,1.41,0,0,1-1.59,1.59H604.77a1.41,1.41,0,0,1-1.59-1.59V15.88a9.81,9.81,0,0,1,.75-3.81A9.34,9.34,0,0,1,606,9a10.54,10.54,0,0,1,3.14-2.1A9.37,9.37,0,0,1,613,6.08Zm-5,27.91V19.24h-19.7V34Z" class="cls-4"/><path d="M708.16,6.54a1.52,1.52,0,0,1,.47,1.13V37.59a9.41,9.41,0,0,1-.8,3.82,9.85,9.85,0,0,1-5.2,5.19,9.33,9.33,0,0,1-3.81.8h-6.37V63.16a1.56,1.56,0,0,1-.46,1.13,1.54,1.54,0,0,1-1.13.46H679.2a1.37,1.37,0,0,1-1.08-.46,1.61,1.61,0,0,1-.42-1.13V47.4h-6.37a9.34,9.34,0,0,1-3.82-.8,10.7,10.7,0,0,1-3.14-2.09,9.29,9.29,0,0,1-2.1-3.1,9.89,9.89,0,0,1-.75-3.82V7.67a1.41,1.41,0,0,1,1.59-1.59h11.07a1.57,1.57,0,0,1,1.59,1.59v25a1.63,1.63,0,0,0,.42,1.13,1.39,1.39,0,0,0,1.09.46h15.5a1.41,1.41,0,0,0,1.6-1.59v-25A1.41,1.41,0,0,1,696,6.08H707A1.51,1.51,0,0,1,708.16,6.54Z" class="cls-4"/><path d="M52.71,50.49A1.41,1.41,0,0,1,53.8,51a1.6,1.6,0,0,1,.42,1.13V63.14a1.61,1.61,0,0,1-.42,1.13,1.41,1.41,0,0,1-1.09.46H13a1.41,1.41,0,0,1-1.6-1.59V7.67A1.41,1.41,0,0,1,13,6.08H24.53a1.41,1.41,0,0,1,1.59,1.59V49a1.39,1.39,0,0,0,.46,1.09,1.61,1.61,0,0,0,1.13.42Z" class="cls-4"/><path d="M277,50.49A1.39,1.39,0,0,1,278,51a1.6,1.6,0,0,1,.42,1.13V63.14a1.61,1.61,0,0,1-.42,1.13,1.39,1.39,0,0,1-1.09.46H237.21a1.41,1.41,0,0,1-1.59-1.59V7.67a1.41,1.41,0,0,1,1.59-1.59h11.56a1.41,1.41,0,0,1,1.59,1.59V49a1.43,1.43,0,0,0,.46,1.09,1.64,1.64,0,0,0,1.14.42Z" class="cls-4"/><path d="M360,28.59l-7.75,20.67H360V63.11a1.52,1.52,0,0,1-.48,1.13,1.62,1.62,0,0,1-1.18.46H346.24a1.64,1.64,0,0,1-1.18-.46,1.52,1.52,0,0,1-.48-1.13V43.76a1.45,1.45,0,0,0-.43-1.09,1.57,1.57,0,0,0-1.14-.42H325.73a1.72,1.72,0,0,0-1.18.42,1.39,1.39,0,0,0-.48,1.09V63.11c0,1.06-.55,1.59-1.66,1.59h-12c-1.11,0-1.66-.53-1.66-1.59V7.67c0-1.06.55-1.59,1.66-1.59h12c1.11,0,1.66.53,1.66,1.59V26.43c0,1.06.55,1.59,1.66,1.59H343a1.52,1.52,0,0,0,1.14-.46,1.6,1.6,0,0,0,.43-1.13V7.67a1.49,1.49,0,0,1,.48-1.13,1.64,1.64,0,0,1,1.18-.46h12.13a1.62,1.62,0,0,1,1.18.46A1.49,1.49,0,0,1,360,7.67Z" class="cls-1"/><path d="M408.84,43.91l10.83-14.62H408.84V15.87a9.49,9.49,0,0,1,.79-3.81,9.27,9.27,0,0,1,2.2-3.1,11.2,11.2,0,0,1,3.29-2.09,10.18,10.18,0,0,1,4-.79h29a1.62,1.62,0,0,1,1.18.46,1.5,1.5,0,0,1,.49,1.13v11a1.51,1.51,0,0,1-.49,1.13,1.62,1.62,0,0,1-1.18.46H426a1.75,1.75,0,0,0-1.19.42,1.38,1.38,0,0,0-.48,1.09V49a1.38,1.38,0,0,0,.48,1.09,1.75,1.75,0,0,0,1.19.42h22.18a1.66,1.66,0,0,1,1.18.46,1.53,1.53,0,0,1,.49,1.13V63.11a1.53,1.53,0,0,1-.49,1.13,1.62,1.62,0,0,1-1.18.46h-29a10.72,10.72,0,0,1-4-.75,10.12,10.12,0,0,1-3.29-2.1,9.64,9.64,0,0,1-2.2-3.14,9.49,9.49,0,0,1-.79-3.81Z" class="cls-1"/><path d="M493.17,30.78a.45.45,0,0,0-.09.59l19.38,32a.84.84,0,0,1,.08,1,1.08,1.08,0,0,1-.95.38H497.16a2.91,2.91,0,0,1-1.39-.38,2.62,2.62,0,0,1-1-1L482.56,40.5c-.17-.28-.31-.31-.43-.09q-5,7.14-5.3,7.62a5.12,5.12,0,0,0-.73,1.22,4,4,0,0,0-.31,1.46v12.4q0,1.59-1.65,1.59h-12q-1.65,0-1.65-1.59V7.67q0-1.59,1.65-1.59h12q1.65,0,1.65,1.59V31.6L493.42,7.25a3.18,3.18,0,0,1,1.21-.84,3.83,3.83,0,0,1,1.48-.33h14.43c.46,0,.74.11.82.33s0,.5-.3.84Z" class="cls-1"/><polygon id="Rectangle" points="374.82 6.2 406.09 6.2 393.56 33.16 402.34 33.16 410.99 33.16 374.82 81.98 376.26 45.65 360.03 45.65 374.82 6.2" class="cls-1"/></g></svg>