<?xml version="1.0" encoding="UTF-8" standalone="no"?>
<!DOCTYPE svg PUBLIC "-//W3C//DTD SVG 1.1//EN" "http://www.w3.org/Graphics/SVG/1.1/DTD/svg11.dtd">
<svg xmlns="http://www.w3.org/2000/svg" xmlns:xlink="http://www.w3.org/1999/xlink" version="1.1" width="750pt" height="750pt" viewBox="0 0 750 750">
<g enable-background="new">
<g id="Layer-1" data-name="Layer">
<clipPath id="cp0">
<path transform="matrix(1,0,0,-1,0,750)" d="M 0 750 L 750 750 L 750 0 L 0 0 Z "/>
</clipPath>
<g clip-path="url(#cp0)">
<path transform="matrix(1,0,0,-1,619.1875,671.2383)" d="M 0 0 L 15.047 -.902 C 31.538 -1.991 37.813 -9.321 37.813 -17.754 C 37.813 -29.394 22.938 -36.924 5.913 -36.924 C -5.386 -36.924 -22.037 -33.517 -22.037 -19.371 C -22.037 -8.072 -10.21 -.902 0 0 M -380.958 46.238 L -380.958 23.46 C -385.969 15.762 -394.589 8.767 -403.896 8.767 C -410.712 8.767 -414.106 13.069 -414.106 19.704 C -414.106 33.863 -397.081 40.505 -380.958 46.231 Z M -560.291 61.299 C -552.915 61.299 -551.404 53.106 -551.404 46.833 C -551.404 37.144 -555.233 19.871 -567.153 19.871 C -574.53 19.871 -576.04 28.063 -576.04 34.317 C -576.04 44.006 -572.205 61.292 -560.291 61.292 Z M -557.966 64.012 C -570.889 64.012 -582.201 49.986 -582.201 32.507 C -582.201 24.723 -579.067 17.146 -569.465 17.146 C -556.542 17.146 -545.23 31.09 -545.23 48.663 C -545.23 56.428 -548.371 64.012 -557.966 64.012 M 76.34 76.079 C 96.051 76.079 103.929 56.722 103.929 39.516 C 103.929 23.206 99.265 4.764 79.561 4.764 C 59.849 4.764 51.951 24.107 51.951 41.313 C 51.951 57.617 56.621 76.079 76.34 76.079 M 2.699 77.415 C 15.963 77.415 22.577 64.319 22.577 52.673 C 22.577 42.095 17.579 31.531 5.572 31.531 C -7.691 31.531 -14.146 45.148 -14.146 56.788 C -14.146 67.546 -9.302 77.415 2.699 77.415 M -67.186 77.415 C -57.33 77.415 -50.334 66.657 -47.294 58.231 L -87.626 47.487 C -87.626 60.737 -79.908 77.415 -67.186 77.415 M 80.088 81.444 C 65.93 81.444 40.665 70.152 40.665 37.899 C 40.665 16.043 54.109 -.615 75.785 -.615 C 89.95 -.615 115.221 10.664 115.221 42.924 C 115.221 64.786 101.791 81.444 80.088 81.444 M -64.133 82.239 C -87.078 82.239 -98.009 59.127 -98.009 38.875 C -98.009 18.803 -87.452 .167 -65.215 .167 C -52.319 .167 -41.2 5.198 -32.421 14.513 L -34.926 17.198 C -41.367 11.104 -48.737 8.064 -57.865 8.064 C -79.2 8.064 -86.71 24.182 -87.626 42.816 C -66.645 47.661 -52.313 51.958 -34.204 57.697 C -40.305 70.059 -48.904 82.239 -64.133 82.239 M -112.89 82.239 C -115.576 82.239 -119.705 81.538 -125.251 80.823 C -129.541 80.275 -135.287 79.373 -137.8 79.373 L -137.8 75.076 L -128.298 75.076 C -125.244 75.076 -123.28 75.083 -123.28 59.127 L -123.28 9.12 C -123.28 7.336 -125.07 7.33 -126.688 7.33 L -133.303 7.33 L -133.303 3.04 L -98.196 3.04 L -98.196 7.33 L -105.359 7.33 C -111.98 7.33 -112.89 7.336 -112.89 34.397 Z M -336.497 82.239 C -339.196 82.239 -343.312 81.538 -348.865 80.823 C -353.161 80.275 -358.895 79.373 -361.407 79.373 L -361.407 75.076 L -351.918 75.076 C -348.872 75.076 -346.9 75.083 -346.9 59.127 L -346.9 9.12 C -346.9 7.336 -348.705 7.33 -350.308 7.33 L -356.937 7.33 L -356.937 3.04 L -321.817 3.04 L -321.817 7.33 L -328.973 7.33 C -335.602 7.33 -336.49 7.336 -336.49 34.397 L -336.49 62.368 C -328.605 68.989 -320.367 74.175 -309.616 74.175 C -301.357 74.175 -294.729 70.059 -294.729 55.906 L -294.729 9.12 C -294.729 7.33 -296.526 7.33 -298.163 7.33 L -304.778 7.33 L -304.778 3.04 L -269.659 3.04 L -269.659 7.33 L -276.835 7.33 C -283.457 7.33 -284.352 7.336 -284.352 34.397 L -284.352 60.029 C -284.352 70.787 -289.009 82.239 -306.028 82.239 C -317.674 82.239 -327.169 75.625 -336.49 67.914 L -336.49 82.239 Z M -389.363 82.239 C -402.801 82.239 -423.775 72.745 -423.775 58.412 C -423.775 56.615 -422.171 54.657 -420.02 54.657 C -414.467 54.657 -411.4 62.715 -411.4 70.252 C -406.923 73.994 -399.76 75.785 -394.027 75.785 C -380.944 75.785 -380.944 66.998 -380.944 63.056 L -380.944 51.063 C -406.576 40.665 -425.211 32.961 -425.211 16.831 C -425.211 6.976 -419.479 .167 -409.616 .167 C -399.586 .167 -386.864 9.855 -380.417 17.212 C -379.327 7.711 -370.374 .174 -363.732 .174 L -358.006 8.231 C -370.547 10.925 -370.547 19.17 -370.547 30.462 L -370.547 58.946 C -370.547 72.21 -370.721 82.246 -389.363 82.246 Z M 41.955 83.329 C 38.721 83.329 42.482 79.006 30.288 79.006 C 25.277 79.006 19.911 79.74 14.887 80.823 C 11.652 81.344 8.612 82.239 5.372 82.239 C -11.64 82.239 -24.536 68.629 -24.536 51.59 C -24.536 41.567 -19.511 34.218 -10.745 29.561 C -14.867 24.903 -21.663 17.733 -21.663 12.521 C -21.663 6.428 -15.937 3.567 -10.745 1.957 C -20.954 -2.706 -30.63 -8.794 -30.63 -21.335 C -30.63 -38.534 -11.82 -41.762 1.797 -41.762 C 21.342 -41.762 46.432 -34.412 46.432 -15.074 C 46.432 7.143 24.396 8.231 15.428 8.779 C -7.511 10.036 -12.896 11.104 -12.896 16.65 C -12.896 19.711 -8.593 25.604 -6.255 27.943 C -3.214 27.229 -.16 26.687 3.066 26.687 C 19.37 26.687 32.988 38.514 32.988 55.191 C 32.988 62.361 31.364 67.907 26.526 73.279 C 29.399 72.918 33.877 72.21 36.215 72.21 C 41.581 72.21 41.06 74.001 42.489 78.304 C 42.856 79.206 43.392 81.177 43.392 81.879 C 43.392 82.787 42.856 83.329 41.955 83.329 M -517.14 90.973 C -527.236 90.973 -533.083 81.886 -535.007 67.92 L -535.809 62.08 L -542.184 62.08 L -542.691 59.668 L -536.116 59.668 C -537.733 44.514 -539.765 26.42 -540.259 21.883 C -541.883 7.437 -544.422 -3.475 -552.895 -3.475 L -553.589 -3.475 C -554.812 -1.65 -556.522 -.234 -558.741 -.234 C -560.164 -.234 -561.774 -1.036 -561.774 -2.68 C -561.774 -5.486 -557.538 -6.201 -555.327 -6.201 C -551.077 -6.201 -537.54 -3.582 -535.107 19.758 C -534.82 22.798 -533.303 33.696 -530.563 59.668 L -522.986 59.668 L -522.492 62.08 L -530.27 62.08 L -529.368 70.065 C -527.844 83.295 -523.902 88.246 -518.757 88.246 C -517.347 86.924 -515.917 85.427 -513.799 85.427 C -512.576 85.427 -511.387 86.129 -511.387 87.432 C -511.387 90.07 -515.102 90.973 -517.133 90.973 Z M -119.157 108.252 C -122.738 108.252 -125.785 105.198 -125.785 101.623 C -125.785 97.849 -122.738 94.821 -119.157 94.821 C -115.576 94.821 -112.529 97.849 -112.529 101.623 C -112.529 105.198 -115.576 108.252 -119.157 108.252 M -215.93 110.911 L -199.092 110.911 C -190.306 110.911 -152.673 103.562 -152.673 57.69 C -152.673 11.993 -185.106 8.946 -200.515 8.946 L -215.229 8.946 C -221.322 8.946 -222.559 8.953 -222.559 34.044 L -222.559 109.12 C -222.559 110.918 -219.338 110.911 -215.93 110.911 M -249.807 116.831 L -249.807 111.98 L -239.223 111.98 C -234.766 111.98 -234.212 108.405 -234.212 87.992 L -234.212 9.662 C -234.212 8.219 -235.815 7.878 -237.8 7.878 L -245.149 7.878 L -245.149 3.047 L -199.446 3.047 C -153.916 3.047 -140.485 38.681 -140.485 61.8 C -140.485 90.485 -158.947 116.831 -195.69 116.831 L -249.813 116.831 Z M -457.097 120.239 C -477.183 120.239 -496.707 107.337 -496.707 89.049 C -496.707 48.724 -438.461 63.972 -438.461 28.839 C -438.461 13.437 -453.335 5.553 -468.57 5.553 C -476.815 5.553 -494.562 9.12 -496.707 19.156 C -496.881 20.593 -497.242 22.391 -499.045 22.391 C -500.115 22.391 -500.83 21.662 -500.83 20.419 C -500.83 19.149 -499.754 13.243 -498.324 4.456 C -490.626 1.416 -479.695 -.368 -471.457 -.368 C -450.121 -.368 -429.328 12.007 -429.328 34.397 C -429.328 73.82 -488.107 61.459 -488.107 92.644 C -488.107 101.777 -480.744 114.319 -462.489 114.319 C -457.104 114.319 -442.23 112.354 -441.147 104.998 C -440.994 103.568 -440.793 102.492 -439.363 102.492 C -437.927 102.492 -437.747 103.562 -437.747 104.631 L -437.747 116.838 C -443.479 119.511 -451.19 120.246 -457.097 120.246 Z M -258.954 209.388 C -249.092 209.388 -242.116 198.617 -239.069 190.211 L -279.387 179.467 C -279.387 192.717 -271.69 209.395 -258.961 209.395 Z M -34.772 211.346 L -34.772 207.056 L -29.948 207.056 C -26.54 207.056 -24.91 204.383 -21.349 196.131 L 4.116 136.804 C -12.916 99.539 -23.307 97.741 -29.046 94.875 C -31.191 93.979 -31.919 93.438 -31.919 92.717 C -31.965 91.573 -31.074 90.61 -29.932 90.564 C -29.875 90.563 -29.818 90.563 -29.761 90.565 C -23.681 90.565 -17.399 91.287 -11.299 92.891 C -3.415 103.294 33.856 193.619 36.896 201.136 C 39.409 207.056 38.694 207.056 41.741 207.056 L 47.835 207.056 L 47.835 211.346 L 17.9 211.346 L 17.9 207.056 L 25.972 207.056 C 28.471 207.056 30.269 207.062 30.269 204.183 C 30.269 200.969 28.832 189.677 9.842 148.991 C 2.84 165.495 -13.812 203.829 -13.812 205.987 C -13.812 207.056 -12.556 207.056 -10.938 207.056 L -2.172 207.056 L -2.172 211.346 L -34.779 211.346 Z M -368.997 211.346 L -368.997 207.056 L -364.146 207.056 C -360.745 207.056 -359.302 204.183 -355.547 196.131 C -349.64 183.59 -332.962 141.641 -331.178 135.367 C -329.561 131.618 -329.22 131.625 -328.492 131.625 C -327.597 131.625 -327.062 132.34 -326.521 133.429 C -317.38 155.813 -302.693 190.933 -296.246 204.377 C -294.976 206.876 -294.441 207.049 -292.824 207.049 L -286.911 207.049 L -286.911 211.346 L -317.374 211.346 L -317.374 207.056 L -309.135 207.056 C -306.983 207.056 -304.658 207.062 -304.658 204.183 C -304.658 196.846 -311.474 177.495 -324.891 149.178 C -340.667 187.345 -348.03 203.829 -348.03 205.987 C -348.03 207.056 -346.76 207.056 -345.17 207.056 L -336.376 207.056 L -336.376 211.346 Z M -138.341 214.219 C -154.311 214.219 -166.491 203.127 -166.491 190.939 C -166.491 162.976 -121.509 175.344 -121.509 154.55 C -121.509 143.445 -132.788 138.073 -141.942 138.073 C -151.097 138.073 -163.799 142.897 -165.041 149.525 C -165.409 150.775 -165.783 152.579 -167.199 152.579 C -168.469 152.579 -169.184 152.045 -169.184 150.962 C -169.184 149.165 -167.914 142.362 -166.832 135.567 C -160.399 133.272 -153.616 132.115 -146.786 132.146 C -131.545 132.146 -112.736 139.322 -112.736 157.257 C -112.736 185.554 -158.6 175.15 -158.6 194.327 C -158.6 203.648 -148.21 208.319 -140.666 208.319 C -125.098 208.319 -121.322 200.08 -120.44 198.624 C -119.905 197.748 -119.712 197.033 -118.469 197.033 C -117.566 197.033 -117.213 197.567 -117.213 198.27 C -117.213 199.532 -117.747 205.619 -118.295 210.457 C -124.028 213.156 -131.011 214.219 -138.341 214.219 M -198.57 214.219 C -201.25 214.219 -205.373 213.518 -210.945 212.796 C -215.235 212.255 -220.968 211.346 -223.474 211.346 L -223.474 207.056 L -213.973 207.056 C -210.938 207.056 -208.961 207.056 -208.961 191.106 L -208.961 141.113 C -208.961 139.322 -210.745 139.322 -212.349 139.322 L -218.997 139.322 L -218.997 135.02 L -183.877 135.02 L -183.877 139.322 L -191.04 139.322 C -197.682 139.322 -198.57 139.315 -198.57 166.377 L -198.57 193.078 C -190.859 201.149 -186.209 203.662 -180.483 203.662 C -170.968 203.662 -172.766 198.27 -170.079 198.27 C -168.83 198.27 -168.282 198.817 -166.311 210.276 C -168.282 212.796 -171.689 214.219 -174.729 214.219 C -180.282 214.219 -185.134 210.998 -198.57 198.817 Z M -255.907 214.219 C -278.846 214.219 -289.784 191.113 -289.784 170.841 C -289.784 150.775 -279.207 132.146 -256.983 132.146 C -244.081 132.146 -232.982 137.178 -224.202 146.485 L -226.694 149.158 C -233.149 143.064 -240.485 140.03 -249.64 140.03 C -270.941 140.03 -278.485 156.154 -279.374 174.796 C -258.413 179.627 -244.087 183.931 -225.999 189.663 C -232.08 202.024 -240.673 214.212 -255.901 214.212 Z M -378.652 214.219 C -381.345 214.219 -385.468 213.518 -391.027 212.796 C -395.337 212.255 -401.05 211.359 -403.569 211.359 L -403.569 207.069 L -394.067 207.069 C -391.021 207.069 -389.056 207.062 -389.056 191.106 L -389.056 141.113 C -389.056 139.31 -390.847 139.322 -392.464 139.322 L -399.092 139.322 L -399.092 135.02 L -363.973 135.02 L -363.973 139.322 L -371.135 139.322 C -377.757 139.322 -378.652 139.315 -378.652 166.377 Z M -467.006 214.219 C -469.706 214.219 -473.822 213.518 -479.381 212.796 C -483.691 212.255 -489.404 211.359 -491.923 211.359 L -491.923 207.069 L -482.421 207.069 C -479.381 207.069 -477.41 207.062 -477.41 191.106 L -477.41 141.113 C -477.41 139.31 -479.207 139.322 -480.804 139.322 L -487.446 139.322 L -487.446 135.02 L -452.313 135.02 L -452.313 139.322 L -459.469 139.322 C -466.111 139.322 -467 139.315 -467 166.377 L -467 194.334 C -459.115 200.962 -450.883 206.167 -440.132 206.167 C -431.88 206.167 -425.251 202.038 -425.251 187.886 L -425.251 141.113 C -425.251 139.315 -427.042 139.322 -428.646 139.322 L -435.288 139.322 L -435.288 135.02 L -400.168 135.02 L -400.168 139.322 L -407.331 139.322 C -413.959 139.322 -414.848 139.315 -414.848 166.377 L -414.848 192.009 C -414.848 202.76 -419.512 214.219 -436.544 214.219 C -448.184 214.219 -457.685 207.584 -467 199.894 L -467 214.219 Z M -88.36 214.232 C -91.054 214.232 -95.163 213.518 -100.722 212.796 C -105.032 212.255 -110.758 211.346 -113.264 211.346 L -113.264 207.056 L -103.775 207.056 C -100.729 207.056 -98.765 207.062 -98.765 191.12 L -98.765 141.113 C -98.765 139.322 -100.548 139.322 -102.172 139.322 L -108.787 139.322 L -108.787 135.02 L -73.654 135.02 L -73.654 139.322 L -80.83 139.322 C -87.465 139.322 -88.36 139.322 -88.36 166.377 Z M -57.351 228.391 L -71.863 211.179 C -72.952 210.109 -73.667 209.201 -73.667 208.306 C -73.667 207.056 -72.952 207.056 -69.177 207.056 L -65.248 207.056 L -65.248 148.644 C -65.248 138.962 -59.862 132.146 -49.666 132.146 C -43.386 132.146 -34.058 135.22 -28.498 138.427 L -30.129 142.016 C -33.891 140.392 -38.187 139.142 -42.323 139.142 C -53.963 139.142 -54.852 147.748 -54.852 155.807 L -54.852 207.056 L -38 207.056 C -36.757 207.056 -35.849 207.236 -35.313 211.346 L -54.852 211.346 L -54.852 228.392 L -57.357 228.392 Z M -94.635 240.231 C -98.276 240.17 -101.213 237.231 -101.27 233.59 C -101.27 229.821 -98.21 226.787 -94.635 226.787 C -91.054 226.787 -87.993 229.821 -87.993 233.59 C -87.993 237.171 -91.054 240.231 -94.635 240.231 M -384.94 240.312 C -388.548 240.312 -391.588 237.271 -391.588 233.683 C -391.588 229.914 -388.542 226.867 -384.94 226.867 C -381.365 226.867 -378.338 229.914 -378.338 233.683 C -378.338 237.271 -381.365 240.312 -384.94 240.312 M -603.596 248.804 L -603.596 243.967 L -593.019 243.967 C -588.542 243.967 -588 240.378 -588 219.965 L -588 170.834 C -588 138.594 -562.73 131.611 -546.419 131.611 C -524.203 131.611 -499.827 142.717 -499.827 176.941 L -499.827 242.176 C -499.827 243.605 -498.224 243.967 -496.252 243.967 L -488.902 243.967 L -488.902 248.811 L -521.704 248.811 L -521.704 243.967 L -511.667 243.967 C -507.725 243.967 -505.741 243.432 -505.741 217.801 L -505.741 178.023 C -505.741 142.009 -531.546 138.414 -543.393 138.414 C -554.485 138.414 -576.354 142.536 -576.354 173.52 L -576.354 242.176 C -576.354 243.953 -574.39 243.967 -572.231 243.967 L -565.069 243.967 L -565.069 248.804 L -603.589 248.804 Z " fill="#003b70"/>
<path transform="matrix(1,0,0,-1,572.4814,367.6899)" d="M 0 0 C -1.37 0 -2.606 -.248 -3.722 -.562 C -4.956 -.863 -6.139 -1.348 -7.229 -1.998 C -8.267 -2.721 -9.193 -3.59 -9.982 -4.577 C -10.816 -5.529 -11.546 -6.565 -12.161 -7.671 C -13.184 -9.609 -13.577 -10.444 -13.631 -11.259 C -13.785 -13.852 -11.64 -13.083 -10.403 -15.375 C -10.704 -16.417 -10.664 -17.494 -10.664 -18.636 C -10.657 -20.633 -10.791 -20.633 -10.778 -22.625 C -10.778 -24.616 -10.678 -24.609 -10.678 -26.607 C -10.671 -28.605 -10.878 -28.598 -10.871 -30.589 C -10.865 -32.594 -10.671 -32.594 -10.664 -34.599 C -10.657 -36.59 -10.865 -36.59 -10.865 -38.587 C -10.852 -39.857 -10.865 -40.325 -10.871 -41.013 L 13.858 -41.013 L 13.858 -38.42 C 13.858 -37.131 13.704 -35.788 13.704 -34.425 C 13.69 -33.088 13.998 -31.752 13.991 -30.416 C 13.979 -29.066 13.657 -27.709 13.65 -26.407 C 13.65 -25.017 13.938 -23.68 13.938 -22.417 C 13.932 -20.941 13.737 -19.591 13.731 -18.409 C 13.731 -16.538 13.765 -15.122 13.765 -14.419 C 13.765 -13.25 13.718 -11.647 13.217 -9.997 C 12.789 -8.566 12.171 -7.199 11.379 -5.934 C 10.58 -4.663 9.575 -3.533 8.405 -2.593 C 7.303 -1.737 5.88 -1.25 4.356 -.782 C 2.953 -.299 1.483 -.035 0 0 M -99.532 2.492 C -100.795 2.475 -102.05 2.287 -103.261 1.931 C -104.491 1.63 -105.67 1.146 -106.756 .494 C -107.878 -.228 -108.76 -1.196 -109.521 -2.085 C -110.358 -3.026 -111.085 -4.06 -111.687 -5.165 C -112.709 -7.103 -113.104 -7.952 -113.157 -8.773 C -113.317 -11.366 -111.186 -10.597 -109.942 -12.876 C -110.243 -13.925 -110.19 -15.007 -110.19 -16.143 C -110.184 -18.141 -110.317 -18.141 -110.304 -20.132 C -110.304 -22.137 -110.217 -22.13 -110.217 -24.115 C -110.203 -26.113 -110.404 -26.113 -110.397 -28.111 C -110.391 -30.109 -110.196 -30.109 -110.19 -32.1 C -110.19 -34.104 -110.391 -34.104 -110.391 -36.095 C -110.377 -38.093 -110.424 -38.086 -110.424 -40.091 C -110.424 -40.458 -110.391 -40.746 -110.357 -41.013 L -85.694 -41.013 C -85.688 -40.659 -85.668 -40.312 -85.668 -39.944 L -85.668 -35.928 C -85.675 -34.632 -85.835 -33.295 -85.835 -31.932 C -85.835 -30.603 -85.548 -29.26 -85.548 -27.923 C -85.548 -26.574 -85.882 -25.224 -85.882 -23.915 C -85.882 -22.525 -85.601 -21.188 -85.601 -19.925 C -85.601 -18.449 -85.808 -17.085 -85.808 -15.91 C -85.808 -14.039 -85.762 -12.623 -85.762 -11.914 C -85.762 -10.758 -85.828 -9.174 -86.322 -7.517 C -86.751 -6.085 -87.364 -4.715 -88.146 -3.441 C -88.95 -2.17 -89.96 -1.041 -91.134 -.101 C -92.229 .755 -93.659 1.243 -95.183 1.71 C -96.581 2.194 -98.047 2.458 -99.526 2.492 Z M 9.849 4.978 C 8.353 5.265 5.953 3.167 7.443 2.572 C 7.443 2.572 11.633 1.664 14.326 -2.219 C 17.025 -6.121 18.815 -7.912 18.815 -9.395 C 18.815 -10.898 22.417 -10.891 18.516 -2.82 C 15.723 2.993 11.346 4.67 9.849 4.971 Z M -89.684 7.45 C -91.181 7.751 -93.565 5.666 -92.069 5.064 C -92.069 5.064 -87.893 4.169 -85.193 .274 C -82.507 -3.615 -80.703 -5.406 -80.703 -6.902 C -80.703 -8.399 -77.122 -8.399 -81.004 -.314 C -83.804 5.499 -88.18 7.163 -89.684 7.45 M -.094 22.999 C -.782 23.232 -1.697 22.184 -2.733 21.235 C -3.625 20.378 -4.108 19.183 -4.062 17.947 C -4.069 16.691 -2.86 16.531 -2.433 14.787 C -1.878 12.608 -2.018 12.515 -2.285 10.283 C -2.358 9.602 -2.98 9.902 -3.628 9.722 C -4.73 9.521 -5.98 9.194 -7.323 8.693 C -8.459 8.285 -9.709 7.911 -10.898 7.27 C -12.03 6.649 -13.113 5.943 -14.139 5.158 C -15.128 4.396 -16.19 3.622 -17.086 2.666 C -17.94 1.744 -18.509 .548 -19.197 -.575 C -19.91 -1.641 -20.511 -2.778 -20.987 -3.969 C -21.412 -5.179 -21.714 -6.428 -21.89 -7.698 C -22.084 -8.9 -22.291 -10.169 -22.264 -11.52 C -22.251 -13.524 -22.277 -13.538 -22.277 -15.542 C -22.277 -17.553 -22.137 -17.546 -22.137 -19.551 C -22.137 -21.556 -22.424 -21.556 -22.424 -23.567 C -22.424 -25.572 -22.11 -25.572 -22.11 -27.576 C -22.11 -29.581 -22.397 -29.587 -22.397 -31.592 C -22.397 -33.596 -22.19 -33.596 -22.19 -35.601 C -22.19 -37.612 -22.244 -37.612 -22.244 -39.617 C -22.244 -40.238 -22.257 -40.659 -22.277 -41.02 L -15.77 -41.02 L -15.77 -40.325 C -15.77 -38.26 -15.876 -38.267 -15.883 -36.215 C -15.896 -34.144 -16.097 -34.144 -16.11 -32.073 C -16.11 -30.015 -15.996 -30.022 -16.003 -27.963 C -16.01 -25.892 -16.097 -25.892 -16.097 -23.828 C -16.097 -21.763 -15.896 -21.77 -15.896 -19.718 C -15.896 -17.647 -16.097 -17.64 -16.11 -15.569 C -16.11 -13.504 -15.909 -13.498 -15.923 -11.426 C -15.943 -10.089 -15.735 -8.887 -15.469 -7.765 C -15.147 -6.475 -14.801 -5.292 -14.212 -4.263 C -13.558 -3.127 -12.683 -2.232 -11.84 -1.39 C -10.904 -.441 -10.063 .561 -9.087 1.163 C -7.798 1.951 -6.508 2.365 -5.612 2.586 C -4.511 2.853 -3.421 2.733 -2.485 2.766 C -.682 2.846 -.748 2.011 .534 2.9 C 2.579 4.296 4.163 3.789 4.163 6.281 C 4.163 8.506 .775 6.301 .521 8.051 C .268 9.815 1.951 8.305 2.866 9.802 C 4.043 11.727 2.426 12.081 2.854 14.306 C 3.141 15.809 3.789 15.194 5.292 16.197 C 6.795 17.199 6.642 17.94 5.386 18.074 C 2.553 18.375 .574 17.653 -.094 19.17 C -.501 20.092 1.143 20.8 .521 22.277 C .341 22.698 .134 22.918 -.094 22.999 M -99.626 25.484 C -100.321 25.725 -101.223 24.676 -102.252 23.727 C -103.143 22.87 -103.628 21.675 -103.589 20.439 C -103.602 19.177 -102.386 19.036 -101.951 17.299 C -101.396 15.107 -101.544 15 -101.817 12.762 C -101.892 12.094 -102.499 12.395 -103.154 12.214 C -104.25 12.014 -105.493 11.68 -106.843 11.199 C -107.979 10.771 -109.234 10.397 -110.417 9.749 C -111.55 9.138 -112.633 8.441 -113.658 7.664 C -114.66 6.902 -115.729 6.107 -116.618 5.158 C -117.474 4.229 -118.021 3.033 -118.723 1.917 C -119.391 .862 -120.046 -.228 -120.507 -1.47 C -120.941 -2.633 -121.202 -3.875 -121.422 -5.192 C -121.656 -6.457 -121.777 -7.741 -121.783 -9.027 C -121.783 -11.032 -121.797 -11.032 -121.797 -13.049 C -121.797 -15.054 -121.656 -15.054 -121.656 -17.059 C -121.656 -19.063 -121.957 -19.063 -121.957 -21.075 C -121.957 -23.08 -121.643 -23.08 -121.643 -25.097 C -121.643 -27.102 -121.917 -27.088 -121.917 -29.086 C -121.917 -31.097 -121.716 -31.104 -121.716 -33.109 C -121.716 -35.113 -121.776 -35.113 -121.776 -37.125 C -121.776 -39.083 -121.924 -39.156 -121.93 -41.013 L -115.368 -41.013 C -115.342 -39.837 -115.288 -39.51 -115.288 -37.833 C -115.302 -35.775 -115.396 -35.768 -115.402 -33.71 C -115.402 -31.638 -115.629 -31.659 -115.643 -29.594 C -115.643 -27.536 -115.509 -27.536 -115.522 -25.471 C -115.522 -23.407 -115.616 -23.4 -115.616 -21.335 C -115.616 -19.271 -115.422 -19.277 -115.429 -17.212 C -115.442 -15.141 -115.643 -15.141 -115.643 -13.07 C -115.643 -11.012 -115.429 -11.012 -115.442 -8.941 C -115.451 -7.699 -115.298 -6.461 -114.987 -5.259 C -114.734 -4.043 -114.312 -2.869 -113.731 -1.771 C -113.09 -.635 -112.208 .254 -111.373 1.102 C -110.431 2.038 -109.568 3.06 -108.606 3.655 C -107.526 4.298 -106.354 4.773 -105.132 5.064 C -104.043 5.338 -102.94 5.225 -102.019 5.265 C -100.201 5.332 -100.281 4.517 -98.998 5.392 C -96.946 6.795 -95.37 6.294 -95.37 8.773 C -95.37 11.011 -98.751 8.793 -98.998 10.543 C -99.245 12.301 -97.575 10.797 -96.659 12.281 C -95.49 14.212 -97.094 14.586 -96.68 16.798 C -96.393 18.301 -95.744 17.68 -94.24 18.689 C -92.737 19.685 -92.891 20.433 -94.147 20.566 C -96.98 20.86 -98.958 20.139 -99.626 21.655 C -100.027 22.578 -98.377 23.292 -98.998 24.769 C -99.179 25.19 -99.398 25.411 -99.626 25.491 Z M 86.877 36.71 C 88.427 36.456 89.136 35.761 90.338 34.872 C 91.581 33.963 92.724 32.901 93.412 31.531 C 94.093 30.195 94.414 28.678 94.414 27.081 C 94.414 25.17 94.28 25.164 94.28 23.259 L 94.28 19.458 C 94.28 17.553 94.261 17.553 94.261 15.648 C 94.261 13.744 94.534 13.751 94.534 11.84 C 94.534 9.936 94.381 9.929 94.381 8.031 C 94.381 6.114 94.447 6.308 94.447 4.203 C 94.447 2.973 94.313 1.61 94.313 .381 C 94.313 -1.724 94.962 -3.381 94.475 -3.548 C 92.536 -4.223 92.383 -3.548 90.331 -3.548 C 88.28 -3.548 87.405 -3.615 86.757 -3.147 C 86.115 -2.68 86.275 -1.43 86.275 .575 C 86.275 2.586 86.396 2.592 86.396 4.597 C 86.396 6.602 86.108 6.595 86.108 8.613 C 86.108 10.617 86.222 10.196 86.222 12.622 C 86.222 13.798 86.155 15.161 86.155 16.644 C 86.155 17.914 86.249 19.277 86.249 20.66 C 86.249 21.997 86.275 23.346 86.275 24.696 C 86.275 26.079 86.122 27.449 86.122 28.725 C 86.122 30.202 86.423 31.565 86.423 32.748 C 86.423 35.173 85.354 35.407 86.877 36.71 M 92.984 65.816 C 91.581 65.816 90.265 65.508 89.002 65.094 C 87.699 64.673 86.396 64.232 85.3 63.437 C 84.197 62.635 83.382 61.526 82.567 60.43 C 81.785 59.334 80.964 58.219 80.549 56.916 C 80.128 55.646 79.868 54.27 79.868 52.866 C 79.868 50.795 80.015 50.795 80.015 48.704 C 80.015 46.632 79.868 47.147 79.868 44.541 C 79.868 43.352 80.168 41.948 80.168 40.378 C 80.168 39.095 80.062 37.692 80.062 36.202 C 80.062 34.886 79.827 33.496 79.827 32.039 C 79.827 30.696 80.142 29.3 80.142 27.876 C 80.142 26.513 79.961 25.124 79.961 23.713 C 79.961 22.331 79.827 20.927 79.827 19.538 C 79.827 18.134 80.001 16.745 80.001 15.348 C 80.001 13.945 80.028 12.542 80.028 11.185 C 80.028 9.755 80.162 8.352 80.162 7.009 C 80.162 5.559 79.988 4.149 79.988 2.819 C 79.988 1.336 80.128 -.067 80.128 -1.356 C 80.128 -2.927 80.102 -4.33 80.102 -5.52 C 80.102 -8.125 79.072 -8.96 81.03 -9.668 C 82.273 -10.117 82.14 -9.762 84.305 -9.762 C 86.47 -9.762 86.476 -9.722 88.641 -9.722 C 90.806 -9.722 90.792 -9.576 92.957 -9.576 C 95.122 -9.576 95.129 -9.708 97.294 -9.708 C 99.466 -9.708 99.459 -9.809 101.624 -9.809 C 103.795 -9.809 103.294 -9.863 105.405 -9.435 C 106.542 -9.208 106.127 -7.604 106.127 -5.52 C 106.127 -3.435 105.98 -3.435 105.98 -1.356 C 105.98 .721 105.8 .735 105.8 2.819 C 105.8 4.904 106.021 4.904 106.021 6.982 C 106.021 9.061 105.98 9.054 105.98 11.145 C 105.98 13.236 106.127 13.243 106.127 15.321 C 106.127 17.399 106.061 17.393 106.061 19.484 C 106.061 21.575 105.913 21.569 105.913 23.647 C 105.913 25.738 105.967 25.745 105.967 27.823 C 105.967 29.901 105.927 29.901 105.927 31.986 C 105.927 34.07 105.854 34.077 105.854 36.162 C 105.854 38.247 106.141 38.247 106.141 40.332 C 106.141 42.416 106.034 42.416 106.034 44.507 C 106.034 46.599 105.887 46.599 105.9 48.69 C 105.9 50.782 105.967 50.782 105.967 52.866 C 106.008 55.625 105.181 58.327 103.602 60.59 C 102.761 61.679 101.758 62.632 100.628 63.417 C 99.546 64.206 98.25 64.64 96.939 65.061 C 95.671 65.525 94.335 65.78 92.984 65.816 M -101.17 72.992 C -100.214 73.139 -99.894 72.097 -101.323 70.266 C -102.352 69.06 -103.522 67.982 -104.812 67.059 C -105.753 66.351 -106.749 65.502 -107.838 64.573 C -108.767 63.785 -109.763 62.936 -110.778 61.994 C -111.693 61.145 -112.575 60.189 -113.544 59.241 C -114.446 58.346 -115.489 57.537 -116.424 56.575 C -117.3 55.659 -118.248 54.771 -119.164 53.782 C -120.046 52.846 -120.768 51.73 -121.656 50.742 C -122.524 49.779 -123.394 48.804 -124.269 47.802 C -125.124 46.826 -126.006 45.864 -126.854 44.862 C -127.703 43.873 -128.605 42.924 -129.447 41.908 C -130.282 40.906 -131.145 39.91 -131.966 38.895 C -132.788 37.873 -133.663 36.903 -134.472 35.875 C -135.287 34.839 -135.889 33.643 -136.677 32.614 C -137.492 31.565 -138.308 30.542 -139.082 29.494 C -139.864 28.437 -140.746 27.462 -141.494 26.42 C -142.296 25.297 -143.038 24.168 -143.793 23.079 C -144.575 21.923 -145.229 20.733 -145.944 19.631 C -146.706 18.455 -147.548 17.379 -148.229 16.277 C -148.972 15.067 -149.646 13.885 -150.301 12.789 C -151.05 11.54 -151.697 10.343 -152.312 9.268 C -153.094 7.938 -153.829 6.802 -154.384 5.806 C -155.587 3.749 -156.281 2.352 -156.528 2.285 C -157.337 2.071 -158.099 3.194 -158.733 4.27 C -159.495 5.566 -159.102 8.205 -159.937 6.916 C -160.966 5.345 -160.491 5.192 -160.925 3.374 C -161.373 1.557 -162.008 1.61 -161.728 -.234 C -161.547 -1.41 -159.107 -1.35 -160.21 -1.797 C -161.813 -2.466 -162.015 -1.884 -163.538 -1.016 C -163.558 -.101 -163.184 2.145 -162.87 3.749 C -162.683 4.824 -162.582 4.797 -162.389 5.873 C -162.389 5.88 -162.516 5.887 -162.509 5.9 C -162.442 6.04 -162.389 6.167 -162.322 6.254 C -161.319 7.503 -159.716 7.744 -160.919 8.392 C -162.669 9.354 -163.13 8.64 -164.801 8.747 C -164.667 9.194 -164.354 9.475 -164.152 9.815 C -163.685 10.644 -163.291 11.152 -162.743 11.306 C -162.059 11.428 -161.353 11.31 -160.745 10.972 C -159.335 10.183 -159.495 8.98 -157.938 9.421 C -156.389 9.855 -157.13 10.798 -156.361 12.214 C -155.707 13.437 -155.039 14.633 -154.391 15.822 C -153.716 17.025 -153.014 18.201 -152.339 19.364 C -151.645 20.566 -151.116 21.843 -150.422 22.999 C -149.693 24.182 -148.864 25.271 -148.137 26.406 C -147.401 27.569 -146.646 28.732 -145.892 29.848 C -145.116 30.99 -144.421 32.153 -143.633 33.255 C -142.845 34.385 -141.882 35.38 -141.08 36.449 C -140.252 37.565 -139.41 38.634 -138.574 39.69 C -137.706 40.772 -136.924 41.901 -136.069 42.938 C -135.174 44 -134.131 44.888 -133.235 45.897 C -132.313 46.933 -131.499 48.049 -130.583 49.038 C -129.635 50.04 -128.772 51.096 -127.816 52.044 C -126.841 53.034 -125.766 53.882 -124.79 54.797 C -123.781 55.753 -122.853 56.762 -121.85 57.657 C -120.821 58.58 -119.719 59.395 -118.683 60.263 C -117.634 61.152 -116.645 62.087 -115.589 62.936 C -114.507 63.792 -113.291 64.453 -112.208 65.254 C -111.105 66.083 -110.11 67.039 -109.015 67.827 C -107.885 68.616 -106.716 69.311 -105.606 70.072 C -104.471 70.841 -103.422 71.716 -102.292 72.444 C -101.971 72.719 -101.584 72.908 -101.17 72.992 M 91.936 76.032 C 91.327 74.589 93.164 74.228 93.726 73.112 C 94.414 71.709 94.755 71.375 95.409 69.952 C 96.813 69.952 97.447 69.832 98.751 69.471 C 100.101 69.11 101.396 68.535 102.572 67.854 C 104.943 66.397 106.895 64.347 108.232 61.907 C 108.92 60.738 109.502 59.481 109.869 58.125 C 110.217 56.822 110.558 55.466 110.558 54.056 C 110.558 52.044 110.53 52.038 110.53 50.027 C 110.53 48.022 110.363 48.022 110.363 46.018 C 110.363 44.006 110.391 44.013 110.391 41.995 C 110.391 39.991 110.257 40.485 110.257 37.979 C 110.257 36.823 110.57 35.467 110.57 33.943 C 110.57 32.708 110.438 31.364 110.438 29.935 C 110.438 28.665 110.518 27.315 110.518 25.925 C 110.518 24.616 110.417 23.272 110.417 21.903 L 110.403 17.867 C 110.403 16.531 110.544 15.188 110.544 13.851 C 110.544 12.488 110.257 11.145 110.257 9.815 C 110.257 8.446 110.57 7.096 110.57 5.78 C 110.57 4.396 110.283 3.04 110.283 1.75 C 110.283 .321 110.49 -1.022 110.49 -2.272 C 110.49 -3.782 110.424 -5.145 110.424 -6.288 C 110.424 -8.793 110.103 -9.341 110.57 -9.903 C 111.573 -11.092 111.994 -10.477 113.558 -10.477 C 115.114 -10.477 116.524 -11.012 116.524 -10.337 C 116.524 -8.914 116.578 -8.299 116.578 -6.288 C 116.578 -4.283 116.731 -4.283 116.731 -2.272 C 116.731 -.268 116.664 -.268 116.664 1.737 C 116.664 3.762 116.798 3.755 116.798 5.76 C 116.798 7.764 116.691 7.764 116.691 9.775 C 116.691 11.787 116.758 11.793 116.758 13.811 C 116.758 15.816 116.838 15.816 116.838 17.827 C 116.838 19.838 116.731 19.832 116.731 21.85 C 116.731 23.867 116.511 23.867 116.511 25.878 C 116.511 27.883 116.645 27.876 116.645 29.888 C 116.645 31.892 116.551 31.511 116.551 33.903 C 116.551 35.106 116.751 36.462 116.751 37.926 C 116.751 39.222 116.551 40.592 116.551 41.962 C 116.551 43.332 116.751 44.701 116.751 46.004 C 116.751 47.468 116.798 48.837 116.798 50.027 C 116.798 52.432 116.665 52.044 116.665 54.056 C 116.665 55.359 116.685 56.662 116.464 57.905 C 116.244 59.174 115.615 60.337 115.182 61.533 C 114.727 62.742 114.293 63.938 113.651 65.047 C 113.01 66.157 112.455 67.359 111.627 68.335 C 110.805 69.317 109.662 70.005 108.68 70.827 C 107.711 71.656 106.775 72.538 105.666 73.172 C 104.558 73.821 103.415 74.489 102.205 74.923 C 101.022 75.364 99.727 75.544 98.45 75.772 C 97.2 75.992 93.238 76.039 91.936 76.039 Z M -37.759 86.523 C -37.111 86.376 -35.654 86.242 -33.816 85.688 C -31.314 84.915 -28.847 84.035 -26.42 83.048 C -25.284 82.601 -24.095 82.066 -22.812 81.511 C -21.676 81.01 -20.526 80.382 -19.277 79.794 C -18.154 79.26 -16.865 78.912 -15.648 78.291 C -14.533 77.709 -13.391 77.062 -12.208 76.413 C -11.085 75.792 -9.963 75.097 -8.8 74.416 C -7.704 73.761 -6.588 73.065 -5.459 72.351 C -4.384 71.663 -3.073 71.255 -1.965 70.5 C -1.544 70.219 -1.029 69.898 -.494 69.584 C .294 69.07 1.103 68.549 1.904 67.981 C 2.993 67.206 3.982 66.25 5.085 65.421 C 6.16 64.62 7.39 63.972 8.466 63.116 C 9.515 62.268 10.511 61.326 11.573 60.444 C 12.602 59.575 13.704 58.747 14.727 57.831 C 15.729 56.936 16.664 55.92 17.667 54.971 C 18.643 54.049 19.738 53.201 20.707 52.231 C 21.655 51.27 22.511 50.214 23.46 49.205 C 23.994 48.644 24.476 48.022 24.977 47.414 C 25.003 45.904 25.11 45.57 25.117 43.719 C 25.117 41.674 25.017 41.674 25.017 39.623 C 25.017 37.585 24.916 37.579 24.923 35.527 C 24.923 33.469 25.104 33.476 25.104 31.424 C 25.11 29.373 25.043 29.373 25.05 27.315 C 25.05 25.271 25.852 25.137 25.157 23.206 L 25.17 15.608 C 25.632 13.47 25.063 13.403 25.077 11.225 C 25.077 9.174 25.037 8.927 25.03 7.143 C 24.863 7.644 24.716 8.172 24.542 8.666 C 23.827 10.771 22.979 12.789 22.203 14.787 C 21.469 16.745 20.787 18.655 20.019 20.493 C 19.25 22.304 18.589 24.095 17.813 25.792 C 17.038 27.469 16.097 29.032 15.314 30.589 C 14.56 32.153 13.864 33.703 13.097 35.146 C 12.321 36.609 11.459 37.953 10.711 39.309 C 9.942 40.679 9.194 41.982 8.452 43.238 C 7.69 44.527 7.069 45.811 6.354 46.973 C 5.6 48.189 4.717 49.245 4.016 50.314 C 3.268 51.47 2.525 52.519 1.851 53.508 C 1.588 53.885 1.32 54.259 1.049 54.63 L 1.042 54.771 C .748 55.165 .44 55.532 .141 55.92 C -.014 56.127 -.16 56.354 -.308 56.548 L -.341 56.535 C -.742 57.042 -1.116 57.564 -1.53 58.072 C -2.426 59.147 -3.421 60.143 -4.363 61.179 C -5.319 62.214 -6.248 63.263 -7.236 64.246 C -8.239 65.241 -9.175 66.29 -10.196 67.232 C -11.232 68.194 -12.422 68.997 -13.471 69.905 C -14.56 70.82 -15.582 71.776 -16.671 72.638 C -17.787 73.533 -18.97 74.282 -20.079 75.11 C -21.215 75.965 -22.351 76.801 -23.486 77.596 C -24.656 78.424 -25.726 79.36 -26.861 80.115 C -28.077 80.923 -29.354 81.511 -30.489 82.227 C -31.745 83.015 -32.962 83.73 -34.098 84.398 C -35.309 85.123 -36.529 85.831 -37.759 86.523 M -51.791 99.078 C -50.188 99.078 -48.61 99.158 -47.087 98.964 C -45.47 98.764 -43.899 98.463 -42.443 98.076 C -40.84 97.642 -38.254 97.154 -37.926 96.458 C -37.612 95.764 -38.755 94.387 -39.035 93.185 C -39.263 92.169 -39.343 91.04 -39.523 89.891 C -41.229 90.052 -42.938 90.192 -44.648 90.312 L -44.701 90.165 C -46.198 90.278 -47.642 90.372 -49.038 90.418 C -50.541 90.458 -51.951 90.625 -53.328 90.612 C -53.666 93.508 -54.579 96.307 -56.014 98.844 C -54.638 99.004 -53.228 99.078 -51.791 99.078 M -42.824 109.014 C -42.804 109 -41.661 107.865 -40.432 106.428 C -40.044 105.967 -39.47 104.831 -39.075 103.481 C -40.444 103.896 -41.833 104.24 -43.238 104.51 C -44.628 104.777 -46.031 105.145 -47.481 105.279 C -48.884 105.412 -50.341 105.332 -51.791 105.332 C -52.96 105.332 -54.116 105.232 -55.266 105.152 C -56.428 105.058 -57.61 104.985 -58.733 104.811 C -58.288 106.222 -57.276 107.383 -55.94 108.018 C -55.085 108.426 -53.648 108.633 -52.078 108.82 C -50.788 108.967 -49.412 108.927 -48.136 108.987 C -45.897 108.954 -43.893 108.974 -43.151 108.96 C -43.004 108.934 -42.938 109.087 -42.817 109.014 Z M -51.056 118.522 C -51.791 118.756 -52.433 118.549 -52.86 117.56 C -53.395 116.25 -52.452 116.123 -51.684 114.92 C -50.16 112.515 -49.426 112.208 -46.673 112.602 C -44.193 112.949 -47.36 115.482 -48.798 116.918 C -49.519 117.64 -50.334 118.295 -51.056 118.522 M -51.811 145.744 C -51.811 145.744 -51.116 143.298 -49.179 141.862 C -48.116 141.073 -44.054 140.592 -44.033 140.592 C -43.833 138.347 -43.859 139.109 -43.673 136.85 C -43.479 134.592 -43.472 134.599 -43.292 132.347 C -43.158 130.449 -44.207 129.875 -44.294 129.808 C -44.694 129.514 -44.828 129.567 -45.069 129.14 C -45.323 128.672 -45.243 128.585 -45.276 128.05 C -45.323 126.24 -45.31 124.663 -45.316 123.373 C -45.343 120.814 -45.303 119.244 -45.169 118.709 C -44.821 116.538 -44.654 116.558 -44.334 114.386 C -44.32 114.286 -44.087 112.341 -43.88 111.139 C -45.303 110.497 -45.396 111.079 -46.934 111.019 C -48.477 110.952 -48.503 110.457 -50.014 110.798 C -52.405 111.353 -52.626 112.214 -54.344 113.083 C -55.393 113.604 -57.27 112.983 -58.6 112.481 C -58.758 113.242 -58.841 114.017 -58.847 114.793 C -58.847 115.101 -58.94 115.428 -58.874 115.575 C -58.103 116.527 -57.137 117.301 -56.04 117.847 C -55.332 118.308 -55.038 118.094 -54.638 118.836 C -54.217 119.591 -54.53 119.738 -54.53 120.587 C -54.523 121.095 -54.998 121.188 -54.644 121.556 C -53.461 121.823 -51.744 121.937 -49.88 121.135 C -47.188 119.972 -47.574 117.132 -46.305 118.876 C -45.035 120.613 -46.419 120.948 -47.054 123.092 C -47.44 124.484 -48.106 125.782 -49.011 126.908 C -49.56 127.536 -50.708 128.618 -52.078 130.235 C -53.033 131.384 -53.852 132.64 -54.517 133.977 C -54.678 134.512 -55.205 134.873 -54.671 135.026 C -52.285 135.674 -51.897 134.091 -49.819 135.42 C -48.59 136.189 -48.777 137.091 -49.753 138.16 C -51.45 139.978 -53.655 139.329 -53.655 141.053 C -53.655 142.777 -54.323 144.494 -51.817 145.75 Z M -47.835 158.105 C -47.802 158.132 -47.936 157.998 -47.902 157.965 C -46.913 156.922 -45.463 155.753 -44.374 154.417 C -43.024 152.76 -42.035 151.036 -41.728 150.201 C -41.461 149.432 -42.39 146.88 -43.84 145.029 C -43.88 144.976 -43.933 144.862 -44 144.849 C -45.804 144.427 -47.882 144.501 -48.784 145.717 C -50.521 148.029 -50.094 148.383 -48.59 147.956 C -46.913 147.488 -47.147 146.352 -45.423 146.552 C -44.101 146.719 -43.512 147.221 -43.786 148.517 C -44.187 150.421 -45.016 149.953 -46.386 151.323 C -47.755 152.693 -47.214 154.062 -49.151 154.062 C -52.099 154.062 -52.092 151.169 -54.109 150.875 C -54.972 150.755 -56.208 151.396 -57.297 152.065 C -56.775 153.167 -56 154.056 -55.419 154.831 C -54.759 155.714 -54.052 156.562 -53.301 157.37 C -53.221 157.437 -53.247 157.37 -53.134 157.35 C -52.648 156.962 -52.103 156.657 -51.517 156.448 C -50.548 156.127 -48.978 157.216 -47.835 158.105 M 92.978 160.263 C 91.567 160.263 90.245 160.056 88.988 159.648 C 87.676 159.279 86.429 158.707 85.293 157.952 C 84.197 157.15 83.222 156.154 82.434 155.052 C 81.59 153.963 80.925 152.747 80.463 151.45 C 80.048 150.187 80.128 148.797 80.128 147.394 C 80.128 145.323 80.008 145.323 80.008 143.251 C 80.008 141.18 80.075 141.18 80.075 139.109 C 80.075 137.038 79.968 137.438 79.968 134.966 L 79.955 130.823 C 79.955 129.487 80.095 128.083 80.095 126.667 C 80.095 125.25 79.808 123.841 79.808 122.504 C 79.808 120.994 80.122 119.578 80.122 118.362 C 80.122 115.876 77.997 114.82 79.928 114.072 C 81.952 113.297 82.133 114.272 84.298 114.272 C 86.463 114.272 86.47 114.219 88.635 114.219 C 90.799 114.219 90.793 114.065 92.951 114.065 L 97.287 114.052 L 101.617 114.052 C 103.782 114.052 104.316 112.782 105.873 114.286 C 107.377 115.709 106.007 116.291 106.007 118.362 C 106.007 120.42 105.94 120.42 105.94 122.491 C 105.94 124.563 106.074 124.569 106.074 126.641 C 106.074 128.712 105.967 128.712 105.967 130.783 C 105.967 132.854 106.034 132.854 106.034 134.926 C 106.034 136.998 106.107 136.998 106.107 139.082 C 106.107 141.167 106.014 141.153 106.014 143.225 C 106.014 145.31 105.793 145.316 105.793 147.394 C 105.793 148.797 105.693 150.134 105.285 151.403 C 104.837 152.678 104.189 153.873 103.368 154.945 C 102.566 156.054 101.744 157.156 100.655 157.952 C 99.56 158.753 98.25 159.208 96.946 159.635 C 95.665 160.054 94.325 160.266 92.978 160.264 Z M 94.729 170.573 C 93.485 170.426 91.769 170.961 91.769 169.397 C 91.769 167.834 93.906 165.763 94.548 164.346 C 95.964 164.346 97.395 164.132 98.711 163.785 C 100.047 163.424 101.263 162.782 102.438 162.101 C 103.642 161.406 104.911 160.791 105.873 159.816 C 106.855 158.847 107.631 157.671 108.325 156.475 C 109.014 155.279 109.608 154.016 109.97 152.666 C 110.33 151.363 110.417 149.967 110.417 148.557 C 110.417 146.465 110.403 146.465 110.403 144.381 C 110.403 142.283 110.544 142.276 110.544 140.191 C 110.544 138.106 110.257 138.1 110.257 136.015 C 110.257 133.917 110.57 133.924 110.57 131.839 C 110.57 131.839 110.283 129.748 110.283 127.663 C 110.283 125.578 110.49 125.571 110.49 123.487 C 110.49 121.402 110.424 121.395 110.424 119.311 C 110.424 117.212 110.283 117.206 110.283 115.121 L 110.283 110.945 C 110.283 108.847 110.264 108.84 110.271 106.755 C 110.271 104.65 110.53 104.65 110.53 102.566 C 110.53 100.468 110.397 98.31 110.397 98.31 C 110.397 98.31 111.98 98.39 113.544 98.39 C 115.101 98.39 115.649 98.083 116.297 98.831 C 116.945 99.586 116.678 100.448 116.678 102.539 C 116.678 104.63 116.758 104.624 116.758 106.715 C 116.758 108.813 116.832 108.813 116.832 110.892 C 116.832 112.99 116.731 112.515 116.731 115.081 C 116.731 116.291 116.511 117.713 116.511 119.271 C 116.511 120.58 116.638 121.983 116.638 123.447 C 116.638 124.81 116.544 126.213 116.544 127.636 C 116.544 129.019 116.758 130.429 116.758 131.826 C 116.758 133.242 116.544 134.646 116.544 136.002 C 116.544 137.472 116.758 138.875 116.758 140.191 C 116.758 141.741 116.798 143.165 116.798 144.381 C 116.798 146.933 116.665 146.465 116.665 148.557 C 116.665 149.86 116.685 151.163 116.457 152.406 C 116.237 153.682 115.608 154.851 115.175 156.047 C 114.727 157.257 114.299 158.439 113.664 159.542 C 113.01 160.651 112.455 161.854 111.627 162.829 C 110.798 163.805 109.662 164.5 108.68 165.322 C 107.711 166.15 106.775 167.045 105.666 167.687 C 104.558 168.329 103.415 168.99 102.205 169.437 C 101.016 169.872 99.727 170.052 98.443 170.273 C 97.2 170.487 96.024 170.714 94.729 170.573 M -49.278 171.496 C -49.078 171.482 -48.971 171.362 -48.711 171.295 C -47.909 171.128 -47.401 170.694 -47.04 169.932 C -46.546 168.903 -46.572 167.74 -46.819 167.259 C -47.16 166.564 -47.24 165.515 -47.461 164.526 C -47.782 164.353 -48.303 164.166 -48.53 164.239 C -48.991 164.399 -49.767 165.174 -50.314 165.756 C -50.268 165.95 -50.073 166.13 -50.014 166.291 C -48.931 166.718 -47.588 166.023 -47.695 167.252 C -47.896 169.504 -48.557 169.357 -49.271 171.496 Z M 48.343 179.5 C 48.704 179.487 49.104 179.34 50.106 179.34 L 54.096 179.34 C 56.087 179.34 56.101 179.42 58.092 179.42 C 60.083 179.42 60.09 179.34 62.088 179.34 C 64.085 179.34 64.078 179.367 66.076 179.367 C 68.081 179.367 68.081 179.327 70.072 179.327 C 72.063 179.327 72.077 179.313 74.081 179.313 C 76.065 179.313 76.065 179.207 78.07 179.207 C 80.068 179.207 80.062 179.16 82.066 179.16 C 84.063 179.16 84.07 179.34 86.075 179.34 C 88.066 179.34 88.066 179.287 90.064 179.287 C 92.068 179.287 92.068 179.153 94.073 179.153 C 96.064 179.153 96.058 179.487 98.063 179.487 C 100.066 179.487 100.066 179.34 102.071 179.34 C 104.069 179.34 104.076 179.313 106.08 179.313 C 108.071 179.313 108.071 179.42 110.09 179.42 C 112.081 179.42 112.074 179.213 114.079 179.213 L 118.074 179.2 C 120.079 179.2 120.079 179.467 122.083 179.467 C 124.088 179.467 124.088 179.487 126.086 179.487 C 128.084 179.487 128.077 179.2 130.095 179.2 C 132.086 179.2 132.086 179.34 134.098 179.34 C 136.102 179.34 136.102 179.367 138.12 179.367 C 140.124 179.367 140.766 178.438 140.766 177.75 C 140.766 175.758 141.08 176.367 141.08 174.382 C 141.08 172.377 141 172.377 141 170.386 C 141 168.395 141.08 168.382 141.08 166.377 C 141.08 164.386 141 164.393 141 162.388 C 141 160.39 141.341 160.39 141.341 158.393 C 141.341 156.388 141.174 156.388 141.174 154.383 C 141.174 152.379 141.053 152.392 141.053 150.395 C 141.053 148.396 141.16 148.39 141.16 146.385 C 141.16 144.381 141.233 144.381 141.233 142.376 C 141.233 140.372 141.26 140.385 141.26 138.387 C 141.26 136.389 141.233 136.382 141.233 134.378 C 141.233 132.387 141.287 132.394 141.287 130.389 L 141.287 126.38 C 141.287 124.375 141.153 124.375 141.153 122.371 C 141.153 120.379 141.354 120.373 141.354 118.368 C 141.354 116.357 141.287 116.364 141.287 114.359 C 141.287 112.354 141.167 110.343 141.167 110.343 C 141.167 110.343 140.278 111.266 138.414 111.266 L 134.686 111.266 C 132.821 111.266 132.828 111.479 130.964 111.479 C 129.1 111.479 129.1 111.373 127.248 111.373 C 125.378 111.373 125.378 111.426 123.507 111.426 C 121.636 111.426 120.439 111.8 119.872 111.226 C 119.317 110.644 119.898 105.894 119.898 105.894 C 119.898 105.894 121.636 105.747 123.507 105.747 C 125.357 105.747 125.344 105.96 127.208 105.96 C 127.208 105.96 129.079 105.854 130.937 105.854 C 132.808 105.854 132.794 105.867 134.658 105.867 C 136.529 105.867 136.529 105.813 138.394 105.813 C 140.258 105.813 141.22 104.898 141.22 104.898 C 141.22 104.898 141.247 102.827 141.247 100.802 C 141.247 98.777 141.174 98.771 141.174 96.746 C 141.174 94.722 141.294 93.325 140.599 92.984 C 140.599 92.984 140.131 93.639 138.126 93.639 C 136.136 93.639 136.142 93.492 134.138 93.492 C 132.14 93.492 132.14 93.452 130.142 93.452 C 128.144 93.452 128.144 93.505 126.152 93.505 C 124.161 93.505 124.154 93.545 122.17 93.545 C 120.159 93.545 120.166 93.752 118.161 93.752 C 116.156 93.752 116.156 93.806 114.152 93.806 C 112.168 93.806 112.168 93.519 110.163 93.519 C 108.165 93.519 108.172 93.806 106.167 93.806 C 104.176 93.806 104.163 93.479 102.158 93.479 C 100.167 93.479 100.16 93.599 98.156 93.599 C 96.171 93.599 96.178 93.465 94.167 93.465 C 92.162 93.465 92.162 93.752 90.157 93.752 C 88.16 93.752 88.167 93.792 86.162 93.792 C 84.171 93.792 84.164 93.572 82.173 93.572 C 80.155 93.572 80.162 93.545 78.164 93.545 C 76.159 93.545 76.159 93.612 74.154 93.612 C 72.15 93.612 72.15 93.639 70.146 93.639 C 68.161 93.639 68.161 93.572 66.156 93.572 C 64.152 93.572 64.152 93.706 62.147 93.706 C 60.156 93.706 60.156 93.585 58.139 93.585 C 56.147 93.585 56.134 93.692 54.129 93.692 C 52.125 93.692 52.125 93.806 50.12 93.806 C 48.109 93.806 48.697 93.305 46.793 93.939 C 46.271 94.113 46.071 95.664 46.071 97.682 C 46.071 99.713 46.492 99.766 46.044 101.744 C 45.576 103.896 46.405 104.229 46.619 105.306 C 46.8 106.154 48.089 105.687 50.066 105.687 C 52.064 105.687 52.071 105.733 54.063 105.733 C 56.054 105.733 56.054 105.88 58.038 105.88 C 60.022 105.88 60.029 105.894 62.007 105.894 C 64.012 105.894 64.012 105.827 66.003 105.827 C 67.994 105.827 68.001 105.934 69.992 105.934 C 71.983 105.934 73.493 105.479 74.355 106.167 C 75.224 106.862 73.921 111.246 73.921 111.246 C 73.921 111.246 72.01 111.346 70.019 111.346 C 68.027 111.346 68.027 111.466 66.043 111.466 C 64.038 111.466 64.038 111.232 62.047 111.232 C 60.069 111.232 60.063 111.286 58.064 111.286 C 56.08 111.286 56.08 111.413 54.089 111.413 C 52.098 111.413 52.092 111.139 50.106 111.139 C 48.103 111.139 48.904 111.192 46.967 111.673 C 46.278 111.847 46.258 113.284 46.258 115.288 C 46.258 117.286 46.165 117.286 46.165 119.284 C 46.165 121.289 46.191 120.781 46.191 123.293 L 46.205 127.282 C 46.205 128.511 46.044 129.848 46.044 131.278 C 46.044 132.547 45.944 133.884 45.944 135.287 C 45.944 136.576 46.205 137.906 46.205 139.276 C 46.205 140.579 46.258 141.915 46.258 143.271 C 46.258 144.595 46.178 145.931 46.178 147.281 C 46.178 148.617 45.978 149.953 45.978 151.29 C 45.978 152.626 46.258 153.989 46.258 155.312 C 46.258 156.668 46.098 158.005 46.098 159.308 L 46.098 163.317 C 46.098 164.707 46.031 166.057 46.031 167.326 C 46.031 168.75 45.957 170.106 45.957 171.335 C 45.957 172.852 46.285 174.195 46.285 175.331 C 46.285 177.85 45.931 178.351 46.793 178.872 C 47.642 179.387 47.982 179.507 48.343 179.5 M 67.199 203.822 C 69.17 203.822 69.177 203.615 71.154 203.615 C 73.133 203.615 73.133 203.588 75.11 203.588 C 77.088 203.588 77.081 203.769 79.066 203.769 C 81.051 203.769 81.051 203.722 83.028 203.722 C 85.006 203.722 84.512 203.755 86.984 203.755 C 88.12 203.755 89.456 203.575 90.953 203.575 C 92.169 203.575 93.506 203.795 94.908 203.795 C 96.165 203.795 97.501 203.769 98.871 203.769 C 100.154 203.769 101.483 203.588 102.826 203.588 L 106.796 203.602 C 108.118 203.602 109.435 203.642 110.765 203.642 C 112.095 203.642 113.417 203.508 114.733 203.508 C 116.083 203.508 117.406 203.588 118.696 203.588 C 120.079 203.588 121.402 203.708 122.665 203.708 C 124.088 203.708 125.404 203.749 126.634 203.749 C 128.131 203.749 129.474 203.708 130.604 203.708 C 133.062 203.708 134.318 203.849 134.318 203.161 C 134.318 200.902 134.398 201.396 134.398 199.138 C 134.398 196.873 134.632 196.866 134.632 194.608 C 134.632 192.35 134.565 192.35 134.565 190.098 C 134.565 187.846 134.472 187.211 134.472 186.289 C 134.472 184.906 132.454 185.554 130.362 185.554 C 128.284 185.554 128.291 185.634 126.2 185.634 C 124.108 185.634 124.108 185.681 122.011 185.681 C 119.926 185.681 119.926 185.634 117.834 185.634 C 115.743 185.634 115.756 185.621 113.658 185.621 C 111.58 185.621 111.58 185.567 109.481 185.567 C 107.397 185.567 107.397 185.634 105.306 185.634 C 103.208 185.634 103.208 185.474 101.13 185.474 C 99.031 185.474 99.031 185.748 96.953 185.748 C 94.855 185.748 94.855 185.734 92.764 185.734 C 90.673 185.734 90.673 185.474 88.574 185.474 C 86.49 185.474 86.49 185.567 84.398 185.567 C 82.3 185.567 82.307 185.487 80.209 185.487 C 78.11 185.487 78.11 185.721 76.02 185.721 C 74.717 185.721 74.977 185.146 72.639 185.761 C 70.7 186.282 71.663 187.579 71.609 189.583 C 71.556 191.588 71.088 192.824 71.636 193.619 C 71.93 194.033 73.607 193.579 75.578 193.579 C 77.55 193.579 77.543 193.619 79.507 193.619 C 81.479 193.619 81.03 193.452 83.449 193.452 C 84.585 193.452 85.922 193.425 87.392 193.425 C 88.607 193.425 89.951 193.659 91.334 193.659 C 92.604 193.659 93.92 193.452 95.256 193.452 L 99.198 193.472 C 100.541 193.472 101.871 193.619 103.154 193.619 C 104.53 193.619 105.867 193.472 107.097 193.472 C 108.566 193.472 109.902 193.565 111.039 193.565 C 113.457 193.565 114.507 193.398 115.355 194.207 C 116.19 195.002 116.043 198.857 114.954 199.426 C 114.954 199.426 112.989 199.479 111.012 199.479 L 107.069 199.479 C 105.099 199.479 105.105 199.345 103.127 199.345 C 101.149 199.345 101.143 199.272 99.172 199.272 C 97.2 199.272 97.194 199.532 95.229 199.532 C 93.252 199.532 93.259 199.466 91.287 199.466 C 89.31 199.466 89.303 199.426 87.325 199.426 C 85.354 199.426 85.354 199.492 83.383 199.492 L 79.427 199.506 C 77.449 199.506 77.449 199.439 75.472 199.439 C 73.493 199.439 73.487 199.319 71.502 199.319 C 69.498 199.319 69.491 199.499 67.486 199.492 C 65.476 199.486 65.482 199.446 63.464 199.439 C 61.446 199.432 61.446 199.406 59.435 199.385 L 55.412 199.385 C 53.395 199.385 51.37 199.305 51.37 199.305 C 51.37 199.305 49.245 203.548 51.384 203.642 C 52.292 203.682 53.368 203.695 55.339 203.695 C 57.316 203.695 57.311 203.615 59.288 203.615 C 61.259 203.615 61.266 203.642 63.244 203.642 C 65.222 203.642 65.222 203.822 67.199 203.822 M 97.4 251.991 C 97.16 251.985 97.033 251.864 97.033 251.61 C 97.033 251.089 98.216 249.372 99.412 248.31 C 100.595 247.261 105.212 243.565 110.878 232.233 C 113.645 226.687 116.544 214.179 117.326 213.912 C 118.121 213.651 122.204 213.25 121.816 214.306 C 121.415 215.355 115.481 233.149 110.478 240.271 C 106.101 246.499 99.085 252.052 97.4 251.991 M 89.362 257.551 C 90.746 257.551 92.108 257.223 93.472 257.043 C 94.855 256.842 96.245 256.762 97.581 256.375 C 98.951 255.994 100.24 255.286 101.537 254.718 C 102.866 254.143 104.183 253.608 105.439 252.854 C 106.695 252.098 107.918 251.25 109.107 250.321 C 110.311 249.392 111.52 248.497 112.642 247.415 C 113.744 246.325 114.646 244.916 115.669 243.679 C 116.678 242.443 117.653 241.173 118.568 239.804 C 119.484 238.434 120.38 236.757 121.188 235.26 C 121.983 233.784 122.645 232.5 123.326 230.904 C 123.994 229.313 124.85 227.836 125.397 226.153 C 125.933 224.482 126.199 222.658 126.62 220.908 C 127.034 219.17 127.409 217.433 127.676 215.629 C 127.943 213.852 128.224 212.154 128.345 210.324 C 128.064 210.189 127.771 210.083 127.469 210.009 L 126.019 209.996 C 125.545 210.09 125.03 210.23 124.128 210.23 C 122.01 210.23 122.003 210.063 119.885 210.063 C 117.767 210.063 117.767 210.411 115.655 210.411 C 113.537 210.411 113.518 210.217 111.399 210.217 C 109.288 210.217 109.288 210.27 107.163 210.27 C 105.038 210.27 105.52 210.337 102.92 210.337 C 101.697 210.337 100.261 210.243 98.69 210.243 C 97.36 210.243 95.931 210.203 94.447 210.203 C 93.071 210.203 91.647 210.136 90.197 210.136 C 88.795 210.136 87.364 210.257 85.955 210.257 C 84.512 210.257 83.081 210.324 81.698 210.324 L 77.442 210.324 C 75.865 210.324 74.396 210.471 73.206 210.203 C 72.491 210.036 71.803 210.264 71.135 210.15 C 70.747 210.665 70.439 210.965 70.306 211.82 C 70.099 213.237 70.5 214.426 70.399 215.696 C 70.306 216.945 70.733 217.847 71.001 221.208 C 71.135 222.852 71.147 224.776 71.361 226.821 C 71.549 228.605 71.85 230.462 72.11 232.38 C 72.243 233.469 72.945 236.944 74.742 239.984 C 75.678 241.588 77.776 244.635 78.604 245.336 C 79.14 245.791 81.07 247.608 82.821 248.69 C 84.518 249.733 86.055 249.76 86.896 249.76 L 86.917 248.978 C 86.917 247.508 86.983 247.515 86.983 246.051 C 86.983 244.581 87.063 244.575 87.063 243.104 C 87.063 241.635 87.023 241.641 87.023 240.185 C 87.023 238.715 87.164 238.701 87.164 237.231 C 87.164 235.768 86.931 235.781 86.931 234.312 C 86.931 232.841 87.037 232.834 87.037 231.371 C 87.037 229.901 87.131 229.908 87.131 228.451 C 87.131 226.995 86.997 226.981 86.997 225.511 C 86.997 224.042 87.104 224.042 87.104 222.571 C 87.104 221.102 86.931 221.108 86.931 219.638 C 86.931 218.181 87.218 214.961 87.218 213.491 C 87.218 213.491 90.879 213.043 91.427 213.491 C 91.962 213.958 91.547 218.87 91.487 219.651 C 91.4 220.64 91.42 221.623 91.42 222.605 C 91.42 223.587 91.394 224.569 91.394 225.545 C 91.394 226.534 91.594 227.529 91.594 228.485 C 91.594 229.487 91.527 230.482 91.527 231.452 L 91.527 234.398 C 91.527 235.414 91.394 236.389 91.394 237.352 C 91.394 238.36 91.434 239.356 91.434 240.298 C 91.434 241.327 91.407 242.323 91.407 243.251 C 91.407 244.301 91.554 245.283 91.554 246.185 C 91.554 247.301 91.421 250.187 91.421 251.016 C 91.421 252.58 88.614 252.306 87.559 252.172 C 86.253 252.305 84.938 252.318 83.63 252.212 C 81.258 251.911 80.188 251.677 78.973 251.129 C 77.743 250.588 76.56 250.181 75.604 249.606 C 74.723 249.071 73.192 248.163 69.344 243.926 C 69.01 243.646 68.662 243.345 68.321 243.011 C 67.279 241.969 66.29 240.605 65.181 239.229 C 64.198 238.013 63.063 236.837 62.107 235.327 C 61.238 233.951 60.563 232.28 59.762 230.643 C 59.027 229.14 58.226 227.576 57.584 225.839 C 56.982 224.222 56.615 222.397 56.134 220.567 C 55.673 218.87 55.125 217.159 54.791 215.268 C 54.542 213.77 54.342 212.263 54.189 210.751 C 54.022 210.698 53.849 210.645 53.708 210.571 C 51.771 209.669 51.537 209.635 50.327 210.15 C 50.44 211.995 50.633 213.834 50.902 215.663 C 51.176 217.466 51.35 219.297 51.764 221.035 C 52.178 222.792 52.906 224.389 53.461 226.059 C 53.996 227.75 54.477 229.467 55.158 231.057 C 55.826 232.661 56.481 234.312 57.283 235.801 C 58.085 237.292 59.047 238.641 59.956 240.011 C 60.878 241.381 61.833 242.717 62.855 243.953 C 63.864 245.183 64.9 246.432 65.996 247.528 C 67.112 248.617 68.361 249.466 69.564 250.388 C 70.754 251.316 71.956 252.225 73.219 252.987 C 74.469 253.722 75.771 254.377 77.095 254.958 C 78.397 255.526 79.768 255.894 81.124 256.274 C 82.46 256.655 83.816 257.05 85.199 257.237 C 86.556 257.437 87.946 257.551 89.362 257.551 M 85.968 271.623 C 87.665 271.736 87.672 271.436 89.376 271.322 C 90.96 271.222 91.474 272.23 92.477 270.988 C 93.565 269.651 92.402 269.304 92.402 267.58 C 92.402 265.856 92.536 265.843 92.536 264.119 C 92.536 262.936 92.804 262.502 92.817 261.834 L 85.748 261.566 C 85.594 262.682 85.828 263.003 85.915 264.627 C 86.015 266.604 86.355 266.197 85.748 268.081 C 85.133 270.006 84.411 269.551 82.781 270.734 C 82.688 270.801 82.721 270.941 82.821 270.968 C 84.392 271.295 84.371 271.522 85.962 271.623 Z M 81.277 305.633 L 86.262 305.633 L 86.262 300.662 C 83.835 301.315 81.938 303.208 81.277 305.633 M 86.269 314.42 L 86.269 309.435 L 81.271 309.435 C 81.939 311.88 83.81 313.731 86.262 314.42 Z M 99.252 305.633 L 95.075 305.633 C 94.422 303.277 92.606 301.42 90.265 300.715 L 90.265 296.512 C 94.868 297.381 98.448 301.017 99.245 305.633 Z M 105.266 305.633 L 102.292 305.633 L 102.292 305.399 C 102.292 304.578 102.957 303.913 103.778 303.913 C 104.6 303.913 105.266 304.578 105.266 305.399 Z M 105.266 309.435 L 105.266 305.633 L 106.628 305.633 C 107.679 305.633 108.529 306.484 108.529 307.534 C 108.529 308.584 107.679 309.435 106.628 309.435 Z M 102.292 309.435 L 105.266 309.435 L 105.266 309.749 C 105.266 310.564 104.597 311.246 103.782 311.246 C 102.958 311.242 102.292 310.573 102.292 309.749 Z M 99.265 309.435 C 99.372 308.813 99.432 308.179 99.432 307.531 C 99.432 306.883 99.358 306.254 99.252 305.633 L 102.292 305.633 L 102.292 309.442 L 99.265 309.442 Z M 90.258 318.596 L 90.258 314.366 C 92.623 313.638 94.421 311.827 95.075 309.435 L 99.265 309.435 C 98.461 314.064 94.873 317.71 90.258 318.589 Z M 88.267 330.69 C 87.165 330.69 86.27 329.801 86.262 328.699 L 86.262 327.523 L 86.042 327.523 C 85.217 327.468 84.593 326.754 84.648 325.929 C 84.698 325.182 85.294 324.586 86.042 324.536 L 86.269 324.536 L 86.269 318.583 C 81.592 317.781 77.883 314.119 77.081 309.428 L 74.055 309.428 L 74.055 309.749 C 74.059 310.569 73.398 311.238 72.578 311.246 C 71.752 311.242 71.082 310.575 71.074 309.749 L 71.074 309.435 L 69.718 309.435 C 68.674 309.435 67.827 308.588 67.827 307.544 L 67.827 307.531 C 67.827 306.482 68.669 305.633 69.718 305.633 L 71.074 305.633 L 71.074 305.399 C 71.074 304.584 71.749 303.916 72.578 303.916 C 73.393 303.916 74.048 304.584 74.048 305.399 L 74.048 305.633 L 77.095 305.633 C 77.904 300.946 81.58 297.279 86.269 296.479 L 86.269 276.875 C 83.583 276.828 81.218 276.701 81.218 276.701 C 81.084 276.133 79.187 276.447 78.438 275.531 C 77.375 274.249 77.716 273.915 77.716 272.257 C 77.716 270.6 77.469 270.607 77.469 268.95 C 77.469 267.293 77.743 267.466 77.743 265.636 C 77.743 264.566 77.703 263.391 77.703 262.321 C 77.703 261.86 77.77 261.52 77.823 261.226 C 75.778 260.825 73.319 259.675 72.13 259.007 C 70.894 258.306 69.658 257.638 68.476 256.802 C 67.285 255.96 66.141 255.054 65.048 254.089 C 63.918 253.107 62.869 252.045 61.82 250.942 C 60.771 249.84 60.05 248.149 59.08 246.92 C 58.118 245.697 56.829 245.089 55.946 243.766 C 55.064 242.43 54.343 240.933 53.562 239.497 C 52.786 238.066 51.911 236.724 51.223 235.2 C 50.531 233.673 49.9 232.12 49.332 230.543 C 48.757 228.959 48.423 227.235 47.962 225.571 C 47.501 223.928 46.96 222.311 46.619 220.6 C 46.278 218.91 45.984 217.192 45.757 215.442 C 45.543 213.725 45.477 211.914 45.369 210.143 L 45.369 209.99 C 45.103 209.481 44.915 209.582 44.347 209.481 C 42.569 209.174 42.563 209.248 40.759 209.181 C 38.955 209.114 38.02 208.947 38.02 208.947 C 38.02 208.947 38.046 206.989 38.046 205.018 C 38.046 203.047 38.02 203.041 38.02 201.062 C 38.02 199.091 37.886 199.091 37.886 197.12 C 37.886 195.143 38.1 195.136 38.1 193.165 C 38.1 191.187 38.126 191.193 38.126 189.216 C 38.126 187.238 37.939 185.327 37.939 185.327 L 36.729 185.14 C 34.893 185.14 31.404 185.08 29.968 185.387 C 28.157 185.774 26.947 185.427 26.78 184.959 C 26.627 184.485 27.034 183.536 27.683 182.046 C 28.338 180.556 28.351 180.977 28.985 179.494 C 29.653 177.997 29.533 177.943 30.175 176.447 C 30.816 174.977 30.81 174.97 31.559 173.54 L 31.679 173.774 L 31.691 172.798 C 31.691 171.583 31.491 170.259 31.491 168.83 C 31.491 167.573 31.611 166.257 31.611 164.86 C 31.604 163.591 31.585 162.261 31.585 160.892 C 31.585 159.608 31.611 158.272 31.611 156.916 C 31.604 155.62 31.691 154.283 31.691 152.934 C 31.679 151.63 31.518 150.308 31.518 148.964 C 31.518 147.655 31.651 146.325 31.651 144.989 C 31.645 143.672 31.618 142.343 31.611 141.006 L 31.599 137.024 C 31.592 135.694 31.691 134.372 31.691 133.042 C 31.679 131.705 31.524 130.389 31.518 129.066 C 31.518 127.716 31.385 126.393 31.378 125.07 C 31.378 123.727 31.726 122.397 31.726 121.088 C 31.712 119.731 31.691 118.402 31.691 117.099 C 31.691 115.736 31.404 114.399 31.404 113.103 C 31.391 111.727 31.451 110.404 31.444 109.121 C 31.444 107.731 31.324 106.401 31.324 105.145 C 31.324 103.715 31.592 102.372 31.585 101.163 C 31.585 99.652 31.378 98.31 31.378 97.18 C 31.371 94.668 31.391 93.372 31.391 93.372 C 31.391 93.372 29.881 93.205 28.284 93.104 C 26.46 93.104 24.255 93.125 23.192 93.358 C 21.389 93.739 20.179 93.385 20.012 92.917 C 19.858 92.436 20.272 91.5 20.921 90.018 C 21.568 88.521 21.568 88.941 22.217 87.445 C 22.865 85.961 22.765 85.908 23.42 84.418 C 24.067 82.941 24.034 82.921 24.783 81.498 L 24.836 81.598 L 24.836 80.556 C 24.843 78.518 24.956 78.518 24.956 76.473 C 24.963 74.422 24.93 74.422 24.93 72.371 C 24.937 70.326 24.876 70.319 24.876 68.275 C 24.883 66.224 24.903 66.23 24.903 64.192 C 24.91 62.147 24.997 62.141 24.997 60.089 C 24.997 58.139 25.063 57.971 25.07 56.181 L 24.616 56.622 C 23.646 57.59 22.725 58.58 21.742 59.495 C 20.761 60.43 19.658 61.246 18.669 62.127 C 17.646 63.036 16.744 64.059 15.729 64.907 C 14.687 65.783 13.537 66.524 12.495 67.346 C 11.426 68.215 10.41 69.11 9.348 69.905 C 8.252 70.734 7.183 71.569 6.101 72.337 C 4.978 73.126 3.822 73.827 2.72 74.563 C 1.563 75.324 .381 76.006 -.729 76.701 C -1.904 77.436 -3.014 78.19 -4.163 78.859 C -4.163 78.879 -4.17 78.879 -4.183 78.886 C -4.798 79.28 -5.433 79.701 -6.04 80.062 C -7.276 80.79 -8.579 81.311 -9.769 81.966 C -11.038 82.667 -12.154 83.569 -13.351 84.184 C -14.633 84.846 -16.029 85.167 -17.253 85.734 C -18.569 86.356 -19.812 86.984 -21.034 87.512 C -22.404 88.093 -23.707 88.581 -24.937 89.048 C -26.235 89.548 -27.545 90.018 -28.865 90.458 C -30.382 90.979 -31.491 91.748 -31.317 92.383 C -30.937 93.772 -30.87 96.165 -30.863 96.191 C -30.396 97.388 -30.235 98.136 -30.636 99.345 C -31.037 100.555 -31.545 99.759 -32.621 100.448 C -33.222 100.829 -33.764 101.316 -34.425 101.657 C -34.465 101.69 -34.479 101.57 -34.479 101.617 C -34.578 102.138 -34.785 103.849 -35.36 105.586 C -35.782 106.87 -36.439 108.064 -37.298 109.107 C -38.057 110.034 -38.884 110.902 -39.771 111.707 C -39.931 112.629 -39.864 113.264 -40.111 114.773 C -40.131 114.907 -40.532 117.259 -40.913 119.745 C -40.946 119.972 -41.113 120.654 -41.113 121.623 C -41.113 123.092 -40.993 125.15 -40.933 127.095 C -40.178 127.943 -39.437 129.427 -39.437 131.899 C -39.437 132.133 -39.356 132.367 -39.369 132.614 C -39.523 134.378 -39.329 134.204 -39.489 136.155 C -39.59 137.292 -39.904 138.534 -39.997 139.69 C -40.138 141.334 -40.018 142.704 -40.051 143.171 C -39.39 144.199 -38.826 145.286 -38.367 146.418 C -37.873 147.521 -37.545 148.757 -37.545 149.974 C -37.555 150.527 -37.664 151.075 -37.866 151.59 C -38.187 152.452 -38.595 153.675 -39.396 154.811 C -40.077 155.767 -41.093 156.555 -41.835 157.45 C -42.737 158.526 -43.485 159.575 -44.08 160.217 C -43.88 162.081 -43.392 164.406 -42.931 165.308 C -42.503 166.15 -42.517 167.246 -42.517 168.295 C -42.517 169.471 -42.703 170.667 -43.205 171.736 C -43.625 172.666 -44.251 173.488 -45.035 174.142 C -45.854 174.743 -46.801 175.146 -47.802 175.317 C -50.348 175.892 -52.099 175.284 -53.101 174.529 C -54.062 173.779 -54.815 172.797 -55.292 171.676 C -55.78 170.563 -56.093 169.383 -56.221 168.175 C -56.221 168.161 -56.141 168.208 -56.141 168.202 C -56.441 167.159 -56.809 165.983 -57.13 164.887 C -57.564 163.384 -57.771 162 -57.911 161.506 C -58.499 160.965 -59.415 160.17 -60.304 159.041 C -61.021 158.156 -61.669 157.218 -62.241 156.234 C -62.775 155.299 -63.243 154.243 -63.671 153.114 C -64.206 151.697 -65.716 149.452 -65.716 148.236 C -65.716 146.733 -65.101 145.45 -64.547 144.307 C -63.898 142.984 -63.05 141.862 -62.067 141.06 C -61.653 139.122 -62.154 139.069 -62.154 137.091 C -62.154 135.113 -60.965 136.008 -60.965 134.037 C -60.965 132.06 -61.072 132.06 -61.072 130.068 L -61.072 126.099 C -61.072 124.122 -60.824 125.518 -61.205 123.58 C -62.363 122.69 -63.396 121.647 -64.272 120.48 C -65.175 119.21 -65.194 116.177 -65.194 114.64 C -65.194 113.725 -65.101 112.916 -64.947 112.127 C -65.608 111.767 -67.286 111.954 -67.961 110.23 C -68.662 108.426 -67.66 108.359 -67.399 106.435 C -67.139 104.51 -66.785 104.497 -66.878 102.546 C -67.58 102.252 -67.961 102.593 -68.603 102.258 C -69.959 101.563 -70.82 101.918 -71.302 100.468 C -71.783 98.998 -71.582 98.056 -70.914 96.659 C -70.895 96.646 -69.324 95.009 -70.232 93.098 C -70.573 92.363 -71.683 91.648 -73.186 91.247 C -74.369 90.926 -75.618 90.405 -77.021 89.964 C -78.224 89.59 -79.527 89.269 -80.884 88.788 C -82.1 88.367 -83.423 88.026 -84.732 87.512 C -85.941 87.044 -87.091 86.302 -88.387 85.748 C -89.583 85.24 -90.939 84.959 -92.209 84.365 C -93.398 83.816 -94.588 83.175 -95.824 82.554 C -96.993 81.959 -98.116 81.191 -99.339 80.529 C -100.494 79.901 -101.764 79.393 -102.947 78.705 C -104.103 78.023 -105.212 77.249 -106.368 76.52 C -107.504 75.832 -108.673 75.15 -109.815 74.382 C -110.918 73.647 -112.074 72.945 -113.196 72.15 C -114.279 71.382 -115.354 70.566 -116.457 69.738 C -117.52 68.936 -118.522 68.027 -119.591 67.179 C -120.634 66.344 -121.776 65.609 -122.825 64.727 C -123.841 63.865 -124.763 62.869 -125.778 61.96 C -126.781 61.065 -127.863 60.263 -128.853 59.321 C -129.828 58.412 -130.743 57.41 -131.712 56.448 C -132.668 55.512 -133.663 54.604 -134.599 53.622 C -135.527 52.659 -136.416 51.617 -137.325 50.615 C -138.22 49.626 -139.148 48.637 -140.024 47.588 C -140.913 46.585 -141.574 45.376 -142.443 44.313 C -143.285 43.278 -144.36 42.403 -145.196 41.327 C -146.011 40.271 -146.833 39.195 -147.648 38.1 C -148.437 37.03 -149.052 35.801 -149.826 34.685 C -150.595 33.589 -151.43 32.52 -152.191 31.384 C -152.927 30.269 -153.635 29.112 -154.37 27.963 C -155.078 26.834 -155.693 25.625 -156.408 24.449 C -157.097 23.312 -157.824 22.164 -158.506 20.974 C -159.168 19.818 -159.909 18.702 -160.571 17.506 C -163.012 17.982 -165.537 17.345 -167.46 15.769 C -168.241 15.101 -169.17 14.279 -169.865 13.056 C -170.742 11.47 -171.174 9.676 -171.114 7.864 C -171.114 7.116 -171.235 6.341 -171.008 5.633 C -170.647 4.497 -169.932 3.729 -169.337 3.094 C -169.437 2.412 -169.571 1.69 -169.638 .909 C -171.208 .875 -173.286 .441 -174.269 -1.777 C -174.625 -2.598 -174.807 -3.483 -174.803 -4.377 C -174.803 -5.493 -174.349 -6.668 -174.075 -7.611 C -174.943 -8.446 -175.679 -9.542 -176.193 -10.785 C -176.647 -11.92 -177.209 -13.124 -177.442 -14.413 C -177.677 -15.675 -177.663 -34.485 -177.743 -35.855 C -177.802 -37.242 -177.811 -38.63 -177.77 -40.018 C -177.763 -40.378 -177.736 -40.699 -177.729 -41.02 L -164.299 -41.02 C -164.319 -39.75 -164.38 -38.448 -164.38 -37.184 C -164.38 -35.655 -164.446 -34.177 -164.446 -32.855 C -164.446 -30.991 -164.64 -13.037 -164.64 -12.208 C -164.64 -10.417 -167.747 -6.989 -167.747 -6.989 C -166.852 -5.406 -164.787 -9.201 -161.82 -8.593 C -159.902 -8.199 -163.691 -6.254 -163.437 -5.005 C -163.271 -4.149 -161.152 -4.129 -159.876 -4.196 C -159.101 -6.368 -160.29 -6.622 -159.542 -8.807 C -159.034 -10.303 -158.012 -9.301 -156.836 -10.484 C -156.069 -11.244 -155.54 -12.209 -155.312 -13.263 C -155.099 -14.333 -155.052 -15.675 -154.972 -17.139 C -154.897 -18.348 -154.871 -19.665 -154.852 -21.014 C -154.838 -22.297 -154.951 -23.587 -154.972 -24.89 C -155.005 -26.226 -154.864 -27.536 -154.918 -28.779 C -154.965 -30.202 -155.226 -31.512 -155.285 -32.648 C -155.306 -32.986 -155.314 -33.325 -155.312 -33.664 L -155.325 -34.078 C -155.325 -34.746 -155.78 -38.554 -156.081 -41.027 L -141.734 -41.027 C -141.734 -40.959 -141.734 -40.893 -141.722 -40.839 C -141.688 -39.704 -141.788 -38.368 -141.708 -36.831 C -141.642 -35.627 -141.48 -34.292 -141.374 -32.855 C -141.28 -31.598 -141.066 -30.276 -140.927 -28.873 C -140.812 -27.61 -140.753 -26.266 -140.599 -24.89 C -140.452 -23.621 -140.405 -22.284 -140.225 -20.915 C -140.044 -19.625 -139.703 -18.335 -139.503 -16.986 C -139.316 -15.689 -139.016 -14.386 -138.788 -13.043 C -138.561 -11.747 -138.334 -10.437 -138.08 -9.114 C -137.833 -7.818 -137.812 -6.461 -137.532 -5.145 C -137.265 -3.862 -136.971 -2.546 -136.663 -1.243 C -136.35 .04 -135.728 1.276 -135.407 2.579 C -135.073 3.862 -135.02 5.225 -134.665 6.521 C -134.298 7.791 -133.71 9.027 -133.309 10.303 C -132.908 11.573 -132.567 12.855 -132.133 14.125 C -131.545 15.354 -131.011 16.678 -130.369 18.014 C -129.774 19.25 -129.026 20.466 -128.397 21.776 C -127.79 23.019 -127.376 24.402 -126.741 25.705 C -126.133 26.968 -125.505 28.244 -124.87 29.527 C -124.248 30.79 -123.307 31.919 -122.665 33.195 C -122.037 34.465 -121.696 35.868 -121.055 37.151 C -120.406 38.42 -119.611 39.623 -118.977 40.879 C -118.315 42.149 -117.841 43.512 -117.186 44.754 C -116.404 45.904 -115.482 46.959 -114.66 48.049 C -113.825 49.165 -112.909 50.207 -112.048 51.256 C -111.172 52.345 -110.264 53.394 -109.375 54.43 C -108.453 55.479 -107.65 56.608 -106.722 57.61 C -105.78 58.633 -104.65 59.468 -103.695 60.43 C -102.706 61.433 -101.864 62.542 -100.875 63.47 C -99.866 64.439 -98.864 65.388 -97.862 66.29 C -96.807 67.232 -95.697 68.047 -94.661 68.93 C -93.592 69.838 -92.477 70.673 -91.44 71.509 C -90.318 72.404 -89.189 73.199 -88.14 74.001 C -86.984 74.87 -85.955 75.785 -84.886 76.547 C -83.696 77.402 -82.5 78.097 -81.432 78.805 C -80.175 79.641 -79.14 80.576 -78.091 81.231 C -78.057 81.251 -77.99 81.157 -77.957 81.13 C -77.924 81.157 -76.794 81.973 -74.269 82.968 C -73.186 83.389 -71.81 83.616 -70.232 84.05 C -69.03 84.385 -67.74 85.013 -66.224 85.307 C -64.954 85.547 -63.558 85.581 -62.061 85.774 C -60.771 85.935 -59.521 86.042 -58.031 86.142 C -57.323 84.218 -58.059 84.151 -58.059 82.106 C -58.059 80.055 -57.965 80.042 -57.965 77.997 C -57.965 75.952 -57.852 75.959 -57.852 73.914 C -57.852 71.856 -57.918 71.856 -57.918 69.798 C -57.918 67.753 -57.718 67.747 -57.718 65.702 C -57.718 63.658 -58.031 63.658 -58.031 61.606 C -58.031 59.555 -57.885 59.555 -57.885 57.51 C -57.885 55.472 -57.771 55.472 -57.771 53.421 C -57.771 51.37 -57.938 51.37 -57.938 49.325 C -57.938 47.274 -57.798 47.274 -57.798 45.229 C -57.798 43.185 -58.031 43.178 -58.031 41.126 C -58.031 39.075 -57.744 39.088 -57.744 37.031 C -57.744 34.986 -57.885 34.993 -57.885 32.948 C -57.885 30.903 -57.751 30.896 -57.751 28.852 C -57.751 26.794 -58.005 26.801 -58.005 24.75 C -58.005 22.698 -57.798 22.705 -57.798 20.653 C -57.798 18.602 -57.885 18.589 -57.885 16.544 C -57.885 14.486 -57.938 14.493 -57.938 12.441 C -57.938 10.39 -57.965 10.39 -57.965 8.332 C -57.965 6.288 -58.032 6.294 -58.032 4.25 C -58.032 2.191 -57.731 2.191 -57.731 .14 C -57.731 -1.911 -57.852 -1.911 -57.852 -3.962 C -57.852 -6.021 -57.985 -6.014 -57.985 -8.072 C -57.985 -10.117 -57.965 -10.129 -57.965 -12.181 C -57.965 -14.233 -57.798 -14.239 -57.798 -16.291 C -57.798 -18.348 -57.965 -18.341 -57.965 -20.393 C -57.965 -22.445 -57.951 -22.431 -57.951 -24.489 C -57.951 -26.547 -58.019 -26.153 -58.019 -28.598 C -58.019 -29.801 -57.951 -31.205 -57.951 -32.694 C -57.951 -34.031 -57.845 -35.427 -57.845 -36.824 C -57.845 -38.22 -58.072 -39.617 -58.072 -40.947 L -58.072 -41.02 L -51.523 -41.02 L -51.523 -40.947 C -51.523 -38.902 -51.477 -38.902 -51.477 -36.843 C -51.477 -34.786 -51.751 -34.792 -51.751 -32.735 C -51.751 -30.676 -51.638 -30.683 -51.638 -28.638 C -51.638 -26.581 -51.584 -26.587 -51.584 -24.542 C -51.584 -22.471 -51.517 -22.471 -51.517 -20.426 C -51.517 -18.382 -51.831 -18.375 -51.831 -16.331 C -51.831 -14.279 -51.544 -14.279 -51.544 -12.235 C -51.544 -10.19 -51.637 -10.745 -51.637 -8.139 C -51.637 -6.976 -51.737 -5.586 -51.737 -4.022 C -51.737 -2.773 -51.817 -1.403 -51.817 .087 C -51.817 1.37 -51.684 2.746 -51.684 4.183 C -51.684 5.506 -51.49 6.875 -51.49 8.292 L -51.504 12.395 C -51.504 13.731 -51.805 15.094 -51.805 16.491 C -51.805 17.833 -51.777 19.204 -51.777 20.6 C -51.777 21.957 -51.805 23.326 -51.805 24.709 C -51.805 26.065 -51.65 27.429 -51.65 28.812 C -51.65 30.168 -51.704 31.545 -51.704 32.921 C -51.704 34.284 -51.777 35.661 -51.777 37.044 C -51.777 38.414 -51.624 39.783 -51.624 41.153 C -51.624 42.536 -51.704 43.893 -51.704 45.269 C -51.704 46.646 -51.737 48.016 -51.737 49.378 C -51.737 50.762 -51.47 52.145 -51.47 53.501 C -51.47 54.898 -51.544 56.274 -51.544 57.624 C -51.544 59.027 -51.57 60.39 -51.57 61.733 C -51.57 63.15 -51.751 64.54 -51.751 65.876 C -51.751 67.292 -51.677 68.662 -51.677 69.972 C -51.677 71.422 -51.744 72.798 -51.744 74.095 C -51.744 75.564 -51.517 76.941 -51.517 78.19 C -51.517 79.754 -51.65 81.137 -51.65 82.293 C -51.65 84.899 -51.677 85.781 -50.829 86.469 C -49.372 87.639 -47.822 86.202 -45.737 86.075 C -45.002 85.714 -43.739 85.167 -42.096 84.271 C -41.053 83.703 -39.877 83.001 -38.548 82.24 C -37.445 81.605 -36.209 80.99 -34.959 80.229 C -33.856 79.554 -32.741 78.772 -31.538 77.997 C -30.429 77.289 -29.199 76.647 -28.03 75.858 C -26.935 75.104 -25.926 74.142 -24.79 73.313 C -23.707 72.524 -22.538 71.83 -21.422 70.988 C -20.34 70.172 -19.311 69.25 -18.241 68.382 C -17.186 67.513 -16.184 66.578 -15.147 65.676 C -14.119 64.773 -13.057 63.905 -12.054 62.963 C -11.065 62.027 -10.029 61.119 -9.081 60.13 C -8.112 59.147 -7.043 58.266 -6.127 57.25 C -5.226 56.214 -4.544 54.991 -3.702 53.922 C -2.84 52.84 -1.984 51.764 -1.21 50.648 C -.775 50.027 -.141 49.398 .487 48.764 C .571 48.579 .667 48.4 .775 48.229 C 1.45 47.12 3.113 45.136 3.828 43.906 C 4.523 42.724 5.052 41.38 5.76 40.071 C 6.468 38.788 7.297 37.512 8.019 36.115 C 8.727 34.739 9.388 33.275 10.103 31.785 C 10.817 30.295 11.473 28.712 12.194 27.128 C 12.923 25.524 13.697 23.894 14.399 22.184 C 15.114 20.446 15.909 18.689 16.604 16.838 C 17.326 14.954 18.208 13.076 18.89 11.092 C 19.584 9.047 20.6 7.256 21.229 5.111 C 21.896 2.886 22.571 .608 23.159 -1.717 C 23.74 -4.056 24.676 -6.348 25.177 -8.787 L 25.177 -8.8 C 25.177 -10.651 25.063 -10.665 25.063 -12.536 C 25.063 -14.406 25.177 -14.413 25.177 -16.291 L 25.177 -18.068 C 24.041 -18.041 22.758 -18.068 22.11 -17.927 C 20.306 -17.546 19.104 -17.894 18.943 -18.369 C 18.782 -18.836 19.19 -19.778 19.838 -21.268 C 20.493 -22.758 20.493 -22.351 21.148 -23.834 C 21.803 -25.318 21.683 -25.371 22.337 -26.861 C 22.725 -27.756 24.335 -30.042 25.858 -32.207 C 25.879 -33.456 25.858 -34.779 25.765 -35.113 L 26.065 -39.89 L 25.765 -44.354 C 25.792 -44.775 25.765 -48.583 25.765 -49.432 C 25.765 -51.343 25.164 -53.167 25.164 -55.079 C 25.177 -56.99 26.354 -58.667 26.354 -58.667 C 26.354 -58.667 35.507 -59.254 35.908 -58.667 C 36.309 -58.065 39.783 -59.749 39.783 -57.764 C 39.783 -55.793 39.483 -56.174 39.483 -54.19 C 39.483 -52.206 39.183 -54.383 39.183 -52.406 C 39.183 -50.428 39.483 -52.004 39.483 -49.733 L 39.483 -43.752 C 39.483 -42.383 39.783 -36.917 39.783 -35.714 C 39.783 -33.443 40.939 -20.125 40.385 -19.451 C 39.897 -18.876 40.331 -18.122 40.331 -16.23 C 40.331 -14.313 40.445 -14.313 40.445 -12.421 C 40.445 -10.504 40.565 -10.51 40.565 -8.606 C 40.565 -6.702 40.425 -6.702 40.425 -4.811 C 40.425 -2.894 40.605 -2.9 40.605 -.982 C 40.605 .922 40.445 .929 40.445 2.853 C 40.445 4.757 40.044 5.379 40.946 6.167 C 41.548 6.702 42.376 6.608 44.327 6.608 C 46.265 6.608 46.258 6.635 48.189 6.635 C 50.141 6.635 50.141 6.501 52.078 6.501 C 54.016 6.501 53.682 6.562 55.967 6.562 C 57.136 6.562 58.466 6.702 59.869 6.702 C 61.146 6.702 62.475 6.648 63.758 6.648 C 65.141 6.648 66.484 6.702 67.646 6.702 L 71.429 6.702 C 71.429 6.702 72.13 8.813 71.796 10.37 C 71.368 12.268 69.591 11.62 67.646 11.62 C 65.709 11.62 66.116 11.479 63.771 11.479 L 59.896 11.466 C 58.659 11.466 57.356 11.386 56.021 11.386 C 54.718 11.386 53.401 11.633 52.118 11.633 C 50.769 11.633 49.445 11.413 48.216 11.413 C 46.779 11.413 45.463 11.593 44.327 11.593 C 41.976 11.593 40.993 11.326 40.619 12.341 C 39.897 14.199 40.592 13.544 40.592 15.535 C 40.592 17.533 40.291 17.54 40.291 19.531 C 40.291 21.516 40.492 21.509 40.492 23.5 L 40.498 27.489 C 40.498 29.487 40.298 29.494 40.298 31.485 C 40.298 33.476 40.472 33.476 40.472 35.467 C 40.472 37.472 40.538 36.97 40.538 39.456 C 40.538 40.605 40.619 41.948 40.619 43.452 C 40.619 44.688 40.318 46.024 40.318 47.448 L 40.318 51.423 C 40.318 52.72 40.592 54.056 40.592 55.419 L 40.605 59.415 C 40.605 60.738 40.405 62.081 40.405 63.404 C 40.405 64.753 40.345 66.09 40.345 67.413 C 40.345 68.776 40.525 70.112 40.525 71.409 C 40.525 72.792 40.425 74.122 40.425 75.397 C 40.425 76.821 40.592 78.17 40.592 79.407 C 40.592 80.91 40.318 82.253 40.318 83.389 C 40.318 85.875 38.628 86.536 40.485 87.251 C 42.336 87.953 42.402 87.238 44.388 87.238 C 46.372 87.238 46.379 87.305 48.356 87.305 C 50.334 87.305 50.334 87.485 52.325 87.485 C 54.316 87.485 54.31 87.338 56.294 87.338 C 58.285 87.338 58.299 87.251 60.271 87.251 C 62.274 87.251 62.274 87.298 64.252 87.298 C 66.243 87.298 66.243 87.445 68.222 87.445 C 70.206 87.445 70.199 87.211 72.19 87.211 C 74.182 87.211 74.182 87.472 76.166 87.472 C 78.15 87.472 78.157 87.432 80.148 87.432 C 82.14 87.432 82.133 87.285 84.117 87.285 C 86.108 87.285 86.108 87.552 88.093 87.552 C 90.078 87.552 90.091 87.218 92.075 87.218 C 94.061 87.218 93.553 87.298 96.045 87.298 C 97.174 87.298 98.517 87.325 100.027 87.325 C 101.25 87.325 102.586 87.552 104.003 87.552 C 105.272 87.552 106.596 87.238 107.972 87.238 L 111.954 87.238 C 113.264 87.238 114.594 87.539 115.93 87.539 C 117.253 87.539 118.576 87.432 119.912 87.432 L 123.908 87.432 C 125.258 87.432 126.587 87.271 127.896 87.271 C 129.26 87.271 130.583 87.392 131.879 87.392 C 133.27 87.392 134.605 87.445 135.875 87.445 C 137.292 87.445 138.642 87.485 139.864 87.485 C 141.381 87.485 142.724 87.552 143.859 87.552 C 146.339 87.552 146.68 87.899 146.525 87.365 C 145.944 85.454 146.499 85.387 146.499 83.396 C 146.499 81.405 146.419 81.405 146.419 79.407 C 146.419 77.416 146.72 77.422 146.72 75.424 C 146.72 73.44 146.612 73.426 146.612 71.429 C 146.612 69.431 146.6 69.438 146.6 67.453 C 146.6 65.455 146.733 65.448 146.733 63.457 C 146.733 61.473 146.433 61.954 146.433 59.461 C 146.433 58.326 146.473 56.976 146.473 55.473 C 146.473 54.243 146.706 52.913 146.706 51.49 C 146.706 50.214 146.405 48.884 146.405 47.494 C 146.405 46.205 146.459 44.875 146.459 43.505 C 146.459 42.202 146.593 40.866 146.593 39.523 L 146.579 35.514 C 146.579 34.177 146.459 32.841 146.459 31.525 C 146.459 30.162 146.76 28.825 146.76 27.529 C 146.76 26.146 146.553 24.803 146.553 23.52 C 146.553 22.104 146.64 20.767 146.64 19.531 C 146.64 18.027 146.572 16.671 146.572 15.535 C 146.572 13.049 146.612 11.439 146.612 11.439 C 146.612 11.439 145.851 11.453 143.873 11.453 C 141.902 11.453 141.902 11.62 139.917 11.62 C 137.933 11.62 137.939 11.593 135.955 11.593 C 133.984 11.593 133.984 11.713 132.013 11.713 C 130.021 11.713 130.021 11.413 128.044 11.413 C 126.066 11.413 126.066 11.533 124.075 11.533 C 122.084 11.533 120.173 11.493 120.173 11.493 C 120.173 11.493 119.378 7.25 120.1 6.648 C 120.808 6.054 122.084 6.635 124.062 6.635 C 126.032 6.635 126.039 6.769 128.018 6.769 C 129.995 6.769 129.995 6.495 131.973 6.495 C 133.95 6.495 133.957 6.795 135.929 6.795 C 137.906 6.795 137.906 6.521 139.891 6.521 C 141.875 6.521 141.882 6.722 143.859 6.722 C 145.838 6.722 145.904 6.769 146.292 6.268 C 146.666 5.767 146.433 4.757 146.433 2.853 C 146.433 .956 146.405 .956 146.405 -.956 L 146.405 -4.757 C 146.405 -6.662 146.68 -6.662 146.68 -8.566 C 146.68 -10.47 146.525 -10.477 146.525 -12.395 C 146.525 -14.299 146.6 -14.292 146.6 -16.204 C 146.6 -18.115 146.506 -19.792 146.433 -20.494 L 146.767 -24.108 C 146.767 -24.108 147.415 -33.836 147.448 -34.839 C 147.461 -35.541 147.722 -49.58 147.722 -51.637 L 147.695 -66.15 L 147.642 -98.917 L 147.602 -142.336 C 147.602 -144.387 147.842 -167.292 147.982 -167.981 C 148.123 -168.663 151.965 -167.861 153.528 -167.861 C 155.092 -167.861 156.509 -168.596 156.789 -167.967 C 157.083 -167.313 156.568 -144.601 156.568 -142.557 C 156.568 -140.512 156.749 -101.183 156.749 -99.138 C 156.749 -97.087 156.568 -68.435 156.568 -66.384 C 156.568 -64.339 156.716 -53.916 156.716 -51.871 C 156.716 -49.813 156.342 -36.77 156.516 -34.732 C 156.521 -34.666 156.582 -32.307 156.622 -29.4 L 157.05 -28.431 C 157.852 -26.621 157.705 -26.541 158.5 -24.723 C 159.295 -22.906 159.302 -23.419 160.09 -21.595 C 160.892 -19.778 161.399 -18.629 161.199 -18.041 C 160.999 -17.473 159.516 -17.025 157.311 -17.493 C 155.507 -17.894 154.651 -17.894 154.023 -17.941 L 154.104 -15.969 C 154.104 -13.945 154.196 -13.958 154.196 -11.934 C 154.196 -9.909 154.184 -9.909 154.184 -7.891 L 154.196 -3.829 C 154.196 -1.804 154.09 -1.817 154.09 .214 C 154.09 2.245 154.104 2.245 154.104 4.276 C 154.104 6.308 153.996 6.301 153.996 8.332 C 153.996 10.35 154.13 10.35 154.13 12.375 C 154.13 14.399 154.036 14.406 154.036 16.437 C 154.036 18.455 153.923 18.455 153.923 20.48 C 153.923 22.504 153.896 22.518 153.896 24.556 C 153.896 26.574 154.184 26.567 154.184 28.598 C 154.184 30.629 153.996 30.629 153.996 32.661 C 153.996 34.692 153.896 34.686 153.896 36.717 C 153.896 38.748 153.996 38.748 153.996 40.772 C 153.996 42.797 154.21 42.817 154.21 44.848 C 154.21 46.879 153.97 46.873 153.97 48.904 L 153.97 52.967 C 153.97 54.991 154.104 54.991 154.104 57.022 C 154.104 59.054 154.156 59.054 154.156 61.099 C 154.156 63.123 154.116 63.123 154.116 65.154 C 154.116 67.186 154.224 67.186 154.224 69.21 C 154.224 71.235 153.909 71.242 153.909 73.273 C 153.909 75.304 154.21 75.304 154.21 77.349 C 154.21 79.374 154.184 79.36 154.184 81.398 C 154.184 83.082 153.983 83.402 153.916 84.585 C 154.003 84.786 154.097 84.973 154.217 85.267 C 154.871 86.75 154.751 86.804 155.406 88.293 C 156.061 89.777 156.074 89.356 156.709 90.853 C 157.377 92.336 157.778 93.285 157.611 93.759 C 157.451 94.227 156.234 94.588 154.444 94.2 C 152.546 93.799 151.905 93.913 151.351 93.799 L 151.351 93.772 C 150.388 93.712 149.493 93.659 148.958 94.1 C 147.428 95.376 148.217 95.624 148.217 97.622 C 148.217 99.619 148.297 99.626 148.297 101.617 C 148.297 103.608 148.337 103.067 148.337 105.6 C 148.337 106.722 148.57 108.059 148.57 109.588 C 148.57 110.812 148.297 112.147 148.297 113.584 C 148.297 114.847 148.229 116.184 148.229 117.58 C 148.229 118.863 148.464 120.192 148.464 121.569 L 148.478 125.551 C 148.478 126.854 148.518 128.197 148.518 129.561 C 148.518 130.863 148.41 132.2 148.41 133.549 C 148.41 134.873 148.276 136.216 148.276 137.559 C 148.276 138.875 148.363 140.211 148.363 141.534 C 148.363 142.884 148.391 144.22 148.391 145.557 C 148.391 146.893 148.351 148.223 148.351 149.553 C 148.351 150.896 148.483 152.225 148.483 153.562 C 148.483 154.911 148.257 156.254 148.257 157.571 C 148.257 158.94 148.351 160.27 148.351 161.58 C 148.351 162.95 148.403 164.279 148.403 165.576 C 148.403 166.965 148.311 168.315 148.311 169.598 C 148.311 170.988 148.45 172.331 148.45 173.587 C 148.45 174.489 148.403 175.344 148.363 176.16 C 148.443 176.367 148.544 176.581 148.678 176.895 C 149.326 178.378 149.212 178.431 149.86 179.921 C 150.509 181.405 150.515 180.99 151.17 182.474 C 151.818 183.964 152.226 184.913 152.065 185.387 C 151.898 185.855 150.702 186.216 148.898 185.828 C 148.379 185.718 147.855 185.631 147.328 185.567 C 146.415 185.577 145.502 185.581 144.588 185.581 C 142.704 185.581 142.864 185.153 141.395 185.414 C 140.9 185.507 140.84 187.178 140.887 189.563 C 140.913 190.739 141.101 192.103 141.12 193.559 C 141.134 194.849 141.054 196.218 141.054 197.575 C 141.054 198.938 140.967 200.294 140.96 201.584 C 140.953 203.047 140.767 204.424 140.727 205.6 C 140.652 207.805 140.426 209.488 140.426 209.488 L 139.932 209.635 L 140.56 209.649 C 140.56 209.649 138.662 210.27 137.151 210.264 C 135.381 210.25 133.704 210.718 133.704 210.718 L 133.704 211.099 C 133.64 212.542 133.515 213.982 133.329 215.415 C 132.899 218.83 132.193 222.204 131.218 225.505 C 130.771 227.142 130.149 228.712 129.595 230.282 C 129.026 231.859 128.372 233.356 127.703 234.859 C 127.035 236.363 126.36 237.866 125.599 239.283 C 124.823 240.706 124.102 242.169 123.24 243.492 C 122.373 244.788 121.45 246.045 120.474 247.261 C 119.525 248.49 119.044 249.225 118.021 250.328 C 116.999 251.43 115.389 252.833 114.279 253.809 C 113.19 254.791 112.128 255.827 110.959 256.682 C 109.803 257.524 108.533 258.059 107.317 258.767 C 106.112 259.454 104.869 260.074 103.596 260.625 C 101.958 261.353 99.6 261.76 97.582 261.994 C 97.615 262.241 97.636 262.529 97.636 262.91 C 97.636 264.486 97.688 264.486 97.688 266.063 C 97.688 267.64 97.756 267.647 97.756 269.237 C 97.756 270.828 97.803 270.821 97.803 272.411 C 97.803 273.988 98.15 274.108 97.448 275.525 C 97.067 276.307 95.438 276.086 94.241 276.414 C 92.931 276.685 91.597 276.826 90.259 276.834 L 90.259 296.512 C 89.871 296.439 89.497 296.339 89.096 296.305 L 88.976 300.301 C 89.443 300.354 89.845 300.555 90.285 300.695 L 90.285 305.613 L 95.097 305.613 C 95.27 306.228 95.45 306.836 95.45 307.504 C 95.45 308.172 95.27 308.793 95.097 309.408 L 90.285 309.408 L 90.285 314.346 C 89.892 314.466 89.537 314.654 89.123 314.707 L 89.236 318.716 C 89.604 318.689 89.958 318.636 90.285 318.569 L 90.285 324.509 L 90.419 324.509 C 91.241 324.509 91.916 325.177 91.916 326.013 C 91.916 326.848 91.241 327.496 90.412 327.496 L 90.278 327.496 L 90.278 328.672 C 90.286 329.768 89.403 330.663 88.308 330.67 L 88.294 330.67 Z " fill="#0074c8"/>
</g>
</g>
</g>
</svg>
