<?xml version="1.0" encoding="UTF-8" standalone="no"?>
<svg
   xmlns:dc="http://purl.org/dc/elements/1.1/"
   xmlns:cc="http://creativecommons.org/ns#"
   xmlns:rdf="http://www.w3.org/1999/02/22-rdf-syntax-ns#"
   xmlns:svg="http://www.w3.org/2000/svg"
   xmlns="http://www.w3.org/2000/svg"
   xmlns:sodipodi="http://sodipodi.sourceforge.net/DTD/sodipodi-0.dtd"
   xmlns:inkscape="http://www.inkscape.org/namespaces/inkscape"
   version="1.1"
   id="svg2"
   xml:space="preserve"
   width="697.01331"
   height="142.86667"
   viewBox="0 0 697.01331 142.86667"
   sodipodi:docname="2021 UC Santa Cruz Logo - Blue RGB.eps"><metadata
     id="metadata8"><rdf:RDF><cc:Work
         rdf:about=""><dc:format>image/svg+xml</dc:format><dc:type
           rdf:resource="http://purl.org/dc/dcmitype/StillImage" /></cc:Work></rdf:RDF></metadata><defs
     id="defs6" /><sodipodi:namedview
     pagecolor="#ffffff"
     bordercolor="#666666"
     borderopacity="1"
     objecttolerance="10"
     gridtolerance="10"
     guidetolerance="10"
     inkscape:pageopacity="0"
     inkscape:pageshadow="2"
     inkscape:window-width="640"
     inkscape:window-height="480"
     id="namedview4" /><g
     id="g10"
     inkscape:groupmode="layer"
     inkscape:label="ink_ext_XXXXXX"
     transform="matrix(1.3333333,0,0,-1.3333333,0,142.86667)"><g
       id="g12"
       transform="scale(0.1)"><path
         d="m 225.09,83.7344 c 0,-12.086 -5.297,-22.3828 -16.195,-31.4727 -11.106,-9.25 -27.141,-13.9297 -47.665,-13.9297 -22.214,0 -39.109,4.4961 -50.218,13.3868 -10.832,8.6718 -16.1018,18.7421 -16.1018,30.789 V 1062.92 H 0 V 109.566 C 0,94.8398 2.85156,80.582 8.47656,67.1797 14.207,53.5195 23.7695,41.5508 36.9297,31.6094 49.8008,21.9102 66.6406,14.1094 86.9883,8.42969 107.18,2.83984 132.16,0 161.23,0 c 29.856,0 55.211,2.62891 75.364,7.82813 20.453,5.29297 36.972,12.93357 49.101,22.71097 12.278,9.9101 21.184,21.6406 26.477,34.8906 0,0 0,0 0.004,0 0,0 0,0 0,0.0117 5.187,12.9609 7.828,26.9883 7.828,41.6636 V 1062.92 H 225.09 V 83.7344"
         style="fill:#213b6a;fill-opacity:1;fill-rule:nonzero;stroke:none"
         id="path14" /><path
         d="m 684.492,82.5078 c 0,-12.0859 -4.804,-21.9883 -14.683,-30.2578 -10.153,-8.4609 -27.192,-13.1484 -50.426,-13.918 -20.25,0 -36.66,4.7383 -48.785,14.0977 -11.789,9.0898 -17.516,19.3516 -17.516,31.3672 V 971.727 c 0,7.8 0.785,15.671 2.34,23.398 1.445,7.255 4.449,13.615 9.183,19.445 4.583,5.65 11.34,10.19 20.094,13.47 9.121,3.42 21.211,5.16 35.934,5.16 16.215,0 29,-2.09 37.98,-6.2 8.817,-4.04 15.242,-8.75 19.09,-14 3.887,-5.32 6.406,-11.62 7.477,-18.754 1.175,-7.844 1.769,-15.402 1.769,-22.441 V 735.543 h 94.914 V 938.59 c 0,15.781 -1.261,31.633 -3.75,47.121 -2.625,16.279 -9.691,31.019 -21.015,43.829 -11.211,12.67 -27.676,22.99 -48.942,30.64 -20.957,7.53 -50,11.35 -86.312,11.35 -37.106,0 -66.914,-3.63 -88.594,-10.79 -22.168,-7.31 -38.922,-17.46 -49.785,-30.19 -10.852,-12.69 -17.891,-27.55 -20.922,-44.195 -2.902,-15.917 -4.371,-32.042 -4.371,-47.921 V 108.453 c 0,-30.5741 12.777,-56.4413 37.98,-76.8827 C 521.266,11.1914 562.762,0.859375 623.094,0 c 29.07,0 54.051,2.83984 74.246,8.44141 20.34,5.66799 37.18,13.45699 50.062,23.16799 13.114,9.9101 22.684,21.8789 28.434,35.5625 l 0.008,0.0078 c 5.625,13.4531 8.48,27.7109 8.48,42.3863 V 354.441 H 684.492 V 82.5078"
         style="fill:#213b6a;fill-opacity:1;fill-rule:nonzero;stroke:none"
         id="path16" /><path
         d="m 1487.09,395.359 c -2.52,9.161 -5.49,18.426 -8.83,27.547 -3.35,9.141 -7.55,19.59 -12.44,30.977 -9.15,22.336 -20.14,43.574 -32.67,63.117 -12.39,19.266 -23.1,35.887 -32.18,49.852 l -77.91,119.328 c -12.17,18.543 -22.04,35.293 -29.33,49.804 -7.19,14.305 -13.26,31.649 -18.11,51.766 -6.43,23.145 -9.9,43.523 -10.28,60.574 -0.42,17.129 -0.62,37.406 -0.62,61.977 v 61.504 c 0,7.058 0.61,14.609 1.8,22.441 1.06,7.034 3.75,13.274 7.99,18.534 4.31,5.34 11.04,10.13 20.02,14.21 9.08,4.12 21.99,6.21 38.38,6.21 14.85,0 26.81,-1.72 35.55,-5.11 8.37,-3.26 14.76,-7.74 18.98,-13.31 4.38,-5.81 7.34,-12.41 8.8,-19.608 1.56,-7.774 2.35,-15.633 2.35,-23.367 V 737.992 h 94.91 v 199.367 c 0,15.782 -1.26,31.836 -3.75,47.715 -2.64,16.716 -9.74,31.676 -21.1,44.476 -11.28,12.69 -28.03,23 -49.79,30.65 -21.44,7.52 -51.19,11.33 -88.43,11.33 -36.44,0 -65.57,-3.63 -86.57,-10.79 -21.36,-7.31 -37.91,-17.41 -49.18,-30.05 -11.39,-12.73 -18.5,-27.46 -21.12,-43.749 -2.48,-15.363 -3.75,-31.211 -3.75,-47.121 v -50.429 c 0,-22.11 0.41,-41.465 1.22,-57.508 0.83,-16.32 4.18,-35.988 9.98,-58.449 5.73,-22.254 11.78,-41.543 17.97,-57.305 6.25,-15.957 16.56,-34.57 30.56,-55.234 l 80.78,-124.286 c 8.18,-12.336 15.53,-23.254 22.08,-32.687 6.35,-9.18 12.46,-18.594 18.14,-27.969 5.53,-9.148 10.55,-18.84 14.92,-28.789 4.39,-10.051 8.65,-21.25 12.6,-33.105 4.86,-16.368 9.4,-30.911 13.49,-43.235 3.86,-11.648 5.81,-25.886 5.81,-42.312 V 100.965 c 0,-7.0548 -0.6,-14.6095 -1.77,-22.4533 -1.08,-7.1797 -3.64,-13.75 -7.58,-19.5234 -3.87,-5.6094 -10.08,-10.5 -18.45,-14.5 -8.57,-4.0899 -20.7,-6.1563 -36.06,-6.1563 -15.45,0 -27.64,1.8868 -36.25,5.6289 -8.55,3.7188 -15.47,8.5586 -20.54,14.3672 -5.06,5.793 -8.22,12.0938 -9.65,19.2774 -1.55,7.6836 -2.34,15.5429 -2.34,23.3595 V 358.23 l -94.91,-1.417 V 134.168 c 0,-15.93 1.49,-31.848 4.42,-47.2852 3.04,-16.1445 10.11,-30.9922 21,-44.1211 10.94,-13.2031 27.81,-23.7812 50.15,-31.4531 C 1267.28,3.80078 1297.35,0 1334.73,0 c 36.63,0 65.9,3.83984 86.99,11.4414 21.41,7.7188 37.81,18.0469 48.75,30.6992 10.95,12.7305 17.85,27.1992 20.49,43.0313 2.5,15.0271 3.77,30.6911 3.77,46.5351 v 198.035 c 0,13.184 -0.64,25.227 -1.91,35.789 -1.25,10.395 -3.17,20.422 -5.73,29.828"
         style="fill:#213b6a;fill-opacity:1;fill-rule:nonzero;stroke:none"
         id="path18" /><path
         d="M 1853.16,971.609 V 596.742 h -133.87 v 374.867 c 0,7.832 0.79,15.723 2.33,23.457 1.44,7.194 4.52,13.754 9.19,19.484 4.58,5.65 11.34,10.19 20.1,13.49 9.12,3.42 21.21,5.16 35.93,5.16 16.22,0 29,-2.09 37.98,-6.21 8.81,-4.06 15.23,-8.79 19.08,-14.05 3.89,-5.35 6.41,-11.68 7.48,-18.831 1.18,-7.882 1.78,-15.449 1.78,-22.5 z m 71.26,58.281 c -10.52,12.29 -26.71,22.43 -48.13,30.16 -21.11,7.61 -50.38,11.48 -86.99,11.48 -37.41,0 -67.45,-3.63 -89.28,-10.81 -22.34,-7.33 -39.21,-17.48 -50.15,-30.2 -10.93,-12.71 -18.03,-27.6 -21.08,-44.254 -2.93,-15.84 -4.41,-31.993 -4.41,-47.989 V 7.37891 h 94.91 V 542.43 h 133.87 V 7.37891 h 94.91 V 939.508 c 0,15.871 -1.27,31.765 -3.77,47.238 -2.64,16.294 -9.33,30.804 -19.88,43.144"
         style="fill:#213b6a;fill-opacity:1;fill-rule:nonzero;stroke:none"
         id="path20" /><path
         d="m 2317.49,479.469 -141.35,585.911 h -84.97 V 7.37891 h 94.91 V 724.969 L 2316.26,212.105 V 7.37891 h 96.14 V 1065.38 h -94.91 V 479.469"
         style="fill:#213b6a;fill-opacity:1;fill-rule:nonzero;stroke:none"
         id="path22" /><path
         d="m 2480.93,1013.52 h 118.09 V 7.37891 h 94.91 V 1013.52 h 123 v 50.63 h -336 v -50.63"
         style="fill:#213b6a;fill-opacity:1;fill-rule:nonzero;stroke:none"
         id="path24" /><path
         d="M 3123.2,971.609 V 596.742 h -133.87 v 374.867 c 0,7.86 0.79,15.75 2.35,23.457 1.42,7.194 4.51,13.734 9.17,19.484 4.58,5.64 11.33,10.18 20.09,13.49 9.13,3.42 21.22,5.16 35.94,5.16 16.23,0 29.01,-2.09 37.97,-6.21 8.82,-4.06 15.24,-8.79 19.1,-14.05 3.89,-5.35 6.41,-11.68 7.47,-18.831 1.18,-7.882 1.78,-15.449 1.78,-22.5 z m 71.27,58.291 c -10.53,12.28 -26.72,22.41 -48.14,30.15 -21.11,7.61 -50.38,11.48 -86.99,11.48 -37.4,0 -67.44,-3.63 -89.27,-10.81 -22.35,-7.33 -39.21,-17.48 -50.15,-30.2 -10.94,-12.71 -18.04,-27.6 -21.09,-44.254 -2.92,-15.868 -4.41,-32.024 -4.41,-47.989 V 7.37891 h 94.91 V 542.43 H 3123.2 V 7.37891 h 94.91 V 939.508 c 0,15.871 -1.27,31.765 -3.77,47.238 -2.63,16.274 -9.31,30.794 -19.87,43.154"
         style="fill:#213b6a;fill-opacity:1;fill-rule:nonzero;stroke:none"
         id="path26" /><path
         d="m 3813.76,82.5078 c 0,-12.0859 -4.81,-21.9961 -14.68,-30.2461 -10.16,-8.4726 -27.2,-13.1601 -50.43,-13.9297 -20.24,0 -36.66,4.7383 -48.78,14.0977 -11.79,9.0898 -17.52,19.3516 -17.52,31.3672 V 971.727 c 0,7.781 0.79,15.644 2.34,23.398 1.45,7.265 4.45,13.625 9.17,19.445 4.59,5.66 11.36,10.19 20.11,13.47 9.12,3.42 21.2,5.16 35.93,5.16 16.22,0 28.99,-2.09 37.98,-6.2 8.82,-4.04 15.24,-8.75 19.09,-13.98 3.89,-5.33 6.4,-11.64 7.47,-18.774 1.18,-7.871 1.78,-15.422 1.78,-22.441 V 735.543 h 94.91 V 938.59 c 0,15.781 -1.26,31.633 -3.75,47.121 -2.62,16.269 -9.69,31.019 -21.02,43.829 -11.21,12.67 -27.67,22.99 -48.94,30.64 -20.95,7.53 -49.99,11.35 -86.31,11.35 -37.1,0 -66.91,-3.63 -88.59,-10.79 -22.17,-7.31 -38.92,-17.46 -49.78,-30.19 -10.87,-12.7 -17.91,-27.57 -20.94,-44.195 -2.89,-15.917 -4.36,-32.042 -4.36,-47.921 V 108.453 c 0,-30.5741 12.78,-56.4413 37.99,-76.8827 25.1,-20.3789 66.6,-30.710925 126.93,-31.5703 29.07,0 54.05,2.83984 74.25,8.44141 20.34,5.67969 37.19,13.46879 50.06,23.16799 13.11,9.9101 22.68,21.8711 28.43,35.5625 v 0.0078 c 5.64,13.4609 8.49,27.7187 8.49,42.3863 v 244.875 h -99.83 V 82.5078"
         style="fill:#213b6a;fill-opacity:1;fill-rule:nonzero;stroke:none"
         id="path28" /><path
         d="M 4264.58,958.27 V 679.059 c 0,-13.368 -1.6,-26.954 -4.76,-40.391 -2.99,-12.727 -6.98,-21.648 -11.62,-26.301 -7.55,-6.785 -19.01,-12.762 -34.09,-17.781 -15.22,-5.098 -31.31,-7.676 -47.83,-7.676 h -33.11 v 435.22 h 44.18 c 22.92,0 43.31,-3.19 60.85,-9.56 11.26,-3.52 18.19,-9.3 21.21,-17.672 3.43,-9.531 5.17,-21.855 5.17,-36.628 z m 90.48,-466.79 c -3.08,15.333 -12.03,31.805 -26.55,48.918 -4.52,5.399 -10.4,10.379 -17.48,14.793 -6.76,4.207 -13.4,7.84 -19.74,10.813 -3.1,1.426 -6.01,2.715 -8.73,3.863 4.49,2.031 9.32,4.34 14.42,6.887 7.6,3.777 15.04,8.008 22.12,12.59 7.44,4.773 13.49,9.922 17.64,14.883 9.8,9.761 15.93,18.562 18.74,26.929 2.66,7.953 4.01,17.27 4.01,27.707 v 269.27 c 0,20.535 -1.26,39.773 -3.73,57.187 -2.74,18.97 -15.67,35.71 -38.52,49.77 -12.76,7.64 -27,13.25 -42.29,16.66 -14.79,3.28 -29.27,5.57 -43.05,6.83 -13.62,1.25 -25.56,1.88 -35.47,1.88 H 4038.26 V 6.14844 h 94.91 V 544.891 h 30.34 c 14.12,0 26.81,-1.196 37.7,-3.555 10.78,-2.324 22.59,-6.699 34.82,-12.844 11.56,-6.582 18.76,-15.969 22.01,-28.711 3.52,-13.84 5.31,-28.008 5.31,-42.121 V 6.14844 h 97.39 l -1.25,434.28956 c 0,19.128 -1.5,36.296 -4.43,51.042"
         style="fill:#213b6a;fill-opacity:1;fill-rule:nonzero;stroke:none"
         id="path30" /><path
         d="m 4713.85,83.7344 c 0,-12.0781 -5.3,-22.3828 -16.19,-31.4727 -11.11,-9.25 -27.15,-13.9297 -47.66,-13.9297 -22.22,0 -39.11,4.4961 -50.22,13.3868 -10.84,8.6718 -16.1,18.7421 -16.1,30.789 V 1062.92 h -94.91 V 109.566 c 0,-14.734 2.85,-29.0035 8.48,-42.3863 5.73,-13.668 15.3,-25.6289 28.45,-35.5703 12.87,-9.711 29.71,-17.5 50.06,-23.17971 C 4595.94,2.83984 4620.92,0 4650,0 c 29.86,0 55.21,2.62891 75.36,7.82813 20.45,5.29297 36.96,12.93357 49.1,22.71097 12.27,9.9101 21.17,21.6328 26.47,34.8906 5.2,12.9726 7.84,27 7.84,41.6753 v 955.815 h -94.92 V 83.7344"
         style="fill:#213b6a;fill-opacity:1;fill-rule:nonzero;stroke:none"
         id="path32" /><path
         d="M 5023.48,61.6992 5217.83,1067.84 h -294.26 v -54.32 H 5100.6 L 4907.49,7.37891 h 320.09 V 61.6992 h -204.1"
         style="fill:#213b6a;fill-opacity:1;fill-rule:nonzero;stroke:none"
         id="path34" /></g></g></svg>
