<?xml version="1.0" encoding="UTF-8"?>
<svg xmlns="http://www.w3.org/2000/svg" xmlns:xlink="http://www.w3.org/1999/xlink" width="350pt" height="154pt" viewBox="0 0 350 154" version="1.1">
<g id="surface1">
<path style=" stroke:none;fill-rule:nonzero;fill:rgb(70.196078%,63.921569%,41.176471%);fill-opacity:1;" d="M 31.644531 25.265625 C 13.683594 25.265625 2.046875 36.257812 2.046875 50.050781 C 2.046875 63.832031 13.683594 74.820312 31.644531 74.820312 C 37.132812 74.820312 44.117188 73.222656 48.1875 68.628906 L 49.101562 73.820312 L 59.082031 73.820312 L 59.082031 47.777344 L 34.136719 47.777344 L 34.136719 56.96875 L 44.945312 56.96875 C 44.117188 61.296875 38.964844 64.164062 31.3125 64.164062 C 21.335938 64.164062 17.511719 57.105469 17.511719 50.050781 C 17.511719 42.988281 21.335938 35.925781 31.3125 35.925781 C 37.546875 35.925781 42.535156 38.390625 43.035156 42.457031 L 58.5 42.457031 C 57.085938 30.53125 43.949219 25.265625 31.644531 25.265625 Z M 238.636719 26.273438 L 238.636719 34.925781 L 252.769531 34.925781 L 252.769531 26.273438 Z M 85.429688 38.257812 C 72.707031 38.257812 62.148438 45.851562 62.148438 56.4375 C 62.148438 68.03125 71.710938 74.820312 85.765625 74.820312 C 95.410156 74.820312 104.632812 71.363281 107.214844 63.367188 L 93.992188 63.367188 C 92.664062 65.894531 89.335938 67.160156 85.925781 67.160156 C 79.941406 67.160156 76.53125 64.03125 76.28125 59.296875 L 107.960938 59.296875 C 108.625 47.578125 100.894531 38.257812 85.429688 38.257812 Z M 132.867188 38.257812 C 119.480469 38.257812 110.167969 46.183594 110.167969 56.570312 C 110.167969 66.957031 119.480469 74.820312 132.867188 74.820312 C 146.253906 74.820312 155.644531 66.957031 155.644531 56.570312 C 155.644531 46.183594 146.253906 38.257812 132.867188 38.257812 Z M 207.976562 38.257812 C 195.75 38.257812 189.019531 45.984375 189.019531 55.175781 C 189.019531 64.894531 194.917969 72.355469 207.976562 72.355469 C 212.546875 72.355469 216.867188 70.496094 219.445312 67.296875 L 219.617188 67.296875 L 219.617188 70.558594 C 219.617188 74.824219 218.945312 78.621094 212.214844 78.621094 C 210.058594 78.621094 208.308594 78.414062 207.058594 77.882812 C 205.730469 77.351562 204.980469 76.417969 204.648438 74.886719 L 190.515625 74.886719 C 192.175781 84.144531 201.652344 85.941406 211.714844 85.941406 C 231.925781 85.941406 233.242188 75.28125 233.242188 69.625 L 233.242188 39.257812 L 219.695312 39.257812 L 219.695312 43.585938 L 219.53125 43.585938 C 217.039062 40.054688 213.128906 38.257812 207.976562 38.257812 Z M 277.382812 38.257812 C 272.476562 38.257812 267.484375 38.921875 263.671875 40.652344 C 259.835938 42.449219 257.183594 45.382812 256.9375 49.914062 L 270.160156 49.914062 C 270.804688 46.984375 273.324219 45.582031 277.226562 45.582031 C 280.125 45.582031 284.046875 46.582031 284.046875 49.175781 C 284.046875 51.308594 282.710938 51.976562 280.300781 52.378906 C 270.492188 53.976562 255.199219 53.105469 255.199219 64.363281 C 255.199219 71.488281 261.664062 74.820312 269.914062 74.820312 C 275.0625 74.820312 280.480469 73.621094 284.136719 70.558594 C 284.292969 71.695312 284.449219 72.753906 284.960938 73.820312 L 299.183594 73.820312 C 297.511719 71.089844 297.511719 67.890625 297.511719 64.964844 L 297.511719 49.847656 C 297.511719 40.058594 287.613281 38.257812 277.382812 38.257812 Z M 184.847656 38.589844 C 178.777344 38.589844 173.957031 40.921875 171.878906 45.320312 L 171.707031 45.320312 L 171.707031 39.257812 L 157.992188 39.257812 L 157.992188 73.820312 L 172.132812 73.820312 L 172.132812 56.703125 C 172.132812 52.382812 175.785156 48.507812 182.765625 48.507812 C 184.679688 48.507812 186.34375 48.777344 188.175781 49.175781 L 188.175781 38.855469 C 187.09375 38.652344 185.929688 38.589844 184.847656 38.589844 Z M 238.636719 39.257812 L 238.636719 73.820312 L 252.769531 73.820312 L 252.769531 39.257812 Z M 85.429688 45.917969 C 90.167969 45.917969 93.578125 49.109375 93.828125 52.972656 L 76.28125 52.972656 C 77.109375 48.773438 80.441406 45.917969 85.429688 45.917969 Z M 132.867188 46.917969 C 139.433594 46.917969 141.511719 52.175781 141.511719 56.570312 C 141.511719 60.964844 139.433594 66.160156 132.867188 66.160156 C 126.296875 66.160156 124.300781 60.964844 124.300781 56.570312 C 124.300781 52.175781 126.296875 46.917969 132.867188 46.917969 Z M 211.382812 46.917969 C 217.703125 46.917969 219.863281 51.25 219.863281 55.644531 C 219.863281 59.96875 217.289062 63.699219 211.300781 63.699219 C 205.480469 63.699219 203.152344 59.632812 203.152344 55.570312 C 203.152344 51.308594 205.148438 46.917969 211.382812 46.917969 Z M 283.867188 57.636719 C 284.203125 64.765625 281.953125 67.828125 275.21875 67.828125 C 272.054688 67.828125 269.3125 66.691406 269.3125 63.898438 C 269.3125 61.167969 271.988281 60.101562 275.152344 59.5 C 278.230469 58.835938 281.882812 58.636719 283.867188 57.636719 Z M 119.894531 82.457031 L 119.894531 93.113281 L 137.605469 93.113281 L 137.605469 130.011719 L 153.066406 130.011719 L 153.066406 93.113281 L 170.78125 93.113281 L 170.78125 82.457031 Z M 254.464844 82.457031 L 254.464844 130.011719 L 268.597656 130.011719 L 268.597656 111.164062 C 268.597656 107.371094 270.917969 103.769531 276.246094 103.769531 C 283.980469 103.769531 283.3125 108.566406 283.3125 113.296875 L 283.3125 130.011719 L 297.445312 130.011719 L 297.445312 107.832031 C 297.445312 102.835938 296.285156 94.445312 281.90625 94.445312 C 276.757812 94.445312 270.917969 96.644531 268.753906 100.179688 L 268.597656 100.179688 L 268.597656 82.457031 Z M 181.585938 94.445312 C 168.867188 94.445312 158.304688 102.039062 158.304688 112.628906 C 158.304688 124.214844 167.867188 131.015625 181.917969 131.015625 C 191.558594 131.015625 200.789062 127.550781 203.367188 119.554688 L 190.152344 119.554688 C 188.816406 122.085938 185.492188 123.351562 182.082031 123.351562 C 176.09375 123.351562 172.6875 120.222656 172.4375 115.492188 L 204.117188 115.492188 C 204.78125 103.769531 197.050781 94.445312 181.585938 94.445312 Z M 229.875 94.445312 C 215.980469 94.445312 207.25 102.304688 207.25 113.296875 C 207.25 123.886719 216.898438 131.015625 229.875 131.015625 C 241.335938 131.015625 250.316406 125.683594 251.566406 116.425781 L 237.855469 116.425781 C 237.1875 120.085938 234.691406 122.351562 229.785156 122.351562 C 223.789062 122.351562 221.386719 117.753906 221.386719 113.296875 C 221.386719 108.5 222.636719 103.101562 230.523438 103.101562 C 234.113281 103.101562 237.34375 105.167969 237.433594 108.101562 L 251.144531 108.101562 C 250.164062 98.976562 240.597656 94.445312 229.875 94.445312 Z M 181.585938 102.105469 C 186.328125 102.105469 189.730469 105.300781 189.984375 109.167969 L 172.4375 109.167969 C 173.269531 104.964844 176.597656 102.105469 181.585938 102.105469 Z M 181.585938 102.105469 "/>
<path style="fill:none;stroke-width:0.796;stroke-linecap:butt;stroke-linejoin:miter;stroke:rgb(70.196078%,63.921569%,41.176471%);stroke-opacity:1;stroke-miterlimit:4;" d="M 294.489315 338.730381 L 283.985558 338.730381 L 283.985558 340.736847 L 294.489315 340.736847 Z M 291.863726 352.806449 L 289.236736 392.210479 L 286.611147 352.806449 M 294.490717 362.452329 L 289.236736 342.753115 L 294.490717 342.753115 Z M 283.98696 362.452329 L 289.236736 342.753115 L 283.98696 342.753115 Z M 283.98696 362.452329 " transform="matrix(2.786577,0,0,-2.789808,-474.921962,1096.262335)"/>
</g>
</svg>
