<svg xmlns="http://www.w3.org/2000/svg" viewBox="0 0 151 44.36">
  <defs>
    <style>
      .a {
        fill: #707172;
      }

      .b {
        fill: #9cbdd5;
      }
    </style>
  </defs>
  <title>Risorsa 2</title>
  <g>
    <path class="a" d="M22.22,42.4h.36l0,2h-.36l0-2Zm-1,1.94.08-2h.37l-.08,2-.37,0Zm2-2,.36,0,.12,2-.37,0-.11-2Zm-3,1.89.16-2,.37,0-.16,2-.37,0Zm3.93-2,.37,0,.19,2-.36,0-.2-1.95Zm-5,1.84.26-1.94.36,0-.25,2-.37-.05ZM25,42.2l.36-.05.29,1.94-.36,0L25,42.2ZM18.12,44l.35-1.93.36.06-.35,1.93L18.12,44ZM26,42.05l.36-.07.39,1.92-.36.07L26,42.05Zm-8.85,1.73.43-1.92.36.08-.43,1.92-.36-.08Zm9.77-1.93.36-.09.48,1.91-.36.09-.48-1.91ZM16.11,43.52l.52-1.9.36.1-.53,1.9-.35-.1ZM27.8,41.61l.36-.11.55,1.89-.35.1-.56-1.88Zm-12.68,1.6.61-1.86.35.11-.61,1.87-.35-.12ZM28.7,41.33l.35-.12.64,1.85-.35.12-.64-1.85ZM14.14,42.86,14.85,41l.34.13L14.49,43l-.35-.13ZM29.58,41l.34-.14.74,1.83-.34.13L29.58,41ZM13.2,42.47,14,40.66l.34.15-.77,1.8-.34-.14Zm17.25-1.83.33-.16.82,1.79-.33.15-.82-1.78ZM12.26,42l.86-1.77.33.16-.86,1.77L12.26,42Zm19-1.8.33-.17.9,1.75-.32.17-.91-1.75Zm-20,1.31.95-1.72.32.17-.94,1.73-.33-.18Zm20.79-1.75.32-.19,1,1.7-.32.18-1-1.69ZM10.45,41l1-1.67.32.19-1,1.67L10.45,41Zm22.49-1.7.3-.2,1.07,1.64L34,41l-1.07-1.64ZM9.59,40.44l1.11-1.62L11,39,9.89,40.65l-.3-.21Zm24.14-1.66.3-.21,1.13,1.6-.3.22-1.13-1.61Zm-25,1,1.19-1.56.29.22L9,40.06l-.29-.23Zm25.74-1.61.29-.22L36,39.55l-.29.22-1.2-1.55ZM8,39.2l1.24-1.53.29.24L8.23,39.43,8,39.2Zm27.27-1.57.28-.24,1.28,1.5-.28.24-1.28-1.5Zm-28,.88,1.31-1.46.28.25L7.44,38.76l-.27-.25ZM35.93,37l.27-.25,1.34,1.43-.26.25L35.93,37Zm-29.5.78L7.81,36.4l.26.26L6.69,38.05l-.26-.26Zm30.18-1.44.25-.26,1.41,1.36-.25.27-1.41-1.37ZM5.72,37l1.44-1.33.25.27L6,37.31,5.72,37Zm31.53-1.37.24-.28L39,36.69l-.24.27-1.48-1.29ZM5,36.26,6.55,35l.23.28L5.27,36.54,5,36.26ZM37.86,35l.23-.28,1.54,1.22-.23.29L37.86,35ZM4.4,35.44,6,34.26l.22.29L4.62,35.74l-.22-.3Zm34-1.23.22-.3,1.59,1.15-.22.3-1.59-1.15ZM3.8,34.6l1.62-1.11.21.3L4,34.9l-.21-.3ZM39,33.43l.2-.31,1.64,1.09-.21.31L39,33.43Zm-35.75.3,1.67-1,.2.31L3.43,34l-.19-.31Zm36.25-1.09.19-.32,1.69,1-.19.32-1.69-1Zm-36.76.2,1.7-1,.19.32-1.71,1-.18-.32Zm37.23-1,.18-.32,1.73.92-.17.33L40,31.82Zm-37.71.1L4,31l.17.33-1.75.88-.17-.33ZM40.39,31l.16-.34,1.78.84-.16.34L40.39,31ZM1.82,31l1.79-.8.15.34-1.8.8L1.82,31Zm39-.85.14-.34,1.82.75-.14.34-1.82-.75ZM1.43,30l1.83-.71.13.34-1.83.71L1.43,30Zm39.7-.76.13-.35,1.85.66-.13.35-1.85-.66ZM1.08,29,3,28.42l.11.35-1.86.62L1.08,29Zm40.36-.68.11-.35,1.88.59-.11.35-1.88-.59ZM.79,28.05l1.89-.53.1.36-1.9.53-.09-.36Zm40.92-.59.09-.36,1.9.5-.09.35-1.9-.49ZM.54,27.05l1.91-.44.08.36L.62,27.4l-.08-.35Zm41.39-.5.08-.36,1.92.4-.07.36-1.93-.4ZM.33,26l1.93-.36.07.36L.4,26.4.33,26Zm41.78-.41.06-.37,1.94.31-.06.36-1.94-.3ZM.18,25l1.94-.26,0,.36-1.94.27L.18,25Zm42.07-.33,0-.36,2,.23,0,.36-2-.23ZM.07,24l2-.16,0,.36-2,.17,0-.37Zm42.27-.23,0-.37,2,.13,0,.37-2-.13ZM0,23l2-.09,0,.36-2,.1L0,23Zm42.38,0v-.37l2,.07v.37l-2-.07ZM0,22.29v-.37H2v.36Zm42.4-.6,2,0V22l-2,0v-.37ZM0,21.25l0-.37L2,21l0,.36-2-.1Zm42.34-.5,2-.12,0,.36-2,.13,0-.37ZM.09,20.23l0-.37,2,.18,0,.37L.09,20.23Zm42.18-.42,1.95-.2,0,.36-1.95.2,0-.36ZM.2,19.2l0-.37,2,.28-.05.36L.2,19.2Zm41.94-.32,1.94-.3.06.36-1.94.3-.06-.36ZM.36,18.17l.07-.36,1.93.38-.07.36L.36,18.17ZM42,18l1.93-.39.07.36L42,18.31,42,18ZM.57,17.17l.08-.36,1.92.45-.09.35L.57,17.17ZM41.75,17l1.9-.49.09.36-1.9.49L41.75,17ZM.83,16.16l.1-.35,1.89.54-.1.35L.83,16.16Zm40.66,0,1.87-.59.11.36-1.87.58-.11-.35Zm-40.36-1,.12-.35,1.86.64L3,15.81l-1.86-.64Zm40.05.06L43,14.59l.12.34-1.86.65-.12-.35Zm-39.7-1,.14-.34,1.82.73-.13.34-1.83-.73Zm39.36.17,1.82-.74.14.34L41,14.7l-.13-.34Zm-39-1.13L2,12.9l1.79.82-.16.33-1.78-.82Zm38.57.27,1.78-.82.16.33-1.78.82-.16-.33ZM2.31,12.31,2.48,12l1.75.88-.16.33-1.76-.88ZM40,12.66l1.74-.91.17.33L40.2,13,40,12.66ZM2.8,11.39,3,11.07l1.71,1-.18.32-1.71-1Zm36.76.45,1.7-1,.18.32-1.69,1-.19-.32ZM3.32,10.5l.2-.31,1.66,1.05-.2.31L3.32,10.5ZM39.06,11,40.71,10l.2.31-1.65,1.07-.2-.31ZM3.89,9.63l.21-.3,1.61,1.13-.21.3L3.89,9.63Zm34.63.64,1.6-1.15.21.3-1.59,1.15-.22-.3Zm-34-1.48.23-.29L6.27,9.7,6.05,10,4.49,8.79ZM38,9.52,39.49,8.3l.23.29L38.18,9.81,38,9.52ZM5.14,8l.24-.28L6.87,9l-.24.28L5.14,8Zm32.2.82,1.49-1.29.24.28L37.59,9.08l-.25-.28ZM5.82,7.2l.25-.27L7.5,8.28l-.25.27L5.82,7.2Zm30.88.91,1.42-1.36.26.27L37,8.37l-.26-.26ZM6.53,6.46l.26-.25L8.17,7.6l-.26.26L6.53,6.46Zm29.5,1L37.38,6l.27.26L36.3,7.7,36,7.45ZM7.28,5.75l.27-.25L8.87,7l-.28.24L7.28,5.75ZM35.33,6.82l1.29-1.49.27.24L35.61,7.06l-.28-.24ZM8.06,5.07l.29-.23L9.59,6.36,9.3,6.6,8.06,5.07ZM34.6,6.21l1.23-1.53.28.23L34.88,6.44l-.28-.23ZM8.88,4.43l.29-.22,1.17,1.58L10,6,8.88,4.43Zm25,1.22L35,4.06l.3.22L34.14,5.87l-.3-.22ZM9.72,3.83l.31-.2,1.09,1.63-.31.2L9.72,3.83Zm23.34,1.3,1.08-1.64.3.2L33.36,5.33l-.3-.2ZM10.59,3.27l.31-.19,1,1.68L11.6,5l-1-1.68ZM32.25,4.64l1-1.69.32.19-1,1.69-.32-.19ZM11.48,2.75l.33-.18.92,1.73-.32.18-.93-1.73Zm20,1.44.91-1.74.33.17-.92,1.74-.32-.17Zm-19-1.92.33-.16.85,1.77L13.24,4,12.4,2.27ZM30.58,3.78,31.41,2l.33.16-.83,1.78-.33-.16ZM13.33,1.84l.34-.15.78,1.81-.34.14-.78-1.8ZM29.71,3.41l.75-1.82.34.14-.75,1.82-.34-.14Zm-15.42-2,.34-.12.69,1.84L15,3.28l-.69-1.84ZM28.83,3.08l.66-1.85.35.12L29.18,3.2l-.35-.12Zm-13.56-2L15.62,1l.6,1.87L15.86,3,15.27,1.1ZM27.94,2.79,28.5.91l.35.11L28.29,2.9l-.35-.11ZM16.26.8l.35-.1.51,1.9-.36.1L16.26.8ZM27,2.54l.49-1.9.36.09-.49,1.91L27,2.54Zm-9.76-2,.36-.07L18,2.39l-.36.08L17.26.54Zm8.84,1.8L26.5.42l.36.07-.4,1.93-.36-.08Zm-7.83-2,.36-.06L19,2.21l-.36.07L18.27.34Zm6.91,1.84.3-1.94.36.06-.3,1.94-.36-.06Zm-5.89-2,.37,0,.24,1.95-.37,0L19.29.18Zm4.94,1.89.23-2,.36.05-.22,2-.37,0Zm-3.9-2,.36,0,.15,2-.37,0-.14-2ZM23.3,2l.13-2,.36,0-.13,2L23.3,2ZM21.36,0h.37l0,2h-.36l-.05-2Zm1,2,0-2h.36l0,2Z"/>
    <g>
      <polyline class="b" points="23.28 24.18 23.28 24.18 23.28 24.18 23.28 24.18"/>
      <path class="b" d="M23.28,24.18Z"/>
      <path class="b" d="M23.28,24.19h0Z"/>
    </g>
    <g>
      <path class="a" d="M23,36.26l-3.23-1.09a.09.09,0,0,1-.07-.1h0V34.2h0v0h0l0,0h0l3.29-.77L23.24,32C23,32,23,31.71,23,31.65h0v0h0L23,30.3a.58.58,0,0,1-.16-.19h0l0,0h0a.7.7,0,0,0-.35-.09h0c-.35,0-.71.31-1.22.49h0a5.66,5.66,0,0,1-1.39.24h0c-.7-.16-2.35-1.95-2.36-2h0a.11.11,0,0,1,0-.15h0a.11.11,0,0,1,.15,0h0s.37.39.83.82h0c0-.47-.11-1.62-.11-2.22h0a2.87,2.87,0,0,1,0-.35h0a.1.1,0,0,1,.13-.07h0a.1.1,0,0,1,.08.12h0a1.53,1.53,0,0,0,0,.3h0c0,.75.12,2.41.12,2.41h0a4.67,4.67,0,0,0,1.14.85h0a13.37,13.37,0,0,0,.78-2.88h0s.07-.67.13-1.59h0a.1.1,0,0,1,.11-.1h0a.1.1,0,0,1,.1.11h0c-.06.93-.14,1.6-.14,1.6h0A13,13,0,0,1,20,30.49h0a5.22,5.22,0,0,0,1.17-.22h0c.47-.15.82-.5,1.29-.5h0a.84.84,0,0,1,.27,0h0a1.64,1.64,0,0,1,0-.22h0c0-.13,0-.25,0-.35h0a3.71,3.71,0,0,1,.5-1.18h0a6.82,6.82,0,0,0,.23-.65h0l0,.06a.29.29,0,0,1-.23.14h0c-.24,0-.26-.27-.27-.25h0a.23.23,0,0,1,0-.11h0a1.52,1.52,0,0,1,.17-.57h0a.29.29,0,0,0,0-.1h0a.76.76,0,0,1-.35.09h0l-.18,0h0a1.76,1.76,0,0,1-.51-.31h0l-.31-.27c-.09-.08-.15-.14-.15-.23h0a.2.2,0,0,1,.18-.19h0s0,0,0-.06h0c0-.14.15-.16.21-.16h.13a.89.89,0,0,1,.36.37h0l.08,0h0l.14-.09h0s0,0,0-.06h0a.89.89,0,0,0,0-.15h0v0h0a6.26,6.26,0,0,1,.18-.8h0a1,1,0,0,1,.2-.32h0l0,0h0a2.08,2.08,0,0,1-.18-.79h0a1.62,1.62,0,0,1,.39-1h0c0-.07-.07-.83-.07-1.31h0a1.21,1.21,0,0,1,0-.2h0c0-.26.26-1.42.49-2.43h0a.1.1,0,0,1,.12-.08h0a.1.1,0,0,1,.08.12h0c-.22,1-.47,2.19-.48,2.4h0a1,1,0,0,0,0,.19h0c0,.34,0,.84.05,1.11h0a2.37,2.37,0,0,1,.7-.45h0a.1.1,0,0,1,.13.06h0a.1.1,0,0,1-.06.13h0s-1.15.48-1.14,1.49h0a1.65,1.65,0,0,0,.14.64h0l.36-.33h0a.82.82,0,0,1,.55-.24h0a.67.67,0,0,1,.27.06h0a2.17,2.17,0,0,1,.71-1.11h0a2.1,2.1,0,0,0,.22-.49h-.08a.11.11,0,0,1-.12-.07h0s-.23-.79-.33-1.25h0a.78.78,0,0,1,0-.14h0a2.08,2.08,0,0,1,.6-1.19h0a1,1,0,0,0,.18-.34h0v0h0a1.81,1.81,0,0,1-.27-.7h0a3.78,3.78,0,0,1,0-.56h0v0h0l0,0h0a.41.41,0,0,1-.18-.33h0a.31.31,0,0,1,0-.09h0s0,0,0,0h0A1.81,1.81,0,0,0,25,17h0l-1.19-.57a.39.39,0,0,1-.18.28h0a1.38,1.38,0,0,1-.39.28h0a.88.88,0,0,1-.32.06h-.09L22.79,17l-.1-.18h0a.89.89,0,0,1-.3-.71h0a5.76,5.76,0,0,1-1.52-.18h0l.09.27h0a1.7,1.7,0,0,1,.05.42h0a2.18,2.18,0,0,1,0,.25h0s-.11.83-.46,1h0a1,1,0,0,1-.37.05h0c-.47,0-1.12-.06-1.29-.33h0c-.05-.15-.14-.19-.51-.45h0A3.38,3.38,0,0,0,17,20.1h0a4.27,4.27,0,0,0,0,.7h0l.23.12h0a1.79,1.79,0,0,1,0-.24h0c0-.19,0-.42.2-.5h0l0,0h0a1.89,1.89,0,0,0,.2-.2h0c.11-.1.28-.35.5-.39h0a.69.69,0,0,0,.29-.2h0a1,1,0,0,1,.76-.45h.12a9,9,0,0,1,1.54.22h0a7.54,7.54,0,0,0,.63.42h0l.09.05h.1l0-1.88a.11.11,0,0,1,.1-.11h0a.1.1,0,0,1,.11.1h0l0,1.92a.66.66,0,0,1,.44.37h0a.43.43,0,0,1,.13.31h0a.46.46,0,0,1-.05.21h0A1.13,1.13,0,0,1,23,21h0a1.09,1.09,0,0,1,.06.34h0a.56.56,0,0,1-.41.57h0l-.48,0h0a1,1,0,0,1-.34.53h0c0,.14,0,.52,0,.7h0a.29.29,0,0,1-.33.24h-.09a.49.49,0,0,1-.27.26h0c-.06,0-.16.11-.31.15h0s-.07.11-.27.17h0a.78.78,0,0,1-.22,0h0a1.43,1.43,0,0,1-.95-.38h0a2.88,2.88,0,0,1-.32-.51h0a.11.11,0,0,1,0-.14h0a.11.11,0,0,1,.14,0h0a3.11,3.11,0,0,0,.29.47h0a1.25,1.25,0,0,0,.79.3h0l.17,0h0c.11,0,.11-.12.28-.18h0s0,0,0,0h0l-.13-.1a.11.11,0,0,1,0-.15h0a.1.1,0,0,1,.14,0h0l.15.12,0,0h0l.1,0h0l.08-.1h0a.33.33,0,0,1-.21-.22h0s0,0,0-.08h0a.11.11,0,0,1,.12,0h0l0,0h0l0,.05h0l.07,0h0l.1,0h.14c.1,0,.12,0,.12-.05h0c0-.2,0-.73,0-.74h0l0-.08a.78.78,0,0,0,.3-.48h0a.59.59,0,0,0-.05-.13h0l-.1,0h0a.2.2,0,0,0-.14.05h0a4.29,4.29,0,0,1-.63.36h0l-.26.08h0c0,.09-.15.25-.57.47h0L18.85,23c.09.36.18.77.18.77h0a2.7,2.7,0,0,1,.1.44h0c0,.43-.23,1.84-1.41,2h0a2.59,2.59,0,0,1-1.58.94h0a6.81,6.81,0,0,1,.47,1.2h0c0,.17.28,1,.48,1.63h0c.13.41.25.76.27.81h0a1.57,1.57,0,0,1,.24.78h0a2.29,2.29,0,0,1,0,.25h0v0h0a0,0,0,0,1,0,0h0a4.86,4.86,0,0,1,.45.67h0a1.34,1.34,0,0,1,.15.7h0a5.86,5.86,0,0,1-.07.79h0c0,.34-.24.38-.59.79h0a1.17,1.17,0,0,1-.89.32h0a3.33,3.33,0,0,1-.87-.13h0a14.63,14.63,0,0,0-1.86-.36h0A8.08,8.08,0,0,1,12,33.83h0a15.92,15.92,0,0,1-1.67-1.31h0a1.71,1.71,0,0,0-.58-.22h0A8.44,8.44,0,0,0,8.7,33h0a.79.79,0,0,0-.2.21h0v0h0a1.15,1.15,0,0,0,.05.15h0s0,0,.17.07h0l.3.1H9a.12.12,0,0,1,.1.13h0a.66.66,0,0,1-.27.39h0a.38.38,0,0,1,0,.1h0c0,.2-.21.18-.26.21H8.32L8,34.3H8A.48.48,0,0,1,7.82,34h0v0h0l0-.1h0l-.17-.31h0a2.9,2.9,0,0,1-.26-.6h0a.18.18,0,0,1,0-.06h0a6.64,6.64,0,0,1,.5-1.43h0a2.6,2.6,0,0,0,.18-1H8a.75.75,0,0,1,.19-.41h0a2,2,0,0,1-.51-1.4h0a2.69,2.69,0,0,1,0-.5h0l0,0h0a2.22,2.22,0,0,1-.32-.91h0a5.44,5.44,0,0,1-.61.4H6.68a.83.83,0,0,1-.88-.94h0c0-.31.08-.63.09-.8h0a1.28,1.28,0,0,1,.63-.78h0a1.23,1.23,0,0,1-.32-.05h0a1,1,0,0,1-.29-.25h0c-.16-.18-.34-.16-.76-.18h0A.35.35,0,0,1,5,24.66H5a4.41,4.41,0,0,1-.56-.14h0c-.27-.1-.5-.11-.6-.29h0l0-.07h0l-.06,0h0L3,23.65a.5.5,0,0,1-.19-.38h0A.49.49,0,0,1,3,22.93H3a8.68,8.68,0,0,0,1.37-1.87h0a14.68,14.68,0,0,0,.31-2.47h0c.17-1.43.66-1.93.89-2.08h0a1.63,1.63,0,0,1-.29-.85h0a.75.75,0,0,1,.13-.43h0c-.14-.14-.24-.27-.28-.3h0a1.1,1.1,0,0,1-.22-.7h0A.45.45,0,0,1,5,13.87H5a8.77,8.77,0,0,0,.63-.71h0c.72-1.3,1.48-1.56,1.59-1.58h0c0-.09,0-.18.06-.25h0c.14-.56.61-.74.9-.91h0c.25-.14.58-.79.95-1h0a8.64,8.64,0,0,1,1.93-.54h0a3.93,3.93,0,0,1,.87-.07h0a11.05,11.05,0,0,1,1.13.06h.12a2.52,2.52,0,0,1,.95.2h0a.63.63,0,0,1,.34-.5h0a.4.4,0,0,1,.13,0h0c.09-.41.81-.52,1.05-.56h0c.09-.42.62-.47,1-.48h0a3.18,3.18,0,0,1,.7.07h0a1,1,0,0,1,.24,0h0A2.5,2.5,0,0,1,19,8h.1a1.08,1.08,0,0,1,.87.64h0a.69.69,0,0,1,.41.7h0a2.2,2.2,0,0,1-.07.48h0a.39.39,0,0,1-.4.35H19.8a.64.64,0,0,1-.23-.05h0a.76.76,0,0,0-.08.16h0a12.7,12.7,0,0,0-.44,1.23h0a.27.27,0,0,1-.24.26h0a.34.34,0,0,1-.16-.06h0l-.12.11h0a.58.58,0,0,1-.27.06h0a.35.35,0,0,1-.18.15h0s-.08.08-.07.09h0a.29.29,0,0,1-.27.27h0a1.84,1.84,0,0,1-.57-.21h0l-.46-.25a1.42,1.42,0,0,1-.22.79h0v0h0v.07h0a2.15,2.15,0,0,1,0,.5h0a.37.37,0,0,1-.17.16h0c.15.11.6.44.69.69h0l.23.06.22,0,.57.08h0c.08,0,.54.09.55.09h0l.08.07a.18.18,0,0,1,0,.06h0c-.05.25-.31.28-.33.3h0l-.35.06L18,15a.45.45,0,0,1,.05.19h0a.5.5,0,0,1-.22.37h0a.66.66,0,0,1,0,.14h0a.59.59,0,0,1-.27.53h0a.88.88,0,0,1-.52.16h0a1.72,1.72,0,0,1-.78-.26h0l-1,0h0a1.65,1.65,0,0,1-1.39-1h0a.67.67,0,0,1-.08-.33h0a1.11,1.11,0,0,1,0-.19h0l-.64.32a.14.14,0,0,0,0,.06h0a5.72,5.72,0,0,1,.6,1.92h0v0h0v.06h0a5.9,5.9,0,0,0,.27,1.75h0a3.25,3.25,0,0,0,.52,1.08h0a.92.92,0,0,1,.54.23h0a2.27,2.27,0,0,0,.49.26h0a.75.75,0,0,1,.24.15h0c.12,0,.58.16,1,.34h0a4.26,4.26,0,0,1,0-.61h0A3.68,3.68,0,0,1,18.21,17h0a.25.25,0,0,1-.06-.2h0c0-.43.58-.93.6-1h0c0-.1,0,0,.06-.43h0a12.83,12.83,0,0,1,.46-1.59h0a1.1,1.1,0,0,1,.39-.42h0a.78.78,0,0,1,.74-.47h.11a1,1,0,0,1,.31,0H21a2.48,2.48,0,0,1,.63-.18h0s.38,0,.51.26h0a.78.78,0,0,1,.4.36h0c-.07,0,.31,0,.33.41h0a.46.46,0,0,1,.18.25h0a.54.54,0,0,1,.22.23h0l.31-.71h0a2.14,2.14,0,0,0,.28-1.16h0a3.63,3.63,0,0,0-.29-1.38h0s-.11.06-.19.13h0l-.13.13h0l0,0h0a.66.66,0,0,1-.21.17h0a2.16,2.16,0,0,1-.51.15h0c-.12.27-.42.22-.66.4h0a.75.75,0,0,1-.44.13h0a1.15,1.15,0,0,1-.54-.16h0s-.59-.56-.69-.68h0c0,.06-.13.13-.35.11h0a.5.5,0,0,1-.48-.27h0s0,0,0-.06h0c.08-.24.38-.26.38-.29h0a2.05,2.05,0,0,1,.81-.27h.09a1.28,1.28,0,0,1,.2-.79h0a1.67,1.67,0,0,1,.55-.33h0a1.17,1.17,0,0,1-.1-.47h0A1.3,1.3,0,0,1,21.57,8h0c.54-.64.75-.76,1-.79h0l.6-.08h0A1.63,1.63,0,0,1,24,6.85h0a1.22,1.22,0,0,1,.62.16h0a5.62,5.62,0,0,1,.43-.43h0A4.49,4.49,0,0,1,26,6.3h.17a1.77,1.77,0,0,1,1.2.4h0a.87.87,0,0,1,.72.41h0a4.62,4.62,0,0,1,.42,1h0v0h0a3.39,3.39,0,0,0-.11.37h0v.07h0a3.05,3.05,0,0,1-.08.66h0a5.05,5.05,0,0,1,2.35,2h0a2.72,2.72,0,0,1,.34.91h0v.11h0v0h0a2.71,2.71,0,0,1,.66.68h0a6.69,6.69,0,0,1,.9-.06h0a4.87,4.87,0,0,1,.93.08h0l.23,0h0a1.53,1.53,0,0,1,.53.1h0a.56.56,0,0,0,.22,0h.23a2.33,2.33,0,0,1,1.47.46h0l.68-.21.3,0h0A1.68,1.68,0,0,1,38.79,15h0a1.89,1.89,0,0,1-.4,1h0a18.16,18.16,0,0,1,.91,4.44h0a16.72,16.72,0,0,1,.11,2h0a25.63,25.63,0,0,1-1,6.47h0a3.53,3.53,0,0,0-.09.81h0c0,1.06.44,2.18.77,2.22h0a.12.12,0,0,1,.08.11h0a.13.13,0,0,1-.1.1h0s-1.85.2-2.86.2H36l-.86,0h0c-1.34-.07-2.63-.11-3.06-.2h0s0,.06,0,0h0a3.38,3.38,0,0,1,.49.92h0c0,.28-.32.51-.42.6h0c-.13.09-.36.17-.46.24h0a.55.55,0,0,1-.28.06h0l-.25,0h0a2.12,2.12,0,0,1-.47-.12h0a2,2,0,0,1-.44.05h-.13c-.33-.07-.33-.4-.36-.68h0v-.09h0a.82.82,0,0,1,0-.28h0a2.48,2.48,0,0,1,.19-.48h0a2.09,2.09,0,0,0,.12-.36h0c-.47-.07-.66-.26-1-1.43h0l-.22-.8a3.5,3.5,0,0,1-.25-1.3h0A3.56,3.56,0,0,1,29,27h0c.12-.32.79-1.6.79-1.6h0l.39-.84,0-.1c-.15,0-.46,0-.9.05h0a5.27,5.27,0,0,1-.53,2.29h0l-.92,1.39h0a.88.88,0,0,0-.07.45h0a1,1,0,0,0,0,.2h0a2.94,2.94,0,0,1-.08.4h0s0,0,0,0h0a1,1,0,0,0,.22.51h0c.1.14.29.25.39.46h0a.5.5,0,0,1,0,.12h0a.74.74,0,0,1-.45.56h0a1.85,1.85,0,0,1-.76.11h0a4.73,4.73,0,0,1-.67,0h0a.54.54,0,0,1-.49-.59h0a1,1,0,0,1,0-.11h0s.2-.62.24-.72h0a1.52,1.52,0,0,0,0-.28h0a2.51,2.51,0,0,0,0-.3h0v0h0a2.27,2.27,0,0,1,.39-1h0a1.49,1.49,0,0,0,.13-.69h0c0-.15,0-.27,0-.32h0a.92.92,0,0,1,0-.19h0c0-.34,0-1.11,0-1.58h0A33.47,33.47,0,0,1,24.83,28h0a1.09,1.09,0,0,0,0,.33h0a3.4,3.4,0,0,0,.15.92h0a2.21,2.21,0,0,1,0,.35h0a1.54,1.54,0,0,1-.3.89h0L25,32.91l.53-.12,3.39.7a.09.09,0,0,1,.08.09h0v.83a.1.1,0,0,1-.07.1h0L23,36.26Zm.09-.23,5.74-1.68v-.62l-5.74,1.63V36Zm-3.18-1,3,1v-.64l-3-1V35Zm3.08.17,5.51-1.57L25.55,33l-.5.11.13.89a.1.1,0,0,1-.07.12h0a.12.12,0,0,1-.13-.06h0l-.31-.86-1.23.29L23,34.55a.1.1,0,0,1-.13.06h0a.1.1,0,0,1-.07-.12h0l.17-.9-2.85.66,2.81.92ZM9.78,32.1a1.59,1.59,0,0,1,.69.27h0a16.57,16.57,0,0,0,1.62,1.27h0a8.32,8.32,0,0,0,1.84.82h0a16.68,16.68,0,0,1,1.89.37h0a3,3,0,0,0,.82.12h0a.92.92,0,0,0,.73-.25h0c.4-.45.54-.47.55-.67h0c0-.16.06-.46.06-.77h0a1.19,1.19,0,0,0-.12-.6h0a5.9,5.9,0,0,0-.36-.55h0s0,.09-.07.14h0a2,2,0,0,1-2.23,1.57h-.09a4.26,4.26,0,0,1,.81.43h0a.1.1,0,0,1,0,.14h0a.11.11,0,0,1-.15,0h0a8.73,8.73,0,0,0-1.3-.61h0l-.24-.1h0c-.24-.08-2.38-.93-3.37-1.4h0a12.09,12.09,0,0,1-2.53-2h0a.49.49,0,0,0-.13.27h0a2.57,2.57,0,0,1-.2,1H8A6.56,6.56,0,0,0,7.52,33h0v0h0c0,.15.45.88.5,1H8l0,0H8l.07.07h0a1.06,1.06,0,0,0,.21,0h.23l.1,0h0a.22.22,0,0,1,.1-.24h0l0,0h0l.07-.07h0a.35.35,0,0,0,.05-.08h0l-.24-.08h0a.37.37,0,0,1-.29-.18h0a.63.63,0,0,1-.07-.23h0a.52.52,0,0,1,0-.11h0a.8.8,0,0,1,.27-.3h0a5.73,5.73,0,0,1,1.17-.68h0Zm21,1.53a2.91,2.91,0,0,0,.45.12h.23a.34.34,0,0,0,.17,0h0c.14-.08.37-.17.44-.23h0c.09,0,.36-.33.34-.43h0v0h0a4.69,4.69,0,0,0-.47-.82h0L31.87,32h0a3.1,3.1,0,0,1-.1-.75h0a1,1,0,0,1,.1-.5h0c.22-.44,2.45-3.56,2.44-5.86h0v-.06h0a1.54,1.54,0,0,0-.17.19h0a23.87,23.87,0,0,1-2.83,2.55h0v0h0a14.48,14.48,0,0,1-.45,2.56h0a4.33,4.33,0,0,0-.4,1.22h0a4.35,4.35,0,0,1-.25,1h0a2.46,2.46,0,0,0-.18.44h0a1,1,0,0,0,0,.23h0v.06h0c0,.33.06.5.18.5h.1a2.36,2.36,0,0,0,.42-.05h.06Zm-16.23-.06.45,0h.22c1.65,0,1.67-.7,2-1.45h0a1,1,0,0,0,.1-.25h0a.36.36,0,0,0,0-.1h0a.75.75,0,0,0,0-.21h0a1.5,1.5,0,0,0-.23-.71h0c0-.06-.14-.4-.27-.81h0c-.2-.65-.45-1.45-.49-1.67h0a7.11,7.11,0,0,0-.48-1.2h0a1.34,1.34,0,0,1-1-.39h0l-.1.18h0l-.3.62a12.38,12.38,0,0,0-.46,1.21h0s0,.06.12.09h0l.27.07h0a2.53,2.53,0,0,1,.62.35h0a1.79,1.79,0,0,1,.34.37h0l.07.07h0a2.37,2.37,0,0,1,.34.23h0s.46.56.49.61h0a.32.32,0,0,1,.1.21h0a.16.16,0,0,1,0,.1h0a.33.33,0,0,1-.2.1h0l-.07,0-.59-.38-.07,0a2.08,2.08,0,0,1,.17.29h0l.22.52h0a.35.35,0,0,1,0,.14h0a.28.28,0,0,1-.21.25h-.06a.44.44,0,0,1-.27-.17h0l-.25-.42-.07-.1.1.35.11.37h0a.25.25,0,0,1,0,.07h0a.31.31,0,0,1-.13.21h0a.17.17,0,0,1-.1,0h0a.56.56,0,0,1-.19-.06h0l-.05-.05-.35-.73c-.1.18-.33.23-.4.27h0a.19.19,0,0,0-.15.08h0a.23.23,0,0,1-.16.08h0a.13.13,0,0,1-.09,0h0a.22.22,0,0,1-.12-.22h0a.34.34,0,0,1,0-.18h0a1,1,0,0,1,.24-.18h0a1.69,1.69,0,0,0-.08-.24h0s0,0,0,0h0l-.11-.09h0c-.08-.06-.15-.1-.19-.14h0l-.36-.3h0a2.21,2.21,0,0,1-.47-1.4h0a2.48,2.48,0,0,1-1.41.33h0c-.41,0-.84,0-1.26-.07h0a3.57,3.57,0,0,1-2-.78h0a2.58,2.58,0,0,0,0,.32h0a1.74,1.74,0,0,0,.52,1.32h0l0,.05h0a12.16,12.16,0,0,0,2.51,2h0c1,.47,3.13,1.32,3.34,1.4h0l.22.08h0ZM23.46,32l-.19,1.35h0L24,31.4a.11.11,0,0,1,.1-.06h0a.09.09,0,0,1,.1.07h0L24.8,33h0l-.38-2.56,0-.27a.63.63,0,0,0-.37.25h0a5.32,5.32,0,0,0-.41,1.15h0a1.7,1.7,0,0,1-.16.43Zm.07,1.29L24.6,33l-.47-1.28-.6,1.52Zm11.64-1.16.86,0h.53C36,31.8,35,31,35,28.81h0a.1.1,0,0,1,.1-.11h0a.11.11,0,0,1,.11.1h0c.08,3,1.88,3.28,1.88,3.29h0c.65,0,1.35-.1,1.74-.14h0a3.63,3.63,0,0,1-.66-2.25h0a3.44,3.44,0,0,1,.1-.86h0a25.58,25.58,0,0,0,1-6.42h0a16.11,16.11,0,0,0-.11-1.94h0a19.11,19.11,0,0,0-.85-4.29h0c-.2.24-.38.4-.38.41h0l-.88.71a5.09,5.09,0,0,1-1.52,1.16h0a1.77,1.77,0,0,1-.63.28h0l-.78,3.08a.11.11,0,0,1-.13.07h0a.09.09,0,0,1-.07-.12h0l.76-3h-.15a1.87,1.87,0,0,1-.34,0h0a19,19,0,0,0-4,9.54h0a1.5,1.5,0,0,1,.17-.21h0l.77-.61h0A24.08,24.08,0,0,0,34,24.92h0a1.39,1.39,0,0,1,.35-.34h0a2.26,2.26,0,0,1,1.24-.34h0a.77.77,0,0,1,.25,0h0a.09.09,0,0,1,.09.11h0a.09.09,0,0,1-.11.09h-.23a2.11,2.11,0,0,0-1,.25h0v.22h0c0,2.41-2.27,5.55-2.47,6h0a.9.9,0,0,0-.07.4h0a2.74,2.74,0,0,0,.07.6h0l0,0h.06l.21,0h0c.18,0,.43,0,.72.05h0L34,32h0a5.63,5.63,0,0,1-1.16-1h0a.1.1,0,0,1,0-.15h0a.1.1,0,0,1,.14,0h0a4.33,4.33,0,0,0,1.58,1.15h0s0,0,0,0h0l.63,0ZM15,31.93l0,0h0l0,0h0c0-.08-.12-.38-.12-.38h0l-.12-.42-.11-.27-.1-.3a.14.14,0,0,1,0-.09h0a.11.11,0,0,1,.09-.05h0a.1.1,0,0,1,.09.06h0l.49.65.24.41.05,0h0l0,0h0c.06,0,.06,0,.06-.05h0a.18.18,0,0,0,0-.06h0L15.45,31h0a2.25,2.25,0,0,0-.38-.54h0a.12.12,0,0,1,0-.14h0a.11.11,0,0,1,.13,0h0l.47.18.57.36h0l0,0h0l-.49-.6h0a2.5,2.5,0,0,0-.3-.2h0a.5.5,0,0,1-.15-.18h0s0,0,0,0h0l-.1-.09h0L15,29.49h0a2.56,2.56,0,0,0-.53-.3h0c-.11,0-.5,0-.55-.36h0a.06.06,0,0,1,0,0h0a10.37,10.37,0,0,1,.47-1.25h0l.31-.64.12-.24h0a3.84,3.84,0,0,0,.37-.95h0a.12.12,0,0,1,.09-.1h0s.72-.15.69-.37h0A2.28,2.28,0,0,0,16,25h0c0-.27-.14-.7-1.79-1.31h0a3.06,3.06,0,0,0-.88,1h0a6.53,6.53,0,0,0-.44,1.17h0a5.43,5.43,0,0,0-.17,1.33h0a1.09,1.09,0,0,0,0,.18h0c0,.44,0,.91.06,1.34h0a.06.06,0,0,1,0,.06h0a2.43,2.43,0,0,0,.41,1.42h0l.37.31h0s.31.18.38.32h0a.87.87,0,0,1,.09.33h0a.14.14,0,0,1,0,.11h0a1.46,1.46,0,0,1-.21.16h0s0,0,0,.08h0v0h0a.47.47,0,0,1,.26-.15h0a.55.55,0,0,0,.17-.08h0a.27.27,0,0,0,.11-.09h0c0-.12,0-.22,0-.23h0a0,0,0,0,0,0,0h0a.09.09,0,0,1,.09-.06h0a.12.12,0,0,1,.1.07h0l.47,1Zm8.27-.28a.27.27,0,0,0,.05.18h0a1.62,1.62,0,0,0,.13-.34h0a4.84,4.84,0,0,1,.43-1.22h0a.9.9,0,0,1,.64-.37h0a.1.1,0,0,1,.11.09h0v.15a1.16,1.16,0,0,0,.15-.58h0a1.08,1.08,0,0,0,0-.3h0a4.55,4.55,0,0,1-.15-1h0a.92.92,0,0,1,.06-.39h0c.09-.23,1.14-1.47,1.88-2.82h0c.08-.14.15-.28.22-.43h0a3.73,3.73,0,0,0,.45-1.53h0c0-.05,0-.1,0-.14h0v-.05l.6-1.29-.26.08h0L25.57,22h0a2.37,2.37,0,0,1-.31.66h0a2.14,2.14,0,0,0-.7,1.14h0a9.4,9.4,0,0,0-.37,1.79h0l-.37,1.28h0c-.17.54-.34,1.09-.44,1.32h0a3.56,3.56,0,0,0-.48,1.09h0c0,.11,0,.23,0,.35h0a1.21,1.21,0,0,0,.05.34h0A.13.13,0,0,1,23,30h0v0h0a.52.52,0,0,0,.14.16h0l0,.07.08,1.41ZM30.69,18.9a.11.11,0,0,1,.09.12h0c0,.21-.32,1.28-.34,1.49h0a1.43,1.43,0,0,0,0,.29h0a1.1,1.1,0,0,0,.07.38h0a4.54,4.54,0,0,1,.26,1.27h0a.13.13,0,0,1,0,.06h0a11.63,11.63,0,0,1-.27,1.58h0c0,.09,0,.16-.05.22h0l-.06.26-.41.87s-.67,1.3-.77,1.58h0a3.35,3.35,0,0,0-.34,1.44h0a3.41,3.41,0,0,0,.24,1.23h0l.22.81c.39,1.19.47,1.21.85,1.28h0l.05,0h0a2.8,2.8,0,0,0,.06-.38h0a4.51,4.51,0,0,1,.42-1.3h0a13.13,13.13,0,0,0,.41-2.35h0c-.26.22-.48.39-.62.5h0a5.16,5.16,0,0,0-.35.48h0a.11.11,0,0,1-.12.05h0a.12.12,0,0,1-.08-.11h0a19.43,19.43,0,0,1,4-10h0a5.8,5.8,0,0,1-2.47-1.81h0s0,.06,0,.08h0a2,2,0,0,1-1,1.3h0a3.3,3.3,0,0,0-.29.16h0c-.23.44-.44,1-.45,1h0c-.06.11-.13.22-.19.31h0a0,0,0,0,1,0,0h0a15.73,15.73,0,0,1-1,1.48h0a1.37,1.37,0,0,1-.42.29h0a.13.13,0,0,1,0,.06h0v0L27.38,23s0,.08,0,.13h0a3.82,3.82,0,0,1-.4,1.47h0a18.41,18.41,0,0,1,2.17-.33h0c.55-.05.93-.06,1.07-.06h0s0-.1,0-.16h0a13.27,13.27,0,0,0,.27-1.54h0v-.05h0a4.56,4.56,0,0,0-.24-1.2h0a1.09,1.09,0,0,1-.09-.45h0a3.16,3.16,0,0,1,0-.32h0c0-.24.32-1.31.35-1.49h0a.1.1,0,0,1,.1-.09h0ZM26.14,30.38c0,.14,0,.35.3.39h0c.2,0,.43,0,.65,0h0a2,2,0,0,0,.67-.09h0c.19-.1.34-.3.33-.38h0v0h0c-.05-.13-.23-.24-.37-.42h0a1.19,1.19,0,0,1-.26-.64h0a.23.23,0,0,1,0-.11h0a2.22,2.22,0,0,0,.07-.33h0s0-.12,0-.21h0a1.19,1.19,0,0,1,.11-.57h0l.91-1.39h0a4.85,4.85,0,0,0,.5-2.16h0a16.29,16.29,0,0,0-2.15.34h0c0,.25,0,1.48,0,1.94h0v.17h0a2.93,2.93,0,0,1,0,.34h0a1.48,1.48,0,0,1-.16.81h0a2,2,0,0,0-.35.84h0v0h0a3.08,3.08,0,0,1,0,.33h0a1.61,1.61,0,0,1,0,.35h0c0,.09-.22.69-.23.7h0v.06ZM7.57,27.2a2.21,2.21,0,0,0,.28.89h0l.07.08h0a3.39,3.39,0,0,0,2,.84h0c.42,0,.85.06,1.25.06h0a2.07,2.07,0,0,0,1.39-.37h0c0-.43,0-.89-.06-1.33h0a1.09,1.09,0,0,1,0-.18h0a5,5,0,0,1,.16-1.28h0a15.61,15.61,0,0,1-2-1.83h0a7.3,7.3,0,0,0-.7.4h0a2.27,2.27,0,0,0-.42.33h0A2.33,2.33,0,0,0,9,25.7H9a.45.45,0,0,0,0,.11H9v0H9a.82.82,0,0,0,.35.58h0a.67.67,0,0,1,.47.16h0a4.64,4.64,0,0,1,.3.84h0l.73.6h0a.1.1,0,0,1,0,.14h0a.11.11,0,0,1-.15,0h0l-.73-.6h0c-.15-.16-.21-.73-.33-.87h0a.82.82,0,0,0-.39-.09h0c-.28,0-.59,0-.76,0h0a3.83,3.83,0,0,0-1,.55h0a.08.08,0,0,1,0,.06ZM6.1,26a7,7,0,0,0-.09.78H6c0,.41.1.72.67.73h0a3.9,3.9,0,0,0,.57-.39h0a.17.17,0,0,0,.06-.06h0a3,3,0,0,1,1.19-.68H9a.87.87,0,0,1-.24-.56h0v0h0v-.05h0l-.35-.22h0a3.78,3.78,0,0,0-.39-.23h0l-.45-.06h0a3.13,3.13,0,0,0-.48,0H7c-.23.05-.91.47-.92.8Zm17,1.27a.25.25,0,0,0,0,.08h0s0,.06,0,.06h0s0,0,.06-.06h0l.19-.27.21-.34,0,0h0c.19-.62.36-1.21.36-1.21h0a8.94,8.94,0,0,1,.35-1.73h0a.44.44,0,0,0-.2-.05h0a.57.57,0,0,0-.41.19h0l-.37.34h0c-.3.41-.27.35-.31.44h0c0,.07-.17.7-.16.75h0v0h0a.55.55,0,0,1-.1.37h0a1.21,1.21,0,0,1-.38.19h0a.19.19,0,0,1-.1-.05h0a1.36,1.36,0,0,0-.14-.19h0c-.05-.08-.13-.15-.14-.14H22v0h0a.2.2,0,0,1-.18.18h0l.06.06h0l.32.27a1.54,1.54,0,0,0,.42.26h0l.13,0h0a.44.44,0,0,0,.38-.18h0l0,0h0c0-.13,0-.25,0-.29h0a.39.39,0,0,1-.12-.33h0a1.66,1.66,0,0,1,0-.31h0a.11.11,0,0,1,.11-.1h0a.12.12,0,0,1,.1.12h0a1.7,1.7,0,0,0,0,.28h0c0,.12,0,.17.07.19h0s.15,0,.15-.14h0a1.21,1.21,0,0,1,.17-.49h0a.1.1,0,0,1,.13-.06h0a.11.11,0,0,1,.07.13h0a1.33,1.33,0,0,0-.16.43h0a.35.35,0,0,1-.32.33h0l-.05.34h0a1.75,1.75,0,0,1-.11.44h0a1.23,1.23,0,0,0-.14.46h0l0,0ZM15.92,27H16a2.4,2.4,0,0,0,1.6-.94h0a2.07,2.07,0,0,0,.29-1h0a2.6,2.6,0,0,0-.68-1.61h0a.11.11,0,0,1,0-.15h0a.12.12,0,0,1,.15,0h0A2.83,2.83,0,0,1,18.08,25h0a2.23,2.23,0,0,1-.23,1h0c.85-.22,1-1.39,1.07-1.78h0a3.23,3.23,0,0,0-.09-.39h0s-.09-.41-.18-.77h0c0-.15-1.06-1.61-1.14-1.72h0a.51.51,0,0,0-.13-.12h0a6.26,6.26,0,0,0-1.52-.61h0a.3.3,0,0,1-.18.12h0a1.48,1.48,0,0,1-.39.06h0a.69.69,0,0,1-.3-.05h0l-.09,0h0l-.08,0h0l-.14.1h0a2.29,2.29,0,0,0-.27.13h0c0,.06-.09.25-.1.3h0c0,.07-.07.35-.08.44h0c0,.1,0,.28-.12.38h0a1.09,1.09,0,0,1-.37.18h-.17a.65.65,0,0,1-.32-.09h0c-.12-.1-.24-.25-.33-.33h0l0,0h0l-1,.41s-1,.26-1.31.29h0c-.25,0-1.17.27-1.13.69h0v0h0v.24h0v.33h0c0,.18,0,.22.09.29h0a2.77,2.77,0,0,0,.35.24h0c.23-.15.47-.27.6-.34h0l-.15-.16h0a.1.1,0,0,1,0-.14h0a.11.11,0,0,1,.15,0h0l.23.26h0a18.17,18.17,0,0,0,1.94,1.82h0a7.25,7.25,0,0,1,.42-1.1h0a3.18,3.18,0,0,1,1-1.13h0l.09,0c1.7.62,2,1.12,2,1.53h0c0,.11,0,.2,0,.27h0c-.07.41-.59.51-.79.55h0a4.65,4.65,0,0,1-.32.83h0s0,0,.05,0h0a1.08,1.08,0,0,0,.83.34ZM8.06,25.09a4,4,0,0,1,.78.45h0a2.83,2.83,0,0,1,.53-.86h0a2,2,0,0,1,.34-.29h0l-.29-.2h0a.5.5,0,0,1-.17-.46h0V23.4h0v-.23h0v0h0c0-.69,1.05-.86,1.31-.9h0c.24,0,1.27-.28,1.27-.28h0l.92-.39a.8.8,0,0,1-.1-.41h0a.92.92,0,0,1,0-.16h0a2.46,2.46,0,0,1,.27-.68h0s-.36-1-.36-1h0s-.59-.8-.71-1h0a4.33,4.33,0,0,1-.62-1.3h0a18,18,0,0,1-2.39.16h0c-.24,0-.5,0-.75,0h0a2.61,2.61,0,0,0-.62,1.67h0c0,1,.29,2.61.29,3H7.71l.07,0a10.3,10.3,0,0,1-.22,1.35h0a3.94,3.94,0,0,0-.12.88h0a2.79,2.79,0,0,0,.18,1h0a0,0,0,0,1,0,0h0l.43.06Zm14.82.4Zm-.2,0ZM6.77,17a2.65,2.65,0,0,0-.9,2.15h0v0h0c0,.63,0,1.37,0,2.1h0a5.64,5.64,0,0,1-.45,2.6h0l-.16.26h0s-.22.29-.21.38h0s0,0,.06,0h0c.38,0,.66,0,.9.25h0a1.71,1.71,0,0,0,.21.2h0a2.51,2.51,0,0,0,.5.05h0L7,25h.1l.28,0h0a3,3,0,0,1-.17-1h0a4.1,4.1,0,0,1,.12-.92h0a11.76,11.76,0,0,0,.22-1.29h0a0,0,0,0,1,0,0h0c0-.36-.3-1.94-.3-3h0a2.83,2.83,0,0,1,.57-1.69h0c-.35,0-.71-.07-1.06-.13h0ZM4.12,24.21a2.08,2.08,0,0,0,.35.11h0a3.81,3.81,0,0,0,.42.11h0A1.36,1.36,0,0,1,5.14,24h0a1.14,1.14,0,0,0,.15-.23h0a5.46,5.46,0,0,0,.42-2.5h0c0-.72,0-1.46,0-2.1h0v0h0a2.93,2.93,0,0,1,.86-2.21h0a3.15,3.15,0,0,1-.44-.11h0a3.26,3.26,0,0,0-.8,2.08h0l-.25,3a.15.15,0,0,1,0,.06H5a2.34,2.34,0,0,1-.19.68h0l-.4.87h0c-.1.22-.11.25-.14.3h0a1.87,1.87,0,0,1-.31.36H4a.08.08,0,0,0,0,0H4l.1.05ZM5.39,17a3.65,3.65,0,0,0-.53,1.65h0a14.62,14.62,0,0,1-.33,2.53h0a8.43,8.43,0,0,1-1.41,1.93h0a.33.33,0,0,0-.07.2h0a.3.3,0,0,0,.11.22h0l.69.48h0a2.26,2.26,0,0,0,.27-.32h0s0-.05.13-.28h0l.4-.86h0a2,2,0,0,0,.17-.6h0l0,0,.24-3a3.35,3.35,0,0,1,.79-2.13h0l-.17-.06h0a1,1,0,0,0-.3.3ZM21,23.24s0,0,0,0h0l-.05,0h0Zm-3.32-2s.8,1.11,1.08,1.61h0l1.38-.31c.38-.21.43-.33.45-.37h0c.11-.17.29-.14.39-.19h0a4.34,4.34,0,0,0,.57-.33h0a.38.38,0,0,1,.26-.09h0l.15,0h0a.33.33,0,0,1,.19.22h0l.22,0h0l.23,0h0a.35.35,0,0,0,.24-.37h0a.72.72,0,0,0,0-.27h0c0-.15-.47-.43-.48-.43h0s0,0-.05-.07h0a.09.09,0,0,1,0-.08h0a.34.34,0,0,0,.06-.18h0a.2.2,0,0,0-.07-.17h0l0,0a.42.42,0,0,0-.37-.27h0a.87.87,0,0,0-.2,0h0a3.9,3.9,0,0,1-.84-.52h0c0-.05-1-.11-1.44-.17h-.09a.87.87,0,0,0-.61.38h0a.83.83,0,0,1-.42.27h0s-.28.22-.36.32h0a2.08,2.08,0,0,1-.22.21h0l-.06.06h0c-.07,0-.12.15-.11.33h0a2.12,2.12,0,0,0,0,.38h0a.65.65,0,0,1,.12.11h0v0ZM12.44,9.81a.1.1,0,0,1,0,.14h0a18.07,18.07,0,0,0-.91,1.71h0a5.94,5.94,0,0,0-.27,1.23h0c0,.1,0,.18,0,.21h0a15.07,15.07,0,0,1-.07,1.67h0c0,.11,0,.22,0,.31h0v.13h0a1.68,1.68,0,0,0,.07.55h0a6.09,6.09,0,0,0,.17,1h0a4.11,4.11,0,0,0,.63,1.36h0c.09.18.68,1,.7,1h0s.38,1,.39,1.13h0a4.69,4.69,0,0,0-.27.72h0a.49.49,0,0,0,0,.12h0a.64.64,0,0,0,.12.39h0l0,.06h0c.12.1.24.25.33.32h0a.31.31,0,0,0,.19,0h.15a1,1,0,0,0,.28-.15h0a.73.73,0,0,0,0-.21h0a3.06,3.06,0,0,1,.07-.48h0l.1-.27h0a.07.07,0,0,1,0-.06h0l0-.05h0a1,1,0,0,1,.32-.17h0a.71.71,0,0,1,.2-.12h0a.88.88,0,0,1,.26.09h0a.76.76,0,0,0,.22,0h0a.93.93,0,0,0,.32,0h0l.06,0h0a.5.5,0,0,0-.14-.08h0a2.1,2.1,0,0,1-.57-.32h0a.8.8,0,0,0-.39-.15h0c-.29-.09-.5-.69-.7-1.23h0a6.25,6.25,0,0,1-.28-1.81h0v0h0v0h0A5.46,5.46,0,0,0,13,15h0a.76.76,0,0,1-.07-.19h0a.74.74,0,0,1,0-.12h0A.21.21,0,0,1,13,14.5h0a3.65,3.65,0,0,0,.64-1.42h0a.9.9,0,0,1,.62-.57h0a1.7,1.7,0,0,0,.53-.53h0a2.72,2.72,0,0,0,.33-.66h0a1.79,1.79,0,0,0,.07-.51h0A1.63,1.63,0,0,0,15,10.1h0a1.74,1.74,0,0,0-.5-.6h0a1.85,1.85,0,0,0-.33-.21h0a2.51,2.51,0,0,0-1-.24h0c-.42,0-2.37.25-2.95.9h0c-.49.54-.8,1-.8,1.32h0a.84.84,0,0,0,.21.53h0c.43.55.89,1,1.27,1h0a.63.63,0,0,0,.19,0h0a6,6,0,0,1,.26-1.18h0a19.41,19.41,0,0,1,.93-1.74h0a.12.12,0,0,1,.09-.05h0l0,0Zm13.08,9.7a1.88,1.88,0,0,0-.52,1h0s0,.06,0,.1h0c.08.36.25.93.31,1.14h.13l2-.24.3-.1h0a1.38,1.38,0,0,0,.53-.31h0c.1-.12.31-.43.51-.73h0a1,1,0,0,1-.46.13h0a.76.76,0,0,1-.31-.07h0l-.34-.14h0l-.23.2h-.1c-.41,0-.51-.59-.58-.7h0a.25.25,0,0,0-.19-.15h0l-.33-.07h0s-.36-.28-.54-.44h0a.92.92,0,0,1-.22.36Zm1.87.8.23-.21.11,0,.21.09h0l0,0h0l.21-.13a.1.1,0,0,1,.14,0h0a.1.1,0,0,1,0,.14h0l-.12.07a.41.41,0,0,0,.19,0h0c.19,0,.51-.09.9-.64h0c.06-.1.13-.2.19-.31h0s.23-.57.47-1h0l0,0s.25-.15.34-.19h0c.63-.22.9-1.13.9-1.13h0v-.09h0a2,2,0,0,0,0-.23h0a.1.1,0,0,1,.1-.11h0a.08.08,0,0,1,.09,0h0a6,6,0,0,0,2.68,2h0a2.33,2.33,0,0,0,.38,0h0a1.5,1.5,0,0,0,.7-.17h0c-1.94-.56-2.59-1.47-2.58-2.38h0a4.39,4.39,0,0,1,1.47-2.73h0a1.49,1.49,0,0,0-.33,0h0a.93.93,0,0,0-.49.13h0C32,13.86,31.33,16,31.33,16h0a.1.1,0,0,1-.11.1h0a.11.11,0,0,1-.09-.12h0a4.73,4.73,0,0,1,1.95-2.74h0a4.87,4.87,0,0,0-.54,0h0a9.62,9.62,0,0,0-3.89,1h0a2.25,2.25,0,0,0-.75.55H28a.29.29,0,0,1,.2,0h0l.41.18h0a1.57,1.57,0,0,0,.28.09h0c.16,0,.67.22.71.22h0c.09,0,.38-.06.46.22h0a.09.09,0,0,1,0,.05h0l-.05.14h0c.08,0,.22.09.26.26h0s0,0,0,0h0c0,.09-.09.2-.09.22h0s.2.32.24.44h0a.59.59,0,0,1,0,.2h0a.27.27,0,0,1-.09.21h0l0,.05h0a.23.23,0,0,1,0,.11h0a.36.36,0,0,1-.09.24h0s-.11.16-.18.25h0a2.58,2.58,0,0,1-.31.39h0c-.12.08-.27.06-.31.09h0a.67.67,0,0,1-.5.26h0a1.29,1.29,0,0,1-.45.15h0a.18.18,0,0,1-.19-.11h0a1.22,1.22,0,0,1-.07-.38h0a1.29,1.29,0,0,1,0-.23h0c.06-.15.19-.24.19-.27h0a.19.19,0,0,0,0-.08h0a.07.07,0,0,0,0-.05h0a.47.47,0,0,1-.16-.31h0a.27.27,0,0,1,.09-.21h0a4.76,4.76,0,0,0,.53-.91h0a.27.27,0,0,0,0-.13h0a.2.2,0,0,0,0-.14h0a4.08,4.08,0,0,0-.48-.28h0a3.35,3.35,0,0,0-.66-.13h-.23a.62.62,0,0,0-.31,0h0c-.15.09-.5.22-.53.25h0L26.3,16h0l-.36.31a2,2,0,0,0-.46,1.3h0v.14h0a3.4,3.4,0,0,0,0,.53h0a1.46,1.46,0,0,0,.29.68h0c0,.06.56.47.56.48h0l.25,0h0a.5.5,0,0,1,.37.27h0c.05.16.24.62.39.58h0s0,0,0,0Zm1.06-5a3.64,3.64,0,0,1,.55.33h0a.43.43,0,0,1,.08.28h0a.75.75,0,0,1,0,.2h0a5.18,5.18,0,0,1-.58,1h0a.15.15,0,0,0,0,.06h0s.07.13.11.17h0a.3.3,0,0,1,.06.19h0a.88.88,0,0,1,0,.16h0c-.07.12-.18.2-.19.26h0a.42.42,0,0,0,0,.16h0a.85.85,0,0,0,.05.3h0v0c.09,0,.28-.11.42-.14h0a.75.75,0,0,0,.3-.1h0l0,0h0c.12-.22.38-.14.38-.19h0a3,3,0,0,0,.28-.36h0a3.08,3.08,0,0,1,.2-.26h0a.46.46,0,0,0,0-.09h0a.22.22,0,0,1-.05-.11h0c0-.13.1-.15.14-.2h0s0,0,0-.06h0a.59.59,0,0,0,0-.13h0a4.31,4.31,0,0,1-.25-.44h0a.18.18,0,0,1,0-.06h0A.36.36,0,0,1,30,16h0L30,16h0l-.14-.07h0a.17.17,0,0,1-.08-.14h0a.66.66,0,0,1,.07-.2h-.06l-.2,0h0c-.13,0-.62-.21-.72-.21h0a1.92,1.92,0,0,1-.34-.1h0a4.13,4.13,0,0,1-.45-.21h-.3l-.3,0h0a3.66,3.66,0,0,1-.6.18h0a5.82,5.82,0,0,1-.62.29h0c-.19,0-.05.42-.54.55h0a.28.28,0,0,0-.2.15h0c-.11.17-.08.41-.27.56h0v0h0a.45.45,0,0,0,0,.11h0a2,2,0,0,1,.05.28h0a.44.44,0,0,1,0,.1h0v0h0a.29.29,0,0,0,0,.09h0a2.08,2.08,0,0,1,.52-1.28h0l.37-.32s.25-.24.34-.3h0c.1-.06.42-.18.54-.25h0a.76.76,0,0,1,.42-.08h.23a3.68,3.68,0,0,1,.75.15Zm5.8-1.94A4.43,4.43,0,0,0,32.78,16h0c0,.82.58,1.68,2.62,2.23h0a5,5,0,0,0,1.42-1.08h0l.9-.74s.87-.84.86-1.4h0a1.48,1.48,0,0,0-1.43-1.44h0l-.26,0h0l-.71.22h-.09a2.09,2.09,0,0,0-1.39-.45h-.43a0,0,0,0,1,0,0ZM19.16,17.58l.29.08h0a4.61,4.61,0,0,0,.72.07h0a.78.78,0,0,0,.28,0h0c.16,0,.35-.87.34-.87h0a1.62,1.62,0,0,0,0-.22h0a1.35,1.35,0,0,0-.05-.37h0a1.07,1.07,0,0,0-.09-.27h0a2.45,2.45,0,0,1-.19-.8h0a.07.07,0,0,1,0-.05h0v0h0a1.07,1.07,0,0,0-.19-.49h0A.85.85,0,0,1,20,14h0v-.1h0a1.35,1.35,0,0,1,.49-.85h0l.11-.05h0l-.07,0H20.4a.65.65,0,0,0-.59.41h0a1.14,1.14,0,0,0-.35.36h0A14.72,14.72,0,0,0,19,15.37h0a1.83,1.83,0,0,1-.07.47h0c-.1.21-.61.7-.59,1h0a.15.15,0,0,0,.06.13h0c.4.28.55.34.64.58h0l.09,0Zm-13.1-1c.22.07.45.12.68.17h0A11.07,11.07,0,0,0,8,16.88H8c.28,0,.56,0,.82,0h0a18.51,18.51,0,0,0,2.34-.15h0A6.11,6.11,0,0,1,11,15.8h0a1.94,1.94,0,0,1-.07-.56h0c-.21.16-.66.48-1.14.79h0a.94.94,0,0,1-.54.18h0a2.19,2.19,0,0,1-1.16-.59h0a.6.6,0,0,0-.36-.09h0a10.55,10.55,0,0,0-1.27.2H6.36a1.34,1.34,0,0,1-.83-.36h0a.53.53,0,0,0-.07.28h0a1.52,1.52,0,0,0,.29.8h0l.31.1Zm16.9.28a.8.8,0,0,0,.24,0h0a1.53,1.53,0,0,0,.34-.25h0c.09-.07.1-.11.1-.17h0c0-.07,0-.17,0-.29h0a.25.25,0,0,1,0-.12h0V15.9h0a.41.41,0,0,0-.11-.25h0a.1.1,0,0,1,0-.15h0s0,0,0,0h0l-.06-.07h0l-.12-.1h0a.12.12,0,0,1-.06-.11h0v-.09h0a.15.15,0,0,0,0-.07h0a1.8,1.8,0,0,1-.12-.43h0s-.06-.23-.06-.26h0c-.06-.22-.2-.25-.2-.25h0l-.07-.1c0-.07-.14-.19-.14-.19h0l-.05-.1v0h0c0-.18-.18-.1-.32-.36h0c0-.06-.28-.22-.33-.26h0c-.07-.14-.4-.21-.42-.21h0a1.46,1.46,0,0,0-.29.08h0a1.46,1.46,0,0,1,.41.07h0l.28.25h0a4.48,4.48,0,0,1,.38.27h0a.67.67,0,0,1,.21.37h0a.1.1,0,0,1-.09.12h0a.12.12,0,0,1-.12-.09h0a.44.44,0,0,0-.14-.24h0c-.12-.11-.31-.22-.36-.27h0l-.26-.23h0a1.89,1.89,0,0,0-.38-.05h0a1.31,1.31,0,0,0-.64.17h0a1.26,1.26,0,0,0-.35.68h0V14h0a.72.72,0,0,0,.22.45h0a1.16,1.16,0,0,1,.23.61h0a.08.08,0,0,1,0,0h0v0h0a2,2,0,0,0,.09.5h0a5.15,5.15,0,0,0,1.66.22h0a2.28,2.28,0,0,0,.46-.26h0s0,0,0-.06h0a2.85,2.85,0,0,0-.1-.46h0v0h0a.55.55,0,0,1,0-.12h0a1.83,1.83,0,0,1-.52.19h0a.1.1,0,0,1-.12-.08h0a.1.1,0,0,1,.08-.12h0a2.42,2.42,0,0,0,.48-.19h0l.05,0h0c0-.17-.06-.36-.06-.4h0a.1.1,0,0,1,.1-.11h0a.1.1,0,0,1,.11.1h0s.1.65.1.75h0a1.9,1.9,0,0,1,.11.48h0a.28.28,0,0,1-.08.22h0a2,2,0,0,1-.43.25h0v.05h0a.74.74,0,0,0,.27.61h0c0,.05.05.1.08.14h0ZM25,16.75a.2.2,0,0,1,.11-.18h0s.07-.25.19-.47h0a.51.51,0,0,1,.34-.26h0c.31,0,.12-.36.52-.54h0c.28-.07.48-.28.68-.3h0c.07,0,.43-.14.56-.17h0l.21,0h0a.08.08,0,0,1,0-.07h0a2.52,2.52,0,0,1,.76-.64h0a2.25,2.25,0,0,1-1.05-1.74h0v-.07h0l-.08.06s0,.12-.06.2h0c-.06.11,0,.22-.16.29H27c-.16-.09-.31-.41-.33-.42h0v-.08l.22-.76.07-.76a2.54,2.54,0,0,1-1.24.35h0c-.43-.13-.66-.68-.75-.95h0l0,0h0s0,0,0,.07h0c0,.07,0,.19.06.36h0a1.15,1.15,0,0,1,0,.19h0a3.06,3.06,0,0,1-.05.53h0a.3.3,0,0,1-.33.18h0l-.09,0h0l-.11.06h0a.13.13,0,0,1-.12,0h0a.1.1,0,0,1,0-.1h0s.05-.3.07-.37h0c0-.06-.18-.46-.23-.6h0a11.21,11.21,0,0,1-.19-1.44h0a8,8,0,0,1,.27-1h0a3.74,3.74,0,0,1,.31-.85h0l.15-.2h0A1.05,1.05,0,0,0,24,7.06h0a1.34,1.34,0,0,0-.76.25h-.05l-.63.08h0c-.19,0-.33.08-.87.72h0a1.09,1.09,0,0,0-.29.72h0a.81.81,0,0,0,.09.39h0v0h0a.52.52,0,0,1,.21,0h0a3.07,3.07,0,0,1,1.48,1.1h0a1.26,1.26,0,0,1,.1.38h0a.54.54,0,0,1,.2-.1h0l-.22-.84a.11.11,0,0,1,.08-.13h0a.12.12,0,0,1,.13.07h0L23.84,11v0h0a3.85,3.85,0,0,1,.23,1.27h0a2.41,2.41,0,0,1-.31,1.28h0s-.37.83-.4.9h0a.89.89,0,0,1,0,.11h0a2.3,2.3,0,0,0,.1.36h0a.28.28,0,0,1,0,.17h0v.06h0a.57.57,0,0,1,.26.32h0a.15.15,0,0,1,0,.1h0a.51.51,0,0,1,.1.3h0a.32.32,0,0,1,0,.13h0v.06h0a.18.18,0,0,0,0,.1h0l1.18.56Zm-8.93-2.28a1,1,0,0,0-.18.61h0v0h0v0h0c0,.09,0,.18,0,.26h0c0,.19,0,.28.19.35h0a1.41,1.41,0,0,1,.24.13h0a1.58,1.58,0,0,0,.75.27h0a.75.75,0,0,0,.42-.13h0a.42.42,0,0,0,.17-.35h0a1,1,0,0,0,0-.16h0l.05-.11s.19-.14.17-.24h0a.15.15,0,0,0,0-.08h0l-.16-.25a.09.09,0,0,1,0-.1h0a.11.11,0,0,1,.07-.06h0l.49-.08.1,0h0L18,14.49h0l-.57-.09h0a.34.34,0,0,1,0,.17h0a.19.19,0,0,1-.07.13h0a.91.91,0,0,1-.43.14h0l-.13,0h0l-.11-.06a.11.11,0,0,1-.05-.14h0a.1.1,0,0,1,.14,0h0l.12.05h0a.7.7,0,0,0,.29-.09h0s-.05-.09-.07-.13h0l-.3-.08-.32-.08a1.64,1.64,0,0,0-.42.21Zm-7.85,1c.27.19.64.55,1,.55h0a.75.75,0,0,0,.42-.14h0c.4-.26.77-.52,1-.69h0l-.81-.27c-.17,0-1.09-.42-1.24-.42h0a2.63,2.63,0,0,1-.93-.36h0A2.27,2.27,0,0,1,7,13.08H7c0-.12.06-.74.14-1.26h0A3.16,3.16,0,0,0,5.8,13.28h0s-.48.58-.67.75h0s0,.08,0,.2h0a.94.94,0,0,0,.15.54h0c.07.07.18.21.33.36h0l0,0h0v0h0a1.23,1.23,0,0,0,.74.36h.09a11.15,11.15,0,0,1,1.3-.2h0a.77.77,0,0,1,.48.13ZM14,14.71a.52.52,0,0,0,0,.23h0a1.48,1.48,0,0,0,1.22.92h0l.62,0h0a.55.55,0,0,1-.2-.48h0c0-.09,0-.18,0-.26h0v0h0v0h0a1.26,1.26,0,0,1,.23-.73h0a1.42,1.42,0,0,1,.54-.3h.06l.15,0a4.46,4.46,0,0,0-.57-.49h0l0,0h0c-.53.24-1.48.57-1.47.57h0L14,14.4a2.7,2.7,0,0,0,0,.31ZM7.84,14a2.51,2.51,0,0,0,.82.32h0c.25,0,1.14.4,1.29.43h0l.94.32h0L11,15h0a2.32,2.32,0,0,1,0-.24h0a14.46,14.46,0,0,0,.07-1.65h0a.38.38,0,0,1,0-.1h0l-.18,0h0c-.53,0-1-.52-1.43-1.07h0a1.09,1.09,0,0,1-.26-.66h0a2.53,2.53,0,0,1,.86-1.46h0A3.92,3.92,0,0,1,12.13,9h-.21a4.08,4.08,0,0,0-.83.07h0a8.69,8.69,0,0,0-1.86.52h0c-.29.17-.61.82-1,1h0c-.31.18-.69.34-.8.78h0c0,.09,0,.2-.07.32h0c-.09.53-.15,1.26-.16,1.38h0a2.48,2.48,0,0,0,.6.87Zm6.49-1.26c-.26.13-.42.15-.53.45h0a4,4,0,0,1-.65,1.46h0l.69-.35.66-.33s.95-.33,1.47-.56h0l.27-.14h0a2.5,2.5,0,0,0,0-.32h0L16.2,13h0l-.54.36a.1.1,0,0,1-.14,0h0a.11.11,0,0,1,0-.15h0l.53-.35a.61.61,0,0,0,.17-.15h0a1.23,1.23,0,0,0,.23-.75h0a.31.31,0,0,0,0-.1h0l-1.5.39h0a.1.1,0,0,1-.09,0h0a1.94,1.94,0,0,1-.55.54Zm13.25-.35A2.06,2.06,0,0,0,28.64,14h0a10.26,10.26,0,0,1,2.77-.9h0a2.69,2.69,0,0,0-.62-.6h0a4.38,4.38,0,0,0-.86-.48h0a.1.1,0,0,1-.06-.14h0a.11.11,0,0,1,.14-.06h0a4.53,4.53,0,0,1,.76.41h0a2.54,2.54,0,0,0-.32-.8h0a4.79,4.79,0,0,0-2.23-1.93h0a.6.6,0,0,0,0,.12h0a.06.06,0,0,0,0,0h0c0,.08.08.33.08.51h0a.22.22,0,0,1-.05.16h0l-.12.13h0s-.05,0-.05.05h0c0,.07,0,.41-.15.59h0a.41.41,0,0,0-.13.2h0a3.45,3.45,0,0,1,0,.37h0a.67.67,0,0,1-.11.41h0a.77.77,0,0,1-.12.13h0s0,.07,0,.15Zm-20.34.73ZM27,12.6l0-.11h0a1.49,1.49,0,0,0,.06-.23h0l0-.06.11-.08a.32.32,0,0,1,.21-.06h0l.1-.12h0a.51.51,0,0,0,.06-.28h0c0-.16,0-.3,0-.37h0a.57.57,0,0,1,.21-.37h0s.08-.36.08-.44h0c0-.17.17-.22.21-.29h0s0,0,0,0h0c0-.13-.07-.38-.08-.48h0V9.61h0a.94.94,0,0,1,.06-.29h0l0-.05h0a3.85,3.85,0,0,0,.08-.64h0v0h0v0h0a2.11,2.11,0,0,1,.11-.4h0v0h0a5.22,5.22,0,0,0-.4-1h0c-.1-.24-.58-.29-.58-.29h0l-.07,0a1.58,1.58,0,0,0-1.08-.36H26a4.87,4.87,0,0,0-.78.24h0a4.34,4.34,0,0,0-.44.44h0l0,0h0a1.34,1.34,0,0,0-.18.24h0a3.78,3.78,0,0,0-.3.78h0c0,.14-.26.79-.26,1h0a11.21,11.21,0,0,0,.18,1.37h0a3.43,3.43,0,0,1,.23.66h0v0h0s0,.08,0,.15h0a.37.37,0,0,1,.14,0h0l.1,0h0a2.24,2.24,0,0,0,0-.48h0c0-.06,0-.12,0-.16h0a3.24,3.24,0,0,1-.07-.39h0a.32.32,0,0,1,0-.14h0A.91.91,0,0,1,24.8,10h0a.4.4,0,0,0,.08-.2h0A2,2,0,0,1,25,9.06h0c0-.07.27-.46.32-.57h0a.56.56,0,0,1,.5-.25h0c.1,0,.3,0,.45,0h.12c.1-.06.66-.51.66-.51h0a.12.12,0,0,1,.1,0h0a.14.14,0,0,1,.07.08h0s.08.35.1.47h0a1.88,1.88,0,0,0,.33.42h0a1.27,1.27,0,0,1,.2.66h0a.37.37,0,0,1,0,.08h0l-.73,1.17v.05l-.1,1-.21.73a2.44,2.44,0,0,0,.16.23Zm-9.56-.54a1,1,0,0,0,.28.09h0c.1,0,.05,0,.07-.07h0A.35.35,0,0,1,18,11.8h0l0,0h0l-.14-.16a.11.11,0,0,1,0-.15h0a.1.1,0,0,1,.15,0h0l.17.18a.47.47,0,0,0,.16,0h0l.15-.15h0l0,0h0l.05,0h0l0,0h0s.08.07.09.06h0s0,0,0-.09h0a10.92,10.92,0,0,1,.44-1.26h0l.08-.16h0a2,2,0,0,1-.53-.25h0l-.27-.2a.56.56,0,0,1-.14.35h0a.44.44,0,0,1-.32.17h-.06s-.26.19-.38.27h0a1.41,1.41,0,0,1-.71.34h0a4,4,0,0,1-.61.07h0a.59.59,0,0,1-.27,0h0a.22.22,0,0,0-.1,0h0c-.1,0-.22,0-.34,0h0a.24.24,0,0,1-.24-.13h0l-.05-.1h0a1.82,1.82,0,0,1,0,.32h0a2.12,2.12,0,0,1-.09.57h0A2.72,2.72,0,0,1,15,12h0l1.45-.37h.08l.09.05.61.33h0l.19.09Zm3.68-.28a.73.73,0,0,0,.28.06h0a.59.59,0,0,0,.33-.09h0c.36-.22.6-.21.59-.33h0v-.05h0a1,1,0,0,0,0-.16h0c-.14-.51,0-.29-.18-.42h0a2.4,2.4,0,0,1-.24-.24h-.07s0,0,0,0h0s0,0,0,0h0s0,0,0,.06h0l.08.14h0l.15.26h0a.1.1,0,0,1,0,.14h0a.1.1,0,0,1-.14,0h0L21.72,11h0l-.37-.21a.64.64,0,0,0-.4-.12h0l-.25,0h0l-.18,0h0a1.87,1.87,0,0,0-.74.25h0l-.24.11h0a.34.34,0,0,0,.27.11H20l0,0h0a.23.23,0,0,1,.18-.09h0a.17.17,0,0,1,.16.09h0s.65.63.65.64h0l.13,0Zm.69-1.45a.4.4,0,0,1,.21.07h0a2.68,2.68,0,0,0,.23.22h0c.11.07.17.1.25.54h0a.89.89,0,0,1,0,.14h0a1.31,1.31,0,0,0,.38-.12h0a.29.29,0,0,0,.15-.12h0a.39.39,0,0,0,.07-.23h0a.86.86,0,0,0-.08-.33h0c-.19-.46-1.07-.88-1.37-1h0l-.13,0h-.08a1.24,1.24,0,0,0-.55.31h0c-.08,0-.12.44-.13.61h.15a.86.86,0,0,1,.51.15h0l.12.07v0h0a.29.29,0,0,1,.06-.17h0a.22.22,0,0,1,.18-.09h0ZM19.5,11ZM25,10s.28.88.61,1h0a2.23,2.23,0,0,0,1.26-.41h0l.29-.46-.25,0h0v0a.12.12,0,0,1-.13.08h0a.11.11,0,0,1-.08-.13h0l0-.06c-.09,0-.14-.07-.14-.08h0a.11.11,0,0,1,0-.15h0a.1.1,0,0,1,.14,0h0a1.66,1.66,0,0,0,.58.17h0l.33-.52h0a1.49,1.49,0,0,0-.14-.5h0a1.63,1.63,0,0,1-.4-.55h0A1.66,1.66,0,0,0,27.1,8h0c-.17.13-.46.36-.56.42h0a.41.41,0,0,1-.22,0h0a3.35,3.35,0,0,1-.47-.05h0c-.09,0-.31.09-.31.14h0l-.34.6h0a2,2,0,0,0-.11.62h0A.55.55,0,0,1,25,10h0Zm-8.86.5a.45.45,0,0,0,.17,0h0a4.2,4.2,0,0,0,.58-.07h0a1.28,1.28,0,0,0,.63-.3h0c.13-.07.3-.29.5-.31h.05s.05,0,.17-.11h0a.56.56,0,0,0,.09-.33h0V9.37h0a.09.09,0,0,1,.05-.1h0a.09.09,0,0,1,.11,0h0L19,9.6a2.72,2.72,0,0,0,.61.27h0a.6.6,0,0,0,.23.06h0c.26-.06.19-.09.22-.17h0a2,2,0,0,0,.07-.45h0c0-.24-.06-.44-.3-.51h0l-.07-.06s-.27-.58-.7-.56H19l-.08,0a4.14,4.14,0,0,0-.39-.23h0a2,2,0,0,0-.87-.22h-.24a4.57,4.57,0,0,0-.7-.06h0c-.44,0-.83.11-.84.36h0a.1.1,0,0,1-.08.1h0a3.82,3.82,0,0,0-.51.12h0c-.26.07-.47.22-.45.28h0v0h0a.11.11,0,0,1-.08.11h0l-.15,0h0c-.07,0-.24.2-.23.33h0a.17.17,0,0,0,0,.07h0a0,0,0,0,0,0,0h0a2.2,2.2,0,0,1,.28.18h0a2,2,0,0,1,.56.68h0a.36.36,0,0,1,0,.09h0a.89.89,0,0,1,.36.41h.05l.34,0h0a.35.35,0,0,1,.2,0ZM10.35,23.76Zm10.63-1a.11.11,0,0,1,0-.15h0a.62.62,0,0,1-.14-.14h0a.11.11,0,0,1,0-.15h0a.11.11,0,0,1,.15,0h0c0,.08.37.2.37.19h0a.11.11,0,0,1,.08.13h0a.1.1,0,0,1-.13.07h0a.55.55,0,0,1-.15,0h0l-.09.08a.08.08,0,0,1-.07,0h0a.11.11,0,0,1-.08,0Zm6.65-3.22-.08-.09-.3.06a.11.11,0,0,1-.12-.08h0a.11.11,0,0,1,.08-.13h0l.87-.18a.11.11,0,0,1,.12.08h0a.11.11,0,0,1-.08.13h0l-.34.07h0a.12.12,0,0,1,0,.15h0l-.07,0h0a.11.11,0,0,1-.08,0Zm.07-4.13Zm-6.83-1.15a.11.11,0,0,1,0-.15h0s.26-.39.56-.42h0a.22.22,0,0,1,.14.06h0a.1.1,0,0,1,0,.14h0a.1.1,0,0,1-.15,0h0a0,0,0,0,1,0,0h0l0,.05a.1.1,0,0,1,0,.15h0a.1.1,0,0,1-.14,0h0l0-.06h0l-.19.21h0a.09.09,0,0,1-.08,0h0l-.06,0ZM26,10.83a.62.62,0,0,1-.39-.15h0a.11.11,0,0,1,0-.15h0a.11.11,0,0,1,.15,0h0a.51.51,0,0,0,.27.1h0a.12.12,0,0,1,.1.11h0a.1.1,0,0,1-.1.1h0Zm-7.24,0-.19-.13-.05.08a.11.11,0,0,1-.15,0h0a.11.11,0,0,1,0-.15h0l.05-.07-.16-.12a.1.1,0,0,1,0-.14h0a.1.1,0,0,1,.14,0h0l.53.35a.11.11,0,0,1,0,.15h0a.11.11,0,0,1-.09.05h0l0,0Zm7.32-.32c-.19,0-.29-.06-.3-.17h0a.12.12,0,0,1,0-.08h0a.11.11,0,0,1,.15,0h0s0,0,0,0h0a.2.2,0,0,0,.11,0h0a.12.12,0,0,1,.1.11h0a.11.11,0,0,1-.11.1Zm-.4-.82a.1.1,0,0,1-.09-.12h0V9.47a1.15,1.15,0,0,1-.23-.11h0a.1.1,0,0,1,0-.14h0a.11.11,0,0,1,.15,0h0a1.28,1.28,0,0,0,.58.18h0a.11.11,0,0,1,.1.1h0a.11.11,0,0,1-.11.11h0a1.09,1.09,0,0,1-.25,0h0v.05a.12.12,0,0,1-.11.09h0Z"/>
      <path class="a" d="M30.77,29.56c-.63-.19-.87-.47-.87-.75h0a1,1,0,0,1,.36-.63h0a.09.09,0,0,1,.13,0h0a.11.11,0,0,1,0,.14h0s-.3.25-.29.48h0c0,.16.12.38.74.57h0a.1.1,0,0,1,.06.12h0a.09.09,0,0,1-.09.06h0Z"/>
      <path class="a" d="M38.33,28.94a.1.1,0,0,1-.09-.12h0a2.82,2.82,0,0,0,0-.34h0c0-1.06-.27-3.58-.27-5.26h0a6.36,6.36,0,0,1,.08-1.17h0a8.49,8.49,0,0,0,.11-1.37h0a8.72,8.72,0,0,0-.11-1.42h0a.09.09,0,0,1,.08-.12h0a.11.11,0,0,1,.12.09h0a8.17,8.17,0,0,1,.12,1.45h0a8.05,8.05,0,0,1-.12,1.41h0a6.84,6.84,0,0,0-.07,1.13h0c0,1.67.26,4.18.26,5.26h0c0,.15,0,.27,0,.37h0a.11.11,0,0,1-.11.09h0Z"/>
    </g>
    <path class="a" d="M35,15.46a.1.1,0,0,1,0-.14h0l.84-.84a.11.11,0,0,1,.15,0h0a.11.11,0,0,1,0,.15h0l-.84.83a.09.09,0,0,1-.07,0h0a.09.09,0,0,1-.08,0Z"/>
    <path class="a" d="M36.21,30.07S35,28.78,33.84,27.51h0a.11.11,0,0,1,0-.15h0a.1.1,0,0,1,.15,0h0c1.13,1.27,2.37,2.55,2.37,2.55h0a.11.11,0,0,1,0,.15h0a.13.13,0,0,1-.08,0h0a.11.11,0,0,1-.07,0ZM16.68,29.3a.1.1,0,0,1,0-.15h0s1.11-1,1.22-1.4h0c.18-.38.34-.81.34-.81h0a8.35,8.35,0,0,0,.42-1.69h0a.09.09,0,0,1,.12-.07h0a.11.11,0,0,1,.08.13h0a9.75,9.75,0,0,1-.43,1.7h0a7.9,7.9,0,0,1-.35.82h0a5.68,5.68,0,0,1-1.27,1.48h0a.11.11,0,0,1-.07,0h0a.09.09,0,0,1-.08,0Zm2.11-5.69c-.22-.75-2-1.46-2-1.46h0a.1.1,0,0,1-.06-.14h0a.1.1,0,0,1,.13-.06h0s1.78.67,2.1,1.6h0a.12.12,0,0,1-.07.13h0a.09.09,0,0,1-.1-.07Zm-4.7,0a.11.11,0,0,1,0-.15h0a2,2,0,0,1,1.51-.56h0l.77,0h0a.1.1,0,0,1,.11.1h0a.11.11,0,0,1-.11.11h0l-.77,0h0a1.73,1.73,0,0,0-1.35.49h0a.11.11,0,0,1-.08,0h0a.1.1,0,0,1-.07,0Zm17.36-.9a10.46,10.46,0,0,1-.08-1.3h0c0-.2,0-.31,0-.31h0a.1.1,0,0,1,.11-.1h0a.1.1,0,0,1,.09.11h0v.3h0a11.83,11.83,0,0,0,.07,1.28h0a.09.09,0,0,1-.09.11h0a.09.09,0,0,1-.1-.09Zm-19.17-.84s-.33-1-.56-2.13h0a7.46,7.46,0,0,1-.16-1.49h0a4.17,4.17,0,0,1,0-.44h0a.11.11,0,0,1,.12-.09h0a.11.11,0,0,1,.09.12h0a3.24,3.24,0,0,0,0,.41h0a7.06,7.06,0,0,0,.16,1.45h0c.22,1.09.55,2.1.55,2.11h0a.12.12,0,0,1-.07.13h0a.1.1,0,0,1-.1-.07Zm11-.56a.11.11,0,0,1-.07-.14h0s.71-2.29,1.29-2.57h0a.1.1,0,0,1,.13.06h0a.1.1,0,0,1-.06.13h0a3.29,3.29,0,0,0-.73,1.27h0c-.24.6-.43,1.18-.43,1.18h0a.11.11,0,0,1-.1.07h0Zm6.3-1.9a.11.11,0,0,1-.06-.14h0a8.19,8.19,0,0,0,.27-1.1h0a.1.1,0,0,1,.12-.09h0a.1.1,0,0,1,.08.12h0a7,7,0,0,1-.28,1.14h0a.09.09,0,0,1-.1.07h0ZM30,19a.1.1,0,0,1,.1-.1h0L32,18.8a1.91,1.91,0,0,0,.64-.2h0a.1.1,0,0,1,.14,0h0a.11.11,0,0,1,0,.15h0a2.35,2.35,0,0,1-.73.23h0l-1.9.09h0A.1.1,0,0,1,30,19Zm-8.73-1.2a3,3,0,0,1-.61-.06h0a.09.09,0,0,1-.08-.12h0a.09.09,0,0,1,.12-.08h0a3.23,3.23,0,0,0,.57.05h0a1.32,1.32,0,0,0,1.4-.82h0a.1.1,0,0,1,.13-.07h0a.12.12,0,0,1,.07.13h0a1.52,1.52,0,0,1-1.58,1h0Zm9.89-1.17c-.05-1-.69-1.11-1.08-1.12H29.9a.12.12,0,0,1-.13-.09h0a.11.11,0,0,1,.08-.12h0a2,2,0,0,1,.27,0h0a1.22,1.22,0,0,1,1.29,1.32h0a.1.1,0,0,1-.1.11h0a.11.11,0,0,1-.11-.1Zm-8.84-2a.1.1,0,0,1,0-.14h0a.63.63,0,0,0,.28-.23h0a5.24,5.24,0,0,0-.63-.37h0a.26.26,0,0,1-.19-.23h0a.38.38,0,0,1,.17-.27h0a.09.09,0,0,1,.14,0h0a.1.1,0,0,1,0,.14h0s-.1.09-.08.11h0s0,0,.05,0h0a5.09,5.09,0,0,1,.74.44h0l0,.11a.71.71,0,0,1-.41.43h-.05a.09.09,0,0,1-.09-.06Z"/>
    <path class="a" d="M18.82,23.57a.1.1,0,0,1,0-.14h0l.2-.17a.11.11,0,0,1,.15,0h0a.11.11,0,0,1,0,.15h0l-.2.17-.07,0h0a.09.09,0,0,1-.08,0Z"/>
    <path class="a" d="M112.71,33.45a2.72,2.72,0,0,0,2.22,1,2.18,2.18,0,0,0,2.46-2.08,2.13,2.13,0,0,0-1.31-1.8v0a2,2,0,0,0,1.12-1.71,2.07,2.07,0,0,0-2.28-2,3,3,0,0,0-2,1,.22.22,0,0,0,0,.29l.4.36a.2.2,0,0,0,.29,0,1.67,1.67,0,0,1,1.26-.6A1.19,1.19,0,0,1,116.1,29c0,.64-.51,1.16-1.53,1.16H114c-.16,0-.22.07-.22.23v.47a.21.21,0,0,0,.21.23h.6c1.17,0,1.72.62,1.72,1.27a1.25,1.25,0,0,1-1.36,1.18,2.18,2.18,0,0,1-1.48-.68.18.18,0,0,0-.29,0l-.42.39a.18.18,0,0,0,0,.26m-3.27,0c-1.18,0-1.58-1.24-1.5-2.15a1.74,1.74,0,0,1,1.49-.83,1.49,1.49,0,0,1,0,3m-2.55-2.07c0,1.68.82,3.05,2.56,3.05a2.48,2.48,0,0,0,2.43-2.49,2.26,2.26,0,0,0-2.27-2.36,3.19,3.19,0,0,0-1.45.4,4.42,4.42,0,0,1,2.59-2.4c.2-.07.25-.19.19-.32l-.18-.44a.19.19,0,0,0-.27-.13c-1,.38-3.6,1.66-3.6,4.69m-5,1a1.39,1.39,0,0,1,2.77,0,1.26,1.26,0,0,1-1.4,1.19,1.28,1.28,0,0,1-1.37-1.19M103.26,30c-.85-.13-1.22-.57-1.22-1.16a1.14,1.14,0,0,1,1.18-1.14,1.16,1.16,0,0,1,1.25,1.14c0,.58-.38,1.05-1.21,1.16m-2.52,2.33a2.21,2.21,0,0,0,2.49,2.09c1.58,0,2.54-.9,2.54-2.09a2.17,2.17,0,0,0-1.32-1.81v-.05a2,2,0,0,0,1.12-1.67,2.34,2.34,0,0,0-4.63,0,2,2,0,0,0,1.12,1.68v0a2.28,2.28,0,0,0-1.32,1.81m-5.22,2h3.79a.19.19,0,0,0,.2-.19v-.47a.2.2,0,0,0-.2-.21h-1.2V27.12a.2.2,0,0,0-.19-.2h-.54l-1.62,1.46a.24.24,0,0,0,0,.22l.13.38c0,.1.14.12.24.08l1-.48v4.86H95.52a.2.2,0,0,0-.2.21v.47a.19.19,0,0,0,.2.19m-9.91-3.79a2.83,2.83,0,1,1,5.65,0,2.83,2.83,0,0,1-5.65,0m-1.08,0a3.91,3.91,0,1,0,3.9-3.93,3.88,3.88,0,0,0-3.9,3.93M76.65,34.1a.22.22,0,0,0,.21.21h.69a.21.21,0,0,0,.2-.21V28.81h0l4.72,5.61h.29a.21.21,0,0,0,.2-.2V26.9a.22.22,0,0,0-.2-.2h-.7a.21.21,0,0,0-.21.2v5.15h0l-4.72-5.46h-.27a.21.21,0,0,0-.21.2Zm-6-2.38,1.33-3h0l1.34,3Zm-2,2.59h.68a.28.28,0,0,0,.25-.16c.22-.5.45-1,.67-1.49h3.55l.68,1.49a.25.25,0,0,0,.25.16h.68a.2.2,0,0,0,.19-.28l-3.32-7.32a.24.24,0,0,0-.18-.12H72a.24.24,0,0,0-.19.12L68.43,34a.19.19,0,0,0,.19.28m-5.14-.21a.21.21,0,0,0,.21.21h3.87a.21.21,0,0,0,.21-.21v-.59a.21.21,0,0,0-.21-.21H64.62V26.9a.22.22,0,0,0-.21-.2h-.72a.21.21,0,0,0-.21.2Zm-3.24,0a.22.22,0,0,0,.21.21h.72a.21.21,0,0,0,.2-.21V26.9a.21.21,0,0,0-.2-.2h-.72a.22.22,0,0,0-.21.2Zm-10,0a.2.2,0,0,0,.21.25h.71a.2.2,0,0,0,.19-.15l.78-4.86h.05l2,5a.18.18,0,0,0,.18.12h.2a.18.18,0,0,0,.18-.12l2-5h0l.81,4.86a.21.21,0,0,0,.2.15h.71a.19.19,0,0,0,.2-.25l-1.34-7.31a.23.23,0,0,0-.2-.16h-.17a.2.2,0,0,0-.19.12l-2.26,5.56h0l-2.28-5.56a.21.21,0,0,0-.18-.12h-.17a.23.23,0,0,0-.2.16Z"/>
    <path class="a" d="M141.85,16.11a3.57,3.57,0,1,1,3.56,3.56,3.59,3.59,0,0,1-3.56-3.56m-2,0a5.59,5.59,0,1,0,5.58-5.6,5.54,5.54,0,0,0-5.58,5.6m-10.83,0a5.57,5.57,0,0,0,5.61,5.58,5.37,5.37,0,0,0,3.78-1.5.3.3,0,0,0,0-.42l-1-1a.29.29,0,0,0-.39,0,3.73,3.73,0,0,1-2.38.89,3.52,3.52,0,0,1-3.48-3.59,3.52,3.52,0,0,1,3.47-3.62,3.68,3.68,0,0,1,2.39.91.24.24,0,0,0,.39,0l.95-1a.3.3,0,0,0,0-.44,5.25,5.25,0,0,0-3.76-1.44,5.59,5.59,0,0,0-5.61,5.6m-4.07,5.13a.31.31,0,0,0,.3.3h1.44a.31.31,0,0,0,.3-.3V11a.31.31,0,0,0-.3-.3h-1.44a.31.31,0,0,0-.3.3Zm-11.85,0a.31.31,0,0,0,.29.3h1.42a.29.29,0,0,0,.29-.3V14.56h0l6.49,7.13H122a.29.29,0,0,0,.3-.28V11a.31.31,0,0,0-.3-.3h-1.42a.29.29,0,0,0-.3.3v6.41h0l-6.46-6.86h-.39a.29.29,0,0,0-.29.28Zm-11.45-5.13a5.57,5.57,0,0,0,5.61,5.58,5.33,5.33,0,0,0,3.77-1.5.3.3,0,0,0,0-.42l-1-1a.28.28,0,0,0-.38,0,3.75,3.75,0,0,1-2.38.89,3.52,3.52,0,0,1-3.48-3.59,3.52,3.52,0,0,1,3.46-3.62,3.73,3.73,0,0,1,2.4.91.23.23,0,0,0,.38,0l1-1a.29.29,0,0,0,0-.44,5.25,5.25,0,0,0-3.76-1.44,5.59,5.59,0,0,0-5.61,5.6m-8.5,5.13a.3.3,0,0,0,.3.3h6.32a.29.29,0,0,0,.29-.3V20a.29.29,0,0,0-.29-.3h-4.6V17H99a.29.29,0,0,0,.29-.29V15.37a.31.31,0,0,0-.29-.3H95.15V12.53h4.6a.29.29,0,0,0,.29-.3V11a.29.29,0,0,0-.29-.3H93.43a.3.3,0,0,0-.3.3Zm-6.48,0a.31.31,0,0,0,.3.3h1.44a.31.31,0,0,0,.3-.3V12.53h2.37a.29.29,0,0,0,.3-.3V11a.29.29,0,0,0-.3-.3H84.28a.29.29,0,0,0-.3.3v1.27a.29.29,0,0,0,.3.3h2.37Zm-6.66,0a.31.31,0,0,0,.29.3h1.45a.31.31,0,0,0,.29-.3V11a.31.31,0,0,0-.29-.3H80.28A.31.31,0,0,0,80,11Zm-8.31,0a.29.29,0,0,0,.29.3h5.69a.29.29,0,0,0,.29-.3V20a.29.29,0,0,0-.29-.3h-4V11a.31.31,0,0,0-.3-.3H72a.29.29,0,0,0-.29.3ZM60.89,16.11a3.57,3.57,0,1,1,3.56,3.56,3.59,3.59,0,0,1-3.56-3.56m-2,0a5.59,5.59,0,1,0,5.58-5.6,5.54,5.54,0,0,0-5.58,5.6m-6.58-.41V12.57h1.8a1.55,1.55,0,0,1,1.6,1.51,1.6,1.6,0,0,1-1.6,1.62Zm-2,5.54a.29.29,0,0,0,.29.3H52a.31.31,0,0,0,.3-.3V17.59h1.94a3.47,3.47,0,1,0,0-6.93H50.56a.29.29,0,0,0-.29.3Z"/>
  </g>
</svg>