<svg width="358" height="169.8125" xmlns="http://www.w3.org/2000/svg" version="1.1" xml:space="preserve">

 <g>
  <title>Layer 1</title>
  <g id="svg_1" transform="matrix(4.18638, 0, 0, -4.18638, -1706.65, 1348.55)">
   <g id="svg_2" transform="matrix(0.25, 0, 0, 0.25, 338.38, 226.89)">
    <path id="svg_3" d="m454.86064,298.40552l-2.63128,-2.97656c-1.128,-1.284 -1.72184,-2.50592 -1.72184,-4.38592l0,-0.3125l-1.8172,0l-0.94064,-1.09688l0,-0.53125l2.75784,0l0,-11.5592l-2.19376,-0.3125l0.15781,-1.0984l3.6016,0.09531l4.85472,-0.09531l0.15625,1.19216l-3.6016,0.21875l0,11.5592l3.9156,0l0,1.47184l-3.9156,0l0,0.93904c0,2.03504 0.21881,2.94408 0.65781,3.53904l0.59531,0.84688l4.07184,0l0,2.50624l-3.94688,0l0.00002,0.00006zm-178.024,-0.2832l-0.15625,-1.0968l2.82032,-0.40625l0,-12.7184c0,-4.98 2.19096,-8.3 8.3608,-8.3c6.234,1.442 7.89528,4.16704 7.89528,8.2392l0,12.78l2.66248,0.40625l-0.15782,1.09688l-3.66408,-0.09375l-4.00936,0.09375l-0.15625,-1.09688l2.81872,-0.40625l0,-13.0936c0,-4.00904 -1.818,-6.20312 -5.07504,-6.20312c-3.57104,0 -5.22968,2.2248 -5.22968,6.10784l0,13.1888l2.66096,0.40625l-0.15625,1.09688l-4.29064,-0.09375l-4.32344,0.09375l0.00024,-0.0008zm45.8984,-0.1875l-2.25624,-0.15782l-0.3125,-1.50312l0.1875,-1.75472l0.84528,-0.1875l2.22496,0.1875l0.34375,1.50472l-0.15625,1.75312l-0.87656,0.15782l0.00005,0zm66.592,0l-2.25472,-0.15782l-0.31406,-1.50312l0.18906,-1.75472l0.84376,-0.1875l2.22496,0.1875l0.34531,1.50472l-0.15781,1.75312l-0.87656,0.15782l0.00006,0zm8.7312,-3.1328l-2.03592,-2.03752l0,-2.0344l-2.03592,0l-1.09688,-1.09688l0,-0.53282l3.03752,0l0,-9.3328c0,-2.82 0.47013,-4.07344 3.97816,-4.07344l3.6656,2.03592l-0.53281,1.0656c-0.87696,-0.438 -1.566,-0.75157 -2.47504,-0.75157c-1.31504,0 -1.65936,0.97016 -1.65936,1.87816l0,9.1784l4.6984,0l0,1.40936l-4.72968,0l0,4.29216l-0.81408,0l0.00001,-0.00018zm-47.1512,-3.44528c-4.292,-0.94 -7.07816,-3.4156 -7.07816,-8.0512c0,-4.91696 3.41368,-7.61096 7.20472,-7.61096c2.004,0.564 3.97728,1.44 5.48128,2.47504l-0.50156,1.19064c-1.15904,-0.721 -2.6636,-1.3156 -3.9156,-1.3156c-3.29,0 -5.2,2.53784 -5.2,6.10784l9.5528,0l0,1.3156c0,3.28896 -1.40872,5.88904 -5.54376,5.88904l0.00028,-0.0004zm26.8312,0c-3.63296,-0.783 -5.66872,-2.00544 -5.66872,-4.1984c0,-1.75296 1.28424,-2.94384 2.63128,-3.6328l2.47504,-1.2844c1.628,-0.846 2.28592,-1.378 2.28592,-2.6c0,-1.316 -0.84624,-2.37968 -2.50624,-2.37968c-1.002,0 -1.9092,0.34381 -2.5672,0.78281l-1.0656,2.5984l-2.00464,0l0.59531,-3.53904c0.814,-0.47 2.84896,-1.40936 4.76096,-1.40936c3.602,0.783 5.88904,1.84816 5.88904,4.6672c0,1.78496 -0.84576,2.9756 -2.94376,4.04064l-2.41248,1.22184c-1.41,0.72 -2.19216,1.348 -2.19216,2.35c0,1.19 1.15768,1.84688 2.37968,1.84688c1.12704,0 2.06672,-0.50106 2.37968,-0.68906l0.72187,-2.3172l1.65936,0l0,3.13128c-0.908,0.658 -2.7252,1.41096 -4.4172,1.41096l-0.00014,-0.00006zm61.528,0c-4.85504,-0.81504 -7.70624,-3.4776 -7.70624,-8.1768c0,-4.26 2.81936,-7.48592 6.9844,-7.48592c4.856,0.783 7.70624,3.47672 7.70624,8.144c0,4.26 -2.8184,7.51872 -6.9844,7.51872zm-130.224,-0.0016l-4.6344,-3.03752l-0.15781,2.63128l-1.34528,-0.09375l-3.75936,-0.97032l0.15625,-1.09688l2.19216,0.1875l0,-11.4328l-2.19216,-0.31406l0.15625,-1.09528l3.60312,0.09375l2.97504,-0.09375l0.15625,1.09528l-1.72184,0.31406l0,9.272l0.93904,0.62657c1.06496,0.72 2.16184,1.40784 3.25784,1.40784c1.34704,0 2.06872,-0.71943 2.06872,-2.34848l0,-8.9576l-1.5672,-0.31406l0.15625,-1.09528l3.00784,0.09375l3.6016,-0.09375l0.15625,1.09528l-2.37968,0.31406l0,8.708c0,3.75904 -0.65875,5.10472 -4.66872,5.10472l-0.00015,-0.00056zm58.1296,-0.15625l-3.57184,-4.3844l-0.06096,4.1344l-1.25312,-0.09375l-3.75936,-0.97032l0.15626,-1.09688l2.19376,0.18906l0,-11.4344l-2.19376,-0.31406l0.15625,-1.09688l3.50784,0.09531l4.54376,-0.09531l0.15625,1.19216l-3.28904,0.3125l0,7.45472l0.625,0.75156c0.846,1.034 2.22456,2.068 2.97656,2.22496l2.31872,0l0,3.13128l-2.50624,0l-0.00007,0.00005zm-43.7168,-0.21875l-1.5656,-0.125l-3.75936,-0.97032l0.15782,-1.09688l2.19064,0.1875l0,-11.4328l-2.19064,-0.31406l0.15469,-1.09528l3.60312,0.09375l3.6016,-0.09375l0.15625,1.09528l-2.3484,0.31406l0,13.4376l-0.00011,-0.0001zm66.592,0l-1.5656,-0.125l-3.75936,-0.97032l0.15626,-1.09688l2.19376,0.1875l0,-11.4328l-2.19376,-0.31406l0.15781,-1.09528l3.6016,0.09375l3.6016,-0.09375l0.15781,1.09528l-2.35,0.31406l0,13.4376l-0.00011,-0.0001zm-63.5936,-0.06248l-0.15625,-1.09688l1.94216,-0.3125l5.45,-13.8144l2.28592,0.94064l5.13752,12.8736l2.00472,0.3125l-0.15625,1.09688l-2.6,-0.09375l-2.75624,0.09375l-0.15625,-1.09688l1.44064,-0.3125l-3.79064,-11.3392l-0.25,2.16096l-3.4156,9.1784l2.0672,0.3125l-0.15625,1.09688l-3.28904,-0.09375l-3.6016,0.09375l-0.00005,0zm78.8856,0l-0.15625,-1.09688l1.94064,-0.3125l5.10624,-13.2184l1.25312,0.37657l-3.1016,-4.72968l-2.69376,0l0,-3.1328l3.72816,0l3.50784,7.89376l4.91872,12.8112l2.00472,0.3125l-0.15781,1.09688l-2.6,-0.09375l-2.75624,0.09375l-0.15626,-1.09688l1.44064,-0.3125l-3.72816,-11.3392l-0.25,2.16096l-3.31872,9.1784l2.0656,0.3125l-0.15625,1.09688l-3.28904,-0.09375l-3.6016,0.09375l0,-0.00081zm33.1424,-1.09688c2.726,0 4.63592,-2.66264 4.63592,-6.64064c0,-3.38304 -1.28408,-5.95 -3.78904,-5.95c-2.788,0 -4.63752,3.0368 -4.63752,6.60784c0,3.414 1.2536,5.9828 3.79064,5.9828zm-88.168,-0.02968c2.412,0 2.8828,-1.66144 2.8828,-4.07344l-6.2656,-0.3125c0.25,2.6 1.47184,4.38592 3.3828,4.38592l0,0.00002zm-14.5736,-24.8704c-12.6448,0 -21.3032,-8.4312 -21.3032,-20.792s8.6584,-20.7904 21.3032,-20.7904c5.35504,0 9.9128,1.42472 14.0144,4.44376l-3.1344,4.44216c-3.36096,-2.39296 -7.06304,-3.64528 -11.0496,-3.64528c-9.1712,0 -15.5504,6.322 -15.5504,15.5504c0,9.228 6.37904,15.5512 15.5504,15.5512c3.98704,0 7.68896,-1.25232 11.0496,-3.64528l3.1344,4.44376c-4.10096,3.01904 -8.6592,4.44216 -14.0144,4.44216l0,-0.00048zm94.736,0c-12.6448,0 -21.3032,-8.4312 -21.3032,-20.792s8.6584,-20.7904 21.3032,-20.7904c5.35504,0 9.9112,1.42472 14.0128,4.44376l-3.1328,4.44216c-3.36,-2.39296 -7.06304,-3.64528 -11.0496,-3.64528c-9.1712,0 -15.5512,6.322 -15.5512,15.5504c0,9.228 6.38056,15.5512 15.5512,15.5512c3.98704,0 7.69,-1.25232 11.0496,-3.64528l3.1328,4.44376c-4.10096,3.01904 -8.6576,4.44216 -14.0128,4.44216l0,-0.00048zm132.072,0l-18.628,-40.728l5.75312,0l4.95624,11.164l16.4048,0l4.95624,-11.164l5.75312,0l-18.6264,40.728l-0.56875,0l-0.00037,0zm-192.976,-0.28438l0,-40.4456l5.12656,0l0,22.5016c0,3.24704 -0.1705,5.58232 -0.5125,7.12032l0.17187,0.05624c0.57,-1.25296 1.8228,-3.0752 3.1328,-4.44216l24.3232,-25.8048l0.45468,0l0,40.444l-5.12656,0l0,-22.444c0,-3.304 0.22831,-5.63856 0.57031,-7.17656l-0.22812,-0.05624c-0.513,1.25296 -1.76584,3.0752 -3.1328,4.44216l-24.2656,25.8048l-0.51406,0l0.00022,0.00024zm94.744,0l0,-40.4456l5.12656,0l0,22.5016c0,3.24704 -0.1715,5.58232 -0.5125,7.12032l0.17031,0.05624c0.569,-1.25296 1.8228,-3.0752 3.1328,-4.44216l24.3216,-25.8048l0.45782,0l0,40.444l-5.12656,0l0,-22.444c0,-3.304 0.22675,-5.63856 0.56875,-7.17656l-0.22813,-0.05624c-0.513,1.25296 -1.76584,3.0752 -3.1328,4.44216l-24.2672,25.8048l-0.51094,0l0.00028,0.00024zm41.8752,0l0,-40.4456l5.12816,0l0,22.5016c0,3.24704 -0.17206,5.58232 -0.51406,7.12032l0.17187,0.05624c0.569,-1.25296 1.8228,-3.0752 3.1328,-4.44216l24.3232,-25.8048l0.45469,0l0,40.444l-5.12656,0l0,-22.444c0,-3.304 0.22831,-5.63856 0.57031,-7.17656l-0.22812,-0.05624c-0.512,1.25296 -1.76584,3.0752 -3.1328,4.44216l-24.2656,25.8048l-0.51406,0l0.00018,0.00024zm-150.8,-0.57031l0,-39.8736l5.12656,0l0,39.8736l-5.12656,0zm94.736,0l0,-39.8736l5.12656,0l0,39.8736l-5.12656,0zm128.488,0l0,-4.8984l10.2528,0c0.683,0 1.026,0.0008 1.42496,0.17187l0.11406,-0.11406c-0.114,-0.28501 -0.17187,-0.74119 -0.17187,-1.3672l0,-33.6656l5.12656,0l0,33.6656c0,0.626 -0.05632,1.08216 -0.17031,1.3672l0.05624,0.11406c0.398,-0.171 0.79826,-0.17187 1.48128,-0.17187l10.1968,0l0,4.8984l-28.3112,0l0.00068,0zm33.2592,0l0,-39.8736l5.12656,0l0,39.8736l-5.12656,0zm-49.156,-8.1456l0.22812,0c0.114,-1.02496 0.628,-2.62032 1.42496,-4.67032l3.53128,-8.3168c0.741,-1.766 1.3096,-2.67688 1.7656,-3.24688l-0.05624,-0.05784c-0.513,0.05696 -1.42464,0.11406 -3.19064,0.11406l-7.17656,0c-1.766,0 -2.67864,-0.05704 -3.19064,-0.11406l-0.05624,0.05784c0.456,0.57 1.02464,1.48088 1.7656,3.24688l3.53128,8.3168c0.798,2.05 1.3104,3.64528 1.42344,4.67032l0.00004,0z"/>
    <path id="svg_4" fill="#e00122" d="m464.42064,376.33832l0,-5.58904l10.0344,0l0,-48.6984c0,-19.5112 12.7176,-29.644 32.0768,-29.964c7.40304,-8.2304 17.8808,-13.9752 29.7832,-15.672c0.93904,-0.139 1.83296,-0.235 2.57504,-0.3l0,5.55c-0.95696,0.165 -1.62184,0.32031 -1.62184,0.32031c-18.2392,4.642 -31.6888,20.1656 -31.6888,40.0656c0,15.2472 8.9144,27.5768 22.0816,34.4888l0,7.49216c-18.9232,-6.19696 -32.4936,-22.196 -32.4936,-41.9816c0,-9.784 2.55088,-17.4288 6.99688,-24.2752c-11.7024,2.056 -16.7456,10.2192 -16.7456,24.2752l0,54.2872l-0.01248,0l-20.984,0l-0.0016,0.00097zm55.3048,-0.02969l0,-5.58592l19.1488,0l0,5.58592l-19.1488,0zm25.368,-9.7296c-2.114,0 -4.19728,-0.12375 -6.24528,-0.36875l0.04064,-44.1592c0,-8.5888 -1.23992,-13.6576 -5.63592,-19.0624c-4.836,5.336 -5.6,11.3968 -5.6,19.0624c0,4.084 0.0064,23.5144 0.0064,23.5144c-6.418,-6.208 -10.4312,-13.92 -10.4312,-23.5144c0,-20.072 15.4992,-35.7472 34.4144,-35.7472c6.49104,0 13.9792,1.58712 19.4424,5.30312l-1.37808,2.05784c-7.374,-3.764 -22.3432,-4.63808 -31.4888,3.92184c7.73296,5.70704 11.6328,13.0112 11.6328,24.464l0,39.2856c12.9512,0 20.7176,-7.70328 21.136,-16.5312l4.8172,-0.94688l3.37504,19.6528l-5.73592,1.1156l-0.7,-4.19376c-10.3448,5.20304 -19.0248,6.14528 -27.6488,6.14528l-0.00088,0.00091z"/>
   </g>
  </g>
 </g>
</svg>