<svg width="252.03" height="218.7" xmlns="http://www.w3.org/2000/svg" xmlns:xlink="http://www.w3.org/1999/xlink" xml:space="preserve" version="1.1">
 <g>
  <title>Layer 1</title>
  <g id="svg_9">
   <g id="svg_1">
    <defs transform="translate(-62, -65) translate(70.13, 68.35) scale(1.80049) translate(-70.13, -68.35) translate(4.51544, 1.86061) scale(1.16431) translate(-4.51544, -1.86061)">
     <rect height="238.7" width="252.03" id="SVGID_1_"/>
    </defs>
    <clipPath transform="translate(-62, -65) translate(70.13, 68.35) scale(1.80049) translate(-70.13, -68.35) translate(4.51544, 1.86061) scale(1.16431) translate(-4.51544, -1.86061)" id="SVGID_2_">
     <use x="-62" y="-65" id="svg_2" xlink:href="#SVGID_1_"/>
    </clipPath>
    <path id="svg_3" clip-path="url(#SVGID_2_)" d="m233.52627,194.86975c2.53655,0 3.94108,1.76091 3.94108,4.98924c0,3.0187 -1.44646,4.82153 -3.94108,4.82153c-2.49462,0 -3.92012,-1.80283 -3.92012,-4.92635c0.02096,-3.08159 1.4255,-4.88442 3.92012,-4.88442m0,-3.92012c-5.19887,0 -8.86743,3.66856 -8.86743,8.80454c0,5.19887 3.66856,8.82551 8.86743,8.82551c5.15695,0 8.90936,-3.62663 8.90936,-8.69973c0,-5.30369 -3.60567,-8.93032 -8.90936,-8.93032m-11.36205,0.64986l-3.0187,0l0,-5.30369l-4.92635,0l0,5.30369l-2.34788,0l0,3.45893l2.34788,0l0,7.60964c0,2.59944 0.20963,3.50085 0.96431,4.33938c0.73371,0.7966 1.80283,1.11105 3.94108,1.11105l3.0187,0l0,-3.71049l-1.76091,0c-1.13201,0 -1.25779,-0.20963 -1.25779,-2.83003l0,-6.49859l3.0187,0l0,-3.47989l0.02096,0zm-12.8714,4.82153c-0.41926,-3.52182 -3.03966,-5.47139 -7.33712,-5.47139c-4.4442,0 -7.12749,2.03343 -7.12749,5.4085c0,2.66233 1.4255,4.02493 5.09406,4.82153l3.03966,0.69179c1.32068,0.31445 1.86572,0.75468 1.86572,1.53031c0,0.96431 -1.04816,1.63513 -2.55751,1.63513c-1.97054,0 -3.0187,-0.75468 -3.29122,-2.32691l-4.6119,0c0.27252,3.71049 3.14448,5.89066 7.79831,5.89066c4.63287,0 7.50482,-2.2221 7.50482,-5.74392c0,-1.34164 -0.44023,-2.59944 -1.25779,-3.35411c-0.73371,-0.75468 -1.76091,-1.21587 -3.8153,-1.63513l-3.08159,-0.64986c-1.55128,-0.33541 -2.05439,-0.64986 -2.05439,-1.27875c0,-0.83853 0.94334,-1.38357 2.34788,-1.38357c1.63513,0 2.64136,0.64986 2.83003,1.90765l4.65383,0l0,-0.04193zm-18.57339,-11.38301l-4.92635,0l0,4.0459l4.92635,0l0,-4.0459zm0,6.37281l-4.92635,0l0,16.72863l4.92635,0l0,-16.72863zm-17.10597,3.52182c2.24306,0 3.60567,1.86572 3.60567,4.88442c0,2.91388 -1.4255,4.77961 -3.56374,4.77961c-2.2221,0 -3.60567,-1.86572 -3.60567,-4.8425c0,-2.95581 1.38357,-4.82153 3.56374,-4.82153m-8.30143,-3.52182l0,22.03232l4.92635,0l0,-6.64533c1.38357,1.27875 2.66233,1.80283 4.50709,1.80283c4.40227,0 7.33712,-3.52182 7.33712,-8.86743c0,-5.19887 -2.97677,-8.76262 -7.37904,-8.76262c-2.07536,0 -3.29122,0.6289 -4.71672,2.43173l0.14674,-1.97054l-4.82153,0l0,-0.02096zm-12.22154,3.45893c2.53655,0 3.94108,1.76091 3.94108,4.98924c0,3.0187 -1.44646,4.82153 -3.94108,4.82153c-2.49462,0 -3.92012,-1.80283 -3.92012,-4.92635c0,-3.08159 1.4255,-4.88442 3.92012,-4.88442m0,-3.92012c-5.19887,0 -8.86743,3.66856 -8.86743,8.80454c0,5.19887 3.66856,8.82551 8.86743,8.82551c5.15695,0 8.90936,-3.62663 8.90936,-8.69973c-0.02096,-5.30369 -3.62663,-8.93032 -8.90936,-8.93032m-12.20058,-5.91162l-4.92635,0l0,4.0459l4.92635,0l0,-4.0459zm0,6.37281l-4.92635,0l0,16.72863l4.92635,0l0,-16.72863zm-9.58018,-6.37281l-4.92635,0l0,23.10144l4.92635,0l0,-23.10144zm-12.78755,6.37281l-2.18017,7.54675c-0.37734,1.48839 -0.64986,2.6204 -0.85949,3.73145l-0.20963,-0.64986c-0.37734,-1.38357 -0.37734,-1.4255 -0.85949,-2.97677l-2.45269,-7.65157l-5.26176,0l5.51332,14.0663c0.58697,1.44646 0.6289,1.55128 0.6289,2.13825c0,1.44646 -0.7966,2.11728 -2.53655,2.11728l-1.44646,0l0,3.71049l2.87196,0c3.73145,0 4.52805,-0.69179 6.10029,-5.15695l5.82777,-16.87537l-5.13598,0zm-14.23401,5.95355l-11.29916,0l0,4.42323l11.29916,0l0,-4.42323zm-23.60456,-2.49462c2.53655,0 3.94108,1.76091 3.94108,4.98924c0,3.0187 -1.44646,4.82153 -3.94108,4.82153c-2.49462,0 -3.92012,-1.80283 -3.92012,-4.92635c0.02096,-3.08159 1.4255,-4.88442 3.92012,-4.88442m0,-3.92012c-5.19887,0 -8.86743,3.66856 -8.86743,8.80454c0,5.19887 3.66856,8.82551 8.86743,8.82551c5.15695,0 8.88839,-3.62663 8.88839,-8.69973c0.02096,-5.30369 -3.58471,-8.93032 -8.88839,-8.93032m-11.0476,0.64986l-3.0187,0l0,-5.30369l-4.92635,0l0,5.30369l-2.34788,0l0,3.45893l2.34788,0l0,7.60964c0,2.59944 0.20963,3.50085 0.96431,4.33938c0.73371,0.7966 1.80283,1.11105 3.94108,1.11105l3.0187,0l0,-3.71049l-1.76091,0c-1.15298,0 -1.23683,-0.20963 -1.23683,-2.83003l0,-6.49859l3.0187,0l0,-3.47989zm-13.33259,-6.56148l-4.92635,0l0,23.10144l4.92635,0l0,-23.10144zm-13.87764,17.69294c-0.7966,1.4255 -1.97054,2.11728 -3.60567,2.11728c-1.53031,0 -2.49462,-0.64986 -2.49462,-1.76091c0,-1.00623 0.75468,-1.5932 2.53655,-2.01247l1.76091,-0.37734c0.83853,-0.16771 1.27875,-0.31445 1.80283,-0.52408l0,2.55751zm-5.68103,-6.05836c0.20963,-1.36261 1.17394,-2.01247 2.93485,-2.01247c1.63513,0 2.59944,0.58697 2.59944,1.55128c0,0.64986 -0.37734,0.96431 -1.48839,1.13201l-2.66233,0.44023c-4.67479,0.75468 -6.64533,2.3898 -6.64533,5.51332c0,3.14448 2.45269,5.26176 6.12125,5.26176c2.01247,0 3.14448,-0.41926 4.82153,-1.76091c0.16771,0.6289 0.16771,0.73371 0.37734,1.32068l5.03117,0c-0.54504,-0.83853 -0.6289,-1.06912 -0.6289,-2.87196l0,-7.67253c0,-2.49462 -0.46119,-3.8153 -1.65609,-4.88442c-1.32068,-1.17394 -3.2493,-1.76091 -5.78584,-1.76091c-4.71672,0 -7.10652,1.86572 -7.42097,5.74392l4.40227,0zm-14.98868,2.55751l-5.21984,0l2.80907,-9.03514l2.41077,9.03514zm1.13201,4.25553l1.23683,4.63287l5.89066,0l-7.33712,-23.10144l-6.47763,0l-8.07083,23.10144l5.6391,0l1.44646,-4.63287l7.67253,0z" class="st0"/>
   </g>
   <path id="svg_4" d="m101.12273,97.85209l-35.90995,0l17.9445,-51.86294l17.96546,51.86294zm55.55247,54.81876l-51.5485,-145.58939l-43.91789,0l-51.5485,145.56843l36.58078,0l8.90936,-25.76377l56.01366,0l8.90936,25.76377l36.60174,0l0,0.02096z"/>
   <g id="svg_5">
    <defs transform="translate(-62, -65) translate(70.13, 68.35) scale(1.80049) translate(-70.13, -68.35) translate(4.51544, 1.86061) scale(1.16431) translate(-4.51544, -1.86061)">
     <rect height="238.7" width="252.03" id="SVGID_3_"/>
    </defs>
    <clipPath transform="translate(-62, -65) translate(70.13, 68.35) scale(1.80049) translate(-70.13, -68.35) translate(4.51544, 1.86061) scale(1.16431) translate(-4.51544, -1.86061)" id="SVGID_4_">
     <use x="-62" y="-65" id="svg_6" xlink:href="#SVGID_3_"/>
    </clipPath>
    <path id="svg_7" clip-path="url(#SVGID_4_)" d="m249.06,47.10019c0,-28.06972 -22.34677,-43.75019 -54.35756,-43.75019c-30.96264,0 -54.86068,16.03684 -54.86068,44.42101l0,4.56998l32.74451,0c0,-13.56319 9.20284,-19.62155 21.71787,-19.62155c11.50879,0 19.66348,6.14222 19.66348,15.53373c0,7.48386 -4.27649,12.55695 -13.77282,17.90257c-13.77282,7.75638 -22.17906,16.83345 -22.17906,38.53035l0,3.22833l32.91222,0l0,-1.32068c0,-11.63457 3.29122,-16.07877 15.40795,-24.08671c10.98471,-7.27423 22.7241,-17.06404 22.7241,-35.40684" class="st1"/>
   </g>
   <rect id="svg_8" height="32.95414" width="32.95414" y="119.7167" x="177.97381"/>
  </g>
 </g>
</svg>