<?xml version="1.0" encoding="UTF-8"?>
<svg xmlns="http://www.w3.org/2000/svg" xmlns:xlink="http://www.w3.org/1999/xlink" width="349pt" height="136pt" viewBox="0 0 349 136" version="1.1">
<g id="surface1">
<path style=" stroke:none;fill-rule:nonzero;fill:rgb(0%,0%,0%);fill-opacity:1;" d="M 6.773438 102.90625 C 10.324219 103.6875 11.96875 104.976562 11.96875 107.449219 C 11.96875 110.210938 9.6875 111.988281 6.527344 111.988281 C 3.988281 111.988281 1.914062 111.140625 0 109.429688 L 1.125 108.113281 C 2.78125 109.617188 4.375 110.367188 6.59375 110.367188 C 8.734375 110.367188 10.148438 109.253906 10.148438 107.636719 C 10.148438 106.117188 9.347656 105.285156 5.992188 104.574219 C 2.324219 103.773438 0.640625 102.59375 0.640625 99.945312 C 0.640625 97.394531 2.851562 95.566406 5.886719 95.566406 C 8.207031 95.566406 9.875 96.222656 11.488281 97.53125 L 10.449219 98.914062 C 8.957031 97.707031 7.476562 97.183594 5.839844 97.183594 C 3.761719 97.183594 2.441406 98.328125 2.441406 99.789062 C 2.441406 101.3125 3.257812 102.15625 6.773438 102.90625 "/>
<path style=" stroke:none;fill-rule:nonzero;fill:rgb(0%,0%,0%);fill-opacity:1;" d="M 16.820312 111.757812 L 18.621094 111.757812 L 18.621094 95.792969 L 16.820312 95.792969 Z M 16.820312 111.757812 "/>
<path style=" stroke:none;fill-rule:nonzero;fill:rgb(0%,0%,0%);fill-opacity:1;" d="M 36.050781 95.792969 L 37.800781 95.792969 L 37.800781 111.757812 L 36.371094 111.757812 L 26.074219 98.664062 L 26.074219 111.757812 L 24.316406 111.757812 L 24.316406 95.792969 L 26.003906 95.792969 L 36.050781 108.589844 Z M 36.050781 95.792969 "/>
<path style=" stroke:none;fill-rule:nonzero;fill:rgb(0%,0%,0%);fill-opacity:1;" d="M 50.527344 112.035156 C 45.507812 112.035156 42.410156 108.394531 42.410156 103.796875 C 42.410156 99.398438 45.625 95.523438 50.410156 95.523438 C 53.09375 95.523438 54.765625 96.308594 56.363281 97.648438 L 55.191406 99.007812 C 53.957031 97.933594 52.59375 97.1875 50.339844 97.1875 C 46.808594 97.1875 44.277344 100.171875 44.277344 103.753906 C 44.277344 107.578125 46.71875 110.414062 50.589844 110.414062 C 52.414062 110.414062 54.101562 109.703125 55.191406 108.816406 L 55.191406 104.847656 L 50.339844 104.847656 L 50.339844 103.230469 L 56.925781 103.230469 L 56.925781 109.589844 C 55.449219 110.914062 53.210938 112.035156 50.527344 112.035156 "/>
<path style=" stroke:none;fill-rule:nonzero;fill:rgb(0%,0%,0%);fill-opacity:1;" d="M 76.527344 111.761719 L 74.589844 111.761719 L 72.71875 107.542969 L 64.035156 107.542969 L 62.148438 111.761719 L 60.296875 111.761719 L 67.5625 95.675781 L 69.261719 95.675781 Z M 68.390625 97.78125 L 64.738281 105.921875 L 72.011719 105.921875 Z M 68.390625 97.78125 "/>
<path style=" stroke:none;fill-rule:nonzero;fill:rgb(0%,0%,0%);fill-opacity:1;" d="M 86.027344 106.117188 L 82.152344 106.117188 L 82.152344 111.757812 L 80.359375 111.757812 L 80.359375 95.792969 L 86.332031 95.792969 C 89.925781 95.792969 92.296875 97.707031 92.296875 100.871094 C 92.296875 104.34375 89.425781 106.117188 86.027344 106.117188 M 86.183594 97.460938 L 82.152344 97.460938 L 82.152344 104.476562 L 86.097656 104.476562 C 88.734375 104.476562 90.46875 103.066406 90.46875 100.949219 C 90.46875 98.648438 88.757812 97.460938 86.183594 97.460938 "/>
<path style=" stroke:none;fill-rule:nonzero;fill:rgb(0%,0%,0%);fill-opacity:1;" d="M 103.90625 112.035156 C 99.035156 112.035156 95.78125 108.222656 95.78125 103.796875 C 95.78125 99.371094 99.082031 95.523438 103.949219 95.523438 C 108.792969 95.523438 112.054688 99.335938 112.054688 103.753906 C 112.054688 108.167969 108.742188 112.035156 103.90625 112.035156 M 103.90625 97.1875 C 100.253906 97.1875 97.644531 100.101562 97.644531 103.753906 C 97.644531 107.398438 100.289062 110.367188 103.949219 110.367188 C 107.585938 110.367188 110.179688 107.449219 110.179688 103.796875 C 110.179688 100.148438 107.539062 97.1875 103.90625 97.1875 "/>
<path style=" stroke:none;fill-rule:nonzero;fill:rgb(0%,0%,0%);fill-opacity:1;" d="M 127.519531 111.761719 L 122.902344 105.554688 L 118.347656 105.554688 L 118.347656 111.761719 L 116.542969 111.761719 L 116.542969 95.792969 L 123.394531 95.792969 C 126.910156 95.792969 129.175781 97.6875 129.175781 100.566406 C 129.175781 103.230469 127.347656 104.785156 124.832031 105.238281 L 129.738281 111.761719 Z M 123.265625 97.460938 L 118.347656 97.460938 L 118.347656 103.941406 L 123.238281 103.941406 C 125.632812 103.941406 127.347656 102.703125 127.347656 100.632812 C 127.347656 98.648438 125.832031 97.460938 123.265625 97.460938 "/>
<path style=" stroke:none;fill-rule:nonzero;fill:rgb(0%,0%,0%);fill-opacity:1;" d="M 145.574219 97.433594 L 135.839844 97.433594 L 135.839844 102.882812 L 144.550781 102.882812 L 144.550781 104.523438 L 135.839844 104.523438 L 135.839844 110.121094 L 145.683594 110.121094 L 145.683594 111.757812 L 134.042969 111.757812 L 134.042969 95.792969 L 145.574219 95.792969 Z M 145.574219 97.433594 "/>
<path style=" stroke:none;fill-rule:nonzero;fill:rgb(0%,0%,0%);fill-opacity:1;" d="M 173.296875 104.941406 C 173.296875 109.589844 170.640625 112.011719 166.648438 112.011719 C 162.707031 112.011719 160.011719 109.589844 160.011719 105.074219 L 160.011719 95.792969 L 161.816406 95.792969 L 161.816406 104.96875 C 161.816406 108.414062 163.636719 110.351562 166.683594 110.351562 C 169.628906 110.351562 171.496094 108.570312 171.496094 105.074219 L 171.496094 95.792969 L 173.296875 95.792969 Z M 173.296875 104.941406 "/>
<path style=" stroke:none;fill-rule:nonzero;fill:rgb(0%,0%,0%);fill-opacity:1;" d="M 190.324219 95.792969 L 192.078125 95.792969 L 192.078125 111.757812 L 190.636719 111.757812 L 180.34375 98.664062 L 180.34375 111.757812 L 178.59375 111.757812 L 178.59375 95.792969 L 180.269531 95.792969 L 190.324219 108.589844 Z M 190.324219 95.792969 "/>
<path style=" stroke:none;fill-rule:nonzero;fill:rgb(0%,0%,0%);fill-opacity:1;" d="M 197.777344 111.757812 L 199.570312 111.757812 L 199.570312 95.792969 L 197.777344 95.792969 Z M 197.777344 111.757812 "/>
<path style=" stroke:none;fill-rule:nonzero;fill:rgb(0%,0%,0%);fill-opacity:1;" d="M 216.941406 95.792969 L 218.878906 95.792969 L 212.011719 111.875 L 210.414062 111.875 L 203.558594 95.792969 L 205.554688 95.792969 L 211.242188 109.542969 Z M 216.941406 95.792969 "/>
<path style=" stroke:none;fill-rule:nonzero;fill:rgb(0%,0%,0%);fill-opacity:1;" d="M 234.238281 97.433594 L 224.5 97.433594 L 224.5 102.882812 L 233.203125 102.882812 L 233.203125 104.523438 L 224.5 104.523438 L 224.5 110.121094 L 234.355469 110.121094 L 234.355469 111.757812 L 222.695312 111.757812 L 222.695312 95.792969 L 234.238281 95.792969 Z M 234.238281 97.433594 "/>
<path style=" stroke:none;fill-rule:nonzero;fill:rgb(0%,0%,0%);fill-opacity:1;" d="M 249.980469 111.761719 L 245.347656 105.554688 L 240.800781 105.554688 L 240.800781 111.761719 L 238.996094 111.761719 L 238.996094 95.792969 L 245.859375 95.792969 C 249.363281 95.792969 251.621094 97.6875 251.621094 100.566406 C 251.621094 103.230469 249.789062 104.785156 247.285156 105.238281 L 252.199219 111.761719 Z M 245.71875 97.460938 L 240.800781 97.460938 L 240.800781 103.941406 L 245.695312 103.941406 C 248.09375 103.941406 249.789062 102.703125 249.789062 100.632812 C 249.789062 98.648438 248.285156 97.460938 245.71875 97.460938 "/>
<path style=" stroke:none;fill-rule:nonzero;fill:rgb(0%,0%,0%);fill-opacity:1;" d="M 262.21875 102.90625 C 265.773438 103.6875 267.410156 104.976562 267.410156 107.449219 C 267.410156 110.210938 265.140625 111.988281 261.957031 111.988281 C 259.4375 111.988281 257.367188 111.140625 255.441406 109.429688 L 256.5625 108.113281 C 258.222656 109.617188 259.828125 110.367188 262.027344 110.367188 C 264.167969 110.367188 265.589844 109.253906 265.589844 107.636719 C 265.589844 106.117188 264.792969 105.285156 261.441406 104.574219 C 257.773438 103.773438 256.085938 102.59375 256.085938 99.945312 C 256.085938 97.394531 258.300781 95.566406 261.328125 95.566406 C 263.644531 95.566406 265.316406 96.222656 266.933594 97.53125 L 265.894531 98.914062 C 264.402344 97.707031 262.921875 97.183594 261.273438 97.183594 C 259.207031 97.183594 257.890625 98.328125 257.890625 99.789062 C 257.890625 101.3125 258.707031 102.15625 262.21875 102.90625 "/>
<path style=" stroke:none;fill-rule:nonzero;fill:rgb(0%,0%,0%);fill-opacity:1;" d="M 272.261719 111.757812 L 274.066406 111.757812 L 274.066406 95.792969 L 272.261719 95.792969 Z M 272.261719 111.757812 "/>
<path style=" stroke:none;fill-rule:nonzero;fill:rgb(0%,0%,0%);fill-opacity:1;" d="M 285.457031 111.761719 L 283.636719 111.761719 L 283.636719 97.460938 L 278.277344 97.460938 L 278.277344 95.792969 L 290.8125 95.792969 L 290.8125 97.460938 L 285.457031 97.460938 Z M 285.457031 111.761719 "/>
<path style=" stroke:none;fill-rule:nonzero;fill:rgb(0%,0%,0%);fill-opacity:1;" d="M 301.453125 111.761719 L 299.636719 111.761719 L 299.636719 105.4375 L 293.003906 95.792969 L 295.191406 95.792969 L 300.566406 103.773438 L 305.988281 95.792969 L 308.078125 95.792969 L 301.453125 105.421875 Z M 301.453125 111.761719 "/>
<path style=" stroke:none;fill-rule:nonzero;fill:rgb(0%,0%,0%);fill-opacity:1;" d="M 324.875 112.035156 C 320.023438 112.035156 316.757812 108.222656 316.757812 103.796875 C 316.757812 99.371094 320.0625 95.523438 324.917969 95.523438 C 329.777344 95.523438 333.027344 99.335938 333.027344 103.753906 C 333.027344 108.167969 329.730469 112.035156 324.875 112.035156 M 324.875 97.1875 C 321.21875 97.1875 318.628906 100.101562 318.628906 103.753906 C 318.628906 107.398438 321.277344 110.367188 324.917969 110.367188 C 328.570312 110.367188 331.160156 107.449219 331.160156 103.796875 C 331.160156 100.148438 328.53125 97.1875 324.875 97.1875 "/>
<path style=" stroke:none;fill-rule:nonzero;fill:rgb(0%,0%,0%);fill-opacity:1;" d="M 348.984375 97.460938 L 339.324219 97.460938 L 339.324219 103.164062 L 347.964844 103.164062 L 347.964844 104.800781 L 339.324219 104.800781 L 339.324219 111.757812 L 337.519531 111.757812 L 337.519531 95.792969 L 348.984375 95.792969 Z M 348.984375 97.460938 "/>
<path style=" stroke:none;fill-rule:nonzero;fill:rgb(0%,0%,0%);fill-opacity:1;" d="M 7.175781 135.703125 L 5.355469 135.703125 L 5.355469 121.410156 L 0 121.410156 L 0 119.746094 L 12.535156 119.746094 L 12.535156 121.410156 L 7.175781 121.410156 Z M 7.175781 135.703125 "/>
<path style=" stroke:none;fill-rule:nonzero;fill:rgb(0%,0%,0%);fill-opacity:1;" d="M 28.59375 121.386719 L 18.851562 121.386719 L 18.851562 126.839844 L 27.566406 126.839844 L 27.566406 128.476562 L 18.851562 128.476562 L 18.851562 134.070312 L 28.707031 134.070312 L 28.707031 135.703125 L 17.050781 135.703125 L 17.050781 119.746094 L 28.59375 119.746094 Z M 28.59375 121.386719 "/>
<path style=" stroke:none;fill-rule:nonzero;fill:rgb(0%,0%,0%);fill-opacity:1;" d="M 41.09375 135.984375 C 36.5 135.984375 33.101562 132.355469 33.101562 127.75 C 33.101562 123.183594 36.46875 119.476562 41.175781 119.476562 C 44.066406 119.476562 45.792969 120.492188 47.382812 122.003906 L 46.160156 123.320312 C 44.808594 122.046875 43.3125 121.128906 41.148438 121.128906 C 37.613281 121.128906 34.964844 123.992188 34.964844 127.695312 C 34.964844 131.421875 37.632812 134.316406 41.148438 134.316406 C 43.335938 134.316406 44.757812 133.472656 46.289062 132.011719 L 47.480469 133.175781 C 45.816406 134.867188 43.996094 135.984375 41.09375 135.984375 "/>
<path style=" stroke:none;fill-rule:nonzero;fill:rgb(0%,0%,0%);fill-opacity:1;" d="M 54.136719 128.53125 L 54.136719 135.703125 L 52.339844 135.703125 L 52.339844 119.746094 L 54.136719 119.746094 L 54.136719 126.839844 L 63.339844 126.839844 L 63.339844 119.746094 L 65.144531 119.746094 L 65.144531 135.703125 L 63.339844 135.703125 L 63.339844 128.53125 Z M 54.136719 128.53125 "/>
<path style=" stroke:none;fill-rule:nonzero;fill:rgb(0%,0%,0%);fill-opacity:1;" d="M 83.332031 119.746094 L 85.085938 119.746094 L 85.085938 135.703125 L 83.65625 135.703125 L 73.355469 122.621094 L 73.355469 135.703125 L 71.59375 135.703125 L 71.59375 119.746094 L 73.273438 119.746094 L 83.332031 132.535156 Z M 83.332031 119.746094 "/>
<path style=" stroke:none;fill-rule:nonzero;fill:rgb(0%,0%,0%);fill-opacity:1;" d="M 98.261719 135.984375 C 93.40625 135.984375 90.15625 132.171875 90.15625 127.75 C 90.15625 123.320312 93.453125 119.476562 98.308594 119.476562 C 103.160156 119.476562 106.425781 123.277344 106.425781 127.695312 C 106.425781 132.125 103.121094 135.984375 98.261719 135.984375 M 98.261719 121.128906 C 94.613281 121.128906 92.015625 124.050781 92.015625 127.695312 C 92.015625 131.359375 94.664062 134.316406 98.308594 134.316406 C 101.949219 134.316406 104.554688 131.390625 104.554688 127.75 C 104.554688 124.09375 101.90625 121.128906 98.261719 121.128906 "/>
<path style=" stroke:none;fill-rule:nonzero;fill:rgb(0%,0%,0%);fill-opacity:1;" d="M 111.476562 119.746094 L 113.285156 119.746094 L 113.285156 134.042969 L 122.261719 134.042969 L 122.261719 135.703125 L 111.476562 135.703125 Z M 111.476562 119.746094 "/>
<path style=" stroke:none;fill-rule:nonzero;fill:rgb(0%,0%,0%);fill-opacity:1;" d="M 132.664062 135.984375 C 127.804688 135.984375 124.542969 132.171875 124.542969 127.75 C 124.542969 123.320312 127.855469 119.476562 132.707031 119.476562 C 137.558594 119.476562 140.816406 123.277344 140.816406 127.695312 C 140.816406 132.125 137.515625 135.984375 132.664062 135.984375 M 132.664062 121.128906 C 129.007812 121.128906 126.410156 124.050781 126.410156 127.695312 C 126.410156 131.359375 129.0625 134.316406 132.707031 134.316406 C 136.355469 134.316406 138.945312 131.390625 138.945312 127.75 C 138.945312 124.09375 136.308594 121.128906 132.664062 121.128906 "/>
<path style=" stroke:none;fill-rule:nonzero;fill:rgb(0%,0%,0%);fill-opacity:1;" d="M 153.167969 135.984375 C 148.164062 135.984375 145.054688 132.332031 145.054688 127.75 C 145.054688 123.347656 148.273438 119.476562 153.050781 119.476562 C 155.746094 119.476562 157.417969 120.246094 159.003906 121.59375 L 157.839844 122.953125 C 156.621094 121.882812 155.246094 121.128906 152.992188 121.128906 C 149.457031 121.128906 146.929688 124.121094 146.929688 127.695312 C 146.929688 131.539062 149.371094 134.363281 153.238281 134.363281 C 155.066406 134.363281 156.746094 133.65625 157.839844 132.765625 L 157.839844 128.796875 L 152.992188 128.796875 L 152.992188 127.179688 L 159.578125 127.179688 L 159.578125 133.546875 C 158.085938 134.867188 155.867188 135.984375 153.167969 135.984375 "/>
<path style=" stroke:none;fill-rule:nonzero;fill:rgb(0%,0%,0%);fill-opacity:1;" d="M 170.910156 135.703125 L 169.089844 135.703125 L 169.089844 129.382812 L 162.449219 119.746094 L 164.640625 119.746094 L 170.019531 127.734375 L 175.441406 119.746094 L 177.535156 119.746094 L 170.910156 129.363281 Z M 170.910156 135.703125 "/>
<path style=" stroke:none;fill-rule:nonzero;fill:rgb(0%,0%,0%);fill-opacity:1;" d="M 203.582031 135.703125 L 201.636719 135.703125 L 199.769531 131.492188 L 191.085938 131.492188 L 189.199219 135.703125 L 187.351562 135.703125 L 194.617188 119.625 L 196.300781 119.625 Z M 195.441406 121.726562 L 191.796875 129.863281 L 199.066406 129.863281 Z M 195.441406 121.726562 "/>
<path style=" stroke:none;fill-rule:nonzero;fill:rgb(0%,0%,0%);fill-opacity:1;" d="M 219.714844 119.746094 L 221.472656 119.746094 L 221.472656 135.703125 L 220.035156 135.703125 L 209.734375 122.621094 L 209.734375 135.703125 L 207.980469 135.703125 L 207.980469 119.746094 L 209.65625 119.746094 L 219.714844 132.535156 Z M 219.714844 119.746094 "/>
<path style=" stroke:none;fill-rule:nonzero;fill:rgb(0%,0%,0%);fill-opacity:1;" d="M 233.460938 135.703125 L 227.925781 135.703125 L 227.925781 119.746094 L 233.460938 119.746094 C 238.472656 119.746094 241.933594 123.183594 241.933594 127.695312 C 241.933594 132.21875 238.472656 135.703125 233.460938 135.703125 M 233.460938 121.410156 L 229.726562 121.410156 L 229.726562 134.039062 L 233.460938 134.039062 C 237.488281 134.039062 240.066406 131.308594 240.066406 127.75 C 240.066406 124.1875 237.488281 121.410156 233.460938 121.410156 "/>
<path style=" stroke:none;fill-rule:nonzero;fill:rgb(0%,0%,0%);fill-opacity:1;" d="M 260.957031 135.703125 L 255.421875 135.703125 L 255.421875 119.746094 L 260.957031 119.746094 C 265.976562 119.746094 269.441406 123.183594 269.441406 127.695312 C 269.441406 132.21875 265.976562 135.703125 260.957031 135.703125 M 260.957031 121.410156 L 257.226562 121.410156 L 257.226562 134.039062 L 260.957031 134.039062 C 265.003906 134.039062 267.570312 131.308594 267.570312 127.75 C 267.570312 124.1875 265.003906 121.410156 260.957031 121.410156 "/>
<path style=" stroke:none;fill-rule:nonzero;fill:rgb(0%,0%,0%);fill-opacity:1;" d="M 286.257812 121.386719 L 276.53125 121.386719 L 276.53125 126.839844 L 285.230469 126.839844 L 285.230469 128.476562 L 276.53125 128.476562 L 276.53125 134.070312 L 286.375 134.070312 L 286.375 135.703125 L 274.734375 135.703125 L 274.734375 119.746094 L 286.257812 119.746094 Z M 286.257812 121.386719 "/>
<path style=" stroke:none;fill-rule:nonzero;fill:rgb(0%,0%,0%);fill-opacity:1;" d="M 297.207031 126.859375 C 300.757812 127.644531 302.398438 128.9375 302.398438 131.390625 C 302.398438 134.15625 300.117188 135.941406 296.949219 135.941406 C 294.421875 135.941406 292.347656 135.089844 290.4375 133.375 L 291.542969 132.058594 C 293.214844 133.566406 294.804688 134.316406 297.011719 134.316406 C 299.15625 134.316406 300.578125 133.203125 300.578125 131.582031 C 300.578125 130.070312 299.773438 129.234375 296.425781 128.53125 C 292.757812 127.734375 291.078125 126.539062 291.078125 123.890625 C 291.078125 121.34375 293.28125 119.519531 296.316406 119.519531 C 298.636719 119.519531 300.304688 120.175781 301.921875 121.480469 L 300.875 122.867188 C 299.382812 121.65625 297.90625 121.128906 296.269531 121.128906 C 294.191406 121.128906 292.867188 122.277344 292.867188 123.730469 C 292.867188 125.261719 293.691406 126.105469 297.207031 126.859375 "/>
<path style=" stroke:none;fill-rule:nonzero;fill:rgb(0%,0%,0%);fill-opacity:1;" d="M 308.171875 135.703125 L 309.964844 135.703125 L 309.964844 119.746094 L 308.171875 119.746094 Z M 308.171875 135.703125 "/>
<path style=" stroke:none;fill-rule:nonzero;fill:rgb(0%,0%,0%);fill-opacity:1;" d="M 323.078125 135.984375 C 318.0625 135.984375 314.953125 132.332031 314.953125 127.75 C 314.953125 123.347656 318.171875 119.476562 322.953125 119.476562 C 325.644531 119.476562 327.3125 120.246094 328.914062 121.59375 L 327.75 122.953125 C 326.515625 121.882812 325.144531 121.128906 322.886719 121.128906 C 319.355469 121.128906 316.824219 124.121094 316.824219 127.695312 C 316.824219 131.539062 319.265625 134.363281 323.140625 134.363281 C 324.957031 134.363281 326.652344 133.65625 327.75 132.765625 L 327.75 128.796875 L 322.886719 128.796875 L 322.886719 127.179688 L 329.476562 127.179688 L 329.476562 133.546875 C 327.992188 134.867188 325.761719 135.984375 323.078125 135.984375 "/>
<path style=" stroke:none;fill-rule:nonzero;fill:rgb(0%,0%,0%);fill-opacity:1;" d="M 347.214844 119.746094 L 348.972656 119.746094 L 348.972656 135.703125 L 347.53125 135.703125 L 337.230469 122.621094 L 337.230469 135.703125 L 335.46875 135.703125 L 335.46875 119.746094 L 337.15625 119.746094 L 347.214844 132.535156 Z M 347.214844 119.746094 "/>
<path style=" stroke:none;fill-rule:nonzero;fill:rgb(0%,0%,0%);fill-opacity:1;" d="M 61.820312 61.871094 L 0 61.871094 L 0 53.878906 L 61.820312 53.878906 Z M 61.820312 61.871094 "/>
<path style=" stroke:none;fill-rule:nonzero;fill:rgb(0%,0%,0%);fill-opacity:1;" d="M 79.769531 25.953125 L 17.945312 25.953125 L 17.945312 17.957031 L 79.769531 17.957031 Z M 79.769531 25.953125 "/>
<path style=" stroke:none;fill-rule:nonzero;fill:rgb(0%,0%,0%);fill-opacity:1;" d="M 79.769531 79.824219 L 0 79.824219 L 0 71.84375 L 71.789062 71.84375 L 71.789062 43.898438 L 0 43.898438 L 0 0 L 79.769531 0 L 79.769531 7.980469 L 7.976562 7.980469 L 7.976562 35.917969 L 79.769531 35.917969 Z M 79.769531 79.824219 "/>
<path style=" stroke:none;fill-rule:nonzero;fill:rgb(0%,0%,0%);fill-opacity:1;" d="M 133.609375 43.898438 L 125.632812 43.898438 L 125.632812 0 L 133.609375 0 Z M 133.609375 43.898438 "/>
<path style=" stroke:none;fill-rule:nonzero;fill:rgb(0%,0%,0%);fill-opacity:1;" d="M 169.507812 79.824219 L 89.742188 79.824219 L 89.742188 0 L 97.710938 0 L 97.710938 71.84375 L 161.53125 71.84375 L 161.53125 0 L 169.507812 0 Z M 169.507812 79.824219 "/>
<path style=" stroke:none;fill-rule:nonzero;fill:rgb(0%,0%,0%);fill-opacity:1;" d="M 151.558594 61.871094 L 107.6875 61.871094 L 107.6875 0 L 115.664062 0 L 115.664062 53.878906 L 143.582031 53.878906 L 143.582031 0 L 151.558594 0 Z M 151.558594 61.871094 "/>
<path style=" stroke:none;fill-rule:nonzero;fill:rgb(0%,0%,0%);fill-opacity:1;" d="M 313.089844 43.898438 L 269.222656 43.898438 L 269.222656 35.921875 L 313.089844 35.921875 Z M 313.089844 43.898438 "/>
<path style=" stroke:none;fill-rule:nonzero;fill:rgb(0%,0%,0%);fill-opacity:1;" d="M 348.984375 79.824219 L 269.21875 79.824219 L 269.21875 71.84375 L 341.011719 71.84375 L 341.011719 7.980469 L 269.21875 7.980469 L 269.21875 0 L 348.984375 0 Z M 348.984375 79.824219 "/>
<path style=" stroke:none;fill-rule:nonzero;fill:rgb(0%,0%,0%);fill-opacity:1;" d="M 331.039062 61.871094 L 269.21875 61.871094 L 269.21875 53.878906 L 323.054688 53.878906 L 323.054688 25.953125 L 269.21875 25.953125 L 269.21875 17.957031 L 331.039062 17.957031 Z M 331.039062 61.871094 "/>
<path style=" stroke:none;fill-rule:nonzero;fill:rgb(0%,0%,0%);fill-opacity:1;" d="M 179.476562 0 L 179.476562 7.980469 L 215.375 7.980469 L 215.375 79.824219 L 223.347656 79.824219 L 223.347656 7.980469 L 259.25 7.980469 L 259.25 0 Z M 179.476562 0 "/>
<path style=" stroke:none;fill-rule:nonzero;fill:rgb(0%,0%,0%);fill-opacity:1;" d="M 233.324219 79.824219 L 241.289062 79.824219 L 241.289062 25.953125 L 259.253906 25.953125 L 259.253906 17.957031 L 233.324219 17.957031 Z M 233.324219 79.824219 "/>
<path style=" stroke:none;fill-rule:nonzero;fill:rgb(0%,0%,0%);fill-opacity:1;" d="M 251.269531 79.824219 L 259.25 79.824219 L 259.25 35.917969 L 251.269531 35.917969 Z M 251.269531 79.824219 "/>
<path style=" stroke:none;fill-rule:nonzero;fill:rgb(0%,0%,0%);fill-opacity:1;" d="M 179.476562 79.824219 L 187.457031 79.824219 L 187.457031 35.917969 L 179.476562 35.917969 Z M 179.476562 79.824219 "/>
<path style=" stroke:none;fill-rule:nonzero;fill:rgb(0%,0%,0%);fill-opacity:1;" d="M 179.476562 25.953125 L 197.425781 25.953125 L 197.425781 79.824219 L 205.398438 79.824219 L 205.398438 17.957031 L 179.476562 17.957031 Z M 179.476562 25.953125 "/>
</g>
</svg>
