<?xml version="1.0" encoding="UTF-8" standalone="no"?>
<!-- Created with Inkscape (http://www.inkscape.org/) -->
<svg xmlns:dc="http://purl.org/dc/elements/1.1/" xmlns:cc="http://creativecommons.org/ns#" xmlns:rdf="http://www.w3.org/1999/02/22-rdf-syntax-ns#" xmlns:svg="http://www.w3.org/2000/svg" xmlns="http://www.w3.org/2000/svg" xmlns:sodipodi="http://sodipodi.sourceforge.net/DTD/sodipodi-0.dtd" xmlns:inkscape="http://www.inkscape.org/namespaces/inkscape" id="svg2" version="1.1" inkscape:version="0.91 r13725" width="182.36749" height="204.66624" xml:space="preserve" sodipodi:docname="Logo-Universität_des_Saarlandes.svg"><metadata id="metadata8"><rdf:RDF><cc:Work rdf:about=""><dc:format>image/svg+xml</dc:format><dc:type rdf:resource="http://purl.org/dc/dcmitype/StillImage"/><dc:title/></cc:Work></rdf:RDF></metadata><defs id="defs6"><inkscape:perspective sodipodi:type="inkscape:persp3d" inkscape:vp_x="0 : 0.5 : 1" inkscape:vp_y="0 : 1000 : 0" inkscape:vp_z="1 : 0.5 : 1" inkscape:persp3d-origin="0.5 : 0.33333333 : 1" id="perspective10"/><clipPath clipPathUnits="userSpaceOnUse" id="clipPath18"><path d="m 0,419.527 595.275,0 L 595.275,0 0,0 0,419.527 Z" id="path20" inkscape:connector-curvature="0"/></clipPath></defs><sodipodi:namedview pagecolor="#ffffff" bordercolor="#666666" borderopacity="1" objecttolerance="10" gridtolerance="10" guidetolerance="10" inkscape:pageopacity="0" inkscape:pageshadow="2" inkscape:window-width="1366" inkscape:window-height="705" id="namedview4" showgrid="false" inkscape:zoom="0.90006125" inkscape:cx="204.19153" inkscape:cy="107.0072" inkscape:window-x="-8" inkscape:window-y="-8" inkscape:window-maximized="1" inkscape:current-layer="g12" fit-margin-top="0" fit-margin-left="0" fit-margin-right="0" fit-margin-bottom="0"/><g id="g12" inkscape:groupmode="layer" inkscape:label="UdS_Logo_P541" transform="matrix(1.25,0,0,-1.25,-4.5571875,207.33312)"><g clip-path="url(#clipPath18)" id="g16" transform="translate(-89.63705,-125.7632)"><g transform="translate(239.1768,250.9287)" id="g22"><path inkscape:connector-curvature="0" id="path24" style="fill:#10427a;fill-opacity:1;fill-rule:nonzero;stroke:none" d="m 0,0 0,-97.63 -6.512,0 c -12.183,0 -23.396,5.76 -29.499,11.559 l 0,-16.85 15.133,0 6.23,-11.986 -2.879,0 -6.555,4.58 -8.503,0 3.029,-3.276 1.043,-9.427 -2.588,0 -11.674,12.703 -18.525,0 -4.022,-4.58 -2.584,0 3.149,11.986 15.174,0 -8.19,8.906 -30.518,0 -8.189,-8.906 15.174,0 3.152,-11.986 -2.59,0 -4.019,4.58 -18.528,0 -11.677,-12.705 -2.584,0 1.043,9.424 3.029,3.281 -8.502,0 -6.551,-4.58 -2.883,0 6.235,11.986 15.287,0 0,16.834 C -116,-91.88 -127.208,-97.63 -139.378,-97.63 l -6.516,0 0,97.63 c 0,8.232 6.523,12.848 14.68,12.848 10.134,0 17.547,-7.135 21.836,-14.256 l 3.48,42.109 16.688,0 c 0,0 5.074,-7.203 6.609,-9.381 l 18.625,0 c 1.539,2.166 6.68,9.381 6.68,9.381 l 16.291,0 4.382,-42.291 c 4.276,7.18 11.719,14.438 21.939,14.438 C -6.523,12.848 0,8.232 0,0"/></g><g transform="translate(165.9741,248.6709)" id="g26"><path inkscape:connector-curvature="0" id="path28" style="fill:#ffffff;fill-opacity:1;fill-rule:nonzero;stroke:none" d="M 0,0 -4.43,-3.326 0,-13.313 4.516,-3.326 0,0 Z"/></g><g transform="translate(193.9409,259.9678)" id="g30"><path inkscape:connector-curvature="0" id="path32" style="fill:#ffffff;fill-opacity:1;fill-rule:nonzero;stroke:none" d="m 0,0 c 0,-7.291 -5.912,-13.205 -13.207,-13.205 -7.291,0 -13.201,5.914 -13.201,13.205 0,7.291 5.91,13.205 13.201,13.205 C -5.912,13.205 0,7.291 0,0"/></g><g transform="translate(190.7554,259.9678)" id="g34"><path inkscape:connector-curvature="0" id="path36" style="fill:#173e7d;fill-opacity:1;fill-rule:nonzero;stroke:none" d="m 0,0 c 0,-5.535 -4.484,-10.02 -10.02,-10.02 -5.535,0 -10.021,4.485 -10.021,10.02 0,5.533 4.486,10.02 10.021,10.02 C -4.484,10.02 0,5.533 0,0"/></g><g transform="translate(186.5112,259.9678)" id="g38"><path inkscape:connector-curvature="0" id="path40" style="fill:#ffffff;fill-opacity:1;fill-rule:nonzero;stroke:none" d="m 0,0 c 0,-3.189 -2.584,-5.777 -5.777,-5.777 -3.188,0 -5.778,2.588 -5.778,5.777 0,3.189 2.59,5.777 5.778,5.777 C -2.584,5.777 0,3.189 0,0"/></g><g transform="translate(164.4976,259.9678)" id="g42"><path inkscape:connector-curvature="0" id="path44" style="fill:#ffffff;fill-opacity:1;fill-rule:nonzero;stroke:none" d="m 0,0 c 0,-7.291 -5.906,-13.205 -13.201,-13.205 -7.291,0 -13.201,5.914 -13.201,13.205 0,7.291 5.91,13.205 13.201,13.205 C -5.906,13.205 0,7.291 0,0"/></g><g transform="translate(161.3159,259.9678)" id="g46"><path inkscape:connector-curvature="0" id="path48" style="fill:#173e7d;fill-opacity:1;fill-rule:nonzero;stroke:none" d="m 0,0 c 0,-5.535 -4.482,-10.02 -10.02,-10.02 -5.531,0 -10.019,4.485 -10.019,10.02 0,5.533 4.488,10.02 10.019,10.02 C -4.482,10.02 0,5.533 0,0"/></g><g transform="translate(157.0737,259.9678)" id="g50"><path inkscape:connector-curvature="0" id="path52" style="fill:#ffffff;fill-opacity:1;fill-rule:nonzero;stroke:none" d="m 0,0 c 0,-3.189 -2.584,-5.777 -5.777,-5.777 -3.188,0 -5.778,2.588 -5.778,5.777 0,3.189 2.59,5.777 5.778,5.777 C -2.584,5.777 0,3.189 0,0"/></g><g transform="translate(147.0757,194.2871)" id="g54"><path inkscape:connector-curvature="0" id="path56" style="fill:#ffffff;fill-opacity:1;fill-rule:nonzero;stroke:none" d="M 0,0 C 0,0.953 -0.777,1.73 -1.732,1.73 -2.688,1.73 -3.465,0.953 -3.465,0 l 0,-11.211 c 0,-0.662 -0.473,-1.201 -1.058,-1.201 -0.584,0 -1.063,0.539 -1.063,1.201 l 0,11.211 c 0,0.953 -0.773,1.73 -1.73,1.73 -0.955,0 -1.729,-0.777 -1.729,-1.73 l 0,-20.275 c 0,-2.573 2.027,-4.664 4.522,-4.664 2.492,0 4.523,2.091 4.523,4.664 L 0,0 Z"/></g><g transform="translate(162.3413,189.6563)" id="g58"><path inkscape:connector-curvature="0" id="path60" style="fill:#ffffff;fill-opacity:1;fill-rule:nonzero;stroke:none" d="M 0,0 C 0,0.955 -0.773,1.732 -1.729,1.732 -2.689,1.732 -3.463,0.955 -3.463,0 l 0,-11.213 c 0,-0.664 -0.475,-1.203 -1.06,-1.203 -0.582,0 -1.061,0.539 -1.061,1.203 l 0,11.213 c 0,0.955 -0.773,1.732 -1.729,1.732 -0.96,0 -1.734,-0.777 -1.734,-1.732 l 0,-20.275 c 0,-2.575 2.031,-4.664 4.524,-4.664 2.496,0 4.523,2.089 4.523,4.664 L 0,0 Z"/></g><g transform="translate(178.4077,189.6563)" id="g62"><path inkscape:connector-curvature="0" id="path64" style="fill:#ffffff;fill-opacity:1;fill-rule:nonzero;stroke:none" d="M 0,0 C 0,0.955 -0.777,1.732 -1.73,1.732 -2.689,1.732 -3.463,0.955 -3.463,0 l 0,-11.213 c 0,-0.664 -0.475,-1.203 -1.06,-1.203 -0.586,0 -1.061,0.539 -1.061,1.203 l 0,11.213 c 0,0.955 -0.773,1.732 -1.732,1.732 -0.957,0 -1.731,-0.777 -1.731,-1.732 l 0,-20.275 c 0,-2.575 2.027,-4.664 4.524,-4.664 2.492,0 4.523,2.089 4.523,4.664 L 0,0 Z"/></g><g transform="translate(193.6714,194.2871)" id="g66"><path inkscape:connector-curvature="0" id="path68" style="fill:#ffffff;fill-opacity:1;fill-rule:nonzero;stroke:none" d="M 0,0 C 0,0.953 -0.773,1.73 -1.729,1.73 -2.686,1.73 -3.463,0.953 -3.463,0 l 0,-11.211 c 0,-0.662 -0.475,-1.201 -1.06,-1.201 -0.581,0 -1.061,0.539 -1.061,1.201 l 0,11.211 c 0,0.953 -0.773,1.73 -1.729,1.73 -0.955,0 -1.728,-0.777 -1.728,-1.73 l 0,-20.275 c 0,-2.573 2.027,-4.664 4.518,-4.664 2.496,0 4.523,2.091 4.523,4.664 L 0,0 Z"/></g><g transform="translate(147.0757,226.3799)" id="g70"><path inkscape:connector-curvature="0" id="path72" style="fill:#ffffff;fill-opacity:1;fill-rule:nonzero;stroke:none" d="M 0,0 C 0,0.955 -0.777,1.73 -1.732,1.73 -2.688,1.73 -3.465,0.955 -3.465,0 l 0,-11.213 c 0,-0.662 -0.473,-1.201 -1.058,-1.201 -0.584,0 -1.063,0.539 -1.063,1.201 l 0,11.213 c 0,0.955 -0.773,1.73 -1.73,1.73 -0.955,0 -1.729,-0.775 -1.729,-1.73 l 0,-20.276 c 0,-2.573 2.027,-4.664 4.522,-4.664 2.492,0 4.523,2.091 4.523,4.664 L 0,0 Z"/></g><g transform="translate(162.3413,221.749)" id="g74"><path inkscape:connector-curvature="0" id="path76" style="fill:#ffffff;fill-opacity:1;fill-rule:nonzero;stroke:none" d="M 0,0 C 0,0.953 -0.773,1.729 -1.729,1.729 -2.689,1.729 -3.463,0.953 -3.463,0 l 0,-11.212 c 0,-0.664 -0.475,-1.204 -1.06,-1.204 -0.582,0 -1.061,0.54 -1.061,1.204 l 0,11.212 c 0,0.953 -0.773,1.729 -1.729,1.729 -0.96,0 -1.734,-0.776 -1.734,-1.729 l 0,-20.278 c 0,-2.569 2.031,-4.664 4.524,-4.664 2.496,0 4.523,2.095 4.523,4.664 L 0,0 Z"/></g><g transform="translate(178.4077,221.749)" id="g78"><path inkscape:connector-curvature="0" id="path80" style="fill:#ffffff;fill-opacity:1;fill-rule:nonzero;stroke:none" d="M 0,0 C 0,0.953 -0.777,1.729 -1.73,1.729 -2.689,1.729 -3.463,0.953 -3.463,0 l 0,-11.212 c 0,-0.664 -0.475,-1.204 -1.06,-1.204 -0.586,0 -1.061,0.54 -1.061,1.204 l 0,11.212 c 0,0.953 -0.773,1.729 -1.732,1.729 -0.957,0 -1.731,-0.776 -1.731,-1.729 l 0,-20.278 c 0,-2.569 2.027,-4.664 4.524,-4.664 2.492,0 4.523,2.095 4.523,4.664 L 0,0 Z"/></g><g transform="translate(193.6714,226.3799)" id="g82"><path inkscape:connector-curvature="0" id="path84" style="fill:#ffffff;fill-opacity:1;fill-rule:nonzero;stroke:none" d="M 0,0 C 0,0.955 -0.773,1.73 -1.729,1.73 -2.686,1.73 -3.463,0.955 -3.463,0 l 0,-11.213 c 0,-0.662 -0.475,-1.201 -1.06,-1.201 -0.581,0 -1.061,0.539 -1.061,1.201 l 0,11.213 c 0,0.955 -0.773,1.73 -1.729,1.73 -0.955,0 -1.728,-0.775 -1.728,-1.73 l 0,-20.276 c 0,-2.573 2.027,-4.664 4.518,-4.664 2.496,0 4.523,2.091 4.523,4.664 L 0,0 Z"/></g><g transform="translate(120.2124,178.8633)" id="g86"><path inkscape:connector-curvature="0" id="path88" style="fill:#ffffff;fill-opacity:1;fill-rule:nonzero;stroke:none" d="m 0,0 c 0,-2.572 2.031,-4.664 4.527,-4.664 2.493,0 4.52,2.092 4.52,4.664 l 0,56.817 c 0,0.954 -0.774,1.727 -1.729,1.727 -0.959,0 -1.732,-0.773 -1.732,-1.727 l 0,-47.557 C 5.586,8.596 5.109,8.057 4.527,8.057 3.938,8.057 3.465,8.596 3.465,9.26 l 0,54.956 c 0,0.953 -0.776,1.728 -1.731,1.728 C 0.779,65.944 0,65.169 0,64.216 L 0,0 Z"/></g><g transform="translate(104.9487,172.0664)" id="g90"><path inkscape:connector-curvature="0" id="path92" style="fill:#ffffff;fill-opacity:1;fill-rule:nonzero;stroke:none" d="m 0,0 c 0,-2.568 2.027,-4.662 4.523,-4.662 2.495,0 4.522,2.094 4.522,4.662 l 0,78.501 c 0,0.953 -0.777,1.728 -1.732,1.728 -0.956,0 -1.729,-0.775 -1.729,-1.728 l 0,-61.472 c 0,-0.658 -0.477,-1.199 -1.061,-1.199 -0.585,0 -1.06,0.541 -1.06,1.199 l 0,60.269 c 0,0.957 -0.774,1.73 -1.734,1.73 C 0.773,79.028 0,78.255 0,77.298 L 0,0 Z"/></g><g transform="translate(212.187,243.0889)" id="g94"><path inkscape:connector-curvature="0" id="path96" style="fill:#ffffff;fill-opacity:1;fill-rule:nonzero;stroke:none" d="M 0,0 C 0,0.953 -0.773,1.729 -1.729,1.729 -2.689,1.729 -3.463,0.953 -3.463,0 l 0,-54.956 c 0,-0.662 -0.475,-1.201 -1.06,-1.201 -0.584,0 -1.061,0.539 -1.061,1.201 l 0,47.556 c 0,0.957 -0.773,1.732 -1.729,1.732 -0.96,0 -1.734,-0.775 -1.734,-1.732 l 0,-56.814 c 0,-2.572 2.029,-4.664 4.524,-4.664 2.496,0 4.523,2.092 4.523,4.664 L 0,0 Z"/></g><g transform="translate(227.4541,249.374)" id="g98"><path inkscape:connector-curvature="0" id="path100" style="fill:#ffffff;fill-opacity:1;fill-rule:nonzero;stroke:none" d="M 0,0 C 0,0.955 -0.777,1.73 -1.732,1.73 -2.688,1.73 -3.465,0.955 -3.465,0 l 0,-60.267 c 0,-0.66 -0.473,-1.203 -1.062,-1.203 -0.58,0 -1.059,0.543 -1.059,1.203 l 0,61.47 c 0,0.955 -0.773,1.731 -1.73,1.731 -0.955,0 -1.73,-0.776 -1.73,-1.731 l 0,-78.499 c 0,-2.568 2.028,-4.664 4.519,-4.664 2.496,0 4.527,2.096 4.527,4.664 L 0,0 Z"/></g><g transform="translate(165.9741,248.6709)" id="g102"><path inkscape:connector-curvature="0" id="path104" style="fill:#ffffff;fill-opacity:1;fill-rule:nonzero;stroke:none" d="M 0,0 -4.43,-3.326 0,-13.313 4.516,-3.326 0,0 Z"/></g><g transform="translate(193.9409,259.9678)" id="g106"><path inkscape:connector-curvature="0" id="path108" style="fill:#ffffff;fill-opacity:1;fill-rule:nonzero;stroke:none" d="m 0,0 c 0,-7.291 -5.912,-13.205 -13.207,-13.205 -7.291,0 -13.201,5.914 -13.201,13.205 0,7.291 5.91,13.205 13.201,13.205 C -5.912,13.205 0,7.291 0,0"/></g><g transform="translate(190.7554,259.9678)" id="g110"><path inkscape:connector-curvature="0" id="path112" style="fill:#10427a;fill-opacity:1;fill-rule:nonzero;stroke:none" d="m 0,0 c 0,-5.535 -4.484,-10.02 -10.02,-10.02 -5.535,0 -10.021,4.485 -10.021,10.02 0,5.533 4.486,10.02 10.021,10.02 C -4.484,10.02 0,5.533 0,0"/></g><g transform="translate(186.5112,259.9678)" id="g114"><path inkscape:connector-curvature="0" id="path116" style="fill:#ffffff;fill-opacity:1;fill-rule:nonzero;stroke:none" d="m 0,0 c 0,-3.189 -2.584,-5.777 -5.777,-5.777 -3.188,0 -5.778,2.588 -5.778,5.777 0,3.189 2.59,5.777 5.778,5.777 C -2.584,5.777 0,3.189 0,0"/></g><g transform="translate(164.4976,259.9678)" id="g118"><path inkscape:connector-curvature="0" id="path120" style="fill:#ffffff;fill-opacity:1;fill-rule:nonzero;stroke:none" d="m 0,0 c 0,-7.291 -5.906,-13.205 -13.201,-13.205 -7.291,0 -13.201,5.914 -13.201,13.205 0,7.291 5.91,13.205 13.201,13.205 C -5.906,13.205 0,7.291 0,0"/></g><g transform="translate(161.3159,259.9678)" id="g122"><path inkscape:connector-curvature="0" id="path124" style="fill:#10427a;fill-opacity:1;fill-rule:nonzero;stroke:none" d="m 0,0 c 0,-5.535 -4.482,-10.02 -10.02,-10.02 -5.531,0 -10.019,4.485 -10.019,10.02 0,5.533 4.488,10.02 10.019,10.02 C -4.482,10.02 0,5.533 0,0"/></g><g transform="translate(157.0737,259.9678)" id="g126"><path inkscape:connector-curvature="0" id="path128" style="fill:#ffffff;fill-opacity:1;fill-rule:nonzero;stroke:none" d="m 0,0 c 0,-3.189 -2.584,-5.777 -5.777,-5.777 -3.188,0 -5.778,2.588 -5.778,5.777 0,3.189 2.59,5.777 5.778,5.777 C -2.584,5.777 0,3.189 0,0"/></g><g transform="translate(147.0757,194.2871)" id="g130"><path inkscape:connector-curvature="0" id="path132" style="fill:#ffffff;fill-opacity:1;fill-rule:nonzero;stroke:none" d="M 0,0 C 0,0.953 -0.777,1.73 -1.732,1.73 -2.688,1.73 -3.465,0.953 -3.465,0 l 0,-11.211 c 0,-0.662 -0.473,-1.201 -1.058,-1.201 -0.584,0 -1.063,0.539 -1.063,1.201 l 0,11.211 c 0,0.953 -0.773,1.73 -1.73,1.73 -0.955,0 -1.729,-0.777 -1.729,-1.73 l 0,-20.275 c 0,-2.573 2.027,-4.664 4.522,-4.664 2.492,0 4.523,2.091 4.523,4.664 L 0,0 Z"/></g><g transform="translate(162.3413,189.6563)" id="g134"><path inkscape:connector-curvature="0" id="path136" style="fill:#ffffff;fill-opacity:1;fill-rule:nonzero;stroke:none" d="M 0,0 C 0,0.955 -0.773,1.732 -1.729,1.732 -2.689,1.732 -3.463,0.955 -3.463,0 l 0,-11.213 c 0,-0.664 -0.475,-1.203 -1.06,-1.203 -0.582,0 -1.061,0.539 -1.061,1.203 l 0,11.213 c 0,0.955 -0.773,1.732 -1.729,1.732 -0.96,0 -1.734,-0.777 -1.734,-1.732 l 0,-20.275 c 0,-2.575 2.031,-4.664 4.524,-4.664 2.496,0 4.523,2.089 4.523,4.664 L 0,0 Z"/></g><g transform="translate(178.4077,189.6563)" id="g138"><path inkscape:connector-curvature="0" id="path140" style="fill:#ffffff;fill-opacity:1;fill-rule:nonzero;stroke:none" d="M 0,0 C 0,0.955 -0.777,1.732 -1.73,1.732 -2.689,1.732 -3.463,0.955 -3.463,0 l 0,-11.213 c 0,-0.664 -0.475,-1.203 -1.06,-1.203 -0.586,0 -1.061,0.539 -1.061,1.203 l 0,11.213 c 0,0.955 -0.773,1.732 -1.732,1.732 -0.957,0 -1.731,-0.777 -1.731,-1.732 l 0,-20.275 c 0,-2.575 2.027,-4.664 4.524,-4.664 2.492,0 4.523,2.089 4.523,4.664 L 0,0 Z"/></g><g transform="translate(193.6714,194.2871)" id="g142"><path inkscape:connector-curvature="0" id="path144" style="fill:#ffffff;fill-opacity:1;fill-rule:nonzero;stroke:none" d="M 0,0 C 0,0.953 -0.773,1.73 -1.729,1.73 -2.686,1.73 -3.463,0.953 -3.463,0 l 0,-11.211 c 0,-0.662 -0.475,-1.201 -1.06,-1.201 -0.581,0 -1.061,0.539 -1.061,1.201 l 0,11.211 c 0,0.953 -0.773,1.73 -1.729,1.73 -0.955,0 -1.728,-0.777 -1.728,-1.73 l 0,-20.275 c 0,-2.573 2.027,-4.664 4.518,-4.664 2.496,0 4.523,2.091 4.523,4.664 L 0,0 Z"/></g><g transform="translate(147.0757,226.3799)" id="g146"><path inkscape:connector-curvature="0" id="path148" style="fill:#ffffff;fill-opacity:1;fill-rule:nonzero;stroke:none" d="M 0,0 C 0,0.955 -0.777,1.73 -1.732,1.73 -2.688,1.73 -3.465,0.955 -3.465,0 l 0,-11.213 c 0,-0.662 -0.473,-1.201 -1.058,-1.201 -0.584,0 -1.063,0.539 -1.063,1.201 l 0,11.213 c 0,0.955 -0.773,1.73 -1.73,1.73 -0.955,0 -1.729,-0.775 -1.729,-1.73 l 0,-20.276 c 0,-2.573 2.027,-4.664 4.522,-4.664 2.492,0 4.523,2.091 4.523,4.664 L 0,0 Z"/></g><g transform="translate(162.3413,221.749)" id="g150"><path inkscape:connector-curvature="0" id="path152" style="fill:#ffffff;fill-opacity:1;fill-rule:nonzero;stroke:none" d="M 0,0 C 0,0.953 -0.773,1.729 -1.729,1.729 -2.689,1.729 -3.463,0.953 -3.463,0 l 0,-11.212 c 0,-0.664 -0.475,-1.204 -1.06,-1.204 -0.582,0 -1.061,0.54 -1.061,1.204 l 0,11.212 c 0,0.953 -0.773,1.729 -1.729,1.729 -0.96,0 -1.734,-0.776 -1.734,-1.729 l 0,-20.278 c 0,-2.569 2.031,-4.664 4.524,-4.664 2.496,0 4.523,2.095 4.523,4.664 L 0,0 Z"/></g><g transform="translate(178.4077,221.749)" id="g154"><path inkscape:connector-curvature="0" id="path156" style="fill:#ffffff;fill-opacity:1;fill-rule:nonzero;stroke:none" d="M 0,0 C 0,0.953 -0.777,1.729 -1.73,1.729 -2.689,1.729 -3.463,0.953 -3.463,0 l 0,-11.212 c 0,-0.664 -0.475,-1.204 -1.06,-1.204 -0.586,0 -1.061,0.54 -1.061,1.204 l 0,11.212 c 0,0.953 -0.773,1.729 -1.732,1.729 -0.957,0 -1.731,-0.776 -1.731,-1.729 l 0,-20.278 c 0,-2.569 2.027,-4.664 4.524,-4.664 2.492,0 4.523,2.095 4.523,4.664 L 0,0 Z"/></g><g transform="translate(193.6714,226.3799)" id="g158"><path inkscape:connector-curvature="0" id="path160" style="fill:#ffffff;fill-opacity:1;fill-rule:nonzero;stroke:none" d="M 0,0 C 0,0.955 -0.773,1.73 -1.729,1.73 -2.686,1.73 -3.463,0.955 -3.463,0 l 0,-11.213 c 0,-0.662 -0.475,-1.201 -1.06,-1.201 -0.581,0 -1.061,0.539 -1.061,1.201 l 0,11.213 c 0,0.955 -0.773,1.73 -1.729,1.73 -0.955,0 -1.728,-0.775 -1.728,-1.73 l 0,-20.276 c 0,-2.573 2.027,-4.664 4.518,-4.664 2.496,0 4.523,2.091 4.523,4.664 L 0,0 Z"/></g><g transform="translate(120.2124,178.8633)" id="g162"><path inkscape:connector-curvature="0" id="path164" style="fill:#ffffff;fill-opacity:1;fill-rule:nonzero;stroke:none" d="m 0,0 c 0,-2.572 2.031,-4.664 4.527,-4.664 2.493,0 4.52,2.092 4.52,4.664 l 0,56.817 c 0,0.954 -0.774,1.727 -1.729,1.727 -0.959,0 -1.732,-0.773 -1.732,-1.727 l 0,-47.557 C 5.586,8.596 5.109,8.057 4.527,8.057 3.938,8.057 3.465,8.596 3.465,9.26 l 0,54.956 c 0,0.953 -0.776,1.728 -1.731,1.728 C 0.779,65.944 0,65.169 0,64.216 L 0,0 Z"/></g><g transform="translate(104.9487,172.0664)" id="g166"><path inkscape:connector-curvature="0" id="path168" style="fill:#ffffff;fill-opacity:1;fill-rule:nonzero;stroke:none" d="m 0,0 c 0,-2.568 2.027,-4.662 4.523,-4.662 2.495,0 4.522,2.094 4.522,4.662 l 0,78.501 c 0,0.953 -0.777,1.728 -1.732,1.728 -0.956,0 -1.729,-0.775 -1.729,-1.728 l 0,-61.472 c 0,-0.658 -0.477,-1.199 -1.061,-1.199 -0.585,0 -1.06,0.541 -1.06,1.199 l 0,60.269 c 0,0.957 -0.774,1.73 -1.734,1.73 C 0.773,79.028 0,78.255 0,77.298 L 0,0 Z"/></g><g transform="translate(212.187,243.0889)" id="g170"><path inkscape:connector-curvature="0" id="path172" style="fill:#ffffff;fill-opacity:1;fill-rule:nonzero;stroke:none" d="M 0,0 C 0,0.953 -0.773,1.729 -1.729,1.729 -2.689,1.729 -3.463,0.953 -3.463,0 l 0,-54.956 c 0,-0.662 -0.475,-1.201 -1.06,-1.201 -0.584,0 -1.061,0.539 -1.061,1.201 l 0,47.556 c 0,0.957 -0.773,1.732 -1.729,1.732 -0.96,0 -1.734,-0.775 -1.734,-1.732 l 0,-56.814 c 0,-2.572 2.029,-4.664 4.524,-4.664 2.496,0 4.523,2.092 4.523,4.664 L 0,0 Z"/></g><g transform="translate(227.4541,249.374)" id="g174"><path inkscape:connector-curvature="0" id="path176" style="fill:#ffffff;fill-opacity:1;fill-rule:nonzero;stroke:none" d="M 0,0 C 0,0.955 -0.777,1.73 -1.732,1.73 -2.688,1.73 -3.465,0.955 -3.465,0 l 0,-60.267 c 0,-0.66 -0.473,-1.203 -1.062,-1.203 -0.58,0 -1.059,0.543 -1.059,1.203 l 0,61.47 c 0,0.955 -0.773,1.731 -1.73,1.731 -0.955,0 -1.73,-0.776 -1.73,-1.731 l 0,-78.499 c 0,-2.568 2.028,-4.664 4.519,-4.664 2.496,0 4.527,2.096 4.527,4.664 L 0,0 Z"/></g><g transform="translate(286.0967,235.5674)" id="g178"/><g transform="translate(316.0479,235.7725)" id="g182"/><g transform="translate(348.5908,235.7725)" id="g188"/><g transform="translate(360.5986,235.7725)" id="g192"/><g transform="translate(391.8115,255.8291)" id="g196"/><g transform="translate(412.958,235.5674)" id="g200"/><g transform="translate(448.8467,255.8291)" id="g206"/><g transform="translate(488.7236,255.8291)" id="g212"/><g transform="translate(288.6221,213.3955)" id="g216"/><g transform="translate(300.3213,194.8379)" id="g220"/><g transform="translate(329.0107,194.6348)" id="g224"/><g transform="translate(284.9014,153.7012)" id="g228"/><g transform="translate(307.8936,171.0293)" id="g232"/><g transform="translate(331.7061,171.0293)" id="g236"/><g transform="translate(355.8877,173.9629)" id="g240"/><g transform="translate(370.3525,153.9023)" id="g244"/><g transform="translate(399.4854,171.0293)" id="g248"/><g transform="translate(428.8213,153.9023)" id="g252"/><g transform="translate(452.6318,172.4629)" id="g256"/><g transform="translate(464.333,153.9023)" id="g260"/><g transform="translate(492.9893,153.7012)" id="g264"/></g></g></svg>