<?xml version="1.0" encoding="UTF-8"?>
<svg xmlns="http://www.w3.org/2000/svg" x="0px" y="0px" width="359px" height="61px">
<path fill="#FFFFFF" d="M51.78,6.67c-14.13-8.62-36.41-8.14-50.66,0V29.3C1,41.52,8.79,52.89,19.44,58.04  c2.4,1.2,4.55,1.92,7.07,2.51c2.51-0.6,4.67-1.44,7.07-2.51C44.23,52.77,52.02,41.4,51.9,29.3L51.78,6.67z"/>
<path d="M65.31,40.08h-1.08l-0.12-8.74h1.2c0.96,5.03,3.47,7.54,7.31,7.54c3.23,0,5.15-1.68,5.15-4.31c0-1.32-0.48-2.28-1.32-2.87  c-1.08-0.72-2.75-1.08-4.91-1.68c-4.79-1.32-7.19-2.51-7.19-6.47c0-3.71,2.51-6.11,6.47-6.11c2.16,0,4.07,0.72,5.63,2.16l1.2-1.8  h1.08l0.36,7.78h-1.2c-1.2-4.43-3.47-6.71-7.07-6.71c-2.63,0-4.19,1.32-4.19,3.59c0,2.87,2.28,3.23,6.23,4.19  c2.16,0.6,3.95,0.96,5.39,2.28c1.2,1.08,1.8,2.75,1.8,4.67c0,4.19-2.63,6.71-7.42,6.71c-2.4,0-4.55-0.84-5.99-2.28L65.31,40.08z   M80.4,27.15v-1.2c2.51-0.24,3.83-2.28,4.07-6.23h1.32v6.11h4.31v1.32h-4.43v8.74c0,1.68,0.36,2.51,1.8,2.51  c1.68,0,2.4-1.32,2.51-4.07h1.08c0,0.12,0,0.24,0,0.36c0,3.59-1.68,5.63-4.67,5.63c-2.75,0-3.47-1.32-3.47-4.19v-8.98  C82.92,27.15,80.4,27.15,80.4,27.15z M98.48,25.23c3.95,0,6.71,2.99,6.71,7.42s-2.75,7.42-6.71,7.42c-3.95,0-6.83-2.99-6.83-7.42  S94.53,25.23,98.48,25.23z M98.48,39c2.63,0,3.71-1.92,3.71-6.23s-1.08-6.23-3.71-6.23c-2.63,0-3.71,2.04-3.71,6.23  S95.85,39,98.48,39z M105.91,38.4l1.32-0.12c0.84,0,0.96-0.24,0.96-1.08v-9.1c0-0.96-0.36-1.2-1.68-1.2c-0.24,0-0.6,0-0.96,0v-1.2  l5.15-0.36v2.87c1.32-2.04,2.87-2.87,4.91-2.87c2.87,0,4.55,1.68,4.55,4.79v7.07c0,0.84,0.24,1.08,0.96,1.08l1.32,0.12v1.32h-7.31  V38.4l1.32-0.12c0.84,0,0.96-0.24,0.96-1.08v-7.19c0-1.8-0.96-2.87-2.75-2.87c-2.51,0-3.83,1.68-3.83,5.03v5.03  c0,0.84,0.12,1.08,0.96,1.08l1.32,0.12v1.32h-7.31V38.4H105.91z M124.11,28.34c-0.24-0.48-0.48-0.84-0.72-0.96  c-0.36-0.24-0.96-0.36-1.68-0.36v-1.32h7.07v1.32c-0.36,0-0.6,0-0.72,0c-0.84,0-1.2,0.12-1.2,0.6c0,0.24,0.12,0.48,0.36,0.96  l3.23,7.31l2.99-7.19c0.12-0.24,0.12-0.36,0.12-0.72c0-0.84-0.6-0.96-2.16-1.08v-1.32h5.87v1.32c-1.08,0-1.8,0.48-2.28,1.68  l-5.15,11.86c-1.56,3.59-3.23,5.51-5.87,5.51c-1.8,0-2.75-0.96-2.75-2.28c0-0.96,0.72-1.8,1.8-1.8c0.96,0,1.56,0.6,1.56,1.44  c0,0.48-0.24,0.72-0.24,0.84c0,0.24,0.24,0.36,0.6,0.36c0.96,0,2.51-1.56,3.71-4.79l0.24-0.48L124.11,28.34z M142.68,38.28h1.56  c1.2,0,1.56-0.24,1.56-1.44V20.8c0-1.2-0.36-1.44-1.56-1.44h-1.56v-1.44h11.38c4.31,0,6.47,1.92,6.47,5.27  c0,2.63-1.68,4.31-5.03,5.03c4.19,0.6,6.23,2.4,6.23,5.63c0,3.59-2.87,5.87-8.02,5.87h-11.02V38.28z M149.02,27.75h2.4  c3.83,0,5.63-0.96,5.63-4.19c0-2.99-1.32-4.19-4.55-4.19h-1.92c-1.2,0-1.56,0.36-1.56,1.32V27.75z M149.02,36.85  c0,1.08,0.36,1.44,1.68,1.44h2.16c3.59,0,5.15-1.32,5.15-4.55c0-3.47-1.92-4.67-6.23-4.67h-2.75  C149.02,29.06,149.02,36.85,149.02,36.85z M168.66,38.4l1.8,0.12v1.32h-7.9v-1.32l1.44-0.12c0.84,0,0.96-0.24,0.96-1.08v-9.1  c0-1.08-0.36-1.2-1.8-1.2c-0.24,0-0.6,0-0.96,0v-1.2l5.27-0.36v4.19c0.96-2.87,2.51-4.31,4.43-4.31c1.68,0,2.75,1.08,2.75,2.51  c0,1.08-0.72,1.92-1.8,1.92c-1.08,0-1.8-0.72-1.8-1.68c0-0.6,0.24-1.08,0.6-1.32c-0.12,0-0.12,0-0.24,0c-1.92,0-3.83,2.87-3.83,7.31  v3.23C167.58,38.16,167.82,38.4,168.66,38.4z M181.72,25.23c3.95,0,6.71,2.99,6.71,7.42s-2.75,7.42-6.71,7.42  c-3.95,0-6.83-2.99-6.83-7.42S177.76,25.23,181.72,25.23z M181.72,39c2.63,0,3.71-1.92,3.71-6.23s-1.08-6.23-3.71-6.23  c-2.63,0-3.71,2.04-3.71,6.23C178.12,36.97,179.2,39,181.72,39z M196.69,25.23c3.95,0,6.71,2.99,6.71,7.42s-2.75,7.42-6.71,7.42  c-3.95,0-6.83-2.99-6.83-7.42S192.73,25.23,196.69,25.23z M196.57,39c2.63,0,3.71-1.92,3.71-6.23s-1.08-6.23-3.71-6.23  c-2.63,0-3.71,2.04-3.71,6.23C192.97,36.97,194.05,39,196.57,39z M203.51,38.4l1.32-0.12c0.84,0,1.08-0.24,1.08-1.08V20.08  c0-0.96-0.36-1.2-1.68-1.2c-0.24,0-0.6,0-0.84,0v-1.2l5.27-0.36V32.3l4.67-4.19c0.24-0.24,0.36-0.48,0.36-0.72  c0-0.36-0.48-0.48-1.56-0.48h-0.96v-1.2h7.66v1.2c-0.12,0-0.12,0-0.24,0c-1.92,0-3.11,0.96-4.67,2.4l-1.56,1.44l4.79,6.35  c0.72,1.08,1.56,1.44,2.99,1.44v1.32h-7.78v-1.32l0.96-0.12c0.72,0,1.08-0.12,1.08-0.48c0-0.24-0.12-0.36-0.24-0.6l-3.59-4.91  l-1.8,1.68v3.23c0,0.84,0.24,1.08,1.08,1.08l1.32,0.12v1.32h-7.42V38.4H203.51z"/>
<path fill="#990000" d="M234.77,17.93v1.44h-1.56c-1.2,0-1.56,0.36-1.56,1.44v12.22c0,3.83,1.92,5.63,5.99,5.63  c2.75,0,4.55-0.96,5.39-2.75c0.36-0.84,0.48-2.28,0.48-4.19v-9.46c0-1.8-0.36-2.75-2.16-2.75h-1.32v-1.56h8.26v1.44h-1.08  c-1.68,0-2.16,0.84-2.16,2.75v9.58c0,5.87-2.16,8.5-8.38,8.5c-5.51,0-8.26-2.4-8.26-7.31V20.8c0-1.2-0.36-1.44-1.56-1.44h-1.92  v-1.44H234.77z M246.74,38.4l1.32-0.12c0.84,0,0.96-0.24,0.96-1.08v-9.1c0-0.96-0.36-1.2-1.68-1.2c-0.24,0-0.6,0-0.96,0v-1.2  l5.15-0.36v2.87c1.32-2.04,2.87-2.87,4.91-2.87c2.87,0,4.55,1.68,4.55,4.79v7.07c0,0.84,0.24,1.08,0.96,1.08l1.32,0.12v1.32h-7.31  V38.4l1.32-0.12c0.84,0,0.96-0.24,0.96-1.08v-7.19c0-1.8-0.96-2.87-2.75-2.87c-2.51,0-3.83,1.68-3.83,5.03v5.03  c0,0.84,0.12,1.08,0.96,1.08l1.32,0.12v1.32h-7.31V38.4H246.74z M263.99,38.4l1.44-0.12c0.84,0,1.08-0.24,1.08-1.08v-9.1  c0-0.96-0.36-1.2-1.68-1.2c-0.24,0-0.6,0-0.84,0v-1.2l5.27-0.36v11.86c0,0.84,0.24,1.08,1.08,1.08l1.32,0.12v1.32h-7.54V38.4H263.99  z M269.62,19.72c0,0.96-0.84,1.8-1.8,1.8s-1.8-0.84-1.8-1.8c0-0.96,0.84-1.8,1.8-1.8S269.62,18.76,269.62,19.72z M278.36,40.2  l-5.27-11.98c-0.36-0.96-0.84-1.2-1.92-1.2c-0.12,0-0.12,0-0.24,0v-1.32h6.71v1.32c-1.32,0-1.8,0.12-1.8,0.72  c0,0.24,0.12,0.48,0.36,0.96l3.23,7.54l2.63-6.95c0.24-0.48,0.36-0.84,0.36-1.2c0-0.6-0.6-1.08-1.68-1.08c-0.12,0-0.24,0-0.36,0  v-1.32h5.87v1.32c-1.32,0-2.04,0.72-2.51,2.16l-4.43,11.02H278.36z M289.14,33.61c0,3.23,1.68,5.03,3.95,5.03  c2.04,0,3.71-1.08,4.79-3.23l1.08,0.6c-1.32,2.87-3.47,4.19-6.35,4.19c-3.83,0-6.59-2.87-6.59-7.42c0-4.43,2.75-7.42,6.59-7.42  s6.35,2.63,6.35,7.19c0,0.24,0,0.36,0,0.6h-9.82C289.14,33.13,289.14,33.37,289.14,33.61z M294.77,31.7c0.84,0,1.08-0.24,1.08-0.96  c0-2.75-1.2-4.19-3.23-4.19c-2.28,0-3.35,1.68-3.47,5.15H294.77z M305.79,38.4l1.8,0.12v1.32h-7.9v-1.32l1.44-0.12  c0.84,0,0.96-0.24,0.96-1.08v-9.1c0-1.08-0.36-1.2-1.8-1.2c-0.24,0-0.6,0-0.96,0v-1.2l5.27-0.36v4.19c0.96-2.87,2.51-4.31,4.43-4.31  c1.68,0,2.75,1.08,2.75,2.51c0,1.08-0.72,1.92-1.8,1.92s-1.8-0.72-1.8-1.68c0-0.6,0.24-1.08,0.6-1.32c-0.12,0-0.12,0-0.24,0  c-1.92,0-3.83,2.87-3.83,7.31v3.23C304.71,38.16,304.95,38.4,305.79,38.4z M313.69,34.21c0.72,3.11,2.51,4.79,4.91,4.79  c1.92,0,3.11-0.96,3.11-2.51s-1.2-1.92-3.11-2.28c-3.59-0.72-5.87-1.44-5.87-4.79c0-2.51,1.68-4.07,4.19-4.07  c1.44,0,2.51,0.24,3.83,1.2l0.84-1.08h0.96v5.03h-0.96c-0.84-2.63-2.4-3.95-4.43-3.95c-1.68,0-2.75,0.96-2.75,2.04  c0,1.8,1.32,2.04,3.71,2.51c3.59,0.72,5.39,1.56,5.39,4.55c0,2.87-1.92,4.67-5.03,4.67c-1.44,0-2.63-0.48-3.95-1.44l-0.96,1.44  h-0.96v-5.99h1.08V34.21z M324.59,38.4l1.44-0.12c0.84,0,1.08-0.24,1.08-1.08v-9.1c0-0.96-0.36-1.2-1.68-1.2c-0.24,0-0.6,0-0.84,0  v-1.2l5.27-0.36v11.86c0,0.84,0.24,1.08,1.08,1.08l1.32,0.12v1.32h-7.54V38.4H324.59z M330.22,19.72c0,0.96-0.84,1.8-1.8,1.8  c-0.96,0-1.8-0.84-1.8-1.8c0-0.96,0.84-1.8,1.8-1.8C329.26,17.93,330.22,18.76,330.22,19.72z M331.89,27.15v-1.2  c2.51-0.24,3.83-2.28,4.07-6.23h1.32v6.11h4.31v1.32h-4.43v8.74c0,1.68,0.36,2.51,1.8,2.51c1.68,0,2.4-1.32,2.51-4.07h1.08  c0,0.12,0,0.24,0,0.36c0,3.59-1.68,5.63-4.67,5.63c-2.75,0-3.47-1.32-3.47-4.19v-8.98C334.41,27.15,331.89,27.15,331.89,27.15z   M344.83,28.34c-0.24-0.48-0.48-0.84-0.72-0.96c-0.36-0.24-0.96-0.36-1.68-0.36v-1.32h7.07v1.32c-0.36,0-0.6,0-0.72,0  c-0.84,0-1.2,0.12-1.2,0.6c0,0.24,0.12,0.48,0.36,0.96l3.23,7.31l2.99-7.19c0.12-0.24,0.12-0.36,0.12-0.72  c0-0.84-0.6-0.96-2.16-1.08v-1.32H358v1.32c-1.08,0-1.8,0.48-2.28,1.68l-5.15,11.86c-1.56,3.59-3.23,5.51-5.87,5.51  c-1.8,0-2.75-0.96-2.75-2.28c0-0.96,0.72-1.8,1.8-1.8c0.96,0,1.56,0.6,1.56,1.44c0,0.48-0.24,0.72-0.24,0.84  c0,0.24,0.24,0.36,0.6,0.36c0.96,0,2.51-1.56,3.71-4.79l0.24-0.48L344.83,28.34z M43.64,50.38L32.98,0.56  c-0.48,0-0.96-0.12-1.32-0.12l8.86,52.93C41.6,52.42,42.68,51.46,43.64,50.38z M51.78,31.1L39.44,1.64  c-0.48-0.12-0.96-0.24-1.44-0.24l13.05,34.73C51.54,34.45,51.66,32.78,51.78,31.1z M33.46,58.16c0.84-0.36,1.56-0.84,2.4-1.32  L29.74,0.32c-0.48,0-0.96,0-1.44,0l3.71,58.44C32.5,58.64,32.98,58.4,33.46,58.16z M49.14,41.88L36.09,1.04  c-0.48-0.12-0.96-0.12-1.32-0.24l12.34,44.91C47.83,44.51,48.55,43.19,49.14,41.88z M51.9,6.55c-3.11-1.92-6.71-3.35-10.42-4.43  l10.42,21.8V6.55z M1,6.55v22.63C0.88,41.52,8.67,52.89,19.32,58.16c2.4,1.2,4.55,1.92,7.07,2.51V0.32C17.29,0.32,8.19,2.48,1,6.55z   M16.69,27.39l1.44,4.31l-3.71-2.75L10.7,31.7l1.44-4.31l-3.71-2.63h4.55l1.44-4.31l1.44,4.31h4.55L16.69,27.39z"/>
</svg>