<?xml version="1.0" encoding="UTF-8" standalone="no"?>
<svg
   xmlns:dc="http://purl.org/dc/elements/1.1/"
   xmlns:cc="http://creativecommons.org/ns#"
   xmlns:rdf="http://www.w3.org/1999/02/22-rdf-syntax-ns#"
   xmlns:svg="http://www.w3.org/2000/svg"
   xmlns="http://www.w3.org/2000/svg"
   xmlns:sodipodi="http://sodipodi.sourceforge.net/DTD/sodipodi-0.dtd"
   xmlns:inkscape="http://www.inkscape.org/namespaces/inkscape"
   version="1.1"
   id="svg2"
   xml:space="preserve"
   width="399.58667"
   height="63.213333"
   viewBox="0 0 399.58667 63.213333"
   sodipodi:docname="MDH logotype english wide.eps"><metadata
     id="metadata8"><rdf:RDF><cc:Work
         rdf:about=""><dc:format>image/svg+xml</dc:format><dc:type
           rdf:resource="http://purl.org/dc/dcmitype/StillImage" /></cc:Work></rdf:RDF></metadata><defs
     id="defs6" /><sodipodi:namedview
     pagecolor="#ffffff"
     bordercolor="#666666"
     borderopacity="1"
     objecttolerance="10"
     gridtolerance="10"
     guidetolerance="10"
     inkscape:pageopacity="0"
     inkscape:pageshadow="2"
     inkscape:window-width="640"
     inkscape:window-height="480"
     id="namedview4" /><g
     id="g10"
     inkscape:groupmode="layer"
     inkscape:label="ink_ext_XXXXXX"
     transform="matrix(1.3333333,0,0,-1.3333333,0,63.213333)"><g
       id="g12"
       transform="scale(0.1)"><path
         d="M 309.309,210.563 H 103.246 C 81.1484,92.3047 144.602,0 252.914,0 289.414,0 326.625,10.4922 361.617,28.9102 315.66,65.7969 294.918,133.816 309.309,210.563"
         style="fill:#231f20;fill-opacity:1;fill-rule:nonzero;stroke:none"
         id="path14" /><path
         d="m 476.168,440.082 c -24.805,18.551 -56.309,29.082 -92.945,29.082 -104.785,0 -215.578,-86.375 -262.149,-199.105 h 206.074 c 29.606,72.476 85.059,135.171 149.02,170.023"
         style="fill:#231f20;fill-opacity:1;fill-rule:nonzero;stroke:none"
         id="path16" /><path
         d="m 361.617,28.9102 c 0.938,0.4648 1.805,1.0351 2.735,1.5351 -0.692,0.5156 -1.391,1.0274 -2.063,1.582 l -0.672,-3.1171"
         style="fill:#231f20;fill-opacity:1;fill-rule:nonzero;stroke:none"
         id="path18" /><path
         d="m 589.293,469.164 c -37.773,0 -76.367,-11.246 -112.434,-30.887 46.145,-34.48 68.516,-95.3 57.961,-168.218 h 206.016 c 16.094,112.73 -46.738,199.105 -151.543,199.105"
         style="fill:#231f20;fill-opacity:1;fill-rule:nonzero;stroke:none"
         id="path20" /><path
         d="M 364.352,30.4453 C 389.398,11.0742 421.5,0 458.969,0 567.32,0 682.027,92.3047 725.621,210.563 H 519.438 C 490.922,133.207 432.047,67.0078 364.352,30.4453"
         style="fill:#231f20;fill-opacity:1;fill-rule:nonzero;stroke:none"
         id="path22" /><path
         d="m 835.074,225.25 11.289,31 H 11.2734 L 0,225.25 h 835.074"
         style="fill:#231f20;fill-opacity:1;fill-rule:nonzero;stroke:none"
         id="path24" /><path
         d="m 936.324,266.855 28.973,168.504 h 45.033 l -0.57,-99.519 h 0.36 l 34.2,99.519 h 44.67 L 1060,266.855 h -30.51 l 25.99,132.118 h -0.37 l -45.23,-132.118 h -23.794 l 0.73,132.118 h -0.367 L 966.656,266.855 h -30.332 v 0"
         style="fill:#f57c14;fill-opacity:1;fill-rule:nonzero;stroke:none"
         id="path26" /><path
         d="m 1182.11,266.855 28.99,168.504 h 31.97 l -23.19,-134.804 h 39.07 l -5.8,-33.7 h -71.04 v 0"
         style="fill:#f57c14;fill-opacity:1;fill-rule:nonzero;stroke:none"
         id="path28" /><path
         d="m 1336.11,404.824 h -0.34 l -22.26,-75.511 h 18.52 l 4.08,75.511 z m -72.77,-137.969 58.76,168.504 h 38.52 l 0.63,-168.504 h -32.32 l 1.07,32.821 h -25.04 l -9.46,-32.821 h -32.16 v 0"
         style="fill:#f57c14;fill-opacity:1;fill-rule:nonzero;stroke:none"
         id="path30" /><path
         d="m 1421.8,363.707 h 10.91 c 9.23,0 13.25,10.559 15.01,20.879 3.46,19.992 -3.12,20.906 -18.83,20.453 l -7.09,-41.332 z m -16.65,-96.852 h -31.97 l 28.97,168.504 h 46.67 c 26.17,0 37,-13.019 31.24,-46.507 -3.08,-17.95 -8.73,-30.778 -23.5,-38.407 L 1456.48,350 c 8.48,-2.484 13.53,-10.117 12.06,-21.793 -1.41,-13.492 -6.2,-42.48 -6.24,-53.25 0.34,-2.242 0.89,-4.269 2.08,-5.84 l -0.38,-2.262 h -34.88 c -0.38,3.145 -0.56,6.293 -0.16,9.649 2.01,14.848 5.13,28.797 6.01,39.117 0.86,10.324 -0.52,17.07 -7.84,17.758 h -10.55 l -11.43,-66.524 v 0"
         style="fill:#f57c14;fill-opacity:1;fill-rule:nonzero;stroke:none"
         id="path32" /><path
         d="m 1514.92,297.191 c 21.12,-1.8 23.16,8.989 26.47,31.477 l 9.47,55.031 c 3.22,19.766 -1.85,20.879 -17.39,21.34 l -18.55,-107.848 z m -37.18,-30.336 28.96,168.504 h 34.69 c 11.64,0 25.53,-0.453 34.61,-7.839 10.81,-8.989 9.97,-25.391 7.2,-41.579 l -12.86,-74.824 c -3.07,-16.855 -9.37,-29.199 -19.87,-36.394 -9.52,-6.754 -19.86,-7.868 -29.69,-7.868 h -43.04 v 0"
         style="fill:#f57c14;fill-opacity:1;fill-rule:nonzero;stroke:none"
         id="path34" /><path
         d="m 1642.99,404.824 h -0.37 l -22.23,-75.511 h 18.53 l 4.07,75.511 z m -72.76,-137.969 58.78,168.504 h 38.49 l 0.63,-168.504 h -32.32 l 1.07,32.821 h -25.05 l -9.45,-32.821 h -32.15 v 0"
         style="fill:#f57c14;fill-opacity:1;fill-rule:nonzero;stroke:none"
         id="path36" /><path
         d="m 1681.97,266.855 28.98,168.504 h 31.97 l -23.19,-134.804 h 39.05 l -5.79,-33.7 h -71.02 v 0"
         style="fill:#f57c14;fill-opacity:1;fill-rule:nonzero;stroke:none"
         id="path38" /><path
         d="m 1767.08,266.855 28.96,168.504 h 73.22 l -5.81,-33.683 h -41.22 l -5.32,-30.988 h 39.95 l -5.79,-33.711 h -39.95 l -6.28,-36.422 h 43.43 l -5.8,-33.7 h -75.39 v 0"
         style="fill:#f57c14;fill-opacity:1;fill-rule:nonzero;stroke:none"
         id="path40" /><path
         d="m 1901.45,361.219 -0.42,-0.442 -13.25,-93.922 h -30.33 l 28.97,168.504 h 32.89 l 8.49,-94.14 h 0.55 l 13.11,94.14 h 30.31 l -28.95,-168.504 h -32.7 l -8.67,94.364 v 0"
         style="fill:#f57c14;fill-opacity:1;fill-rule:nonzero;stroke:none"
         id="path42" /><path
         d="m 1145.97,404.824 h -0.36 l -22.26,-75.511 h 18.54 l 4.08,75.511 z m -72.76,-137.969 58.75,168.504 h 38.5 l 0.65,-168.504 h -32.34 l 1.1,32.821 h -25.07 l -9.44,-32.821 h -32.15 v 0"
         style="fill:#f57c14;fill-opacity:1;fill-rule:nonzero;stroke:none"
         id="path44" /><path
         d="m 1163.05,474.105 h 28.71 l -5.03,-29.199 h -28.69 l 5.01,29.199 v 0"
         style="fill:#f57c14;fill-opacity:1;fill-rule:nonzero;stroke:none"
         id="path46" /><path
         d="m 1152.52,474.105 -5.02,-29.199 h -28.69 l 5.02,29.199 h 28.69 v 0"
         style="fill:#f57c14;fill-opacity:1;fill-rule:nonzero;stroke:none"
         id="path48" /><path
         d="m 2555,365.004 h 10.91 c 9.26,0 13.26,10.562 15.03,20.879 3.45,20 -3.13,20.914 -18.85,20.453 L 2555,365.004 Z m -16.64,-96.856 h -31.97 l 28.98,168.516 h 46.66 c 26.18,0 36.98,-13.023 31.23,-46.512 -3.08,-17.949 -8.72,-30.773 -23.5,-38.406 l -0.07,-0.441 c 8.5,-2.489 13.53,-10.117 12.06,-21.793 -1.42,-13.5 -6.22,-42.492 -6.24,-53.266 0.32,-2.238 0.89,-4.266 2.06,-5.836 l -0.38,-2.262 h -34.86 c -0.38,3.141 -0.55,6.293 -0.15,9.649 1.99,14.848 5.12,28.801 6.01,39.117 0.85,10.336 -0.53,17.074 -7.85,17.77 h -10.56 l -11.42,-66.536 v 0"
         style="fill:#f57c14;fill-opacity:1;fill-rule:nonzero;stroke:none"
         id="path50" /><path
         d="m 2251.72,268.148 29,168.516 h 31.95 L 2283.9,268.148 h -32.18 v 0"
         style="fill:#f57c14;fill-opacity:1;fill-rule:nonzero;stroke:none"
         id="path52" /><path
         d="m 2713.54,268.148 28.99,168.516 h 31.96 l -28.77,-168.516 h -32.18 v 0"
         style="fill:#f57c14;fill-opacity:1;fill-rule:nonzero;stroke:none"
         id="path54" /><path
         d="m 2793.43,436.664 -5.8,-33.711 h 28.03 l -23.4,-134.805 h 32.16 l 23.33,134.805 h 28.01 l 5.88,33.711 h -88.21"
         style="fill:#f57c14;fill-opacity:1;fill-rule:nonzero;stroke:none"
         id="path56" /><path
         d="m 2412.73,268.148 28.96,168.516 h 73.22 l -5.8,-33.691 h -41.22 l -5.34,-30.981 h 39.96 l -5.8,-33.711 h -39.96 l -6.26,-36.429 h 43.43 l -5.8,-33.704 h -75.39 v 0"
         style="fill:#f57c14;fill-opacity:1;fill-rule:nonzero;stroke:none"
         id="path58" /><path
         d="m 2183.98,362.523 -0.43,-0.449 -13.24,-93.926 h -30.35 l 29,168.516 h 32.89 l 8.48,-94.141 h 0.56 l 13.09,94.141 h 30.33 l -28.96,-168.516 h -32.7 l -8.67,94.375 v 0"
         style="fill:#f57c14;fill-opacity:1;fill-rule:nonzero;stroke:none"
         id="path60" /><path
         d="m 2650.41,324.664 -2.06,-11.902 c -1.66,-9.68 -0.54,-18.215 9.59,-18.215 7.47,0 12.17,8.324 13.64,16.855 2.42,14.168 -6.1,19.555 -13.38,25.848 -8.6,6.965 -15.84,13.492 -20.35,22.023 -4.34,8.536 -6.02,18.875 -3.48,33.704 5.45,31.687 23.67,47.839 48.38,47.839 27.77,0 38,-22.906 31.1,-54.582 h -29.4 c 1.33,9.895 4,23.364 -6.37,24.243 -6.42,0.695 -11.01,-3.817 -13.03,-11.204 -2.65,-10.109 0.65,-15.281 6.08,-20.671 10.39,-9.434 19.71,-15.293 25.68,-23.809 5.98,-8.555 8.4,-19.785 4.88,-40.246 -5.54,-32.344 -23.14,-50.324 -49.68,-50.324 -29.24,0 -38.11,20.218 -34.3,42.457 l 3.11,17.984 h 29.59 v 0"
         style="fill:#f57c14;fill-opacity:1;fill-rule:nonzero;stroke:none"
         id="path62" /><path
         d="m 2393.26,436.664 -40.63,-137.976 7.27,137.976 h -32.4 l 0.64,-168.516 h 38.52 l 58.73,168.516 h -32.13"
         style="fill:#f57c14;fill-opacity:1;fill-rule:nonzero;stroke:none"
         id="path64" /><path
         d="m 2092.53,318.379 c -1.68,-9.649 -4.86,-24.043 -15.21,-24.043 -10.34,0 -9.16,14.394 -7.5,24.043 l 20.47,118.519 h -31.97 l -19.88,-115.144 c -6.53,-37.981 1.34,-57.746 33.65,-57.746 32.34,0 46.45,19.765 52.97,57.746 l 19.89,115.144 h -31.97 l -20.45,-118.519"
         style="fill:#f57c14;fill-opacity:1;fill-rule:nonzero;stroke:none"
         id="path66" /><path
         d="m 2935.12,381.637 h 0.39 l 27.74,55.031 h 33.62 l -53.54,-97.734 -12.3,-70.754 h -31.94 l 12.29,70.754 -18.79,97.734 h 34.31 l 8.22,-55.031 v 0"
         style="fill:#f57c14;fill-opacity:1;fill-rule:nonzero;stroke:none"
         id="path68" /><path
         d="M 960.063,96.4648 958.18,85.5039 c -1.535,-8.9336 -0.5,-16.7891 8.836,-16.7891 6.875,0 11.211,7.6641 12.558,15.5274 2.239,13.0508 -5.613,18.0078 -12.324,23.8208 -7.93,6.414 -14.598,12.425 -18.75,20.292 -4.004,7.864 -5.555,17.391 -3.223,31.059 5.032,29.195 21.828,44.07 44.582,44.07 25.591,0 35.031,-21.105 28.661,-50.293 h -27.09 c 1.23,9.118 3.691,21.539 -5.86,22.356 -5.925,0.625 -10.164,-3.535 -12,-10.344 -2.461,-9.305 0.594,-14.062 5.594,-19.035 9.57,-8.691 18.156,-14.094 23.676,-21.93 5.49,-7.886 7.73,-18.238 4.48,-37.1013 -5.11,-29.8008 -21.32,-46.3672 -45.781,-46.3672 -26.934,0 -35.117,18.6407 -31.601,39.1172 l 2.859,16.5781 h 27.266 v 0"
         style="fill:#f57c14;fill-opacity:1;fill-rule:nonzero;stroke:none"
         id="path70" /><path
         d="m 1171.19,45.0625 26.71,155.2855 h 67.44 L 1260,169.293 h -37.97 l -4.92,-28.555 h 36.81 l -5.33,-31.054 h -36.83 l -5.77,-33.5707 h 40.02 l -5.34,-31.0508 h -69.48 v 0"
         style="fill:#f57c14;fill-opacity:1;fill-rule:nonzero;stroke:none"
         id="path72" /><path
         d="m 1294.14,73.0703 c 19.46,-1.6601 21.34,8.2813 24.39,29.0037 l 8.73,50.715 c 2.97,18.207 -1.71,19.231 -16.02,19.66 l -17.1,-99.3787 z m -34.27,-27.9531 26.71,155.2738 h 31.95 c 10.73,0 23.53,-0.422 31.9,-7.227 9.96,-8.281 9.18,-23.402 6.64,-38.316 l -11.86,-68.9457 c -2.84,-15.5312 -8.62,-26.8984 -18.31,-33.5351 -8.77,-6.2266 -18.29,-7.25 -27.36,-7.25 h -39.67 v 0"
         style="fill:#f57c14;fill-opacity:1;fill-rule:nonzero;stroke:none"
         id="path74" /><path
         d="m 1353.66,45.1172 26.69,155.2738 h 67.46 l -5.35,-31.039 h -37.97 l -4.91,-28.563 h 36.79 l -5.32,-31.059 h -36.82 l -5.78,-33.5581 h 40.02 l -5.35,-31.0547 h -69.46 v 0"
         style="fill:#f57c14;fill-opacity:1;fill-rule:nonzero;stroke:none"
         id="path76" /><path
         d="m 1478.58,132.363 -0.4,-0.422 -12.21,-86.5426 h -27.96 l 26.72,155.2856 h 30.3 l 7.82,-86.754 h 0.52 l 12.05,86.754 h 27.95 L 1516.68,45.3984 h -30.12 l -7.98,86.9646 v 0"
         style="fill:#f57c14;fill-opacity:1;fill-rule:nonzero;stroke:none"
         id="path78" /><path
         d="m 1094.87,200.684 -37.44,-127.1488 6.7,127.1488 h -29.87 l 0.6,-155.2856 h 35.49 l 54.12,155.2856 h -29.6"
         style="fill:#f57c14;fill-opacity:1;fill-rule:nonzero;stroke:none"
         id="path80" /><path
         d="m 1155.63,200.746 -37.44,-127.1483 6.7,127.1483 h -29.87 l 0.6,-155.2812 h 35.49 l 54.12,155.2812 h -29.6"
         style="fill:#f57c14;fill-opacity:1;fill-rule:nonzero;stroke:none"
         id="path82" /></g></g></svg>
