<?xml version="1.0" encoding="UTF-8"?>
<svg xmlns="http://www.w3.org/2000/svg" xmlns:xlink="http://www.w3.org/1999/xlink" width="349pt" height="175pt" viewBox="0 0 349 175" version="1.1">
<defs>
<clipPath id="clip1">
  <path d="M 94 95 L 319 95 L 319 115.378906 L 94 115.378906 Z M 94 95 "/>
</clipPath>
<clipPath id="clip2">
  <path d="M 92 72 L 319.707031 72 L 319.707031 90 L 92 90 Z M 92 72 "/>
</clipPath>
</defs>
<g id="surface1">
<g clip-path="url(#clip1)" clip-rule="nonzero">
<path style=" stroke:none;fill-rule:nonzero;fill:rgb(0%,37.647059%,55.686275%);fill-opacity:1;" d="M 307.292969 114.992188 L 307.292969 105.125 L 306.863281 102.15625 L 307.003906 102.15625 L 308.480469 105.125 L 315.570312 115.125 L 318.253906 115.125 L 318.253906 96.070312 L 314.753906 96.070312 L 314.753906 106.019531 L 315.1875 108.910156 L 315.058594 108.910156 L 313.628906 106.015625 L 306.503906 95.9375 L 303.796875 95.9375 L 303.796875 114.992188 Z M 289.738281 99.238281 C 289.941406 99.1875 290.222656 99.152344 290.597656 99.132812 C 290.964844 99.117188 291.335938 99.105469 291.714844 99.105469 C 292.695312 99.105469 293.433594 99.335938 293.933594 99.792969 C 294.433594 100.25 294.683594 100.882812 294.683594 101.695312 C 294.683594 102.773438 294.378906 103.550781 293.769531 104.023438 C 293.15625 104.492188 292.335938 104.726562 291.308594 104.726562 L 289.738281 104.726562 Z M 289.738281 114.992188 L 289.738281 107.234375 L 291.742188 107.664062 L 295.988281 114.992188 L 300.238281 114.992188 L 295.960938 107.847656 L 294.605469 106.945312 C 295.6875 106.566406 296.558594 105.890625 297.210938 104.914062 C 297.859375 103.9375 298.1875 102.671875 298.1875 101.125 C 298.1875 100.085938 297.996094 99.222656 297.613281 98.527344 C 297.230469 97.832031 296.71875 97.285156 296.078125 96.890625 C 295.441406 96.496094 294.714844 96.214844 293.902344 96.050781 C 293.09375 95.890625 292.269531 95.808594 291.441406 95.808594 C 291.078125 95.808594 290.679688 95.816406 290.246094 95.835938 C 289.8125 95.855469 289.367188 95.878906 288.914062 95.914062 C 288.453125 95.953125 287.996094 96 287.53125 96.066406 C 287.066406 96.132812 286.636719 96.199219 286.242188 96.269531 L 286.242188 114.996094 L 289.738281 114.996094 Z M 282.410156 114.992188 L 282.410156 111.691406 L 274.59375 111.691406 L 274.59375 107.074219 L 281.605469 107.074219 L 281.605469 103.777344 L 274.59375 103.777344 L 274.59375 99.367188 L 282.273438 99.367188 L 282.273438 96.070312 L 271.09375 96.070312 L 271.09375 114.988281 L 282.410156 114.988281 Z M 258.371094 99.375 L 258.371094 114.996094 L 261.875 114.996094 L 261.875 99.375 L 267.570312 99.375 L 267.570312 96.074219 L 252.660156 96.074219 L 252.660156 99.375 Z M 243.121094 115.324219 C 244.105469 115.324219 245.011719 115.1875 245.839844 114.917969 C 246.667969 114.644531 247.371094 114.21875 247.945312 113.644531 C 248.519531 113.066406 248.96875 112.335938 249.289062 111.453125 C 249.609375 110.570312 249.769531 109.515625 249.769531 108.292969 L 249.769531 96.074219 L 246.269531 96.074219 L 246.269531 108.027344 C 246.269531 109.429688 246.019531 110.445312 245.511719 111.078125 C 245.007812 111.710938 244.1875 112.027344 243.054688 112.027344 C 242.484375 112.027344 241.980469 111.957031 241.550781 111.824219 C 241.121094 111.6875 240.761719 111.457031 240.472656 111.144531 C 240.179688 110.828125 239.96875 110.414062 239.832031 109.898438 C 239.699219 109.390625 239.628906 108.765625 239.628906 108.027344 L 239.628906 96.074219 L 236.128906 96.074219 L 236.128906 108.753906 C 236.128906 113.132812 238.457031 115.324219 243.121094 115.324219 M 224.914062 103.648438 L 225.476562 100.652344 L 225.609375 100.652344 L 226.1875 103.621094 L 227.582031 107.828125 L 223.53125 107.828125 Z M 221.167969 114.992188 L 222.441406 111.128906 L 228.648438 111.128906 L 229.898438 114.992188 L 233.394531 114.992188 L 226.609375 95.941406 L 223.964844 95.941406 L 217.476562 114.992188 Z M 215.304688 114.992188 L 215.304688 111.691406 L 206.871094 111.691406 L 206.871094 96.070312 L 203.371094 96.070312 L 203.371094 114.992188 Z M 189.304688 114.992188 C 190.300781 115.25 191.453125 115.378906 192.757812 115.378906 C 193.746094 115.378906 194.660156 115.257812 195.492188 115.019531 C 196.320312 114.78125 197.03125 114.417969 197.617188 113.929688 C 198.203125 113.441406 198.65625 112.828125 198.980469 112.09375 C 199.304688 111.359375 199.464844 110.480469 199.464844 109.460938 C 199.464844 108.480469 199.277344 107.65625 198.902344 106.996094 C 198.53125 106.335938 198.058594 105.777344 197.488281 105.328125 C 196.921875 104.878906 196.265625 104.484375 195.527344 104.148438 C 194.792969 103.808594 194.101562 103.492188 193.457031 103.195312 C 192.8125 102.902344 192.253906 102.574219 191.777344 102.21875 C 191.300781 101.859375 191.058594 101.414062 191.058594 100.882812 C 191.058594 100.308594 191.285156 99.851562 191.746094 99.511719 C 192.199219 99.171875 192.863281 99.003906 193.722656 99.003906 C 194.621094 99.003906 195.457031 99.105469 196.226562 99.308594 C 196.996094 99.511719 197.574219 99.742188 197.957031 99.992188 L 199.054688 96.84375 C 198.453125 96.472656 197.675781 96.191406 196.734375 95.996094 C 195.789062 95.804688 194.789062 95.707031 193.722656 95.707031 C 192.804688 95.707031 191.96875 95.8125 191.222656 96.03125 C 190.472656 96.246094 189.820312 96.585938 189.273438 97.039062 C 188.730469 97.492188 188.300781 98.0625 188.007812 98.746094 C 187.707031 99.433594 187.558594 100.238281 187.558594 101.164062 C 187.558594 102.214844 187.769531 103.082031 188.191406 103.757812 C 188.613281 104.4375 189.140625 105 189.78125 105.449219 C 190.421875 105.902344 191.113281 106.289062 191.851562 106.621094 C 192.589844 106.949219 193.28125 107.257812 193.925781 107.542969 C 194.566406 107.828125 195.070312 108.144531 195.425781 108.496094 C 195.78125 108.847656 195.964844 109.308594 195.964844 109.875 C 195.964844 110.617188 195.671875 111.171875 195.089844 111.535156 C 194.507812 111.898438 193.664062 112.082031 192.5625 112.082031 C 192.113281 112.082031 191.679688 112.042969 191.253906 111.972656 C 190.828125 111.90625 190.429688 111.816406 190.046875 111.707031 C 189.664062 111.597656 189.320312 111.484375 189.019531 111.355469 C 188.710938 111.230469 188.460938 111.113281 188.269531 111.007812 L 187.085938 114.214844 C 187.566406 114.476562 188.304688 114.734375 189.304688 114.992188 M 173.960938 99.238281 C 174.164062 99.1875 174.449219 99.152344 174.816406 99.132812 C 175.1875 99.117188 175.5625 99.105469 175.9375 99.105469 C 176.914062 99.105469 177.652344 99.335938 178.152344 99.792969 C 178.65625 100.25 178.90625 100.882812 178.90625 101.695312 C 178.90625 102.773438 178.601562 103.550781 177.992188 104.023438 C 177.378906 104.492188 176.5625 104.726562 175.53125 104.726562 L 173.960938 104.726562 Z M 173.960938 114.992188 L 173.960938 107.234375 L 175.964844 107.664062 L 180.210938 114.992188 L 184.457031 114.992188 L 180.183594 107.847656 L 178.828125 106.945312 C 179.914062 106.566406 180.78125 105.890625 181.433594 104.914062 C 182.082031 103.9375 182.40625 102.671875 182.40625 101.125 C 182.40625 100.085938 182.214844 99.222656 181.835938 98.527344 C 181.453125 97.832031 180.941406 97.285156 180.304688 96.890625 C 179.664062 96.496094 178.9375 96.214844 178.125 96.050781 C 177.316406 95.890625 176.496094 95.808594 175.664062 95.808594 C 175.296875 95.808594 174.898438 95.816406 174.46875 95.835938 C 174.035156 95.855469 173.589844 95.878906 173.132812 95.914062 C 172.675781 95.953125 172.214844 96 171.753906 96.066406 C 171.292969 96.132812 170.859375 96.199219 170.460938 96.269531 L 170.460938 114.996094 L 173.960938 114.996094 Z M 166.09375 114.992188 L 166.09375 111.691406 L 158.28125 111.691406 L 158.28125 107.074219 L 165.292969 107.074219 L 165.292969 103.777344 L 158.28125 103.777344 L 158.28125 99.367188 L 165.964844 99.367188 L 165.964844 96.070312 L 154.78125 96.070312 L 154.78125 114.988281 L 166.09375 114.988281 Z M 140.171875 114.992188 C 141.171875 115.25 142.320312 115.378906 143.628906 115.378906 C 144.617188 115.378906 145.527344 115.257812 146.359375 115.019531 C 147.191406 114.78125 147.898438 114.417969 148.484375 113.929688 C 149.066406 113.441406 149.523438 112.828125 149.847656 112.09375 C 150.171875 111.359375 150.335938 110.480469 150.335938 109.460938 C 150.335938 108.480469 150.144531 107.65625 149.773438 106.996094 C 149.398438 106.335938 148.925781 105.777344 148.359375 105.328125 C 147.789062 104.878906 147.136719 104.484375 146.398438 104.148438 C 145.660156 103.808594 144.96875 103.492188 144.324219 103.195312 C 143.683594 102.902344 143.121094 102.574219 142.644531 102.21875 C 142.167969 101.859375 141.925781 101.414062 141.925781 100.882812 C 141.925781 100.308594 142.15625 99.851562 142.613281 99.511719 C 143.070312 99.171875 143.730469 99.003906 144.589844 99.003906 C 145.488281 99.003906 146.324219 99.105469 147.09375 99.308594 C 147.863281 99.515625 148.441406 99.742188 148.824219 99.992188 L 149.921875 96.84375 C 149.320312 96.472656 148.542969 96.191406 147.601562 95.996094 C 146.65625 95.804688 145.652344 95.707031 144.589844 95.707031 C 143.671875 95.707031 142.839844 95.8125 142.089844 96.03125 C 141.339844 96.246094 140.691406 96.585938 140.144531 97.039062 C 139.59375 97.492188 139.171875 98.0625 138.875 98.746094 C 138.574219 99.433594 138.429688 100.238281 138.429688 101.164062 C 138.429688 102.214844 138.636719 103.082031 139.058594 103.757812 C 139.480469 104.4375 140.011719 105 140.652344 105.449219 C 141.292969 105.902344 141.980469 106.289062 142.71875 106.621094 C 143.460938 106.949219 144.148438 107.257812 144.792969 107.542969 C 145.433594 107.828125 145.933594 108.144531 146.292969 108.496094 C 146.652344 108.847656 146.835938 109.308594 146.835938 109.875 C 146.835938 110.617188 146.539062 111.171875 145.957031 111.535156 C 145.371094 111.898438 144.527344 112.082031 143.429688 112.082031 C 142.980469 112.082031 142.546875 112.042969 142.125 111.972656 C 141.699219 111.90625 141.296875 111.816406 140.914062 111.707031 C 140.535156 111.597656 140.191406 111.484375 139.886719 111.355469 C 139.582031 111.230469 139.332031 111.113281 139.136719 111.007812 L 137.953125 114.214844 C 138.4375 114.476562 139.175781 114.734375 140.171875 114.992188 M 134.292969 96.074219 L 130.792969 96.074219 L 130.792969 114.992188 L 134.292969 114.992188 Z M 118.574219 103.648438 L 119.140625 100.652344 L 119.277344 100.652344 L 119.855469 103.621094 L 121.25 107.828125 L 117.199219 107.828125 Z M 114.832031 114.992188 L 116.109375 111.128906 L 122.3125 111.128906 L 123.566406 114.992188 L 127.066406 114.992188 L 120.277344 95.941406 L 117.632812 95.941406 L 111.140625 114.992188 Z M 97.949219 114.992188 L 97.949219 106.992188 L 98.996094 106.992188 L 104.511719 114.992188 L 109.066406 114.992188 L 102.847656 106.183594 L 101.269531 105.117188 L 102.734375 104.09375 L 108.238281 96.074219 L 104.027344 96.074219 L 98.816406 104.082031 L 97.949219 104.453125 L 97.949219 96.074219 L 94.449219 96.074219 L 94.449219 114.996094 L 97.949219 114.996094 Z M 97.949219 114.992188 "/>
</g>
<g clip-path="url(#clip2)" clip-rule="nonzero">
<path style=" stroke:none;fill-rule:nonzero;fill:rgb(73.72549%,14.901961%,10.196078%);fill-opacity:1;" d="M 313.050781 77.59375 L 313.050781 88.902344 L 315.582031 88.902344 L 315.582031 77.59375 L 319.707031 77.59375 L 319.707031 75.203125 L 308.914062 75.203125 L 308.914062 77.59375 Z M 304.5625 74.082031 C 304.796875 74.292969 305.167969 74.398438 305.679688 74.398438 C 306.199219 74.398438 306.578125 74.289062 306.808594 74.082031 C 307.039062 73.867188 307.15625 73.582031 307.15625 73.21875 C 307.15625 72.855469 307.039062 72.5625 306.808594 72.339844 C 306.578125 72.121094 306.199219 72.007812 305.679688 72.007812 C 305.167969 72.007812 304.796875 72.121094 304.5625 72.34375 C 304.328125 72.566406 304.210938 72.859375 304.210938 73.21875 C 304.210938 73.582031 304.328125 73.867188 304.5625 74.082031 M 300.390625 74.082031 C 300.625 74.292969 301.007812 74.398438 301.527344 74.398438 C 302.027344 74.398438 302.394531 74.289062 302.632812 74.082031 C 302.863281 73.867188 302.984375 73.582031 302.984375 73.21875 C 302.984375 72.855469 302.867188 72.5625 302.636719 72.339844 C 302.40625 72.121094 302.035156 72.007812 301.527344 72.007812 C 301.007812 72.007812 300.625 72.121094 300.390625 72.34375 C 300.160156 72.566406 300.039062 72.859375 300.039062 73.21875 C 300.039062 73.582031 300.160156 73.867188 300.390625 74.082031 M 303.003906 80.6875 L 303.414062 78.515625 L 303.507812 78.515625 L 303.925781 80.664062 L 304.9375 83.714844 L 302.003906 83.714844 Z M 300.289062 88.902344 L 301.214844 86.105469 L 305.707031 86.105469 L 306.609375 88.902344 L 309.144531 88.902344 L 304.226562 75.109375 L 302.3125 75.109375 L 297.613281 88.902344 Z M 291.335938 77.59375 L 291.335938 88.902344 L 293.867188 88.902344 L 293.867188 77.59375 L 297.996094 77.59375 L 297.996094 75.203125 L 287.199219 75.203125 L 287.199219 77.59375 Z M 285.457031 75.203125 L 282.921875 75.203125 L 282.921875 88.902344 L 285.457031 88.902344 Z M 273.140625 88.902344 C 273.863281 89.089844 274.699219 89.183594 275.644531 89.183594 C 276.363281 89.183594 277.019531 89.09375 277.625 88.921875 C 278.226562 88.75 278.738281 88.484375 279.160156 88.132812 C 279.582031 87.777344 279.914062 87.335938 280.144531 86.800781 C 280.382812 86.269531 280.5 85.632812 280.5 84.894531 C 280.5 84.183594 280.363281 83.589844 280.09375 83.109375 C 279.820312 82.628906 279.480469 82.226562 279.070312 81.902344 C 278.65625 81.578125 278.183594 81.292969 277.652344 81.046875 C 277.113281 80.800781 276.617188 80.570312 276.152344 80.359375 C 275.683594 80.144531 275.277344 79.910156 274.933594 79.648438 C 274.585938 79.390625 274.414062 79.070312 274.414062 78.683594 C 274.414062 78.269531 274.578125 77.9375 274.910156 77.691406 C 275.238281 77.445312 275.71875 77.320312 276.34375 77.320312 C 276.992188 77.320312 277.597656 77.394531 278.152344 77.542969 C 278.710938 77.691406 279.132812 77.855469 279.40625 78.039062 L 280.203125 75.757812 C 279.765625 75.488281 279.207031 75.285156 278.523438 75.144531 C 277.839844 75.003906 277.109375 74.933594 276.34375 74.933594 C 275.675781 74.933594 275.070312 75.007812 274.53125 75.167969 C 273.988281 75.328125 273.515625 75.570312 273.121094 75.894531 C 272.722656 76.226562 272.414062 76.636719 272.203125 77.136719 C 271.984375 77.632812 271.878906 78.214844 271.878906 78.886719 C 271.878906 79.648438 272.027344 80.273438 272.335938 80.761719 C 272.640625 81.253906 273.027344 81.664062 273.488281 81.992188 C 273.953125 82.316406 274.453125 82.601562 274.984375 82.839844 C 275.523438 83.074219 276.023438 83.300781 276.484375 83.507812 C 276.953125 83.714844 277.316406 83.945312 277.574219 84.199219 C 277.835938 84.449219 277.964844 84.78125 277.964844 85.195312 C 277.964844 85.730469 277.75 86.132812 277.328125 86.394531 C 276.90625 86.65625 276.296875 86.789062 275.496094 86.789062 C 275.175781 86.789062 274.855469 86.761719 274.550781 86.710938 C 274.246094 86.660156 273.949219 86.597656 273.675781 86.519531 C 273.398438 86.441406 273.148438 86.355469 272.929688 86.265625 C 272.710938 86.175781 272.53125 86.089844 272.386719 86.011719 L 271.53125 88.332031 C 271.882812 88.527344 272.417969 88.714844 273.140625 88.902344 M 262.90625 77.496094 C 263.054688 77.457031 263.261719 77.433594 263.53125 77.421875 C 263.800781 77.40625 264.070312 77.398438 264.34375 77.398438 C 265.050781 77.398438 265.585938 77.566406 265.949219 77.894531 C 266.3125 78.226562 266.492188 78.6875 266.492188 79.273438 C 266.492188 80.054688 266.273438 80.617188 265.828125 80.960938 C 265.386719 81.296875 264.792969 81.46875 264.050781 81.46875 L 262.910156 81.46875 L 262.910156 77.496094 Z M 262.90625 88.902344 L 262.90625 83.285156 L 264.359375 83.597656 L 267.433594 88.902344 L 270.511719 88.902344 L 267.417969 83.730469 L 266.433594 83.074219 C 267.222656 82.800781 267.847656 82.3125 268.320312 81.601562 C 268.792969 80.894531 269.027344 79.980469 269.027344 78.859375 C 269.027344 78.109375 268.886719 77.480469 268.609375 76.976562 C 268.332031 76.476562 267.964844 76.078125 267.5 75.796875 C 267.035156 75.503906 266.511719 75.304688 265.925781 75.1875 C 265.339844 75.070312 264.742188 75.007812 264.140625 75.007812 C 263.878906 75.007812 263.585938 75.015625 263.277344 75.03125 C 262.964844 75.042969 262.640625 75.0625 262.308594 75.085938 C 261.976562 75.113281 261.644531 75.148438 261.3125 75.195312 C 260.976562 75.242188 260.664062 75.296875 260.375 75.34375 L 260.375 88.902344 Z M 258.285156 88.902344 L 258.285156 86.515625 L 252.625 86.515625 L 252.625 83.171875 L 257.703125 83.171875 L 257.703125 80.785156 L 252.625 80.785156 L 252.625 77.59375 L 258.191406 77.59375 L 258.191406 75.203125 L 250.089844 75.203125 L 250.089844 88.902344 Z M 241.78125 89 L 243.691406 89 L 248.726562 75.203125 L 246.195312 75.203125 L 243.582031 83.226562 L 243.195312 85.582031 L 243.101562 85.582031 L 242.746094 83.246094 L 240.003906 75.203125 L 236.914062 75.203125 Z M 235.417969 75.203125 L 232.882812 75.203125 L 232.882812 88.902344 L 235.417969 88.902344 Z M 222.230469 88.902344 L 222.230469 81.757812 L 221.914062 79.605469 L 222.019531 79.605469 L 223.089844 81.757812 L 228.222656 89 L 230.164062 89 L 230.164062 75.203125 L 227.632812 75.203125 L 227.632812 82.410156 L 227.945312 84.5 L 227.851562 84.5 L 226.816406 82.40625 L 221.652344 75.109375 L 219.695312 75.109375 L 219.695312 88.902344 Z M 212.367188 89.144531 C 213.082031 89.144531 213.738281 89.042969 214.339844 88.847656 C 214.9375 88.648438 215.449219 88.34375 215.863281 87.925781 C 216.28125 87.507812 216.605469 86.980469 216.839844 86.339844 C 217.070312 85.695312 217.1875 84.933594 217.1875 84.050781 L 217.1875 75.203125 L 214.652344 75.203125 L 214.652344 83.859375 C 214.652344 84.867188 214.46875 85.609375 214.101562 86.0625 C 213.734375 86.523438 213.140625 86.753906 212.324219 86.753906 C 211.910156 86.753906 211.546875 86.707031 211.234375 86.605469 C 210.925781 86.503906 210.664062 86.34375 210.453125 86.113281 C 210.242188 85.882812 210.085938 85.585938 209.988281 85.210938 C 209.886719 84.84375 209.839844 84.394531 209.839844 83.859375 L 209.839844 75.203125 L 207.308594 75.203125 L 207.308594 84.386719 C 207.304688 87.554688 208.996094 89.144531 212.367188 89.144531 M 200.242188 88.902344 L 200.242188 86.515625 L 194.582031 86.515625 L 194.582031 83.171875 L 199.660156 83.171875 L 199.660156 80.785156 L 194.582031 80.785156 L 194.582031 77.59375 L 200.144531 77.59375 L 200.144531 75.203125 L 192.050781 75.203125 L 192.050781 88.902344 Z M 181.785156 88.902344 L 181.785156 83.171875 L 186.796875 83.171875 L 186.796875 88.902344 L 189.332031 88.902344 L 189.332031 75.203125 L 186.796875 75.203125 L 186.796875 80.785156 L 181.785156 80.785156 L 181.785156 75.203125 L 179.253906 75.203125 L 179.253906 88.902344 Z M 168.273438 85.359375 C 168.570312 86.265625 168.972656 87 169.476562 87.566406 C 169.980469 88.132812 170.597656 88.542969 171.332031 88.800781 C 172.0625 89.050781 172.835938 89.183594 173.660156 89.183594 C 174.328125 89.183594 174.992188 89.117188 175.636719 88.988281 C 176.28125 88.859375 176.808594 88.644531 177.230469 88.347656 L 176.675781 86.160156 C 176.375 86.347656 176.023438 86.496094 175.621094 86.617188 C 175.21875 86.734375 174.726562 86.792969 174.140625 86.792969 C 173.519531 86.792969 172.96875 86.675781 172.492188 86.449219 C 172.015625 86.21875 171.621094 85.894531 171.300781 85.488281 C 170.984375 85.074219 170.746094 84.578125 170.59375 83.996094 C 170.4375 83.414062 170.359375 82.769531 170.359375 82.066406 C 170.359375 80.441406 170.6875 79.25 171.34375 78.476562 C 172 77.710938 172.871094 77.324219 173.949219 77.324219 C 174.535156 77.324219 175.03125 77.359375 175.441406 77.421875 C 175.851562 77.484375 176.207031 77.589844 176.503906 77.734375 L 177.027344 75.460938 C 176.679688 75.316406 176.234375 75.191406 175.695312 75.085938 C 175.15625 74.988281 174.492188 74.9375 173.710938 74.9375 C 172.984375 74.9375 172.253906 75.058594 171.523438 75.300781 C 170.796875 75.542969 170.167969 75.941406 169.632812 76.496094 C 169.097656 77.050781 168.660156 77.78125 168.328125 78.6875 C 167.992188 79.589844 167.824219 80.714844 167.824219 82.066406 C 167.824219 83.355469 167.976562 84.453125 168.273438 85.359375 M 158.75 88.902344 C 159.472656 89.089844 160.308594 89.183594 161.253906 89.183594 C 161.972656 89.183594 162.628906 89.09375 163.230469 88.921875 C 163.835938 88.75 164.347656 88.484375 164.769531 88.132812 C 165.195312 87.777344 165.523438 87.335938 165.757812 86.800781 C 165.992188 86.269531 166.109375 85.632812 166.109375 84.894531 C 166.109375 84.183594 165.972656 83.589844 165.703125 83.109375 C 165.433594 82.628906 165.089844 82.226562 164.679688 81.902344 C 164.269531 81.578125 163.792969 81.292969 163.261719 81.046875 C 162.722656 80.800781 162.222656 80.570312 161.757812 80.359375 C 161.292969 80.144531 160.886719 79.910156 160.542969 79.648438 C 160.195312 79.390625 160.023438 79.070312 160.023438 78.683594 C 160.023438 78.269531 160.1875 77.9375 160.519531 77.691406 C 160.851562 77.445312 161.328125 77.320312 161.953125 77.320312 C 162.601562 77.320312 163.207031 77.394531 163.761719 77.542969 C 164.320312 77.691406 164.742188 77.855469 165.015625 78.039062 L 165.8125 75.757812 C 165.375 75.488281 164.8125 75.285156 164.128906 75.144531 C 163.445312 75.003906 162.71875 74.933594 161.953125 74.933594 C 161.285156 74.933594 160.683594 75.007812 160.140625 75.167969 C 159.597656 75.328125 159.128906 75.570312 158.730469 75.894531 C 158.332031 76.226562 158.027344 76.636719 157.8125 77.136719 C 157.597656 77.632812 157.488281 78.214844 157.488281 78.886719 C 157.488281 79.648438 157.640625 80.273438 157.945312 80.761719 C 158.25 81.253906 158.636719 81.664062 159.097656 81.992188 C 159.5625 82.316406 160.058594 82.601562 160.59375 82.839844 C 161.132812 83.074219 161.632812 83.300781 162.097656 83.507812 C 162.5625 83.714844 162.925781 83.945312 163.183594 84.199219 C 163.445312 84.449219 163.578125 84.78125 163.578125 85.195312 C 163.578125 85.730469 163.363281 86.132812 162.941406 86.394531 C 162.515625 86.65625 161.90625 86.789062 161.109375 86.789062 C 160.785156 86.789062 160.46875 86.761719 160.164062 86.710938 C 159.855469 86.660156 159.566406 86.597656 159.289062 86.519531 C 159.011719 86.441406 158.765625 86.355469 158.542969 86.265625 C 158.324219 86.175781 158.140625 86.089844 158 86.011719 L 157.144531 88.332031 C 157.492188 88.527344 158.027344 88.714844 158.75 88.902344 M 154.980469 75.203125 L 152.445312 75.203125 L 152.445312 88.902344 L 154.980469 88.902344 Z M 141.792969 88.902344 L 141.792969 81.757812 L 141.476562 79.605469 L 141.582031 79.605469 L 142.648438 81.757812 L 147.785156 89 L 149.726562 89 L 149.726562 75.203125 L 147.195312 75.203125 L 147.195312 82.410156 L 147.507812 84.5 L 147.410156 84.5 L 146.375 82.40625 L 141.214844 75.109375 L 139.257812 75.109375 L 139.257812 88.902344 Z M 128.992188 88.902344 L 128.992188 83.171875 L 134.003906 83.171875 L 134.003906 88.902344 L 136.535156 88.902344 L 136.535156 75.203125 L 134.003906 75.203125 L 134.003906 80.785156 L 128.992188 80.785156 L 128.992188 75.203125 L 126.457031 75.203125 L 126.457031 88.902344 Z M 115.480469 85.359375 C 115.777344 86.265625 116.179688 87 116.679688 87.566406 C 117.1875 88.132812 117.804688 88.542969 118.535156 88.800781 C 119.269531 89.050781 120.042969 89.183594 120.863281 89.183594 C 121.535156 89.183594 122.195312 89.117188 122.839844 88.988281 C 123.484375 88.859375 124.015625 88.644531 124.433594 88.347656 L 123.882812 86.160156 C 123.585938 86.347656 123.234375 86.496094 122.828125 86.617188 C 122.425781 86.734375 121.933594 86.792969 121.347656 86.792969 C 120.726562 86.792969 120.175781 86.675781 119.699219 86.449219 C 119.222656 86.21875 118.828125 85.894531 118.511719 85.488281 C 118.191406 85.074219 117.957031 84.578125 117.800781 83.996094 C 117.644531 83.414062 117.566406 82.769531 117.566406 82.066406 C 117.566406 80.441406 117.894531 79.25 118.554688 78.476562 C 119.210938 77.710938 120.078125 77.324219 121.160156 77.324219 C 121.742188 77.324219 122.242188 77.359375 122.648438 77.421875 C 123.058594 77.484375 123.414062 77.589844 123.710938 77.734375 L 124.234375 75.460938 C 123.886719 75.316406 123.441406 75.191406 122.902344 75.085938 C 122.363281 74.988281 121.703125 74.9375 120.921875 74.9375 C 120.1875 74.9375 119.460938 75.058594 118.734375 75.300781 C 118.007812 75.542969 117.375 75.941406 116.839844 76.496094 C 116.304688 77.050781 115.871094 77.78125 115.535156 78.6875 C 115.199219 79.589844 115.03125 80.714844 115.03125 82.066406 C 115.035156 83.355469 115.183594 84.453125 115.480469 85.359375 M 113.375 88.902344 L 113.375 86.515625 L 107.714844 86.515625 L 107.714844 83.171875 L 112.792969 83.171875 L 112.792969 80.785156 L 107.714844 80.785156 L 107.714844 77.59375 L 113.277344 77.59375 L 113.277344 75.203125 L 105.179688 75.203125 L 105.179688 88.902344 Z M 97.042969 77.59375 L 97.042969 88.902344 L 99.574219 88.902344 L 99.574219 77.59375 L 103.703125 77.59375 L 103.703125 75.203125 L 92.90625 75.203125 L 92.90625 77.59375 Z M 97.042969 77.59375 "/>
</g>
<path style=" stroke:none;fill-rule:nonzero;fill:rgb(0%,37.647059%,55.686275%);fill-opacity:1;" d="M 56.539062 59.0625 L 34.6875 65.941406 L 34.6875 72.722656 L 78.621094 72.722656 L 78.628906 65.574219 Z M 56.539062 59.0625 "/>
<path style=" stroke:none;fill-rule:nonzero;fill:rgb(0%,37.647059%,55.686275%);fill-opacity:1;" d="M 40.398438 75.304688 L 28.742188 115.054688 L 37.570312 115.054688 L 49.257812 75.304688 Z M 40.398438 75.304688 "/>
<path style=" stroke:none;fill-rule:nonzero;fill:rgb(0%,37.647059%,55.686275%);fill-opacity:1;" d="M 64.628906 75.285156 L 74.414062 75.285156 L 74.414062 84.734375 L 64.628906 84.734375 Z M 64.628906 75.285156 "/>
<path style=" stroke:none;fill-rule:nonzero;fill:rgb(73.72549%,14.901961%,10.196078%);fill-opacity:1;" d="M 64.628906 90.445312 L 74.414062 90.445312 L 74.414062 99.890625 L 64.628906 99.890625 Z M 64.628906 90.445312 "/>
<path style=" stroke:none;fill-rule:nonzero;fill:rgb(0%,37.647059%,55.686275%);fill-opacity:1;" d="M 64.628906 105.601562 L 74.414062 105.601562 L 74.414062 115.050781 L 64.628906 115.050781 Z M 64.628906 105.601562 "/>
</g>
</svg>
