<?xml version="1.0" encoding="UTF-8" standalone="no"?>
<svg xmlns:dc="http://purl.org/dc/elements/1.1/" xmlns:cc="http://creativecommons.org/ns#" xmlns:rdf="http://www.w3.org/1999/02/22-rdf-syntax-ns#" xmlns:svg="http://www.w3.org/2000/svg" xmlns="http://www.w3.org/2000/svg" version="1.1" id="svg10" xml:space="preserve" width="501" height="160" viewBox="0 0 501 160"><metadata id="metadata16"><rdf:RDF><cc:Work rdf:about=""><dc:format>image/svg+xml</dc:format><dc:type rdf:resource="http://purl.org/dc/dcmitype/StillImage"/><dc:title/></cc:Work></rdf:RDF></metadata><defs id="defs14"><clipPath clipPathUnits="userSpaceOnUse" id="clipPath28"><path d="M 0,720 H 1152 V 0 H 0 Z" id="path26"/></clipPath><clipPath clipPathUnits="userSpaceOnUse" id="clipPath50"><path d="M 0,720 H 1152 V 0 H 0 Z" id="path48"/></clipPath><clipPath clipPathUnits="userSpaceOnUse" id="clipPath66"><path d="m 439.51,420.708 h 86.622 v 29.327 H 439.51 Z" id="path64"/></clipPath><clipPath clipPathUnits="userSpaceOnUse" id="clipPath82"><path d="m 55.745,420.316 h 86.622 v 29.327 H 55.745 Z" id="path80"/></clipPath><clipPath clipPathUnits="userSpaceOnUse" id="clipPath98"><path d="m 107.071,108.346 h 61.531 v 20.832 h -61.531 z" id="path96"/></clipPath><clipPath clipPathUnits="userSpaceOnUse" id="clipPath114"><path d="m 277.98,110.538 h 59.936 V 130.83 H 277.98 Z" id="path112"/></clipPath><clipPath clipPathUnits="userSpaceOnUse" id="clipPath130"><path d="m 455.919,113.413 h 59.579 v 20.172 h -59.579 z" id="path128"/></clipPath><clipPath clipPathUnits="userSpaceOnUse" id="clipPath146"><path d="m 211.68,397.131 h 125.833 v 10.955 H 211.68 Z" id="path144"/></clipPath><clipPath clipPathUnits="userSpaceOnUse" id="clipPath226"><path d="m 244.94,415.968 h 59.98 v 59.98 h -59.98 z" id="path224"/></clipPath><clipPath clipPathUnits="userSpaceOnUse" id="clipPath426"><path d="m 391.868,415.463 h 42.073 v 42.074 h -42.073 z" id="path424"/></clipPath><clipPath clipPathUnits="userSpaceOnUse" id="clipPath626"><path d="M 31.126,423.042 H 55.62 v 24.494 H 31.126 Z" id="path624"/></clipPath><clipPath clipPathUnits="userSpaceOnUse" id="clipPath826"><path d="m 414,114.345 h 36.005 v 24.234 H 414 Z" id="path824"/></clipPath><clipPath clipPathUnits="userSpaceOnUse" id="clipPath898"><path d="m 234.772,107.516 h 36.967 v 36.967 h -36.967 z" id="path896"/></clipPath><clipPath clipPathUnits="userSpaceOnUse" id="clipPath1022"><path d="m 56.176,108.065 h 46.513 v 35.87 H 56.176 Z" id="path1020"/></clipPath><clipPath clipPathUnits="userSpaceOnUse" id="clipPath1102"><path d="M 58.957,120.259 H 70.65 v 7.87 H 58.957 Z" id="path1100"/></clipPath><clipPath clipPathUnits="userSpaceOnUse" id="clipPath1126"><path d="m 56.176,108.065 h 46.513 v 35.87 H 56.176 Z" id="path1124"/></clipPath><clipPath clipPathUnits="userSpaceOnUse" id="clipPath1170"><path d="M 58.957,120.259 H 70.65 v 7.87 H 58.957 Z" id="path1168"/></clipPath><clipPath clipPathUnits="userSpaceOnUse" id="clipPath1206"><path d="m 996.004,55.503 h 77.992 v 77.993 h -77.992 z" id="path1204"/></clipPath><clipPath clipPathUnits="userSpaceOnUse" id="clipPath1406"><path d="m 996.004,172.503 h 77.992 v 77.993 h -77.992 z" id="path1404"/></clipPath><clipPath clipPathUnits="userSpaceOnUse" id="clipPath1606"><path d="m 829.772,298.198 h 73.224 v 73.224 h -73.224 z" id="path1604"/></clipPath><clipPath clipPathUnits="userSpaceOnUse" id="clipPath1806"><path d="m 827.388,60.273 h 73.224 v 73.224 h -73.224 z" id="path1804"/></clipPath><clipPath clipPathUnits="userSpaceOnUse" id="clipPath2006"><path d="m 825.004,211.5 c 0,-21.537 17.459,-38.997 38.996,-38.997 v 0 c 21.537,0 38.996,17.46 38.996,38.997 v 0 c 0,21.537 -17.459,38.996 -38.996,38.996 v 0 c -21.537,0 -38.996,-17.459 -38.996,-38.996" id="path2004"/></clipPath><clipPath clipPathUnits="userSpaceOnUse" id="clipPath2206"><path d="m 996.004,334.811 c 0,-21.537 17.459,-38.997 38.996,-38.997 v 0 c 21.537,0 38.996,17.46 38.996,38.997 v 0 c 0,21.537 -17.459,38.996 -38.996,38.996 v 0 c -21.537,0 -38.996,-17.459 -38.996,-38.996" id="path2204"/></clipPath><clipPath clipPathUnits="userSpaceOnUse" id="clipPath2538"><path d="m 906.073,507.007 h 77.993 V 585 h -77.993 z" id="path2536"/></clipPath><clipPath clipPathUnits="userSpaceOnUse" id="clipPath2778"><path d="m 1026.005,546.004 c 0,-21.537 17.459,-38.997 38.996,-38.997 v 0 c 21.537,0 38.997,17.46 38.997,38.997 v 0 c 0,21.537 -17.46,38.996 -38.997,38.996 v 0 c -21.537,0 -38.996,-17.459 -38.996,-38.996" id="path2776"/></clipPath><clipPath clipPathUnits="userSpaceOnUse" id="clipPath3022"><path d="m 786,507.007 h 77.993 V 585 H 786 Z" id="path3020"/></clipPath></defs><g id="g18" transform="matrix(1.3333333,0,0,-1.3333333,0,960)"><g id="g3350" transform="matrix(3.3355364,0,0,3.3355581,-187.37809,239.89646)"><g id="g92"><g id="g94" clip-path="url(#clipPath98)"><g id="g100" transform="translate(108.1232,116.6788)"><path d="m 0,0 v -2.98 c 0,-1.928 1.003,-3.269 3.537,-3.269 2.533,0 3.536,1.341 3.536,3.229 v 2.394 c 0,1.162 0.328,1.461 0.894,1.619 V 1.301 H 5.563 V 0.993 C 6.13,0.835 6.457,0.536 6.457,-0.626 V -3.02 c 0,-1.679 -0.884,-2.454 -2.553,-2.454 -1.659,0 -2.553,0.775 -2.553,2.454 V 0 c 0,0.755 0.219,0.884 0.845,0.974 V 1.301 H -0.825 V 0.974 C -0.199,0.884 0,0.755 0,0 m 10.828,-5.841 c -0.566,0.079 -0.655,0.218 -0.655,0.765 v 2.294 c 0.497,0.447 0.904,0.666 1.261,0.666 0.487,0 0.626,-0.248 0.626,-0.695 v -2.265 c 0,-0.547 -0.089,-0.686 -0.655,-0.765 v -0.308 h 2.553 v 0.308 c -0.566,0.079 -0.656,0.218 -0.656,0.765 v 2.374 c 0,0.795 -0.338,1.361 -1.341,1.361 -0.616,0 -1.222,-0.378 -1.818,-0.884 v 0.953 H 9.686 l -1.44,-0.943 v -0.219 h 0.685 v -2.642 c 0,-0.547 -0.089,-0.686 -0.656,-0.765 v -0.308 h 2.553 z m 5.017,5.315 c 0.417,0 0.755,0.337 0.755,0.764 0,0.378 -0.288,0.686 -0.675,0.686 -0.437,0 -0.765,-0.338 -0.765,-0.755 0,-0.388 0.288,-0.695 0.685,-0.695 m 1.411,-5.315 c -0.616,0.089 -0.706,0.218 -0.706,0.765 v 3.804 h -0.486 l -1.461,-0.953 v -0.219 h 0.706 v -2.632 c 0,-0.547 -0.1,-0.676 -0.706,-0.765 v -0.308 h 2.653 z m 4.54,3.03 c 0.367,0.814 0.487,0.993 0.874,1.092 v 0.279 h -1.957 v -0.279 c 0.646,-0.139 0.715,-0.467 0.417,-1.162 l -0.755,-1.798 -0.934,2.116 c -0.198,0.467 -0.169,0.735 0.517,0.815 v 0.308 h -2.613 v -0.308 c 0.308,-0.08 0.437,-0.209 0.696,-0.765 l 1.698,-3.686 h 0.517 z m 5.205,-2.444 -0.268,0.208 c -0.268,-0.308 -0.675,-0.516 -1.142,-0.516 -0.914,0 -1.431,0.695 -1.62,1.599 l 2.981,0.994 c -0.06,1.053 -0.835,1.629 -1.818,1.629 -1.381,0 -2.394,-1.113 -2.394,-2.494 0,-1.371 0.874,-2.414 2.414,-2.414 0.943,0 1.51,0.418 1.847,0.994 m -3.109,2.116 c 0,0.804 0.338,1.281 0.993,1.281 0.457,0 0.745,-0.328 0.865,-0.973 l -1.848,-0.636 c -0.01,0.109 -0.01,0.219 -0.01,0.328 m 6.219,-2.702 c -0.646,0.099 -0.735,0.238 -0.735,0.854 v 2.046 c 0.198,0.358 0.387,0.616 0.586,0.795 0,-0.387 0.268,-0.636 0.606,-0.636 0.338,0 0.665,0.269 0.665,0.785 0,0.437 -0.248,0.706 -0.685,0.706 -0.487,0 -0.864,-0.408 -1.222,-0.984 v 1.003 h -0.437 l -1.441,-0.943 v -0.219 h 0.686 v -2.642 c 0,-0.547 -0.089,-0.686 -0.656,-0.765 v -0.308 h 2.633 z m 5.175,1.152 c 0,0.924 -0.765,1.212 -1.48,1.441 -0.705,0.228 -1.192,0.377 -1.192,0.894 0,0.278 0.209,0.536 0.616,0.536 0.507,0 0.954,-0.308 1.49,-0.914 l 0.258,0.119 -0.377,1.232 H 34.442 L 34.263,-1.53 c -0.278,0.119 -0.596,0.189 -0.934,0.189 -1.053,0 -1.738,-0.606 -1.738,-1.52 0,-0.924 0.765,-1.192 1.48,-1.431 0.705,-0.238 1.192,-0.377 1.192,-0.904 0,-0.327 -0.248,-0.576 -0.725,-0.576 -0.666,0 -1.172,0.437 -1.778,1.212 l -0.269,-0.099 0.388,-1.55 h 0.169 L 32.336,-6 c 0.328,-0.159 0.695,-0.249 1.103,-0.249 1.013,0 1.847,0.596 1.847,1.56 m 1.739,4.163 c 0.417,0 0.755,0.337 0.755,0.764 0,0.378 -0.288,0.686 -0.676,0.686 -0.437,0 -0.765,-0.338 -0.765,-0.755 0,-0.388 0.289,-0.695 0.686,-0.695 m 1.411,-5.315 c -0.616,0.089 -0.706,0.218 -0.706,0.765 v 3.804 h -0.487 l -1.46,-0.953 v -0.219 h 0.705 v -2.632 c 0,-0.547 -0.099,-0.676 -0.705,-0.765 v -0.308 h 2.653 z m 3.775,0.139 -0.149,0.318 c -0.269,-0.12 -0.507,-0.179 -0.716,-0.179 -0.467,0 -0.586,0.238 -0.586,0.566 v 2.99 h 1.262 V -1.44 H 40.76 v 0.924 h -0.179 l -1.788,-1.173 v -0.318 h 0.725 v -3.248 c 0,-0.646 0.368,-0.994 1.093,-0.994 0.567,0 1.123,0.189 1.6,0.547 m 2.652,-1.252 1.878,4.143 c 0.367,0.814 0.487,0.993 0.874,1.092 v 0.279 h -1.957 v -0.279 c 0.646,-0.139 0.715,-0.467 0.417,-1.162 l -0.755,-1.798 -0.934,2.116 c -0.198,0.467 -0.169,0.735 0.517,0.815 V -1.44 H 42.29 v -0.308 c 0.308,-0.08 0.427,-0.209 0.696,-0.765 l 1.659,-3.577 -0.279,-0.596 c -0.159,-0.348 -0.308,-0.606 -0.476,-0.755 -0.12,0.407 -0.348,0.626 -0.706,0.626 -0.357,0 -0.665,-0.238 -0.665,-0.705 0,-0.467 0.377,-0.815 0.824,-0.815 0.636,0 1.033,0.318 1.52,1.381" style="fill:#231f20;fill-opacity:1;fill-rule:nonzero;stroke:none" id="path102"/></g><g id="g104" transform="translate(115.1965,126.8153)"><path d="M 0,0 C 0,1.162 0.328,1.46 0.894,1.619 V 1.927 H -1.51 V 1.619 C -0.944,1.46 -0.616,1.162 -0.616,0 V -3.497 L -5.682,1.619 C -5.961,1.898 -6.07,1.927 -6.249,1.927 H -8.126 V 1.619 C -7.719,1.58 -7.48,1.421 -7.014,0.974 -6.865,0.835 -6.725,0.666 -6.725,0.387 v -3.983 c 0,-1.162 -0.328,-1.461 -0.895,-1.62 v -0.307 h 2.404 v 0.307 c -0.566,0.159 -0.894,0.458 -0.894,1.62 v 3.755 l 5.703,-5.732 H 0 Z m 6.477,-3.109 c 0,1.301 -0.874,2.394 -2.473,2.394 -1.61,0 -2.573,-1.163 -2.573,-2.514 0,-1.301 0.874,-2.394 2.473,-2.394 1.61,0 2.573,1.162 2.573,2.514 m -3.805,0.447 c 0,0.894 0.388,1.46 1.202,1.46 1.054,0 1.361,-1.291 1.361,-2.474 0,-0.894 -0.387,-1.46 -1.202,-1.46 -1.053,0 -1.361,1.291 -1.361,2.474 m 7.173,-2.554 c -0.646,0.1 -0.735,0.239 -0.735,0.855 v 2.046 c 0.199,0.358 0.387,0.616 0.586,0.795 0,-0.387 0.268,-0.636 0.606,-0.636 0.338,0 0.666,0.269 0.666,0.785 0,0.437 -0.249,0.705 -0.686,0.705 -0.487,0 -0.864,-0.407 -1.222,-0.983 v 1.003 H 8.623 l -1.44,-0.943 v -0.219 h 0.685 v -2.643 c 0,-0.546 -0.089,-0.685 -0.656,-0.765 v -0.307 h 2.633 z m 4.868,0.14 -0.149,0.318 c -0.269,-0.12 -0.507,-0.179 -0.716,-0.179 -0.467,0 -0.586,0.238 -0.586,0.566 v 2.99 h 1.262 v 0.566 h -1.262 v 0.924 h -0.179 l -1.788,-1.172 v -0.318 h 0.725 v -3.248 c 0,-0.646 0.368,-0.994 1.093,-0.994 0.566,0 1.123,0.189 1.6,0.547 m 2.851,-0.14 c -0.566,0.08 -0.656,0.219 -0.656,0.765 v 2.305 c 0.477,0.437 0.845,0.656 1.262,0.656 0.487,0 0.626,-0.249 0.626,-0.696 v -2.265 c 0,-0.546 -0.09,-0.685 -0.656,-0.765 v -0.307 h 2.553 v 0.307 c -0.566,0.08 -0.656,0.219 -0.656,0.765 v 2.375 c 0,0.795 -0.337,1.361 -1.341,1.361 -0.606,0 -1.202,-0.358 -1.788,-0.855 V 2.364 H 16.54 L 14.941,1.321 V 1.103 h 0.725 v -5.554 c 0,-0.546 -0.089,-0.685 -0.655,-0.765 v -0.307 h 2.553 z m 7.908,0.587 -0.268,0.208 c -0.269,-0.308 -0.676,-0.516 -1.143,-0.516 -0.914,0 -1.43,0.695 -1.619,1.599 l 2.98,0.994 c -0.06,1.053 -0.834,1.629 -1.818,1.629 -1.381,0 -2.394,-1.113 -2.394,-2.494 0,-1.371 0.874,-2.414 2.414,-2.414 0.944,0 1.51,0.417 1.848,0.994 m -3.11,2.116 c 0,0.804 0.338,1.281 0.994,1.281 0.457,0 0.745,-0.328 0.864,-0.973 l -1.848,-0.636 c -0.01,0.109 -0.01,0.218 -0.01,0.328 m 7.044,-3.07 c 0.427,0 0.884,0.199 1.182,0.407 l -0.09,0.278 c -0.486,-0.089 -0.665,-0.019 -0.665,0.308 v 2.653 c 0,0.795 -0.348,1.222 -1.471,1.222 -1.261,0 -2.185,-0.676 -2.185,-1.312 0,-0.308 0.208,-0.566 0.566,-0.566 0.407,0 0.606,0.268 0.666,0.537 0.059,0.308 -0.04,0.536 -0.189,0.665 0.248,0.12 0.497,0.179 0.755,0.179 0.427,0 0.636,-0.149 0.636,-0.536 v -0.994 c -1.778,-0.437 -2.593,-0.824 -2.593,-1.768 0,-0.725 0.467,-1.113 1.202,-1.113 0.467,0 1.003,0.199 1.46,0.557 0.07,-0.328 0.298,-0.517 0.726,-0.517 m -2.186,1.331 c 0,0.507 0.228,0.745 1.391,1.063 v -1.44 c -0.278,-0.219 -0.527,-0.318 -0.775,-0.318 -0.388,0 -0.616,0.208 -0.616,0.695 m 7.649,0.189 c 0,0.924 -0.765,1.212 -1.48,1.44 -0.705,0.229 -1.192,0.378 -1.192,0.894 0,0.279 0.209,0.537 0.616,0.537 0.507,0 0.954,-0.308 1.49,-0.914 l 0.258,0.119 -0.377,1.232 h -0.159 l -0.179,-0.149 c -0.278,0.119 -0.596,0.189 -0.934,0.189 -1.053,0 -1.738,-0.606 -1.738,-1.52 0,-0.924 0.765,-1.192 1.48,-1.431 0.705,-0.238 1.192,-0.377 1.192,-0.904 0,-0.328 -0.248,-0.576 -0.725,-0.576 -0.666,0 -1.172,0.437 -1.778,1.212 l -0.268,-0.099 0.387,-1.55 h 0.169 l 0.288,0.209 c 0.328,-0.159 0.695,-0.249 1.103,-0.249 1.013,0 1.847,0.596 1.847,1.56 m 3.756,-1.013 -0.149,0.318 c -0.269,-0.12 -0.507,-0.179 -0.716,-0.179 -0.467,0 -0.586,0.238 -0.586,0.566 v 2.99 h 1.262 v 0.566 h -1.262 v 0.924 h -0.179 l -1.788,-1.172 v -0.318 h 0.725 v -3.248 c 0,-0.646 0.368,-0.994 1.093,-0.994 0.566,0 1.123,0.189 1.6,0.547 m 4.589,0.447 -0.268,0.208 c -0.268,-0.308 -0.675,-0.516 -1.142,-0.516 -0.914,0 -1.431,0.695 -1.62,1.599 l 2.981,0.994 c -0.06,1.053 -0.835,1.629 -1.818,1.629 -1.381,0 -2.395,-1.113 -2.395,-2.494 0,-1.371 0.875,-2.414 2.415,-2.414 0.943,0 1.51,0.417 1.847,0.994 m -3.109,2.116 c 0,0.804 0.338,1.281 0.993,1.281 0.457,0 0.745,-0.328 0.865,-0.973 l -1.848,-0.636 c -0.01,0.109 -0.01,0.218 -0.01,0.328 m 6.219,-2.703 c -0.646,0.1 -0.735,0.239 -0.735,0.855 v 2.046 c 0.198,0.358 0.387,0.616 0.586,0.795 0,-0.387 0.268,-0.636 0.606,-0.636 0.338,0 0.665,0.269 0.665,0.785 0,0.437 -0.248,0.705 -0.685,0.705 -0.487,0 -0.864,-0.407 -1.222,-0.983 v 1.003 h -0.437 l -1.441,-0.943 v -0.219 h 0.686 v -2.643 c 0,-0.546 -0.09,-0.685 -0.656,-0.765 v -0.307 h 2.633 z m 3.953,0 c -0.566,0.08 -0.655,0.219 -0.655,0.765 v 2.295 c 0.496,0.447 0.904,0.666 1.261,0.666 0.487,0 0.626,-0.249 0.626,-0.696 v -2.265 c 0,-0.546 -0.089,-0.685 -0.655,-0.765 v -0.307 h 2.553 v 0.307 c -0.567,0.08 -0.656,0.219 -0.656,0.765 v 2.375 c 0,0.795 -0.338,1.361 -1.341,1.361 -0.616,0 -1.222,-0.378 -1.818,-0.884 v 0.953 h -0.457 l -1.441,-0.943 v -0.219 h 0.686 v -2.643 c 0,-0.546 -0.089,-0.685 -0.656,-0.765 v -0.307 h 2.553 z" style="fill:#231f20;fill-opacity:1;fill-rule:nonzero;stroke:none" id="path106"/></g></g></g><g id="g1016"><g id="g1018" clip-path="url(#clipPath1022)"><g id="g1088" transform="translate(65.2983,129.2879)"><path d="m 0,0 v 7.616 l 30.597,-28.839 h 0.95 v 25.75 c 0,5.797 1.948,7.697 5.844,9.17 v 0.951 h -12.78 v -0.951 c 3.895,-1.473 5.843,-3.373 5.843,-9.17 V -12.482 L 3.421,13.364 C 2.186,14.505 1.853,14.648 1.045,14.648 H -9.122 v -0.951 c 2.233,-0.237 3.563,-0.855 6.794,-3.991 l 1.235,-1.188 v -8.531" style="fill:#dd172b;fill-opacity:1;fill-rule:nonzero;stroke:none" id="path1090"/></g><g id="g1092" transform="translate(64.2075,119.5454)"><path d="m 0,0 v -1.243 c 0,-5.823 -1.948,-7.733 -5.843,-9.213 V -11.41 H 6.936 v 0.954 c -3.896,1.48 -5.843,3.39 -5.843,9.213 V 0 Z" style="fill:#dd172b;fill-opacity:1;fill-rule:nonzero;stroke:none" id="path1094"/></g></g></g><g id="g1096"><g id="g1098" clip-path="url(#clipPath1102)"><g id="g1104" transform="translate(62.9495,126.7868)"><path d="M 0,0 C 0.215,0.011 0.322,0.017 0.536,0.029 0.612,0.033 0.652,-0.005 0.654,-0.083 0.655,-0.135 0.655,-0.161 0.657,-0.213 0.658,-0.29 0.62,-0.332 0.544,-0.336 0.215,-0.354 0.051,-0.363 -0.279,-0.38 c -0.076,-0.004 -0.115,0.034 -0.115,0.112 -0.001,0.565 -0.001,0.848 0,1.413 0,0.078 0.039,0.12 0.112,0.124 0.064,0.003 0.096,0.005 0.161,0.009 C -0.048,1.282 -0.01,1.244 -0.009,1.166 -0.006,0.7 -0.004,0.466 0,0" style="fill:#231f20;fill-opacity:1;fill-rule:nonzero;stroke:none" id="path1106"/></g><g id="g1108" transform="translate(64.6664,126.4622)"><path d="m 0,0 c -0.061,0 -0.091,-0.001 -0.152,-0.001 -0.088,-0.001 -0.125,0.025 -0.157,0.11 -0.216,0.575 -0.32,0.862 -0.523,1.437 -0.021,0.059 0.015,0.111 0.073,0.111 0.074,10e-4 0.111,10e-4 0.185,0.002 0.084,0 0.12,-0.025 0.148,-0.11 0.142,-0.409 0.214,-0.613 0.362,-1.021 0.145,0.41 0.216,0.616 0.354,1.026 0.028,0.085 0.064,0.111 0.148,0.112 0.065,0 0.098,0.001 0.162,0.001 C 0.658,1.668 0.695,1.616 0.674,1.557 0.473,0.979 0.37,0.69 0.156,0.112 0.124,0.027 0.088,0.001 0,0" style="fill:#231f20;fill-opacity:1;fill-rule:nonzero;stroke:none" id="path1110"/></g><g id="g1112" transform="translate(65.9736,126.458)"><path d="M 0,0 C -0.085,0.004 -0.127,0.006 -0.212,0.01 -0.263,0.013 -0.292,0.068 -0.263,0.112 -0.065,0.407 0.032,0.554 0.224,0.849 0.056,1.134 -0.027,1.276 -0.19,1.561 -0.216,1.607 -0.186,1.66 -0.137,1.657 -0.048,1.653 -0.003,1.651 0.086,1.646 0.177,1.642 0.208,1.621 0.254,1.536 0.348,1.368 0.395,1.283 0.491,1.114 0.587,1.274 0.635,1.353 0.73,1.512 0.776,1.593 0.808,1.61 0.899,1.605 0.982,1.601 1.024,1.599 1.107,1.595 1.156,1.592 1.185,1.537 1.159,1.494 0.991,1.226 0.906,1.092 0.734,0.824 0.922,0.511 1.018,0.354 1.212,0.04 1.24,-0.006 1.21,-0.058 1.16,-0.056 1.067,-0.052 1.021,-0.049 0.928,-0.045 0.834,-0.04 0.801,-0.02 0.753,0.065 0.638,0.264 0.581,0.363 0.469,0.562 0.353,0.374 0.295,0.28 0.177,0.093 0.127,0.013 0.094,-0.005 0,0" style="fill:#231f20;fill-opacity:1;fill-rule:nonzero;stroke:none" id="path1114"/></g><g id="g1116" transform="translate(59.8937,123.1658)"><path d="m 0,0 c -0.064,-0.008 -0.096,-0.013 -0.16,-0.021 -0.091,-0.012 -0.131,0.008 -0.168,0.088 -0.249,0.541 -0.369,0.811 -0.601,1.352 -0.025,0.055 0.012,0.112 0.073,0.12 0.078,0.011 0.117,0.016 0.195,0.027 0.089,0.012 0.127,-0.009 0.16,-0.089 C -0.339,1.092 -0.256,0.9 -0.086,0.515 0.051,0.941 0.119,1.154 0.252,1.58 0.279,1.669 0.316,1.699 0.404,1.711 0.472,1.721 0.506,1.726 0.574,1.735 0.635,1.743 0.675,1.697 0.654,1.635 0.461,1.034 0.362,0.733 0.159,0.132 0.129,0.043 0.092,0.012 0,0" style="fill:#231f20;fill-opacity:1;fill-rule:nonzero;stroke:none" id="path1118"/></g></g></g><g id="g1120"><g id="g1122" clip-path="url(#clipPath1126)"><g id="g1128" transform="translate(61.2917,123.3375)"><path d="m 0,0 c -0.079,-0.006 -0.121,0.03 -0.122,0.108 -0.007,0.564 -0.01,0.846 -0.014,1.41 0,0.077 0.039,0.121 0.116,0.127 C 0.352,1.676 0.538,1.692 0.909,1.723 0.985,1.73 1.026,1.693 1.028,1.616 1.03,1.569 1.031,1.545 1.032,1.498 1.035,1.421 0.996,1.377 0.919,1.371 0.66,1.349 0.531,1.338 0.271,1.317 0.273,1.203 0.274,1.146 0.276,1.032 0.456,1.047 0.546,1.055 0.726,1.07 0.803,1.076 0.844,1.04 0.846,0.962 0.848,0.921 0.848,0.9 0.85,0.859 0.852,0.781 0.813,0.738 0.735,0.731 0.554,0.716 0.463,0.709 0.282,0.694 0.285,0.567 0.286,0.504 0.289,0.377 0.553,0.398 0.685,0.409 0.949,0.431 1.027,0.437 1.069,0.401 1.072,0.323 1.073,0.276 1.074,0.253 1.076,0.206 1.079,0.128 1.039,0.085 0.96,0.078 0.577,0.047 0.385,0.031 0,0" style="fill:#231f20;fill-opacity:1;fill-rule:nonzero;stroke:none" id="path1130"/></g><g id="g1132" transform="translate(63.6504,124.8001)"><path d="m 0,0 c -0.099,-0.003 -0.148,-0.005 -0.247,-0.008 0,-0.149 0.001,-0.224 0.001,-0.373 0.1,0.004 0.15,0.005 0.249,0.008 0.104,0.004 0.178,0.082 0.176,0.19 C 0.178,-0.07 0.102,0.003 0,0 m -0.361,-1.33 c -0.069,-0.002 -0.103,-0.004 -0.172,-0.006 -0.08,-0.002 -0.12,0.037 -0.12,0.114 0.002,0.566 0.003,0.849 0.006,1.416 0,0.077 0.04,0.119 0.116,0.121 0.215,0.007 0.323,0.011 0.537,0.018 C 0.356,0.344 0.582,0.144 0.589,-0.163 0.593,-0.358 0.495,-0.515 0.322,-0.601 0.452,-0.838 0.518,-0.957 0.652,-1.194 0.679,-1.243 0.647,-1.298 0.589,-1.3 0.505,-1.303 0.463,-1.304 0.379,-1.307 0.283,-1.31 0.249,-1.29 0.205,-1.206 0.098,-1.003 0.045,-0.901 -0.06,-0.698 -0.134,-0.7 -0.17,-0.701 -0.244,-0.704 c 0.001,-0.202 0.001,-0.303 0.002,-0.505 0.001,-0.077 -0.04,-0.119 -0.119,-0.121" style="fill:#231f20;fill-opacity:1;fill-rule:nonzero;stroke:none" id="path1134"/></g><g id="g1136" transform="translate(65.0091,123.4996)"><path d="m 0,0 c -0.079,0.001 -0.119,0.041 -0.119,0.119 0.003,0.566 0.004,0.849 0.006,1.415 0.001,0.078 0.04,0.117 0.116,0.117 C 0.071,1.65 0.105,1.65 0.172,1.65 0.248,1.649 0.288,1.609 0.288,1.531 0.291,0.965 0.292,0.682 0.294,0.116 0.294,0.038 0.254,-0.002 0.175,-0.001 0.105,-0.001 0.07,0 0,0" style="fill:#231f20;fill-opacity:1;fill-rule:nonzero;stroke:none" id="path1138"/></g><g id="g1140" transform="translate(66.4408,123.4653)"><path d="m 0,0 c -0.079,0.004 -0.119,0.046 -0.118,0.123 0.007,0.467 0.011,0.7 0.017,1.166 -0.147,0.007 -0.221,0.011 -0.368,0.017 -0.077,0.004 -0.116,0.046 -0.114,0.124 0.001,0.052 0.002,0.077 0.003,0.129 0.001,0.078 0.042,0.116 0.118,0.113 C -0.01,1.65 0.217,1.64 0.671,1.618 0.747,1.615 0.787,1.573 0.787,1.495 0.787,1.443 0.788,1.418 0.788,1.366 0.788,1.288 0.749,1.25 0.672,1.253 0.524,1.26 0.45,1.264 0.303,1.27 0.3,0.804 0.299,0.571 0.295,0.104 0.295,0.027 0.254,-0.011 0.175,-0.008 0.105,-0.005 0.07,-0.003 0,0" style="fill:#231f20;fill-opacity:1;fill-rule:nonzero;stroke:none" id="path1142"/></g><g id="g1144" transform="translate(68.4405,123.9661)"><path d="M 0,0 C -0.074,0.22 -0.111,0.329 -0.183,0.549 -0.265,0.344 -0.306,0.241 -0.39,0.036 -0.234,0.021 -0.156,0.014 0,0 m -0.763,-0.569 c -0.07,0.006 -0.105,0.009 -0.175,0.016 -0.062,0.005 -0.098,0.061 -0.072,0.117 0.25,0.554 0.371,0.831 0.606,1.385 0.034,0.081 0.072,0.104 0.16,0.095 C -0.177,1.038 -0.145,1.035 -0.078,1.029 0.01,1.021 0.047,0.991 0.079,0.904 0.291,0.309 0.4,0.011 0.622,-0.584 0.646,-0.645 0.607,-0.693 0.544,-0.687 c -0.08,0.007 -0.12,0.011 -0.2,0.018 -0.092,0.008 -0.13,0.037 -0.16,0.125 -0.029,0.085 -0.044,0.128 -0.073,0.214 -0.251,0.023 -0.376,0.034 -0.626,0.057 -0.033,-0.08 -0.05,-0.12 -0.083,-0.2 -0.034,-0.082 -0.073,-0.104 -0.165,-0.096" style="fill:#231f20;fill-opacity:1;fill-rule:nonzero;stroke:none" id="path1146"/></g><g id="g1148" transform="translate(60.7252,120.3161)"><path d="m 0,0 c -0.066,-0.007 -0.099,-0.01 -0.164,-0.016 -0.095,-0.01 -0.136,0.012 -0.173,0.093 -0.254,0.55 -0.377,0.825 -0.615,1.374 -0.025,0.056 0.013,0.112 0.076,0.118 0.08,0.009 0.12,0.013 0.2,0.021 0.092,0.009 0.131,-0.012 0.165,-0.094 C -0.345,1.105 -0.26,0.91 -0.087,0.519 0.056,0.941 0.126,1.153 0.264,1.576 0.293,1.663 0.33,1.693 0.421,1.702 0.492,1.71 0.527,1.713 0.597,1.72 0.66,1.727 0.7,1.679 0.679,1.618 0.478,1.022 0.375,0.723 0.164,0.127 0.133,0.039 0.094,0.009 0,0" style="fill:#231f20;fill-opacity:1;fill-rule:nonzero;stroke:none" id="path1150"/></g><g id="g1152" transform="translate(62.1725,120.4429)"><path d="M 0,0 C -0.082,-0.005 -0.125,0.033 -0.126,0.11 -0.137,0.676 -0.142,0.958 -0.15,1.524 -0.152,1.601 -0.111,1.644 -0.032,1.649 0.038,1.653 0.073,1.655 0.143,1.66 0.222,1.665 0.264,1.627 0.266,1.55 0.279,0.984 0.286,0.701 0.301,0.136 0.304,0.058 0.263,0.016 0.181,0.011 0.109,0.006 0.072,0.004 0,0" style="fill:#231f20;fill-opacity:1;fill-rule:nonzero;stroke:none" id="path1154"/></g><g id="g1156" transform="translate(63.8572,121.8335)"><path d="m 0,0 c -0.102,-0.002 -0.153,-0.004 -0.255,-0.006 0,-0.149 0,-0.224 0.001,-0.373 0.103,0.003 0.155,0.004 0.257,0.006 0.107,0.003 0.184,0.08 0.183,0.189 C 0.184,-0.071 0.106,0.003 0,0 m -0.373,-1.328 c -0.071,-10e-4 -0.107,-0.002 -0.178,-0.004 -0.082,-0.002 -0.124,0.037 -0.123,0.115 0.001,0.566 0.002,0.849 0.005,1.415 0,0.078 0.041,0.119 0.12,0.121 0.222,0.005 0.334,0.008 0.556,0.014 C 0.368,0.342 0.602,0.14 0.609,-0.167 0.613,-0.362 0.511,-0.518 0.332,-0.603 0.467,-0.841 0.535,-0.96 0.672,-1.198 0.701,-1.247 0.667,-1.302 0.608,-1.304 0.521,-1.306 0.478,-1.307 0.391,-1.309 c -0.099,-0.003 -0.134,0.018 -0.18,0.102 -0.11,0.204 -0.165,0.306 -0.273,0.51 -0.076,-0.002 -0.114,-0.003 -0.19,-0.005 0,-0.202 0.001,-0.303 0.002,-0.505 0,-0.078 -0.041,-0.119 -0.123,-0.121" style="fill:#231f20;fill-opacity:1;fill-rule:nonzero;stroke:none" id="path1158"/></g><g id="g1160" transform="translate(65.4887,120.5206)"><path d="m 0,0 c -0.082,0.001 -0.123,0.042 -0.123,0.12 0.004,0.467 0.006,0.701 0.01,1.168 -0.153,0.002 -0.229,0.004 -0.381,0.006 -0.08,0.002 -0.12,0.043 -0.118,0.12 0,0.052 0.001,0.078 0.002,0.13 0.001,0.078 0.042,0.117 0.121,0.116 C -0.021,1.652 0.214,1.647 0.682,1.639 0.761,1.637 0.802,1.596 0.803,1.519 0.804,1.467 0.804,1.441 0.804,1.389 0.805,1.311 0.765,1.272 0.685,1.273 0.532,1.276 0.456,1.277 0.304,1.28 c 0,-0.467 0,-0.7 0,-1.167 C 0.304,0.035 0.262,-0.005 0.18,-0.003 0.108,-0.002 0.072,-0.001 0,0" style="fill:#231f20;fill-opacity:1;fill-rule:nonzero;stroke:none" id="path1162"/></g></g></g><g id="g1164"><g id="g1166" clip-path="url(#clipPath1170)"><g id="g1172" transform="translate(67.5608,120.4265)"><path d="m 0,0 c -0.065,0.004 -0.098,0.006 -0.164,0.01 -0.094,0.006 -0.133,0.034 -0.165,0.121 -0.219,0.59 -0.326,0.885 -0.534,1.475 -0.022,0.06 0.018,0.109 0.08,0.105 0.08,-0.005 0.12,-0.007 0.199,-0.013 C -0.493,1.693 -0.455,1.664 -0.425,1.577 -0.28,1.159 -0.207,0.95 -0.056,0.531 0.109,0.93 0.189,1.129 0.347,1.528 0.379,1.61 0.418,1.634 0.509,1.628 0.58,1.623 0.615,1.621 0.685,1.617 0.748,1.613 0.786,1.558 0.762,1.501 0.533,0.941 0.414,0.661 0.171,0.1 0.134,0.018 0.094,-0.006 0,0" style="fill:#231f20;fill-opacity:1;fill-rule:nonzero;stroke:none" id="path1174"/></g><g id="g1176" transform="translate(70.076,123.4361)"><path d="M 0,0 C 0.102,-0.01 0.174,0.032 0.177,0.105 0.18,0.161 0.146,0.204 0.079,0.254 0.015,0.301 -0.172,0.433 -0.236,0.481 -0.405,0.604 -0.492,0.759 -0.483,0.935 -0.468,1.209 -0.232,1.399 0.08,1.367 0.231,1.352 0.384,1.289 0.497,1.184 0.545,1.139 0.542,1.076 0.495,1.024 0.481,1.008 0.437,0.958 0.423,0.942 0.373,0.883 0.318,0.886 0.257,0.935 0.188,0.989 0.123,1.019 0.064,1.025 -0.03,1.035 -0.087,0.986 -0.09,0.921 -0.093,0.86 -0.066,0.822 0.007,0.77 0.07,0.722 0.258,0.59 0.322,0.542 0.494,0.416 0.581,0.259 0.573,0.093 0.56,-0.209 0.31,-0.375 -0.015,-0.342 c -0.225,0.022 -0.397,0.12 -0.517,0.242 -0.059,0.061 -0.058,0.117 -0.002,0.173 0.017,0.015 0.067,0.065 0.083,0.081 0.053,0.053 0.105,0.048 0.165,-0.005 C -0.179,0.053 -0.09,0.009 0,0" style="fill:#231f20;fill-opacity:1;fill-rule:nonzero;stroke:none" id="path1178"/></g><g id="g1180" transform="translate(69.2351,120.6029)"><path d="M 0,0 C 0.101,-0.009 0.172,0.034 0.176,0.107 0.179,0.163 0.146,0.206 0.08,0.255 0.014,0.301 -0.164,0.433 -0.23,0.479 -0.397,0.601 -0.482,0.755 -0.471,0.931 -0.455,1.206 -0.22,1.399 0.089,1.37 0.238,1.356 0.389,1.295 0.5,1.191 0.547,1.146 0.544,1.083 0.497,1.031 0.483,1.014 0.44,0.964 0.425,0.947 0.375,0.888 0.321,0.891 0.26,0.939 0.193,0.992 0.129,1.022 0.071,1.027 -0.022,1.036 -0.079,0.987 -0.083,0.921 -0.086,0.86 -0.06,0.822 0.012,0.771 0.078,0.725 0.256,0.592 0.322,0.546 0.492,0.422 0.577,0.266 0.568,0.099 0.553,-0.204 0.304,-0.372 -0.017,-0.343 c -0.222,0.02 -0.392,0.116 -0.51,0.238 -0.058,0.059 -0.057,0.116 -0.001,0.172 0.017,0.016 0.066,0.066 0.083,0.082 0.053,0.054 0.104,0.05 0.163,-0.003 C -0.177,0.052 -0.089,0.008 0,0" style="fill:#231f20;fill-opacity:1;fill-rule:nonzero;stroke:none" id="path1182"/></g></g></g></g></g></svg>