<?xml version="1.0" encoding="UTF-8" standalone="no"?>
<svg xmlns:rdf="http://www.w3.org/1999/02/22-rdf-syntax-ns#" xmlns="http://www.w3.org/2000/svg" xml:space="preserve" height="89.16" viewBox="0 0 261.88751 89.159622" width="261.89" version="1.1" xmlns:cc="http://creativecommons.org/ns#" xmlns:dc="http://purl.org/dc/elements/1.1/"><g transform="matrix(1.25 0 0 -1.25 -238.66 630.75)"><g style="" transform="translate(.73208 .73208)"><path d="m39.971 0s-10.071 8.9212-13.279 31.67c0 0-4.8561-4.7168-12.34-4.7168-9.4967 0-14.352 8.581-14.352 15.158 0 9.1538 10.289 13.838 10.289 13.838s-0.50195-2.0236-0.50195-3.8711c0-2.3525 0.83695-8.0684 7.8145-8.0684 8.525 0 9.4316 6.4395 9.4316 6.4395s-3.837 1.962-0.31445 4.4707c0 0-1.3156 2.7832-4.8906 2.7832-3.5762 0-4.42-4.235-3.4375-5.5312 0 0-6.209 2.1851-6.209 9.3926 0 7.205 4.9424 10.143 9.9512 10.143 3.985 0 6.668-1.9766 6.668-1.9766 3.4962 12.238 11.17 17.428 11.17 17.428s7.6674-5.1902 11.17-17.428c0 0 2.6789 1.9766 6.6602 1.9766 5.0038 0 9.9551-2.9376 9.9551-10.143 0-7.2075-6.2129-9.3926-6.2129-9.3926 0.985 1.2962 0.14586 5.5312-3.4316 5.5312-3.5812 0-4.8984-2.7832-4.8984-2.7832 3.5275-2.5088-0.30859-4.4707-0.30859-4.4707s0.89812-6.4395 9.4219-6.4395c6.985 0 7.8184 5.7159 7.8184 8.0684 0 1.8475-0.5 3.8711-0.5 3.8711s10.285-4.6841 10.285-13.838c0-6.5775-4.8507-15.158-14.346-15.158-7.4775 0-12.336 4.7168-12.336 4.7168-3.216-22.749-13.277-31.67-13.277-31.67zm148.91 25.811c-0.0737 0.31375-0.2568 0.53875-0.43555 0.6875-0.44625-0.32875-0.93906-0.61133-1.8203-0.61133-1.45 0-2.4805 0.98586-2.4805 2.2246 0 1.1362 0.79054 2.0161 1.6543 2.4648l1.4395 0.73242c1.0288 0.53875 1.7148 1.1191 1.7148 1.8066 0 0.95625-0.80719 1.6445-1.8672 1.6445-2.7338 0-2.7637-2.6914-2.7637-2.6914h-0.29492v3.2891h0.29492c0.0763-0.33 0.25485-0.55312 0.4336-0.70312 0.4775 0.105 1.1938 0.70312 2.3301 0.70312 1.5375 0 2.8398-1.0607 2.8398-2.6895 0-0.82125-0.40539-1.689-1.5566-2.2715l-1.4316-0.73047c-1.285-0.6725-1.8086-1.0773-1.8086-1.8535 0-0.74625 0.61422-1.3301 1.4492-1.3301 1.7338 0 2.1839 1.4202 2.2852 2.6152h0.3125v-3.2871h-0.29492zm-95.736 0.32812v0.31445c1.2412 0 1.4199 0.23938 1.4199 1.7344v3.584c0 2.345 1.6122 3.5859 3.5859 3.5859 1.985 0 3.5996-1.2409 3.5996-3.5859v-3.584c0-1.495 0.19359-1.7344 1.4336-1.7344v-0.31445h-3.4961v0.31445c1.2413 0 1.4336 0.23938 1.4336 1.7344v3.6582c0 1.9412-1.1773 2.8379-2.7461 2.8379-1.4938 0-2.6152-0.89664-2.6152-2.8379v-3.6582c0-1.495 0.17797-1.7344 1.418-1.7344v-0.31445h-4.0332zm16.795 0v0.31445c1.2388 0 1.418 0.23938 1.418 1.7344v4.8555c0 1.4925-0.17922 1.7461-1.418 1.7461v0.3125h3.4043v-0.3125c-1.2412 0-1.4336-0.25359-1.4336-1.7461v-5.1992l6.0781 7.5137h0.34375v-7.1699c0-1.495 0.19484-1.7344 1.4336-1.7344v-0.31445h-3.4062v0.31445c1.24 0 1.4199 0.23938 1.4199 1.7344v5.0625l-5.7363-7.1113h-2.1035zm16.949 0v0.31445c1.2388 0 1.416 0.23938 1.416 1.7344v4.8555c0 1.4925-0.17726 1.7461-1.416 1.7461v0.3125h4.0312v-0.3125c-1.24 0-1.418-0.25359-1.418-1.7461v-4.8555c0-1.495 0.17797-1.7344 1.418-1.7344v-0.31445h-4.0312zm26.623 0v0.31445c1.2388 0 1.4219 0.23938 1.4219 1.7344v4.8535c0 1.4925-0.18313 1.748-1.4219 1.748v0.3125h7.3223l0.11914-1.9863h-0.31641l-0.0723 0.30078c-0.19625 0.79-0.36188 1.1328-1.7344 1.1328h-1.2812c-1.2425 0-1.4219-0.23867-1.4219-1.7324v-2.1816h0.74609c1.495 0 1.7324 0.18055 1.7324 1.4355h0.3164v-3.4219h-0.3164c0 1.255-0.23743 1.4355-1.7324 1.4355h-0.74609v-3.3926h2.2109c1.3762 0 1.5249 0.34359 1.7324 1.1211l0.0762 0.29883h0.3125l-0.13672-1.9727h-6.8106zm14.83 0v0.31445c1.2388 0 1.4219 0.23938 1.4219 1.7344v4.8555c0 1.4925-0.18313 1.7461-1.4219 1.7461v0.3125h4.0352v-0.3125c-1.24 0-1.4199-0.25359-1.4199-1.7461v-1.8691h0.70312l2.9551 3.9277h2.4648v-0.3125c-0.89625-0.105-1.8959-0.85219-2.7734-1.8984l-1.4668-1.7168c1.6888-0.18 2.6582-1.2098 2.6582-2.5098 0-1.3875-1.1359-2.5254-3.2109-2.5254h-3.9453zm28.945 0v0.31445c1.2388 0 1.416 0.23938 1.416 1.7344v4.8555c0 1.4925-0.17726 1.7461-1.416 1.7461v0.3125h4.0312v-0.3125c-1.2388 0-1.4199-0.25359-1.4199-1.7461v-4.8555c0-1.495 0.18118-1.7344 1.4199-1.7344v-0.31445h-4.0312zm25.971 0v0.31445c1.0625 0 1.5235 0.31453 2.166 1.3008l2.4785 3.8379v1.4492c0 1.4938-0.17602 1.748-1.416 1.748v0.3125h4.0312v-0.3125c-1.24 0-1.418-0.2543-1.418-1.748v-1.5527l2.4629-3.7344c0.5975-0.88125 0.91171-1.3008 2.168-1.3008v-0.31445h-3.4961v0.31445c1.2562 0 1.3291 0.32922 0.80664 1.1367l-2.1797 3.2832-2.1523-3.2832c-0.45-0.6875-0.44891-1.1367 0.80859-1.1367v-0.31445h-4.2598zm-86.219 0.002v0.3125c1.2425 0 1.3156 0.23953 1.7793 1.3008l3.3027 7.6016h0.19336l3.2852-7.6016c0.4625-1.0612 0.53859-1.3008 1.7773-1.3008v-0.3125h-3.4785v0.3125c1.2388 0 1.5228 0.32727 1.1641 1.1348l-2.5098 5.8125-2.5391-5.8125c-0.35875-0.82125-0.0759-1.1348 1.1641-1.1348v-0.3125h-4.1387zm71.221 0-0.13281 2.0176h0.3125l0.0742-0.30078c0.21-0.79125 0.36187-1.1348 1.7344-1.1348h1.9551v6.3184c0 1.4938-0.19484 1.748-1.4336 1.748v0.3125h4.0488v-0.3125c-1.24 0-1.4336-0.2543-1.4336-1.748v-6.3184h1.9551c1.3762 0 1.5231 0.34352 1.7344 1.1348l0.0742 0.30078h0.3125l-0.13086-2.0176h-9.0703zm42.199 0.36328c-0.61125 0.03-1.5192 0.73297-1.9805 1.918l-0.3789 0.99609-0.14844 0.35156-0.0801 0.20703h-0.73242l-0.16992 0.35156h0.76562l-1.3633 3.5117c-0.375 0.965-0.62742 1.3209-0.91992 1.3359-0.535 0.02375 0.0312-0.69188-0.39258-0.67188-0.19875 0.0087-0.32172 0.13422-0.38672 0.29297-0.1225 0.2925 0.0333 0.69938 0.61328 0.67188 0.58-0.02875 1.1774-0.46805 1.6387-1.6543l1.3535-3.4863h0.68555l0.14258-0.35156h-0.69336l0.0918-0.23437 0.14453-0.35156 0.38282-0.99414c0.44-1.125 0.96093-1.5859 1.2734-1.5996 0.55125-0.02625 0.0462 0.68922 0.46875 0.66797 0.16875-0.0075 0.29883-0.11047 0.36133-0.26172 0.11375-0.30375-0.067-0.72672-0.67578-0.69922zm-79.502 0.1875h1.3144c1.3012 0 1.8984 0.89891 1.8984 1.9727 0 1.0913-0.59719 1.9727-1.8984 1.9727h-1.3144v-3.9453zm73.773 1.7695c-0.76091 0.0748-1.5309 0.75242-1.8262 1.6504-0.31875 1.0275 0.10664 1.9652 0.96289 2.084 0.84625 0.11625 1.8052-0.63391 2.1289-1.6602 0.32875-1.0275-0.0939-1.9521-0.94141-2.0684-0.10687-0.015-0.21551-0.01651-0.32421-0.0059zm0.23046 0.32031c0.6 0.0825 0.65977 0.81032 0.38477 1.6641-0.27 0.85375-0.76961 1.5173-1.3809 1.4336-0.61125-0.085-0.66898-0.82328-0.39648-1.6758 0.2725-0.85375 0.77882-1.5056 1.3926-1.4219zm-129.38 12.019c-1.81 0-3.4173 0.27492-4.8223 0.82617-1.4075 0.55125-2.6668 1.3687-3.7793 2.4512-1.1138 1.0825-1.9087 2.3012-2.3887 3.6562-0.48125 1.3538-0.7207 2.8277-0.7207 4.4277 0 1.4188 0.24789 2.8527 0.74414 4.3027 0.495 1.4512 1.2174 2.6842 2.1699 3.6992 0.94875 1.0175 2.112 1.7858 3.4883 2.3008 1.375 0.51375 2.8566 0.77148 4.4453 0.77148 3.4888 0 6.3787-1.1302 8.6699-3.3965 2.29-2.2675 3.4355-5.1048 3.4355-8.5098 0-1.0625-0.11484-2.0577-0.33984-2.9902-0.22875-0.92875-0.53617-1.739-0.91992-2.4277-0.50625-0.92-1.1953-1.7666-2.0703-2.5391-0.87625-0.77375-1.9963-1.3972-3.3613-1.8672s-2.8833-0.70508-4.5508-0.70508zm54.492 0c-1.4262 0-2.7462 0.29516-3.9688 0.87891-1.2162 0.5875-2.1367 1.4047-2.7617 2.4609-0.62 1.0562-0.93359 2.1786-0.93359 3.3711 0 0.81625 0.1568 1.5802 0.4668 2.2852 0.30625 0.7075 0.71008 1.2779 1.2051 1.7129 0.495 0.435 1.2685 0.81102 2.3223 1.1348 0.79125 0.17 1.7434 0.32906 2.8672 0.47656 1.1225 0.145 1.8711 0.25109 2.2461 0.30859 0.59625 0.11875 1.0962 0.32836 1.5 0.63086 0.40375 0.295 0.70414 0.68562 0.90039 1.1719 0.19625 0.48625 0.29688 1.061 0.29688 1.7285 0 0.8725-0.19696 1.6915-0.5957 2.459-0.39126 0.76125-1.0196 1.3823-1.8809 1.8535-0.86125 0.47125-1.8005 0.70703-2.8242 0.70703-0.69875 0-1.4206-0.12242-2.1719-0.35742-0.75-0.23875-1.3481-0.51-1.7969-0.8125-0.4425-0.30375-0.72235-0.58992-0.83985-0.85742-0.11625-0.2675-0.19875-1.1422-0.25-2.6172h-1.0176c-0.0288 2.1737-0.12601 3.7436-0.29101 4.7148 1.6312 0.79 3.4455 1.1855 5.4492 1.1855 2.6512 0 4.8091-0.74664 6.4766-2.2441 1.6688-1.4975 2.502-3.2551 2.502-5.2676 0-0.85375-0.145-1.5928-0.4375-2.2266-0.29375-0.63-0.66554-1.1425-1.123-1.5312-0.455-0.38875-1.1574-0.72602-2.1074-1.0098-1.0113-0.18875-2.1466-0.37102-3.4141-0.54102-1.2625-0.17125-2.171-0.35172-2.7285-0.54297-0.81-0.28375-1.3738-0.65961-1.6875-1.1309-0.315-0.46875-0.46875-1.1341-0.46875-1.9941 0-1.4212 0.4375-2.5782 1.3125-3.4707 0.87625-0.8925 2.0508-1.3379 3.5195-1.3379 1.1325 0 2.2231 0.29211 3.2656 0.88086 0.435 0.29125 0.78196 0.62063 1.0332 0.98438 0.0625 0.14125 0.10601 0.99008 0.13476 2.5488h1.0195c0.03-1.0712 0.076-1.8823 0.13477-2.4336 0.0637-0.55 0.16219-1.1438 0.30469-1.7812-0.87875-0.4375-1.8282-0.76734-2.8457-0.99609-1.0175-0.2275-1.9538-0.3418-2.8125-0.3418zm29.979 0.22852c-1.3588 3.245-2.2452 5.3405-2.6602 6.2793l-3.7969 8.5586c-1.135 2.4675-1.7953 3.8887-1.9766 4.2637-0.31625 0.65375-0.55196 1.0611-0.72071 1.2148-0.1675 0.15875-0.34883 0.26852-0.54883 0.32227-0.1925 0.05625-0.69289 0.08641-1.4941 0.09766v1.0312c1.165-0.09125 2.2414-0.13867 3.2227-0.13867 0.8525 0 2.133 0.04742 3.8418 0.13867v-1.0312c-0.9375-0.01125-1.5982-0.05477-1.9707-0.13477-0.2325-0.05125-0.40632-0.14219-0.51757-0.27344-0.0825-0.09125-0.1211-0.20711-0.1211-0.34961 0-0.32375 0.14836-0.8325 0.44336-1.5312l1.6484-3.9004h8.7832l1.8633 4.6406c0.1425 0.35625 0.21094 0.64344 0.21094 0.86719 0 0.1425-0.0402 0.25922-0.12891 0.35547-0.085 0.09625-0.24898 0.1675-0.49023 0.21875-0.245 0.05125-0.9332 0.08867-2.0644 0.10742v1.0312l4.8887-0.14844c0.62875 0 1.7344 0.05094 3.3144 0.14844v-1.0312c-0.80125-0.01125-1.3155-0.06844-1.543-0.17969-0.23125-0.11125-0.44086-0.34492-0.63086-0.70117-0.34375-0.6275-1.0444-2.1724-2.0957-4.6387l-6.4883-15.217h-0.96875zm48.117 0c-1.3538 3.245-2.2393 5.3405-2.6543 6.2793l-3.8008 8.5586c-1.1338 2.4675-1.7896 3.8887-1.9746 4.2637-0.3125 0.65375-0.55141 1.0611-0.72266 1.2148-0.165 0.15875-0.34617 0.26852-0.54492 0.32227-0.19625 0.05625-0.69289 0.08641-1.4941 0.09766v1.0312c1.165-0.09125 2.2389-0.13867 3.2227-0.13867 0.8525 0 2.1305 0.04742 3.8418 0.13867v-1.0312c-0.94-0.01125-1.5976-0.05477-1.9726-0.13477-0.2325-0.05125-0.40188-0.14219-0.51563-0.27344-0.08-0.09125-0.12109-0.20711-0.12109-0.34961 0-0.32375 0.1475-0.8325 0.4375-1.5312l1.6484-3.9004h8.7891l1.8613 4.6406c0.1425 0.35625 0.21289 0.64344 0.21289 0.86719 0 0.1425-0.0446 0.25922-0.13086 0.35547-0.085 0.09625-0.25039 0.1675-0.49414 0.21875-0.24 0.05125-0.92539 0.08867-2.0566 0.10742v1.0312l4.8809-0.14844c0.63125 0 1.737 0.05094 3.3144 0.14844v-1.0312c-0.79875-0.01125-1.3116-0.06844-1.5391-0.17969s-0.43907-0.34492-0.63282-0.70117c-0.34375-0.6275-1.0425-2.1724-2.0938-4.6387l-6.4902-15.217h-0.9707zm-163.46 0.22656v0.97266c1.2025 0.02 1.9346 0.07195 2.1934 0.1582 0.2575 0.085 0.4443 0.21633 0.56055 0.39258 0.115 0.1775 0.18875 0.74578 0.21875 1.707 0.03125 1.3138 0.04687 2.6575 0.04687 4.0312v8.1562c0 0.26125-0.02492 1.0864-0.07617 2.4727-0.03 0.92625-0.09094 1.5352-0.17969 1.8164-0.04 0.1425-0.11024 0.25836-0.20898 0.34961-0.17125 0.17-0.56945 0.40477-1.1895 0.69727v0.78711c1.0025-0.06875 1.989-0.10352 2.959-0.10352l8.9805 0.10352c1.0912 0 1.9015-0.01564 2.4277-0.04687 0.24375-0.01625 0.57133-0.06789 0.98633-0.15039 0.2125-2.0325 0.42844-3.8004 0.64844-5.3066h-1.0137l-0.60742 2.5156c-0.10125 0.395-0.21766 0.74133-0.34766 1.0488-1.1438 0.36375-3.1397 0.54688-5.9922 0.54688-1.1312 0-2.2747-0.03813-3.4297-0.10938-0.05-0.665-0.07617-1.528-0.07617-2.5918v-10.186c0.0375-2.6688 0.06367-4.1034 0.07617-4.3047 0.03-0.7775 0.10852-1.2695 0.22852-1.4707 0.1-0.15125 0.27961-0.27047 0.53711-0.35547 0.25875-0.08625 0.99016-0.1382 2.1914-0.1582v-0.97266c-2.2538 0.07-3.7041 0.10547-4.3516 0.10547-0.5875 0-2.1158-0.03547-4.582-0.10547zm67.1 0v0.9707c1.2012 0.02 1.9321 0.07391 2.1934 0.16016 0.25625 0.085 0.4443 0.21828 0.56055 0.39453 0.1175 0.1775 0.19 0.74258 0.21875 1.7051 0.0312 1.3138 0.0449 2.6588 0.0449 4.0312v7.0195c-0.0375 2.6575-0.0617 4.094-0.0742 4.3027-0.03 0.78-0.1085 1.2714-0.22852 1.4727-0.10123 0.15125-0.28367 0.27047-0.54492 0.35547s-0.98242 0.1382-2.1699 0.1582v0.9707l4.6777-0.10352c0.6775 0 2.0915 0.03477 4.2402 0.10352v-0.9707c-1.2025-0.02-1.9327-0.0732-2.1914-0.1582-0.25875-0.085-0.44679-0.21789-0.56054-0.40039-0.12-0.1825-0.18946-0.75734-0.22071-1.7148-0.0288-1.305-0.0449-2.6419-0.0449-4.0156v-7.0195c0.04-2.6675 0.0612-4.1022 0.0762-4.3047 0.0312-0.7775 0.10602-1.2707 0.22852-1.4707 0.0987-0.15125 0.27641-0.27047 0.53516-0.35547 0.255-0.08625 0.98023-0.14016 2.1777-0.16016v-0.9707c-1.9562 0.07-3.4387 0.10547-4.4512 0.10547-1.0512 0-2.5406-0.03547-4.4668-0.10547zm26.775 0v0.9707c1.2025 0.02 1.9352 0.07391 2.1914 0.16016 0.25625 0.085 0.44625 0.21828 0.5625 0.39453 0.11375 0.1775 0.1875 0.74258 0.21875 1.7051 0.0312 1.3138 0.0469 2.6588 0.0469 4.0312v7.0195c-0.0375 2.6575-0.0669 4.094-0.0781 4.3027-0.0288 0.78-0.10852 1.2714-0.22852 1.4727-0.0987 0.15125-0.27586 0.27047-0.53711 0.35547-0.265 0.085-0.99078 0.1382-2.1758 0.1582v0.9707l4.6777-0.10352c0.6775 0 2.0904 0.03477 4.2441 0.10352v-0.9707c-1.205-0.02-1.9403-0.0732-2.1953-0.1582-0.25875-0.085-0.44625-0.21789-0.5625-0.40039-0.115-0.1825-0.1875-0.75734-0.21875-1.7148-0.0312-1.305-0.0449-2.6419-0.0449-4.0156v-7.0195c0.0375-2.6675 0.0612-4.1022 0.0762-4.3047 0.0275-0.7775 0.10602-1.2707 0.22852-1.4707 0.0962-0.15125 0.2782-0.27047 0.5332-0.35547 0.255-0.08625 0.98485-0.14016 2.1836-0.16016v-0.9707c-1.9612 0.07-3.4458 0.10547-4.457 0.10547-1.0462 0-2.5348-0.03547-4.4648-0.10547zm34.664 0v0.97266c0.81875 0.01 1.3458 0.03578 1.582 0.08203 0.23875 0.045 0.44836 0.1493 0.63085 0.31055 0.28375 0.2525 0.46618 0.46914 0.54493 0.65039 0.0425 0.10125 0.0625 0.31664 0.0625 0.65039v12.338c0 0.96625-0.028 2.1149-0.0742 3.4512-0.045 0.85375-0.1136 1.3852-0.21485 1.584-0.0625 0.13375-0.16414 0.22852-0.30664 0.29102-0.335 0.15125-1.0348 0.23148-2.1035 0.24023v0.9707c1.3762-0.06875 2.6485-0.10352 3.8223-0.10352 1.0725 0 2.0527 0.03477 2.9414 0.10352v-0.9707c-1.05-0.0087-1.7437-0.08797-2.0762-0.23047-0.1425-0.0625-0.24906-0.16164-0.32031-0.30664-0.0913-0.1925-0.15477-0.715-0.19727-1.5625-0.0712-1.3575-0.10547-2.541-0.10547-3.541v-11.756l10.754 12.986 1.959 2.5c0.395 0.48875 1.0084 1.2145 1.8496 2.1758 0.3125 0.3575 0.50688 0.56203 0.57813 0.61328 0.0475 0.04 0.10351 0.0743 0.16601 0.0918l0.36524 0.07617 1.5586 0.45703c-0.0475-4.03-0.0723-6.7803-0.0723-8.2578v-7.2852c0-0.9575 0.0248-2.107 0.0723-3.4395 0.0425-0.86875 0.11234-1.3973 0.21484-1.5898 0.0625-0.1425 0.16414-0.24398 0.30664-0.30273 0.33625-0.1425 1.0348-0.21656 2.0898-0.22656v-0.97266c-0.94125 0.04-1.9887 0.06055-3.1387 0.06055-1.2262 0-2.4332-0.02055-3.627-0.06055v0.97266c1.0538 0.01 1.7431 0.08406 2.0781 0.22656 0.1425 0.05875 0.24961 0.15516 0.31836 0.28516 0.0937 0.2025 0.15922 0.71914 0.19922 1.5566 0.0675 1.33 0.10351 2.4891 0.10351 3.4766v11.049c-0.3775-0.38375-0.85-0.90922-1.4062-1.5742-0.87875-1.0088-2.0402-2.3902-3.4902-4.1465l-4.5215-5.5059-3.1016-3.8594c-0.3975-0.5325-1.0216-1.3605-1.8691-2.4805-0.75625 0.04-1.5123 0.06055-2.2773 0.06055-0.44875 0-1.5474-0.02055-3.2949-0.06055zm-85.865 0.002v0.96875c1.205 0.02 1.9359 0.07391 2.1934 0.16016 0.25875 0.08625 0.4443 0.21633 0.56055 0.39258 0.11625 0.1775 0.1907 0.74453 0.2207 1.707 0.03 1.3125 0.0449 2.6575 0.0449 4.0312v6.7012c0 1.95 0.14008 3.3398 0.42383 4.166 0.2225 0.63125 0.63297 1.2455 1.2305 1.8418 0.59625 0.60375 1.4649 1.0927 2.6074 1.459 1.145 0.3675 2.4952 0.55078 4.0527 0.55078 1.3338 0 2.5515-0.15625 3.6465-0.46875 1.0962-0.3125 1.9939-0.74961 2.6914-1.3184 0.93125-0.75625 1.5719-1.6323 1.9219-2.6211 0.34625-0.9925 0.52344-2.7349 0.52344-5.2324v-5.0781c0.0288-2.6675 0.0498-4.1009 0.0586-4.3047 0.0312-0.7775 0.10602-1.2675 0.22852-1.4688 0.0987-0.1525 0.27695-0.27117 0.5332-0.35742 0.25875-0.08625 0.98594-0.14015 2.1797-0.16016v-0.96875c-1.8138 0.06875-3.0676 0.10352-3.7676 0.10352-0.76375 0-1.9854-0.03477-3.6504-0.10352v0.96875c1.1875 0.02 1.9126 0.07391 2.1738 0.16016 0.26375 0.08625 0.45265 0.21633 0.5664 0.39258 0.11625 0.1775 0.18508 0.74453 0.20508 1.707 0.0513 1.3125 0.0723 2.6575 0.0723 4.0312v4.6699c0 1.3238-0.0444 2.4182-0.14063 3.2832-0.0962 0.86375-0.2539 1.5396-0.47265 2.0371-0.21625 0.49375-0.54563 0.93914-0.98438 1.3379-0.44 0.40375-1.1003 0.73883-1.9766 1.0176-0.88125 0.27875-1.8877 0.41797-3.0215 0.41797-0.96875 0-1.8506-0.10555-2.6406-0.31055-0.7875-0.21-1.4134-0.48258-1.8809-0.83008-0.605-0.45125-1.0455-1.0268-1.3242-1.7168-0.27875-0.69375-0.41992-2.1256-0.41992-4.2969v-5.6094c0.04-2.6675 0.0644-4.1022 0.0781-4.3047 0.0288-0.7775 0.10829-1.2688 0.23829-1.4688 0.0913-0.1525 0.26804-0.27117 0.52929-0.35742s0.99078-0.14015 2.1758-0.16016v-0.96875c-1.4188 0.06875-2.8475 0.10352-4.2812 0.10352-1.415 0-2.9457-0.03477-4.5957-0.10352zm-12.471 0.83203c1.1125 0 2.1506 0.17383 3.1094 0.51758 0.9625 0.34375 1.7444 0.76562 2.3457 1.2656 0.60124 0.5 1.1204 1.0866 1.5566 1.7578 0.43375 0.67375 0.78117 1.4252 1.0449 2.2539 0.4225 1.3562 0.63672 2.8385 0.63672 4.4473 0 1.8812-0.29547 3.5406-0.88672 4.9844-0.5925 1.4375-1.4896 2.5571-2.6934 3.3496-1.2038 0.79375-2.618 1.1914-4.248 1.1914-1.1725 0-2.244-0.19524-3.209-0.58398-0.96625-0.39-1.84-0.99461-2.625-1.8184-0.78375-0.825-1.4174-1.8443-1.9024-3.0605-0.2925-0.71625-0.53726-1.5725-0.72851-2.5625-0.1925-0.98875-0.28711-1.9665-0.28711-2.9277 0-1.7188 0.30547-3.2591 0.91797-4.6191 0.61125-1.3612 1.5226-2.3997 2.7363-3.1172 1.2138-0.7175 2.6249-1.0781 4.2324-1.0781zm84.879 3.0684 3.7774 9.1289h-7.6484l3.8711-9.1289zm48.121 0 3.7754 9.1289h-7.6465l3.8711-9.1289zm-129.09 23.793-2.2793 6.0605c-0.3325 0.8675-0.4793 1.0332-1.123 1.0332l-0.0156 0.25391h2.2012l0.006-0.25391c-0.7525 0-0.9007-0.24805-0.6582-0.9043l0.5039-1.3203h2.1055l0.35156 1.3203c0.18625 0.6425-0.004 0.9043-0.74414 0.9043l-0.0176 0.25391h2.5352l0.006-0.25391c-0.665 0-0.76039-0.1882-0.99414-1.0332l-1.6504-6.0605h-0.22656zm33.688 0-2.2774 6.0605c-0.33625 0.8675-0.48054 1.0332-1.123 1.0332l-0.0156 0.25391h2.1992l0.004-0.25391c-0.75 0-0.89696-0.24805-0.65821-0.9043l0.50586-1.3203h2.1055l0.35547 1.3203c0.1825 0.6425-0.0111 0.9043-0.74609 0.9043l-0.0176 0.25391h2.5312l0.008-0.25391c-0.6675 0-0.76219-0.1882-0.99219-1.0332l-1.6523-6.0605h-0.22656zm15.188 0.08594c-0.26125 0-0.61578 0.11531-0.86328 0.41406l0.0273 0.27734c0.10875-0.10875 0.36453-0.27734 0.55078-0.27734 0.66875 0 1.4953 1.2156 1.3203 4.6094l-0.0351 0.59375c-0.0738 1.1912-0.20994 1.3906-0.95117 1.3906l-0.0156 0.25391h2.5254l0.006-0.25391c-0.73875 0-0.84805-0.19938-0.7793-1.3906l0.041-0.64062c0.085-1.6325 0.9957-4.4883 1.7207-4.4883 0.44 0 0.22406 0.57226 0.66406 0.57226 0.205 0 0.30266-0.15719 0.31641-0.33594 0.0225-0.31-0.25242-0.71289-0.76367-0.71289-0.98875 0-1.5867 1.4518-2.0742 3.498-0.235-2.6288-0.7857-3.5098-1.6894-3.5098zm33.039 0.05664-0.30859 1.3594h0.26367c0.19375-0.645 0.33883-0.9043 1.4238-0.9043h0.69921l-0.27343 5.0469c-0.065 1.1888-0.20703 1.3906-0.95703 1.3906l-0.002 0.25h2.4961l0.004-0.25c-0.73625 0-0.84609-0.20188-0.77734-1.3906l0.27344-5.0469h0.65234c1.08 0 1.2274 0.2593 1.4199 0.9043h0.26758l-0.3125-1.3594h-1.2617-2.3418-1.2656zm-100.4 0.05859-0.006 0.25c0.74 0 0.85851 0.19156 0.79101 1.3828l-0.20508 3.8672c-0.0662 1.1912-0.20851 1.3926-0.94726 1.3926l-0.01758 0.25391h4.7402l0.15821-1.5859h-0.1875l-0.0547 0.23828c-0.15 0.63125-0.25758 0.9043-1.0801 0.9043h-1.0586c-0.73875 0-0.8461-0.18961-0.77735-1.3809l0.20118-3.6895c0.0562-1.1912 0.19-1.3828 0.9375-1.3828l0.006-0.25h-2.5zm84.518 0-0.004 0.25c0.73875 0 0.85781 0.19156 0.78906 1.3828l-0.20508 3.8672c-0.0687 1.1912-0.20906 1.3926-0.94531 1.3926l-0.0156 0.25391h4.4375l0.16211-1.5859h-0.1875l-0.0566 0.23828c-0.1475 0.63125-0.25687 0.9043-1.0781 0.9043h-0.76172c-0.7425 0-0.84289-0.18961-0.77539-1.3809l0.082-1.7344h0.43945c0.8925 0 1.0413 0.13938 0.98633 1.1406h0.19141l0.14258-2.7266h-0.19141c-0.045 0.99875-0.20711 1.1426-1.0996 1.1426h-0.4375l0.14258-2.7031h1.3105c0.82125 0 0.90329 0.27773 0.98829 0.89648l0.0312 0.23633h0.1875l0.0117-1.5742h-4.1445zm32.729 0-0.30469 1.3574h0.26172c0.19375-0.6425 0.33992-0.90234 1.4199-0.90234h0.70508l-0.27148 5.0449c-0.0687 1.1912-0.21094 1.3926-0.96094 1.3926l-0.006 0.25391h2.502l0.004-0.25391c-0.73875 0-0.8461-0.20133-0.77735-1.3926l0.27149-5.043h0.65234c1.0825 0 1.2276 0.25719 1.4238 0.89844h0.26172l-0.31055-1.3535h-1.2637l0.004-0.002h-3.6113zm17.014 0-0.008 0.25c0.73875 0 0.85976 0.19156 0.79101 1.3828l-0.20507 3.8672c-0.0675 1.1912-0.21047 1.3926-0.94922 1.3926l-0.0156 0.25391h4.4375l0.16602-1.5859h-0.19141l-0.0527 0.23828c-0.1475 0.63125-0.26063 0.9043-1.0781 0.9043h-0.76367c-0.73625 0-0.84219-0.18961-0.77344-1.3809l0.082-1.7344h0.44141c0.8925 0 1.0399 0.13938 0.98242 1.1406h0.19336l0.14258-2.7266h-0.19336c-0.0462 0.99875-0.20375 1.1426-1.0938 1.1426h-0.43945l0.14062-2.7031h1.3106c0.82 0 0.90078 0.27773 0.98828 0.89648l0.0293 0.23633h0.18945l0.0117-1.5742h-4.1426zm-100.34 0.002-0.006 0.25c0.73875 0 0.85836 0.19086 0.78711 1.3809l-0.20117 3.8691c-0.0688 1.19-0.20922 1.3926-0.94922 1.3926l-0.0156 0.25195h2.5l0.0176-0.25195c-0.75 0-0.84669-0.20258-0.79297-1.3926l0.0977-1.9141h0.44141c0.8925 0 1.0426 0.13938 0.98633 1.1406h0.19336l0.13671-2.7266h-0.1875c-0.045 0.9975-0.20765 1.1426-1.0976 1.1426h-0.44336l0.14844-2.7012h1.4629c0.82125 0 0.90093 0.27453 0.99218 0.89453l0.0273 0.23633h0.18945v-1.5723h-4.2871zm-15.562 1.4141 0.76172 2.8125h-1.8203l1.0586-2.8125zm33.689 0 0.76368 2.8125h-1.8262l1.0625-2.8125z" transform="matrix(.8 0 0 -.8 190.93 503)" fill="#0a0203"/><path d="m248.48 460.55c4.244 5.182 1.412 13.985-5.791 13.985-7.969 0-11.939-10.847-11.939-10.847s-0.504 0.139-1.216 0.293c-0.245 0.039-0.439 0.087-0.698 0.143-0.424 0.082-0.875 0.164-1.326 0.225 1.018 4.124 6.888 15.326 15.498 15.326 6.527 0 10.164-4.488 10.164-10.805 0-5.462-4.692-8.32-4.692-8.32m-11.341-10.12c2.974 0 5.155 3.322 5.155 5.402 0 1.442-0.819 2.82-0.819 2.82 0.295-1.605-1.669-3.606-3.474-3.606-1.581 0-2.411 1.046-2.411 1.046l0.179 0.195s0.82-0.746 2.047-0.746c2.72 0 3.737 2.888 3.508 3.648 0.844-0.719 2.482-2.1 2.482-5.778 0-2.858-2.023-6.435-6.58-6.435-8.042 0-10.276 10.177-10.276 10.177 1.41 0.132 3.632 0.653 3.632 0.653s0.152-7.376 6.557-7.376m-14.237-13.936s-4.616 2.665-7.291 12.16c0 0 2.973 3.672 4.496 8.374h2.032l-4.504-9.649c1.7-6.074 5.267-8.825 5.267-8.825v18.474h0.873c0.402 0.005 0.589 0.005 1.016 0h0.902c1.52-4.702 4.492-8.374 4.492-8.374-2.67-9.495-7.283-12.16-7.283-12.16m-14.328 10.482c-4.558 0-6.58 3.577-6.58 6.435 0 3.678 1.636 5.059 2.477 5.778-0.23-0.76 0.793-3.648 3.508-3.648 1.226 0 2.051 0.746 2.051 0.746l0.183-0.195s-0.837-1.046-2.418-1.046c-1.809 0-3.764 2.001-3.476 3.606 0 0-0.815-1.378-0.815-2.82 0-2.08 2.181-5.402 5.159-5.402 5.923 0 7.314 7.212 7.314 7.212s1.459-0.357 2.875-0.489c0 0-2.234-10.177-10.278-10.177m-5.468 27.559c-7.202 0-10.036-8.803-5.786-13.985 0 0-4.696 2.858-4.696 8.32 0 6.317 3.645 10.805 10.164 10.805 8.617 0 14.487-11.202 15.498-15.326-1.556-0.213-3.241-0.661-3.241-0.661s-3.968 10.847-11.939 10.847m14.759-16.061s-4.92 0.423-4.92 2.356c0 1.482 3.785 2.765 9.957 2.765 3.128 0 7.987-0.289 7.987-2.174 0-1.88-7.987-1.671-7.987-1.671-10.041 0-7.126 1.048-9.315 1.048 1.178-1.883 4.278-2.324 4.278-2.324m5.037 41.842s7.081-8.188 8.716-24.887c0 0-4.239-5.559-5.049-10.948 0 0-0.509 0.046-1.166 0.09 1.105 6.34 4.66 11.344 4.66 11.344-2.13 14.018-7.161 22.464-7.161 22.464v-33.675c-0.426 0-1.093-0.034-1.745-0.073-0.213-0.01-0.514-0.042-0.764-0.06-0.661-0.044-1.166-0.09-1.166-0.09-0.81 5.389-5.047 10.948-5.047 10.948 1.64 16.699 8.722 24.887 8.722 24.887" fill="#ce181e"/><path d="m39.971 5.7812s-6.2959 10.558-8.9609 28.08c0 0 4.443 6.2534 5.8242 14.18 0.305-0.02875 0.63258-0.05047 0.95508-0.07422-0.97375-8.8975-4.7031-14.055-4.7031-14.055 0.9125-12.846 6.8848-28.131 6.8848-28.131zm-25.844 24.213c-5.8037 0-10.893 5.4633-10.893 11.613 0 6.145 2.4355 8.6152 2.4355 8.6152s-1.5605-2.584-1.5605-7.1777c0-4.5888 3.6088-11.646 11.156-11.646 6.7562 0 10.172 5.3418 10.172 5.3418s-3.3768-6.7461-11.311-6.7461zm51.076 0.60742c-10.155 0-16.19 12.628-17.816 17.998 0.3075 0.06 0.60625 0.11969 0.875 0.17969 1.7312-4.2388 7.99-17.305 17.656-17.305 4.7025 0 7.707 2.959 7.707 2.959s-3.0031-3.832-8.4219-3.832zm-25.728 19.727c-4.519 0.065-7.909 0.734-7.909 0.734l-1.691 1.042s7.4155-1.2866 18.467-0.96289c-3.0384-0.67219-6.1558-0.85139-8.8672-0.8125zm1.5859 7.1426c0.56125 3.39 3.3418 13.92 3.3418 13.92-0.94375 4.9738-3.2969 8.5391-3.2969 8.5391s3.1486-2.2408 5.4961-9.1445c0 0-2.3008-6.332-4.2695-13.314h-1.2715z" transform="matrix(.8 0 0 -.8 190.93 503)" fill="#fff"/></g></g></svg>