<svg xmlns="http://www.w3.org/2000/svg" width="120" height="120" viewBox="0 0 31.75 31.75" xmlns:v="https://vecta.io/nano"><defs><clipPath><path d="M483.665 568.714l-.927-3.537-.945 3.537h-1.18v-4.4h.62v3.537l.243.027.9-3.564h.71l.9 3.564.14-.016v.002-.002l.102-.01v-3.537h.62v4.4zm-5.4 0l-.935-3.537-.937 3.537h-1.187v-4.4h.62v3.537l.252.027.89-3.564h.71l.9 3.564.16-.018v.004-.004l.083-.01v-3.537h.62v4.4z"/></clipPath><clipPath><path d="M483.475 568.966l-.032-.126-.705-2.68-.712 2.68-.035.126h-1.63v-4.778h1.125v2.654l.663-2.654h1.16l.67 2.654v-2.654h1.125v4.778zm.2-.252h1.188v-4.4h-.62v3.537l-.243.027-.9-3.564h-.71l-.9 3.564-.243-.027v-3.537h-.62v4.4h1.18l.945-3.537z"/></clipPath><clipPath><path d="M478.057 568.966l-.032-.126-.705-2.68-.712 2.68-.035.126h-1.63v-4.778h1.125v2.654l.663-2.654h1.17l.67 2.654v-2.654h1.116v4.778zm.198-.252h1.18v-4.4h-.62v3.537l-.243.027-.9-3.564h-.71l-.89 3.564-.252-.027v-3.537h-.62v4.4h1.187l.937-3.537z"/></clipPath><clipPath id="D"><path d="M962.658 343.253h128.893v128.893H962.658z"/></clipPath></defs><g transform="matrix(.698254 0 0 .698254 -158.42708 -44.3518)"><path d="M226.9 108.99h45.47v-45.47H226.9z" fill="#033f85"/><g clip-path="url(#D)" transform="matrix(.352778 0 0 -.352778 -112.71386 230.08079)"><g fill="#fff"><path d="M977.818 387.533c-.01-.036-.213-.885-.213-.995s.062-.152.116-.152c.095 0 .135.078.156.137a32.74 32.74 0 0 1 .15.27c.13.192.326.25.877.26l1.28.017v-3.8l-.044-1.976c-.038-.273-.08-.417-.2-.444-.002 0-.26-.035-.26-.035-.098 0-.14-.063-.14-.125 0-.142.16-.142.215-.142l.897.028.106-.004 1.02-.024c.195 0 .216.1.216.142 0 .06-.044.125-.142.125l-.4.036c-.218.03-.27.172-.297.44-.048.38-.048 1.12-.048 1.978v3.8l1.082-.017c.88-.02 1.03-.235 1.057-.444l.01-.098c.007-.087.018-.218.143-.218.023 0 .135.008.135.188l.01.292.018.713c0 .055 0 .182-.116.182l-.1-.017c-.13-.026-.37-.075-.797-.075h-3.432l-.714.045c-.002 0-.295.076-.295.076l-.116.034c-.082 0-.116-.102-.15-.2m12.316.053l-.147-.006-.118.005-.916.023c-.054 0-.217 0-.217-.143 0-.072.06-.125.143-.125l.297-.023c.248-.055.322-.153.34-.46l.018-2.165-3.865.016.014.177.02 1.972c.017.3.086.42.283.46a140.62 140.62 0 0 1 .215.024c.083 0 .144.053.144.125 0 .095-.073.143-.217.143l-.746-.022-.15-.006-.12.005-.915.023c-.143 0-.215-.048-.215-.143 0-.07.06-.125.143-.125l.294-.023c.25-.055.323-.153.34-.46l.02-1.972v-1.6l-.045-1.976c-.038-.274-.08-.418-.2-.444-.001-.001-.26-.035-.26-.035-.098 0-.143-.063-.143-.125 0-.142.163-.142.217-.142l.746.022.15.005.107-.004 1.02-.023c.193 0 .215.1.215.142 0 .062-.044.125-.14.125l-.404.035c-.216.03-.27.173-.297.442-.046.38-.046 1.12-.046 1.978v.962l3.867-.016-.016-.946-.047-1.976c-.035-.267-.08-.418-.2-.444-.002-.001-.26-.035-.26-.035-.1 0-.144-.065-.144-.125 0-.142.163-.142.217-.142l.75.022.148.005.104-.004 1.02-.023c.197 0 .218.1.218.142 0 .06-.045.125-.144.125l-.402.035c-.217.03-.27.173-.298.442-.044.38-.044 1.12-.044 1.978v1.6l.017 1.972c.02.314.085.42.282.46l.215.024c.084 0 .144.053.144.125 0 .143-.163.143-.216.143zm5.845.065l-.044-.017-.38-.045c.001 0-2.092-.01-2.092-.01l-.124.005-.9.023c-.054 0-.216 0-.216-.143 0-.072.06-.125.14-.125l.295-.023c.25-.055.323-.153.34-.46l.02-1.972v-1.6l-.045-1.976c-.04-.273-.082-.417-.212-.444-.002-.001-.26-.035-.26-.035-.097 0-.142-.063-.142-.125 0-.142.16-.142.215-.142l.744.022.154.006.348-.012 1.912-.042c.36 0 .482 0 .56.288.047.194.122.822.122.905 0 .068 0 .207-.126.207-.116 0-.137-.127-.148-.195-.06-.353-.16-.517-.372-.607-.224-.095-.617-.095-.85-.095-.886 0-.968.112-1 .684l-.001 1.158.001.403v.804c0-.004 1.295-.05 1.295-.05.3-.03.384-.154.415-.27.001-.001.034-.284.034-.284 0-.088.055-.15.134-.15.134 0 .134.163.134.24l.037.58.072.52c0 .133-.087.143-.114.143l-.184-.135c-.07-.078-.177-.094-.4-.113l-1.448-.018.015 2.548c.1.02 1.082.013 1.23-.005.5-.055.55-.164.595-.27-.001.002.05-.302.05-.302 0-.17.1-.188.143-.188s.106.028.133.157a105.69 105.69 0 0 1 .036.466l.01.146c0-.001.055.312.055.312l.02.123c0 .14-.082.153-.107.153zm10.433-.064l-.156-.007-.128.005-.843.023c-.053 0-.215 0-.215-.143 0-.07.06-.125.142-.125l.296-.023c.268-.06.32-.172.34-.46l.017-1.972v-1.145c0-1.093-.154-1.75-.514-2.197-.327-.4-.857-.633-1.382-.633-.52 0-.904.08-1.335.485-.328.313-.664.82-.664 2.2v1.28l.018 1.972c.02.318.087.43.28.458a140.87 140.87 0 0 1 .218.025c.083 0 .144.053.144.125 0 .143-.162.143-.215.143l-.68-.02-.228-.008-.2.006-.863.022c-.054 0-.216 0-.216-.143 0-.07.06-.125.143-.125l.295-.023c.25-.055.322-.153.34-.46l.02-1.972v-1.336c0-1.48.437-2.1.818-2.46.62-.582 1.477-.67 1.932-.67.493 0 1.23.072 1.932.696.767.682.866 1.848.866 2.787v.98l.017 1.972c.018.314.083.42.283.458a24.14 24.14 0 0 0 .215.025c.082 0 .143.053.143.125 0 .143-.162.143-.215.143zm2.454-.377l-.01-5.244c0-.82-.046-1.044-.224-1.096-.002 0-.356-.05-.356-.05-.098 0-.142-.062-.142-.124 0-.143.15-.143.215-.143l.728.022.15.006.134-.005.836-.023c.064 0 .234 0 .234.143 0 .057-.038.124-.143.124l-.44.052c-.185.056-.284.226-.304.996l-.113 4.196 2.26-2.488 2.393-2.485c.522-.518.613-.602.715-.602.14 0 .152.1.152.72l.017 5.36c0 .57.048.697.284.75.001 0 .206.024.206.024.117 0 .17.07.17.135 0 .133-.16.133-.234.133l-.615-.02-.164-.008-.195.007-.756.02c-.088 0-.253 0-.253-.133 0-.086.052-.135.143-.135l.433-.044c.218-.057.293-.18.3-.8l.098-4.466-.682.74-1.4 1.513-3 3.224c-.128.142-.212.228-.292.228-.158 0-.17-.208-.17-.526m9.392.375l-.147-.006-.142.005-.783.023c-.053 0-.215 0-.215-.143 0-.07.06-.125.14-.125l.27-.032c.14-.034.238-.123.258-.45l.018-1.972v-1.6l-.046-1.976c-.04-.28-.08-.418-.2-.444-.002-.001-.26-.035-.26-.035-.098 0-.143-.065-.143-.125 0-.142.163-.142.217-.142l.748.022.15.005.104-.004 1.02-.023c.197 0 .217.1.217.142 0 .06-.044.125-.14.125l-.402.035c-.218.03-.272.173-.3.442-.047.38-.047 1.12-.047 1.978v1.6l.02 1.97c.018.3.086.422.28.46.001 0 .216.024.216.024.084 0 .144.053.144.125 0 .143-.164.143-.218.143zm8.185.001l-.135-.007-.212.008-.684.02c-.094 0-.27 0-.27-.143 0-.047.022-.125.17-.125l.325-.03c.06-.033.073-.105.073-.145l-.08-.326c-.185-.605-1.32-3.57-1.887-4.913l-1.697 4.522-.243.734c0 .05.014.1.08.12l.318.04c.145 0 .16.095.16.135 0 .133-.2.133-.317.133l-.665-.02-.187-.008-.225.008-.844.02c-.13 0-.307 0-.307-.133 0-.083.055-.135.143-.135l.328-.033c.287-.083.414-.162.613-.664l2.262-5.665c.17-.428.222-.557.375-.557.113 0 .153.1.3.394l.157.344 1.13 2.65.542 1.308.535 1.298c.24.604.372.755.478.83.154.097.34.097.4.097.155 0 .18.085.18.135 0 .088-.076.133-.225.133zm4.996.063l-.04-.016-.382-.045c.001 0-2.092-.008-2.092-.008l-.12.004-.912.023c-.054 0-.218 0-.218-.143 0-.072.06-.124.144-.124l.296-.024c.248-.054.32-.153.338-.46l.02-1.972v-1.6l-.047-1.976c-.037-.273-.08-.417-.2-.444-.001-.001-.26-.035-.26-.035-.097 0-.142-.065-.142-.125 0-.142.163-.142.216-.142l.746.022.15.006.35-.012 1.912-.042c.362 0 .484 0 .56.288a8.9 8.9 0 0 1 .12.906c0 .067 0 .206-.125.206-.114 0-.136-.117-.15-.193-.06-.354-.16-.52-.37-.6-.227-.095-.62-.095-.853-.095-.886 0-.968.112-1 .684l-.002 1.158.002.403v.804c0-.004 1.296-.05 1.296-.05.347-.035.392-.188.416-.27l.033-.283c0-.1.053-.15.134-.15.133 0 .133.163.133.24l.038.58a661.12 661.12 0 0 0 .073.52c0 .133-.1.143-.116.143l-.17-.12c-.084-.092-.2-.1-.406-.127l-1.446-.02.014 2.548c-.014.02 1.23-.005 1.23-.005.5-.054.548-.164.595-.27 0-.001.048-.302.048-.302 0-.17.1-.188.144-.188s.107.02.13.16a75.74 75.74 0 0 0 .036.433l.012.175.073.436c0 .138-.074.153-.106.153zm3.192-.06l-.306-.01-.12.004-.914.024c-.053 0-.215 0-.215-.143 0-.072.06-.125.143-.125l.293-.024c.25-.054.323-.153.34-.46l.02-1.972v-1.612l-.047-1.976c-.036-.266-.08-.417-.2-.444-.001 0-.26-.035-.26-.035-.098 0-.142-.062-.142-.125 0-.142.163-.142.216-.142l.824.026c.036.002.145-.002.145-.002l1.015-.024c.198 0 .22.1.22.142 0 .06-.045.125-.145.125l-.4.036c-.217.03-.27.172-.297.442-.046.38-.046 1.12-.046 1.977v.22c-.005.003 1.12-.013 1.12-.013l.072-.037.315-.433.673-.913.124-.162c.457-.603.76-1 1.135-1.2.252-.138.497-.183 1-.183h.65c.115 0 .3 0 .3.142 0 .07-.07.125-.153.125l-.346.027c-.238.037-.6.145-1.076.637-.48.5-1.038 1.23-1.686 2.063l-.176.228c.735.696 1.085 1.37 1.085 2.117 0 .65-.415 1.125-.66 1.303-.5.365-1.153.415-1.714.415zm.142-3.552c-.03.02-.03.036-.03.053v3c0 .025.008.036.028.045.07.02.304.052.6.052.948 0 1.513-.66 1.513-1.762 0-.622-.197-1.126-.528-1.35-.203-.144-.452-.162-.646-.162-.433 0-.817.07-.925.134"/><path d="M1040.53 386.017c0-.624.207-1.2 1.215-2.04l.4-.34c.807-.664 1.028-1.007 1.028-1.594 0-.57-.425-1.146-1.238-1.146-.333 0-1.126.085-1.288.877l-.024.324c0 .05 0 .17-.134.17-.12 0-.135-.135-.144-.207 0-.003-.007-.1-.007-.1l-.04-.888c0-.246.008-.327.176-.4h.001c.353-.173.766-.256 1.258-.256.557 0 1.048.138 1.42.4.596.424.808 1.092.808 1.576 0 .717-.224 1.307-1.364 2.205l-.254.2c-.877.717-1.1 1.008-1.1 1.483 0 .593.424.992 1.055.992.757 0 1-.315 1.083-.45.048-.1.103-.328.112-.43.007-.065.022-.182.14-.182.135 0 .135.182.135.28l.03.9.004.07c0 .133-.12.133-.158.133l-.306.044c-.262.063-.538.093-.867.093-1.174 0-1.963-.7-1.963-1.716m6.142 1.568l-.152-.006-.14.005-.783.023c-.144 0-.217-.048-.217-.143 0-.07.06-.125.143-.125l.265-.032c.125-.03.24-.104.26-.45l.017-1.972v-1.6l-.045-1.976c-.038-.274-.08-.418-.2-.444-.002-.001-.26-.035-.26-.035-.097 0-.142-.065-.142-.125 0-.142.162-.142.215-.142l.75.022.146.005.1-.004 1.02-.023c.193 0 .213.1.213.142 0 .062-.043.125-.142.125l-.4.035c-.217.03-.27.173-.297.442-.047.38-.047 1.12-.047 1.978v1.6l.02 1.97c.016.3.085.422.282.46l.214.024c.083 0 .144.053.144.125 0 .143-.164.143-.218.143zm2.045-.07c-.005-.017-.207-.866-.207-.976s.063-.15.115-.15c.093 0 .133.072.158.136l.15.27c.127.192.323.25.874.26l1.284.017v-3.8l-.045-1.975c-.036-.267-.08-.418-.2-.445-.002 0-.26-.035-.26-.035-.098 0-.142-.062-.142-.125 0-.14.162-.14.216-.14l.746.02.15.006.108-.004 1.016-.023c.2 0 .217.088.217.14 0 .06-.045.125-.142.125l-.403.036c-.216.03-.27.172-.297.442-.046.38-.046 1.12-.046 1.977v3.8l1.082-.017c.882-.02 1.03-.235 1.06-.444 0-.001.008-.097.008-.097.006-.086.015-.22.144-.22.022 0 .133.01.133.188l.008.293.018.713c0 .054 0 .18-.115.18l-.1-.017c-.128-.026-.37-.075-.796-.075h-3.43l-.718.045c-.002 0-.295.077-.295.077l-.113.033c-.08 0-.117-.095-.157-.22"/><path d="M1060.614 387.586l-.24-.008-.146.007-.458.02c-.188 0-.217-.077-.217-.123 0-.095.1-.125.178-.155.04-.01.107-.028.107-.193 0-.13-.05-.275-.147-.43l-1.464-2.583-1.617 2.782c-.07.13-.1.23-.1.323 0 .04.027.075.08.104.002 0 .047.017.047.017.06.024.13.05.13.126 0 .1-.063.133-.188.133l-.645-.02-.125-.006-.214.007-.7.02c-.182 0-.2-.1-.2-.133 0-.08.066-.134.16-.134.064 0 .227-.048.355-.135.18-.12.406-.367.602-.658l1.606-2.624c.12-.27.206-.458.206-.934v-.787l-.028-.908c-.013-.182-.062-.407-.228-.44-.002-.001-.26-.035-.26-.035-.098 0-.144-.062-.144-.125 0-.14.162-.14.216-.14l.75.022.148.005.108-.004 1.016-.023c.196 0 .217.1.217.14 0 .06-.044.125-.143.125l-.402.036c-.203.028-.295.155-.316.44l-.026.908V383c0 .295 0 .573.13.888.157.375 1.43 2.52 1.737 2.894.204.25.3.35.47.45a.77.77 0 0 0 .383.12c.14 0 .2.077.2.144 0 .057-.05.123-.2.123zm3.916-3.5c0-1.767 1.133-3.67 3.62-3.67 2.155 0 3.72 1.605 3.72 3.815 0 2.094-1.473 3.5-3.666 3.5-2.677 0-3.675-2.236-3.675-3.646m1 .255c0 1.815.996 2.94 2.6 2.94 1.307 0 2.713-1.035 2.713-3.308 0-2.92-2.046-3.068-2.456-3.068-1.68 0-2.857 1.413-2.857 3.435m11.095 3.304l-.05-.025c-.001 0-.278-.028-.278-.028l-.107-.005c.001 0-2.247-.008-2.247-.008l-.12.004-.913.023c-.054 0-.217 0-.217-.143 0-.072.06-.125.144-.125l.294-.023c.25-.054.323-.153.34-.46l.02-1.973v-1.6l-.045-1.976c-.04-.273-.082-.417-.2-.444-.002-.001-.26-.035-.26-.035-.1 0-.143-.062-.143-.125 0-.142.164-.142.217-.142l.745.022.15.006.1-.005 1.016-.023c.195 0 .217.1.217.142 0 .063-.045.125-.144.125l-.4.035c-.218.03-.27.173-.297.442-.047.38-.047 1.12-.047 1.978v.78l1.368-.014c.242-.03.376-.168.42-.285l.043-.26.006-.054c0-.08.055-.143.133-.143.134 0 .134.16.134.244l.036.605c0 .001.074.52.074.52 0 .132-.087.143-.114.143-.067 0-.106-.052-.14-.1-.078-.108-.16-.138-.386-.157l-.407-.01-1.172-.01.006 2.538c.01.03 1.42.004 1.42.004.33-.008.517-.156.563-.253 0-.001.075-.32.075-.32 0-.17.112-.178.134-.178.048 0 .113.026.14.156a283.81 283.81 0 0 0 .037.454l.01.158.054.312.02.122c0 .1-.05.153-.124.153zm-97.89-12.956h97.6v.557h-97.6zm9.835-5.308l-3.812-8.002-3.825 7.903c-.177.355-.27.457-.413.457-.094 0-.217-.068-.275-.396l-1.4-9.213c-.076-.52-.195-1-.552-1.087-.001 0-.416-.042-.416-.042-.065 0-.262 0-.262-.133 0-.2.2-.2.3-.2l.87.025.53.017.452-.015 1.03-.027c.18 0 .374.014.374.2 0 .084-.1.133-.247.133l-.586.07c-.266.062-.396.2-.396.417l.042.66.726 5.555c.116-.2.686-1.403.686-1.403l.782-1.675c.167-.4 1.266-2.52 1.626-3.2l.04-.078c.215-.404.344-.647.484-.647.153 0 .227.14.554.8.001 0 3.08 6.414 3.08 6.415 0-.057.838-6.206.838-6.206.018-.124.025-.226.025-.307 0-.17-.033-.25-.072-.263-.095-.04-.18-.1-.18-.2 0-.127.148-.164.44-.2l2.87-.084c.26 0 .403.067.403.2s-.177.133-.262.133c-.193 0-.466.016-.866.14-.415.125-.546.55-.667 1.4l-1.286 8.73c-.045.315-.14.468-.288.468s-.23-.135-.343-.358m11.053.143l-.084-.025-.604-.084-3.528-.014-.724.022-.165.007-1.145.014c-.168 0-.346-.013-.346-.162 0-.162.186-.162.275-.162l.542-.04c.462-.1.555-.328.58-.775l.03-2.993V362.8l-.07-3.005c-.064-.457-.14-.7-.383-.748l-.502-.056c-.112 0-.26-.015-.26-.147 0-.117.106-.177.316-.177l.977.03.804.014 1.468-.043.4-.01 2.036-.033c.544 0 .7 0 .796.393a10.92 10.92 0 0 1 .186 1.578c0 .142 0 .3-.148.3-.136 0-.165-.1-.2-.24-.1-.584-.267-.86-.616-1.02-.36-.166-.958-.166-1.314-.166-1.467 0-1.634.234-1.66 1.153l-.003 1.606.003.583v1.116c0 .106.025.106.05.106l2-.042c.448-.047.683-.2.762-.524 0-.001.045-.372.045-.372l.01-.133c-.001-.1.058-.158.162-.158.16 0 .16.2.16.304l.056.945.113 1.033c0 .094-.048.147-.133.147s-.142-.07-.234-.173c-.138-.155-.34-.195-.674-.222-.2-.02-1-.03-2.257-.03-.044 0-.064.012-.064.122v3.574c0 .106.034.106.064.106l2.002-.056c.7-.085.828-.256.918-.486a1.51 1.51 0 0 0 .082-.496c0-.07 0-.234.163-.234.137 0 .165.134.176.184 0 .001.05.648.05.648l.02.288a1732.67 1732.67 0 0 0 .094.782l.02.14c0 .04 0 .162-.12.162zm5.447-.107l-.748-.018-.717.017-1.22.026c-.167 0-.346-.013-.346-.162 0-.162.186-.162.275-.162l.46-.04c.46-.098.554-.328.58-.774s.028-.84.028-2.993V362.8l-.07-3.005c-.063-.457-.14-.7-.382-.748-.001 0-.502-.055-.502-.055-.1 0-.26-.015-.26-.148 0-.176.238-.176.317-.176l.975.028.805.014 2.206-.054 1.905-.03c.743 0 .832.07.924.407.115.416.213 1.47.213 1.634 0 .135 0 .275-.147.275-.164 0-.18-.158-.2-.244-.028-.264-.196-.65-.36-.827-.332-.358-.837-.384-1.627-.384-1.13 0-1.465.106-1.687.3-.285.245-.285 1.228-.285 3.012v2.487l.03 2.993c.03.515.154.7.494.774a1327.27 1327.27 0 0 1 .545.041c.15 0 .3.02.3.162s-.16.162-.332.162zm9.1-9.895c-.432.175-.473.392-.473 1.324v3.35c0 .06.02.063.05.063l.606-.014c.534-.027.858-.12 1.153-.332h.002c1.223-.854 1.355-2.232 1.355-2.784 0-1.688-1.395-1.773-1.674-1.773-.322 0-.64.012-1.02.167m.085 9.272c1.262 0 1.732-1.322 1.732-2.156 0-.662-.197-1.17-.566-1.47-.246-.217-.576-.26-.995-.26l-.657.042c-.042.01-.072.025-.072.122v3.5c0 .15.026.186.1.207.001 0 .457.027.457.027m-.465.63l-1.018-.024-.544.014-1.377.028c-.167 0-.346-.01-.346-.16 0-.162.185-.162.275-.162l.542-.04c.46-.1.556-.328.58-.774.028-.452.028-.84.028-2.994v-2.5l-.07-3.006c-.053-.377-.117-.693-.382-.747-.001 0-.503-.055-.503-.055-.1 0-.26-.016-.26-.15 0-.176.237-.176.316-.176l.975.03.805.014 1.058-.043.55-.024.44-.018c2.63 0 3.807 1.565 3.807 3.115 0 1.598-1.302 2.624-2.54 3.064.847.685 1.4 1.372 1.4 2.46 0 .505-.22 2.153-3.044 2.153z"/><path d="M1022.12 364.5c0 3.817 2.156 4.387 3.442 4.387 2.417 0 4.105-2.095 4.105-5.093 0-4.088-2.27-4.53-3.244-4.53-2.533 0-4.303 2.152-4.303 5.235m-2.02-.44c0-2.684 1.793-5.573 5.73-5.573 3.463 0 5.883 2.397 5.883 5.828 0 3.28-2.2 5.32-5.743 5.32-4.033 0-5.87-2.9-5.87-5.574m22.455 5.348l-.408-.012-1.624.042c-.16 0-.33-.012-.33-.162 0-.162.185-.162.275-.162l.5-.04c.462-.098.555-.328.58-.774s.028-.84.028-2.993v-1.766c0-1.513-.06-2.73-.8-3.48-.68-.68-1.573-.752-1.924-.752-.5 0-1.13.064-1.744.57-.567.462-1.1 1.2-1.1 3.448v1.98l.028 2.993c.03.515.154.7.495.773l.403.042c.078 0 .26 0 .26.162 0 .15-.18.162-.345.162l-1.74-.042-.755.017-1.308.025c-.167 0-.344-.012-.344-.162 0-.162.185-.162.274-.162l.542-.04c.462-.098.556-.328.58-.774.03-.45.03-.84.03-2.993v-2.063c0-1.8.403-3 1.27-3.77 1.088-.984 2.54-.984 3.16-.984.822 0 1.904.117 2.962 1.026 1.2 1.02 1.354 2.66 1.354 4.28v1.512l.028 2.993c.03.515.154.7.494.773.001 0 .404.042.404.042.15 0 .288.02.288.162 0 .15-.17.162-.33.162zm6.06-5.44c-.077.034-.103.07-.103.222v4.294c0 .105.023.142.1.165.127.038.355.056.74.056.8 0 2.128-.538 2.128-2.55 0-1.297-.514-1.867-.82-2.092-.242-.174-.42-.233-.983-.233-.403 0-.8.052-1.062.14m.052 5.45l-1.038-.023-.566.015-1.37.028c-.167 0-.345-.012-.345-.162 0-.162.185-.162.275-.162l.542-.04c.462-.098.555-.327.58-.774l.028-2.994v-2.486l-.07-3.005c-.052-.377-.116-.694-.382-.747l-.502-.056c-.1 0-.26-.015-.26-.15 0-.175.24-.175.318-.175l1.15.027.574.015.456-.01 1.62-.03c.08 0 .317 0 .317.175 0 .046-.02.15-.204.15l-.687.057c-.38.05-.476.3-.52.746-.07.6-.07 1.717-.07 3.02v.197c0 .06.02.078.078.078l1.228-.027c.097 0 .168-.016.228-.087.001-.001.677-.934.677-.934l.72-1.014c.825-1.136 1.353-1.77 1.947-2.087.383-.207.755-.273 1.53-.273h1.34c.1 0 .304 0 .304.175 0 .046-.02.15-.204.15l-.4.042c-.228.046-.798.16-1.563.95-.72.756-1.535 1.786-2.57 3.1l-.475.6c1.297 1.06 1.853 2.008 1.853 3.168 0 1.03-.638 1.736-.976 1.965-.8.54-1.767.613-2.62.613zm9.592-.257l-.127-8.364c-.014-1.218-.072-1.614-.413-1.72-.2-.06-.482-.07-.626-.07-.07 0-.26 0-.26-.148 0-.177.2-.177.345-.177l1.3.034.238.01.393-.012 1.36-.03c.116 0 .36 0 .36.177 0 .148-.193.148-.275.148-.208 0-.48.01-.723.097-.305.106-.446.566-.47 1.536l-.154 5.87c.08-.068.286-.293.286-.293l3.058-3.228 1.875-1.877 2.294-2.278c.162-.16.334-.32.504-.32.193 0 .218.24.218.472l.156 8.915c.014.8.13 1.063.497 1.168a585.4 585.4 0 0 0 .414.041c.192 0 .3.055.3.162 0 .162-.217.162-.36.162l-1.127-.032-.26-.01-.498.015-1.2.028c-.17 0-.402 0-.402-.162 0-.143.14-.162.26-.162.198 0 .53 0 .736-.083.298-.124.443-.342.458-1.24l.14-6.3h-.034c0 .015-1 1.044-1 1.044l-6.472 6.702-.132.143c-.167.185-.277.306-.416.306-.197 0-.22-.294-.22-.515m17.727.356l-.082-.024c-.002 0-.605-.084-.605-.084l-3.528-.015-.722.023-.167.006-1.146.014c-.166 0-.345-.013-.345-.162 0-.162.186-.162.275-.162l.543-.04c.46-.098.554-.328.58-.774s.03-.84.03-2.993V362.8l-.07-3.005c-.052-.377-.117-.694-.382-.747l-.503-.056c-.1 0-.26-.015-.26-.148 0-.176.24-.176.318-.176l.974.028.806.014 1.468-.042.4-.01 2.035-.032c.53 0 .7 0 .797.393a10.96 10.96 0 0 1 .185 1.578c0 .14 0 .3-.148.3-.136 0-.165-.1-.2-.24-.1-.583-.267-.86-.617-1.02-.36-.166-.958-.166-1.314-.166-1.467 0-1.633.234-1.66 1.153l-.002 1.606.002.583v1.116c0 .107.025.107.05.107l2.003-.042c.447-.05.682-.2.76-.525l.046-.376.01-.128c0-.1.057-.16.162-.16.162 0 .162.2.162.304l.026.458.03.487.095.88.018.154c0 .094-.05.148-.134.148s-.142-.07-.234-.175c-.138-.153-.342-.193-.674-.22-.208-.02-1-.03-2.257-.03-.046 0-.064.01-.064.12v3.575c0 .106.035.106.064.106l2.002-.056c.7-.085.828-.256.918-.487.08-.2.083-.466.083-.496 0-.07 0-.233.162-.233.14 0 .166.138.175.184a140.46 140.46 0 0 1 .052.646l.02.3a1732.67 1732.67 0 0 0 .094.782l.02.14c0 .108-.04.162-.12.162zm-48.85 25.948c-2.36 2.36-5.278 3.608-8.1 4.814l-.225.096-1.503.562-.364.142-.26.118-.01-.03c-9.243 3.27-14.896 10.88-15.14 20.4a31.88 31.88 0 0 0-.022 1.224c0 1.43.085 2.932.253 4.465l.412 3.093.818 4.863.155.866.072.296-.054.004a32.11 32.11 0 0 1 .098 2.324c0 3.354-.85 5.47-2.756 6.87l-.015.01-.248.25 4.1 5.358-.118.156c-.32.427-.508.872-.555 1.324l-.063.607.576-.204a16.45 16.45 0 0 1 1.13-.356l.167-.046 4.088 5.327.187-.314c.766-1.3 2.136-1.918 4.188-1.918.84 0 1.804.1 3.034.32l4.074.628 3.668.423a26.33 26.33 0 0 0 2.549.117c1.763 0 3.674-.15 5.678-.442l2.894-.43 3.56-.6c.52-.05 1.118-.1 1.723-.1 1.595 0 2.7.354 3.506 1.112.177.157.32.34.46.52l.397.5 3.763-4.95.18.068 2.5.918.74.268c1.38.502 2.502.842 3.43 1.038l.732.155-.3-.686c-.255-.584-.485-1.026-.724-1.392l-.446-.683.757.304c.016.006.55.22 1.006.402l-.48-.922c-.257-.492-1.248-2.054-2.166-2.732l-.202-.15.143-.205c.007-.01.014-.02.02-.03.095-.15.15-.388.15-.65 0-.248-.048-.495-.13-.663a2.91 2.91 0 0 0-.562-.807l-.156-.16 1.012-1.33-.198-.148c-1.943-1.46-2.887-3.715-2.887-6.888l.001-.106a14.18 14.18 0 0 1-.008-.513 19.68 19.68 0 0 1 .152-2.366l.494-3.104.533-3.2.363-3.454.13-3.22.005-.37c0-5.14-1.725-10.343-4.5-13.582l-.055-.068c-1.805-2.197-4.278-5.2-11.027-7.585-3.786-1.377-7.154-2.726-10.044-5.293l-.012-.01-.108-.122-.1-.098-.208-.232z"/></g><g fill="#033f85"><path d="M1019.858 448.008c-1.535.82-3.73.746-4.975 1.07l-1.425.407 1.474-.292c1.68-.21 3.533-.293 4.938-.888.795-.337 1.22-1.143 1.415-1.998-.327.662-.79 1.363-1.427 1.702m13.764-19.434c1.27-1.593 1.36-1.598 2.467-2.705-.602.293-1.902 1.506-2.61 2.383-1.086 1.346-1.59 2.528-1.775 3.78 0 0 .648-1.866 1.92-3.458m-8.534 14.46c-1.026.163-1.914-.297-2.703-1.34-1.032-.318-1.656-.7-2.458-1.516-.57.195-1.222.555-1.414.674.12.297.33.536.613.66-.26.164-.713.387-.632.68.154.553.87.228 1.662.55-.318.155-.693.395-.54.847s.855.382 1.417.243c-.31.302-.38.812-.047 1.03s1.057.14 1.057.14c.016.386.302.66.514.963-.337-.08-.533-.502-.644-.758-1.035.087-1.503-.42-1.267-1.07-.497.098-1.006.01-1.202-.412-1.265.753-3.153 1.297-4.495 1.374l-.463.032c-.148.163-.29.57-.334.735-.15.57-.428 1.375-1.018 1.66 1.236-.168 4.56-.808 6.638-1.672-1.524 1.126-5.644 1.69-8.155 2.277-1.877.44-4.44 1.244-6.033 2.37-.902.637-1.424 1.38-1.51 2.2 1.143-.406 2.12-.618 3.43-.884l2.87-.57 2.894-.76c2.675-.77 5.67-.273 8.295-1.168 1.18-.454 1.122-1.9 1.297-2.98l.282-.28c0-1.516.728-2.12 1.944-3.034m9.487-14.526c1.305-1.597 2.523-2.438 2.778-2.616 0 0-1.785 1.672-2.143 2.323 3.013-2.345 5.364-3.276 6.485-4.076-.416.095-.93.143-1.183-.194s-.06-.856-.218-1.353c-.087-.375-.342-.438-.47-.438-.225 1.41-1.346 1.632-1.346 1.632.282-.335.64-.66.722-1.166-1.052.186-3.038 1.4-3.037 1.418-1.04-.058-2.305.065-2.968.496-.756.494.82.575.174 1.09-.284.228-.614-.02-.855.342-.163.244.44.774.18 1.287-.164.324-.48.315-.753.054-.277-.26-.436-1.292-1.242-1.088-.472.12-.326.92-.83 1.294-.33.245-.785.246-1.06-.04-.337-.35-.26-.828-.26-.828-.956 1.904-.032 5.947-.032 5.947-1.012-2.63-1.003-4.9-.228-6.283a2.11 2.11 0 0 0-.754.749c-.217.5-.533 1.172-.452 1.84-.602-1.06.56-2.982.098-2.972-.383.008-.377.756-.855 1.01-.492.26-.672-.176-.87-.008-.222.188.822.93-.1 1.45-.494.282-.715-.244-1.12-.014s-.926.128-.926.128c-.175.926.986 5.098.986 5.098.694-.348 1.668.217 1.668.217.522-.98 1.567-.18 2.024.202.346.29.456.533.86.713.44.195.953-.082 1.402.114.483.2.595.5.595.5.624-.547 1.366-2.53 1.664-3.208 1.02-2.318 2.056-3.62 2.056-3.62m7.23-5.095c.084-.467-.52-.785-.983-.852l-.146-.013c.015.44-.073 1.275.383 1.358s.66-.138.746-.493m-10.87 12.4c-.29-.016-.105-.14-.73-.62-.127-.096-.58-.16-.965-.12.107.198.27.374.052.814-.222.454-.568.567-.73.57.254-.186.453-.42.57-.69.094-.22.023-.477-.17-.67-.204-.048-.445-.18-.616-.336.153.577-.355 1.428-.777 1.548.376-.503.703-.854.497-1.725-.13-.293-1.297-1.095-1.65-.803-.567.502-.103.904-.313 1.464-.047.097-.08.236-.162.202.16-.543-.077-.78-.033-1.343-.39-.14-.6-.217-.878-.163-.13.16-.228.423-.143.84s.41.965.765 1.4c0 0-.18-.062-.35-.218-.506-.468-.767-1.078-.73-1.51.017-.2.04-.37.188-.52-.105-.003-.64.026-.795.344-.306.625.142 1.203.476 1.62.274.34.726.544.726.544.704.336 1.725.205 2.436.313s1.31-.003 1.903-.2.977-.43 1.426-.75m-12.4 6.745c-.35-.195-.26-.468-.182-.65.112-.257.4-.397.4-.397-.164-.1-.358-.297-.505-.51-.374.2-.902.5-1.362.643-.858.5-1.677.798-2.568.737-.258-.018-.824-.22-1.01-.295-.605.105-1.515.623-1.758.913 1.113-.153 1.835-.115 2.48-.07a11.14 11.14 0 0 1 1.823.268c.912-.36 1.563-.653 2.68-.64m32.362 1.728c-.825-2.623-3.16-2.292-3.993-1.763a2.15 2.15 0 0 1 1.224.991c1.172-.095 1.955.12 2.77.772m-3.075-.714c-.076-.325-.718-.814-1.393-.915-.018-.004-.092.517-.817.468-.407-.027-.405-.084-.693-.15.128.177.1.44-.02.632-.033.048-.116.126-.182.126-.19 0-.4-.063-.63-.215s-.49-.114-.684-.187c-.34-.128-.574-.328-.83-.726-.073-.055-.176-.03-.342-.018-.156.068-2.884-.333-2.884-.333-.5.033-1.2-.017-2.1.255 0 0 .737.367.347 1.017l5.127 1.21 2.723.908c-.086-.337.24-.93.82-1.387.402-.315 1.223-.62 1.56-.685m-28.437-.084c-.01-.178.023-.455.353-.67-.22-.028-.7-.023-.97-.112-1.614.09-3.233.575-4.148 2.127.407.001.78.027 1.395-.105.88-.19 2.202-.58 3.37-1.24m-5.02 1.323c.13-.174.37-.766 1.254-1.4-.494-.134-1.026-.187-1.795-.227-1.043-.055-1.984.055-1.984.055-1.542.125-3.507 1.98-3.996 2.7 1.04-.546 2.42-.98 3.5-1.1s2.123-.152 3.022-.02m16.487 2.21c.08.015.146.064.243.046.11-.368-.295-.483-.53-.543-.176-.018-.272.128-.336.255 0 .11.002.253-.078.342.002.05.022.098.078.138.146-.207.368-.32.624-.238m22.346-.346c-.93-1.297-2.64-2.383-3.303-2.668-.48-.206-1.108-.362-2.14-.12-.54.125-1.045.356-1.398.64-.693.554-.654.932-.642 1.127.01.133.24.427.473.35 2.552-.648 6.164.13 7.01.67M1012 447.8c1.846-.323 1.755-2 2.21-2.703-1.558-.085-2.245-.14-3.442.136-4.235.978-5.04 2.972-6.18 5.656 2.05-1.853 6.546-2.938 7.4-3.09m19.18.327c-.03-.128.05-.097.16-.225 0-.24-.16-.432-.35-.543-.177-.097-.448-.16-.625-.017-.097.062-.334.128-.334.128 0 .417.496.625.816.768.14.065.288.032.333-.11m-2.54.115c.418-.13 1.172-.883 1.365-1.268.064-.305-.064-.593-.256-.817a.82.82 0 0 1-.432-.431.64.64 0 0 1-.13.511c-.176.113-.364.31-.443.52-.666-.013-1.647-.035-2.006.293-.008.13-.057.244-.187.4.21.025.99-.043 1.41-.057s1-.008 1.112-.178c0-.08-.078-.08-.127-.096s-.11.017-.143-.015c.128-.21.383-.255.608-.192.13.064.194.192.112.352-.123.243-.414.286-.784.337s-2.3.08-2.3.08c-.205.225-.66.55-.954.697-.033.143.14.268.232.22.786-.275 2.07-.245 2.932-.355m19.45-.3c-.086-.4-.66-.856-1.1-1.11-.502-.285-1.22-.458-1.46-.838-.323-.287-3.112-1.09-4.427-1.42l-3.65-.823c-.237.193-.596.18-.823.14.326.673.2 1.13-.387 1.303l6.38 2.3c1.174.34 2.646.756 3.628.787.64-.153 1.078-.336 1.85-.336m-17.394.676c0-.128-.042-.17-.103-.264s-.197-.237-.457-.17c-.03.226.098.465.305.593.11.033.255-.033.255-.16m-.667.285c.042-.15.01-.56-.282-.714-.545-.254-.877.3-1.325.44-.834.13-1.832-.015-2.63.193.215.308.573.637 1.005.783.51.16 1.49.377 2.186.162.678-.21.966-.585 1.047-.863m14.483.153c.518-.173 1.308-.535.942-.646-2.818-.472-4.668-1.26-9.53-3.122-.166.007-.37-.024-.532-.087a.84.84 0 0 1-.25.826c-.228.228-.603.342-1.183.13 1.425.93 2.887 1.863 4.495 2.454 1.284.473 2.666.7 4.16.728.912.016 1.445-.13 1.9-.283m9.62-.972a2.66 2.66 0 0 0-.811-.991c-.926-.78-5.336-1.417-7.022-.855 1.79.722 1.975 1.322 2.084 1.778 1.34.05 3.35.204 5.6 1.182.26.066.31-.783.15-1.114m-26.813 1.938c-.613-.078-1.395-.225-1.86-1.06-.218.177-.144.535.1.853.178.23.815.48 1.762.208m29.003 2.5c-.275-.718-1.222-2.365-2.257-2.89-1.423-.8-3.44-1.137-4.978-1.31-1.234-.178-2.196.06-2.642.2 0 0-.46.146-.613.263 2.307 1.242 5.122 2.082 8.063 2.872l2.427.862m-.124 2.267c-.833-1.913-1.36-2.467-2.64-2.915l-5.19-1.673c-1.227-.47-2.186-.98-2.812-1.34-2.2 1.34-6.244.34-7.225-.028-1.582-.594-3.204-1.563-4.55-2.522-.2.197-.47.518-.695.534 0 0 .687-.416.563-1.14.174.048.85.56 1.312.153s-.01-.894-.172-1.278c.497.384 1.03.685 1.57.33.602-.394-.076-1.118-.277-1.457.447.08.907.42 1.225-.042s-.16-.702-.6-.957c.432.03.463-.306 1.7-.38l-1.556-.153c-.28.062-.61.22-1.16.374-1.43.4-2.28.844-2.844 1.027s-1.223.24-1.646.11c-.228-.005-.23-.096-.425-.11 1.892.673 1.326 2.947 2.224 4.324.912 1.715 2.82 2.124 4.516 2.43l6.693.85c1.847.38 4.148 1.132 4.612 1.35.566.266 3.048 1.144 4.006 1.493s2.242.783 3.378 1.023m-2.26-9.05c-1.896-1.512-2.48-3.802-2.595-4.497-.315-2.014-.382-4.275-.017-6.255l1.008-6.256.294-2.74.12-3.2c.2-7.39-3.348-17.295-15.484-21.275l-2.936-1.137c-2.476-1.1-4.902-2.28-7.014-4.192-2.94 2.624-6.404 4.058-9.903 5.397-11.14 3.527-15.046 12.935-15.25 19.408a41.51 41.51 0 0 0 .248 6.683l.464 3.302.774 4.472c.346 2.526.365 5.332-.478 7.64-.412 1.055-1.173 2.014-2.096 2.838l3.248 4.274.052-.116.027-.063a6.37 6.37 0 0 1 .532-1.127c.078-.15.16-.3.252-.453l-1.767-2.366c2.18-2.458 2.294-5.94 2.194-9.2l-.263-2.03-.96-5.794-.377-3.3-.117-3.038c-.375-7.417 5.273-16.916 15.662-20.036 2.706-1.087 5.33-2.342 7.757-4.126 2.426 1.767 5.083 3.003 7.807 4.063 12.023 3.385 15.662 12.657 15.808 18.78.135 2.262-.065 4.5-.296 6.65l-.46 3.07-.628 3.828c-.377 2.126-.3 4.716.08 6.777.646.284 1.338.912 1.76 2.255l.06.197c.702.485 1.566 1.27 2.138 2.046.083-.034.176-.185.354-.473m-24.744-7.24c-.203-.378-.454-.672-1.26-.708-1.027-.047-1.266.558-1.266.558.064-.316.286-.98 1.273-.935 1.258.056 1.253 1.085 1.253 1.085m1.393 4.167c-1.24-1.178.226-4.158-.613-5.372-.09-.13-.188-.293-.253-.423-.668.22-1.07.238-1.637.244-.334.004-.733-.075-1.002-.098-.667-.057-1.164.01-1.775-.122.046.132.133.24.253.424-.57-.017-1.002.097-1.32.513-.203.284-.243.633-.138.92.162.442.63.855.823 1.263 0 0 .328.512.447 1.13a.83.83 0 0 1 .71-.667c.517-.12 1.083.074 2.002.537-.42-.667-1.017-1.084-2.134-1.265.385-.078 1.117.078 1.866.47.9.476 2.057 2.053 2.057 2.053.272.242.8.47.714.39m5.25-27.563c-2.89 3.086-5.763 7.754-6.145 7.897l4.21-6.328c.647-.918 1.53-1.788 1.945-2.527.128.216.326.6-.01.958m10.45-1.607c-.662.074-1.228.038-1.466-.588-.335-.77-.517-1.333-.78-1.778-.312-.53-.82-.99-1.678-1.23s-2.054-.294-2.2.22c.22 1.047 1.643 1.21 2.248 1.502 1.132.547 1.237 1.542 1.274 2.568-1.592 1.025-4.797 3.567-4.797 3.567s2.793-2.773 4.28-3.764c0-.872-.228-1.368-.92-1.75-.45-.25-.967-.436-1.605-.758-1.09-.62-.766-1.498-2.242-2.062-.62-.236-2.113-.44-1.722.367.558.84-.037.843-.037.843-.34-.1-1.247-.353-1.716-.37-.288-.012-.577.197-.326.43.092.085.236.154.39.27.226.174.356.287.453.46.154.277.277.65.11.746-.2.117-.506.036-.655-.125-.6-.677-.66-1.814-2.42-1.486 0 0-2.072.478-.4 2.81.472.626-.825 1.36-1.588 2.294-1.458 1.785-5.617 8.528-5.617 8.528-.432.623-.888 1.375-1.285 1.985s-.528 1.913.385 1.787c.433-.09.575-.286 1.058-.083.348.147.317-.374 0-.635-.2-.21-.2-.598.072-.807.356-.206.448.2.853.085s.692-1.092 1.414-1.3c.197-.047.322-.033.37.095.104.29-.23.7-.15 1.045.12-.218.428-.445.84-.673.503-.276.794-.344.662.078-.15.476-.222.802-.222.802-.05.358.27.635.513.635.142 0 .3-.125.39-.287.316-.577.165-.9.9-1.138 1.083-2.297 3.878-5.238 4.993-6.155a3.99 3.99 0 0 1 .978-.552c-.247.242-.643.59-.818.76-2.932 2.81-4.787 5.41-4.738 5.964.84.35.97 1.165 1.213 1.043.123-.074-.265-.74-.195-1.075.04-.196.236-.464.765-.457-.95-.946 1.466-1.742 3.258-1.7.647-.403 1.775-1.084 3.127-1.393 0 0 .132-.646.554-.668 0 0 1-1.532 2.344-2.985s2.883-3.814 4.148-5.063m-15.954 29.697c-.832-.6-.987-1.13-2.355-1.827-.757-.386-1.5-.703-1.984-.462-.496.27-.342 1.166-.344 1.283-.002.1.01.245.016.32.37.185.9.07 1.05.528.125.383.094.816.175 1.217.158.336.64.498.735.864-.623-.4-1.12-1.008-1.9-.975-.24.062-.08.37-.207.51-.155.062-.152.183-.176.296a1 1 0 0 1 .117-.01c.037 0 .066.028.066.066s-.03.067-.066.067a.81.81 0 0 0-.2.031c-.006.006-.008.01-.015.014-.014.13.05.305-.046.4l-.385.066c.032.4.306.752.32 1.183.065-.08.305-.062.192-.222-.064-.065-.047-.178-.014-.242-.02.19.673.438.302.57-.158.03-.607-.073-.64.17 0 .35.146.655.338.942.4-.336.944-.623 1.072-1.168.142-.16.29-.368.497-.368.448.176.67-.27 1.103-.24 0 .095.05.192.146.224.098.05.207 0 .272-.08.05-.207-.08-.335-.177-.464-.16-.127-.352-.16-.56-.19.35-.24.657.144.993.223.158.032.32-.032.383-.192.146-.817-.207-2 .817-2.403.144-.062.305-.08.464-.128m-5.968-19.075c.798-1.28.87-1.328 1.3-2.066s2.223-3.5 2.57-4.06 2.194-3.692 3.388-4.3c-.918-1-.478-2.237-1.993-2.48-.875-.14-3.33-.896-4.18.524s-1.234 3.692-.98 5.485c1.08-1.677 1.852-2.418 2.447-2.76-1.97 2.2-1.727 2.647-2.67 3.832-.38.478-.46 1.25-.507 1.835-.078.995-.062 2.002-.11 3-.027.54 0 1.112-.18 1.63-.07.198-.213.792-.256 1s-.02.477-.02.477.4-.836 1.188-2.114m-.344 15.34c-.182-.198-.293-.307-.39-.543-.218-.543 0-1.358.56-1.76.373-.267.498-.3.8-.388-.735-.198-1.55-1.256-1.553-1.816-.285.264-.36.782-.29 1.26-.202-.282-.65-.49-.924-.52-.095.24-.05.868.232 1.156-.11.2-.748.092-1.04-.117-.065.384.077.686.464.925-.105.217-.342.06-.868-.01.335.164.845.438 1.387.786l1.62 1.026m12.428-.213a6.04 6.04 0 0 1 1.956.16c.158-.27-.157-.73-.423-.63.113-.384.467-.88.403-1.328l-1.327.52c.24-.4.59-1.106.463-1.617-.402.303-1.246.33-1.583.585.16-.6.56-1.5.032-2.067-.494.353-.737.914-1.152 1.314.08-.577.21-1.473-.194-2.003-.255.322-1.353.746-1.32 1.13-.112.034-.407-1.177-.776-1.4-.366.51-.68 1.232-1.188 1.695.142.16.318.066.253.338-.145.348-.67.545-1.25.782.086.18.147.27.33.532.47.67.763 1.29.874 1.61.184.53.245.704.287 1.1.597-.077 1.01-.172 1.74-.255.76-.086 1.878-.33 2.873-.454m12.027 2.105c.033-.23-.433-.78-1.032-.915-.727-.163-1.313-.022-1.78.246.022-.517.88-.713 1.51-.594-.35-.48-1.416-.813-2.215-.782-.83.033-1.4.283-2.128.74-.076-.5.868-.923 1.542-.977-1.337-.736-2.834-.2-3.02-.152-.37.097-.912.325-1.2.62-.02-.388.506-.695.973-.804-.88-.413-2 .048-2.442.78 1.445.42 2.547.805 4.015 1.17 1.417-.236 2.773.358 3.303.977.206.24.344.535.353.612.132.042.322-.008.453-.04s1.54-.35 1.67-.88m-34.835.225c.144.128.646.24 1.12.174s1.323-.274 1.963-.724c1.297-.432 2.312-1.327 3.632-1.74.05.114-.128.2-.192.3.818.624 1.667 1.2 2.58 1.584.59.7 1.375 1.376 2.336 1.234l.218.023s.005-.22 0-.31c-.027-.5-.288-1-.57-1.684 0 0-.797-.295-1.184-.528l-3.075-1.81c-.784-.624-1.173.074-1.985.623-.946.497-1.922.977-2.74 1.746 0 .1.24.048.127.175-.464-.047-.8-.21-1.226-.337-.176-.08-.612-.227-.754.044l.203.054c.26.173.35.52.774.622-.307.297-.9.403-1.35.432zm31.04 1.697c-.046-.496-.623-.606-.816-1.006l-.27-.193c.24.016.494.16.657.37.4.127 1.656.388 1.712.143s-.06-.47-.432-.736-1.698-.833-2.675-.674c-.544.016-1.057-.143-1.57-.254l-2.628-.77c-.9-.24-1.975-.367-2.96-.13-1.457.272-2.898.658-4.436.562-.174-.008-.418-.144-.514-.353.16.033.4.11.562 0-.023-.2-.05-1.3-.474-1.715-.112.126-.17.33-.228.513s-.692 2.964.526 3.843c.728.236 1.68-.206 1.92-.337.94-.51 2.55-.78 3.796-1.264.544.065 1.072.24 1.632.306l3.764.496c.673-.127.77.737 1.36.8.385-.015.626.275.93.45.054.048.144.033.144-.05m-38.375 9.463l3.275 4.258c1.155-1.665 3.054-1.782 4.935-1.85l1.253.134 5.35.842 3.597.41c3.48.396 6.948-.148 10.25-.6l4.753-.777c2.015-.146 4.175-.098 5.546 1.405l.262.295 3.03-3.983a7 7 0 0 0-.294-.128l-1.246-.468-.158-.055-.05.012-1.543 2.032c-1.602-.908-3.6-1.04-5.53-.908l-2.775.43-3.43.56-3.663.43c-2.195.18-4.44.098-6.57-.15l-3.035-.428-5.05-.76c-1.948-.164-3.83.067-5.398.94l-1.568-2.038-.62.122-1.32.28m49.757.387c.255.4.495.86.744 1.43l.498 1.143-1.22-.258c-.94-.2-2.074-.542-3.465-1.048l-.74-.267-2.513-.92-3.846 5.06-.604-.76c-.138-.177-.27-.344-.434-.49-.746-.71-1.804-1.04-3.33-1.04-.597 0-1.192.05-1.682.096l-3.564.592c-.042.007-2.893.43-2.893.43-2.017.295-3.94.444-5.716.444-1 0-1.952-.048-2.83-.145v-.001l-3.428-.397c-.047-.008-4.073-.63-4.077-.63-1.215-.216-2.165-.317-2.99-.317-1.954 0-3.252.587-3.968 1.793l-.38.64-4.213-5.5c-.365.1-.728.214-1.112.35l-.958.34.105-1.013c.054-.527.272-1 .605-1.45l-4.13-5.382.42-.42.033-.025c1.834-1.344 2.652-3.398 2.652-6.66 0-.92-.063-1.853-.117-2.563h.008c-.03-.125-.072-.372-.16-.884l-.82-4.874-.413-3.096a41.46 41.46 0 0 1-.255-4.493 34.37 34.37 0 0 1 .022-1.231c.248-9.724 6.064-17.474 15.557-20.73v.006c.08-.036.2-.08.38-.15l1.492-.558.225-.095c2.8-1.198 5.695-2.436 8.02-4.76l.374-.377.388.432.1.098.1.114c2.856 2.536 6.2 3.875 9.96 5.242 6.816 2.4 9.315 5.442 11.14 7.666l.05.062c2.813 3.284 4.56 8.552 4.56 13.75l-.004.376c0 .006 0 .012-.132 3.234l-.365 3.47c-.001.007-.003.023-.534 3.196l-.493 3.094c-.1.827-.15 1.613-.15 2.335l.007.516-.001.104c0 3.087.91 5.272 2.785 6.682l.404.304-1.033 1.36a3.17 3.17 0 0 1 .61.875c.195.403.23 1.143-.033 1.56l-.027.04c.947.698 1.955 2.27 2.24 2.82l.803 1.536-1.65-.66m-2.363-7.018c-.054.07-.095.1-.137.108.042-.007.083-.037.137-.108"/><path d="M990.378 413.176l-.302-.001.076-.292c.7-2.782-.042-5.486-2.01-7.232l-.623-.55.818.143c.63.1 1.46.227 2.332.16 2.053-.13 3.5-.55 4.683-1.345l-1.236-6.113c-.02-.092-.03-.182-.03-.27 0-.4.192-.73.392-1.018l.01-.016.012-.013c.9-.947 2.047-1.262 3.155-1.568l.093-.025c4.84-1.13 9.95-.124 14.4 2.828l2.392 1.56 1.05.65 1.266.777c2.438 1.446 4.445 2.232 6.71 2.628 4.685.823 9.706-.174 13.43-2.67l.488-.284c-.012.006 3.14-2.06 3.14-2.06s1.957-1.24 1.957-1.24c4.33-2.72 9.937-3.527 14.636-2.106.795.265 2.436.812 2.67 2.252l.006.042-1.235 6.425a95.98 95.98 0 0 1 .171.125l-.053-.042c1.978 1.106 4.57 1.492 6.93 1.03l.855-.167-.655.574c-1.972 1.734-2.71 4.442-1.976 7.246l.076.292-.3.003c-3 .033-5.794-.382-8.31-1.234-1.25-.48-3.124-1.2-3.678-2.897l-.01-.034-.066-4.914-.013-1.937c-2.92.06-5.337 1.525-7.376 2.908.001-.001-.712.493-.712.493-.005.005-2.92 1.91-2.92 1.91-3.457 2.142-6.882 3.417-10.47 3.9-6.143.804-12.28-.695-17.75-4.336-.002 0-2.748-1.868-2.748-1.868-2.158-1.42-4.505-2.8-7.355-2.83l.033 6.505c-.017.98-.768 1.885-2.236 2.697-2.695 1.31-5.87 1.935-9.71 1.916"/></g><g fill="#fff"><path d="M999.4 406.1c.783.226 1.586.474 2.24 1.086l-.015-5.127c-1.703.048-3.622.28-5.063 1.575 0 .003-.06.082-.06.082-.16.205-.294.38-.294.593a.6.6 0 0 0 .057.248c.418.776 1.246 1.002 2.045 1.22l.65.192c-.002 0 .44.13.44.13m52.928.817c.782-.685 1.745-.972 2.685-1.236.825-.23 1.68-.472 2.384-.994.216-.193.318-.36.318-.535a.57.57 0 0 0-.058-.238c-.454-.864-1.513-1.293-2.27-1.54-1.004-.28-2-.424-3.06-.444v4.987"/><path d="M991.063 410.865c0 .546-.062 1.1-.167 1.658 2.92-.117 6.28-.455 9.198-2.03.728-.465 1.553-1.105 1.553-1.954l-.001-.066c-.137-1.087-1.235-1.42-2.204-1.7l-1.263-.387c-1.03-.287-2.085-.598-2.56-1.666-1.66.998-3.748 1.457-6.2 1.364 1.07 1.272 1.654 2.972 1.654 4.793m65.42-4.927l-.103.04-1.224.37c-.998.265-1.94.516-2.645 1.3-.13.186-.186.426-.186.664 0 .214.046.425.12.593.917 1.412 2.486 1.905 4.002 2.38l.4.127c1.863.507 3.93.777 6.306.833-.105-.6-.166-1.2-.166-1.755 0-1.836.555-3.45 1.6-4.697-2.412.095-4.507-.353-6.233-1.327-.282.85-1.155 1.2-1.872 1.473m-47.25-2.133l4.245 2.733c5.14 3.27 10.67 4.563 16.435 3.842 3.326-.43 6.497-1.56 9.693-3.45l2.73-1.7 2.794-1.82c2.68-1.822 5.943-2.55 9.185-2.048 1.3.288 2.77.63 3.755 1.817l1.12-5.798c-.156-.763-.993-1.137-1.665-1.438l-.17-.076c-4.87-1.617-10.78-.65-15.416 2.53 0 .001-4.212 2.766-4.212 2.766-4.378 2.825-9.616 3.84-14.75 2.86-2.518-.48-4.982-1.54-7.758-3.33l-3.885-2.52c-3.8-2.43-8.255-3.373-12.544-2.655-1.314.253-2.674.514-3.714 1.475-.2.23-.32.435-.347.662.004 0 1.012 5.032 1.157 5.75 1.414-1.558 3.456-1.898 5.47-2.007 2.607-.128 5.108.64 7.873 2.42"/></g><path d="M1016.63 404.538c-.09-.014-.564-.257-.668-.312l-.243 1.305.03-.03c.152-.198.877-.92.907-.95zm1.455-.415l-2.044 1.92-.182.185c-.015.03-.025.066.054.114.013.045-.025.125-.025.125-.048.015-.992-.483-.992-.483-.016-.045.026-.125.026-.125.146.025.155.005.16-.001s.046-.196.046-.196c.003-.012.452-2.862.452-2.862.008-.07.013-.134-.032-.162-.012-.045.03-.126.03-.126.048-.015.793.38.793.38l.03.015-.06.1c-.1-.014-.156-.006-.18.04 0 .001-.026.1-.026.1a79.54 79.54 0 0 1-.093.553c.013-.02.99.494 1 .5.001-.03.417-.417.417-.417s.064-.073.064-.073c.004-.022-.007-.037-.057-.072-.002-.06.03-.124.03-.124.048-.014.815.4.815.4.014.048-.03.127-.03.127-.1 0-.1 0-.196.082m39.167-6.277c-.043.025-.13 0-.13 0-.02-.1-.033-.127-.18-.165l-1.416-.365c.004.1-.16.738-.183.83l.757.195c.147.038.17.024.195-.026.04-.018.127.006.127.006.024.04-.164.77-.164.77-.044.024-.13 0-.13 0-.02-.1-.032-.126-.178-.162l-.8-.204c.004.116-.165.77-.165.774.01-.032 1.308.305 1.308.305.146.036.17.02.195-.028.04-.017.126.006.126.006.025.042-.166.77-.166.77-.042.025-.128.001-.128.001-.02-.098-.034-.128-.178-.164l-2.16-.56c-.025-.043-.004-.13-.004-.13.217.002.232-.028.25-.103l.714-2.755c.02-.08.02-.11-.134-.17-.02-.04.001-.128.001-.128.04-.025 2.276.555 2.276.555.146.035.17.02.198-.04.038-.018.126.004.126.004.025.042-.166.783-.166.783m-4.056.247c-.004-.836-.274-1.103-1.115-1.1h-.37v.002c.033.008.043 2.025.045 2.21l.334-.004c.835-.002 1.105-.27 1.105-1.094zm-.862 1.713l-1.398.006c-.035-.034-.037-.124-.037-.124.138-.05.154-.078.15-.166l-.01-2.84c0-.087-.017-.112-.128-.132l-.03-.12c.034-.034 1.31-.04 1.31-.04.557-.003.986.14 1.273.425s.435.716.437 1.275c.003 1.07-.584 1.713-1.57 1.717m-2.557.144c.122-.083.13-.114.1-.196l-.453-1.832c-.103-.42-.403-.6-.82-.498-.207.05-.356.15-.443.293s-.103.325-.053.53l.452 1.83c.02.083.042.107.153.097.035.026.057.114.057.114-.024.042-.967.273-.967.273l-.035.008-.008-.035-.02-.087c.15-.1.154-.122.132-.2l-.45-1.82c-.205-.837.136-1.37 1.01-1.583.445-.11.81-.082 1.087.086.262.157.446.442.544.844l.45 1.82c.02.08.038.107.164.094.037.026.058.113.058.113-.025.042-.903.26-.903.26-.04-.025-.065-.112-.065-.112m-3.57.472c-.068-.252-.204-1.258-.208-1.297l-.027.01c-.068.066-.55.298-.653.346l.894.977zm-.2.87c.108-.1.098-.118.094-.128l-.128-.153c-.008-.01-2.01-2.08-2.01-2.08-.048-.048-.098-.094-.148-.074-.045-.018-.082-.098-.082-.098.017-.046.778-.404.778-.404l.033-.014.05.112c-.057.058-.082.095-.082.13 0 .013.003.025.01.038a5.84 5.84 0 0 0 .062.082l.386.403c0-.025.993-.5.998-.492-.022-.002-.084-.585-.084-.585s-.017-.098-.017-.098c-.005-.01-.01-.02-.094.005-.04-.018-.08-.097-.08-.097.017-.047.804-.417.804-.417.045.016.083.098.083.098-.055.073-.068.088-.054.204a2636.11 2636.11 0 0 1 .3 2.788l.04.26c.01.02.03.06.123.022.043.017.082.1.082.1-.016.047-.98.496-.98.496-.045-.017-.084-.1-.084-.1m-2.295-1.6c-.115-.087-.145-.09-.264-.01l-1.172.767c.04.001 1.412 2.092 1.412 2.092.047.07.07.1.227.008.046.012.094.087.094.087-.01.048-.882.62-.882.62-.048-.01-.1-.083-.1-.083.127-.146.116-.175.07-.245l-1.557-2.374c-.043-.07-.07-.088-.193-.027-.044-.012-.095-.087-.095-.087.012-.05 1.865-1.263 1.865-1.263.124-.08.127-.112.104-.17.013-.042.086-.092.086-.092.05.01.49.682.49.682-.01.047-.085.096-.085.096m-4 2.054l1.548 2.476c.028.047.062.066.14.023.046.01.095.087.095.087-.012.048-.957.64-.957.64-.048-.01-.096-.087-.096-.087.032-.058.042-.087.042-.108 0-.013-.004-.02-.01-.032-.028-.042-.366-.278-.723-.528l-.9-.633.008.048c.066.2.165.748.165.748l.212 1.14c.01.015.024.028.094.016.036.016.082.1.082.1-.01.047-.965.647-.965.647-.05-.01-.095-.086-.095-.086.072-.095.07-.13.04-.177l-1.547-2.476c-.034-.052-.07-.06-.13-.028-.046-.01-.093-.09-.093-.09.01-.048.747-.505.747-.505l.03-.02.063.102c-.062.07-.08.108-.08.138 0 .02.01.036.02.053l1.206 1.93c-.006-.02-.008-.042-.013-.063-.11-.37-.365-1.63-.365-1.63l-.163-.924c.015-.035.097-.086.097-.086.04.002.88.605.88.605l1.348 1.002-.053-.086-1.2-1.84c-.026-.042-.054-.067-.15-.015-.045-.012-.094-.085-.094-.085.01-.048.768-.522.768-.522.048.01.096.088.096.088-.102.11-.088.15-.064.187m-3.542 4.627c-.06-.252-.156-1.264-.16-1.306l-.028.012c-.074.064-.56.274-.663.32l.853 1.01zm.4-2.682l.202 2.875.022.177c.01.022.028.065.123.03.043.018.077.1.077.1-.02.045-.997.46-.997.46-.046-.02-.08-.102-.08-.102.088-.076.1-.105.1-.118l-.13-.17c-.004-.003-1.926-2.15-1.926-2.15-.047-.05-.093-.095-.145-.08-.043-.02-.076-.1-.076-.1.02-.045.792-.373.792-.373l.032-.013.048.112c-.073.06-.09.105-.09.133 0 .016.004.027.007.032l.06.084c.004.002.37.418.37.42.002-.024 1.01-.453 1.017-.455-.02-.002-.06-.587-.06-.587s-.016-.1-.016-.1c-.006-.01-.01-.02-.092.002-.04-.02-.076-.102-.076-.102.018-.045.817-.383.817-.383.045.018.08.1.08.1-.058.072-.07.085-.062.205m-2.68 1.2c.052-.015.115.026.115.026.014.043-.32.854-.32.854-.034.022-.113.017-.113.017-.033-.04-.042-.16-.042-.16s-.15-.168-.15-.168a.77.77 0 0 0-.575-.055c-.524.143-.767.684-.595 1.314.114.42.292.704.527.836.188.108.422.124.694.048.188-.05.355-.172.437-.317l.043-.24-.014-.084.05-.038c.046.003.65.628.65.628l.07.072-.125.024-.13-.017-.103.093-.125.127a1.36 1.36 0 0 1-.605.336c-.43.12-.87.072-1.23-.135-.393-.223-.677-.62-.82-1.15-.265-.973.17-1.823 1.056-2.066.567-.155.892-.01 1.085.075l.155.047c.025-.007.05-.032.065-.07m-3.185 2.858c.046.008.618.727.618.727l-.028.02v.002h-.002l-.07.055c-.04-.037-.073-.055-.127-.047l-.146.076-.165.1c-.212.12-.465.2-.75.24-.905.12-1.3-.37-1.362-.828-.092-.697.564-.938 1.09-1.133.402-.148.75-.276.713-.55l-.144-.273c-.128-.098-.35-.127-.66-.087-.266.037-.63.178-.756.344l-.043.127.01.083-.084.05c-.047-.01-.53-.742-.53-.742l-.018-.027.086-.066c.054.01.136.07.137.07s.175-.086.175-.086l.176-.102c.001 0 .74-.244.74-.244.643-.086 1.028.086 1.238.247s.346.388.38.638c.104.785-.578 1.034-1.126 1.235-.377.14-.703.26-.67.5l.12.223c.092.07.225.093.396.07.452-.062.63-.252.673-.3l.05-.13-.02-.107c.017-.033.1-.083.1-.083m-2.915-1.467h-1.466l.033.85h.783c.15 0 .172-.023.18-.074l.124-.027.036.787-.126.034c-.045-.09-.063-.116-.215-.116h-.816l.034.796 1.343-.035c.15 0 .17-.02.18-.075l.125-.027.035.788-.124.035c-.047-.092-.065-.115-.216-.115h-2.234l-.035-.125c.22-.054.22-.09.22-.166v-2.843c0-.084-.01-.113-.176-.134l-.03-.123 2.345-.035c.153 0 .17-.022.182-.085l.123-.03.036.8-.125.035c-.047-.092-.063-.114-.216-.114m-3.788 1.355c-.07-.096-.206-.157-.4-.185l-.722-.102c.003.001.005.012.005.033 0 .148-.076.695-.088.786l.69.098c.35.048.536-.062.574-.336zm.86-1.576l-.07.103-.625.9c.014.007.025.016.04.022.415.134.616.502.546 1.005-.082.588-.573.894-1.28.796l-1.577-.225c-.028-.038-.017-.128-.017-.128.143-.03.162-.054.174-.142l.4-2.814c.01-.092-.004-.116-.093-.146-.022-.036-.01-.125-.01-.125.04-.03.96.1.96.1l.033.005-.016.12c-.145.034-.165.058-.174.143l-.16 1.12c.007-.032.542.045.544.045 0-.03.634-.92.634-.92l.096-.17v-.006c0-.015-.01-.04-.088-.057-.014-.02-.017-.054-.017-.082s.003-.043.003-.043c.04-.03.972.1.972.1.03.04.018.128.018.128-.123.03-.165.087-.292.28m-3.457.14c-.038 0-.106-.045-.106-.045-.01-.05.05-.158.05-.158s-.034-.217-.034-.217c-.083-.16-.264-.3-.46-.362a.85.85 0 0 0-.657.063c-.25.134-.446.395-.548.735-.128.417-.13.75-.001.99.103.194.286.33.564.412.3.094.63-.005.692-.204l.007-.022.035-.067.06-.004c.038.026.22.88.22.88l.02.1-.122-.048-.1-.083c-.001-.002-.143.024-.143.024l-.167.04c-.23.046-.455.033-.692-.04-.78-.24-1.408-1.007-1.05-2.185.296-.968 1.118-1.455 2-1.186.563.17.76.466.88.643l.107.123c.024.008.055-.003.093-.024.05.014.08.086.08.086-.012.04-.726.548-.726.548m-8.08-2.83a89.23 89.23 0 0 1-.614-.4c.001.055-.367.63-.42.7l.585.38c.295.188.5.168.66-.064.001 0 .07-.29.07-.29-.024-.117-.12-.23-.283-.336m1.73-.734l-.11.066-.94.542c.01.01.014.022.023.034.32.295.35.718.074 1.146-.324.5-.896.57-1.495.18l-1.336-.865c-.012-.048.035-.122.035-.122.145.032.173.018.22-.055l1.546-2.388c.05-.077.045-.106-.024-.17-.005-.045.045-.12.045-.12.046-.01.826.494.826.494l.03.02-.068.105c-.142-.03-.168-.018-.216.057l-.617.95c.02-.024.473.266.474.268 0-.02.964-.57.964-.57l.16-.114c.005-.03-.005-.054-.056-.093v-.012c0-.045.042-.1.042-.1.048-.01.84.504.84.504.01.05-.04.122-.04.122-.123-.023-.183.01-.378.13m-2.87-1.527l.003-.054c0-.062-.022-.093-.123-.158l-1.23-.795c.002.054-.38.647-.432.728l.654.425c.127.082.156.075.195.036.043-.003.118.046.118.046.01.048-.4.68-.4.68-.05.01-.122-.04-.122-.04.003-.022.004-.04.004-.055 0-.063-.026-.095-.124-.158l-.684-.44c.002.058-.4.677-.403.68.02-.028 1.145.7 1.145.7.128.084.155.077.195.038.042-.005.12.044.12.044.01.048-.4.68-.4.68-.05.01-.123-.038-.123-.038.01-.103.008-.134-.117-.215l-1.875-1.2c-.01-.05.037-.123.037-.123.21.072.23.042.274-.02l1.542-2.386c.045-.07.055-.1-.075-.206-.006-.046.042-.118.042-.118.048-.01 1.986 1.24 1.986 1.24.128.083.154.074.197.026.044-.006.122.043.122.043.01.048-.407.69-.407.69-.046.01-.12-.04-.12-.04m-3.52-2.626l-1.062 2.326c.015-.027.68.274.68.274.13.06.158.054.214-.03.042-.013.124.024.124.024.017.046-.313.77-.313.77-.046.017-.128-.02-.128-.02-.004-.11-.018-.135-.148-.196l-1.97-.896c-.14-.063-.166-.05-.203.003-.042.012-.123-.026-.123-.026-.017-.045.312-.77.312-.77.045-.018.128.02.128.02l-.003.052c0 .095.03.123.14.172l.695.317v-.003c0-.077 1.014-2.3 1.014-2.3.016-.033.025-.058.025-.08 0-.033-.02-.054-.058-.08-.002-.063.025-.126.025-.126.047-.017.88.363.88.363l.032.016-.054.113c-.145-.01-.17.007-.205.087m-3.987.552c-.405.003-.753.007-.806.255-.047.227.09.39.4.453.503.106.804-.056.83-.174 0-.001.012-.077.012-.077.03-.058.127-.076.127-.076.04.022.338.893.338.893l.04.12-.16-.075-.105-.09-.163.022-.19.037c-.24.044-.505.035-.8-.025-.895-.192-1.1-.788-1.004-1.242.146-.686.846-.694 1.41-.7.43-.005.8-.01.858-.278 0-.002-.043-.306-.043-.306-.088-.136-.287-.238-.592-.304-.266-.055-.658-.043-.833.072l-.08.102-.02.083-.095.02c-.04-.026-.253-.878-.253-.878l.035-.006v-.002l.07-.026c.024.013.046.01.046.01.02.04.034.062.05.064 0 .001.2-.02.2-.02l.197-.036.776.018c1 .212 1.34.863 1.23 1.378-.165.776-.892.782-1.475.787m-3-1.69c-.146-.138-.34-.204-.57-.196-.55.017-.842.434-.82 1.17.013.418.126.736.325.92.145.137.337.202.568.194s.42-.085.557-.232c.186-.2.276-.524.262-.938s-.123-.733-.322-.92m-.477 2.694c-.426.013-.8-.12-1.086-.386-.326-.305-.516-.77-.533-1.3-.035-1.046.57-1.767 1.505-1.798.426-.014.8.118 1.085.385.326.305.516.77.534 1.3s-.142 1.018-.448 1.345c-.265.282-.63.44-1.057.454m-3.213-1.05l-.598.087c.032.004.14.715.153.81l.565-.084c.253-.037.405-.1.48-.2l.05-.296c-.044-.296-.22-.382-.65-.318m.32 1.394l-1.507.223c-.038-.03-.05-.115-.05-.115.145-.075.152-.108.14-.19l-.416-2.813c-.013-.083-.028-.11-.153-.108-.035-.03-.048-.12-.048-.12.028-.04.988-.18.988-.18l.033-.006.02.124c-.117.06-.144.09-.144.143 0 .014.001.028.004.044l.165 1.12c.003-.032.674-.13.674-.13.866-.128 1.25.346 1.325.833s-.162 1.052-1.03 1.178" fill="#033f85"/><g fill="#fff"><path d="M1009.484 433.66l-1.25.45.65-1.216-1.18-.835 1.33-.298-.1-1.352 1.1.917 1.018-.917-.068 1.416 1.4.118-1.166.9.666 1.202-1.368-.4-.514 1.3zm8.018-2.067l-1.25.415.65-1.2-1.184-.82 1.37-.298-.134-1.37 1.082.92 1.05-.92-.084 1.417 1.402.12-1.15.88.648 1.218-1.367-.365-.5 1.264zm-8.984-6.9l.497-1.283 1.37.383-.653-1.185 1.153-.9c-.002 0-1.4-.118-1.4-.118l.067-1.433-1.018.935-1.1-.935.116 1.368-1.333.3 1.168.815-.634 1.184 1.248-.415zm9.482-.6l.402-1.184h1.23l-.998-.767.383-1.218-1.018.734-1.015-.734.365 1.218-1 .75 1.2.017zm-.548-9.585l-1.252.432.634-1.2-1.183-.816 1.35-.3-.1-1.368 1.084.935 1.033-.95-.1 1.4 1.417.168-1.15.898.65 1.185-1.35-.384-.5 1.3zm-2.407 25.38c-.4.004-1.03-.56-1.232-.773.815.282 1.123.13 1.3.373.01.13.04.323-.077.4m.508-.218c-.097-.517.256-1.024.663-1.266l.075.4c-.058.367-.446.706-.738.875m-.226-.97c-.044-.145-.172-.33-.135-.5.057-.288.512-.398.653-.828.248.397-.082 1.202-.518 1.317"/><path d="M1015.004 437.837l-.2-.352c-.333-.508.278-.907.27-1.228.185.197.4.727.277 1.092a.86.86 0 0 1-.348.488m-1.228-.077c-.22-.086-.757-.44-1.03-.4.135-.17.727-.136.938-.162.37-.022.62.396.804.7z"/><path d="M1014.36 436.87c-.727-.178-.267-1.032-.882-1.525.423.077.606.082.872.588.12.244.176.687.01.937m-5.66 1.616c-.14-.554-.01-.68.255-1.02-.13.78.787 1.106.37 1.725-.294-.077-.55-.44-.624-.704"/><path d="M1011.784 436.337c.027-.173.72-.13 1.04.01.16.036.7.243.758.438-1.253.285-.807-.18-1.797-.447m1.475 1.812c.057-.164.73-.002 1.023.193.15.064.642.363.666.564-1.284.06-.764-.32-1.7-.757m-4.154 1.668c-.182.084-.696-.178-.828-.273-.32-.146-.812-.635-.7-.77.86.56.907-.082 1.53 1.043m1.723 2.185c.435-.12.63-.38.92-.42.338-.014.46.086.524.2-.136.43-1.002.384-1.444.2m2.007-1.913c-.033.452.144.722.085 1.008-.1.326-.235.406-.373.422-.357-.274-.024-1.07.288-1.43m-2.067 1.557c-.362.128-1-.133-1.196-.3.465.045.758-.472 1.312-.245l.356.187a.86.86 0 0 1-.472.367"/><path d="M1011.484 440.728c-.116-.365.163-.986.35-1.186-.06.464.448.773.203 1.32l-.2.35a.87.87 0 0 1-.351-.484m1.812-4.76l-.403-.023c-.592-.084-.58-.68-1.003-.878.266-.05.94.05 1.186.344.134.147.214.34.22.557m-4.073 4.892c-.54-.194-.57-.373-.706-.78.576.54 1.356-.034 1.634.658-.224.202-.67.208-.928.123m1.253-1.05c.048-.57.213-.648.572-.883-.372.694.385 1.302-.215 1.747-.253-.164-.375-.595-.357-.864m-.678.05c-.03-.78-.017-1.38.317-1.754.213.632.223.918.053 1.3-.06.168-.213.46-.37.453"/></g></g></g></svg>